/* XPM */
static char *result[] = {
/* columns rows colors chars-per-pixel */
"65 65 30 1 ",
"  c #457D35",
". c #497F33",
"X c #437C38",
"o c #3F8933",
"O c #47941E",
"+ c #4A961E",
"@ c #4E981C",
"# c #599F17",
"$ c #52971E",
"% c #549B1B",
"& c #599E1A",
"* c #5BA017",
"= c #5AA019",
"- c #468E26",
"; c #4A8E26",
": c #46862D",
"> c #4A862E",
", c #448D2C",
"< c #4A8B2A",
"1 c #518F27",
"2 c #469224",
"3 c #4B9423",
"4 c #4F9821",
"5 c #469029",
"6 c #499129",
"7 c #519622",
"8 c #519921",
"9 c #448332",
"0 c #488231",
"q c #428A31",
/* pixels */
",87 q48,8%+O,9 94@@&@2,qo6==+@&+%%+O+O+%%+O+@&#@-,2+2,3++&+%8q,9X",
"9><9q8%8%&%%5q9:+32@%3:qq534+@&%&%+O2-+@++++@&&%+3+2,,4+@&3,3-999",
" X9q68&&&&&%6,q,25o2%8-,5oo3+%&&%+++5q222+33@&%%@++-53&%@4,q2+:99",
". 95@&&&&&%++2,q,5oo8%+O+253@&&&@+@&4,,,,3qq3&3,6&@O@%&*4qq3335qq",
"q :3+%=&=@@%=@2,qq53%=%+@%@+++3+@%%&%%85q,9 1%>X<=&%%+&%2,2+2,%3q",
",q:,5@&@@+@&%35qqq53+&%%#*&%%%@%&&=&==&869X9:>. <%%%+O++33@%@2634",
"q,566%%23O@#+5o5,q,25@&&#&&=%%&&&&%%%&==3q:-, X-3@=%@@++O24&&+68=",
",2@&%=4qo5+&+55O5,,,o4%+@&&%568@@%+3%&&&3,3O<.X-+&&&*&=@2,q4@3%&%",
"23@=6+3,9:2++O+%%%822%%5,7%399,54%OO%&@%%2,,:q :,6%%+@%=4:,,,5%==",
"++@@,,,99 ,3@@+%&=&%++3:q669 qoo3@+23+2%%O-36qqq,3&4,2@*%o546q8=%",
"2OO2,,99  :O%@OO@&&&%++3q5<9.9:53+2,,256%+@#86q,53@5q524455@%2%==",
"533q,qq  95OO+++O%@@%@+%668,99,2O2q9-3q,3%#&&%5o,,,o53,,qqo233%%=",
"@+3,q59 qq,OO@%+@@+++++&=45qq,;,,:. 0,,5%%@%&%3,o,52+3,q: .9-O%&=",
"=@5oq,56322O@&&%=%@2-3%&8699q,+4q9 9qq:3@@%%&&%352@++@,qo9X  -$%@",
"%+O563%=&%++@&&%%=85:3%8<9X9,3+%70>qqq,3+3&=&&&@+@&@+%5,55:.X -22",
",2O+%%&&&&%++%%+3%852O4,9.9q3%@%&%%6qq0736%=%&%@@&=@++,,+&@:..,,5",
"qq3%@@@@&&%+O22+O@%%3@@,q<8%%8;%*=%5,5:,,6843++3@=%@&%,q<&%+;-$3o",
"q68=+OO+%=&32,,++@&=%&%2o3%#&83@&%6,5435q6%65%@%@@+@%+,9.1&%@+%82",
"53=%3+33&&%4,q,O+%&&%8%@5,+%%%O235,,2+&@66465%%=%O3O++,q>>$#&+&&=",
"q2%%,43>83686q,O%=%+@3683,2,7&4,oo5O++&=35q5q6%=%2,2+2,5O;+%&%&&=",
"qq4%<5q0%3q6qo5+;;@+%3q:09,4%&%35oO+++**4qq5+4@%@,q8%,,4$:-%&&&&@",
"qq53,,901:<635::.9-+&3q9X98&#%4,-3O2,3@@6652@&%%4,686q,<<.3&&&%32",
"55,,qq9 .q6%=8,  X93%8q6:;%#&4:9;+O:9,254&++@&&#3,76q,,:.>$=&%@2:",
"323259.9X,@===8,..9<8368&$@%%3q9;;.X9q54=%+%%+&&8,q,q,2,:O&=%+%3,",
"OO@%869XX1&&&&%83-9q523%=&%%&+2:,:X 9,2@%++%@+%%+2,,23%322%&32%%3",
"OO+*=699>8&%&&&&@-o:,3%&&&&&#%3,o:9q:-2252@&%%%@O2,2@@&%,,33,,4@O",
"++%=&3558&%+%&&&@2q,2@%&&&&%&@3,o,,,23,qq5%#*%+O+254**86qq:9.q233",
"=%%&&&8%@+++%%+&=3qq23%&&%++3%%62OO3OO3,q6%&@+O++O3@&&3,q9   q:,,",
"=&%@=%@3%;-O@23%=%425,3%%32O+#%8%@+@@O+2:543>:O22+@%@@83,999.qq-2",
"=%@+%+,,8>.;+33%%=&+2o68@-o5%&%%&&@%%@++33-9 q55,3@+O+&%+5,q9qq,O",
"%@3O+2,o,9 98&%+%=%+O23%@2,,4363@#&&*%OO@49X9,,,,,++O+&&%2,qq9q-O",
"+55OO5q,qq99;&&%==%3O@%%@O232,q2+@&=&%++3,:.:O3355@%O+%%+,q,,2:3%",
",q,+O5,22,qq2%=%&=%2,3==%@322,,,O+@%%&@+332-2O+@@3&@+%&4:o523O56&",
"652O@5,OO2,,O@@O%=8,,3%&=%+223qq,223+&&%@%@@+O+@%@&@+&&3q3++OO68&",
"%+3+&35++@2,2+3o5%@55O+&=&%+,qq,5,q,2@&&&&==4,2+@&&+3+%35==@O+%=&",
"@+@%&%8%%*@,3O2q,2O,3O+%&=*+,q,4%3qq3%&&=%=@2q,2@=&3,,3+3@%=@O%=&",
"+O@=&&&&%4348%4-:,554@@&&&@+2-,3%%3,5%&44=%2oqo5+=%5o,,O+O@&=+==&",
"3O@%&&&&O,58&&&+5o5+=%3&=83O+2q9-+%3-@%63%3-55q,6%+,qqq-O3O@@+=%&",
",2O+&&=%5qq6%&&%3o+==668=@52+;09-3+++@%,OOo2O3,oq533q  .q-3++O4@3",
"q,2+%=&@,522+%&&+3@%35q5+3o,3+783O%%@@+,o5o3+OO3,,@%69 9qq@=45425",
"qq,%%435,,332%&=@+O45o99:,q,,3@%@@%&%@@5q,6@++@@48&#%7;33,%%6,2-q",
"o57%@65qqqq,2@%%@+3o5:9999qqqq:3+%#&&=%5o,%%O+==&&%%&&&&%+%3,q3,q",
"57===%3q9999:52<@@254@+2,qq9999;%&&&=%+,q6%@3+%=&%@%&&&%++++2,,,,",
"8%=%@=8q999X9 -4==O2@%%+5qqq333$&83$&&+23%%32%==&+$&%4+%%%%++4,qq",
"%%%&3@%33,9.997&&++++@&+5233%&%=%6q68&@+%%3q1=%%++&&%OO%==&++%,qq",
"O2%%@%=&=4q9:3&&+O@&@%&++@&=&%%%3<5,4&&@+35q6%OO3+&#%+O+&&&%+399q",
"OO8&%%%=*@2o2O@#+@&&&&&%%&=&@32+3@%%@@&%&%%56355:-3%&&+2%&&&@,  9",
"2+&&=&&=*@O33O+&@@&&&&&@%&&@2,o5O@&83+&%%&&%43ooq9::;#&%$434@;>X ",
"q6%%&=&&%++%@@@44@%3%%@+@&&+,q,53@+<:;$@+%==@O:qq XX>%&&@2:o35:9 ",
",,238%&%@3@%&=8,4@2,23++&&&35qq52+;.X1%%++%=@3,:9,.X:+%+O+,,55,q0",
"%%%256%=%&%@&=%365q,q3%&&#%,,qq22:. ;%&%%%+++O,o,2- :+52+O,6%8,6%",
"&&++353%38%+%%%%2,qq,@=%%&@23664@:  ;$17%=%++O,5+%4;-2,,2,2%&%2%=",
"&+O+&87%34@+@++=%8<,2@32@%23%%6&@+,9::.;=%@+35o2%*#%++,q,-2@&++@%",
"&%O+&%%%%@+O3O+%&#%,22q,44qq4=&&@+O,9X:7*4522q52@&&&%O,,5++%&&@+O",
"&@3O+3,563O+52++&&&35,q:32qq4&=&@++,qq088qqq,,2++@#&%OO@%&&&&&&@+",
"%33@2,2,q5O,,,52+3;,:q99-2,3%&=&@+%46q96699qo,-2+%&&%,23&&&&%@%+O",
"%557,2+O,55,q,552:XX999:-52%%&&%+@&=3qqq .><2<,2@&&=4qq2@%&&%++++",
"36q,,2+O,q:qq5@%<q 9995+2,3+O@%@++&&35q9X>$%@85,@&&=8qq4%+&&&&&&=",
"&%%83@%O,,q99q3%6qq:;2O+,,,,2+@&36&&%8q9X>++35qq;++@@8,2@%#&=&@36",
"3%*#%&=+5qq  X<%8323+3::35,o,,5363+&=%8099--:,9 :3556353+%464@+-o",
"q3%%&&%&3oq  918&@%&&<9088,,,,,:6@%%=&%6,,,q9q99;O,q,5@+O35,,+2,q",
"q3++&@@&5o:.98&++@%#=368=8,2+OO,3&%=&=&6,+O290q2O3:q6&=@O+&@OO,,5",
",4%O+++%33-.3=&++++@%%%&&&%++++%%%%=%=&8%%+88846,,o,2@=@+&&@2,,,o",
"q4=O2+%*++398$<-O3+@%=&%%&&+OO+@+3%=%8==&@+&===85565,+@@+&=%+5,q5",
",8%3,4=%++3,3-9:2O+===%+@=&+O+O++O+&@+&&%O+%&&&&3,8353++@&&&%3,:o"
};
