/* XPM */
static char *result[] = {
/* columns rows colors chars-per-pixel */
"32 32 24 1 ",
"  c #457D35",
". c #47941E",
"X c #4B961D",
"o c #4E981C",
"O c #50951E",
"+ c #539B1B",
"@ c #599F19",
"# c #5AA018",
"$ c #458F27",
"% c #4A8F25",
"& c #45852F",
"* c #49842E",
"= c #448D2C",
"- c #4A8C2A",
"; c #508F27",
": c #469224",
"> c #4B9423",
", c #4F9821",
"< c #469029",
"1 c #499129",
"2 c #529523",
"3 c #519921",
"4 c #448333",
"5 c #428A31",
/* pixels */
"-*-3+,54XX,5<XX@+.:o..@+<>=o+>-4",
" 53@#+<==<+<<<+#.+==>=@>+:++=$>4",
"4=X@o++=5<++#X+X@@@,5 % ++XX<+:>",
"=,+>:+:===>@@@,++o@@-% =+++o<3X+",
".+<=4:Xo#XX<<*4=X.X+>155>X>@=<1#",
":<54 <o.++X,1=4:>=$1+@>=1=$1=>X#",
"+=5--.++@:>#,4=>4 =<+++<<XX5  >@",
">:X##Xo++1<>44>@2-41>##o@+>=X*4=",
"=+oX#+=:X#+>=@+>#<<=1>XoX+,42+.2",
"<+>>3>=<++>X<>+:=<o@1->@::>=%+@#",
"5>=4%=-=*X+44+@<:.:+1<++<>=-*@@>",
":<=  @@= =,1O+>4% =>@o+@1=<=:#+:",
".+34;@@@=5:@#@+=&4=:.@oX<1+O1>:+",
"+@+X+.+@>=>@@X+<::.=<@XX.++=4 4=",
"@o+<-->O#X=>><@+++X.>*&:>oX+=54<",
">::554++@+>+::<:+#@.< <<<oX+===>",
"<:>=:=XX@:1@+><5::+++,:o+o+>:.:3",
"o++++:>=:<:+#X=>>5X##X=:#,<>+@o#",
":+#@:>@+5>+++.%&,>+>,:=5X=5-:oo@",
"=.++=<O@:@11>=>;.+X1=:.<<+44<+:>",
"53X===>+X<=&555:+#+:1XX#@@@+o>==",
"+@@14 4>+:+o=5>2+3+:3,+#X+X++o>5",
".X+@O4$@X@+oX+++<1@+X53:>#.+@+<5",
":@@@+:.+o@++#+=<o3>+#+>54-+@O.- ",
"1>+@X+@>>->o#>5=$*;+o+>4& >+:<15",
"#X>O3+@X==>@+>1>- 2>#o:=+><=$X>+",
"@.+3>.:+@>$=,=+@X$ 2o:=>+@.->@@.",
",><$<:=:X*55::#@XX5=45=.+@$X@@+o",
"X:<X=5=,5 &%<:X+X@1 *.>=+@1:+#@+",
"2@++=4 23>>-:5<<>@@===5 :<1..>X=",
"1oo+%41+X#>2+1>>+@@>,<*<$=+oX.<=",
">X:@X=>-.X#+@+.XX++#X##3-<>X@@$5"
};
