/* XPM */
static char *result[] = {
/* columns rows colors chars-per-pixel */
"65 65 237 2 ",
"   c #2A3C1B",
".  c #353B1D",
"X  c #2D3F22",
"o  c #393D24",
"O  c #4A3D2C",
"+  c #443B28",
"@  c #264B0F",
"#  c #2B4E0D",
"$  c #22450E",
"%  c #2D520D",
"&  c #234614",
"*  c #244A13",
"=  c #2B4B11",
"-  c #23431A",
";  c #28481A",
":  c #34481D",
">  c #2A5312",
",  c #2A5419",
"<  c #385819",
"1  c #31580E",
"2  c #3B6C12",
"3  c #346517",
"4  c #3B7618",
"5  c #3A680F",
"6  c #2D4325",
"7  c #334523",
"8  c #354A23",
"9  c #33452C",
"0  c #354A2D",
"q  c #3A4C2B",
"w  c #3A4B25",
"e  c #3B5323",
"r  c #3D532B",
"t  c #395928",
"y  c #364A32",
"u  c #394D33",
"i  c #364834",
"p  c #3E523B",
"a  c #3D5636",
"s  c #396826",
"d  c #3B7628",
"f  c #3E6936",
"g  c #434B1D",
"h  c #45671A",
"j  c #467719",
"k  c #557A1A",
"l  c #51740D",
"z  c #4C422D",
"x  c #454627",
"c  c #554829",
"v  c #425C24",
"b  c #435B2B",
"n  c #445529",
"m  c #4C4931",
"M  c #594B35",
"N  c #455C3D",
"B  c #435A35",
"V  c #595634",
"C  c #535D28",
"Z  c #665739",
"A  c #655428",
"S  c #4D6B25",
"D  c #49642B",
"F  c #4D6B2C",
"G  c #476527",
"H  c #516D2A",
"J  c #447926",
"K  c #527323",
"L  c #53732C",
"P  c #5A7D2C",
"I  c #587C26",
"U  c #4A6434",
"Y  c #4E6B33",
"T  c #4B643C",
"R  c #4E693B",
"E  c #466236",
"W  c #516D34",
"Q  c #516D3A",
"!  c #467D35",
"~  c #487835",
"^  c #547334",
"/  c #5B7B33",
"(  c #55733C",
")  c #5B7B3C",
"_  c #56793A",
"`  c #6E7338",
"'  c #3B4E42",
"]  c #3D5142",
"[  c #415542",
"{  c #455B41",
"}  c #485D42",
"|  c #6E5B41",
" . c #715D42",
".. c #4C6343",
"X. c #486542",
"o. c #536D42",
"O. c #506545",
"+. c #597642",
"@. c #796547",
"#. c #647D43",
"$. c #836D4C",
"%. c #816D42",
"&. c #8B734D",
"*. c #8A7251",
"=. c #957B55",
"-. c #937B4F",
";. c #3E832A",
":. c #3F821A",
">. c #488619",
",. c #5C841B",
"<. c #5C8417",
"1. c #47931E",
"2. c #4A951D",
"3. c #4E981C",
"4. c #52951B",
"5. c #549C1B",
"6. c #599E1A",
"7. c #519117",
"8. c #638B1B",
"9. c #648816",
"0. c #6C931C",
"q. c #6C9216",
"w. c #749B1C",
"e. c #769A18",
"r. c #698C0D",
"t. c #5AA019",
"y. c #5AA017",
"u. c #7CA21C",
"i. c #7DA319",
"p. c #64A61D",
"a. c #458D25",
"s. c #448D2D",
"d. c #4B8A2A",
"f. c #478729",
"g. c #5E822B",
"h. c #598525",
"j. c #469224",
"k. c #4B9423",
"l. c #46902A",
"z. c #4A912A",
"x. c #529522",
"c. c #529921",
"v. c #5A9926",
"b. c #458332",
"n. c #428B31",
"m. c #4B8633",
"M. c #5B8338",
"N. c #589335",
"B. c #648B23",
"V. c #658A2B",
"C. c #658929",
"Z. c #6C9323",
"A. c #6C932B",
"S. c #679D2B",
"D. c #749B23",
"F. c #759A29",
"G. c #62843C",
"H. c #698D3C",
"J. c #658937",
"K. c #6C9333",
"L. c #6B933B",
"P. c #689A36",
"I. c #739C3B",
"U. c #7A9D3B",
"Y. c #759836",
"T. c #7CA323",
"R. c #7DA42C",
"E. c #77A62C",
"W. c #79A537",
"Q. c #72A731",
"!. c #668741",
"~. c #7A9A43",
"^. c #6D9440",
"/. c #7FA145",
"(. c #81A61C",
"). c #84AA1D",
"_. c #8BAE1D",
"`. c #8DB21D",
"'. c #92B51D",
"]. c #96B91E",
"[. c #9BBD1E",
"{. c #84AA23",
"}. c #84AC2B",
"|. c #86AA26",
" X c #8BB428",
".X c #93B524",
"XX c #95BA23",
"oX c #9BBC24",
"OX c #94BB2C",
"+X c #9CBD2B",
"@X c #94B52B",
"#X c #86AA37",
"$X c #8CB333",
"%X c #89B338",
"&X c #97B836",
"*X c #A0BF26",
"=X c #819F3A",
"-X c #9FC11F",
";X c #A3C31F",
":X c #ABCA1E",
">X c #B2D01F",
",X c #9DC228",
"<X c #9DC237",
"1X c #A4C323",
"2X c #A9C726",
"3X c #ABCA24",
"4X c #A4C42A",
"5X c #ACCB2A",
"6X c #A5C929",
"7X c #B2CE25",
"8X c #B2CE29",
"9X c #B5D222",
"0X c #B5D22A",
"qX c #BAD42A",
"wX c #BCD727",
"eX c #A2C432",
"rX c #A7CB37",
"tX c #B9D734",
"yX c #AED130",
"uX c #C2DB25",
"iX c #C4DC2B",
"pX c #C8DF2A",
"aX c #CBE22B",
"sX c #CDE327",
"dX c #D2E62C",
"fX c #D6E82B",
"gX c #D9EB2D",
"hX c #CAE233",
"jX c #9D8258",
"kX c #829F47",
"lX c #A3885B",
"zX c #89A746",
"xX c #98B746",
"cX c #8CB045",
"vX c #A98E60",
"bX c #9EC142",
"nX c #A7C942",
/* pixels */
"s.x.x.! n.c.x.l.c.5.1.1.l.b.! b.c.c.3.t.3.l.n.n.n.z.p.p.E.OX%X#XW.E.t.k.c.1.2.5.5.2.1.1.3.t.6.3.j.s.1.2.j.s.j.1.2.6.2.5.5.s.n.b.! ",
"b.d.d.n.n.k.6.k.6.6.5.5.l.n.b.b.k.k.j.3.5.k.;.;.Q.Q.%X<X<X,X,XOXOX$XE.Q.Q.Q.v.5.2.2.2.2.5.6.6.5.2.j.k.j.s.s.2.5.3.6.k.s.l.j.b.b.! ",
"! ! ! n.z.5.t.t.6.6.6.3.j.s.s.s.z.l.;.k.5.t.v.S.<XrXyXyXwXtXtXwXqXyX6X,X,X$XQ.S.x.f.j.j.3.6.5.5.5.3.2.j.a.k.6.5.3.k.s.s.j.1.s.b.b.",
"! ! b.l.5.6.6.5.6.6.5.k.2.l.l.n.n.z.;.;.c.Q.%X&X<XyXtXhXdXdXfXfXfXsXaX9X6XXX}.W.P._ b.b.k.5.k.s.z.5.3.1.3.6.6.6.x.s.n.z.2.k.d.n.n.",
"n.! b.1.2.5.t.6.t.3.3.3.t.3.j.s.n.n.l.k.E.&X&XeXtXtXtXaXaXaXdXdXfXsXaXaX7X,X[.|.Y.G.Q ~ d.5.d.! d.6.6.5.5.3.5.5.j.;.j.1.k.s.c.k.s.",
"n.n.s.s.l.3.5.5.3.2.3.t.5.k.l.;.;.;.N.Q.4XyX0XiXhXhXhXaXgXgXgXdXfXdXaXqX3X1X,XXX}.K.^ ~ Y F ! b.s.5.5.5.2.1.3.2.k.k.5.t.2.j.z.k.c.",
"n.s.l.z.z.6.5.j.j.j.3.t.3.l.n.l.n.N.P.&XqXiXqXiXaXpXaXgXgXaXdXdXdXsXiX9X3X3X,X.XR.C./ / E t s b.k.5.5.5.3.3.2.1.k.j.k.t.t.1.z.c.6.",
"s.j.3.6.5.5.k.s.;.j.3.t.3.;.l.k.z.I.%XeX0XqXqXqXwXiXaXdXdXaXiXaXaXiX0X3XqX3XXX}.Z.I / ) U e e J 1.4.6.6.6.6.6.5.k.;.s.k.3.k.5.t.6.",
"j.1.3.t.j.k.k.n.n.n.j.2.2.k.3.t.L.kX@X8XiXiXqXqXqXqXpXpXpXqX8XiXaXaX7X1X2X2X.X|.Z.P / Q b e v v < G 4.5.2.3.5.t.c.;.;.l.l.z.c.p.6.",
"2.2.2.3.l.l.s.m.b.b.s.k.3.v.P.P.kXzX&X8X8X5X8XiX8XqXqXiXqXqX8XqXqX0X2X2X2X+X|.=XA.` / N b v < : : < h k.s.j.5.y.c.l.;.c.z.n.k.t.5.",
"j.2.k.j.s.n.b.b.! ! m.N.v.%XcX/.kXcXbX8X*X2X8XqXqX8XqXiXqX*X8X*X4X+X+X2X5X+X#X=XY.K.) N b S t e e : e s d J j.2.c.n.z.t.3.l.c.t.6.",
"l.j.j.l.n.n.b.! ! m.N.I.cX<XbXxX#XlXxX*X2X8X8X2X8X8XqXqXqX*X+X*XoX.X@X.X+X+X#X!.L.Y.` R T F b r 8 9 6 8 e t ;.s.;.n.;.z.k.3.5.t.6.",
"3.3.j.l.n.n.n.b.;.N.W.%X<XbXbXbXzXzXxX*X&XiXiX8X@X*XqXqX8X*X&X*X2X4X@X#X@X#X~.#.!.U.Y.G.+.R m i u a D b t : t ! n.! b.! ;.3.5.t.5.",
"t.3.l.;.;.l.z.z.z.P./.xXbXbXnXnXxXkXzX&XxXnXtX8X*X2XqX8X8X+X&X*X2X5X+X#X=XkX~.U.=XU.J.#.+.T N ' ] R ( Y b t w t d b.! ! n.l.c.5.5.",
"c.3.k.;.l.k.3.t.v.W.%XrXnXnXnXrX&XxXzXxXxXbX+X+X8XqX8X*X*X+X@XoX5XyX&X#XkX~.~.U.Y.!...O.o...[ N Q _ _ ( Y G e 8 t J s.b.b.n.;.k.j.",
";.j.k.c.3.t.t.v.I.W.<XrXtXtXtXrX+X@X&XzXxXxXxXvX8XqX2X&XoX*XoX*XyXrX&XcX=XkXkX#.o.O.[ } o.o.T / C.g./ ^ L K G q 7 t j.;.+.n.l.;.s.",
";.l.l.5.3.3.k.N.I.%XrXrXiXhX0X0XqXyXeXbXzXzXxXnXnX8X*X*X*X*X*X2X0X&XzX%X%XkX!.+.+...[ o.H.H.Q C.Z.C./ / L K b w w < 7.x.f.k.x.z.s.",
"n.z.c.t.3.j.z.M.H.=X%X+XtXtXhXpXiX0XrX+XxXxXxXxXbX*X*X&X@X@X@X@X&X%XkXcX&X=X#.o.o.o.o.( H.Y.C.Z.T.F.P ^ W S D G e e 5.6.3.2.5.5.k.",
"l.c.t.t.k.k.m.+.) !.U.<XtXaXdXdXpXqX5X4X+XbXxXxX&X*XoX.X|.|.=X=X#X#X~.zX%X=XJ.) G._ ( Q V.F.0.w.).D.^ R W D S h v < >.4.5.5.5.6.6.",
";.z.c.t.l.k.d.o.+.) U.eX0XiXaXaXpXqX8X5X*X+X&X&XoXoX.XoX@X|.@X=XD.=XY.#X#XF.D.u.R.A.L F g.0.8.w.i.Z.T T Y F b r w : v >.6.5.6.6.6.",
"n.;.c.t.l.l.m.) H.^.~.%X4X7XiXiXiX8X8X2X*X+X@X+X*X*XoX*X|..X*X.X).(.=X).|.{.`.`.).T.0.h.C.C.C.{.{.C.T Y H S b q 7 : 8 >.6.6.6.5.3.",
"n.;.l.z.s.m.M.H.I.L.I.#X+X2X7X8X*X8XuX2X2X2X2X*X*X*X*X*X_.'.2X:X[.oX:X7X;X[.].i.w.w.w.e.w.Z.C.w.F.^ W Y D n w 7 6 : 6 j 6.6.5.k.z.",
"l.n.;.l.b.M.M.L.L.Y.Y.Y.$X+X*X4X8X*X2X7X*X*X8X8XuXiXiXuX*X*X7X9X:X9XuX9X1X-X[.).w.w.w.u.w.C.P C.P Q L D q q 7 w : : : j 6.5.3.j.s.",
"j.c.k.z.M.M.H.L.F.}.}.V.}.$X&X@X*X*X.X*X*XoX*X7X8XuXpXuXuXuXuXuX9X:X;X].)._.-X[.`.).0.0.P Q Q W H H K n 9 7 8 e v < : J 5.2.5.k.s.",
"k.2.2.c._ +.H.W.R.XX_.D.T.}.=X=X|.|.|..X[.[.[.*X;X7XuX7X9X9XuXuXuX;X_.`.).`.;X;X(.0.8.8.P T N U b n e q 8 7 8 e e : 7 t J l.v.c.j.",
"2.1.3.5.Q ( G.W.R.XX`.i.`.).D.C.Z.Z.(.(.'.[.*X;X*X:X7X;X:X9XuXuX9X;X`.'.].;X[.`.w.8.8.8.8.I L B u y u n n q q u u 9 y i p d k.3.2.",
"3.k.c.c.R +.L.I.Q.{.'.].-X_.w.D.q.(.Z.(._.[.'._..XoX'.[.;X>XuX9X[.'.'._.`.'.(.w.w.u.q.8.h.C.I U B p N B N B p p p p ' ' ] { a.2.1.",
"t.c.x._ Q J.I.I.F.u.'.;X[._.T.{.|._._._._.(.(.(.(.r.(._.[.:X:X'.(.(._.(.i.u.0.<.w.).w.0.P W Y W Q R N } T { ] ] ' ' ' ' ] a b.s.s.",
"t.t.d.W L J.K.K.A.D.i.u.w.{..XXXoX_.(.(.(.k (.(.k (.(.(.'.;X'.(.w.w.i. X).u.q.8.0.D.P B.C.Q W W _ ) ) o.} ] ] ' ' ' N { X.T ;.l.z.",
"t.5.h.S K B.Z.B.B.8.8.<.k e.-X3X*X.X(.I (.k l (.k r._._._.[._.(.0.0.u.).).w.8.,.<.g.T L L ^ / T Q ) ( o.{ [ T T [ ] p B N p f ;.1.",
"3.d.h.l k 8.D.9.k l k l h q.,X7X2X;X_.(.k (.l l r.(.(.(.(.'.'.(.,.Z.u.w.8.,.,.j k h.R T Q ) ) ( Q Q N [ [ { ^ ^ U p a U a p ] ;.2.",
">.d N.k l <.9.<.l < < h h B.OX6X:X:X*X_.(.(.'.(._.(.(.(.l k (.l k h.,.,.,.,.,.k I / ) +.) +.J./ ^ W { [ [ T Q H D r b D E a u ! 4.",
"d f K.D.9.8.q.r.l l h h k M.I.OX6X:X:X;X`.-X-X-X].'.).0.,.,.,.K s k ,.8.8.q.w.w.C./ P.K.G.( ) _ Q R { N Y W W D n < t G D B i J 6.",
"4 s I.T.Z.u.).e.e.q.8.k B.V.L.#X,X6X:X>X>X;X-X;X:X>X;X_.w.w.8.j J 8.w.e.i.).).T.Z.C.A.K._ T ^ R N } N T F F D n < < w G F n i J 5.",
"j r H.F.A.T.'.'.i.q.8.8.8.D.K.P.Q.,X-X-X;X:X:X>X9X9X:X]._.i.0.,.8.).`.`.'.'.i.u.0.B.A.V.^ N Y T { [ [ C v e w < v v n D G r y J 6.",
"4 t #.H.V.{.;X1X{.`.(.8.<.8.Z.K.v.Q.T. X,X,X:X>X>X>X-X Xu.u.w.w.0.i.].,X,XXX Xu.Z.B.A.A.P W Y T } [ { Y G e g v v h S n t r r k 6.",
">.d N.J.Y.|.*X3XXX,X_.9.,.8.0.Z.g.A.{.[. X,X-X>X;X'.).0.0.w.w.8.q.e.T.%X%X%XE.Z.B.P P I I ^ R N } [ N W H S k G G H K t 9 t J 7.5.",
";.2.d.) L.}. X'.}..X(.h.q.w.0.D.h.8.w.i.T. X6X:X'.).u.8.<.<.k J h.E.P.!.I.L.g.g.P Y D F D R O.R T U R L I 8.8.H b v h e 9 r 4.5.5.",
"s.z.d.) #.H.A.D.A.F.F.T.{.).).w.8.k ,.8.Z.T.-X]. XT.w.w.0.<.k P V.I.^.G.+.( ( M.) N N T T R ^ ^ L ^ C.B.B.B.B.K v w 0 9 y t x.4.1.",
"s.n.d.d.( +./ G.g.F..XoX(.(.).e.9.k 8.e.u.u.u.u.E.E.T.]. X{..X X#XW.W.^.!.+.) !.!.( } N ^ P I P V.V.V.B.h.K S b G G 9 i s J j.j.s.",
"s.n.s.4.o.O.o.+.G.A.|..XD.B.0.0.I g.S.`.]._.i.u. X%X X,X6X6XyXyXOX%XW.W.^.^.M.L.^.M.o.T P B.B.8.V.V.C.I K K K b t v 0 i f n.k.j.n.",
"n.s.k.v.+.O...o.+./ J.F.A.P I Z.F.|.,X,X,X,X,X6X,X$XR.<X<X6XyX6XOX}.I.^.^.I.I.L.M.+.Q Q P I B.I g.P I k G S K D 9 9 y r s n.j.l.n.",
"s.k.6.6.c._ O.} Q o.( ) / L C.|.,X<XrXrXyXyXrX,X#XW.#XW.E.,X,X<X6X$X!.M.H.W.W.M.( R R ^ I I I k S S H I H r q q 0 u a J l.n.s.s.s.",
"c.6.t.6.3.x._ { X.} N X.T T ) K.#X%X<X<X<XrXrX<X}. X$XR.Q.E.E.E.%XW.H.M.^.W.!.R p a E L L H S G G v v H G 0 9 i y r f.2.k.c.s.;.s.",
"5.5.5.5.2.3.x.! ~ X.} [ ] X.X.o.N.I.cX<X%X/.bX%XR.R.}. X}.A.g.M.P V.A.M.g.G.U B E B E D D G S S v e q r t q y u q j 5.5.3.3.l.n.s.",
"1.1.5.5.3.5.6.t.6.m...X.] ] ] ] +.H.W.cXP.N.Q.Q.W.A.K.}. XE.g.^ Y W ^ F Y Y B B F F D t r b H G b w 9 9 q u u r 4 t.t.5.2.k.b.b.n.",
"1.1.4.6.6.6.6.t.y.4.s.! f ' ] [ X.X.o._ _ +.^.<X}.K./ g.A.V.g.g.g.Y b a D L L D D F r q q q t n r 0 y u u q r , j 2.5.5.4.s.b.! b.",
"j.k.5.6.6.6.6.6.5.5.2.j.f.f ] } X.[ ] [ X...M.Q.K.^ ^ ~ Y L L L h.L F L F L g.L D r q 9 9 0 q 0 9 0 y u 7 ; = > 1 3 3 4 >.a.b.! ! ",
"n.z.c.5.5.t.5.t.5.2.2.3.3.f.~ ~ d t } [ p p B Y b B b B U D F L L L L h.L F H F n 0 q 9 i i u i u 9 6 6 - % 1 % @ $ & * 3 ;.;.d ! ",
"l.l.j.k.c.6.t.5.3.2.2.6.t.t.5.z.c.s a y 0 q 9 9 9 7 7 r D S H F D t D F b q B q y 9 0 7 6 6 6 6 9 6 - - & @ @ @ $ * & & - , d ;.b.",
"5.6.3.k.z.j.k.6.6.6.c.3.6.y.5.j.;.s *   . g : . X   7 7 w n n n r 9 i y y 0 y i i 9 + +   * & - & & - - & * & * @ * * * % @ ; s >.",
"t.5.2.2.k.l.k.6.k.c.5.2.5.5.2.>.3 , ; : c c g . . g g + g c g . 6 6 9 9 i i o z + + c M x   ; = @ % @ & & * & & & & * @ % @ * > 2 ",
"5.3.k.2.t.k.k.6.k.c.3.3.5.2.>.5 # : x M A M c O O A A c A A A g w x x m + + z M c O z Z Z O   & % % % # @ @ & - & & @ # # @ @ $ @ ",
"5.3.1.2.5.t.5.5.t.3.j.1.1.>.2 @ % : c m z z z M Z %.%.A A %.%.A A Z M m O O M Z Z O O z m x o ; % # # # @ @ & & * @ @ # # # @ $ @ ",
"t.k.2.2.2.k.s.l.l.l.3.j.;.4 , > # # = = * X z  .=.lX-.%.%.&.-.-.&.%.Z M O O M Z Z z O + 6 - * @ @ @ % % # @ @ @ # # # # % % # @ , ",
"6.k.k.3.j.j.l.l.;.l.3.l.;.d * * # # ; ; ; 8 | =.vX=.$. .$.-.=.lX=.$. .M O O O |  .M +   ; * * * @ @ % # # & $ * # # # # # @ @ 1 2 ",
"5.l.l.x.s.j.2.1.l.l.z.n.n.;., - * &   - 6 V =.vX=.@.| | &.=.lXjX=.$. .M O O O | @.@.M X ; ; - * # # # % * - & * @ # # % # # 1 :.1.",
"2.l.n.s.s.k.2.2.l.;.n.n.n.;.4 > & - - 6 Z =.=.*. .M M | $.=.lX=.*.&. .M O O O | $.*.@.M . = & - @ # % # # & - * # @ # % 1 5 >.5.t.",
"5.5.5.c.j.5.5.1.l.;.n.m.b.;.;.5 * ; 6 Z *.jX*.| M O O | $.=.=.lX=.*.| O O O O M  .@.@. .M o - - $ @ @ @ @ = & & @ % % 1 j 7.2.k.z.",
"z.6.y.t.5.5.5.5.l.;.n.n.! ! f.>.4 < Z $.*.@.| m X X X M  .*.lXlX=. .Z O O o   X x M | @.@.V - - & @ * & & * $ $ @ 1 4 d 1.3.2.j.n.",
"n.k.6.5.t.5.6.6.s.s.b.b.! m.d.5.7.j H C n x o   = > ; w Z *.lXlX*.Z M z o : % =     w m m q - - & * & - & , 1 3 2 4 a.s.a.1.j.s.n.",
"l.j.2.k.5.3.3.5.z.s.s.! n.z.5.2.1.5.4.k j 3 , 1 % = = ; n @.lXlX$.M + o   % % ; * @ # * ; - - * = @ , , 3 4 >.1.j.2.5.3.1.1.s.s.n.",
"l.k.3.2.2.2.3.5.k.1.a.! x.t.5.2.1.2.2.2.7.7.>.j 4 1 > = * n @.=.@.x = = # % # # # @ @ # = % 1 3 3 d d ;.a.2.5.3.2.t.t.5.j.l.s.n.n.",
"l.k.t.1.j.2.5.t.2.2.j.b.x.4.z.z.1.1.2.3.5.6.5.7.7.7.>.j 4 4 F | C < 2 2 5 5 5 h 4 2 2 j >.>.>.a.;.s.l.n.l.2.3.2.2.t.5.5.3.l.s.n.;.",
"n.c.5.k.s.k.t.t.2.2.k.;.k.l.b.s.k.1.2.t.5.t.5.2.5.t.5.2.1.1.j V D 4 4 j 4 4 >.>.>.>.:.7.y.5.6.6.2.l.5.z.s.1.2.2.3.t.5.t.5.2.s.s.s."
};
