/* XPM */
static char *result[] = {
/* columns rows colors chars-per-pixel */
"32 32 217 2 ",
"   c #253D18",
".  c #2D3C1D",
"X  c #3A3A1E",
"o  c #283F21",
"O  c #433C2A",
"+  c #4B3E2D",
"@  c #26480D",
"#  c #2A4D0D",
"$  c #2E520C",
"%  c #234614",
"&  c #2B4313",
"*  c #254A12",
"=  c #294E12",
"-  c #23411A",
";  c #274C18",
":  c #34461C",
">  c #2C5813",
",  c #325C12",
"<  c #30571C",
"1  c #3C551D",
"2  c #39660F",
"3  c #37691B",
"4  c #3B7517",
"5  c #2E4227",
"6  c #324524",
"7  c #3A4526",
"8  c #344B23",
"9  c #33452D",
"0  c #34492D",
"q  c #3A4D2C",
"w  c #375124",
"e  c #3B5222",
"r  c #3C5B25",
"t  c #3C522B",
"y  c #354831",
"u  c #394E32",
"i  c #3D5436",
"p  c #386626",
"a  c #3D6634",
"s  c #4B451F",
"d  c #436218",
"f  c #437A19",
"g  c #5A7F10",
"h  c #577E1C",
"j  c #4A4328",
"k  c #524A26",
"l  c #405421",
"z  c #425C25",
"x  c #435C2A",
"c  c #4F4230",
"v  c #534631",
"b  c #564E35",
"n  c #425938",
"m  c #445A3D",
"M  c #5B5238",
"N  c #66573B",
"B  c #725F38",
"V  c #456026",
"C  c #496427",
"Z  c #46622A",
"A  c #4A632A",
"S  c #4D6A28",
"D  c #447623",
"F  c #5A7E24",
"G  c #55762A",
"H  c #52722C",
"J  c #5B7E2B",
"K  c #4B6533",
"L  c #446837",
"P  c #4D6A33",
"I  c #4B643C",
"U  c #4E6A39",
"Y  c #516E34",
"T  c #526E3C",
"R  c #457435",
"E  c #457D35",
"W  c #547233",
"Q  c #5B7C33",
"!  c #55743B",
"~  c #587739",
"^  c #5A7A3D",
"/  c #79653B",
"(  c #3A4D43",
")  c #3E5142",
"_  c #465B41",
"`  c #455C43",
"'  c #735F43",
"]  c #4B6341",
"[  c #4E6448",
"{  c #526C42",
"}  c #587640",
"|  c #796547",
" . c #7B6548",
".. c #826D3F",
"X. c #846F4D",
"o. c #8D7547",
"O. c #957B55",
"+. c #3F8030",
"@. c #468618",
"#. c #4B8E1A",
"$. c #5C841B",
"%. c #5F8819",
"&. c #47941E",
"*. c #4C961D",
"=. c #4E981C",
"-. c #52951A",
";. c #539B1B",
":. c #599F19",
">. c #618614",
",. c #668A16",
"<. c #658C1C",
"1. c #6C931D",
"2. c #759C1B",
"3. c #799E19",
"4. c #5BA019",
"5. c #7AA11A",
"6. c #7CA31B",
"7. c #458224",
"8. c #458F25",
"9. c #4B8B22",
"0. c #46842C",
"q. c #448D2C",
"w. c #4A8B2A",
"e. c #5E8323",
"r. c #528B24",
"t. c #469125",
"y. c #4B9323",
"u. c #469028",
"i. c #49912A",
"p. c #519523",
"a. c #589726",
"s. c #519821",
"d. c #448333",
"f. c #4B8633",
"g. c #428B31",
"h. c #5C8138",
"j. c #5F9032",
"k. c #618526",
"l. c #668D26",
"z. c #698F27",
"x. c #668D2C",
"c. c #708D28",
"v. c #6B9325",
"b. c #759928",
"n. c #749A2A",
"m. c #678A37",
"M. c #63843D",
"N. c #668B3A",
"B. c #6B9433",
"V. c #6B923C",
"C. c #6B9C39",
"Z. c #739936",
"A. c #70943C",
"S. c #749A3E",
"D. c #67A12A",
"F. c #79A728",
"G. c #7CA42B",
"H. c #79A438",
"J. c #688A41",
"K. c #7B9944",
"L. c #82A51B",
"P. c #84AA1D",
"I. c #8BAE1D",
"U. c #8EB21D",
"Y. c #92B61E",
"T. c #98BB1E",
"R. c #87A922",
"E. c #84AB25",
"W. c #84AA2C",
"Q. c #8DB324",
"!. c #88B32E",
"~. c #95B626",
"^. c #9CBE23",
"/. c #94B829",
"(. c #9CBC2A",
"). c #88AE31",
"_. c #88AB38",
"`. c #87B137",
"'. c #8BB332",
"]. c #95B935",
"[. c #99BC3C",
"{. c #A1BE26",
"}. c #9EC01F",
"|. c #A9C81F",
" X c #B6D41F",
".X c #9EC121",
"XX c #9EC529",
"oX c #A3C224",
"OX c #A9C726",
"+X c #ABCA22",
"@X c #A4C329",
"#X c #A8C72C",
"$X c #A6CA2B",
"%X c #AECC2C",
"&X c #B2CE26",
"*X c #B2CE28",
"=X c #ADD12A",
"-X c #B6D225",
";X c #BCD724",
":X c #B6D129",
">X c #B9D329",
",X c #BFD92A",
"<X c #A5C936",
"1X c #ADD039",
"2X c #B6D436",
"3X c #C1DB23",
"4X c #C3DC2C",
"5X c #C4DE34",
"6X c #CAE12A",
"7X c #D2E62B",
"8X c #D7EA2C",
"9X c #9D8258",
"0X c #A3885D",
"qX c #88A644",
"wX c #94B347",
"eX c #9FC145",
"rX c #A3C541",
/* pixels */
"w.w.i.s.;.s.g.d.s.s.y.i.D.!.'.'.F.D.s.=.*.*.;.;.y.t.q.=.;.y.q.d.",
"E d.;.4.:.;.u.q.u.g.D.'.2X5X6X6X>X$XW.j.w.w.;.y.=.*.;.;.u.q.y.d.",
"d.q.s.;.=.;.=.q.d.F.{.5X5X6X8X8X7X-X.XG.~ R w.E ;.;.=.=.t.=.y.y.",
"u.y.;.y.u.;.t.u.A.#X4X4X6X8X6X7X,X%X@XF.J K r 0.;.;.;.=.u.s.s.;.",
"y.=.i.g.d.y.a.C._.4X>X>X4X4X:X4X-XOX~.c.~ x l 1 D =.y.:.q.u.i.4.",
"y.y.g.d.E C.wXqXwX{.*X*X:X>X{.{.~.XX_.A.M.K z 7 8 r 7.8.q.y.=.4.",
"4.+.g.i.J.<XrXrXqX[.2X{.*X*X(.{.(._.K.S.A.} _ m U x w d.E E y.;.",
"y.y.;.a.H.1X2X<X].wXwX<X*X(.(.*X<XqXK.^ _ { m Q Q H z 8 9.0.d.q.",
"+.;.=.M._.%X5X6X%X[.wXeX@X~.(.[.qX`.J.{ ] J.z.b.h.H C e r.;.*.p.",
"&.4.t.} J.#X6X6X:X@X].].~.~.R.n.Z._.n.n.Q e.1.L.W P V e 3 -.:.:.",
"g.i.g.J.K.'.&X:X*XOXOXOX+X~.}.T.oXoXY.6.2.1.z.b.T A t 6 : ;.:.y.",
"y.i.h.C.b.n.].(.{.{.{.&X4X;X-X;X|.T.T.U.2.k.Y H S 7 8 1 8 :.;.i.",
"&.p.} H.U.P.E.z.2.R.}.}.+X+X3X3XY.Y.}.6.<.$.Y i q q q q 0 a q.*.",
";.^ N.Z.E.}.P.P.L.I.L.L.3.T.&XI.P.P.2.2.2.k.Y U I I ) ( ) _ E q.",
";.S z.x.<.%.L.|.R.1.>.,.L.I.Y.1.5.P.<.$.W G ! ! } ` I m m m a t.",
"D <.>.g d d b.=X+XL.L.3.L.1.1.h $.$.$.h ~ ^ ^ W _ ` T Z r x ` y.",
"C b.3.3.%.$.m.`.+X+X+X|.|.6.l.f 1.6.P.v.z.h.T I _ P V 1 z C i s.",
"p V.Q.^.P.>.v.x.F..X.X X|.P.2.<.U.XXQ.1.z.J I m m z l d C e L 4.",
"9.J.W.Q.E.1.2.1.<.6..X.X2.$.$.F B.J.m.J K P U I Y J k.z z 6 9.;.",
"f.f.~ Q G.Q.6.<.h 6.6.F.E.~.Q.).H.J.^ M.] Y J k.z.e.G z 0 p y.y.",
"g.a.[ { Q B.e.F./.XXXXXX`./.=X$XH.J.H.h.! Q l.F J S C q y 0.q.q.",
";.:.p.` ` ] I Z.<XeX<XH.!.G.Z.G.B.V.N.m L H S V z x 9 y 7.-.y.q.",
"*.;.;.:.f.] ) ] J.J.C.`.B.F.x.H H K P Z x t C r q u y 4 :.;.8.d.",
"t.;.:.:.=.y.L L ) ] T x.P P H J G H G Z q 9 u u 9 o # > 3 @.w.E ",
"i.y.s.;.;.;.4.y.< 6 7 5 5 t V x x n t 9 7 . - 5   - = * % % 3 g.",
";.*.y.=.s.-.;.4 & j k X s s k : 9 y 7 j c k % ; # * * % % # # 4 ",
";.*.;.s.=.=.4 # : : O ' o.B ../ N + v N + O - * # # * % * # @ 4 ",
";.y.t.q.+.+.3 % # ; M 0XX. .0X9X| + + | v   ; % # $ % * $ @ > #.",
"s.i.t.*.t.g.+.> - b 0X' v  .9XO.| + + '  .j * % # # % % @ 2 -.=.",
"s.4.;.;.+.g.d.#.e B M .   M 0XO.N O . . b M - - % % = , 4 y.=.u.",
"q.=.=.;.t.d.i.-.*.@.4 , , & X.O.X & $ # * % ; 3 3 p #.=.=.y.t.q.",
"y.=.y.;.=.w.y.u.*.*.:.-.-.#.2 C f f f @.@.#.=.=.y.+.*.=.;.;.u.g."
};
