/* XPM */
static char *result[] = {
/* columns rows colors chars-per-pixel */
"32 32 136 2 ",
"   c #3F3D04",
".  c #5F2606",
"X  c #4B3D0A",
"o  c #533309",
"O  c #5E3209",
"+  c #5E3F0C",
"@  c #632A03",
"#  c #63290A",
"$  c #772A0F",
"%  c #7D2F0C",
"&  c #613608",
"*  c #60380C",
"=  c #793B05",
"-  c #77350E",
";  c #7D360C",
":  c #72390A",
">  c #7B3D0D",
",  c #7A3E10",
"<  c #4D4608",
"1  c #534708",
"2  c #544B0C",
"3  c #5D4A0C",
"4  c #54520C",
"5  c #5F5310",
"6  c #61450B",
"7  c #7D410A",
"8  c #7E4214",
"9  c #605F10",
"0  c #695F11",
"q  c #616315",
"w  c #6E6D15",
"e  c #787018",
"r  c #797B20",
"t  c #85300F",
"y  c #832C12",
"u  c #894C0F",
"i  c #824116",
"p  c #864913",
"a  c #8D4D14",
"s  c #914B12",
"d  c #9A4C14",
"f  c #964318",
"g  c #964A19",
"h  c #8F5117",
"j  c #8D5E15",
"k  c #915415",
"l  c #965915",
"z  c #93561A",
"x  c #9C551B",
"c  c #945A1C",
"v  c #9A5B1B",
"b  c #89621B",
"n  c #866C1B",
"m  c #9F611D",
"M  c #81741F",
"N  c #A3651F",
"B  c #945921",
"V  c #9B5E21",
"C  c #A45D23",
"Z  c #9F6322",
"A  c #916E20",
"S  c #9A6B20",
"D  c #9B7827",
"F  c #A36421",
"G  c #A56A23",
"H  c #AA6D26",
"J  c #AE632B",
"K  c #A46A29",
"L  c #AB6E2A",
"P  c #B16626",
"I  c #B36F26",
"U  c #B1622A",
"Y  c #B46B2B",
"T  c #AD722B",
"R  c #B3752D",
"E  c #BD742E",
"W  c #B5792E",
"Q  c #B97A2F",
"!  c #B76C33",
"~  c #AC7033",
"^  c #B17533",
"/  c #BB7734",
"(  c #B57A32",
")  c #BB7D34",
"_  c #C07032",
"`  c #CD7438",
"'  c #C77C3A",
"]  c #C87F3A",
"[  c #D47B3B",
"{  c #968A2E",
"}  c #9F8931",
"|  c #A88330",
" . c #BD8236",
".. c #B58A36",
"X. c #B58738",
"o. c #BF8339",
"O. c #BF8A3B",
"+. c #C38337",
"@. c #C1853A",
"#. c #C9853E",
"$. c #C58A3D",
"%. c #CC8C3F",
"&. c #D3813D",
"*. c #C78C41",
"=. c #CC8D42",
"-. c #DB8741",
";. c #D48841",
":. c #CC9143",
">. c #D29445",
",. c #D89547",
"<. c #D29847",
"1. c #D29648",
"2. c #DA9549",
"3. c #D59A4B",
"4. c #DA9C4C",
"5. c #E18645",
"6. c #E6944E",
"7. c #E8914C",
"8. c #E79C51",
"9. c #DCA14E",
"0. c #DEA252",
"q. c #E3A555",
"w. c #EEA256",
"e. c #E2A957",
"r. c #E8A857",
"t. c #E7A75A",
"y. c #E7A959",
"u. c #EBAC5D",
"i. c #F0AB5C",
"p. c #EFB25F",
"a. c #F3B05F",
"s. c #F1AF61",
"d. c #FCAC63",
"f. c #F4B465",
"g. c #F5B864",
"h. c None",
/* pixels */
"h.h.h.h.h.h.h.h.h.h.h.h.h.h.h.h.h.h.h.h.h.h.h.h.h.h.h.h.h.h.h.h.",
"h.h.h.h.h.h.} { h.h.h.h.h.h.h.h.h.h.h.h.h.h.h.h.h.h.h.h.h.h.h.h.",
"h.h.h.h.h.( ` _ ;.h.h.h.h.h.h.h.h.h.h.h.h.h.h.h.h.h.h.h.h.h.h.h.",
"h.h.h.h...5.B > [ D h.h.h.h.h.h.h.h.h.h.h.h.h.h.h.h.h.h.h.h.h.h.",
"h.h.h.h.| 6.^ , C T r h.h.h.h.h.h.h.h.h.h.h.h.h.h.h.h.h.h.h.h.h.",
"h.h.h.h.b &.3.*.:.*.=.=.@.h.h.h.h.h.h.h.h.h.h.h.h.h.h.h.h.h.h.h.",
"h.h.h.h.6 U q.g.:.@.>.w.d.O.h.h.h.h.h.h.h.h.h.h.h.h.h.h.h.h.h.h.",
"h.h.h.h.2 J 9.u.1.T K *.g.;.j n :.;.X.r h.h.h.h.h.h.h.h.h.h.h.h.",
"h.h.h.h.q / >.$.1.V > K 0.R v E 8.u.d.7.G h.h.h.h.h.h.h.h.h.h.h.",
"h.h.h.h.9 I @.( B = u (  .) @.) H $.:.%.+.H h.h.h.h.h.h.h.h.h.h.",
"h.h.h.h.4 J :.( 7 u Q %.( R o.( m z T <.r.8.A h.h.h.h.h.h.h.h.h.",
"h.h.h.h.< J 9.:.) o.:.<.$.R  .@.~ a G :.e.r.R m h.h.h.h.h.h.h.h.",
"h.h.h.h.h.B >.0.y.1.O.*.:.$.*.=.O.G m T O.@.R -.>.h.h.h.h.h.h.h.",
"h.h.h.h.h.t Y $. .R R ) ) 1.0.:. .T l l H L  .:.,.$.h.h.h.h.h.h.",
"h.h.h.h.h.< y a N 1.1.R :.<.$.( T m R :.=.:.q.1.=.2.w h.h.h.h.h.",
"h.h.h.h.h.h.6 C N $.1.) $. .$.$.H R 3.u.t.3.0.4.2.2.e h.h.h.h.h.",
"h.h.h.h.h.h.h.] ;. .K F o.T L (  .4.u.f.u.0.1.<.4.+.0 h.h.h.h.h.",
"h.h.h.h.h.h.h.' a.$.p p ( L c G 3.u.e.r.u.y.%.$./ x 1 h.h.h.h.h.",
"h.h.h.h.h.h.h.P ,.$.~ ~ Z z ( r.s.0.:.:.0.e.=.W v = h.h.h.h.h.h.",
"h.h.h.h.h.h.h.d H :.t.3.Z v $.p.u.u.:. .@.%.o.c s R h.h.h.h.h.h.",
"h.h.h.h.h.h.h.; s %.g.0.T L 1.f.u.f.y.$.G H L G / 4.n h.h.h.h.h.",
"h.h.h.h.h.h.h.o ; R 3.:.R R 1.u.t.u.u.:.Z h N / #.! g h.h.h.h.h.",
"h.h.h.h.h.h.h.h.# d R W G R $.1.9.4.=.o.T k l B i # o h.h.h.h.h.",
"h.h.h.h.h.h.h.h.h.& u W :. .( $.4.3.o.v h W a & h.h.h.h.h.h.h.h.",
"h.h.h.h.h.h.h.h.h.X t I 3.q.0.0.9.>.R G / ' 5 h.h.h.h.h.h.h.h.h.",
"h.h.h.h.h.h.h.h.h.h.+ f I %.,.#.R C x  .4.C h.h.h.h.h.h.h.h.h.h.",
"h.h.h.h.h.h.h.h.h.h.h.o : p s p : @ , J / 3 h.h.h.h.h.h.h.h.h.h.",
"h.h.h.h.h.h.h.h.h.h.h.h.h.X o o X h.< $ - h.h.h.h.h.h.h.h.h.h.h.",
"h.h.h.h.h.h.h.h.h.h.h.h.h.h.h.h.h.h.h.h.h.h.h.h.h.h.h.h.h.h.h.h.",
"h.h.h.h.h.h.h.h.h.h.h.h.h.h.h.h.h.h.h.h.h.h.h.h.h.h.h.h.h.h.h.h.",
"h.h.h.h.h.h.h.h.h.h.h.h.h.h.h.h.h.h.h.h.h.h.h.h.h.h.h.h.h.h.h.h.",
"h.h.h.h.h.h.h.h.h.h.h.h.h.h.h.h.h.h.h.h.h.h.h.h.h.h.h.h.h.h.h.h."
};
