/* XPM */
static char *result[] = {
/* columns rows colors chars-per-pixel */
"65 65 100 2 ",
"   c #2D0600",
".  c #2F0B00",
"X  c #340400",
"o  c #390302",
"O  c #330A00",
"+  c #3A0D03",
"@  c #2E1300",
"#  c #251D00",
"$  c #2B1C00",
"%  c #301000",
"&  c #3D1104",
"*  c #252400",
"=  c #292100",
"-  c #262800",
";  c #410704",
":  c #410D03",
">  c #4B0C07",
",  c #431406",
"<  c #481707",
"1  c #471806",
"2  c #491A07",
"3  c #4D1508",
"4  c #4D1C09",
"5  c #501709",
"6  c #521D0A",
"7  c #5E1C0D",
"8  c #432608",
"9  c #4C230A",
"0  c #442F08",
"q  c #4D2A0A",
"w  c #55230A",
"e  c #5B250C",
"r  c #542A0C",
"t  c #5D2B0D",
"y  c #4C330A",
"u  c #4E3A0B",
"i  c #53360C",
"p  c #5D320E",
"a  c #61250E",
"s  c #632D0E",
"d  c #64310F",
"f  c #68340F",
"g  c #6C2410",
"h  c #642F10",
"j  c #6B2D10",
"k  c #702610",
"l  c #752D12",
"z  c #653311",
"x  c #6A3411",
"c  c #663912",
"v  c #6D3B13",
"b  c #6B3718",
"n  c #6D3C1A",
"m  c #743313",
"M  c #733C15",
"N  c #793E14",
"B  c #733E19",
"V  c #793D1A",
"C  c #644213",
"Z  c #6C4115",
"A  c #734316",
"S  c #794416",
"D  c #764817",
"F  c #7A4917",
"G  c #744519",
"H  c #7B4619",
"J  c #764A19",
"K  c #7C4C1A",
"L  c #7E521B",
"P  c #794725",
"I  c #7D4E20",
"U  c #794628",
"Y  c #7F5321",
"T  c #804D1B",
"R  c #81541D",
"E  c #835A1E",
"W  c #824621",
"Q  c #824C22",
"!  c #844828",
"~  c #835422",
"^  c #885326",
"/  c #855C23",
"(  c #895D26",
")  c #87572A",
"_  c #8B562B",
"`  c #86582B",
"'  c #8B5E2B",
"]  c #905F2F",
"[  c #8E5D30",
"{  c #905D33",
"}  c #866020",
"|  c #8A6125",
" . c #8D612D",
".. c #8E6131",
"X. c #926334",
"o. c #96643B",
"O. c #98653E",
"+. c #98693B",
"@. c #996640",
"#. c None",
/* pixels */
"#.#.#.#.#.#.#.#.#.#.#.#.#.#.#.#.#.#.#.#.#.#.#.#.#.#.#.#.#.#.#.#.#.#.#.#.#.#.#.#.#.#.#.#.#.#.#.#.#.#.#.#.#.#.#.#.#.#.#.#.#.#.#.#.#.",
"#.#.#.#.#.#.#.#.#.#.#.#.#.#.#.#.#.#.#.#.#.#.#.#.#.#.#.#.#.#.#.#.#.#.#.#.#.#.#.#.#.#.#.#.#.#.#.#.#.#.#.#.#.#.#.#.#.#.#.#.#.#.#.#.#.",
"#.#.#.#.#.#.#.#.#.#.#.#.#.#.#.#.#.#.#.#.#.#.#.#.#.#.#.#.#.#.#.#.#.#.#.#.#.#.#.#.#.#.#.#.#.#.#.#.#.#.#.#.#.#.#.#.#.#.#.#.#.#.#.#.#.",
"#.#.#.#.#.#.#.#.#.#.#.#.#.#.#.#.#.#.#.#.#.#.#.#.#.#.#.#.#.#.#.#.#.#.#.#.#.#.#.#.#.#.#.#.#.#.#.#.#.#.#.#.#.#.#.#.#.#.#.#.#.#.#.#.#.",
"#.#.#.#.#.#.#.#.#.#.#.#.#.#.#.#.#.#.#.#.#.#.#.#.#.#.#.#.#.#.#.#.#.#.#.#.#.#.#.#.#.#.#.#.#.#.#.#.#.#.#.#.#.#.#.#.#.#.#.#.#.#.#.#.#.",
"#.#.#.#.#.#.#.#.#.#.#.#.#.#.#.#.#.#.#.#.#.#.#.#.#.#.#.#.#.#.#.#.#.#.#.#.#.#.#.#.#.#.#.#.#.#.#.#.#.#.#.#.#.#.#.#.#.#.#.#.#.#.#.#.#.",
"#.#.#.#.#.#.#.#.#.#.#.#.#.0 v V V V V #.#.#.#.#.#.#.#.#.#.#.#.#.#.#.#.#.#.#.#.#.#.#.#.#.#.#.#.#.#.#.#.#.#.#.#.#.#.#.#.#.#.#.#.#.#.",
"#.#.#.#.#.#.#.#.#.#.#.#.h H _ [ ' Q N V #.#.#.#.#.#.#.#.#.#.#.#.#.#.#.#.#.#.#.#.#.#.#.#.#.#.#.#.#.#.#.#.#.#.#.#.#.#.#.#.#.#.#.#.#.",
"#.#.#.#.#.#.#.#.#.#.#.s T o.) R ~ ' ' Q V #.#.#.#.#.#.#.#.#.#.#.#.#.#.#.#.#.#.#.#.#.#.#.#.#.#.#.#.#.#.#.#.#.#.#.#.#.#.#.#.#.#.#.#.",
"#.#.#.#.#.#.#.#.#.#.s H ' ^ m s x F { +.W #.#.#.#.#.#.#.#.#.#.#.#.#.#.#.#.#.#.#.#.#.#.#.#.#.#.#.#.#.#.#.#.#.#.#.#.#.#.#.#.#.#.#.#.",
"#.#.#.#.#.#.#.#.#.#.l / X.G 1 + , d ~ | V #.#.#.#.#.#.#.#.#.#.#.#.#.#.#.#.#.#.#.#.#.#.#.#.#.#.#.#.#.#.#.#.#.#.#.#.#.#.#.#.#.#.#.#.",
"#.#.#.#.#.#.#.#.#.#.l ^ X.Z &     4 M m 7 #.#.#.#.#.#.#.#.#.#.#.#.#.#.#.#.#.#.#.#.#.#.#.#.#.#.#.#.#.#.#.#.#.#.#.#.#.#.#.#.#.#.#.#.",
"#.#.#.#.#.#.#.#.#.#.l R X...v & + & w p t x V #.#.#.#.#.#.#.#.#.#.#.#.#.#.#.#.#.#.#.#.#.#.#.#.#.#.#.#.#.#.#.#.#.#.#.#.#.#.#.#.#.#.",
"#.#.#.#.#.#.#.#.#.#.l F | +...v w c A ) ` _ ! V m j r #.#.#.#.#.#.#.#.#.#.#.#.#.#.#.#.#.#.#.#.#.#.#.#.#.#.#.#.#.#.#.#.#.#.#.#.#.#.",
"#.#.#.#.#.#.#.#.#.#.7 M E ..@...J ( '  .' ' { X.{ ^ K v u #.#.#.#.#.#.#.#.#.#.#.#.#.#.#.#.#.#.#.#.#.#.#.#.#.#.#.#.#.#.#.#.#.#.#.#.",
"#.#.#.#.#.#.#.#.#.#.3 m K ~ Y Y ' X.X./ v G ..^ T ' X.^ V u #.#.#.#.#.#.#.#.#.#.#.#.#.#.#.#.#.#.#.#.#.#.#.#.#.#.#.#.#.#.#.#.#.#.#.",
"#.#.#.#.#.#.#.#.#.#.o 3 s z D ( X.@.' z w Y | G Y o.O. .R x #.#.#.#.#.V V #.#.#.#.#.#.#.#.#.#.#.#.#.#.#.#.#.#.#.#.#.#.#.#.#.#.#.#.",
"#.#.#.#.#.#.#.#.#.#.@ + w Z ( X.o.@.' r c Y } L ' o.O.o.) v q #.p m M m m g l C #.#.#.#.#.#.#.#.#.#.#.#.#.#.#.#.#.#.#.#.#.#.#.#.#.",
"#.#.#.#.#.#.#.#.#.#.O & D ( X.O.@.X./ Z L J c J | o.O.X./ m w t H _ [ [ ^ T T M z C #.#.#.#.#.#.#.#.#.#.#.#.#.#.#.#.#.#.#.#.#.#.#.",
"#.#.#.#.#.#.#.#.#.#.X 4 L / |  ...| ' [ Y r & q J  .o.' T f a A / | ' o.o.o. .~ T A i #.#.#.#.#.#.#.#.#.#.#.#.#.#.#.#.#.#.#.#.#.#.",
"#.#.#.#.#.#.#.#.#.#.o 6 L Y Y J J L  .' c 1 , , f ( o.) A 4 4 x K E / /  .O.O.X.| K h 9 #.#.#.#.#.#.#.#.#.#.#.#.#.#.#.#.#.#.#.#.#.",
"#.#.#.#.#.#.#.#.#.#.X 6 L / c 4 c R / z 2 4 4 1 v ( | R s w t z x J R E E X.o.' T S s w 8 #.#.#.#.#.#.#.#.#.#.#.#.#.#.#.#.#.#.#.#.",
"#.#.#.#.#.#.#.#.#.#.o 6 J D z Z R J t 2 3 4 4 t L E R v v ~ ' ~ v a m L E E ^ H H K J N h i #.#.#.#.#.#.#.#.#.#.#.#.#.#.#.#.#.#.#.",
"#.#.#.#.#.#.#.#.#.#.X 3 D K ` ..~ r , 4 9 6 t H / L x z ` o. ./ L D d v R L v S ~ ' { ' S h 9 #.#.#.#.#.#.#.#.#.#.#.#.#.#.#.#.#.#.",
"#.#.#.#.#.#.#.#.#.#.o : v / Y } J 2 + 2 3 t D E E F t t n K / } } R w , t z v R | X.@.o.( v a C #.#.#.#.#.#.#.#.#.#.#.#.#.#.#.#.#.",
"#.#.#.#.#.#.#.#.#.#.o o z R A L R v w w z K / / R K Y Z z z v J F f 9 2 , r R } / | ..@...A a j t y #.#.#.#.#.#.#.#.#.#.#.#.#.#.#.",
"#.#.#.#.#.#.#.#.#.#.X X t L L E ( E F I `  .( L R [ o.( L D s t s c J M w d R R E L ( o. .A a M H v y #.#.#.#.#.#.#.#.#.#.#.#.#.#.",
"#.#.#.#.#.#.#.#.#.#.o O t T E E X.X.X.o.o.| R K ( X.| J A J Y U P L E v e v R M J E /  .( M s / | T Z y #.#.#.#.#.#.#.#.#.#.#.#.#.",
"#.#.#.#.#.#.#.#.#.#.X o w H E E ' X.X. .( T t J  .( J x Z / o.o. .E F z s m M s D E E R F j v ~  . .R f #.#.#.#.#.#.#.#.#.#.#.#.#.",
"#.#.#.#.#.#.#.#.#.#.$ O 1 m K E / / / L A m w Z | J x v ~ o.o. .E R J R J f e e N T K v d v L K R  .( K y #.#.#.#.#.#.#.#.#.#.#.#.",
"#.#.#.#.#.#.#.#.#.#.#.o + w v K K K M f v ~ n c L J D L X.O.' L D J E R c 6 w e e x d s M ~ } L H ~ X.R h 8 #.#.#.#.#.#.#.#.#.#.#.",
"#.#.#.#.#.#.#.#.#.#.#.#.X + 2 w r s s v ` O._ x D L E | ' | Y v s M H v 6 t Z H Z v Z L ' X. .L M H X.' N 7 #.#.#.#.#.#.#.#.#.#.#.",
"#.#.#.#.#.#.#.#.#.#.#.#.X X   . 5 e f K ' O.o.G c J ' | / L v v K A a e d K E  .X.[ ( L  .o.o. .J G  ...K g #.#.#.#.#.#.#.#.#.#.#.",
"#.#.#.#.#.#.#.#.#.#.#.#.#.X X & v N s M R ' ' R t c / } R B c / o./ d e K / E X.@.o. ./ / | X.X.L L / ..T g #.#.#.#.#.#.#.#.#.#.#.",
"#.#.#.#.#.#.#.#.#.#.#.#.#.#.X 2 N T c a J E E E c z L E J v Y X...~ v v ~ ' ]  .o.O.o.( L L | ..( E ( ..K g #.#.#.#.#.#.#.#.#.#.#.",
"#.#.#.#.#.#.#.#.#.#.#.#.#.#.o 3 F ( ~ s f K E K z Z E R M f T | L Z c L ' o.o.X.' X.O.[ L } } ....L / | H 7 #.#.#.#.#.#.#.#.#.#.#.",
"#.#.#.#.#.#.#.#.#.#.#.#.#.#.o 6 L  .X.~ f x M t z H K T K t t Z v v J ( o.O.o.o.X...o.X./ L R | ..J L L z > #.#.#.#.#.#.#.#.#.#.#.",
"#.#.#.#.#.#.#.#.#.#.#.#.#.#.X 4 D  .O.X.^ v w , h v A R E t , 7 v K | o.O.X.o.@.O.X.o.o. .K K ^ ' Z H S 6 ; #.#.#.#.#.#.#.#.#.#.#.",
"#.#.#.#.#.#.#.#.#.#.#.#.#.#.o 3 A ( o.O.{ S 9 + + r L R f 9 t v K ' o.O.X.( / [ { o.O.o.X.E J T E c c z 1 X #.#.#.#.#.#.#.#.#.#.#.",
"#.#.#.#.#.#.#.#.#.#.#.#.#.#.X 5 m R  .X.K c t r 9 t Z z 3 t L (  .o.O.O.| L E / / ' X.O.X.' K v K A a w + X #.#.#.#.#.#.#.#.#.#.#.",
"#.#.#.#.#.#.#.#.#.#.#.#.#.#.X < j H / R f A )  .' J s 2 w F ( X.O.o.O.o.' R L E E E E ) '  .K e v m w < X O #.#.#.#.#.#.#.#.#.#.#.",
"#.#.#.#.#.#.#.#.#.#.#.#.#.#.o : w m K A H ( X.O.' R c 3 d R |  .o.o.o.O.X./ K K L / R F J ( Y 9 3 w s f > #.#.#.#.#.#.#.#.#.#.#.#.",
"#.#.#.#.#.#.#.#.#.#.#.#.#.#.o + 4 s m d Y o.O.O.' D t < d / ' ' X.o.o.o.O.X./ D c J E D c L L 4 & e K ^ m #.#.#.#.#.#.#.#.#.#.#.#.",
"#.#.#.#.#.#.#.#.#.#.#.#.#.#.@ X , t e t ~ o.O.../ E J w w ~ O.o.[ { o.o.o.o.( J x z H K Z J L 1 , A ' X.~ c #.#.#.#.#.#.#.#.#.#.#.",
"#.#.#.#.#.#.#.#.#.#.#.#.#.#.#.O O , 6 v R  . .| E E R v z Y +.@.o.X.o.o.o.@.X./ K t 3 c T L c w x ] X.X.` N a #.#.#.#.#.#.#.#.#.#.",
"#.#.#.#.#.#.#.#.#.#.#.#.#.#.#.% O O , e H L L E E E A e A /  .o.o.o.o.o.o.o.o. .E M 6 2 f v t M '  .~ A t e 6 #.#.#.#.#.#.#.#.#.#.",
"#.#.#.#.#.#.#.#.#.#.#.#.#.#.#.#.O X O 2 c R } E E K d z L } L | [ o.o.O.o.o.X.X.| R v 3 , s H E R A r < O X + #.#.#.#.#.#.#.#.#.#.",
"#.#.#.#.#.#.#.#.#.#.#.#.#.#.#.#.+ X X , w A L L K c x A L L E E E / [ X.[ ) R R L L J s w s m f r , + X O . X #.#.#.#.#.#.#.#.#.#.",
"#.#.#.#.#.#.#.#.#.#.#.#.#.#.#.#.#.% O o & w d x s v S v x S K Y E E R R K A c f d t w s H e , + X o X X @ - #.#.#.#.#.#.#.#.#.#.#.",
"#.#.#.#.#.#.#.#.#.#.#.#.#.#.#.#.#.#.% X O , 3 e v K / R v t z A F R R T K A c f a 4 1 A T e O   O O o . #.#.#.#.#.#.#.#.#.#.#.#.#.",
"#.#.#.#.#.#.#.#.#.#.#.#.#.#.#.#.#.#.#.% X + 4 v R ( ] ' / K J K R ( X.o.X.( E K s t V ^ Q 6 O O = #.#.#.#.#.#.#.#.#.#.#.#.#.#.#.#.",
"#.#.#.#.#.#.#.#.#.#.#.#.#.#.#.#.#.#.#.#.O X , h K E ' X.X.O.O.o.X...X.X.' R F d w m ' ' v ; X #.#.#.#.#.#.#.#.#.#.#.#.#.#.#.#.#.#.",
"#.#.#.#.#.#.#.#.#.#.#.#.#.#.#.#.#.#.#.#.= O + 2 f K E E | X. ...( E R R J m s w v ' X.K w o . #.#.#.#.#.#.#.#.#.#.#.#.#.#.#.#.#.#.",
"#.#.#.#.#.#.#.#.#.#.#.#.#.#.#.#.#.#.#.#.#.% O + 3 f H K R E E E L H S x e e s A / X.{ c & * #.#.#.#.#.#.#.#.#.#.#.#.#.#.#.#.#.#.#.",
"#.#.#.#.#.#.#.#.#.#.#.#.#.#.#.#.#.#.#.#.#.* % O & 2 w x N A A H m a 6 6 2 3 s K E ( Q 6 + #.#.#.#.#.#.#.#.#.#.#.#.#.#.#.#.#.#.#.#.",
"#.#.#.#.#.#.#.#.#.#.#.#.#.#.#.#.#.#.#.#.#.#.#.@ O O : 3 4 4 6 3 9 , + O O O & t K R c , # #.#.#.#.#.#.#.#.#.#.#.#.#.#.#.#.#.#.#.#.",
"#.#.#.#.#.#.#.#.#.#.#.#.#.#.#.#.#.#.#.#.#.#.#.#.#.@ o X X o X O O O X X X X . + t s , @ #.#.#.#.#.#.#.#.#.#.#.#.#.#.#.#.#.#.#.#.#.",
"#.#.#.#.#.#.#.#.#.#.#.#.#.#.#.#.#.#.#.#.#.#.#.#.#.#.@ X X X X X o X @ #.$ O . O + & + . #.#.#.#.#.#.#.#.#.#.#.#.#.#.#.#.#.#.#.#.#.",
"#.#.#.#.#.#.#.#.#.#.#.#.#.#.#.#.#.#.#.#.#.#.#.#.#.#.#.#.#.#.#.#.#.#.#.#.#.#.#.O O X @ #.#.#.#.#.#.#.#.#.#.#.#.#.#.#.#.#.#.#.#.#.#.",
"#.#.#.#.#.#.#.#.#.#.#.#.#.#.#.#.#.#.#.#.#.#.#.#.#.#.#.#.#.#.#.#.#.#.#.#.#.#.#.#.% @ #.#.#.#.#.#.#.#.#.#.#.#.#.#.#.#.#.#.#.#.#.#.#.",
"#.#.#.#.#.#.#.#.#.#.#.#.#.#.#.#.#.#.#.#.#.#.#.#.#.#.#.#.#.#.#.#.#.#.#.#.#.#.#.#.#.#.#.#.#.#.#.#.#.#.#.#.#.#.#.#.#.#.#.#.#.#.#.#.#.",
"#.#.#.#.#.#.#.#.#.#.#.#.#.#.#.#.#.#.#.#.#.#.#.#.#.#.#.#.#.#.#.#.#.#.#.#.#.#.#.#.#.#.#.#.#.#.#.#.#.#.#.#.#.#.#.#.#.#.#.#.#.#.#.#.#.",
"#.#.#.#.#.#.#.#.#.#.#.#.#.#.#.#.#.#.#.#.#.#.#.#.#.#.#.#.#.#.#.#.#.#.#.#.#.#.#.#.#.#.#.#.#.#.#.#.#.#.#.#.#.#.#.#.#.#.#.#.#.#.#.#.#.",
"#.#.#.#.#.#.#.#.#.#.#.#.#.#.#.#.#.#.#.#.#.#.#.#.#.#.#.#.#.#.#.#.#.#.#.#.#.#.#.#.#.#.#.#.#.#.#.#.#.#.#.#.#.#.#.#.#.#.#.#.#.#.#.#.#.",
"#.#.#.#.#.#.#.#.#.#.#.#.#.#.#.#.#.#.#.#.#.#.#.#.#.#.#.#.#.#.#.#.#.#.#.#.#.#.#.#.#.#.#.#.#.#.#.#.#.#.#.#.#.#.#.#.#.#.#.#.#.#.#.#.#."
};
