/* XPM */
static char *result[] = {
/* columns rows colors chars-per-pixel */
"65 65 220 2 ",
"   c #010000",
".  c #060406",
"X  c #1C0E00",
"o  c #110900",
"O  c #070418",
"+  c #2A1200",
"@  c #261000",
"#  c #361900",
"$  c #3F1C18",
"%  c #00002E",
"&  c #000034",
"*  c #02003A",
"=  c #09053B",
"-  c #120836",
";  c #0F1131",
":  c #11133A",
">  c #12162F",
",  c #391927",
"<  c #3F1734",
"1  c #1E2035",
"2  c #3D3D3D",
"3  c #363639",
"4  c #342B33",
"5  c #461E00",
"6  c #4C2800",
"7  c #4C2600",
"8  c #5C2B01",
"9  c #532806",
"0  c #57261D",
"q  c #54301A",
"w  c #622800",
"e  c #6A3500",
"r  c #6A3306",
"t  c #7A3700",
"y  c #6B2F14",
"u  c #452826",
"i  c #4B3529",
"p  c #562F21",
"a  c #61382A",
"s  c #7A4D16",
"d  c #44423E",
"f  c #050143",
"g  c #0A0244",
"h  c #0B014C",
"j  c #070649",
"k  c #160949",
"l  c #171649",
"z  c #020B53",
"x  c #0E015A",
"c  c #0C0753",
"v  c #13005E",
"b  c #140953",
"n  c #181654",
"m  c #0D104E",
"M  c #292947",
"N  c #3B3A48",
"B  c #3D3E53",
"V  c #2A2951",
"C  c #0D0468",
"Z  c #140064",
"A  c #14046C",
"S  c #19016E",
"D  c #031366",
"F  c #080A77",
"G  c #160574",
"H  c #1A0172",
"J  c #120974",
"K  c #1C037C",
"L  c #16097B",
"P  c #001571",
"I  c #06147A",
"U  c #22007F",
"Y  c #4C4C4C",
"T  c #454445",
"R  c #4A4A56",
"E  c #535453",
"W  c #5A5959",
"Q  c #58564D",
"!  c #605F56",
"~  c #656254",
"^  c #64635C",
"/  c #6C6A5B",
"(  c #6B6857",
")  c #79735B",
"_  c #5F5F60",
"`  c #5F6061",
"'  c #656563",
"]  c #6C6B6B",
"[  c #676765",
"{  c #726F6D",
"}  c #7D7966",
"|  c #74736D",
" . c #7A7769",
".. c #7C7B74",
"X. c #737575",
"o. c #893A00",
"O. c #933E00",
"+. c #883F14",
"@. c #8D410B",
"#. c #9A4200",
"$. c #8D4513",
"%. c #894618",
"&. c #914611",
"*. c #915610",
"=. c #AD4900",
"-. c #AA4700",
";. c #B34C01",
":. c #BA4E00",
">. c #AA5600",
",. c #B55200",
"<. c #BA5A00",
"1. c #BA5803",
"2. c #A25919",
"3. c #B56300",
"4. c #B97500",
"5. c #9C5D28",
"6. c #B26B30",
"7. c #C45B00",
"8. c #CE5B00",
"9. c #C85700",
"0. c #D75900",
"q. c #CB6400",
"w. c #D66801",
"e. c #DB7600",
"r. c #EA6F00",
"t. c #EA7600",
"y. c #F67C00",
"u. c #C27D3B",
"i. c #847E68",
"p. c #817F70",
"a. c #DA8500",
"s. c #CF9800",
"d. c #E78700",
"f. c #FD8C00",
"g. c #F18800",
"h. c #EB9600",
"j. c #F49400",
"k. c #FB9C00",
"l. c #FF971C",
"z. c #CFA100",
"x. c #ECA708",
"c. c #FAA600",
"v. c #F8B502",
"b. c #FED800",
"n. c #F3C200",
"m. c #8C8566",
"M. c #84816C",
"N. c #8E896F",
"B. c #938D6E",
"V. c #848276",
"C. c #85837A",
"Z. c #8B8875",
"A. c #938D74",
"S. c #918D79",
"D. c #9A9373",
"F. c #9E987B",
"G. c #979379",
"H. c #A29977",
"J. c #ABA37A",
"K. c #ACA376",
"L. c #B3AB7D",
"P. c #FEDA4A",
"I. c #FAE475",
"U. c #080A81",
"Y. c #1C0483",
"T. c #130C81",
"R. c #1A0A86",
"E. c #1A0C8A",
"W. c #190988",
"Q. c #0C1382",
"!. c #0D158C",
"~. c #0C1A8D",
"^. c #071D89",
"/. c #111186",
"(. c #12148E",
"). c #0E1A90",
"_. c #151592",
"`. c #191394",
"'. c #131A95",
"]. c #1A1799",
"[. c #161998",
"{. c #1B199C",
"}. c #181798",
"|. c #1D0A93",
" X c #220182",
".X c #23058C",
"XX c #210B8F",
"oX c #220C92",
"OX c #2B0896",
"+X c #2A0B9C",
"@X c #290998",
"#X c #22149E",
"$X c #002386",
"%X c #1F18A1",
"&X c #2D0CA1",
"*X c #300DA5",
"=X c #340EAA",
"-X c #2416A2",
";X c #2C12A6",
":X c #2D13A9",
">X c #3111AA",
",X c #3010A7",
"<X c #3511B1",
"1X c #878688",
"2X c #9B998B",
"3X c #A9A58A",
"4X c #B1AC8B",
"5X c #A8A698",
"6X c #B4AE95",
"7X c #B5B19B",
"8X c #A8A7A6",
"9X c #B3B2AC",
"0X c #B6B3A5",
"qX c #B7B8B9",
"wX c #C0BB9E",
"eX c #C1BFB3",
"rX c #C7C2A5",
"tX c #C3C2BA",
"yX c #C4C4C6",
"uX c None",
/* pixels */
"uXuXuXuXuXuXuXuXuXuXuXuXuXuXuXuXuXuXuXuXuXuXuXuXuXuXuXuXuX[ E 2 uXuXuXuXuXuXuXuXuXuXuXuXuXuXuXuXuXuXuXuXuXuXuXuXuXuXuXuXuXuXuXuXuX",
"uXuXuXuXuXuXuXuXuXuXuXuXuXuXuXuXuXuXuXuXuXuXuXuXuXuXuXuXZ.0XqX5X( uXuXuXuXuXuXuXuXuXuXuXuXuXuXuXuXuXuXuXuXuXuXuXuXuXuXuXuXuXuXuXuX",
"uXuXuXuXuXuXuXuXuXuXuXuXuXuXuXuXuXuXuXuXuXuXuXuXuXuXuXN.~ E X.3XA.Y uXuXuXuXuXuXuXuXuXuXuXuXuXuXuXuXuXuXuXuXuXuXuXuXuXuXuXuXuXuXuX",
"uXuXuXuXuXuXuXuXuXuXuXuXuXuXuXuXuXuXuXuXuXuXuXuXuXuXuXQ uXuXuX^ ~ 2 3 uXuXuXuXuXuXuXuXuXuXuXuXuXuXuXuXuXuXuXuXuXuXuXuXuXuXuXuXuXuX",
"uXuXuXuXuXuXuXuXuXuXuXuXuXuXuXuXuXuXuXuXuXuXuXuXuXuX1XE uXuXuX(  .E 3 uXuXuXuXuXuXuXuXuXuXuXuXuXuXuXuXuXuXuXuXuXuXuXuXuXuXuXuXuXuX",
"uXuXuXuXuXuXuXuXuXuXuXuXuXuXuXuXuXuXuXuXuXuXuXuXuXC.2X^ uXuXuX/ Z.X.Y 2 uXuXuXuXuXuXuXuXuXuXuXuXuXuXuXuXuXuXuXuXuXuXuXuXuXuXuXuXuX",
"uXuXuXuXuXuXuXuXuXuXuXuXuXuXuXuXuXuXuXuXuXuXuXuXuX .p.Q uXuXuXW X.1X .d uXuXuXuXuXuXuXuXuXuXuXuXuXuXuXuXuXuXuXuXuXuXuXuXuXuXuXuXuX",
"uXuXuXuXuXuXuXuXuXuXuXuXuXuXuXuXuXuXuXuXuXuXuXuXuXuXW T uXuXT ~ C.F.m.T T uXuXuXuXuXuXuXuXuXuXuXuXuXuXuXuXuXuXuXuXuXuXuXuXuXuXuXuX",
"uXuXuXuXuXuXuXuXuXuXuXuXuXuXuXuXuXuXuXuXuXuXuXuXuXuXuX3 Y N.~ ( J.L.m.W [ Y uXuXuXuXuXuXuXuXuXuXuXuXuXuXuXuXuXuXuXuXuXuXuXuXuXuXuX",
"uXuXuXuXuXuXuXuXuXuXuXuXuXuXuXuXuXuXuXuXuXuXuXuXuXuXuXuXuXi.( } J.J.B.' W Y uXuXuXuXuXuXuXuXuXuXuXuXuXuXuXuXuXuXuXuXuXuXuXuXuXuXuX",
"uXuXuXuXuXuXuXuXuXuXuXuXuXuXuXuXuXuXuXuXuXuXuXuXuXuXuXuXN.~ Q M.H.S...Y 4 E W uXuXuXuXuXuXuXuXuXuXuXuXuXuXuXuXuXuXuXuXuXuXuXuXuXuX",
"uXuXuXuXuXuXuXuXuXuXuXuXuXuXuXuXuXuXuXuXuXuXuXuXuXuXuX_ 5X6XD.i.| { [ ..S...Y uXuXuXuXuXuXuXuXuXuXuXuXuXuXuXuXuXuXuXuXuXuXuXuXuXuX",
"uXuXuXuXuXuXuXuXuXuXuXuXuXuXuXuXuXuXuXuXuXuXuXuXuXuXuXW 9XyX1Xi.Z.C.) ' 5X3X! 3 uXuXuXuXuXuXuXuXuXuXuXuXuXuXuXuXuXuXuXuXuXuXuXuXuX",
"uXuXuXuXuXuXuXuXuXuXuXuXuXuXuXuXuXuXuXuXuXuXuXuXuXuX} ^ A.qXqX9X9XqX9X8X3XV.W W uXuXuXuXuXuXuXuXuXuXuXuXuXuXuXuXuXuXuXuXuXuXuXuXuX",
"uXuXuXuXuXuXuXuXuXuXuXuXuXuXuXuXuXuXuXuXuXuXuXuXuX/ B.V.5XeX0X0XyXyXtX6XH...X.Z./ uXuXuXuXuXuXuXuXuXuXuXuXuXuXuXuXuXuXuXuXuXuXuXuX",
"uXuXuXuXuXuXuXuXuXuXuXuXuXuXuXuXuXuXuXuXuXuXuXuXuX^ ..| 2XtX6X3X6X7X4XJ.H...] ..( uXuXuXuXuXuXuXuXuXuXuXuXuXuXuXuXuXuXuXuXuXuXuXuX",
"uXuXuXuXuXuXuXuXuXuXuXuXuXuXuXuXuXuXuXuXuXuXuXuXuXuXW W D.tX7XK.F.F.K.K.J.V.E Y uXuXuXuXuXuXuXuXuXuXuXuXuXuXuXuXuXuXuXuXuXuXuXuXuX",
"uXuXuXuXuXuXuXuXuXuXuXuXuXuXuXuXuXuXuXuXuXuXuXuXuXuXuXuX} 5X4XD.V...A.H.S.[ uXuXuXuXuXuXuXuXuXuXuXuXuXuXuXuXuXuXuXuXuXuXuXuXuXuXuX",
"uXuXuXuXuXuXuXuXuXuXuXuXuXuXuXuXuXuXuXuXuXuXuXuXuXuXuXuXuXB.L.F.V.V.S.2X| Y uXuXuXuXuXuXuXuXuXuXuXuXuXuXuXuXuXuXuXuXuXuXuXuXuXuXuX",
"uXuXuXuXuXuXuXuXuXuXuXuXuXuXuXuXuXuXuXuXuXuXuXuXuXuXuXuXuXM.D.D.J.K.A...] Y uXuXuXuXuXuXuXuXuXuXuXuXuXuXuXuXuXuXuXuXuXuXuXuXuXuXuX",
"uXuXuXuXuXuXuXuXuXuXuXuXuXuXuXuXuXuXuXuXuXuXuXuXuXuXuXuXuX] ^ } J.3XB.^ ` uXuXuXuXuXuXuXuXuXuXuXuXuXuXuXuXuXuXuXuXuXuXuXuXuXuXuXuX",
"uXuXuXuXuXuXuXuXuXuXuXuXuXuXuXuXuXuXuXuXuXuXuXuXuXuXuXuXuXuXT E ] { ` Y 3 uXuXuXuXuXuXuXuXuXuXuXuXuXuXuXuXuXuXuXuXuXuXuXuXuXuXuXuX",
"uXuXuXuXuXuXuXuXuXuXuXuXuXuXuXuXuXuXuXuXuXuXuXuXuXU.F z * j l l l l l : = * * j g uXuXuXuXuXuXuXuXuXuXuXuXuXuXuXuXuXuXuXuXuXuXuXuX",
"uXuXuXuXuXuXuXuXuXuXuXuXuXuXuXuXuXuXuXuXuXuXuXuXF Q.`.Q.P P P P P F x * & * D /.U x uXuXuXuXuXuXuXuXuXuXuXuXuXuXuXuXuXuXuXuXuXuXuX",
"uXuXuXuXuXuXuXuXuXuXuXuXuXuXuXuXuXuXuXuXuXuXuXM c !.:X-X^.D z z z z j * & * J ].E.v > uXuXuXuXuXuXuXuXuXuXuXuXuXuXuXuXuXuXuXuXuXuX",
"uXuXuXuXuXuXuXuXuXuXuXuXuXuXuXuXuXuXuXuXuXuXuX4 m ^.:X>X~.J Z j & & g x = = G !.I v > uXuXuXuXuXuXuXuXuXuXuXuXuXuXuXuXuXuXuXuXuXuX",
"uXuXuXuXuXuXuXuXuXuXuXuXuXuXuXuXuXuXuXuXuXuXuXN m Q.:X:X).T. XH v v S S g = A !.Q.S k 1 uXuXuXuXuXuXuXuXuXuXuXuXuXuXuXuXuXuXuXuXuX",
"uXuXuXuXuXuXuXuXuXuXuXuXuXuXuXuXuXuXuXuXuXuX] R m Q.:X:X).T.Y.Q.I /.XXS * * A !.Q.U Z ; uXuXuXuXuXuXuXuXuXuXuXuXuXuXuXuXuXuXuXuXuX",
"uXuXuXuXuXuXuXuXuXuXuXuXuXuXuXuXuXuXuXuXuXuXp.W l Q.:X:X).T.E.'.~.$X!.G g = A !.^.Y.Z : uXuXuXuXuXuXuXuXuXuXuXuXuXuXuXuXuXuXuXuXuX",
"uXuXuXuXuXuXuXuXuXuXuXuXuXuXuXuXuXuXuXuXuX' 3X{ n Q.:X:X).T.OX>X#X'._.G * = A `.^.Q.v M  .2 uXuXuXuXuXuXuXuXuXuXuXuXuXuXuXuXuXuXuX",
"uXuXuXuXuXuXuXuXuXuXuXuXuXuXuXuXuXuXuXuXuX) wX1Xn I :X:X).T.@X=X:X:X&XH g h H +X[.Q.v N m.3 uXuXuXuXuXuXuXuXuXuXuXuXuXuXuXuXuXuXuX",
"uXuXuXuXuXuXuXuXuXuXuXuXuXuXuXuXuXuXuXuXuXM.rX1Xn Q.:X:X).T.OX:X>X>X&XH g Z  X+X{.I v B F.T uXuXuXuXuXuXuXuXuXuXuXuXuXuXuXuXuXuXuX",
"uXuXuXuXuXuXuXuXuXuXuXuXuXuXuXuXuXuXuXuX' 2XrX} n |.<X;X).L OX,X>X>X&XS h A .X+X{.Q.v B 9X' uXuXuXuXuXuXuXuXuXuXuXuXuXuXuXuXuXuXuX",
"uXuXuXuXuXuXuXuXuXuXuXuXuXuXuXuXuXuXuXuXp.3X4X~ n +X<X;X).T.OX>X,X>X:XS h A (.{.}.T.v B 5XX.d uXuXuXuXuXuXuXuXuXuXuXuXuXuXuXuXuXuX",
"uXuXuXuXuXuXuXuXuXuXuXuXuXuXuXuXuXuXuXuXm.D./ V L &X>X;X).T.OX>X>X>X&XH h A _.{.].I v M N.m.d uXuXuXuXuXuXuXuXuXuXuXuXuXuXuXuXuXuX",
"uXuXuXuXuXuXuXuXuXuXuXuXuXuXuXuXuXuXuX&.5.6.a g W.=X>X:X).T.OX:X>X-X`.A h A !.{.].Q.v 4 6.5.%.uXuXuXuXuXuXuXuXuXuXuXuXuXuXuXuXuXuX",
"uXuXuXuXuXuXuXuXuXuXuXuXuXuXuXuXuXuXuX,.q.y.+.k Y.*X=X:X).Q.OX>X=X{.!.A h A ~.{.].Q.Z 0 r.e.9.uXuXuXuXuXuXuXuXuXuXuXuXuXuXuXuXuXuX",
"uXuXuXuXuXuXuXuXuXuXuXuXuXuXuXuXuXuXe 1.j.k.&.k W.*X=X;X).L OX>X=X{.!.A h A '.{.`.Q.Z 0 f.v.a.;.uXuXuXuXuXuXuXuXuXuXuXuXuXuXuXuXuX",
"uXuXuXuXuXuXuXuXuXuXuXuXuXuXuXuXuXuXe 8.k.c.&.k W.&X=X:X).T.OX:X=X{.!.A h A !.{.].Q.Z 0 l.P.x.1.uXuXuXuXuXuXuXuXuXuXuXuXuXuXuXuXuX",
"uXuXuXuXuXuXuXuXuXuXuXuXuXuXuXuXuXuXe 8.c.c.&.k W.>X>X%X/.R.XX:X>X#X(.A h A ).{.].I A < u.I.x.<.uXuXuXuXuXuXuXuXuXuXuXuXuXuXuXuXuX",
"uXuXuXuXuXuXuXuXuXuXuXuXuXuXuXuXuXuXe 7.f.f.$.k Y.=X:X).T.U Q.}.>X+X XZ h A !.{.].Q.U Z i x.h.<.uXuXuXuXuXuXuXuXuXuXuXuXuXuXuXuXuX",
"uXuXuXuXuXuXuXuXuXuXuXuXuXuXuXuXuXuXe 9.y.w.0 c R.*X-X~.L  XQ.[.>X&XH * = G ).{.].Q. XC u y.r.;.uXuXuXuXuXuXuXuXuXuXuXuXuXuXuXuXuX",
"uXuXuXuXuXuXuXuXuXuXuXuXuXuXuXuXuXuXt ,.x.*.k J '.:X:X~.T.U Q.[.=X+XS * g G `.{.[.Q. XC u h.w.;.uXuXuXuXuXuXuXuXuXuXuXuXuXuXuXuXuX",
"uXuXuXuXuXuXuXuXuXuXuXuXuXuXuXuXuXuX#.,.j.s b U.~.:X:X~.T. XQ.}.=X*XA h Z  X+X:X[.^.T.Z i h.8.=.uXuXuXuXuXuXuXuXuXuXuXuXuXuXuXuXuX",
"uXuXuXuXuXuXuXuXuXuXuXuXuXuXuXuXuXuXuX=.t.s c F '.:X:X~.L U /.'.=X&XA h H .X&X=X-X'.Q.C u r.7.uXuXuXuXuXuXuXuXuXuXuXuXuXuXuXuXuXuX",
"uXuXuXuXuXuXuXuXuXuXuXuXuXuXuXuXuXuXuXuX0.y c W.-X>X&XR.x A Y.@X-X_.A h H (.-X=X>X].Q.Z , ;.uXuXuXuXuXuXuXuXuXuXuXuXuXuXuXuXuXuXuX",
"uXuXuXuXuXuXuXuXuXuXuXuXuXuXuXuXuXuXuXuXuXu h .X=X:X].L g Z  XOX}.!.Z h J ~.-X<X:X}.Q.A - , uXuXuXuXuXuXuXuXuXuXuXuXuXuXuXuXuXuXuX",
"uXuXuXuXuXuXuXuXuXuXuXuXuXuXuXuXuXuXuXuXuXuXc .X=X-X~.J h Z Y.OX#XW.Z h A ~.{.=X:X`.Q.Z & * uXuXuXuXuXuXuXuXuXuXuXuXuXuXuXuXuXuXuX",
"uXuXuXuXuXuXuXuXuXuXuXuXuXuXuXuXuXuXuXuXuXh C E.>X;X(.G h Z  X@XOX XH Z L ~.-X=X>X'.Q.S * & uXuXuXuXuXuXuXuXuXuXuXuXuXuXuXuXuXuXuX",
"uXuXuXuXuXuXuXuXuXuXuXuXuXuXuXuXuXuXuXuX% v E.{.>X*X XZ f Z  XoXoX X X XY._.-X=X,X}.Q.Z & * uXuXuXuXuXuXuXuXuXuXuXuXuXuXuXuXuXuXuX",
"uXuXuXuXuXuXuXuXuXuXuXuXuXuXuXuXuXuXuXuX% x .X=X>X#XU g & v U Q.Q. XU K R.*X=X>X,X`.T.Z * * uXuXuXuXuXuXuXuXuXuXuXuXuXuXuXuXuXuXuX",
"uXuXuXuXuXuXuXuXuXuXuXuXuXuXuXuXuXuXuXuX* v XX>X-X~.J g & & v (.Q. X XL ~.-X=X>X:XoXY.Z * & * uXuXuXuXuXuXuXuXuXuXuXuXuXuXuXuXuXuX",
"uXuXuXuXuXuXuXuXuXuXuXuXuXuXuXuXuXuXuX% Z Q.).:X#X~.L h & & v Q.Q.Y.U L ^.#X=X&X_.T.U Z & * * uXuXuXuXuXuXuXuXuXuXuXuXuXuXuXuXuXuX",
"uXuXuXuXuXuXuXuXuXuXuXuXuXuXuXuXuXuXuX& Z Q.~.^.(.R.H f & * Z (./. X XR.!.L K Y.K K Z & * & * uXuXuXuXuXuXuXuXuXuXuXuXuXuXuXuXuXuX",
"uXuXuXuXuXuXuXuXuXuXuXuXuXuXuXuXuXuXuX% Z U Y.L R.G h * & * Z  X XY.U  XJ c = j j j * * * * * uXuXuXuXuXuXuXuXuXuXuXuXuXuXuXuXuXuX",
"uXuXuXuXuXuXuXuXuXuXuXuXuXuXuXuXuXuXuX& Z Z h h k k - - - * * Z  XG h j n N a 9 9 i M & & * * & uXuXuXuXuXuXuXuXuXuXuXuXuXuXuXuXuX",
"uXuXuXuXuXuXuXuXuXuXuXuXuXuXuXuXuXuXuX& g f uXuXy &.+.&.$.< & * h g uXO q 2.7.1.,.*.uXuXuXuX* * uXuXuXuXuXuXuXuXuXuXuXuXuXuXuXuXuX",
"uXuXuXuXuXuXuXuXuXuXuXuXuXuXuXuXuXuXuX* * uXuXuX7.j.c.k.e.r O O O .   . 8 7.g.x.h.3.uXuXuXuXuX& uXuXuXuXuXuXuXuXuXuXuXuXuXuXuXuXuX",
"uXuXuXuXuXuXuXuXuXuXuXuXuXuXuXuXuXuXuX* uXuXuXw <.x.b.v.w.t X         o 8 <.c.b.n.4.7 uXuXuXuX* uXuXuXuXuXuXuXuXuXuXuXuXuXuXuXuXuX",
"uXuXuXuXuXuXuXuXuXuXuXuXuXuXuXuXuXuXuXuXuXuX+ w >.d.x.d.q.#.+         X r 9.d.h.h.>.w 7 uXuXuXuXuXuXuXuXuXuXuXuXuXuXuXuXuXuXuXuXuX",
"uXuXuXuXuXuXuXuXuXuXuXuXuXuXuXuXuXuXuXuXuX  # o.-.q.e.e.q.=.5         + o.8.e.e.w.;.#.8   uXuXuXuXuXuXuXuXuXuXuXuXuXuXuXuXuXuXuXuX",
"uXuXuXuXuXuXuXuXuXuXuXuXuXuXuXuXuXuXuXuX    @ 8 #.3.s.s.q.-.5         @ o.9.a.z.4.-.t +     uXuXuXuXuXuXuXuXuXuXuXuXuXuXuXuXuXuXuX",
"uXuXuXuXuXuXuXuXuXuXuXuXuXuXuXuXuXuXuX      X 7 6 6 6 6 o.O.#         @ t #.8 6 6 7 7 #       uXuXuXuXuXuXuXuXuXuXuXuXuXuXuXuXuXuX",
"uXuXuXuXuXuXuXuXuXuXuXuXuXuXuXuXuXuXuX        . .   . . . . .             .     .             uXuXuXuXuXuXuXuXuXuXuXuXuXuXuXuXuXuX",
"uXuXuXuXuXuXuXuXuXuXuXuXuXuXuXuXuXuXuXuX                                                  uXuXuXuXuXuXuXuXuXuXuXuXuXuXuXuXuXuXuXuX"
};
