/* XPM */
static char *result[] = {
/* columns rows colors chars-per-pixel */
"65 65 198 2 ",
"   c #000000",
".  c #080400",
"X  c #1B0D00",
"o  c #1C1B1E",
"O  c #231100",
"+  c #2E1600",
"@  c #341400",
"#  c #341B02",
"$  c #391D1C",
"%  c #00002F",
"&  c #190C2C",
"*  c #1F102A",
"=  c #000035",
"-  c #0C0632",
";  c #010039",
":  c #0D0D39",
">  c #110930",
",  c #15173A",
"<  c #28152A",
"1  c #211E36",
"2  c #2C2D3E",
"3  c #23243A",
"4  c #3B3B3C",
"5  c gray21",
"6  c #5B2D00",
"7  c #562D01",
"8  c #5F3000",
"9  c #632E00",
"0  c #623100",
"q  c #6B3101",
"w  c #753900",
"e  c #6A3D1B",
"r  c #4F2522",
"t  c #7E4801",
"y  c #47453B",
"u  c #030143",
"i  c #080044",
"p  c #02014B",
"a  c #0A004C",
"s  c #070A4A",
"d  c #16164A",
"f  c #19174A",
"g  c #000051",
"h  c #0D0053",
"j  c #040A51",
"k  c #01005C",
"l  c #0E0159",
"z  c #0C0F55",
"x  c #110056",
"c  c #12005E",
"v  c #160C5A",
"b  c #0D1157",
"n  c #0D1158",
"m  c #1C1655",
"M  c #373943",
"N  c #3D3C45",
"B  c #383846",
"V  c #393A58",
"C  c #020065",
"Z  c #0D0164",
"A  c #03016C",
"S  c #0B016E",
"D  c #060C65",
"F  c #140164",
"G  c #14016B",
"H  c #19006D",
"J  c #130567",
"K  c #01136C",
"L  c #010075",
"P  c #02007A",
"I  c #0A007B",
"U  c #0C0A75",
"Y  c #140376",
"T  c #1B0174",
"R  c #15027C",
"E  c #1D017D",
"W  c #110C7E",
"Q  c #18097E",
"!  c #051378",
"~  c #21007E",
"^  c #414141",
"/  c #454649",
"(  c #4D4D4B",
")  c #4B4A43",
"_  c #504F47",
"`  c #51504D",
"'  c #4B4A54",
"]  c #4F4D5A",
"[  c #4F5054",
"{  c #555553",
"}  c #5B5A54",
"|  c #55545A",
" . c #5D5D5C",
".. c #585755",
"X. c #615F57",
"o. c #656357",
"O. c #65645D",
"+. c #6B695D",
"@. c #6C6855",
"#. c #726E5B",
"$. c #76715B",
"%. c #636363",
"&. c #686761",
"*. c #6E6D65",
"=. c #6A6B6C",
"-. c #797664",
";. c #74736C",
":. c #7B7866",
">. c #6E6F75",
",. c #757573",
"<. c #7C7C79",
"1. c #757678",
"2. c #853D03",
"3. c #8A4600",
"4. c #924204",
"5. c #A74903",
"6. c #B54E00",
"7. c #A45C00",
"8. c #CA5C00",
"9. c #DF7000",
"0. c #F06B00",
"q. c #EE7500",
"w. c #F17800",
"e. c #827E6C",
"r. c #807E75",
"t. c #F98500",
"y. c #E19900",
"u. c #F99900",
"i. c #858166",
"p. c #8B856A",
"a. c #8B866E",
"s. c #918B6D",
"d. c #858375",
"f. c #8A8572",
"g. c #8D8975",
"h. c #8D8A79",
"j. c #86857F",
"k. c #938E75",
"l. c #928E7B",
"z. c #9F9A7C",
"x. c #9B9475",
"c. c #A49C76",
"v. c #A59D7B",
"b. c #ABA37A",
"n. c #AAA277",
"m. c #B3AA7B",
"M. c #070A82",
"N. c #150281",
"B. c #1C0482",
"V. c #140D83",
"C. c #1A0983",
"Z. c #1B0B8B",
"A. c #0B1585",
"S. c #061B86",
"D. c #091985",
"F. c #0D168A",
"G. c #061E8A",
"H. c #0A1B8C",
"J. c #041481",
"K. c #111184",
"L. c #14118B",
"P. c #0E1C92",
"I. c #131B95",
"U. c #1D179B",
"Y. c #161B9A",
"T. c #1A189A",
"R. c #151592",
"E. c #220182",
"W. c #210B8C",
"Q. c #2C0A9C",
"!. c #260B96",
"~. c #20169E",
"^. c #002186",
"/. c #02228A",
"(. c #08208C",
"). c #330FAA",
"_. c #2415A2",
"`. c #2B12A5",
"'. c #2A15A7",
"]. c #3110A9",
"[. c #999584",
"{. c #9B9B99",
"}. c #ABA584",
"|. c #ACA78B",
" X c #ABA587",
".X c #B3AD8B",
"XX c #B5B19C",
"oX c #A4A39A",
"OX c #A1A1A2",
"+X c #B6B2A1",
"@X c #BDBBAD",
"#X c #B8B5A8",
"$X c #BCBBBB",
"%X c #BCBAB5",
"&X c #C0BFBC",
"*X c #C2C1BF",
"=X c #C5C5C3",
"-X c None",
/* pixels */
"-X-X-X-X-X-X-X-X-X-X-X-X-X-X-X-X-X-X-X-X-X-X-X-X-X-X-X-X-X=.%.` ) -X-X-X-X-X-X-X-X-X-X-X-X-X-X-X-X-X-X-X-X-X-X-X-X-X-X-X-X-X-X-X-X",
"-X-X-X-X-X-X-X-X-X-X-X-X-X-X-X-X-X-X-X-X-X-X-X-X-X-X-X{ %.OX$X#X:.-X-X-X-X-X-X-X-X-X-X-X-X-X-X-X-X-X-X-X-X-X-X-X-X-X-X-X-X-X-X-X-X",
"-X-X-X-X-X-X-X-X-X-X-X-X-X-X-X-X-X-X-X-X-X-X-X-X-X-X=. .^ 4 %.l.k.{ -X-X-X-X-X-X-X-X-X-X-X-X-X-X-X-X-X-X-X-X-X-X-X-X-X-X-X-X-X-X-X",
"-X-X-X-X-X-X-X-X-X-X-X-X-X-X-X-X-X-X-X-X-X-X-X-X-Xp.+.-X-X-X5 ..} 4 5 -X-X-X-X-X-X-X-X-X-X-X-X-X-X-X-X-X-X-X-X-X-X-X-X-X-X-X-X-X-X",
"-X-X-X-X-X-X-X-X-X-X-X-X-X-X-X-X-X-X-X-X-X-X-X-X( ( -X-X-X-X-X@.f.%.4 -X-X-X-X-X-X-X-X-X-X-X-X-X-X-X-X-X-X-X-X-X-X-X-X-X-X-X-X-X-X",
"-X-X-X-X-X-X-X-X-X-X-X-X-X-X-X-X-X-X-X-X-X-X-X+.:.o.-X-X-X-X-XX.r.1. .^ -X-X-X-X-X-X-X-X-X-X-X-X-X-X-X-X-X-X-X-X-X-X-X-X-X-X-X-X-X",
"-X-X-X-X-X-X-X-X-X-X-X-X-X-X-X-X-X-X-X-X-X-X-X&.:.O.-X-X-X-X4 ..,.[.e.) -X-X-X-X-X-X-X-X-X-X-X-X-X-X-X-X-X-X-X-X-X-X-X-X-X-X-X-X-X",
"-X-X-X-X-X-X-X-X-X-X-X-X-X-X-X-X-X-X-X-X-X-X-X| %.-X-X-X-X-X_ } d.x.s._ / -X-X-X-X-X-X-X-X-X-X-X-X-X-X-X-X-X-X-X-X-X-X-X-X-X-X-X-X",
"-X-X-X-X-X-X-X-X-X-X-X-X-X-X-X-X-X-X-X-X-X-X-X-X-X-X-X-X-Xs.#.+.c..Xs.O.=...-X-X-X-X-X-X-X-X-X-X-X-X-X-X-X-X-X-X-X-X-X-X-X-X-X-X-X",
"-X-X-X-X-X-X-X-X-X-X-X-X-X-X-X-X-X-X-X-X-X-X-X-X-X-X-X-X-X$.} -.b.b.k.X./ / -X-X-X-X-X-X-X-X-X-X-X-X-X-X-X-X-X-X-X-X-X-X-X-X-X-X-X",
"-X-X-X-X-X-X-X-X-X-X-X-X-X-X-X-X-X-X-X-X-X-X-X-X-X-X-X-Xl.-.o.:.k.g.,. .y } | -X-X-X-X-X-X-X-X-X-X-X-X-X-X-X-X-X-X-X-X-X-X-X-X-X-X",
"-X-X-X-X-X-X-X-X-X-X-X-X-X-X-X-X-X-X-X-X-X-X-X-X-X-X-X-XOX#Xz.i.;.,.&.*.[.l...-X-X-X-X-X-X-X-X-X-X-X-X-X-X-X-X-X-X-X-X-X-X-X-X-X-X",
"-X-X-X-X-X-X-X-X-X-X-X-X-X-X-X-X-X-X-X-X-X-X-X-X-X-X-X{ {.*X{.h.[.[.f.;.oX|.O.^ -X-X-X-X-X-X-X-X-X-X-X-X-X-X-X-X-X-X-X-X-X-X-X-X-X",
"-X-X-X-X-X-X-X-X-X-X-X-X-X-X-X-X-X-X-X-X-X-X-X-X-X-Xp.+.f.@X$X%X$X$X$X#X Xd.%.%...-X-X-X-X-X-X-X-X-X-X-X-X-X-X-X-X-X-X-X-X-X-X-X-X",
"-X-X-X-X-X-X-X-X-X-X-X-X-X-X-X-X-X-X-X-X-X-X-X-X-Xo.s.d.{.=X+XXX&X=X%X.Xc.<.,.g.$.-X-X-X-X-X-X-X-X-X-X-X-X-X-X-X-X-X-X-X-X-X-X-X-X",
"-X-X-X-X-X-X-X-X-X-X-X-X-X-X-X-X-X-X-X-X-X-X-X-X-X-X;.&.g.@XXXb. X X}.b.c.<.%.*.o.-X-X-X-X-X-X-X-X-X-X-X-X-X-X-X-X-X-X-X-X-X-X-X-X",
"-X-X-X-X-X-X-X-X-X-X-X-X-X-X-X-X-X-X-X-X-X-X-X-X-X-X..{ i.@X+Xb.x.k.c.b.b.d.' 4 -X-X-X-X-X-X-X-X-X-X-X-X-X-X-X-X-X-X-X-X-X-X-X-X-X",
"-X-X-X-X-X-X-X-X-X-X-X-X-X-X-X-X-X-X-X-X-X-X-X-X-X-X-X-X-X[. Xx.<.1.h.n.g. .-X-X-X-X-X-X-X-X-X-X-X-X-X-X-X-X-X-X-X-X-X-X-X-X-X-X-X",
"-X-X-X-X-X-X-X-X-X-X-X-X-X-X-X-X-X-X-X-X-X-X-X-X-X-X-X-X-Xs.m.v.l.l.k.l.,.( -X-X-X-X-X-X-X-X-X-X-X-X-X-X-X-X-X-X-X-X-X-X-X-X-X-X-X",
"-X-X-X-X-X-X-X-X-X-X-X-X-X-X-X-X-X-X-X-X-X-X-X-X-X-X-X-X-X:.f.s.n.m.x.,.>.{ -X-X-X-X-X-X-X-X-X-X-X-X-X-X-X-X-X-X-X-X-X-X-X-X-X-X-X",
"-X-X-X-X-X-X-X-X-X-X-X-X-X-X-X-X-X-X-X-X-X-X-X-X-X-X-X-X-X-X .:.z.}.k.O...B - -X-X-X-X-X-X-X-X-X-X-X-X-X-X-X-X-X-X-X-X-X-X-X-X-X-X",
"-X-X-X-X-X-X-X-X-X-X-X-X-X-X-X-X-X-X-X-X-X-X-X-X-X-X-X-X-X1 2 N | ] ' M 3 : ; = = % -X-X-X-X-X-X-X-X-X-X-X-X-X-X-X-X-X-X-X-X-X-X-X",
"-X-X-X-X-X-X-X-X-X-X-X-X-X-X-X-X-X-X-X-X-X-X-X-X-X-XI M.D j s b n n n z ; ; ; s j s a -X-X-X-X-X-X-X-X-X-X-X-X-X-X-X-X-X-X-X-X-X-X",
"-X-X-X-X-X-X-X-X-X-X-X-X-X-X-X-X-X-X-X-X-X-X-X-X-XA J.~.R.S.! K K K A Z ; % ; D S.W F = -X-X-X-X-X-X-X-X-X-X-X-X-X-X-X-X-X-X-X-X-X",
"-X-X-X-X-X-X-X-X-X-X-X-X-X-X-X-X-X-X-X-X-X-X-X-X-Xs ! '.].Y.K z s s s u ; = ; J F.F.F = -X-X-X-X-X-X-X-X-X-X-X-X-X-X-X-X-X-X-X-X-X",
"-X-X-X-X-X-X-X-X-X-X-X-X-X-X-X-X-X-X-X-X-X-X-X-X-X: ! _.).Y.! T c ; = u k p ; F L.D.G ; ; -X-X-X-X-X-X-X-X-X-X-X-X-X-X-X-X-X-X-X-X",
"-X-X-X-X-X-X-X-X-X-X-X-X-X-X-X-X-X-X-X-X-X-X-X-XB d ! _.).I.G.L.E Y C L L p = F L.G.K.l = -X-X-X-X-X-X-X-X-X-X-X-X-X-X-X-X-X-X-X-X",
"-X-X-X-X-X-X-X-X-X-X-X-X-X-X-X-X-X-X-X-X-X-X-X-Xf D G._.].`.I.S.D.A.P P A u = F L./.A.H ; -X-X-X-X-X-X-X-X-X-X-X-X-X-X-X-X-X-X-X-X",
"-X-X-X-X-X-X-X-X-X-X-X-X-X-X-X-X-X-X-X-X-X-X-XM d Y P.~.).).`.I./.D.I L g ; c E V.P.!.E F -X-X-X-X-X-X-X-X-X-X-X-X-X-X-X-X-X-X-X-X",
"-X-X-X-X-X-X-X-X-X-X-X-X-X-X-X-X-X-X-X-X-X-X-X} d S H.~.).]._.H./.H.B.Y u h ~ E.K.Y.Q.B.H ; -X-X-X-X-X-X-X-X-X-X-X-X-X-X-X-X-X-X-X",
"-X-X-X-X-X-X-X-X-X-X-X-X-X-X-X-X-X-X-X-X-X-X:.*.f S P.~.).).T.^.^.V.B.G a Z B.E.F.I.Q.E.H ; -X-X-X-X-X-X-X-X-X-X-X-X-X-X-X-X-X-X-X",
"-X-X-X-X-X-X-X-X-X-X-X-X-X-X-X-X-X-X-X-X-X-X' V v Q D.~.).].T.^.D.E.B.A p C N.E.L.~.!.C.T h -X-X-X-X-X-X-X-X-X-X-X-X-X-X-X-X-X-X-X",
"-X-X-X-X-X-X-X-X-X-X-X-X-X-X-X-X-X-X-X-X-X-X( d T E.R._.).].U.^.K.E.R k g S B.E.!.).U.D.B.T u -X-X-X-X-X-X-X-X-X-X-X-X-X-X-X-X-X-X",
"-X-X-X-X-X-X-X-X-X-X-X-X-X-X-X-X-X-X-X-X-XO.' m Y W.Q.].].`.I.A.E N.A k S B.E E.Q.].T.A.E.T ; -X-X-X-X-X-X-X-X-X-X-X-X-X-X-X-X-X-X",
"-X-X-X-X-X-X-X-X-X-X-X-X-X-X-X-X-X-X-X-X-XM f T B.F._.).].Y.(.K.R I L S R E.~ B.!.).T.D.E.T h -X-X-X-X-X-X-X-X-X-X-X-X-X-X-X-X-X-X",
"-X-X-X-X-X-X-X-X-X-X-X-X-X-X-X-X-X-X-X-X-X3 h E Z.S._.).].R.^.K.R P P P B.~ B.K.T.).U.D.B.B.H u -X-X-X-X-X-X-X-X-X-X-X-X-X-X-X-X-X",
"-X-X-X-X-X-X-X-X-X-X-X-X-X-X-X-X-X-X-X-X-Xv ~ B.D.(._.).`.I.A.B.R P P I B.E.E A.Y.).~.G.A.E.E a -X-X-X-X-X-X-X-X-X-X-X-X-X-X-X-X-X",
"-X-X-X-X-X-X-X-X-X-X-X-X-X-X-X-X-X-X-X-Xa T ~ W S.U.].].T.(.V.R P L I R ~ E.B.A.T.).`.T.D.B.E.H a -X-X-X-X-X-X-X-X-X-X-X-X-X-X-X-X",
"-X-X-X-X-X-X-X-X-X-X-X-X-X-X-X-X-X-X-X% c E.C.D.H.`.).].P.A.B.F k L I B.E.~ ~ A.Y.).)._.D.B.E.~ a -X-X-X-X-X-X-X-X-X-X-X-X-X-X-X-X",
"-X-X-X-X-X-X-X-X-X-X-X-X-X-X-X-X-X-X-Xh H C.D.(.U.].`.U.G.V.H i p L I E E.E.E F.Y.).).U.D.B.E.~ a -X-X-X-X-X-X-X-X-X-X-X-X-X-X-X-X",
"-X-X-X-X-X-X-X-X-X-X-X-X-X-X-X-X-X-Xa T E.K.H.U.).].U.S.! C.l % p L I R E.~ V.(.T.).).~.S.K.B.E a -X-X-X-X-X-X-X-X-X-X-X-X-X-X-X-X",
"-X-X-X-X-X-X-X-X-X-X-X-X-X-X-X-X-X% F E.E.D.P.`.].U.(.^.Z.E.F = p L I E E.Q D./.T.].].`.I.S.B.~ F i -X-X-X-X-X-X-X-X-X-X-X-X-X-X-X",
"-X-X-X-X-X-X-X-X-X-X-X-X-X-X-X-X-Xa H B.D.(.T.).`.(.^.D.C.T a ; k L I B.~ E.D./.T.).].)._.H.E.E.E.h -X-X-X-X-X-X-X-X-X-X-X-X-X-X-X",
"-X-X-X-X-X-X-X-X-X-X-X-X-X-X-X-X= G ~ K.(.U.].).~.H.D.C.E.x = g P P R B.E.E A./.T.).`.)._.G.V.E.E h -X-X-X-X-X-X-X-X-X-X-X-X-X-X-X",
"-X-X-X-X-X-X-X-X-X-X-X-X-X-X-X-X= J ~ D.P.~.`.U.H.D.Q E.E a = g L P R E.E.E A.(.~.).].].~.^.G.C.~ h -X-X-X-X-X-X-X-X-X-X-X-X-X-X-X",
"-X-X-X-X-X-X-X-X-X-X-X-X-X-X-X-X= H K.H.S.(.G.^.S.C.E.T a = = g L P I B.E.C.D.T.).`.].]._.H.S.B.~ a -X-X-X-X-X-X-X-X-X-X-X-X-X-X-X",
"-X-X-X-X-X-X-X-X-X-X-X-X-X-X-X-X= F T E K.^.^./.D.C.~ h = ; = g L P I E E.A.(.~.).).).).).~.P.C.E h -X-X-X-X-X-X-X-X-X-X-X-X-X-X-X",
"-X-X-X-X-X-X-X-X-X-X-X-X-X-X-X-X; i a ; c W H.G.C.E.E a = = = g L P P ~ C.D./.~.).].`.`.].].~.L.Q x -X-X-X-X-X-X-X-X-X-X-X-X-X-X-X",
"-X-X-X-X-X-X-X-X-X-X-X-X-X-X-X-X; -X-X-X; c Q C.E.E x ; = ; = p L P I E B.D./.T.~.H.P.I.T.].'.H.W T h = -X-X-X-X-X-X-X-X-X-X-X-X-X",
"-X-X-X-X-X-X-X-X-X-X-X-X-X-X-X-X-X-X-X-X-X; c ~ ~ x = = ; ; = g L P I E B.H./.H.L.W W W Q W.P.(.A.C.l = -X-X-X-X-X-X-X-X-X-X-X-X-X",
"-X-X-X-X-X-X-X-X-X-X-X-X-X-X-X-X-X-X-X-X-X-Xi x h ; = ; ; = = g L P I E E.V.H.D.E H x x x l W V.V.B.h ; -X-X-X-X-X-X-X-X-X-X-X-X-X",
"-X-X-X-X-X-X-X-X-X-X-X-X-X-X-X-X-X-X-X-X-X-X-X-X= ; ; = ; = = g L P I E E.E.C.J x a -X-X-X= c ~ E.E.h = -X-X-X-X-X-X-X-X-X-X-X-X-X",
"-X-X-X-X-X-X-X-X-X-X-X-X-X-X-X-X-X-X-X-X-X-X-X-X-X= = ; ; = = g P P P B.E.B.H f , -X-X-X-X-X; c B.E.h ; -X-X-X-X-X-X-X-X-X-X-X-X-X",
"-X-X-X-X-X-X-X-X-X-X-X-X-X-X-X-X-X-X-X-X-X-X-X-X-X-X; ; ; ; = g L P P R H c f -X-X-X-X-X-X-X-X; c E l = -X-X-X-X-X-X-X-X-X-X-X-X-X",
"-X-X-X-X-X-X-X-X-X-X-X-X-X-X-X-X-X-X-X-X-X-X-X-X-X-X* * - ; = p C C A v 1 < 2 -X-X-X-X-X-X-X-X-Xi F c ; -X-X-X-X-X-X-X-X-X-X-X-X-X",
"-X-X-X-X-X-X-X-X-X-X-X-X-X-X-X-X-X-X-X-X-X-X-X-X-X-Xw w $ > & - - & > r 5.q o -X-X-X-X-X-X-X-X-X; F l = -X-X-X-X-X-X-X-X-X-X-X-X-X",
"-X-X-X-X-X-X-X-X-X-X-X-X-X-X-X-X-X-X-X-X-X-X-X-X-X-X0 0 6 0 0 -X-X2.3.3.3.4.e -X-X-X-X-X-X-X-X-X; ; -X-X-X-X-X-X-X-X-X-X-X-X-X-X-X",
"-X-X-X-X-X-X-X-X-X-X-X-X-X-X-X-X-X-X-X-X-X-X-X-X-X-X. .         X t y.u.9.4.7 # -X-X-X-X-X-X-X; = -X-X-X-X-X-X-X-X-X-X-X-X-X-X-X-X",
"-X-X-X-X-X-X-X-X-X-X-X-X-X-X-X-X-X-X-X-X-X-X-X-X                @ 7.u.t.0.6.9 O     -X-X-X-X-X-X-X-X-X-X-X-X-X-X-X-X-X-X-X-X-X-X-X",
"-X-X-X-X-X-X-X-X-X-X-X-X-X-X-X-X-X-X-X-X-X-X                    @ 5.t.u.w.6.0 X         -X-X-X-X-X-X-X-X-X-X-X-X-X-X-X-X-X-X-X-X-X",
"-X-X-X-X-X-X-X-X-X-X-X-X-X-X-X-X-X-X-X-X-X                      O q 8.q.8.5.q X           -X-X-X-X-X-X-X-X-X-X-X-X-X-X-X-X-X-X-X-X",
"-X-X-X-X-X-X-X-X-X-X-X-X-X-X-X-X-X-X-X-X                        . + q 2.w q 7 O             -X-X-X-X-X-X-X-X-X-X-X-X-X-X-X-X-X-X-X",
"-X-X-X-X-X-X-X-X-X-X-X-X-X-X-X-X-X-X-X                                . .                     -X-X-X-X-X-X-X-X-X-X-X-X-X-X-X-X-X-X",
"-X-X-X-X-X-X-X-X-X-X-X-X-X-X-X-X-X-X-X                                                        -X-X-X-X-X-X-X-X-X-X-X-X-X-X-X-X-X-X",
"-X-X-X-X-X-X-X-X-X-X-X-X-X-X-X-X-X-X-X-X                                                  -X-X-X-X-X-X-X-X-X-X-X-X-X-X-X-X-X-X-X-X"
};
