/* XPM */
static char *result[] = {
/* columns rows colors chars-per-pixel */
"65 65 215 2 ",
"   c #000000",
".  c #0A0400",
"X  c #120911",
"o  c #341B01",
"O  c #3A1B00",
"+  c #351701",
"@  c #2A151D",
"#  c #000024",
"$  c #01002C",
"%  c #0B052E",
"&  c #181D2D",
"*  c #000034",
"=  c #01003A",
"-  c #090938",
";  c #151633",
":  c #1E0E25",
">  c #24102A",
",  c #1C222D",
"<  c #222327",
"1  c #272935",
"2  c #3C3C3D",
"3  c #353639",
"4  c #382C35",
"5  c #421F06",
"6  c #562700",
"7  c #583017",
"8  c #6C2D02",
"9  c #763705",
"0  c #702F0A",
"q  c #774A00",
"w  c #77691F",
"e  c #7F573B",
"r  c #030044",
"t  c #0D0B44",
"y  c #03004C",
"u  c #0A014A",
"i  c #020A4D",
"p  c #0B0649",
"a  c #120D44",
"s  c #151343",
"d  c #1B1949",
"f  c #010053",
"g  c #0E0053",
"h  c #01005D",
"j  c #090755",
"k  c #120653",
"l  c #110159",
"z  c #140852",
"x  c #0F1051",
"c  c #181356",
"v  c #271548",
"b  c #25254C",
"n  c #222246",
"m  c #3C3B45",
"M  c #272552",
"N  c #010064",
"B  c #02006A",
"V  c #0B0566",
"C  c #140064",
"Z  c #15026A",
"A  c #19006D",
"S  c #1A0067",
"D  c #00146E",
"F  c #010075",
"G  c #0A0073",
"H  c #02027C",
"J  c #0D007B",
"K  c #090B78",
"L  c #130373",
"P  c #1B0174",
"I  c #14037C",
"U  c #1C027D",
"Y  c #14097E",
"T  c #011574",
"R  c #04177B",
"E  c #1F1164",
"W  c #21007E",
"Q  c #413E4A",
"!  c #3F4040",
"~  c #434343",
"^  c #4B4A44",
"/  c #43444B",
"(  c #4C4C4B",
")  c #504F4D",
"_  c #5C594D",
"`  c #53524E",
"'  c #4E4F50",
"]  c #545352",
"[  c #54535C",
"{  c #5C5B5C",
"}  c #5A5A56",
"|  c #625E4F",
" . c #625F5E",
".. c #64635C",
"X. c #6A6757",
"o. c #77725C",
"O. c #746F5C",
"+. c #5C5B63",
"@. c #5C5B7F",
"#. c #605F60",
"$. c #646461",
"%. c #6C6B65",
"&. c #6A6A6A",
"*. c #67686B",
"=. c #706E63",
"-. c #747264",
";. c #76746B",
":. c #7E7A65",
">. c #6C6D71",
",. c #727272",
"<. c #7E7D72",
"1. c #79797C",
"2. c #8A3B02",
"3. c #834A04",
"4. c #994100",
"5. c #984705",
"6. c #995800",
"7. c #A64902",
"8. c #B24B00",
"9. c #B05400",
"0. c #9D760E",
"q. c #A86128",
"w. c #C65601",
"e. c #CC6200",
"r. c #D86D00",
"t. c #D26900",
"y. c #EA7400",
"u. c #8C705D",
"i. c #837D64",
"p. c #817D6A",
"a. c #DA8B03",
"s. c #F49900",
"d. c #ED9A00",
"f. c #F3AB00",
"g. c #FAC000",
"h. c #8A856D",
"j. c #89856C",
"k. c #858275",
"l. c #8E8A75",
"z. c #83827B",
"x. c #8A8778",
"c. c #908C73",
"v. c #928E79",
"b. c #998879",
"n. c #9C9573",
"m. c #999479",
"M. c #97937A",
"N. c #908A6C",
"B. c #A59D75",
"V. c #A49C78",
"C. c #AD927A",
"Z. c #ABA277",
"A. c #AAA37D",
"S. c #B2AA7C",
"D. c #0E0281",
"F. c #0E0A81",
"G. c #130381",
"H. c #1B0381",
"J. c #140C81",
"K. c #190A83",
"L. c #1C0D8C",
"P. c #1E0788",
"I. c #0B1483",
"U. c #061A85",
"Y. c #0D168A",
"T. c #061D8A",
"R. c #0B1B8D",
"E. c #021183",
"W. c #111084",
"Q. c #12148B",
"!. c #0E1A91",
"~. c #151592",
"^. c #1C1293",
"/. c #131A94",
"(. c #1C169B",
"). c #1D189D",
"_. c #151B9A",
"`. c #1E0B9A",
"'. c #220182",
"]. c #220388",
"[. c #2B0D9D",
"{. c #22159E",
"}. c #022289",
"|. c #2B0EA3",
" X c #330FAA",
".X c #320BA2",
"XX c #2316A2",
"oX c #2A13A5",
"OX c #2E11A9",
"+X c #3010A8",
"@X c #6D6D88",
"#X c #878685",
"$X c #93928C",
"%X c #9B9889",
"&X c #9B9C9D",
"*X c #8F8E8A",
"=X c #ACA584",
"-X c #A9A48A",
";X c #B3AF98",
":X c #AFAB92",
">X c #9A9CA0",
",X c #A8A9A9",
"<X c #B8B5A6",
"1X c #B7B4A4",
"2X c #BCBBB4",
"3X c #BCBCBA",
"4X c #B2B3B6",
"5X c #A1A2B1",
"6X c #C0BFBD",
"7X c #C1C1BC",
"8X c #C2C2C2",
"9X c #C8C9C9",
"0X c #D0D0D1",
"qX c #DEE0DA",
"wX c None",
/* pixels */
"wXwXwXwXwXwXwXwXwXwXwXwXwXwXwXwXwXwXwXwXwXwXwXwXwXwXwXwX( ! 2 2 wXwXwXwXwXwXwXwXwXwXwXwXwXwXwXwXwXwXwXwXwXwXwXwXwXwXwXwXwXwXwXwXwX",
"wXwXwXwXwXwXwXwXwXwXwXwXwXwXwXwXwXwXwXwXwXwXwXwXwXwXwXwX1.l.O.^ wXwXwXwXwXwXwXwXwXwXwXwXwXwXwXwXwXwXwXwXwXwXwXwXwXwXwXwXwXwXwXwXwX",
"wXwXwXwXwXwXwXwXwXwXwXwXwXwXwXwXwXwXwXwXwXwXwXwXwXwXwX{ @X1X=X..2 wXwXwXwXwXwXwXwXwXwXwXwXwXwXwXwXwXwXwXwXwXwXwXwXwXwXwXwXwXwXwXwX",
"wXwXwXwXwXwXwXwXwXwXwXwXwXwXwXwXwXwXwXwXwXwXwXwXwXwX] wXwX-.:...~ wXwXwXwXwXwXwXwXwXwXwXwXwXwXwXwXwXwXwXwXwXwXwXwXwXwXwXwXwXwXwXwX",
"wXwXwXwXwXwXwXwXwXwXwXwXwXwXwXwXwXwXwXwXwXwXwXwXwXwX~ wXwX( ....) ~ wXwXwXwXwXwXwXwXwXwXwXwXwXwXwXwXwXwXwXwXwXwXwXwXwXwXwXwXwXwXwX",
"wXwXwXwXwXwXwXwXwXwXwXwXwXwXwXwXwXwXwXwXwXwXwXwX^ ] ( wXwX| c.z.{ ~ wXwXwXwXwXwXwXwXwXwXwXwXwXwXwXwXwXwXwXwXwXwXwXwXwXwXwXwXwXwXwX",
"wXwXwXwXwXwXwXwXwXwXwXwXwXwXwXwXwXwXwXwXwXwXwX^ o.k.+.wXwX] ;.1.,.] wXwXwXwXwXwXwXwXwXwXwXwXwXwXwXwXwXwXwXwXwXwXwXwXwXwXwXwXwXwXwX",
"wXwXwXwXwXwXwXwXwXwXwXwXwXwXwXwXwXwXwXwXwXwX^ i.v.&.< < ! ) >.#Xl.X.1 wXwXwXwXwXwXwXwXwXwXwXwXwXwXwXwXwXwXwXwXwXwXwXwXwXwXwXwXwXwX",
"wXwXwXwXwXwXwXwXwXwXwXwXwXwXwXwXwXwXwXwXwXwX) } { wXwXo.X._ h.=Xn._ / ] wXwXwXwXwXwXwXwXwXwXwXwXwXwXwXwXwXwXwXwXwXwXwXwXwXwXwXwXwX",
"wXwXwXwXwXwXwXwXwXwXwXwXwXwXwXwXwXwXwXwXwXwXwXwXwXwXwXN.i.X.n.S.n.o.*...wXwXwXwXwXwXwXwXwXwXwXwXwXwXwXwXwXwXwXwXwXwXwXwXwXwXwXwXwX",
"wXwXwXwXwXwXwXwXwXwXwXwXwXwXwXwXwXwXwXwXwXwXwXwXwXwXwXX.) X.B.S.v.&.3 3 wXwXwXwXwXwXwXwXwXwXwXwXwXwXwXwXwXwXwXwXwXwXwXwXwXwXwXwXwX",
"wXwXwXwXwXwXwXwXwXwXwXwXwXwXwXwXwXwXwXwXwXwXwXwXwXwX*Xc.-.p.h.x.,.*._ _ #.wXwXwXwXwXwXwXwXwXwXwXwXwXwXwXwXwXwXwXwXwXwXwXwXwXwXwXwX",
"wXwXwXwXwXwXwXwXwXwXwXwXwXwXwXwXwXwXwXwXwXwXwXwXwXwX>X6X-Xi.;.;.-...x.:X=.2 wXwXwXwXwXwXwXwXwXwXwXwXwXwXwXwXwXwXwXwXwXwXwXwXwXwXwX",
"wXwXwXwXwXwXwXwXwXwXwXwXwXwXwXwXwXwXwXwXwXwXwXwXwX` l.6X,X$X%X%X%X<.$X;X:.' / wXwXwXwXwXwXwXwXwXwXwXwXwXwXwXwXwXwXwXwXwXwXwXwXwXwX",
"wXwXwXwXwXwXwXwXwXwXwXwXwXwXwXwXwXwXwXwXwXwXwXwXN.=.p.<X3X2X3X8X6X2X:Xc.*.*.%./ wXwXwXwXwXwXwXwXwXwXwXwXwXwXwXwXwXwXwXwXwXwXwXwXwX",
"wXwXwXwXwXwXwXwXwXwXwXwXwXwXwXwXwXwXwXwXwXwXwX} c.k.$X3X<X;X2X8X2X;XZ.l.,.x.j.^ wXwXwXwXwXwXwXwXwXwXwXwXwXwXwXwXwXwXwXwXwXwXwXwXwX",
"wXwXwXwXwXwXwXwXwXwXwXwXwXwXwXwXwXwXwXwXwXwXwXwX;.$.p.<X1X=X=X=X=XZ.Z.v.&...-./ wXwXwXwXwXwXwXwXwXwXwXwXwXwXwXwXwXwXwXwXwXwXwXwXwX",
"wXwXwXwXwXwXwXwXwXwXwXwXwXwXwXwXwXwXwXwXwXwXwXwXwX' o.1X<XA.n.l.m.Z.Z.m.{ ! ~ wXwXwXwXwXwXwXwXwXwXwXwXwXwXwXwXwXwXwXwXwXwXwXwXwXwX",
"wXwXwXwXwXwXwXwXwXwXwXwXwXwXwXwXwXwXwXwXwXwXwXwXwXwXwXv.=XV.x.,.z.n.m.%.wXwXwXwXwXwXwXwXwXwXwXwXwXwXwXwXwXwXwXwXwXwXwXwXwXwXwXwXwX",
"wXwXwXwXwXwXwXwXwXwXwXwXwXwXwXwXwXwXwXwXwXwXwXwXwXwXwXi.Z.A.M.v.v.v.z.{ wXwXwXwXwXwXwXwXwXwXwXwXwXwXwXwXwXwXwXwXwXwXwXwXwXwXwXwXwX",
"wXwXwXwXwXwXwXwXwXwXwXwXwXwXwXwXwXwXwXwXwXwXwXwXwXwXwX;.h.N.B.S.B.<.>.{ wXwXwXwXwXwXwXwXwXwXwXwXwXwXwXwXwXwXwXwXwXwXwXwXwXwXwXwXwX",
"wXwXwXwXwXwXwXwXwXwXwXwXwXwXwXwXwXwXwXwXwXwXwXwXwXwXwXwX .%.m.=Xm.-.} wXwXwXwXwXwXwXwXwXwXwXwXwXwXwXwXwXwXwXwXwXwXwXwXwXwXwXwXwXwX",
"wXwXwXwXwXwXwXwXwXwXwXwXwXwXwXwXwXwXwXwXwXwXwXwXwXwXwXwX3 m [ +.+./ 1 wXwXwXwXwXwXwXwXwXwXwXwXwXwXwXwXwXwXwXwXwXwXwXwXwXwXwXwXwXwX",
"wXwXwXwXwXwXwXwXwXwXwXwXwXwXwXwXwXwXwXwXwXwXwXH F.V i i j x x x x a - = r i i u wXwXwXwXwXwXwXwXwXwXwXwXwXwXwXwXwXwXwXwXwXwXwXwXwX",
"wXwXwXwXwXwXwXwXwXwXwXwXwXwXwXwXwXwXwXwXwXwXG E.(.~.U.T D D T D N r * * i R U.Z p wXwXwXwXwXwXwXwXwXwXwXwXwXwXwXwXwXwXwXwXwXwXwXwX",
"wXwXwXwXwXwXwXwXwXwXwXwXwXwXwXwXwXwXwXwXwXm x T XX+X_.T j i i i u r * * l Y.R.I p , wXwXwXwXwXwXwXwXwXwXwXwXwXwXwXwXwXwXwXwXwXwXwX",
"wXwXwXwXwXwXwXwXwXwXwXwXwXwXwXwXwXwXwXwXwXQ - T XX X_.R A l = $ = f f * l J.Y.I t 1 wXwXwXwXwXwXwXwXwXwXwXwXwXwXwXwXwXwXwXwXwXwXwX",
"wXwXwXwXwXwXwXwXwXwXwXwXwXwXwXwXwXwXwXwXwX[ s T XX+X/.Q.].W S C Z G f * g J.}.I.Z a 1 wXwXwXwXwXwXwXwXwXwXwXwXwXwXwXwXwXwXwXwXwXwX",
"wXwXwXwXwXwXwXwXwXwXwXwXwXwXwXwXwXwXwXwX$.+.d T XX+XXXQ.W.I.W.Q.I.H y * g J.}.R.Y p , wXwXwXwXwXwXwXwXwXwXwXwXwXwXwXwXwXwXwXwXwXwX",
"wXwXwXwXwXwXwXwXwXwXwXwXwXwXwXwXwXwXwXwXp.;.n K OX+X XXX(././.}.I.K f * g Y }./.W.V ; 1 wXwXwXwXwXwXwXwXwXwXwXwXwXwXwXwXwXwXwXwXwX",
"wXwXwXwXwXwXwXwXwXwXwXwXwXwXwXwXwXwXwX%.k.{ c Y oX+X+X+XOX+XoXR.J.J f = V W./.{.!.Y k & wXwXwXwXwXwXwXwXwXwXwXwXwXwXwXwXwXwXwXwXwX",
"wXwXwXwXwXwXwXwXwXwXwXwXwXwXwXwXwXwXwXj.o.M L Y.XX+X+XOX+X+X).R.F.G y f I Y /.XX!.Y p & wXwXwXwXwXwXwXwXwXwXwXwXwXwXwXwXwXwXwXwXwX",
"wXwXwXwXwXwXwXwXwXwXwXwXwXwXwXwXwXwXwXc.;.d G R.).+XOX X+XXXR.U.F.F f l H.J.!.XX/.J.l ; wXwXwXwXwXwXwXwXwXwXwXwXwXwXwXwXwXwXwXwXwX",
"wXwXwXwXwXwXwXwXwXwXwXwXwXwXwXwXwXwXwX:X#XM Z Y.{. X XOX X).R.Y H F y l '.J.!.oXOX].P z & wXwXwXwXwXwXwXwXwXwXwXwXwXwXwXwXwXwXwXwX",
"wXwXwXwXwXwXwXwXwXwXwXwXwXwXwXwXwXwX;.:X<.d L T.{. X+X+X XXXY.Y J F f l '.J.!.oX+XQ.Y l ; wXwXwXwXwXwXwXwXwXwXwXwXwXwXwXwXwXwXwXwX",
"wXwXwXwXwXwXwXwXwXwXwXwXwXwXwXwXwXwXi.V. .x L R.). X+XOX XXXY.Y J F f g '.J.R.OXOXR.W.W z ; wXwXwXwXwXwXwXwXwXwXwXwXwXwXwXwXwXwXwX",
"wXwXwXwXwXwXwXwXwXwXwXwXwXwXwXwXwXwXq.e M Z U Y.{. XOX+X XXXY.Y J F f f H.J.R.oX+X{.Q.K.C $ wXwXwXwXwXwXwXwXwXwXwXwXwXwXwXwXwXwXwX",
"wXwXwXwXwXwXwXwXwXwXwXwXwXwXwXwXwX7.r.3.a U ].^.oX+X+X+X+XoXL.Y G N f B J J.R.oX X+X/.I.P g wXwXwXwXwXwXwXwXwXwXwXwXwXwXwXwXwXwXwX",
"wXwXwXwXwXwXwXwXwXwXwXwXwXwXwXwXwX8.s.0.d I L.|. X+X+X XoX^.'.U G y f H J J.!.XX+X+X!.Y '.C * wXwXwXwXwXwXwXwXwXwXwXwXwXwXwXwXwXwX",
"wXwXwXwXwXwXwXwXwXwXwXwXwXwXwXwXwXw.f.0.d K R.XX X+X+X X).Y.H.'.G f h H J J.!.oX+X+X_.Q.H.A u wXwXwXwXwXwXwXwXwXwXwXwXwXwXwXwXwXwX",
"wXwXwXwXwXwXwXwXwXwXwXwXwXwXwXwXwXw.a.w M D.T.XX X+X+X X(.Y.Y H.F y h H I Y R.oX+X+X+X/.I.W Z * wXwXwXwXwXwXwXwXwXwXwXwXwXwXwXwXwX",
"wXwXwXwXwXwXwXwXwXwXwXwXwXwXwXwXwXr.5.v J.L.!.XX+X+X+X X(.Y.Y J B y h H J W.R.oX+X+X+X/.I.'.A u wXwXwXwXwXwXwXwXwXwXwXwXwXwXwXwXwX",
"wXwXwXwXwXwXwXwXwXwXwXwXwXwXwXwXwXw.0 l D.R.XX X+X+X+X X).Y.Y G y * h H J Y !.oX+X+X+X/.I.U H.S r wXwXwXwXwXwXwXwXwXwXwXwXwXwXwXwX",
"wXwXwXwXwXwXwXwXwXwXwXwXwXwXwXwXwX7 v W J.!.oX X+X+X+X X).Q.J.G r * h H J J.!.XX+X+XOX(.T.J.'.P = wXwXwXwXwXwXwXwXwXwXwXwXwXwXwXwX",
"wXwXwXwXwXwXwXwXwXwXwXwXwXwXwXwX7.@ h '.K.R.oX X+X+X+X X).Y.G.G r * h H J Y !.oX+X+X+XoX/.U.'.P r wXwXwXwXwXwXwXwXwXwXwXwXwXwXwXwX",
"wXwXwXwXwXwXwXwXwXwXwXwXwXwXwXwXwX: l W P.).oX X X+X+X X).Q.G.G r * N J U J.R.oX X+X+X X(.I.'.U C wXwXwXwXwXwXwXwXwXwXwXwXwXwXwXwX",
"wXwXwXwXwXwXwXwXwXwXwXwXwXwXwXwXwXg A Y ^.+X+X+XOXOX+X XXX{.H.G r * h G.'.J.R.oX X+X+X+X{.~.J.'.U u wXwXwXwXwXwXwXwXwXwXwXwXwXwXwX",
"wXwXwXwXwXwXwXwXwXwXwXwXwXwXwXwX$ C '.K.(.OX+X{.(.{.{.+X+X.XH.h = = N J W J.!.oX X+X+X+X+X{.U.'.P u wXwXwXwXwXwXwXwXwXwXwXwXwXwXwX",
"wXwXwXwXwXwXwXwXwXwXwXwXwXwXwXwX* C U L.{..X[.Q.U.U.^.{.oX|.U = * = h D.W J.R.oX X+X X+X+XXXQ.K.P u wXwXwXwXwXwXwXwXwXwXwXwXwXwXwX",
"wXwXwXwXwXwXwXwXwXwXwXwXwXwXwXwX- S I.T.I.U P P A A U Y ~.`.G r * = h D.'.W.R.{.+X+X+X X+X+X{.T.U r wXwXwXwXwXwXwXwXwXwXwXwXwXwXwX",
"wXwXwXwXwXwXwXwXwXwXwXwXwXwXwX* C W W.I.U A r - s n E A W H.N r * * h I W K.T.R.XX+XXXXXoXOX).T.L u wXwXwXwXwXwXwXwXwXwXwXwXwXwXwX",
"wXwXwXwXwXwXwXwXwXwXwXwXwXwXwX* N I ].Z u - wXwX#X4X@.d c Z r = * = N J '.W Y R.{./.R.}.R.R.R.R.U u wXwXwXwXwXwXwXwXwXwXwXwXwXwXwX",
"wXwXwXwXwXwXwXwXwXwXwXwXwXwXwX* N G.Z u wXwXwXwX3X9X*X&X@Xc - * * = N H I W K.T.R.J.K.Y Y Y H.U P u wXwXwXwXwXwXwXwXwXwXwXwXwXwXwX",
"wXwXwXwXwXwXwXwXwXwXwXwXwXwX= h F B r wXwXwXwXwX&X9X6X6X3X@X; * * = h H J W K.U.W.'.W S u g g g u = wXwXwXwXwXwXwXwXwXwXwXwXwXwXwX",
"wXwXwXwXwXwXwXwXwXwXwXwXwXwX* B N r wXwXwXwXwXwXwX,X0X9XqX5Xb $ * = r B J '.H.K.H.'.S - wXwXwXwX* = wXwXwXwXwXwXwXwXwXwXwXwXwXwXwX",
"wXwXwXwXwXwXwXwXwXwXwXwXwXwX= f r wXwXwXwXwXwXwXwXwXb.C.C.u.4 % = * * f J '.'.U S l u wXwXwXwXwXwXwXwXwXwXwXwXwXwXwXwXwXwXwXwXwXwX",
"wXwXwXwXwXwXwXwXwXwXwXwXwXwX= * wXwXwXwXwXwXwXwXwXwX7 8 0 2.0 & = = * h H H.U C * $ wXwXwXwXwXwXwXwXwXwXwXwXwXwXwXwXwXwXwXwXwXwXwX",
"wXwXwXwXwXwXwXwXwXwXwXwXwXwX* wXwXwXwXwXwXwXwXwXwXwXO 9 8.e.2.> * = = y N V l $ wXwXwXwXwXwXwXwXwXwXwXwXwXwXwXwXwXwXwXwXwXwXwXwXwX",
"wXwXwXwXwXwXwXwXwXwXwXwXwXwXwXwXwXwXwXwXwXwXwXwX  . O q r.y.9.5 X $ # $ $ $ #       wXwXwXwXwXwXwXwXwXwXwXwXwXwXwXwXwXwXwXwXwXwXwX",
"wXwXwXwXwXwXwXwXwXwXwXwXwXwXwXwXwXwXwXwXwXwX      O 6 6.f.f.s.e.0 X                     wXwXwXwXwXwXwXwXwXwXwXwXwXwXwXwXwXwXwXwXwX",
"wXwXwXwXwXwXwXwXwXwXwXwXwXwXwXwXwXwXwXwXwX        6 4.9.t.r.r.w.4.+                       wXwXwXwXwXwXwXwXwXwXwXwXwXwXwXwXwXwXwXwX",
"wXwXwXwXwXwXwXwXwXwXwXwXwXwXwXwXwXwXwXwX          O 2.8.a.f.d.t.4.+                         wXwXwXwXwXwXwXwXwXwXwXwXwXwXwXwXwXwXwX",
"wXwXwXwXwXwXwXwXwXwXwXwXwXwXwXwXwXwXwX            . O 8 q q 3.5.2.O                           wXwXwXwXwXwXwXwXwXwXwXwXwXwXwXwXwXwX",
"wXwXwXwXwXwXwXwXwXwXwXwXwXwXwXwXwXwXwX                . . . . . .                             wXwXwXwXwXwXwXwXwXwXwXwXwXwXwXwXwXwX",
"wXwXwXwXwXwXwXwXwXwXwXwXwXwXwXwXwXwXwXwX                                                  wXwXwXwXwXwXwXwXwXwXwXwXwXwXwXwXwXwXwXwX"
};
