/* XPM */
static char *result[] = {
/* columns rows colors chars-per-pixel */
"65 65 250 2 ",
"   c #010100",
".  c #0A0501",
"X  c #02010A",
"o  c #0D0C0B",
"O  c #180C00",
"+  c #151718",
"@  c #0F0909",
"#  c #241101",
"$  c #2B1300",
"%  c #2D1900",
"&  c #3A1902",
"*  c #251611",
"=  c #21231D",
"-  c #05032B",
";  c #010034",
":  c #01013B",
">  c #0D0C36",
",  c #130939",
"<  c #141334",
"1  c #191529",
"2  c #271327",
"3  c #2D153C",
"4  c #3B3B3B",
"5  c #383736",
"6  c #2D2A32",
"7  c #4A2500",
"8  c #522900",
"9  c #562501",
"0  c #472817",
"q  c #5C2E08",
"w  c #662A00",
"e  c #763302",
"r  c #6A3414",
"t  c #703110",
"y  c #592425",
"u  c #503632",
"i  c #76372A",
"p  c #69312B",
"a  c #4A1B3C",
"s  c #524A38",
"d  c #745439",
"f  c #070347",
"g  c #170A45",
"h  c #161647",
"j  c #0B0255",
"k  c #040555",
"l  c #13045C",
"z  c #130F53",
"x  c #091055",
"c  c #22155B",
"v  c #311851",
"b  c #282849",
"n  c #393847",
"m  c #332D50",
"M  c #060767",
"N  c #13026A",
"B  c #160865",
"V  c #090576",
"C  c #160578",
"Z  c #131474",
"A  c #250A6A",
"S  c #261369",
"D  c #24097A",
"F  c #27167A",
"G  c #33176A",
"H  c #3C346C",
"J  c #2F2C72",
"K  c #471457",
"L  c #483D4E",
"P  c #473C6F",
"I  c #581D51",
"U  c #444444",
"Y  c #4C4C4D",
"T  c #484746",
"R  c #54534C",
"E  c #565448",
"W  c #4A4854",
"Q  c #535354",
"!  c #5B5B5B",
"~  c #595955",
"^  c #574C4F",
"/  c #69574B",
"(  c #766442",
")  c #64635B",
"_  c #696658",
"`  c #736D5D",
"'  c #79765E",
"]  c #534B6B",
"[  c #575568",
"{  c #585375",
"}  c #514973",
"|  c #685F6A",
" . c #5F6060",
".. c #646463",
"X. c #686868",
"o. c #7C7A6D",
"O. c #777667",
"+. c #696A74",
"@. c #747574",
"#. c #7A7A74",
"$. c #7B7C7B",
"%. c #75767B",
"&. c #707471",
"*. c #843A02",
"=. c #873716",
"-. c #91370D",
";. c #8F3923",
":. c #874302",
">. c #9B4805",
",. c #925E04",
"<. c #A64600",
"1. c #A74905",
"2. c #B74D00",
"3. c #A75603",
"4. c #B45201",
"5. c #B95804",
"6. c #B25210",
"7. c #A66500",
"8. c #B96907",
"9. c #B46518",
"0. c #B8770D",
"q. c #875838",
"w. c #A05C20",
"e. c #96643A",
"r. c #9F702C",
"t. c #AC6E2A",
"y. c #C65902",
"u. c #D65701",
"i. c #CD6C03",
"p. c #C76A07",
"a. c #D76802",
"s. c #D87502",
"d. c #CA7611",
"f. c #E16D01",
"g. c #E77802",
"h. c #D87A29",
"j. c #DB7F35",
"k. c #876448",
"l. c #9A6C44",
"z. c #836655",
"x. c #946A54",
"c. c #917B56",
"v. c #A2734D",
"b. c #827C69",
"n. c #837F78",
"m. c #977B6D",
"M. c #825E47",
"N. c #7D8079",
"B. c #D78401",
"V. c #DA9500",
"C. c #D29108",
"Z. c #E88700",
"A. c #F68B04",
"S. c #E89602",
"D. c #F99A03",
"F. c #E79717",
"G. c #E08510",
"H. c #FAA902",
"J. c #F5B800",
"K. c #ECA916",
"L. c #F6A714",
"P. c #F2B514",
"I. c #EE8E2E",
"U. c #FAB134",
"Y. c #D79724",
"T. c #FACF1B",
"R. c #FCC925",
"E. c #FDCA33",
"W. c #B1824C",
"Q. c #89866C",
"!. c #848274",
"~. c #8D8B7B",
"^. c #878578",
"/. c #9A9578",
"(. c #948D72",
"). c #AC9371",
"_. c #A7A176",
"`. c #F8B649",
"'. c #E1BF79",
"]. c #FAC747",
"[. c #F9D356",
"{. c #F9D778",
"}. c #F7D370",
"|. c #FDEB74",
" X c #F9E463",
".X c #0C0786",
"XX c #190587",
"oX c #1C0397",
"OX c #0E0B91",
"+X c #270799",
"@X c #250A85",
"#X c #1918A6",
"$X c #452F8B",
"%X c #797A83",
"&X c #766E93",
"*X c #7D8287",
"=X c #838483",
"-X c #8A8B8B",
";X c #858786",
":X c #93938B",
">X c #999784",
",X c #8A8E90",
"<X c #9C9C9B",
"1X c #959593",
"2X c #8F9092",
"3X c #A29D83",
"4X c #A09D8F",
"5X c #A19F95",
"6X c #AAA38B",
"7X c #A7A498",
"8X c #B0AD99",
"9X c #B6B297",
"0X c #B8B28E",
"qX c #9D9EA2",
"wX c #A2A3A3",
"eX c #ABABAA",
"rX c #A9ACAA",
"tX c #B6B3A3",
"yX c #B8B6AA",
"uX c #AAADB3",
"iX c #B4B4B4",
"pX c #BCBDBD",
"aX c #B8B9B4",
"sX c #AEAFAE",
"dX c #9BA3A6",
"fX c #C2BEB7",
"gX c #C7BAAC",
"hX c #FCF18D",
"jX c #C3C2BC",
"kX c #C8C4A9",
"lX c #E6D28E",
"zX c #BFC2C4",
"xX c #C3C4C3",
"cX c #CACACB",
"vX c #C5C9CB",
"bX c #D6D5CA",
"nX c #D3D3D4",
"mX c #DBDBDB",
"MX c #DADBD6",
"NX c #CDD0D4",
"BX c #EEEBD2",
"VX c #DEDDE0",
"CX c #DFE1E0",
"ZX c #E5E5E5",
"AX c #ECEBEB",
"SX c #E5E8EB",
"DX c #F4F4F4",
"FX c #FBFBFB",
"GX c #EDF0ED",
"HX c None",
/* pixels */
"HXHXHXHXHXHXHXHXHXHXHXHXHXHXHXHXHXHXHXHXHXHXHXHXHXHXHXHXHXHXHXHXHXHX~ ) ) R HXHXHXHXHXHXHXHXHXHXHXHXHXHXHXHXHXHXHXHXHXHXHXHXHXHXHX",
"HXHXHXHXHXHXHXHXHXHXHXHXHXHXHXHXHXHXHXHXHXHXHXHXHXHXHXHXHXHXHXHXHXHX(._./.Q.Q HXHXHXHXHXHXHXHXHXHXHXHXHXHXHXHXHXHXHXHXHXHXHXHXHXHX",
"HXHXHXHXHXHXHXHXHXHXHXHXHXHXHXHXHXHXHXHXHXHXHXHXHXHXHXHXHXHXHXHXHX6XtX:XR U ! ~ HXHXHXHXHXHXHXHXHXHXHXHXHXHXHXHXHXHXHXHXHXHXHXHXHX",
"HXHXHXHXHXHXHXHXHXHXHXHXHXHXHXHXHXHXHXHXHXHXHXHXHXHXHXHXHXHXHXHX$.tX6X) HXHXHXU HXHXHXHXHXHXHXHXHXHXHXHXHXHXHXHXHXHXHXHXHXHXHXHXHX",
"HXHXHXHXHXHXHXHXHXHXHXHXHXHXHXHXHXHXHXHXHXHXHXHXHXHXHXHXHXHXHXHX4XaX/.s HXHXHXU Y HXHXHXHXHXHXHXHXHXHXHXHXHXHXHXHXHXHXHXHXHXHXHXHX",
"HXHXHXHXHXHXHXHXHXHXHXHXHXHXHXHXHXHXHXHXHXHXHXHXHXHXHXHXHXHXHXn.fXbX7X~ HXHXHX_ ` HXHXHXHXHXHXHXHXHXHXHXHXHXHXHXHXHXHXHXHXHXHXHXHX",
"HXHXHXHXHXHXHXHXHXHXHXHXHXHXHXHXHXHXHXHXHXHXHXHXHXHXHXHXHXHXHX-XbXZXeX! HXHXHX_ O.HXHXHXHXHXHXHXHXHXHXHXHXHXHXHXHXHXHXHXHXHXHXHXHX",
"HXHXHXHXHXHXHXHXHXHXHXHXHXHXHXHXHXHXHXHXHXHXHXHXHXHXHXHXHXHX~ -XnXZXrX! 5 HXHXQ Q HXHXHXHXHXHXHXHXHXHXHXHXHXHXHXHXHXHXHXHXHXHXHXHX",
"HXHXHXHXHXHXHXHXHXHXHXHXHXHXHXHXHXHXHXHXHXHXHXHXHXHXHXHXHXQ.b.=XNXVX7X) [  .HXHX5 HXHXHXHXHXHXHXHXHXHXHXHXHXHXHXHXHXHXHXHXHXHXHXHX",
"HXHXHXHXHXHXHXHXHXHXHXHXHXHXHXHXHXHXHXHXHXHXHXHXHXHXHXHXHX' _ #.zXbX3X) Q R HXHXHXHXHXHXHXHXHXHXHXHXHXHXHXHXHXHXHXHXHXHXHXHXHXHXHX",
"HXHXHXHXHXHXHXHXHXHXHXHXHXHXHXHXHXHXHXHXHXHXHXHXHXHXHXHXQ._ E b.9XgX3X_ 5 T ! HXHXHXHXHXHXHXHXHXHXHXHXHXHXHXHXHXHXHXHXHXHXHXHXHXHX",
"HXHXHXHXHXHXHXHXHXHXHXHXHXHXHXHXHXHXHXHXHXHXHXHXHXHXHXHX<X8X(.(._./.!.Q.(.!.! HXHXHXHXHXHXHXHXHXHXHXHXHXHXHXHXHXHXHXHXHXHXHXHXHXHX",
"HXHXHXHXHXHXHXHXHXHXHXHXHXHXHXHXHXHXHXHXHXHXHXHXHXHXHXQ wXxX7X^./.~.b.O.5X9X` n HXHXHXHXHXHXHXHXHXHXHXHXHXHXHXHXHXHXHXHXHXHXHXHXHX",
"HXHXHXHXHXHXHXHXHXHXHXHXHXHXHXHXHXHXHXHXHXHXHXHXHXHXO.) ~.aXaXeX8X6X8XwX7X>XX.~ ~ HXHXHXHXHXHXHXHXHXHXHXHXHXHXHXHXHXHXHXHXHXHXHXHX",
"HXHXHXHXHXHXHXHXHXHXHXHXHXHXHXHXHXHXHXHXHXHXHXHXHX_ (.Q.Q./.7XaXtX<XaXyX(.+.@.^.O.HXHXHXHXHXHXHXHXHXHXHXHXHXHXHXHXHXHXHXHXHXHXHXHX",
"HXHXHXHXHXHXHXHXHXHXHXHXHXHXHXHXHXHXHXHXHXHXHXHXHX! n.b.o.R s ^.2X;X:Xb.s Q @.n.O.HXHXHXHXHXHXHXHXHXHXHXHXHXHXHXHXHXHXHXHXHXHXHXHX",
"HXHXHXHXHXHXHXHXHXHXHXHXHXHXHXHXHXHXHXHXHXHXHXHXHXHX . .O.5 o Y %Xn.+.5 + U X.~ R HXHXHXHXHXHXHXHXHXHXHXHXHXHXHXHXHXHXHXHXHXHXHXHX",
"HXHXHXHXHXHXHXHXHXHXHXHXHXHXHXHXHXHXHXHXHXHXHXHXHXHXHXHXHXs 6 ! 1X1X;XY = Y HXHXHXHXHXHXHXHXHXHXHXHXHXHXHXHXHXHXHXHXHXHXHXHXHXHXHX",
"HXHXHXHXHXHXHXHXHXHXHXHXHXHXHXHXHXHXHXHXHXHXHXHXHXHXHXHXHXO.=X<X9X0X8X1X%.~ HXHXHXHXHXHXHXHXHXHXHXHXHXHXHXHXHXHXHXHXHXHXHXHXHXHXHX",
"HXHXHXHXHXHXHXHXHXHXHXHXHXHXHXHXHXHXHXHXHXHXHXHXHXHXHXHXHXb.8XtX_./.6XeX;XR HXHXHXHXHXHXHXHXHXHXHXHXHXHXHXHXHXHXHXHXHXHXHXHXHXHXHX",
"HXHXHXHXHXHXHXHXHXHXHXHXHXHXHXHXHXHXHXHXHXHXHXHXHXHXHXHXHX_ _./.o.X.!.=XX.n HXHXHXHXHXHXHXHXHXHXHXHXHXHXHXHXHXHXHXHXHXHXHXHXHXHXHX",
"HXHXHXHXHXHXHXHXHXHXHXHXHXHXHXHXHXHXHXHXHXHXHXHXHXHXHXHXHXHXN.Q.!.^.@...Y HXHXHXHXHXHXHXHXHXHXHXHXHXHXHXHXHXHXHXHXHXHXHXHXHXHXHXHX",
"HXHXHXHXHXHXHXHXHXHXHXHXHXHXHXHXHXHXHXHXHXHXHXHXHX.XV k - b ) N.3X8X#.Y 4 < ; f f HXHXHXHXHXHXHXHXHXHXHXHXHXHXHXHXHXHXHXHXHXHXHXHX",
"HXHXHXHXHXHXHXHXHXHXHXHXHXHXHXHXHXHXHXHXHXHXHXHXV .XOXV f 6 / Q.` ) ! ~ U < k V M k HXHXHXHXHXHXHXHXHXHXHXHXHXHXHXHXHXHXHXHXHXHXHX",
"HXHXHXHXHXHXHXHXHXHXHXHXHXHXHXHXHXHXHXHXHXHXHXHXJ l N OXC h Y ~ 6 > 6 T b x Z V M z b HXHXHXHXHXHXHXHXHXHXHXHXHXHXHXHXHXHXHXHXHXHX",
"HXHXHXHXHXHXHXHXHXHXHXHXHXHXHXHXHXHXHXHXHXHXHXX.n.~ m S N j h c B M j < > k M S W _ ` s HXHXHXHXHXHXHXHXHXHXHXHXHXHXHXHXHXHXHXHXHX",
"HXHXHXHXHXHXHXHXHXHXHXHXHXHXHXHXHXHXHXHXHXHXHX=XjXtX(.u , M V B N N N N j ; 1 d 3X0X/.E HXHXHXHXHXHXHXHXHXHXHXHXHXHXHXHXHXHXHXHXHX",
"HXHXHXHXHXHXHXHXHXHXHXHXHXHXHXHXHXHXHXHXHXHX~ ;XkXkX>Xs g OX#XZ g > j @X+XN 2 ( 0XkX6XX.n HXHXHXHXHXHXHXHXHXHXHXHXHXHXHXHXHXHXHXHX",
"HXHXHXHXHXHXHXHXHXHXHXHXHXHXHXHXHXHXHXHXHXHXX.^.>X/.' 6 N .XXXM b U b N oXC f m #.6X/.o.Y HXHXHXHXHXHXHXHXHXHXHXHXHXHXHXHXHXHXHXHX",
"HXHXHXHXHXHXHXHXHXHXHXHXHXHXHXHXHXHXHXHXHX..~./.!._ u 2 k S 3 b ..#.[ v 3 g : > n X./.>X#.T HXHXHXHXHXHXHXHXHXHXHXHXHXHXHXHXHXHXHX",
"HXHXHXHXHXHXHXHXHXHXHXHXHXHXHXHXHXHXHXHXHX` 6XsX%.s q 2 f y 1.e.!.*XQ.w.-.& X * 0 E -XyX/.E HXHXHXHXHXHXHXHXHXHXHXHXHXHXHXHXHXHXHX",
"HXHXHXHXHXHXHXHXHXHXHXHXHXHXHXHXHXHXHXHXHXb.9XiX+.u t 0 2 e S.F.e.' t.S.B.w % 9 r Y ;XjX6XE HXHXHXHXHXHXHXHXHXHXHXHXHXHXHXHXHXHXHX",
"HXHXHXHXHXHXHXHXHXHXHXHXHXHXHXHXHXHXHXHXHX:XyX3XW v i 1.3.C.J.Z.t.x.t.S.J.0.3.>.p v ..0XtX..HXHXHXHXHXHXHXHXHXHXHXHXHXHXHXHXHXHXHX",
"HXHXHXHXHXHXHXHXHXHXHXHXHXHXHXHXHXHXHXHXX.1X0XQ.m A p 2.i.B.d.0.).6XW.p.B.B.p.>.a l W _.9X@.T HXHXHXHXHXHXHXHXHXHXHXHXHXHXHXHXHXHX",
"HXHXHXHXHXHXHXHXHXHXHXHXHXHXHXHXHXHXHXHX&./.>XO.m A v s q.e.q.x./.8X).k.q.e.d u c A W Q.>X~.! HXHXHXHXHXHXHXHXHXHXHXHXHXHXHXHXHXHX",
"HXHXHXHXHXHXHXHXHXHXHXHXHXHXHXHXHXHXHXHXe.l.l./ n C C b Q N.:X<XeXgX8X/.~.o.T c XXS L M.l.v.d HXHXHXHXHXHXHXHXHXHXHXHXHXHXHXHXHXHX",
"HXHXHXHXHXHXHXHXHXHXHXHXHXHXHXHXHXHXHX1.5.i.a.1.a C XX- = R ^.eXvXvXsX~.' T + f XXF i 5.a.i.5.HXHXHXHXHXHXHXHXHXHXHXHXHXHXHXHXHXHX",
"HXHXHXHXHXHXHXHXHXHXHXHXHXHXHXHXHXHX1.y.F.`.U.d.r A S -   @ 5 c.'.lX).d *     > XXK 6.A.U.L.s.<.HXHXHXHXHXHXHXHXHXHXHXHXHXHXHXHXHX",
"HXHXHXHXHXHXHXHXHXHXHXHXHXHXHXHXHXHX<.s.}.BX|.C.r G P u +   9 i.K.K.d.*.#   = n $XK 5.E.hX].Z.2.HXHXHXHXHXHXHXHXHXHXHXHXHXHXHXHXHX",
"HXHXHXHXHXHXHXHXHXHXHXHXHXHXHXHXHXHX1.B.|.hXE.B.p C { :X%.4 r y.s.s.y.>.0 U &.@.P v 6.U.hX].Z.2.HXHXHXHXHXHXHXHXHXHXHXHXHXHXHXHXHX",
"HXHXHXHXHXHXHXHXHXHXHXHXHXHXHXHXHXHX<.s.R.P.A.a.;.A } fXnXwXx.p.s.i.i.9.m.uXrX*XH K 1.f.I.P.A.4.HXHXHXHXHXHXHXHXHXHXHXHXHXHXHXHXHX",
"HXHXHXHXHXHXHXHXHXHXHXHXHXHXHXHXHXHX<.a.A.D.L.F.y.i | pXSXNX8Xv.9.3.9.).cXZXpX%X/ ;.h.K.H.A.g.2.HXHXHXHXHXHXHXHXHXHXHXHXHXHXHXHXHX",
"HXHXHXHXHXHXHXHXHXHXHXHXHXHXHXHXHXHX1.y.g.U.hX XF.p.3XNXmXvXvXtXx.q.m.fXAXAXiX=Xl.h.'.|.T.H.f.<.HXHXHXHXHXHXHXHXHXHXHXHXHXHXHXHXHX",
"HXHXHXHXHXHXHXHXHXHXHXHXHXHXHXHXHXHX<.y.Z.}.BX|.L.d.gXSXmXVXSXzX%X%.sXnXSXAXuX,Xv.I.{.{.T.H.s.<.HXHXHXHXHXHXHXHXHXHXHXHXHXHXHXHXHX",
"HXHXHXHXHXHXHXHXHXHXHXHXHXHXHXHXHXHXHX2.f.`.].L.p.e.fXSXGXDXmXwXX.%XpXpXvXnXaXuX-Xw.B.H.H.D.a.2.HXHXHXHXHXHXHXHXHXHXHXHXHXHXHXHXHX",
"HXHXHXHXHXHXHXHXHXHXHXHXHXHXHXHXHXHXHXHXu.g.g.y.p | vXFXDXZXfXqX$.$.rXcXcXxXnXCXwX^ ;.a.Z.a.y.HXHXHXHXHXHXHXHXHXHXHXHXHXHXHXHXHXHX",
"HXHXHXHXHXHXHXHXHXHXHXHXHXHXHXHXHXHXHXHXHX=.;.I G &XnXFXAXnXxXpX<X..=XnXAXZXFXGXsX} K i -.1.HXHXHXHXHXHXHXHXHXHXHXHXHXHXHXHXHXHXHX",
"HXHXHXHXHXHXHXHXHXHXHXHXHXHXHXHXHXHXHXHXHXl D D G %XMXFXnXnXnXiX=X..%XxXAXFXFXVXpX-X} B f HXHXHXHXHXHXHXHXHXHXHXHXHXHXHXHXHXHXHXHX",
"HXHXHXHXHXHXHXHXHXHXHXHXHXHXHXHXHXHXHXHXHXZ +X@X| aXAXZXAXDXmX<X| X.2XqXpXDXDXnXiX7X{ B j HXHXHXHXHXHXHXHXHXHXHXHXHXHXHXHXHXHXHXHX",
"HXHXHXHXHXHXHXHXHXHXHXHXHXHXHXHXHXHXHXHXHXC +XF %XMXmXMXAXSXxX=XQ @.sXiXsXVXAXxXpXyX{ C V f HXHXHXHXHXHXHXHXHXHXHXHXHXHXHXHXHXHXHX",
"HXHXHXHXHXHXHXHXHXHXHXHXHXHXHXHXHXHXHXHX- C oX$XiXGXmXpXpXiX1XX.~ @.fXVXmXnXxXxXMXaX[ Z .Xk HXHXHXHXHXHXHXHXHXHXHXHXHXHXHXHXHXHXHX",
"HXHXHXHXHXHXHXHXHXHXHXHXHXHXHXHXHXHXHXHXj C G &XVXFXGXnXpXiXrX=X .X.wXcXVXxXiXmXZXsX+.H Z k HXHXHXHXHXHXHXHXHXHXHXHXHXHXHXHXHXHXHX",
"HXHXHXHXHXHXHXHXHXHXHXHXHXHXHXHXHXHXHX; M F { sXZXGXDXDXZXcXpXwX] P %.1XqXuXnXGXnX<Xo.[ F N f HXHXHXHXHXHXHXHXHXHXHXHXHXHXHXHXHXHX",
"HXHXHXHXHXHXHXHXHXHXHXHXHXHXHXHXHXHXHX; M J ~.jXnXxXNXmXnXxX7X&XJ D ] n.1XxXDXZXiX-XN.[ F +XN HXHXHXHXHXHXHXHXHXHXHXHXHXHXHXHXHXHX",
"HXHXHXHXHXHXHXHXHXHXHXHXHXHXHXHXHXHXHX; x @X{ <XiX2X2XsXxXxX:XP C D P :XzXmXnXiX;X$.$.P @X+XB HXHXHXHXHXHXHXHXHXHXHXHXHXHXHXHXHXHX",
"HXHXHXHXHXHXHXHXHXHXHXHXHXHXHXHXHXHXHXf x Z c [ n.z.d z.n.2XX.m N XXD P %X,Xm.M.( ( W B C +XB HXHXHXHXHXHXHXHXHXHXHXHXHXHXHXHXHXHX",
"HXHXHXHXHXHXHXHXHXHXHXHXHXHXHXHXHXHX: l j : ; h / p.a.s.r.s 1 - : M C S L _ t.g.f.5.q : j C B HXHXHXHXHXHXHXHXHXHXHXHXHXHXHXHXHXHX",
"HXHXHXHXHXHXHXHXHXHXHXHXHXHXHXHXHXHX; f HXHXHXHXe a.D.R.R.,.# X X - : - & 0.T.R.A.2.9 HXHX: : HXHXHXHXHXHXHXHXHXHXHXHXHXHXHXHXHXHX",
"HXHXHXHXHXHXHXHXHXHXHXHXHXHXHXHXHXHX: HXHXHX  O w y.F. X].,.%     X X X 7 0. X[.B.1.9 . HXHX; HXHXHXHXHXHXHXHXHXHXHXHXHXHXHXHXHXHX",
"HXHXHXHXHXHXHXHXHXHXHXHXHXHXHXHXHXHX; HXHX  . % *.4.p.j.h.:.$         . & 6.j.h.p.1.w # . HX, HXHXHXHXHXHXHXHXHXHXHXHXHXHXHXHXHXHX",
"HXHXHXHXHXHXHXHXHXHXHXHXHXHXHXHXHXHXHXHX  . % *.i.S.V.u.2.9 .           # e y.f.V.V.8.w O . HXHXHXHXHXHXHXHXHXHXHXHXHXHXHXHXHXHXHX",
"HXHXHXHXHXHXHXHXHXHXHXHXHXHXHXHXHXHXHX    $ e 5.S.J.S.3.e #             . & *.p.H.J.Z.4.w O   HXHXHXHXHXHXHXHXHXHXHXHXHXHXHXHXHXHX",
"HXHXHXHXHXHXHXHXHXHXHXHXHXHXHXHXHXHXHX    & *.3.7.7.:.& O O               O # 9 3.7.7.>.e O   HXHXHXHXHXHXHXHXHXHXHXHXHXHXHXHXHXHX",
"HXHXHXHXHXHXHXHXHXHXHXHXHXHXHXHXHXHXHXHX  # 8 8 8 8 7 O                     . # 8 8 8 8 7 O HXHXHXHXHXHXHXHXHXHXHXHXHXHXHXHXHXHXHX",
"HXHXHXHXHXHXHXHXHXHXHXHXHXHXHXHXHXHXHXHXHX. . .   .                             .     .   HXHXHXHXHXHXHXHXHXHXHXHXHXHXHXHXHXHXHXHX"
};
