/* XPM */
static char *result[] = {
/* columns rows colors chars-per-pixel */
"65 65 239 2 ",
"   c #000000",
".  c #0C0806",
"X  c #110800",
"o  c #181915",
"O  c #261300",
"+  c #351504",
"@  c #3A240F",
"#  c #00012C",
"$  c #060925",
"%  c #15112C",
"&  c #000034",
"*  c #0C0C33",
"=  c #01013B",
"-  c #07083A",
";  c #161538",
":  c #170C30",
">  c #2A1329",
",  c #371524",
"<  c #271433",
"1  c #1B2126",
"2  c #2B2B2C",
"3  c #3C2422",
"4  c #282537",
"5  c #3A3A3C",
"6  c #353537",
"7  c #2E3033",
"8  c #481F0B",
"9  c #442200",
"0  c #4E2700",
"q  c #5C2B00",
"w  c #552500",
"e  c #662B03",
"r  c #793805",
"t  c #693415",
"y  c #703413",
"u  c #4C352D",
"i  c #703C26",
"p  c #77440B",
"a  c #49443C",
"s  c #554335",
"d  c #6F4A2E",
"f  c #000343",
"g  c #00014B",
"h  c #070447",
"j  c #171A4A",
"k  c #010054",
"l  c #01025D",
"z  c #000A5C",
"x  c #070855",
"c  c #160A58",
"v  c #03135C",
"b  c #130F4C",
"n  c #282945",
"m  c #392949",
"M  c #35344A",
"N  c #3B3B4B",
"B  c #383846",
"V  c #322F55",
"C  c #010C64",
"Z  c #030868",
"A  c #150566",
"S  c #001163",
"D  c #02126C",
"F  c #08136B",
"G  c #010B7A",
"H  c #050677",
"J  c #1A0873",
"K  c #1A087A",
"L  c #01137D",
"P  c #071575",
"I  c #171171",
"U  c #211869",
"Y  c #241375",
"T  c #1E2767",
"R  c #1E2A5F",
"E  c #4C3445",
"W  c #3B424A",
"Q  c #434343",
"!  c #4C4C4C",
"~  c #484747",
"^  c #58564C",
"/  c #494A55",
"(  c #535353",
")  c #5B5A54",
"_  c #5A5A5B",
"`  c #54555A",
"'  c #53504D",
"]  c #655240",
"[  c #795A46",
"{  c #655D58",
"}  c #67655B",
"|  c #716E5C",
" . c #79755D",
".. c #484767",
"X. c #646464",
"o. c #6C6A62",
"O. c #6E6E6B",
"+. c #676862",
"@. c #746E64",
"#. c #7D7964",
"$. c #74736B",
"%. c #7A7769",
"&. c #737373",
"*. c #7D7D7D",
"=. c #797873",
"-. c #6C7578",
";. c #863C04",
":. c #963C00",
">. c #8C3E1E",
",. c #954406",
"<. c #894316",
"1. c #984813",
"2. c #924E0C",
"3. c #A74B03",
"4. c #B44A00",
"5. c #A75405",
"6. c #B75605",
"7. c #A85218",
"8. c #A56800",
"9. c #BC6902",
"0. c #B16E10",
"q. c #895834",
"w. c #935128",
"e. c #95643D",
"r. c #BA6927",
"t. c #AF712D",
"y. c #C75A00",
"u. c #C04900",
"i. c #C86801",
"p. c #D56900",
"a. c #D76500",
"s. c #CB7800",
"d. c #D87600",
"f. c #C26F1C",
"g. c #E97500",
"h. c #FE7900",
"j. c #E9750A",
"k. c #85624B",
"l. c #91735D",
"z. c #857A6A",
"x. c #827B76",
"c. c #957C6D",
"v. c #AF6E42",
"b. c #D98C08",
"n. c #E98A00",
"m. c #F28700",
"M. c #E79701",
"N. c #F79600",
"B. c #FBA200",
"V. c #F9A800",
"C. c #FAB300",
"Z. c #EEB513",
"A. c #C88532",
"S. c #E3A53E",
"D. c #D8AD39",
"F. c #FEC800",
"G. c #86836C",
"H. c #938D6E",
"J. c #858274",
"K. c #8A8779",
"L. c #928D78",
"P. c #9B957A",
"I. c #A19B79",
"U. c #A38B7B",
"Y. c #A9A27B",
"T. c #E4AA48",
"R. c #F9D247",
"E. c #FEF07D",
"W. c #FCEE52",
"Q. c #040884",
"!. c #1A0886",
"~. c #0E198D",
"^. c #041983",
"/. c #191289",
"(. c #091896",
"). c #1A1595",
"_. c #151A94",
"`. c #1D0995",
"'. c #210A83",
"]. c #23098C",
"[. c #27109A",
"{. c #012184",
"}. c #082595",
"|. c #1C1AA4",
" X c #2319A5",
".X c #2A15AC",
"XX c #2417A8",
"oX c #3512B3",
"OX c #300DA9",
"+X c #1924AC",
"@X c #112CB1",
"#X c #0A35B0",
"$X c #0E2FAF",
"%X c #7F868C",
"&X c #848484",
"*X c #8B8B8A",
"=X c #888985",
"-X c #979789",
";X c #939393",
":X c #9C9C9C",
">X c #9C9B95",
",X c #89898A",
"<X c #A39A85",
"1X c #A89A95",
"2X c #AAA489",
"3X c #A8A69A",
"4X c #B2AE9B",
"5X c #B7B29B",
"6X c #B7AF8C",
"7X c #969CA0",
"8X c #9BA2A0",
"9X c #A4A4A4",
"0X c #ABABAB",
"qX c #ACABA5",
"wX c #B9B6A8",
"eX c #ABAFB2",
"rX c #B3B3B3",
"tX c #BABBBB",
"yX c #B8B6B6",
"uX c #ADB1B1",
"iX c #C1AA96",
"pX c #F2DA95",
"aX c #C6C4B7",
"sX c #FAE395",
"dX c #BABEC1",
"fX c #C4C3C3",
"gX c #CCCCCC",
"hX c #C6C7C7",
"jX c #D3D2CA",
"kX c #CACED1",
"lX c #D4D4D4",
"zX c #DCDCDC",
"xX c #DBDEE1",
"cX c #E4E4E4",
"vX c #EDEDED",
"bX c #E7E7E8",
"nX c #F4F4F4",
"mX c #F8F8F9",
"MX c None",
/* pixels */
"MXMXMXMXMXMXMXMXMXMXMXMXMXMXMXMXMXMXMXMXMXMXMXMXMXMXMXMXMXMXMXMXMXMXMXMX( ) ( MXMXMXMXMXMXMXMXMXMXMXMXMXMXMXMXMXMXMXMXMXMXMXMXMXMX",
"MXMXMXMXMXMXMXMXMXMXMXMXMXMXMXMXMXMXMXMXMXMXMXMXMXMXMXMXMXMXMXMXMXMXMX$.P.I.K.' 6 MXMXMXMXMXMXMXMXMXMXMXMXMXMXMXMXMXMXMXMXMXMXMXMX",
"MXMXMXMXMXMXMXMXMXMXMXMXMXMXMXMXMXMXMXMXMXMXMXMXMXMXMXMXMXMXMXMXMXMXP.qX*X} a ~ _ _ MXMXMXMXMXMXMXMXMXMXMXMXMXMXMXMXMXMXMXMXMXMXMX",
"MXMXMXMXMXMXMXMXMXMXMXMXMXMXMXMXMXMXMXMXMXMXMXMXMXMXMXMXMXMXMXMXMX$.Y.2Xo.6 MXMXMX@. .MXMXMXMXMXMXMXMXMXMXMXMXMXMXMXMXMXMXMXMXMXMX",
"MXMXMXMXMXMXMXMXMXMXMXMXMXMXMXMXMXMXMXMXMXMXMXMXMXMXMXMXMXMXMXMX} P.5XI.^ MXMXMXMXMX^ Q MXMXMXMXMXMXMXMXMXMXMXMXMXMXMXMXMXMXMXMXMX",
"MXMXMXMXMXMXMXMXMXMXMXMXMXMXMXMXMXMXMXMXMXMXMXMXMXMXMXMXMXMXMXMX@.qXjXqX} MXMXMXMXMX)  .~ MXMXMXMXMXMXMXMXMXMXMXMXMXMXMXMXMXMXMXMX",
"MXMXMXMXMXMXMXMXMXMXMXMXMXMXMXMXMXMXMXMXMXMXMXMXMXMXMXMXMXMXMXMX*.fXcXtX+.MXMXMXMXMXo.G.! MXMXMXMXMXMXMXMXMXMXMXMXMXMXMXMXMXMXMXMX",
"MXMXMXMXMXMXMXMXMXMXMXMXMXMXMXMXMXMXMXMXMXMXMXMXMXMXMXMXMXMXMX^ *.gXbXtXX.6 MXMXMXMXMX_ Q MXMXMXMXMXMXMXMXMXMXMXMXMXMXMXMXMXMXMXMX",
"MXMXMXMXMXMXMXMXMXMXMXMXMXMXMXMXMXMXMXMXMXMXMXMXMXMXMXMXMXMX#. .=.hXcXuXo._ _ MXMXMXMXMXMXMXMXMXMXMXMXMXMXMXMXMXMXMXMXMXMXMXMXMXMX",
"MXMXMXMXMXMXMXMXMXMXMXMXMXMXMXMXMXMXMXMXMXMXMXMXMXMXMXMXMXMX#.| O.rXjX2X| ( ' MXMXMXMXMXMXMXMXMXMXMXMXMXMXMXMXMXMXMXMXMXMXMXMXMXMX",
"MXMXMXMXMXMXMXMXMXMXMXMXMXMXMXMXMXMXMXMXMXMXMXMXMXMXMXMXMXG. .' @.2XwX2X| 6 5 X.MXMXMXMXMXMXMXMXMXMXMXMXMXMXMXMXMXMXMXMXMXMXMXMXMX",
"MXMXMXMXMXMXMXMXMXMXMXMXMXMXMXMXMXMXMXMXMXMXMXMXMXMXMXMXMX;X4XI.P.Y.I.L.H.P.J._ MXMXMXMXMXMXMXMXMXMXMXMXMXMXMXMXMXMXMXMXMXMXMXMXMX",
"MXMXMXMXMXMXMXMXMXMXMXMXMXMXMXMXMXMXMXMXMXMXMXMXMXMXMXMX~ ;XfX:XG.H.L.G.| *X5X .N MXMXMXMXMXMXMXMXMXMXMXMXMXMXMXMXMXMXMXMXMXMXMXMX",
"MXMXMXMXMXMXMXMXMXMXMXMXMXMXMXMXMXMXMXMXMXMXMXMXMXMXMX#.} #.wXtXrX4X2XqX0X2X-XX.( ( MXMXMXMXMXMXMXMXMXMXMXMXMXMXMXMXMXMXMXMXMXMXMX",
"MXMXMXMXMXMXMXMXMXMXMXMXMXMXMXMXMXMXMXMXMXMXMXMXMXMXMXH.J.G.P.-XwXrX>XwXwXL.%.&.J.z.5 MXMXMXMXMXMXMXMXMXMXMXMXMXMXMXMXMXMXMXMXMXMX",
"MXMXMXMXMXMXMXMXMXMXMXMXMXMXMXMXMXMXMXMXMXMXMXMXMXMXMX%.$.=.) Q J.*X&X*XK.~ ! =.$.%.5 MXMXMXMXMXMXMXMXMXMXMXMXMXMXMXMXMXMXMXMXMXMX",
"MXMXMXMXMXMXMXMXMXMXMXMXMXMXMXMXMXMXMXMXMXMXMXMXMXMXMX} ` %.a . 5 =.*.=.W . 6 O.~ ( MXMXMXMXMXMXMXMXMXMXMXMXMXMXMXMXMXMXMXMXMXMXMX",
"MXMXMXMXMXMXMXMXMXMXMXMXMXMXMXMXMXMXMXMXMXMXMXMXMXMXMXMXMXMX' 2 ` ;X>X;X_ 2 ~ MXMXMXMXMXMXMXMXMXMXMXMXMXMXMXMXMXMXMXMXMXMXMXMXMXMX",
"MXMXMXMXMXMXMXMXMXMXMXMXMXMXMXMXMXMXMXMXMXMXMXMXMXMXMXMXMXMXo.K.:X4X6X5X:X*.) MXMXMXMXMXMXMXMXMXMXMXMXMXMXMXMXMXMXMXMXMXMXMXMXMXMX",
"MXMXMXMXMXMXMXMXMXMXMXMXMXMXMXMXMXMXMXMXMXMXMXMXMXMXMXMXMXMX%.2X5X<XH.P.qX=X( MXMXMXMXMXMXMXMXMXMXMXMXMXMXMXMXMXMXMXMXMXMXMXMXMXMX",
"MXMXMXMXMXMXMXMXMXMXMXMXMXMXMXMXMXMXMXMXMXMXMXMXMXQ.Q.Z f j ` L.-X%.@.=.*.X.5 MXMXMXMXMXMXMXMXMXMXMXMXMXMXMXMXMXMXMXMXMXMXMXMXMXMX",
"MXMXMXMXMXMXMXMXMXMXMXMXMXMXMXMXMXMXMXMXMXMXMXMXD L `.~.^.v n | G.G.L.=.X.~ ; - f f MXMXMXMXMXMXMXMXMXMXMXMXMXMXMXMXMXMXMXMXMXMXMX",
"MXMXMXMXMXMXMXMXMXMXMXMXMXMXMXMXMXMXMXMXMXMXMXMXn b b ].}.C ; ' | P.3X*.! 5 ; v L D f f MXMXMXMXMXMXMXMXMXMXMXMXMXMXMXMXMXMXMXMXMX",
"MXMXMXMXMXMXMXMXMXMXMXMXMXMXMXMXMXMXMXMXMXMXMX* 6 } $.V P C ; )  .) ( ( ` ~ R _. X_.P S f MXMXMXMXMXMXMXMXMXMXMXMXMXMXMXMXMXMXMXMX",
"MXMXMXMXMXMXMXMXMXMXMXMXMXMXMXMXMXMXMXMXMXMX= & N >X6Xq.< Z V ` B ; % 7 M T _.).^.l x g = = MXMXMXMXMXMXMXMXMXMXMXMXMXMXMXMXMXMXMX",
"MXMXMXMXMXMXMXMXMXMXMXMXMXMXMXMXMXMXMXMXMXk k - a -X<Xt.8 f j c A K A h v ^.P C j N ` _ ..4 * MXMXMXMXMXMXMXMXMXMXMXMXMXMXMXMXMXMX",
"MXMXMXMXMXMXMXMXMXMXMXMXMXMXMXMXMXMXMXMXMXf g - 5 %.| u < A J A A A c A F v m , 4 ! O.K.} B * MXMXMXMXMXMXMXMXMXMXMXMXMXMXMXMXMXMX",
"MXMXMXMXMXMXMXMXMXMXMXMXMXMXMXMXMXMXMXMXk g = # 5 X.N b !.OXoXK h c K ].c $ y 6.s W O.K.+.5 ; MXMXMXMXMXMXMXMXMXMXMXMXMXMXMXMXMXMX",
"MXMXMXMXMXMXMXMXMXMXMXMXMXMXMXMXMXMXMXMXg k - ; ! $.V k K !.!.k c [.[.F & . 8 4.1.d e.l.&.W * MXMXMXMXMXMXMXMXMXMXMXMXMXMXMXMXMXMX",
"MXMXMXMXMXMXMXMXMXMXMXMXMXMXMXMXMXMXMXf f = * N =XL.m : : 4 u > c `.Y 6 9 .   w i.f.A.r.k.B ; MXMXMXMXMXMXMXMXMXMXMXMXMXMXMXMXMXMX",
"MXMXMXMXMXMXMXMXMXMXMXMXMXMXMXMXMXMXMXC C = & / 8X,Xn t q p i.y - Z B 0.9.p 9 e s.R.sXZ.0.u * MXMXMXMXMXMXMXMXMXMXMXMXMXMXMXMXMXMX",
"MXMXMXMXMXMXMXMXMXMXMXMXMXMXMXMXMXMX= C z - % a z.@.E i >.7.6.i ; V } t.M.M.i.4.i.T.pXZ.n.p : MXMXMXMXMXMXMXMXMXMXMXMXMXMXMXMXMXMX",
"MXMXMXMXMXMXMXMXMXMXMXMXMXMXMXMXMXMXz l f % t 1.7.7.1.u E [ z.=.&.L.P.z.t.i.y.6.i.n.t.i.d.<.b x MXMXMXMXMXMXMXMXMXMXMXMXMXMXMXMXMX",
"MXMXMXMXMXMXMXMXMXMXMXMXMXMXMXMXMX# D S = , 3.j.n.j.4.3 $ ' ;XeXfXjXaX-Xk.w.6.A.Z.N.u.:.4.i c l MXMXMXMXMXMXMXMXMXMXMXMXMXMXMXMXMX",
"MXMXMXMXMXMXMXMXMXMXMXMXMXMXMXMXMX& D S f , 6.B.F.N.2.O   o ' L.aXaX5XK.} w.A.sXW.F.n.y.3.t c l MXMXMXMXMXMXMXMXMXMXMXMXMXMXMXMXMX",
"MXMXMXMXMXMXMXMXMXMXMXMXMXMXMXMXMXg L C = , 6.C.F.N.2.@ o   @ 7.D.T.A.q.3 r S.sXR.C.B.g.:.m ^.H h MXMXMXMXMXMXMXMXMXMXMXMXMXMXMXMX",
"MXMXMXMXMXMXMXMXMXMXMXMXMXMXMXMX& J (.C = , 6.m.b.i.;.s 7 1 p a.n.n.a.:.+ q s.M.B.N.m.7.m ~.(.^.z # MXMXMXMXMXMXMXMXMXMXMXMXMXMXMX",
"MXMXMXMXMXMXMXMXMXMXMXMXMXMXMXMX& ]._.S = > 3.a.p.6.,.] &.-.k.i.s.a.i.5.s d 7.u.p.d.5.m )..X_.{.z MXMXMXMXMXMXMXMXMXMXMXMXMXMXMXMX",
"MXMXMXMXMXMXMXMXMXMXMXMXMXMXMXMX& '.|.F = > ,.n.C.n.,.d uXdXc.A.s.i.p.v.1X7Xk.w.>.t m ~..XXX}.{.D f MXMXMXMXMXMXMXMXMXMXMXMXMXMXMX",
"MXMXMXMXMXMXMXMXMXMXMXMXMXMXMXMX& '.oXJ f , 6.B.F.V.6.[ dXcXkXiXv.w.q.<XkXaX;X@.N f G ~.XX#X}.{.G k & MXMXMXMXMXMXMXMXMXMXMXMXMXMX",
"MXMXMXMXMXMXMXMXMXMXMXMXMXMXMXMX& '.oXJ = > 1.g.N.g.7.U.xXmXlXfXyX&Xz.:XgXzXtX&XM g G ~. X@X+X_.^.z # MXMXMXMXMXMXMXMXMXMXMXMXMXMX",
"MXMXMXMXMXMXMXMXMXMXMXMXMXMXMXMX& '.oXJ = - , >.7.<.[ yXmXnXhXyXfXeX,X;XgXzXhX*XM g G ~. X@X X_.^.C & MXMXMXMXMXMXMXMXMXMXMXMXMXMX",
"MXMXMXMXMXMXMXMXMXMXMXMXMXMXMXMX& !.oXJ = & h U U U ..0XvXnXlXhXlXfX;X,XtXlXrX&XM g G ~.XX@X+X_.{.L k & MXMXMXMXMXMXMXMXMXMXMXMXMX",
"MXMXMXMXMXMXMXMXMXMXMXMXMXMXMXMX& '.oXJ - # g H (.Q...qXbXbXcXvXcXdX:X,XtXkX0X*.N g G ~.XX$X$X|.~.^.Z & MXMXMXMXMXMXMXMXMXMXMXMXMX",
"MXMXMXMXMXMXMXMXMXMXMXMXMXMXMXMX& '.oXJ = MXMXz L G ..aXzXzXvXmXlXeX;X,XyXlX7X&.M g G ~. X$X#X+X`.L l = MXMXMXMXMXMXMXMXMXMXMXMXMX",
"MXMXMXMXMXMXMXMXMXMXMXMXMXMXMXMX& P .XJ MXMXMXMXz Z ..gXgXfXbXlXrX:X;X,XrXhX,XE j g G ~. X$X#X+X).^.l & MXMXMXMXMXMXMXMXMXMXMXMXMX",
"MXMXMXMXMXMXMXMXMXMXMXMXMXMXMXMX= S ).!.k MXMXMXMXx ..lXzXyXtXqX;X:X>X,X0XtX*.n # g G ~. X#X#X|.).D g MXMXMXMXMXMXMXMXMXMXMXMXMXMX",
"MXMXMXMXMXMXMXMXMXMXMXMXMXMXMXMX& D [.|.Z = MXMXMXMXE gXvXlXtXqX:X0X:X&X:X9X&.m & f C ~. X@X@X.X_.v # MXMXMXMXMXMXMXMXMXMXMXMXMXMX",
"MXMXMXMXMXMXMXMXMXMXMXMXMXMXMXMXMXk !. XP f MXMXMXMXMX3XzXnXvXzXgXyX:X&X*.*.MXMX= & f ^.|.+X.X.X^.x MXMXMXMXMXMXMXMXMXMXMXMXMXMXMX",
"MXMXMXMXMXMXMXMXMXMXMXMXMXMXMXMXMX# J oXK h MXMXMXMXMX=.9XlXlXgXdX0X:X*.{ ] MXMXMX& f C P '.].P x MXMXMXMXMXMXMXMXMXMXMXMXMXMXMXMX",
"MXMXMXMXMXMXMXMXMXMXMXMXMXMXMXMXMX# C |.K h MXMXMXMXMX;XuXuX9X9X0XrX7Xx.7.,.MXMXMXMX= & = & = & MXMXMXMXMXMXMXMXMXMXMXMXMXMXMXMXMX",
"MXMXMXMXMXMXMXMXMXMXMXMXMXMXMXMXMX& k `.K h MXMXMXMX&.9XlXxXkXfXtX9X,Xz.r.4.MXMXMXMXMXMXMXMXMXMXMXMXMXMXMXMXMXMXMXMXMXMXMXMXMXMXMX",
"MXMXMXMXMXMXMXMXMXMXMXMXMXMXMXMXMXMX& D D f MXMXMXMX&.&X:XrXtXtXtXtXeXK.d ;.MXMXMXMXMXMXMXMXMXMXMXMXMXMXMXMXMXMXMXMXMXMXMXMXMXMXMX",
"MXMXMXMXMXMXMXMXMXMXMXMXMXMXMXMXMXMX# z z f MXMXMXMX&.9XdX&X_ { X.x.eX*Xw.,.;.MXMXMXMXMXMXMXMXMXMXMXMXMXMXMXMXMXMXMXMXMXMXMXMXMXMX",
"MXMXMXMXMXMXMXMXMXMXMXMXMXMXMXMXMXMXMXg f = MXMXMXMXMX&X0Xl.;.<.;.q.>X&X<.;.r MXMXMXMXMXMXMXMXMXMXMXMXMXMXMXMXMXMXMXMXMXMXMXMXMXMX",
"MXMXMXMXMXMXMXMXMXMXMXMXMXMXMXMXMXMXMXMX& & MXMXMXMXMXMXk.f.j.i.:.<.s MXMXMXMXMXMXMXMXMXMXMXMXMXMXMXMXMXMXMXMXMXMXMXMXMXMXMXMXMXMX",
"MXMXMXMXMXMXMXMXMXMXMXMXMXMXMXMXMXMXMXMXMXMXMXMXMXMXMX2 y p.b.9.6.r @ .       MXMXMXMXMXMXMXMXMXMXMXMXMXMXMXMXMXMXMXMXMXMXMXMXMXMX",
"MXMXMXMXMXMXMXMXMXMXMXMXMXMXMXMXMXMXMXMXMXMXMXMX      o t 8.8.s.m.y.q X             MXMXMXMXMXMXMXMXMXMXMXMXMXMXMXMXMXMXMXMXMXMXMX",
"MXMXMXMXMXMXMXMXMXMXMXMXMXMXMXMXMXMXMXMXMXMX            9 e 8.V.N.a.e .               MXMXMXMXMXMXMXMXMXMXMXMXMXMXMXMXMXMXMXMXMXMX",
"MXMXMXMXMXMXMXMXMXMXMXMXMXMXMXMXMXMXMXMXMX              O 0 8.m.h.a.e X                   MXMXMXMXMXMXMXMXMXMXMXMXMXMXMXMXMXMXMXMX",
"MXMXMXMXMXMXMXMXMXMXMXMXMXMXMXMXMXMXMXMX                O 9 2.n.h.y.q X                     MXMXMXMXMXMXMXMXMXMXMXMXMXMXMXMXMXMXMX",
"MXMXMXMXMXMXMXMXMXMXMXMXMXMXMXMXMXMXMX                    O q 5.y.,.9 X                       MXMXMXMXMXMXMXMXMXMXMXMXMXMXMXMXMXMX",
"MXMXMXMXMXMXMXMXMXMXMXMXMXMXMXMXMXMXMX                      O w q 9 X                         MXMXMXMXMXMXMXMXMXMXMXMXMXMXMXMXMXMX",
"MXMXMXMXMXMXMXMXMXMXMXMXMXMXMXMXMXMXMXMX                                                    MXMXMXMXMXMXMXMXMXMXMXMXMXMXMXMXMXMXMX",
"MXMXMXMXMXMXMXMXMXMXMXMXMXMXMXMXMXMXMXMXMX                                                MXMXMXMXMXMXMXMXMXMXMXMXMXMXMXMXMXMXMXMX"
};
