/* XPM */
static char *result[] = {
/* columns rows colors chars-per-pixel */
"65 65 240 2 ",
"   c #000000",
".  c #0D0802",
"X  c #0A0708",
"o  c #110800",
"O  c #121518",
"+  c #261300",
"@  c #2E1809",
"#  c #39230F",
"$  c #00012C",
"%  c #060925",
"&  c #000034",
"*  c #0C0D34",
"=  c #01013B",
"-  c #080839",
";  c #15153B",
":  c #181736",
">  c #180E2D",
",  c #281225",
"<  c #371623",
"1  c #2C1436",
"2  c #1C2226",
"3  c #2B2C2D",
"4  c #3B2422",
"5  c #282536",
"6  c #3A3A3C",
"7  c #353538",
"8  c #2D3032",
"9  c #411F00",
"0  c #4C1D16",
"q  c #472400",
"w  c #592800",
"e  c #652B03",
"r  c #793805",
"t  c #773A16",
"y  c #673015",
"u  c #4C342C",
"i  c #703C26",
"p  c #74420E",
"a  c #5B412D",
"s  c #4E433A",
"d  c #6E4D33",
"f  c #000343",
"g  c #00014B",
"h  c #060548",
"j  c #161A4B",
"k  c #010153",
"l  c #01025C",
"z  c #000B5E",
"x  c #080756",
"c  c #15095A",
"v  c #03135B",
"b  c #150A4C",
"n  c #282A46",
"m  c #38294A",
"M  c #34344A",
"N  c #3A3948",
"B  c #322F55",
"V  c #010C64",
"C  c #030868",
"Z  c #150567",
"A  c #001162",
"S  c #04126C",
"D  c #010B7A",
"F  c #070377",
"G  c #190872",
"H  c #190879",
"J  c #01137D",
"K  c #071476",
"L  c #171171",
"P  c #211869",
"I  c #241374",
"U  c #1E2962",
"Y  c #4C3445",
"T  c #39444D",
"R  c #444343",
"E  c #4C4C4B",
"W  c #474646",
"Q  c #574F48",
"!  c #57554B",
"~  c #4A4B53",
"^  c #535353",
"/  c #5A5A5B",
"(  c #585857",
")  c #524F5C",
"_  c #655241",
"`  c #785A47",
"'  c #655E56",
"]  c #6E6B5B",
"[  c #65625B",
"{  c #726E5C",
"}  c #78745D",
"|  c #494967",
" . c #635E60",
".. c #646463",
"X. c #6C6B62",
"o. c #6C6B69",
"O. c #736E67",
"+. c #74736B",
"@. c #7A7767",
"#. c #747474",
"$. c #7D7D7D",
"%. c #797772",
"&. c #6D7376",
"*. c #863D05",
"=. c #953C00",
"-. c #8E3F1E",
";. c #9A4804",
":. c #894215",
">. c #974813",
",. c #8E5006",
"<. c #A64B05",
"1. c #B34B00",
"2. c #AA5604",
"3. c #B85605",
"4. c #A85118",
"5. c #A76A00",
"6. c #BC6902",
"7. c #B16E10",
"8. c #854A21",
"9. c #91542C",
"0. c #BA6926",
"q. c #B0712D",
"w. c #96653D",
"e. c #C65A00",
"r. c #C14A00",
"t. c #C86801",
"y. c #D26300",
"u. c #D76B00",
"i. c #CB7800",
"p. c #D87600",
"a. c #C36F1C",
"s. c #E76E00",
"d. c #E97700",
"f. c #FE7800",
"g. c #E97D15",
"h. c #86624B",
"j. c #91735C",
"k. c #857A6A",
"l. c #807977",
"z. c #957C6C",
"x. c #AF6E42",
"c. c #D88B08",
"v. c #EC8C00",
"b. c #E88600",
"n. c #F28800",
"m. c #E79701",
"M. c #F79500",
"N. c #FBA200",
"B. c #F8A400",
"V. c #FAB300",
"C. c #EFB412",
"Z. c #C88531",
"A. c #D8AE3A",
"S. c #FEC800",
"D. c #86826C",
"F. c #948E6E",
"G. c #858274",
"H. c #8A877A",
"J. c #928E78",
"K. c #9E997B",
"L. c #9A9479",
"P. c #A2967B",
"I. c #AAA27B",
"U. c #EEB245",
"Y. c #DAA34A",
"T. c #F9D249",
"R. c #FEF07D",
"E. c #FCEE50",
"W. c #040884",
"Q. c #160788",
"!. c #0F198D",
"~. c #041983",
"^. c #091896",
"/. c #191595",
"(. c #151995",
"). c #1B0E90",
"_. c #210B84",
"`. c #230A8B",
"'. c #200481",
"]. c #27109B",
"[. c #012184",
"{. c #082595",
"}. c #1D1AA5",
"|. c #2319A6",
" X c #221BA9",
".X c #2914A9",
"XX c #3412B3",
"oX c #2F0DA9",
"OX c #1924AB",
"+X c #112CB1",
"@X c #0D31B0",
"#X c #0739B1",
"$X c #0E2FAF",
"%X c #7F8589",
"&X c #848484",
"*X c #8B8B8A",
"=X c #888887",
"-X c #918C87",
";X c #969589",
":X c #949494",
">X c #9D9D9C",
",X c #999994",
"<X c #A39A85",
"1X c #A89B97",
"2X c #9FA099",
"3X c #A9A489",
"4X c #ACA999",
"5X c #B3AF9B",
"6X c #B7B193",
"7X c #959BA0",
"8X c #9CA3A1",
"9X c #A3A3A3",
"0X c #ACACAC",
"qX c #A9A9A5",
"wX c #B0AFA6",
"eX c #B8B6A8",
"rX c #AAAFB2",
"tX c #ACB1B5",
"yX c #B3B4B4",
"uX c #BABBBB",
"iX c #B8B7B7",
"pX c #ADB0AC",
"aX c #C1A994",
"sX c #F2D992",
"dX c #C7C5B8",
"fX c #FAE395",
"gX c #BABEC1",
"hX c #C4C3C3",
"jX c #CCCCCC",
"kX c #C7C8C8",
"lX c #D3D2CA",
"zX c #D3D3D3",
"xX c #DBDBDB",
"cX c #CACED1",
"vX c #DCDFE2",
"bX c #E4E4E4",
"nX c #ECECEC",
"mX c #F4F4F4",
"MX c #F8F9F9",
"NX c None",
/* pixels */
"NXNXNXNXNXNXNXNXNXNXNXNXNXNXNXNXNXNXNXNXNXNXNXNXNXNXNX^ ( ! NXNXNXNXNXNXNXNXNXNXNXNXNXNXNXNXNXNXNXNXNXNXNXNXNXNXNXNXNXNXNXNXNXNXNX",
"NXNXNXNXNXNXNXNXNXNXNXNXNXNXNXNXNXNXNXNXNXNXNXNXNX7 E H.P.L.+.NXNXNXNXNXNXNXNXNXNXNXNXNXNXNXNXNXNXNXNXNXNXNXNXNXNXNXNXNXNXNXNXNXNX",
"NXNXNXNXNXNXNXNXNXNXNXNXNXNXNXNXNXNXNXNXNXNXNXNX( / E s ' -XwXL.NXNXNXNXNXNXNXNXNXNXNXNXNXNXNXNXNXNXNXNXNXNXNXNXNXNXNXNXNXNXNXNXNX",
"NXNXNXNXNXNXNXNXNXNXNXNXNXNXNXNXNXNXNXNXNXNXNX} O.NXNXNX7 ..3XI.+.NXNXNXNXNXNXNXNXNXNXNXNXNXNXNXNXNXNXNXNXNXNXNXNXNXNXNXNXNXNXNXNX",
"NXNXNXNXNXNXNXNXNXNXNXNXNXNXNXNXNXNXNXNXNXNXR ! NXNXNXNXNX! K.6XK.[ NXNXNXNXNXNXNXNXNXNXNXNXNXNXNXNXNXNXNXNXNXNXNXNXNXNXNXNXNXNXNX",
"NXNXNXNXNXNXNXNXNXNXNXNXNXNXNXNXNXNXNXNXNXW } ( NXNXNXNXNX[ wXlXwX+.NXNXNXNXNXNXNXNXNXNXNXNXNXNXNXNXNXNXNXNXNXNXNXNXNXNXNXNXNXNXNX",
"NXNXNXNXNXNXNXNXNXNXNXNXNXNXNXNXNXNXNXNXNXE D.X.NXNXNXNXNX..uXbXhX$.NXNXNXNXNXNXNXNXNXNXNXNXNXNXNXNXNXNXNXNXNXNXNXNXNXNXNXNXNXNXNX",
"NXNXNXNXNXNXNXNXNXNXNXNXNXNXNXNXNXNXNXNXNXs / NXNXNXNXNX7 ..uXbXjX$.! NXNXNXNXNXNXNXNXNXNXNXNXNXNXNXNXNXNXNXNXNXNXNXNXNXNXNXNXNXNX",
"NXNXNXNXNXNXNXNXNXNXNXNXNXNXNXNXNXNXNXNXNXNXNXNXNXNXNX( / o.pXbXkX$.} @.NXNXNXNXNXNXNXNXNXNXNXNXNXNXNXNXNXNXNXNXNXNXNXNXNXNXNXNXNX",
"NXNXNXNXNXNXNXNXNXNXNXNXNXNXNXNXNXNXNXNXNXNXNXNXNXNXNX^ ( { 3XlXyX+.{ @.NXNXNXNXNXNXNXNXNXNXNXNXNXNXNXNXNXNXNXNXNXNXNXNXNXNXNXNXNX",
"NXNXNXNXNXNXNXNXNXNXNXNXNXNXNXNXNXNXNXNXNXNXNXNXNXNX/ 6 7 ] 3XeX3X} ! } D.NXNXNXNXNXNXNXNXNXNXNXNXNXNXNXNXNXNXNXNXNXNXNXNXNXNXNXNX",
"NXNXNXNXNXNXNXNXNXNXNXNXNXNXNXNXNXNXNXNXNXNXNXNXNXNX/ G.L.F.H.K.I.L.K.4X:XNXNXNXNXNXNXNXNXNXNXNXNXNXNXNXNXNXNXNXNXNXNXNXNXNXNXNXNX",
"NXNXNXNXNXNXNXNXNXNXNXNXNXNXNXNXNXNXNXNXNXNXNXNXNX6 @.5X-X] D.J.F.D.4XhX:XW NXNXNXNXNXNXNXNXNXNXNXNXNXNXNXNXNXNXNXNXNXNXNXNXNXNXNX",
"NXNXNXNXNXNXNXNXNXNXNXNXNXNXNXNXNXNXNXNXNXNXNXNX( ^ X.K.4XwX5X3X4XyXuXeX@.( k.NXNXNXNXNXNXNXNXNXNXNXNXNXNXNXNXNXNXNXNXNXNXNXNXNXNX",
"NXNXNXNXNXNXNXNXNXNXNXNXNXNXNXNXNXNXNXNXNXNXNX6 D.G.&.%.J.eXeX,XeXeX;XL.F.G.F.NXNXNXNXNXNXNXNXNXNXNXNXNXNXNXNXNXNXNXNXNXNXNXNXNXNX",
"NXNXNXNXNXNXNXNXNXNXNXNXNXNXNXNXNXNXNXNXNXNXNX6 O.+.#.E W G.*X%X*XG.W ( %.+.@.NXNXNXNXNXNXNXNXNXNXNXNXNXNXNXNXNXNXNXNXNXNXNXNXNXNX",
"NXNXNXNXNXNXNXNXNXNXNXNXNXNXNXNXNXNXNXNXNXNXNXNX^ W o.6 X R %.$.#.R X s %.^ ..NXNXNXNXNXNXNXNXNXNXNXNXNXNXNXNXNXNXNXNXNXNXNXNXNXNX",
"NXNXNXNXNXNXNXNXNXNXNXNXNXNXNXNXNXNXNXNXNXNXNXNXNXNXNXW 3 ( :X<X:X^ 3 ! NXNXNXNXNXNXNXNXNXNXNXNXNXNXNXNXNXNXNXNXNXNXNXNXNXNXNXNXNX",
"NXNXNXNXNXNXNXNXNXNXNXNXNXNXNXNXNXNXNXNXNXNXNXNXNXNXNX( $.2X5X6X4X2XH.o.NXNXNXNXNXNXNXNXNXNXNXNXNXNXNXNXNXNXNXNXNXNXNXNXNXNXNXNXNX",
"NXNXNXNXNXNXNXNXNXNXNXNXNXNXNXNXNXNXNXNXNXNXNXNXNXNXNX^ =X9X;XF.K.wX3X@.NXNXNXNXNXNXNXNXNXNXNXNXNXNXNXNXNXNXNXNXNXNXNXNXNXNXNXNXNX",
"NXNXNXNXNXNXNXNXNXNXNXNXNXNXNXNXNXNXNXNXNXNXNXNXNXNXNX6 ..$.%.X.@.;XJ./ j h V Q.W.NXNXNXNXNXNXNXNXNXNXNXNXNXNXNXNXNXNXNXNXNXNXNXNX",
"NXNXNXNXNXNXNXNXNXNXNXNXNXNXNXNXNXNXNXNXNXNXNXNXf h - : W ..%.H.G.D.] n v [.!.).J S NXNXNXNXNXNXNXNXNXNXNXNXNXNXNXNXNXNXNXNXNXNXNX",
"NXNXNXNXNXNXNXNXNXNXNXNXNXNXNXNXNXNXNXNXNXNXf f S J A ; 6 E $.4XK.{ E 5 z (.).b j n NXNXNXNXNXNXNXNXNXNXNXNXNXNXNXNXNXNXNXNXNXNXNX",
"NXNXNXNXNXNXNXNXNXNXNXNXNXNXNXNXNXNXNXNXNXf A K /. X!.j E ( ^ ^ ' } ! ; V K B O./ 7 * NXNXNXNXNXNXNXNXNXNXNXNXNXNXNXNXNXNXNXNXNXNX",
"NXNXNXNXNXNXNXNXNXNXNXNXNXNXNXNXNXNXNXNX& = g x x ~.}./.U M 5 > * M ) U C 1 9.6X4XN $ = NXNXNXNXNXNXNXNXNXNXNXNXNXNXNXNXNXNXNXNXNX",
"NXNXNXNXNXNXNXNXNXNXNXNXNXNXNXNXNXNXNX* n ~  .) M j x K ~.v j Z Q.Z j j h 0 0.K.;XR - k k NXNXNXNXNXNXNXNXNXNXNXNXNXNXNXNXNXNXNXNX",
"NXNXNXNXNXNXNXNXNXNXNXNXNXNXNXNXNXNXNX* N [ G.o.^ n < 5 x L Z c c Z Z G Z 1 u ] @.R - g f NXNXNXNXNXNXNXNXNXNXNXNXNXNXNXNXNXNXNXNX",
"NXNXNXNXNXNXNXNXNXNXNXNXNXNXNXNXNXNXNX; 6 ..H.&.T u 3.t % x ).H c h H XXoXQ.b M ..N & = g k NXNXNXNXNXNXNXNXNXNXNXNXNXNXNXNXNXNXNX",
"NXNXNXNXNXNXNXNXNXNXNXNXNXNXNXNXNXNXNX* T #.z.x.a >.3.w   & Z ].].c k W.Q.H k n +.E : = k g NXNXNXNXNXNXNXNXNXNXNXNXNXNXNXNXNXNXNX",
"NXNXNXNXNXNXNXNXNXNXNXNXNXNXNXNXNXNXNX* N h.0.a.a.e.w   . # 6 P `.c , u 1 > > n -X=XR * = h h NXNXNXNXNXNXNXNXNXNXNXNXNXNXNXNXNXNX",
"NXNXNXNXNXNXNXNXNXNXNXNXNXNXNXNXNXNXNX* u 7.C.sXT.i.r # r 7.7.6 C h y t.,.e y n =X8X~ % = V V NXNXNXNXNXNXNXNXNXNXNXNXNXNXNXNXNXNX",
"NXNXNXNXNXNXNXNXNXNXNXNXNXNXNXNXNXNXNX> p m.C.sXT.t.1.e.c.m.q.] B 1 t 0.>.:.8.Y O.%.s > - l V = NXNXNXNXNXNXNXNXNXNXNXNXNXNXNXNXNX",
"NXNXNXNXNXNXNXNXNXNXNXNXNXNXNXNXNXNXx b :.p.t.0.g.u.r.e.6.q.z.;XH.#.D.k.` Y Y >.4.4.>.y > h l z NXNXNXNXNXNXNXNXNXNXNXNXNXNXNXNXNX",
"NXNXNXNXNXNXNXNXNXNXNXNXNXNXNXNXNXNXl c t 1.;.r.M.C.Z.1.:.j.;XeXlXkXtX2X! % 4 2.s.v.d.<.< = A S $ NXNXNXNXNXNXNXNXNXNXNXNXNXNXNXNX",
"NXNXNXNXNXNXNXNXNXNXNXNXNXNXNXNXNXNXV c y <.e.v.S.E.fXY.9.[ &X5XdXdXJ.s O   + ;.M.S.N.3.< f A S & NXNXNXNXNXNXNXNXNXNXNXNXNXNXNXNX",
"NXNXNXNXNXNXNXNXNXNXNXNXNXNXNXNXNXh C ~.m *.s.N.V.T.R.Y.r 4 9.Z.U.A.9.# . X # ,.m.S.V.3.< = V J k NXNXNXNXNXNXNXNXNXNXNXNXNXNXNXNX",
"NXNXNXNXNXNXNXNXNXNXNXNXNXNXNXNX$ l ~.^.^.m 4.b.N.N.m.p.e @ =.y.v.b.y.p 2 8 s ,.e.c.n.3.< = A ^.G & NXNXNXNXNXNXNXNXNXNXNXNXNXNXNX",
"NXNXNXNXNXNXNXNXNXNXNXNXNXNXNXNXNXv [.^..X/.m <.p.p.1.4.d a ;.y.u.t.6.w.&.#._ *.3.u.s.<., f A (.`.& NXNXNXNXNXNXNXNXNXNXNXNXNXNXNX",
"NXNXNXNXNXNXNXNXNXNXNXNXNXNXNXNXf S [.{.|..X~.m y -.9.h.7X1Xx.y.t.i.Z.z.uXtXd ;.n.V.v.;., = Z }._.& NXNXNXNXNXNXNXNXNXNXNXNXNXNXNX",
"NXNXNXNXNXNXNXNXNXNXNXNXNXNXNX& k J ~.{.$X.X!.D g N O.;XdXjX1Xw.9.x.6XcXbXgX` 3.B.S.N.3.< f G XX_.& NXNXNXNXNXNXNXNXNXNXNXNXNXNXNX",
"NXNXNXNXNXNXNXNXNXNXNXNXNXNXNX$ l J (.OX+X|.!.D g M &XuXxXzX8X#.l.yXhXzXmXvXP.3.d.M.d.=., = G XX_.& NXNXNXNXNXNXNXNXNXNXNXNXNXNXNX",
"NXNXNXNXNXNXNXNXNXNXNXNXNXNXNX= A J /. X+X|.!.D g M *XhXvXkX:X=XyXkXiXkXmXMXuX` -.4.-.< - = G XX_.& NXNXNXNXNXNXNXNXNXNXNXNXNXNXNX",
"NXNXNXNXNXNXNXNXNXNXNXNXNXNX& k J [.(.OX+X|.!.D g M &XyXzXuX*X:XgXzXkXzXmXnXtX| P L I h & = G XX_.& NXNXNXNXNXNXNXNXNXNXNXNXNXNXNX",
"NXNXNXNXNXNXNXNXNXNXNXNXNXNX= l ~.!.}.@X$X|.!.D k M l.qXzXiX=X,XhXbXnXbXnXbX0X| D ^.W.g $ = G XX_.& NXNXNXNXNXNXNXNXNXNXNXNXNXNXNX",
"NXNXNXNXNXNXNXNXNXNXNXNXNXNX= l ~./. X#X@X|.!.D g M o.7XzXuX*X:X0XzXMXmXzXxXdX| F J z NXNX= G XX_.& NXNXNXNXNXNXNXNXNXNXNXNXNXNXNX",
"NXNXNXNXNXNXNXNXNXNXNXNXNXNX& l D /.OX#X@X|.!.D h ; ~ =XkXtX*X:X>XyXzXnXhXjXjX| C z NXNXNXNXH .XK & NXNXNXNXNXNXNXNXNXNXNXNXNXNXNX",
"NXNXNXNXNXNXNXNXNXNXNXNXNXNXNXg S /. X#X$X|.^.D g & n $.uX0X=X:X>X:X9XuXuXzXzX| x NXNXNXNXh Q.|.S & NXNXNXNXNXNXNXNXNXNXNXNXNXNXNX",
"NXNXNXNXNXNXNXNXNXNXNXNXNXNXNX$ v (..X+X$X|.!.V f & n &.9X>X=X>X0X>X9XuXzXmXlXY NXNXNXNXf C /.].A = NXNXNXNXNXNXNXNXNXNXNXNXNXNXNX",
"NXNXNXNXNXNXNXNXNXNXNXNXNXNXNXNXv K .X.XOX|.J f & & NXNX$.$.&X>XiXjXxXnXmXxX9XNXNXNXNXNXf K }.`.k NXNXNXNXNXNXNXNXNXNXNXNXNXNXNXNX",
"NXNXNXNXNXNXNXNXNXNXNXNXNXNXNXNXNXx K `._.K C f & NXNXNX_ ` l.>X0XhXjXzXzX0X%.NXNXNXNXNXh H XXL $ NXNXNXNXNXNXNXNXNXNXNXNXNXNXNXNX",
"NXNXNXNXNXNXNXNXNXNXNXNXNXNXNXNXNXNX& = = = & = NXNXNXNX=.9.l.7XyX0X9X0X0XyX:XNXNXNXNXNXh H }.V & NXNXNXNXNXNXNXNXNXNXNXNXNXNXNXNX",
"NXNXNXNXNXNXNXNXNXNXNXNXNXNXNXNXNXNXNXNXNXNXNXNXNXNXNXNX1.0.k.=X9XuXhXjXxXzX9X#.NXNXNXNXh G ).k $ NXNXNXNXNXNXNXNXNXNXNXNXNXNXNXNX",
"NXNXNXNXNXNXNXNXNXNXNXNXNXNXNXNXNXNXNXNXNXNXNXNXNXNXNXNXr p l.yXuXuXuXgXyX>X&X#.NXNXNXNXf A K & NXNXNXNXNXNXNXNXNXNXNXNXNXNXNXNXNX",
"NXNXNXNXNXNXNXNXNXNXNXNXNXNXNXNXNXNXNXNXNXNXNXNXNXNXNX,.=.9.-XrX$. . .( &XuX9X#.NXNXNXNX= l V $ NXNXNXNXNXNXNXNXNXNXNXNXNXNXNXNXNX",
"NXNXNXNXNXNXNXNXNXNXNXNXNXNXNXNXNXNXNXNXNXNXNXNXNXNXNXr =.8.&X<X9.*.:.*.j.qX=XNXNXNXNXNX= f g NXNXNXNXNXNXNXNXNXNXNXNXNXNXNXNXNXNX",
"NXNXNXNXNXNXNXNXNXNXNXNXNXNXNXNXNXNXNXNXNXNXNXNXNXNXNXNXNXNXNXQ t ;.t.d.a.h.NXNXNXNXNXNX= & NXNXNXNXNXNXNXNXNXNXNXNXNXNXNXNXNXNXNX",
"NXNXNXNXNXNXNXNXNXNXNXNXNXNXNXNXNXNXNXNXNXNXNXNXNXNXNX      . # r 2.6.c.u.t 3 NXNXNXNXNXNXNXNXNXNXNXNXNXNXNXNXNXNXNXNXNXNXNXNXNXNX",
"NXNXNXNXNXNXNXNXNXNXNXNXNXNXNXNXNXNXNXNXNXNXNXNX            o w e.n.i.5.2.y O       NXNXNXNXNXNXNXNXNXNXNXNXNXNXNXNXNXNXNXNXNXNXNX",
"NXNXNXNXNXNXNXNXNXNXNXNXNXNXNXNXNXNXNXNXNXNXNX              . e y.M.N.5.e q             NXNXNXNXNXNXNXNXNXNXNXNXNXNXNXNXNXNXNXNXNX",
"NXNXNXNXNXNXNXNXNXNXNXNXNXNXNXNXNXNXNXNXNX                  . e y.f.M.5.w @               NXNXNXNXNXNXNXNXNXNXNXNXNXNXNXNXNXNXNXNX",
"NXNXNXNXNXNXNXNXNXNXNXNXNXNXNXNXNXNXNXNX                    o w e.f.b.,.# +                 NXNXNXNXNXNXNXNXNXNXNXNXNXNXNXNXNXNXNX",
"NXNXNXNXNXNXNXNXNXNXNXNXNXNXNXNXNXNXNX                      o q ;.e.2.w +                     NXNXNXNXNXNXNXNXNXNXNXNXNXNXNXNXNXNX",
"NXNXNXNXNXNXNXNXNXNXNXNXNXNXNXNXNXNXNX                        o 9 w w +                       NXNXNXNXNXNXNXNXNXNXNXNXNXNXNXNXNXNX",
"NXNXNXNXNXNXNXNXNXNXNXNXNXNXNXNXNXNXNXNX                                                    NXNXNXNXNXNXNXNXNXNXNXNXNXNXNXNXNXNXNX",
"NXNXNXNXNXNXNXNXNXNXNXNXNXNXNXNXNXNXNXNXNX                                                NXNXNXNXNXNXNXNXNXNXNXNXNXNXNXNXNXNXNXNX"
};
