/* XPM */
static char *result[] = {
/* columns rows colors chars-per-pixel */
"65 65 226 2 ",
"   c #010100",
".  c #0C0702",
"X  c #1A0C03",
"o  c #1E1207",
"O  c #030512",
"+  c #191918",
"@  c #250F00",
"#  c #271503",
"$  c #361A00",
"%  c #2A1919",
"&  c #00002D",
"*  c #010024",
"=  c #1E0F27",
"-  c #010135",
";  c #0C0D33",
":  c #02013A",
">  c #0C0C39",
",  c #140D35",
"<  c #0B113A",
"1  c #161638",
"2  c #1A102C",
"3  c #23112A",
"4  c #30162F",
"5  c #2D2B2A",
"6  c #2B2B34",
"7  c #3B3B3C",
"8  c #363637",
"9  c #292618",
"0  c #422100",
"q  c #542900",
"w  c #582D11",
"e  c #652C00",
"r  c #683301",
"t  c #723101",
"y  c #793901",
"u  c #401A21",
"i  c #54382C",
"p  c #784B00",
"a  c #755419",
"s  c #574C39",
"d  c #41413D",
"f  c #744B2D",
"g  c #7A4E37",
"h  c #745138",
"j  c #040244",
"k  c #05024A",
"l  c #00094B",
"z  c #0B024D",
"x  c #131548",
"c  c #0E0155",
"v  c #010A50",
"b  c #0F015B",
"n  c #020E5B",
"m  c #11025C",
"M  c #222343",
"N  c #292847",
"B  c #363645",
"V  c #302F51",
"C  c #0D0162",
"Z  c #000D6B",
"A  c #0F0769",
"S  c #150165",
"D  c #16016A",
"F  c #180469",
"G  c #04116A",
"H  c #1C087A",
"J  c #001974",
"K  c #262B60",
"L  c #403440",
"P  c #413571",
"I  c #444444",
"U  c #4C4C4B",
"Y  c #494945",
"T  c #57544B",
"R  c #4C4D55",
"E  c #545454",
"W  c #5B5A5A",
"Q  c #5B5A57",
"!  c #64584A",
"~  c #605F57",
"^  c #715549",
"/  c #6D674D",
"(  c #686559",
")  c #716E5B",
"_  c #706C55",
"`  c #78745B",
"'  c #7E6545",
"]  c #5D5E62",
"[  c #605F60",
"{  c #5E6265",
"}  c #626262",
"|  c #696968",
" . c #706F68",
".. c #6F706F",
"X. c #75746C",
"o. c #7A7766",
"O. c #737373",
"+. c #7B7A73",
"@. c #76767A",
"#. c #7B7B7B",
"$. c #757876",
"%. c #6E6F71",
"&. c #8B3B03",
"*. c #863905",
"=. c #8D4208",
"-. c #9C4400",
";. c #954100",
":. c #97461A",
">. c #8E520C",
",. c #A74B05",
"<. c #B85301",
"1. c #AD5409",
"2. c #B36A0C",
"3. c #8C5C2B",
"4. c #895533",
"5. c #B45D29",
"6. c #936437",
"7. c #BC6A31",
"8. c #C45800",
"9. c #D25C00",
"0. c #C44F01",
"q. c #CB6604",
"w. c #D86B02",
"e. c #DA7902",
"r. c #C36A18",
"t. c #CC770D",
"y. c #E76A02",
"u. c #E77800",
"i. c #C77023",
"p. c #8C6B42",
"a. c #926446",
"s. c #977653",
"d. c #AC7851",
"f. c #827E68",
"g. c #837D79",
"h. c #916F61",
"j. c #7E807B",
"k. c #9B8036",
"l. c #A4923E",
"z. c #CA8600",
"x. c #DB8709",
"c. c #F88600",
"v. c #EB9900",
"b. c #F79603",
"n. c #F2910F",
"m. c #EBA903",
"M. c #F8AB03",
"N. c #F8B800",
"B. c #FFB11F",
"V. c #D7833D",
"C. c #EA8221",
"Z. c #FCBA26",
"A. c #F8A52F",
"S. c #FCCA05",
"D. c #AE834A",
"F. c #878269",
"G. c #908A69",
"H. c #9A946F",
"J. c #858373",
"K. c #898674",
"L. c #8E8973",
"P. c #84837B",
"I. c #8D8A7A",
"U. c #918C79",
"Y. c #9A957D",
"T. c #9A9476",
"R. c #A29B76",
"E. c #B28D72",
"W. c #ABA37B",
"Q. c #DFA55C",
"!. c #F7DC59",
"~. c #FBEE44",
"^. c #F9D36D",
"/. c #071A82",
"(. c #0E1489",
"). c #181494",
"_. c #280B98",
"`. c #2414A4",
"'. c #300AA5",
"]. c #7F7F81",
"[. c #7F8185",
"{. c #828383",
"}. c #8B8A83",
"|. c #8C8B8B",
" X c #878889",
".X c #969488",
"XX c #939393",
"oX c #9B9B9B",
"OX c #999B98",
"+X c #938F8C",
"@X c #A09E8E",
"#X c #A9A487",
"$X c #B3AB89",
"%X c #A4A399",
"&X c #B8B39A",
"*X c #B6B092",
"=X c #9C9EA1",
"-X c #9FA3AA",
";X c #A4A4A4",
":X c #ACACAC",
">X c #AAAAA5",
",X c #B0AFA7",
"<X c #B9B6AA",
"1X c #AEB2B5",
"2X c #B4B4B4",
"3X c #B3B5BA",
"4X c #BBBBBB",
"5X c #BBB8B5",
"6X c #C8BAB0",
"7X c #FBE68E",
"8X c #C6C2B9",
"9X c #E4CDBF",
"0X c #FBFAA2",
"qX c #C3C4C5",
"wX c #CACBCB",
"eX c #D5CDC4",
"rX c #DADADB",
"tX c #D5D5D5",
"yX c #C6CDD3",
"uX c #E6DEDB",
"iX c #ECECEC",
"pX c #E4E5E6",
"aX c gray99",
"sX c #F5F5F5",
"dX c #EEF0F1",
"fX c None",
/* pixels */
"fXfXfXfXfXfXfXfXfXfXfXfXfXfXfXfXfXfXfXfXfXfXfXfXfXfXfXfXfXfXfXfXfXfXfXfXfXE Q E fXfXfXfXfXfXfXfXfXfXfXfXfXfXfXfXfXfXfXfXfXfXfXfXfX",
"fXfXfXfXfXfXfXfXfXfXfXfXfXfXfXfXfXfXfXfXfXfXfXfXfXfXfXfXfXfXfXfXfXfXfXfXoX#XH.T.f.fXfXfXfXfXfXfXfXfXfXfXfXfXfXfXfXfXfXfXfXfXfXfXfX",
"fXfXfXfXfXfXfXfXfXfXfXfXfXfXfXfXfXfXfXfXfXfXfXfXfXfXfXfXfXfXfXfXfX.XT.G. .( / T _ T.F.fXfXfXfXfXfXfXfXfXfXfXfXfXfXfXfXfXfXfXfXfXfX",
"fXfXfXfXfXfXfXfXfXfXfXfXfXfXfXfXfXfXfXfXfXfXfXfXfXfXfXfXfXfXfXK.Y.&XY.) fXfXfXfXfX_ ` f.fXfXfXfXfXfXfXfXfXfXfXfXfXfXfXfXfXfXfXfXfX",
"fXfXfXfXfXfXfXfXfXfXfXfXfXfXfXfXfXfXfXfXfXfXfXfXfXfXfXfXfXfX>X*XW.K.W fXfXfXfXfXfXfXfX` o.fXfXfXfXfXfXfXfXfXfXfXfXfXfXfXfXfXfXfXfX",
"fXfXfXfXfXfXfXfXfXfXfXfXfXfXfXfXfXfXfXfXfXfXfXfXfXfXfXfX@.,X$XR.L.W fXfXfXfXfXfXfXfXfXY F.F.fXfXfXfXfXfXfXfXfXfXfXfXfXfXfXfXfXfXfX",
"fXfXfXfXfXfXfXfXfXfXfXfXfXfXfXfXfXfXfXfXfXfXfXfXfXfXfX@.,X$XR.I.{ 8 fXfXfXfXfXfXfXfXfXU F.F.fXfXfXfXfXfXfXfXfXfXfXfXfXfXfXfXfXfXfX",
"fXfXfXfXfXfXfXfXfXfXfXfXfXfXfXfXfXfXfXfXfXfXfXfXfXfXfX,X$XR.K.+.} 7 7 fXfXfXfXfXfXfXfXs o.` fXfXfXfXfXfXfXfXfXfXfXfXfXfXfXfXfXfXfX",
"fXfXfXfXfXfXfXfXfXfXfXfXfXfXfXfXfXfXfXfXfXfXfXfXfXfXXX<X#XK.$.W E O.} fXfXfXfXfXfXfXfX7 d fXfXfXfXfXfXfXfXfXfXfXfXfXfXfXfXfXfXfXfX",
"fXfXfXfXfXfXfXfXfXfXfXfXfXfXfXfXfXfXfXfXfXfXfXfXfXfX3X4X#Xj.| o.R._ 5 U fXfXfXfXfXfXfXfXfXfXfXfXfXfXfXfXfXfXfXfXfXfXfXfXfXfXfXfXfX",
"fXfXfXfXfXfXfXfXfXfXfXfXfXfXfXfXfXfXfXfXfXfXfXfXfX{.qX4XI.$.K.) ` G.o.| U fXfXfXfXfXfXfXfXfXfXfXfXfXfXfXfXfXfXfXfXfXfXfXfXfXfXfXfX",
"fXfXfXfXfXfXfXfXfXfXfXfXfXfXfXfXfXfXfXfXfXfXfXfXfXo.6XwX;XU.U.o.U.&X$XP.{ fXfXfXfXfXfXfXfXfXfXfXfXfXfXfXfXfXfXfXfXfXfXfXfXfXfXfXfX",
"fXfXfXfXfXfXfXfXfXfXfXfXfXfXfXfXfXfXfXfXfXfXfXfXfX+.Y.8XeX&Xo.F.#X.X) } %.E fXfXfXfXfXfXfXfXfXfXfXfXfXfXfXfXfXfXfXfXfXfXfXfXfXfXfX",
"fXfXfXfXfXfXfXfXfXfXfXfXfXfXfXfXfXfXfXfXfXfXfXfX#.].( F.%XF.( G.G.( T U W E fXfXfXfXfXfXfXfXfXfXfXfXfXfXfXfXfXfXfXfXfXfXfXfXfXfXfX",
"fXfXfXfXfXfXfXfXfXfXfXfXfXfXfXfXfXfXfXfXfXfXfXfXE E E W I + ! R.K.X.o.( I 8 fXfXfXfXfXfXfXfXfXfXfXfXfXfXfXfXfXfXfXfXfXfXfXfXfXfXfX",
"fXfXfXfXfXfXfXfXfXfXfXfXfXfXfXfXfXfXfXfXfXfXfXfXfXI %.$.8 . / L.|.@.s ` T 6 fXfXfXfXfXfXfXfXfXfXfXfXfXfXfXfXfXfXfXfXfXfXfXfXfXfXfX",
"fXfXfXfXfXfXfXfXfXfXfXfXfXfXfXfXfXfXfXfXfXfXfXfXfXW J.Y. .} L.f.| X.f.) I fXfXfXfXfXfXfXfXfXfXfXfXfXfXfXfXfXfXfXfXfXfXfXfXfXfXfXfX",
"fXfXfXfXfXfXfXfXfXfXfXfXfXfXfXfXfXfXfXfXfXfXfXfXfX .T.#X,X2X}. .| W T I 7 fXfXfXfXfXfXfXfXfXfXfXfXfXfXfXfXfXfXfXfXfXfXfXfXfXfXfXfX",
"fXfXfXfXfXfXfXfXfXfXfXfXfXfXfXfXfXfXfXfXfXfXfXfXfX~ ` .X<XOXO.O.J.X.Q 7 fXfXfXfXfXfXfXfXfXfXfXfXfXfXfXfXfXfXfXfXfXfXfXfXfXfXfXfXfX",
"fXfXfXfXfXfXfXfXfXfXfXfXfXfXfXfXfXfXfXfXfXfXfXfXfXfXQ .X2X XO.%.K.%XO.I fXfXfXfXfXfXfXfXfXfXfXfXfXfXfXfXfXfXfXfXfXfXfXfXfXfXfXfXfX",
"fXfXfXfXfXfXfXfXfXfXfXfXfXfXfXfXfXfXfXfXfXfXfXfXfXfX( #X<X|.} U {.1X+.L fXfXfXfXfXfXfXfXfXfXfXfXfXfXfXfXfXfXfXfXfXfXfXfXfXfXfXfXfX",
"fXfXfXfXfXfXfXfXfXfXfXfXfXfXfXfXfXfXfXfXfXfXfXfXfXfXfXH.T.X.W U P.,X+.I fXfXfXfXfXfXfXfXfXfXfXfXfXfXfXfXfXfXfXfXfXfXfXfXfXfXfXfXfX",
"fXfXfXfXfXfXfXfXfXfXfXfXfXfXfXfXfXfXfXfXfXfXfXfXfXfXfXfXU Y E R ( L. .B fXfXfXfXfXfXfXfXfXfXfXfXfXfXfXfXfXfXfXfXfXfXfXfXfXfXfXfXfX",
"fXfXfXfXfXfXfXfXfXfXfXfXfXfXfXfXfXfXfXfXfXfXfXfXfXfXfXfX; 6 N 1 B Q Q 7 1 fXfXfXfXfXfXfXfXfXfXfXfXfXfXfXfXfXfXfXfXfXfXfXfXfXfXfXfX",
"fXfXfXfXfXfXfXfXfXfXfXfXfXfXfXfXfXfXfXfXfXfXfXfXfX: : : : > - x W o.~ ] B ; fXfXfXfXfXfXfXfXfXfXfXfXfXfXfXfXfXfXfXfXfXfXfXfXfXfXfX",
"fXfXfXfXfXfXfXfXfXfXfXfXfXfXfXfXfXfXfXfXfXfX- - & m F j - : u h }.,X%XY. .B ; fXfXfXfXfXfXfXfXfXfXfXfXfXfXfXfXfXfXfXfXfXfXfXfXfXfX",
"fXfXfXfXfXfXfXfXfXfXfXfXfXfXfXfXfXfXfXfXfXm S k & z b x V i &.6.=X3XOXR.K.U 1 - fXfXfXfXfXfXfXfXfXfXfXfXfXfXfXfXfXfXfXfXfXfXfXfXfX",
"fXfXfXfXfXfXfXfXfXfXfXfXfXfXfXfXfXfXfXfXm S S c m m : < g r.0.4.{.OXL.L.X.Y 1 - fXfXfXfXfXfXfXfXfXfXfXfXfXfXfXfXfXfXfXfXfXfXfXfXfX",
"fXfXfXfXfXfXfXfXfXfXfXfXfXfXfXfXfXfXfXk m z - F _.H x B :.y.1.i W +.f.X.E 6 < fXfXfXfXfXfXfXfXfXfXfXfXfXfXfXfXfXfXfXfXfXfXfXfXfXfX",
"fXfXfXfXfXfXfXfXfXfXfXfXfXfXfXfXfXfXfX: j fX- H '.D N p.t.w.e + E @.#.X.I 1 : fXfXfXfXfXfXfXfXfXfXfXfXfXfXfXfXfXfXfXfXfXfXfXfXfXfX",
"fXfXfXfXfXfXfXfXfXfXfXfXfXfXfXfXfXfXfXfXfXfX- H _.A 4 5.m.z.r 9 U ].XX#.I ; : fXfXfXfXfXfXfXfXfXfXfXfXfXfXfXfXfXfXfXfXfXfXfXfXfXfX",
"fXfXfXfXfXfXfXfXfXfXfXfXfXfXfXfXfXfXfXfXfXfX- F S K ! 1.v.m.z.a E @.I.L.U ; : fXfXfXfXfXfXfXfXfXfXfXfXfXfXfXfXfXfXfXfXfXfXfXfXfXfX",
"fXfXfXfXfXfXfXfXfXfXfXfXfXfXfXfXfXfXfXfXfXfX- k > E L.s.2.e.e.3.%.-X%X.XU ; - : fXfXfXfXfXfXfXfXfXfXfXfXfXfXfXfXfXfXfXfXfXfXfXfXfX",
"fXfXfXfXfXfXfXfXfXfXfXfXfXfXfXfXfXfXfXfXfXfXfXfXfX/ #X%Xd.6.a.! X.5XwX@XY ; z c fXfXfXfXfXfXfXfXfXfXfXfXfXfXfXfXfXfXfXfXfXfXfXfXfX",
"fXfXfXfXfXfXfXfXfXfXfXfXfXfXfXfXfXfXfXfXfXfXfXfXfX| &X&X}.P.#.T 3.d.E.L.Y ; C F - fXfXfXfXfXfXfXfXfXfXfXfXfXfXfXfXfXfXfXfXfXfXfXfX",
"fXfXfXfXfXfXfXfXfXfXfXfXfXfXfXfXfXfXfXfXfXfXfXfXfX$.%Xj.I E E =.q.w.t.a.I > C S - fXfXfXfXfXfXfXfXfXfXfXfXfXfXfXfXfXfXfXfXfXfXfXfX",
"fXfXfXfXfXfXfXfXfXfXfXfXfXfXfXfXfXfXfXfXfXfXfXfXfX' s.s 5 6 w 2.A.Z.b.q.i < b S - fXfXfXfXfXfXfXfXfXfXfXfXfXfXfXfXfXfXfXfXfXfXfXfX",
"fXfXfXfXfXfXfXfXfXfXfXfXfXfXfXfXfXfXfXfXfXfXfXfXfX1.,.*.# . $ z.!.7XZ.y.*.2 C A & fXfXfXfXfXfXfXfXfXfXfXfXfXfXfXfXfXfXfXfXfXfXfXfX",
"fXfXfXfXfXfXfXfXfXfXfXfXfXfXfXfXfXfXfXfXfXfXfXfXfX9.8.&.@ O o >.^.7XZ.u.&.= Z G : fXfXfXfXfXfXfXfXfXfXfXfXfXfXfXfXfXfXfXfXfXfXfXfX",
"fXfXfXfXfXfXfXfXfXfXfXfXfXfXfXfXfXfXfXfXfXfXfXfXfXw.e.=.% Y f ,.u.A.M.u.*.= Z /.m : fXfXfXfXfXfXfXfXfXfXfXfXfXfXfXfXfXfXfXfXfXfXfX",
"fXfXfXfXfXfXfXfXfXfXfXfXfXfXfXfXfXfXfXfXfXfXfXfXfX<.i.s.| a.i.x.n.b.c.y.&.= Z (.D : fXfXfXfXfXfXfXfXfXfXfXfXfXfXfXfXfXfXfXfXfXfXfX",
"fXfXfXfXfXfXfXfXfXfXfXfXfXfXfXfXfXfXfXfXfXfXfXfXfX4.h.1X2X7.V.^.~.S.c.q.y = Z (.D : fXfXfXfXfXfXfXfXfXfXfXfXfXfXfXfXfXfXfXfXfXfXfX",
"fXfXfXfXfXfXfXfXfXfXfXfXfXfXfXfXfXfXfXfXfXfXfXfXfX{ |.yXeXV.Q.0X!.S.b.1.w , G (.D : fXfXfXfXfXfXfXfXfXfXfXfXfXfXfXfXfXfXfXfXfXfXfX",
"fXfXfXfXfXfXfXfXfXfXfXfXfXfXfXfXfXfXfXfXfXfXfXfXfX}  XyXuXQ.x.N.M.M.b.:.3 j G (.D : fXfXfXfXfXfXfXfXfXfXfXfXfXfXfXfXfXfXfXfXfXfXfX",
"fXfXfXfXfXfXfXfXfXfXfXfXfXfXfXfXfXfXfXfXfXfXfXfXfX%.@.OXqX6XE.9.u.c.w.:.2 : n (.D : : fXfXfXfXfXfXfXfXfXfXfXfXfXfXfXfXfXfXfXfXfXfX",
"fXfXfXfXfXfXfXfXfXfXfXfXfXfXfXfXfXfXfXfXfXfXfXfXfX].+X].XXtX6Xd.5.5.5.^ M - : S F : - fXfXfXfXfXfXfXfXfXfXfXfXfXfXfXfXfXfXfXfXfXfX",
"fXfXfXfXfXfXfXfXfXfXfXfXfXfXfXfXfXfXfXfXfXfXfXfXfXXX;X].].qXiXrX9X6X.XO.R x - c F : - fXfXfXfXfXfXfXfXfXfXfXfXfXfXfXfXfXfXfXfXfXfX",
"fXfXfXfXfXfXfXfXfXfXfXfXfXfXfXfXfXfXfXfXfXfXfXfXfXOX;X X X;XwXsXaXdX5X{.} N - c D : - fXfXfXfXfXfXfXfXfXfXfXfXfXfXfXfXfXfXfXfXfXfX",
"fXfXfXfXfXfXfXfXfXfXfXfXfXfXfXfXfXfXfXfXfXfXfXfXfXoX:XXX;X:X:XtXaXiX4XP.W N - m F l n l fXfXfXfXfXfXfXfXfXfXfXfXfXfXfXfXfXfXfXfXfX",
"fXfXfXfXfXfXfXfXfXfXfXfXfXfXfXfXfXfXfXfXfXfXfXfXfX:X4XXX2XrX4X4XpXrX:X|.} 1 - b S v J v fXfXfXfXfXfXfXfXfXfXfXfXfXfXfXfXfXfXfXfXfX",
"fXfXfXfXfXfXfXfXfXfXfXfXfXfXfXfXfXfXfXfXfXfXfXfXfX2XqXXX;XdXiX6X2X>XoX=X@.V > b S l J v fXfXfXfXfXfXfXfXfXfXfXfXfXfXfXfXfXfXfXfXfX",
"fXfXfXfXfXfXfXfXfXfXfXfXfXfXfXfXfXfXfXfXfXfXfXfXfX:XqXXXXXrXaXdXqX;X>X3X|.( V S F l J v fXfXfXfXfXfXfXfXfXfXfXfXfXfXfXfXfXfXfXfXfX",
"fXfXfXfXfXfXfXfXfXfXfXfXfXfXfXfXfXfXfXfXfXfXfXfXfXoXqX;Xg.;XpXaXaXiXtX2X}.| K H S n J l fXfXfXfXfXfXfXfXfXfXfXfXfXfXfXfXfXfXfXfXfX",
"fXfXfXfXfXfXfXfXfXfXfXfXfXfXfXfXfXfXfXfXfXfXfXfXfX#.1X2X X#.3XiXaXsXwXXXXXoX].V m _./.l fXfXfXfXfXfXfXfXfXfXfXfXfXfXfXfXfXfXfXfXfX",
"fXfXfXfXfXfXfXfXfXfXfXfXfXfXfXfXfXfXfXfXfXfXfXfXfX| XXoX X XXX5XpXpXtX2X3X:Xj.B m `./.l fXfXfXfXfXfXfXfXfXfXfXfXfXfXfXfXfXfXfXfXfX",
"fXfXfXfXfXfXfXfXfXfXfXfXfXfXfXfXfXfXfXfXfXfXfXfXfXfXg 6.g.OX;XoX=X4XrXtX3XXX%.B b `./.l fXfXfXfXfXfXfXfXfXfXfXfXfXfXfXfXfXfXfXfXfX",
"fXfXfXfXfXfXfXfXfXfXfXfXfXfXfXfXfXfXfXfXfXfXfXfXfX# e y h P.-X{.} [.;X-X[./ i x m `./.l fXfXfXfXfXfXfXfXfXfXfXfXfXfXfXfXfXfXfXfXfX",
"fXfXfXfXfXfXfXfXfXfXfXfXfXfXfXfXfXfXfXfXfXfX    . $ y ,.=.f ' 4.6.6.D.k.3.w o * m _.G l fXfXfXfXfXfXfXfXfXfXfXfXfXfXfXfXfXfXfXfXfX",
"fXfXfXfXfXfXfXfXfXfXfXfXfXfXfXfXfXfXfXfXfX    . $ e ,.<.-.r &.0.n.N.S.M.y.t . O c F : fXfXfXfXfXfXfXfXfXfXfXfXfXfXfXfXfXfXfXfXfXfX",
"fXfXfXfXfXfXfXfXfXfXfXfXfXfXfXfXfXfXfXfX      # 0 0 0 0 0 q &.8.e.M.N.m.q.r X O & *   fXfXfXfXfXfXfXfXfXfXfXfXfXfXfXfXfXfXfXfXfXfX",
"fXfXfXfXfXfXfXfXfXfXfXfXfXfXfXfXfXfXfX                . X t ,.<.w.w.q.<.;.e o           fXfXfXfXfXfXfXfXfXfXfXfXfXfXfXfXfXfXfXfXfX",
"fXfXfXfXfXfXfXfXfXfXfXfXfXfXfXfXfXfXfX                X t -.<.u.m.N.v.8.r o           fXfXfXfXfXfXfXfXfXfXfXfXfXfXfXfXfXfXfXfXfXfX",
"fXfXfXfXfXfXfXfXfXfXfXfXfXfXfXfXfXfXfXfX            @ t -.;.y p p p p t q X         fXfXfXfXfXfXfXfXfXfXfXfXfXfXfXfXfXfXfXfXfXfXfX",
"fXfXfXfXfXfXfXfXfXfXfXfXfXfXfXfXfXfXfXfXfXfX          . .     .   . .             fXfXfXfXfXfXfXfXfXfXfXfXfXfXfXfXfXfXfXfXfXfXfXfX",
"fXfXfXfXfXfXfXfXfXfXfXfXfXfXfXfXfXfXfXfXfXfXfX                                fXfXfXfXfXfXfXfXfXfXfXfXfXfXfXfXfXfXfXfXfXfXfXfXfXfX"
};
