/* XPM */
static char *result[] = {
/* columns rows colors chars-per-pixel */
"65 65 228 2 ",
"   c #010000",
".  c #06030E",
"X  c #170A02",
"o  c #010310",
"O  c #1A1B1C",
"+  c #111411",
"@  c #240F00",
"#  c #261301",
"$  c #331A00",
"%  c #38210E",
"&  c #00002F",
"*  c #000025",
"=  c #000036",
"-  c #02003B",
";  c #0A0837",
":  c #141436",
">  c #150E34",
",  c #2A172B",
"<  c #292936",
"1  c #333333",
"2  c #36363A",
"3  c #3B3B3C",
"4  c #383835",
"5  c #262625",
"6  c #4F2900",
"7  c #4C2508",
"8  c #522903",
"9  c #55241A",
"0  c #6A2D00",
"q  c #733402",
"w  c #773509",
"e  c #7E3817",
"r  c #6A2C10",
"t  c #49352D",
"y  c #64362C",
"u  c #784A0F",
"i  c #44423C",
"p  c #6D482E",
"a  c #050042",
"s  c #0B024C",
"d  c #090345",
"f  c #11074B",
"g  c #0D0154",
"h  c #0F0159",
"j  c #000A5E",
"k  c #11025D",
"l  c #130555",
"z  c #1D1E59",
"x  c #201E49",
"c  c #302849",
"v  c #363745",
"b  c #2F2D4E",
"n  c #140265",
"m  c #16016B",
"M  c #17036B",
"N  c #1B0173",
"B  c #1E017B",
"V  c #1D0A7C",
"C  c #150875",
"Z  c #22007F",
"A  c #280E79",
"S  c #28187E",
"D  c #0F277F",
"F  c #12257B",
"G  c #1B216B",
"H  c #434343",
"J  c #4B4B4C",
"K  c #484846",
"L  c #524E48",
"P  c #55534C",
"I  c #5A544C",
"U  c #5A5646",
"Y  c #484A52",
"T  c #545454",
"R  c #5C5B54",
"E  c #5B5C5C",
"W  c #565756",
"Q  c #4F5052",
"!  c #64584A",
"~  c #625B50",
"^  c #644D44",
"/  c #6E694E",
"(  c #78604A",
")  c #63625C",
"_  c #6D6A5C",
"`  c #676555",
"'  c #76725A",
"]  c #726E5F",
"[  c #4E5568",
"{  c #535868",
"}  c #55556B",
"|  c #5B646C",
" . c #636464",
".. c #6C6C6C",
"X. c #696866",
"o. c #756D64",
"O. c #73736D",
"+. c #7A766D",
"@. c #7A7765",
"#. c #6F6F71",
"$. c #757473",
"%. c #7D7B73",
"&. c #7C7C7C",
"*. c #767777",
"=. c #6D757C",
"-. c #893B04",
";. c #923E00",
":. c #964709",
">. c #894417",
",. c #964C1C",
"<. c #914C0D",
"1. c #A44400",
"2. c #AC4809",
"3. c #B94C04",
"4. c #BA5300",
"5. c #B15914",
"6. c #AA5D0E",
"7. c #BC6505",
"8. c #B56B1B",
"9. c #995E35",
"0. c #965327",
"q. c #A35B2F",
"w. c #C64D01",
"e. c #C55B05",
"r. c #D55A01",
"t. c #C26000",
"y. c #D66303",
"u. c #DB7703",
"i. c #CC7011",
"p. c #EA7800",
"a. c #EC6F00",
"s. c #81684D",
"d. c #986E53",
"f. c #8A7153",
"g. c #847F69",
"h. c #827764",
"j. c #817E74",
"k. c #AB7252",
"l. c #7D817F",
"z. c #BF8304",
"x. c #D49400",
"c. c #D28A0F",
"v. c #E98700",
"b. c #F38901",
"n. c #EA9901",
"m. c #F79500",
"M. c #ED9017",
"N. c #D3AE0F",
"B. c #FCBD03",
"V. c #FDAD09",
"C. c #CDA020",
"Z. c #EBA83B",
"A. c #FDD50A",
"S. c #FACA32",
"D. c #888369",
"F. c #958E6C",
"G. c #9D946F",
"H. c #84827C",
"J. c #8C8A7B",
"K. c #888473",
"L. c #97897A",
"P. c #9A9475",
"I. c #A29C78",
"U. c #A8A17C",
"Y. c #D68142",
"T. c #EAA454",
"R. c #F9D453",
"E. c #FADE79",
"W. c #0B0B85",
"Q. c #1C0382",
"!. c #180784",
"~. c #0C1585",
"^. c #011B8B",
"/. c #081888",
"(. c #021C92",
"). c #210081",
"_. c #230889",
"`. c #2B0B9B",
"'. c #250792",
"]. c #002188",
"[. c #002087",
"{. c #112981",
"}. c #787C80",
"|. c #848484",
" X c #8B8982",
".X c #8B8B8C",
"XX c #838789",
"oX c #9E9A84",
"OX c #94958A",
"+X c #959595",
"@X c #9C9C9C",
"#X c #9C9B92",
"$X c #928F84",
"%X c #A29B88",
"&X c #AAA483",
"*X c #A8A387",
"=X c #B1A981",
"-X c #A7A49A",
";X c #B2AE95",
":X c #B5B19D",
">X c #B8B295",
",X c #9EA2A6",
"<X c #A2A1A2",
"1X c #ACACAC",
"2X c #A3A9A7",
"3X c #B9B6A4",
"4X c #AEB2B6",
"5X c #B4B4B4",
"6X c #BBB9B4",
"7X c #BBBBBB",
"8X c #B6B6B8",
"9X c #ACACB0",
"0X c #C0BEB6",
"qX c #FBD385",
"wX c #C5C1B3",
"eX c #B3BCC2",
"rX c #C2C2C3",
"tX c #CDCDCC",
"yX c #CFCDC3",
"uX c #D4D4D4",
"iX c #DBDBDB",
"pX c #D5D8DA",
"aX c #CECECF",
"sX c #E4E4E4",
"dX c gray91",
"fX c #F4F4F4",
"gX c #FAFAFA",
"hX c None",
/* pixels */
"hXhXhXhXhXhXhXhXhXhXhXhXhXhXhXhXhXhXhXhXhXhXhXhXhXhXhXhXhXhXX. .` ) hXhXhXhXhXhXhXhXhXhXhXhXhXhXhXhXhXhXhXhXhXhXhXhXhXhXhXhXhXhXhX",
"hXhXhXhXhXhXhXhXhXhXhXhXhXhXhXhXhXhXhXhXhXhXhXhXhXhXhXE P  .-X*XG.G.h.R hXhXhXhXhXhXhXhXhXhXhXhXhXhXhXhXhXhXhXhXhXhXhXhXhXhXhXhXhX",
"hXhXhXhXhXhXhXhXhXhXhXhXhXhXhXhXhXhXhXhXhXhXhXhXhXJ hX;X&XF.P H K i ` I.F.hXhXhXhXhXhXhXhXhXhXhXhXhXhXhXhXhXhXhXhXhXhXhXhXhXhXhXhX",
"hXhXhXhXhXhXhXhXhXhXhXhXhXhXhXhXhXhXhXhXhXhXhXhX.XoXI.*Xj.P hXhXhXhXhXH R D.hXhXhXhXhXhXhXhXhXhXhXhXhXhXhXhXhXhXhXhXhXhXhXhXhXhXhX",
"hXhXhXhXhXhXhXhXhXhXhXhXhXhXhXhXhXhXhXhXhXhXhX.X:X=XI.%.J hXhXhXhXhXhXhXhX` ' hXhXhXhXhXhXhXhXhXhXhXhXhXhXhXhXhXhXhXhXhXhXhXhXhXhX",
"hXhXhXhXhXhXhXhXhXhXhXhXhXhXhXhXhXhXhXhXhXhX.X:X=XP.+.Q hXhXhXhXhXhXhXhXhXP D.D.hXhXhXhXhXhXhXhXhXhXhXhXhXhXhXhXhXhXhXhXhXhXhXhXhX",
"hXhXhXhXhXhXhXhXhXhXhXhXhXhXhXhXhXhXhXhXhX.X:X=XP. XE 1 hXhXhXhXhXhXhXhXhXU D.D.hXhXhXhXhXhXhXhXhXhXhXhXhXhXhXhXhXhXhXhXhXhXhXhXhX",
"hXhXhXhXhXhXhXhXhXhXhXhXhXhXhXhXhXhXhXhX|.6X&XP.H...W Q J hXhXhXhXhXhXhXhXK _ hXhXhXhXhXhXhXhXhXhXhXhXhXhXhXhXhXhXhXhXhXhXhXhXhXhX",
"hXhXhXhXhXhXhXhXhXhXhXhXhXhXhXhXhXhXhXhX<X6X*XK.=.R _ $.E K hXhXhXhXhXhXhXhX3 hXhXhXhXhXhXhXhXhXhXhXhXhXhXhXhXhXhXhXhXhXhXhXhXhXhX",
"hXhXhXhXhXhXhXhXhXhXhXhXhXhXhXhXhXhXhX&.rXwXI.%.X.g.U./ 4 W J hXhXhXhXhXhXhXhXhXhXhXhXhXhXhXhXhXhXhXhXhXhXhXhXhXhXhXhXhXhXhXhXhXhX",
"hXhXhXhXhXhXhXhXhXhXhXhXhXhXhXhXhXhXhX|.rX8X|.%.L.` ' G.P...Y hXhXhXhXhXhXhXhXhXhXhXhXhXhXhXhXhXhXhXhXhXhXhXhXhXhXhXhXhXhXhXhXhXhX",
"hXhXhXhXhXhXhXhXhXhXhXhXhXhXhXhXhXhXhX@.3XuX5XoXJ.D.*X3X*Xj...hXhXhXhXhXhXhXhXhXhXhXhXhXhXhXhXhXhXhXhXhXhXhXhXhXhXhXhXhXhXhXhXhXhX",
"hXhXhXhXhXhXhXhXhXhXhXhXhXhXhXhXhXhXhXH.K.3XwX>Xo.D.oXO.L T #.W hXhXhXhXhXhXhXhXhXhXhXhXhXhXhXhXhXhXhXhXhXhXhXhXhXhXhXhXhXhXhXhXhX",
"hXhXhXhXhXhXhXhXhXhXhXhXhXhXhXhXhXhX#...R @. X` / P.D._ _ T J H hXhXhXhXhXhXhXhXhXhXhXhXhXhXhXhXhXhXhXhXhXhXhXhXhXhXhXhXhXhXhXhXhX",
"hXhXhXhXhXhXhXhXhXhXhXhXhXhXhXhXhXhXhXK E ) 1   / P.$XO.` / K 1 hXhXhXhXhXhXhXhXhXhXhXhXhXhXhXhXhXhXhXhXhXhXhXhXhXhXhXhXhXhXhXhXhX",
"hXhXhXhXhXhXhXhXhXhXhXhXhXhXhXhXhXhXhXJ $.l.4 O h.D.XX*.! ' P 1 hXhXhXhXhXhXhXhXhXhXhXhXhXhXhXhXhXhXhXhXhXhXhXhXhXhXhXhXhXhXhXhXhX",
"hXhXhXhXhXhXhXhXhXhXhXhXhXhXhXhXhXhXhX .J.I. X|.P.@. .o.@.R H hXhXhXhXhXhXhXhXhXhXhXhXhXhXhXhXhXhXhXhXhXhXhXhXhXhXhXhXhXhXhXhXhXhX",
"hXhXhXhXhXhXhXhXhXhXhXhXhXhXhXhXhXhXhXo.G.&X6X8Xl.O...E K 3 2 hXhXhXhXhXhXhXhXhXhXhXhXhXhXhXhXhXhXhXhXhXhXhXhXhXhXhXhXhXhXhXhXhXhX",
"hXhXhXhXhXhXhXhXhXhXhXhXhXhXhXhXhXhXhXW ) OX5X.X#.=.J.J.) 3 1 hXhXhXhXhXhXhXhXhXhXhXhXhXhXhXhXhXhXhXhXhXhXhXhXhXhXhXhXhXhXhXhXhXhX",
"hXhXhXhXhXhXhXhXhXhXhXhXhXhXhXhXhXhXhXhX) %X5Xl.$. . X-X$.3 1 hXhXhXhXhXhXhXhXhXhXhXhXhXhXhXhXhXhXhXhXhXhXhXhXhXhXhXhXhXhXhXhXhXhX",
"hXhXhXhXhXhXhXhXhXhXhXhXhXhXhXhXhXhXhXhX_ U.>X XE H XX9XO.3 : = = hXhXhXhXhXhXhXhXhXhXhXhXhXhXhXhXhXhXhXhXhXhXhXhXhXhXhXhXhXhXhXhX",
"hXhXhXhXhXhXhXhXhXhXhXhXhXhXhXhXhXhXhXhXhXD.D._  .Q J.:X%.4 : : : ; hXhXhXhXhXhXhXhXhXhXhXhXhXhXhXhXhXhXhXhXhXhXhXhXhXhXhXhXhXhXhX",
"hXhXhXhXhXhXhXhXhXhXhXhXhXhXhXhXhXhXhXhXhXhXv < v Y Y } Y 2 H I R v ; hXhXhXhXhXhXhXhXhXhXhXhXhXhXhXhXhXhXhXhXhXhXhXhXhXhXhXhXhXhX",
"hXhXhXhXhXhXhXhXhXhXhXhXhXhXhXhXhXhXhXhXhXhX- g f d , , < Y |.*X%.Q v : hXhXhXhXhXhXhXhXhXhXhXhXhXhXhXhXhXhXhXhXhXhXhXhXhXhXhXhXhX",
"hXhXhXhXhXhXhXhXhXhXhXhXhXhXhXhXhXhXa g d = = C g ; -.-.i l.0XwX%.` E 2 hXhXhXhXhXhXhXhXhXhXhXhXhXhXhXhXhXhXhXhXhXhXhXhXhXhXhXhXhX",
"hXhXhXhXhXhXhXhXhXhXhXhXhXhXhXhXhXa h N k a a s d 9 3.,.i OXwX>XF.K...2 hXhXhXhXhXhXhXhXhXhXhXhXhXhXhXhXhXhXhXhXhXhXhXhXhXhXhXhXhX",
"hXhXhXhXhXhXhXhXhXhXhXhXhXhXhXhX= k k s g B !.d 9 e.r.e L OX;XU.'  .X.< ; hXhXhXhXhXhXhXhXhXhXhXhXhXhXhXhXhXhXhXhXhXhXhXhXhXhXhXhX",
"hXhXhXhXhXhXhXhXhXhXhXhXhXhXhXhX= s s * l `.'.s r v.6.% H l.J.H...T K < ; hXhXhXhXhXhXhXhXhXhXhXhXhXhXhXhXhXhXhXhXhXhXhXhXhXhXhXhX",
"hXhXhXhXhXhXhXhXhXhXhXhXhXhXhXhXhXhXhXhXn `.!.d r v.u . i D.&.E P K 4 c l s hXhXhXhXhXhXhXhXhXhXhXhXhXhXhXhXhXhXhXhXhXhXhXhXhXhXhX",
"hXhXhXhXhXhXhXhXhXhXhXhXhXhXhXhXhXhXhXhXn _.M a -.n.x.8 P #XOX) i 1 4 c l - hXhXhXhXhXhXhXhXhXhXhXhXhXhXhXhXhXhXhXhXhXhXhXhXhXhXhX",
"hXhXhXhXhXhXhXhXhXhXhXhXhXhXhXhXhXhXhXhXs n s hXe z.b.:.~ -X5X#.3 H H < ; h hXhXhXhXhXhXhXhXhXhXhXhXhXhXhXhXhXhXhXhXhXhXhXhXhXhXhX",
"hXhXhXhXhXhXhXhXhXhXhXhXhXhXhXhXhXhXhXhX- - hXhXhXu q.p L OX3X..4 E X.2 l C M g = hXhXhXhXhXhXhXhXhXhXhXhXhXhXhXhXhXhXhXhXhXhXhXhX",
"hXhXhXhXhXhXhXhXhXhXhXhXhXhXhXhXhXhXhXhXhXhXhXhXhXhX^ ^ L j.%Xj.J ] ' b M n V _.M d a hXhXhXhXhXhXhXhXhXhXhXhXhXhXhXhXhXhXhXhXhXhX",
"hXhXhXhXhXhXhXhXhXhXhXhXhXhXhXhXhXhXhXhXhXhXhXhXhXhXp ,.0.o.}.*.J W L > M M n A `.Q.n a hXhXhXhXhXhXhXhXhXhXhXhXhXhXhXhXhXhXhXhXhX",
"hXhXhXhXhXhXhXhXhXhXhXhXhXhXhXhXhXhXhXhXhXhXhXhXhXhXe.u.e.9.O.W 5 O O   ; B m h V `.'.n a hXhXhXhXhXhXhXhXhXhXhXhXhXhXhXhXhXhXhXhX",
"hXhXhXhXhXhXhXhXhXhXhXhXhXhXhXhXhXhXhXhXhXhXhXhXhXr.T.R.M.r.9.t +     + c A Q.m s h A '.n a hXhXhXhXhXhXhXhXhXhXhXhXhXhXhXhXhXhXhX",
"hXhXhXhXhXhXhXhXhXhXhXhXhXhXhXhXhXhXhXhXhXhXhXhX1.Y.qXR.V.a.w.y Y H 3 i } S Q.).m g k V '.n a hXhXhXhXhXhXhXhXhXhXhXhXhXhXhXhXhXhX",
"hXhXhXhXhXhXhXhXhXhXhXhXhXhXhXhXhXhXhXhXhXhXhXt.e.T.R.B.b.r.0.R &.<X+X+.[ A Q.).).).m k A '.g hXhXhXhXhXhXhXhXhXhXhXhXhXhXhXhXhXhX",
"hXhXhXhXhXhXhXhXhXhXhXhXhXhXhXhXhXhXhXhXhXhXi.Z.M.b.M.b.r.q.h.XX.X8X8X X[ {.!.Z ).).).N k V n - hXhXhXhXhXhXhXhXhXhXhXhXhXhXhXhXhX",
"hXhXhXhXhXhXhXhXhXhXhXhXhXhXhXhXhXhXhXhXhX4.M.E.R.v.u.4.q.$X4XuXuXaXrX X[ F W.Z ).Q.).).m s n k = hXhXhXhXhXhXhXhXhXhXhXhXhXhXhXhX",
"hXhXhXhXhXhXhXhXhXhXhXhXhXhXhXhXhXhXhXhXhX3.u.S.A.m.r.q.#X4X9XiXgXsX5X%.[ {.^.!.Z ).Q.).N s n k = hXhXhXhXhXhXhXhXhXhXhXhXhXhXhXhX",
"hXhXhXhXhXhXhXhXhXhXhXhXhXhXhXhXhXhXhXhXhX2.e.n.m.a.w.k.aXpX<XrXfXuX+XO.} {.^.!.Z B ).).Z N g = = hXhXhXhXhXhXhXhXhXhXhXhXhXhXhXhX",
"hXhXhXhXhXhXhXhXhXhXhXhXhXhXhXhXhXhXhXhXhX9.5.e.w.3.0.L.aXsXuXtXpX1X.X X{ {./.~.Z Q.).Z ).).s & = hXhXhXhXhXhXhXhXhXhXhXhXhXhXhXhX",
"hXhXhXhXhXhXhXhXhXhXhXhXhXhXhXhXhXhXhXhXhX+.f.d.d.k.h.XX4XiXfXsX5X@X2X-X{ D ^.~.Q.Z Z ).).Z n a = hXhXhXhXhXhXhXhXhXhXhXhXhXhXhXhX",
"hXhXhXhXhXhXhXhXhXhXhXhXhXhXhXhXhXhXhXhXhX|.,XeX8X2XXX&.-XuXdXpX1X7XaX#X} {.^.[./.V ).).Z ).).h = hXhXhXhXhXhXhXhXhXhXhXhXhXhXhXhX",
"hXhXhXhXhXhXhXhXhXhXhXhXhXhXhXhXhXhXhXhXhX.XaXfXuX<X}..X8XiXpX1X5XuX9X+.[ {.^.[.].~.).B ).).B g = hXhXhXhXhXhXhXhXhXhXhXhXhXhXhXhX",
"hXhXhXhXhXhXhXhXhXhXhXhXhXhXhXhXhXhXhXhXhX+XiXgXaX+X&.2XuXdXdXrX2X+Xj.+.[ {.^.^.^.~.Q.).).).).h = hXhXhXhXhXhXhXhXhXhXhXhXhXhXhXhX",
"hXhXhXhXhXhXhXhXhXhXhXhXhXhXhXhXhXhXhXhXhXhX@XsXrX|..X@X1XaXfXfXuX1X.X+.[ {.(.^.[.[.~.Z ).).).h = hXhXhXhXhXhXhXhXhXhXhXhXhXhXhXhX",
"hXhXhXhXhXhXhXhXhXhXhXhXhXhXhXhXhXhXhXhXhXhXhX@X<X|.+X7X5X5XsXgXiX9X+X+.} {.].].[.]./.).).B B g = hXhXhXhXhXhXhXhXhXhXhXhXhXhXhXhX",
"hXhXhXhXhXhXhXhXhXhXhXhXhXhXhXhXhXhXhXhXhXhXhXhX|.*.+XuXiX7X8XuX7X@X+X*.~ t G (.].].~.Z B h s a = hXhXhXhXhXhXhXhXhXhXhXhXhXhXhXhX",
"hXhXhXhXhXhXhXhXhXhXhXhXhXhXhXhXhXhXhXhXhXhXhXhXhXhX.XtXgXsXrX1X+X,X,X=.( 6.y G ]./.C k g hXhX= - hXhXhXhXhXhXhXhXhXhXhXhXhXhXhXhX",
"hXhXhXhXhXhXhXhXhXhXhXhXhXhXhXhXhXhXhXhXhXhXhXhXhXhX5XiXgXgXiX9X.X.X.X| s.i.:.z (.C g & hXhXhXhXhXhXhXhXhXhXhXhXhXhXhXhXhXhXhXhXhX",
"hXhXhXhXhXhXhXhXhXhXhXhXhXhXhXhXhXhXhXhXhXhXhXhXhX.XuXfXgXgXiX5X.X&.X.{ s.c.,.z W.g hXhXhXhXhXhXhXhXhXhXhXhXhXhXhXhXhXhXhXhXhXhXhX",
"hXhXhXhXhXhXhXhXhXhXhXhXhXhXhXhXhXhXhXhXhXhXhXhXhX*.+XtXfXfXuX@X+X1X.X| s.i.:.x j hXhXhXhXhXhXhXhXhXhXhXhXhXhXhXhXhXhXhXhXhXhXhXhX",
"hXhXhXhXhXhXhXhXhXhXhXhXhXhXhXhXhXhXhXhXhXhXhXhXhX+X.X@XrXiXpXtX7X1X|.| ( 6.-., hXhXhXhXhXhXhXhXhXhXhXhXhXhXhXhXhXhXhXhXhXhXhXhXhX",
"hXhXhXhXhXhXhXhXhXhXhXhXhXhXhXhXhXhXhXhXhXhXhXhXhX.X5X<XXX@XtXuX8X.X..E P e q hXhXhXhXhXhXhXhXhXhXhXhXhXhXhXhXhXhXhXhXhXhXhXhXhXhX",
"hXhXhXhXhXhXhXhXhXhXhXhXhXhXhXhXhXhXhXhXhXhXhXhXhXhX&.*. .X.|.XX*.! t > > , 7 hXhXhXhXhXhXhXhXhXhXhXhXhXhXhXhXhXhXhXhXhXhXhXhXhXhX",
"hXhXhXhXhXhXhXhXhXhXhXhXhXhXhXhXhXhXhXhXhXhXhXhXhXhXt >.8.C.C.C.8.>.# o o . X hXhXhXhXhXhXhXhXhXhXhXhXhXhXhXhXhXhXhXhXhXhXhXhXhXhX",
"hXhXhXhXhXhXhXhXhXhXhXhXhXhXhXhXhXhXhXhXhXhXhXhX    6 1.y.V.A.B.v.:.$               hXhXhXhXhXhXhXhXhXhXhXhXhXhXhXhXhXhXhXhXhXhXhX",
"hXhXhXhXhXhXhXhXhXhXhXhXhXhXhXhXhXhXhXhXhXhX      @ 0 1.y.v.n.x.e.-.$                   hXhXhXhXhXhXhXhXhXhXhXhXhXhXhXhXhXhXhXhXhX",
"hXhXhXhXhXhXhXhXhXhXhXhXhXhXhXhXhXhXhXhXhX      @ q 1.e.v.v.u.4.;.8 @                     hXhXhXhXhXhXhXhXhXhXhXhXhXhXhXhXhXhXhXhX",
"hXhXhXhXhXhXhXhXhXhXhXhXhXhXhXhXhXhXhXhX      @ q 1.1.t.x.N.x.4.q @                         hXhXhXhXhXhXhXhXhXhXhXhXhXhXhXhXhXhXhX",
"hXhXhXhXhXhXhXhXhXhXhXhXhXhXhXhXhXhXhX      X 0 -.:.q 6 8 8 8 8 6 #                           hXhXhXhXhXhXhXhXhXhXhXhXhXhXhXhXhXhX",
"hXhXhXhXhXhXhXhXhXhXhXhXhXhXhXhXhXhXhX            X                                           hXhXhXhXhXhXhXhXhXhXhXhXhXhXhXhXhXhX",
"hXhXhXhXhXhXhXhXhXhXhXhXhXhXhXhXhXhXhXhX                                                  hXhXhXhXhXhXhXhXhXhXhXhXhXhXhXhXhXhXhXhX"
};
