/* XPM */
static char *result[] = {
/* columns rows colors chars-per-pixel */
"65 65 230 2 ",
"   c #010000",
".  c #080607",
"X  c #1B0C00",
"o  c #130900",
"O  c #080916",
"+  c #160A15",
"@  c #171718",
"#  c #290F00",
"$  c #271302",
"%  c #3C1D00",
"&  c #311400",
"*  c #201F1D",
"=  c #010035",
"-  c #02003A",
";  c #080838",
":  c #191A39",
">  c #140A2D",
",  c #201922",
"<  c #1F2427",
"1  c #2B2A29",
"2  c #333229",
"3  c #2C2B34",
"4  c #3C3C3D",
"5  c #373737",
"6  c #2F2C2B",
"7  c #4C1D00",
"8  c #482100",
"9  c #562601",
"0  c #462D1B",
"q  c #642A02",
"w  c #782F00",
"e  c #6A3306",
"r  c #733302",
"t  c #7B3C00",
"y  c #753700",
"u  c #453E38",
"i  c #433223",
"p  c #6E3827",
"a  c #78401A",
"s  c #48423D",
"d  c #5E593E",
"f  c #67452E",
"g  c #6F4F36",
"h  c #050041",
"j  c #09004C",
"k  c #00094D",
"l  c #060249",
"z  c #09114B",
"x  c #0C0055",
"c  c #0E0159",
"v  c #070054",
"b  c #13015D",
"n  c #18045A",
"m  c #101A4F",
"M  c #211A49",
"N  c #3E3F42",
"B  c #323445",
"V  c #2C2A44",
"C  c #130062",
"Z  c #16006A",
"A  c #1A0073",
"S  c #1D017B",
"D  c #170479",
"F  c #08177E",
"G  c #1B197F",
"H  c #0B0062",
"J  c #21007D",
"K  c #291777",
"L  c #321E76",
"P  c #26186B",
"I  c #0E236A",
"U  c #172A71",
"Y  c #34256D",
"T  c #3E2D6E",
"R  c #3D2D71",
"E  c #282A66",
"W  c #411743",
"Q  c #40366E",
"!  c #473B73",
"~  c #3F4041",
"^  c #37426A",
"/  c #434343",
"(  c #494948",
")  c #534943",
"_  c #56564E",
"`  c #4C4A53",
"'  c #555454",
"]  c #5C5B54",
"[  c #5B5C5C",
"{  c #555559",
"}  c #6A5A4E",
"|  c #655F55",
" . c #656256",
".. c #63625D",
"X. c #6D6A5C",
"o. c #6A6757",
"O. c #776B5A",
"+. c #79745D",
"@. c #6A654D",
"#. c #5B5963",
"$. c #585565",
"%. c #4B4A6F",
"&. c #5A6062",
"*. c #646363",
"=. c #6A6A64",
"-. c #6B6B6B",
";. c #67656B",
":. c #766C65",
">. c #7C7963",
",. c #73726D",
"<. c #797668",
"1. c #747473",
"2. c #7B7B75",
"3. c #7C7C7B",
"4. c #787777",
"5. c #6F6F71",
"6. c #853C00",
"7. c #843707",
"8. c #853E12",
"9. c #854509",
"0. c #994501",
"q. c #955319",
"w. c #8A481B",
"e. c #A64803",
"r. c #B74C00",
"t. c #AA5806",
"y. c #BC5500",
"u. c #B65C03",
"i. c #B05412",
"p. c #BA6700",
"a. c #B86A0A",
"s. c #935C34",
"d. c #A05C2F",
"f. c #94633C",
"g. c #C65A01",
"h. c #DA5F00",
"j. c #C04F00",
"k. c #C66302",
"l. c #D66700",
"z. c #D87802",
"x. c #C67802",
"c. c #E66A01",
"v. c #E97B00",
"b. c #837E66",
"n. c #807D7A",
"m. c #8D6349",
"M. c #7F8279",
"N. c #D98300",
"B. c #D4880A",
"V. c #E78900",
"C. c #F78B00",
"Z. c #E99500",
"A. c #FB9300",
"S. c #F49900",
"D. c #ECA300",
"F. c #E5A806",
"G. c #F5A700",
"H. c #F5BA00",
"J. c #F8C500",
"K. c #898469",
"L. c #82827B",
"P. c #8D8B7B",
"I. c #878577",
"U. c #938B76",
"Y. c #9A9473",
"T. c #989379",
"R. c #A49D7C",
"E. c #A29B77",
"W. c #B18D6D",
"Q. c #A5A07A",
"!. c #1C0383",
"~. c #150D86",
"^. c #190486",
"/. c #0D1486",
"(. c #031D84",
"). c #011D8B",
"_. c #091888",
"`. c #151187",
"'. c #05118B",
"]. c #220183",
"[. c #230589",
"{. c #002188",
"}. c #052186",
"|. c #0A278B",
" X c #635B82",
".X c #7E7C84",
"XX c #616780",
"oX c #848483",
"OX c #8C8B83",
"+X c #8C8C8C",
"@X c #86878B",
"#X c #918E81",
"$X c #8D9186",
"%X c #999687",
"&X c #949494",
"*X c #9C9C9C",
"=X c #979796",
"-X c #8E8F91",
";X c #A29E8D",
":X c #AAA486",
">X c #B3AB83",
",X c #A8A699",
"<X c #B2AE9B",
"1X c #BBB69D",
"2X c #9D9FA1",
"3X c #A4A4A4",
"4X c #ACACAC",
"5X c #A9A7A5",
"6X c #BAB7A5",
"7X c #B4B4B4",
"8X c #BCBCBC",
"9X c #B7B7B6",
"0X c #AFB1B4",
"qX c #C5A081",
"wX c #C1BDB6",
"eX c #C7C3B1",
"rX c #BFC0C2",
"tX c #C4C4C4",
"yX c #CBCBCB",
"uX c #C7C8C5",
"iX c #D4D4D5",
"pX c #DCDCDC",
"aX c #D4D5CD",
"sX c #E3E3E3",
"dX c #ECECEC",
"fX c #F3F3F3",
"gX c #FCFCFC",
"hX c #F8F7F8",
"jX c #EFF0EB",
"kX c None",
/* pixels */
"kXkXkXkXkXkXkXkXkXkXkXkXkXkXkXkXkXkXkXkXkXkXkXkXkXkXkXkXkXkXkXkXkX' _ ~ kXkXkXkXkXkXkXkXkXkXkXkXkXkXkXkXkXkXkXkXkXkXkXkXkXkXkXkXkX",
"kXkXkXkXkXkXkXkXkXkXkXkXkXkXkXkXkXkXkXkXkXkXkXkXkXkXkXkXkXkXkXkXkX#X&X<.kXkXkXkXkXkXkXkXkXkXkXkXkXkXkXkXkXkXkXkXkXkXkXkXkXkXkXkXkX",
"kXkXkXkXkXkXkXkXkXkXkXkXkXkXkXkXkXkXkXkXkXkXkXkXkXkXkXkXkXkXL.L.+.I.#XK.o.kXkXkXkXkXkXkXkXkXkXkXkXkXkXkXkXkXkXkXkXkXkXkXkXkXkXkXkX",
"kXkXkXkXkXkXkXkXkXkXkXkXkXkXkXkXkXkXkXkXkXkXkXkXkXkXkX*.2.R.<X;Xo.5 5 s +.o.kXkXkXkXkXkXkXkXkXkXkXkXkXkXkXkXkXkXkXkXkXkXkXkXkXkXkX",
"kXkXkXkXkXkXkXkXkXkXkXkXkXkXkXkXkXkXkXkXkXkXkXkXkXkX:.:X6X:XX.~ kXkXkXkXkX....kXkXkXkXkXkXkXkXkXkXkXkXkXkXkXkXkXkXkXkXkXkXkXkXkXkX",
"kXkXkXkXkXkXkXkXkXkXkXkXkXkXkXkXkXkXkXkXkXkXkXkXkX.X6X>XY.X.~ kXkXkXkXkX( +.>.kXkXkXkXkXkXkXkXkXkXkXkXkXkXkXkXkXkXkXkXkXkXkXkXkXkX",
"kXkXkXkXkXkXkXkXkXkXkXkXkXkXkXkXkXkXkXkXkXkXkXkXkX<X>XQ.I.` kXkXkXkXkX4 ..n.] kXkXkXkXkXkXkXkXkXkXkXkXkXkXkXkXkXkXkXkXkXkXkXkXkXkX",
"kXkXkXkXkXkXkXkXkXkXkXkXkXkXkXkXkXkXkXkXkXkXkXkX,X>XR.P.1.( 6 kXkXkX| b.L.[ kXkXkXkXkXkXkXkXkXkXkXkXkXkXkXkXkXkXkXkXkXkXkXkXkXkXkX",
"kXkXkXkXkXkXkXkXkXkXkXkXkXkXkXkXkXkXkXkXkXkXkX4X1XT.P.-.{ &.=.kXkXkXkX=.] kXkXkXkXkXkXkXkXkXkXkXkXkXkXkXkXkXkXkXkXkXkXkXkXkXkXkXkX",
"kXkXkXkXkXkXkXkXkXkXkXkXkXkXkXkXkXkXkXkXkXkXkX0X1XT.3.2. ./ { -.kXkXkXkXkXkXkXkXkXkXkXkXkXkXkXkXkXkXkXkXkXkXkXkXkXkXkXkXkXkXkXkXkX",
"kXkXkXkXkXkXkXkXkXkXkXkXkXkXkXkXkXkXkXkXkX' -.,X:XP.-.5.K.d o.$X[ kXkXkXkXkXkXkXkXkXkXkXkXkXkXkXkXkXkXkXkXkXkXkXkXkXkXkXkXkXkXkXkX",
"kXkXkXkXkXkXkXkXkXkXkXkXkXkXkXkXkXkXkXkXkX' 1.:X%X+X:.X.T.Q.Y.P.=.( kXkXkXkXkXkXkXkXkXkXkXkXkXkXkXkXkXkXkXkXkXkXkXkXkXkXkXkXkXkXkX",
"kXkXkXkXkXkXkXkXkXkXkXkXkXkXkXkXkXkXkXkXkX_ Y.eXyX<XY.Q.,X@X,.4.3.*./ kXkXkXkXkXkXkXkXkXkXkXkXkXkXkXkXkXkXkXkXkXkXkXkXkXkXkXkXkXkX",
"kXkXkXkXkXkXkXkXkXkXkXkXkXkXkXkXkXkXkXkXkX' Y.6XwXK.>.Y.1.( ~ [ 3.;./ kXkXkXkXkXkXkXkXkXkXkXkXkXkXkXkXkXkXkXkXkXkXkXkXkXkXkXkXkXkX",
"kXkXkXkXkXkXkXkXkXkXkXkXkXkXkXkXkXkXkXkX` _ ] ,.( 6  .U.:.>.X.( ..;.( kXkXkXkXkXkXkXkXkXkXkXkXkXkXkXkXkXkXkXkXkXkXkXkXkXkXkXkXkXkX",
"kXkXkXkXkXkXkXkXkXkXkXkXkXkXkXkXkXkXkXkXkX' 2.4 . 2 +.P.+X_ @. .~ ( 4 kXkXkXkXkXkXkXkXkXkXkXkXkXkXkXkXkXkXkXkXkXkXkXkXkXkXkXkXkXkX",
"kXkXkXkXkXkXkXkXkXkXkXkXkXkXkXkXkXkXkXkXkX[ -X#.3 X.K.4.3.O.+. .5 5 kXkXkXkXkXkXkXkXkXkXkXkXkXkXkXkXkXkXkXkXkXkXkXkXkXkXkXkXkXkXkX",
"kXkXkXkXkXkXkXkXkXkXkXkXkXkXkXkXkXkXkXkXkX] %X,X=X$XK.=...X.] ~ 5 kXkXkXkXkXkXkXkXkXkXkXkXkXkXkXkXkXkXkXkXkXkXkXkXkXkXkXkXkXkXkXkX",
"kXkXkXkXkXkXkXkXkXkXkXkXkXkXkXkXkXkXkXkXkX' b.,XrX*X-.5.-.] ) ~ 4 kXkXkXkXkXkXkXkXkXkXkXkXkXkXkXkXkXkXkXkXkXkXkXkXkXkXkXkXkXkXkXkX",
"kXkXkXkXkXkXkXkXkXkXkXkXkXkXkXkXkXkXkXkXkXkX' 1.4X*X5.5.4.P.P...( kXkXkXkXkXkXkXkXkXkXkXkXkXkXkXkXkXkXkXkXkXkXkXkXkXkXkXkXkXkXkXkX",
"kXkXkXkXkXkXkXkXkXkXkXkXkXkXkXkXkXkXkXkXkXkXkXb.6X3XM.*.-.,X&X$./ 3 kXkXkXkXkXkXkXkXkXkXkXkXkXkXkXkXkXkXkXkXkXkXkXkXkXkXkXkXkXkXkX",
"kXkXkXkXkXkXkXkXkXkXkXkXkXkXkXkXkXkXkXkXkXkXkXK.>X%X-.( ' P.#.: : - - - kXkXkXkXkXkXkXkXkXkXkXkXkXkXkXkXkXkXkXkXkXkXkXkXkXkXkXkXkX",
"kXkXkXkXkXkXkXkXkXkXkXkXkXkXkXkXkXkXkXkXkXkXkXkX+.X.' ~ V V 3 : : , > n x kXkXkXkXkXkXkXkXkXkXkXkXkXkXkXkXkXkXkXkXkXkXkXkXkXkXkXkX",
"kXkXkXkXkXkXkXkXkXkXkXkXkXkXkXkXkXkXkXkXkXkXkXkXkXkX: : : B X.+.=.) 6 > b j kXkXkXkXkXkXkXkXkXkXkXkXkXkXkXkXkXkXkXkXkXkXkXkXkXkXkX",
"kXkXkXkXkXkXkXkXkXkXkXkXkXkXkXkXkXkXkXkXkXkXkXkXkXv c : _ OX<.K.R.b.2 O b A l kXkXkXkXkXkXkXkXkXkXkXkXkXkXkXkXkXkXkXkXkXkXkXkXkXkX",
"kXkXkXkXkXkXkXkXkXkXkXkXkXkXkXkXkXkXkXkXkXkXkXj c D P ' Q.wX+XK.Q.n.6 O b [.x = kXkXkXkXkXkXkXkXkXkXkXkXkXkXkXkXkXkXkXkXkXkXkXkXkX",
"kXkXkXkXkXkXkXkXkXkXkXkXkXkXkXkXkXkXkXkXkXkX- Z [.Y { <.T.6X6X<XT.:.i + C [.b - kXkXkXkXkXkXkXkXkXkXkXkXkXkXkXkXkXkXkXkXkXkXkXkXkX",
"kXkXkXkXkXkXkXkXkXkXkXkXkXkXkXkXkXkXkXkXkXkX- S L *.T.1.] P.>X$X=.f e + H [.J C h kXkXkXkXkXkXkXkXkXkXkXkXkXkXkXkXkXkXkXkXkXkXkXkX",
"kXkXkXkXkXkXkXkXkXkXkXkXkXkXkXkXkXkXkXkXkXkX> M ` OX,X3.;.,.] ~ p e & + n `.`.].C h kXkXkXkXkXkXkX- kXkXkXkXkXkXkXkXkXkXkXkXkXkXkX",
"kXkXkXkXkXkXkXkXkXkXkXkXkXkXkXkXkXl.j.r.g.l.7.i O.n.5.3.3.[ 5 < @ # X 9 p Y ).~.J C h kXkXkXkXkXkX- kXkXkXkXkXkXkXkXkXkXkXkXkXkXkX",
"kXkXkXkXkXkXkXkXkXkXkXkXkXkXkXkXh.v.l.k.z.k.d.} OXT.>.1.{ < @ . X 7 w e.w.E )._.~.J C h kXkXkXkXkX= = kXkXkXkXkXkXkXkXkXkXkXkXkXkX",
"kXkXkXkXkXkXkXkXkXkXkXkXkXkXkXl.V.A.Z.D.G.u.:.L.,X<XP. .p 8 7 7 w e.s.s.u U ).).).~.S b h kXkXkXkXx h kXkXkXkXkXkXkXkXkXkXkXkXkXkX",
"kXkXkXkXkXkXkXkXkXkXkXkXkXkXkXg.D.A.A.J.H.i.:.+X:XP.[ u a q.w.r 8.f.U.2.( I ).}.{._.].J b ; kXkXb A j kXkXkXkXkXkXkXkXkXkXkXkXkXkX",
"kXkXkXkXkXkXkXkXkXkXkXkXkXkXkXe.N.A.A.G.S.g.m.1.,.[ N 5 / :.O.} :.%X%X*.B I ).{.{._.~.].J C l b J S j kXkXkXkXkXkXkXkXkXkXkXkXkXkX",
"kXkXkXkXkXkXkXkXkXkXkXkXkXkXkXe.l.V.N.l.c.c.i.f u kXkXkXs &.<.oX$XP.| 1 O k {.{.{.{._.~.].S A A ].J j kXkXkXkXkXkXkXkXkXkXkXkXkXkX",
"kXkXkXkXkXkXkXkXkXkXkXkXkXkXkXkXr.g.p.r.j.j.r.0.kXkXkXr.9.0 2 u u 2 @     O I ).{.{.}.)._.~.[.].].D j kXkXkXkXkXkXkXkXkXkXkXkXkXkX",
"kXkXkXkXkXkXkXkXkXkXkXkXkXkXkXkXkXkXkXkXkXkXkXkXkXkXkXl.e.&         . . * 5 E {.{.{.{.{.{.}./././.F k kXkXkXkXkXkXkXkXkXkXkXkXkXkX",
"kXkXkXkXkXkXkXkXkXkXkXkXkXkXkXkXkXkXkXkXkXkXkXkXkXkXkXC.e.&   * ~ ( ' ;.4.oXXXU {.{.).{.{.{.{.{.{.F k kXkXkXkXkXkXkXkXkXkXkXkXkXkX",
"kXkXkXkXkXkXkXkXkXkXkXkXkXkXkXkXkXkXkXkXkXkXkXkXkXkXkXx.q.) ( 3.5X4XuXaXrX5XL.^ ).{.{.{.{.{.(.{.{.}.k kXkXkXkXkXkXkXkXkXkXkXkXkXkX",
"kXkXkXkXkXkXkXkXkXkXkXkXkXkXkXkXkXkXkXkXkXkXkXkXkXkXkXs.:.@X7XiXiXpXpXpXuX4X@X%.U {.).{.{.{.{.{.{.{.k kXkXkXkXkXkXkXkXkXkXkXkXkXkX",
"kXkXkXkXkXkXkXkXkXkXkXkXkXkXkXkXkXkXkXkXkXkXkXkXkXkXkX5X2X1.2XiXpXdXjXsXiX8X=XM.^ }.{.{.{.{.{.{.{.}.k kXkXkXkXkXkXkXkXkXkXkXkXkXkX",
"kXkXkXkXkXkXkXkXkXkXkXkXkXkXkXkXkXkXkXkXkXkXkXkXkXkX-XyX8X3.-XyXsXfXgXhXpXtX5XOX%.}.).{.{.{.(.{.{.F k kXkXkXkXkXkXkXkXkXkXkXkXkXkX",
"kXkXkXkXkXkXkXkXkXkXkXkXkXkXkXkXkXkXkXkXkXkXkXkXkXkX7XpXiX2X4.*XyXsXgXhXpX9X2XoX%.G (.{.{.(.{.{.).D j kXkXkXkXkXkXkXkXkXkXkXkXkXkX",
"kXkXkXkXkXkXkXkXkXkXkXkXkXkXkXkXkXkXkXkXkXkXkXkXkX+XiXfXpX0X5.3.8XiXdXdXyX9X4X@X;.Q }.{.{.{.{.{._.S j kXkXkXkXkXkXkXkXkXkXkXkXkXkX",
"kXkXkXkXkXkXkXkXkXkXkXkXkXkXkXkXkXkXkXkXkXkXkXkXkX4XsXgXdXtX.X4.7XtX8XtXyXiX4X4.b.$.G '.(.).{.{._.D j kXkXkXkXkXkXkXkXkXkXkXkXkXkX",
"kXkXkXkXkXkXkXkXkXkXkXkXkXkXkXkXkXkXkXkXkXkXkXkX-XyXpXjXgXsX+X5.*X0X8XuXfXjX5X.X&X;.Q G ).(.).(.`.D j kXkXkXkXkXkXkXkXkXkXkXkXkXkX",
"kXkXkXkXkXkXkXkXkXkXkXkXkXkXkXkXkXkXkXkXkXkXkXkX&XtXpXpXsXiX&X-.5.*XiXhXhXfXpXyXtXL.#.K '.(.)._.J Z j kXkXkXkXkXkXkXkXkXkXkXkXkXkX",
"kXkXkXkXkXkXkXkXkXkXkXkXkXkXkXkXkXkXkXkXkXkXkXkX1.4XyXtXtXrX4X3.=.3.3XtXpXdXdXsXrX2.$.K '._.(./.A h kXkXkXkXkXkXkXkXkXkXkXkXkXkXkX",
"kXkXkXkXkXkXkXkXkXkXkXkXkXkXkXkXkXkXkXkXkXkXkX+XrXsX9X+X,X3X2X.X*.+X4X4X8XyX4X9XrXL.#.L ^./._.].A h kXkXkXkXkXkXkXkXkXkXkXkXkXkXkX",
"kXkXkXkXkXkXkXkXkXkXkXkXkXkXkXkXkXkXkXkXkXkXkX4XsXgXdX9X3.5.oX4.*.-X8X8X3X=X+X5XtX=X4.$.L ^.S ].A h kXkXkXkXkXkXkXkXkXkXkXkXkXkXkX",
"kXkXkXkXkXkXkXkXkXkXkXkXkXkXkXkXkXkXkXkXkXkXkX9XsXsXsXtX+X4.1.%.! @XtXsXyX0X=X&X0X3X&X2.$.L ].A j kXkXkXkXkXkXkXkXkXkXkXkXkXkXkXkX",
"kXkXkXkXkXkXkXkXkXkXkXkXkXkXkXkXkXkXkXkXkXkXkXtXuX4X=X@X.X4.;.Y [.%.5XdXhXpXtXtXtX7X3XoX=.Q ^.Z = kXkXkXkXkXkXkXkXkXkXkXkXkXkXkXkX",
"kXkXkXkXkXkXkXkXkXkXkXkXkXkXkXkXkXkXkXkXkXkX4XdXiX4X&X@XoX3.=.R ^.K .XaXdXsXdXgXjXtX2X3.#.R D c kXkXkXkXkXkXkXkXkXkXkXkXkXkXkXkXkX",
"kXkXkXkXkXkXkXkXkXkXkXkXkXkXkXkXkXkXkXkXkXkX8XdXjXsXpXyXtX4X2.T ^.K  X3X8X8XiXhXsXwXU.} ` Y v kXkXkXkXkXkXkXkXkXkXkXkXkXkXkXkXkXkX",
"kXkXkXkXkXkXkXkXkXkXkXkXkXkXkXkXkXkXkXkXkXkXkX*XiXdXiXtX8X*X;.Y ^.S K kXkX.X3XyXyXqXg.8.W b kXkXkXkXkXkXkXkXkXkXkXkXkXkXkXkXkXkXkX",
"kXkXkXkXkXkXkXkXkXkXkXkXkXkXkXkXkXkXkXkXkXkX9.g n.0XyX8X3XkXM x J C z kXkX3X*X@XW.B.S.u.7.kXkXkXkXkXkXkXkXkXkXkXkXkXkXkXkXkXkXkXkX",
"kXkXkXkXkXkXkXkXkXkXkXkXkXkXkXkXkXkXkXkXkXa B.x.f.-.-.*.' kXkX= - - kXkXkXkX-.s.B.H.J.z.e.6.kXkXkXkXkXkXkXkXkXkXkXkXkXkXkXkXkXkXkX",
"kXkXkXkXkXkXkXkXkXkXkXkXkXkXkXkXkXkXy y t 0.l.D.F.B.q.0 @ .     . .       O 0 i.z.G.V.V.k.6.kXkXkXkXkXkXkXkXkXkXkXkXkXkXkXkXkXkXkX",
"kXkXkXkXkXkXkXkXkXkXkXkXkXkXkXkXkXkXkXt u.N.D.Z.N.u.r #                     o r y.z.D.H.z.0.kXkXkXkXkXkXkXkXkXkXkXkXkXkXkXkXkXkXkX",
"kXkXkXkXkXkXkXkXkXkXkXkXkXkXkXkXkXkXkX6.t.p.F.Z.l.0.% .                     # q y.Z.H.Z.u.6.kXkXkXkXkXkXkXkXkXkXkXkXkXkXkXkXkXkXkX",
"kXkXkXkXkXkXkXkXkXkXkXkXkXkXkXkXkXkXkXkX% % 6.p.p.a & .                   # y k.V.Z.p.t.q kXkXkXkXkXkXkXkXkXkXkXkXkXkXkXkXkXkXkXkX",
"kXkXkXkXkXkXkXkXkXkXkXkXkXkXkXkXkXkXkXkX    $ % 8 X                     o q r.z.B.0.8 & o   kXkXkXkXkXkXkXkXkXkXkXkXkXkXkXkXkXkXkX",
"kXkXkXkXkXkXkXkXkXkXkXkXkXkXkXkXkXkXkX                                  o q 0.y 9 8 o         kXkXkXkXkXkXkXkXkXkXkXkXkXkXkXkXkXkX",
"kXkXkXkXkXkXkXkXkXkXkXkXkXkXkXkXkXkXkX                                      .                 kXkXkXkXkXkXkXkXkXkXkXkXkXkXkXkXkXkX",
"kXkXkXkXkXkXkXkXkXkXkXkXkXkXkXkXkXkXkXkX                                                  kXkXkXkXkXkXkXkXkXkXkXkXkXkXkXkXkXkXkXkX"
};
