/* XPM */
static char *result[] = {
/* columns rows colors chars-per-pixel */
"65 65 238 2 ",
"   c #010000",
".  c #0B0806",
"X  c #140A00",
"o  c #1A0D00",
"O  c #1C0D0A",
"+  c #19120A",
"@  c #080813",
"#  c #1E1D1A",
"$  c #110F1F",
"%  c #2A1500",
"&  c #3D1E00",
"*  c #27191C",
"=  c #220D1F",
"-  c #3A240D",
";  c #06082C",
":  c #1A1923",
">  c #010134",
",  c #0A0A34",
"<  c #02013A",
"1  c #0A0839",
"2  c #1E1B39",
"3  c #110930",
"4  c #372327",
"5  c #292A38",
"6  c #34343B",
"7  c #3C3C3B",
"8  c #353534",
"9  c #242425",
"0  c #4C2500",
"q  c #4B2602",
"w  c #562900",
"e  c #58321E",
"r  c #693304",
"t  c #743604",
"y  c #643918",
"u  c #743C12",
"i  c #6E2E0E",
"p  c #533428",
"a  c #4F2E22",
"s  c #6D2833",
"d  c #77461B",
"f  c #47463E",
"g  c #694934",
"h  c #060044",
"j  c #06024B",
"k  c #0C004B",
"l  c #0A0140",
"z  c #1A1A42",
"x  c #0C0254",
"c  c #0D025B",
"v  c #040656",
"b  c #11025C",
"n  c #170759",
"m  c #00115F",
"M  c #282646",
"N  c #382C44",
"B  c #373748",
"V  c #050C68",
"C  c #130162",
"Z  c #14036C",
"A  c #1A046A",
"S  c #071469",
"D  c #160575",
"F  c #06177A",
"G  c #0A0A73",
"H  c #22007C",
"J  c #192D78",
"K  c #223378",
"L  c #33246E",
"P  c #250E4B",
"I  c #423855",
"U  c #374478",
"Y  c #434343",
"T  c #4A4A46",
"R  c #4A4A4A",
"E  c #484744",
"W  c #5B544C",
"Q  c #58554B",
"!  c #4C4B55",
"~  c #535353",
"^  c #555559",
"/  c #5C5C5B",
"(  c #575856",
")  c #584B40",
"_  c #674E41",
"`  c #625E59",
"'  c #6B5947",
"]  c #6A6755",
"[  c #686559",
"{  c #726E5B",
"}  c #79755D",
"|  c #6B664E",
" . c #595C64",
".. c #5D6068",
"X. c #646465",
"o. c #6D6D6C",
"O. c #686867",
"+. c #787564",
"@. c #7E7A63",
"#. c #75746C",
"$. c #797669",
"%. c #6A6D71",
"&. c #747373",
"*. c #7B7B7B",
"=. c #787878",
"-. c #726F6C",
";. c #863B03",
":. c #9F3A05",
">. c #843222",
",. c #984503",
"<. c #99580C",
"1. c #A84902",
"2. c #B64903",
"3. c #AD5305",
"4. c #B95508",
"5. c #A7541B",
"6. c #B95D11",
"7. c #886100",
"8. c #BC641C",
"9. c #A9700B",
"0. c #8D5129",
"q. c #96532A",
"w. c #A95A29",
"e. c #98613C",
"r. c #C85B02",
"t. c #D45905",
"y. c #CD6300",
"u. c #C76900",
"i. c #D36603",
"p. c #D87701",
"a. c #C9751D",
"s. c #E56801",
"d. c #E57C00",
"f. c #F57100",
"g. c #8C6D5A",
"h. c #827D64",
"j. c #817D6B",
"k. c #807E77",
"l. c #967663",
"z. c #AA7050",
"x. c #D48400",
"c. c #CD9700",
"v. c #D69200",
"b. c #D78B16",
"n. c #E88700",
"m. c #F38900",
"M. c #E69600",
"N. c #F49300",
"B. c #EB951B",
"V. c #FAB800",
"C. c #FEAA10",
"Z. c #E89923",
"A. c #FFA123",
"S. c #FBC804",
"D. c #EEC116",
"F. c #F5CC33",
"G. c #8C855D",
"H. c #8A846C",
"J. c #8B866C",
"K. c #938A6A",
"L. c #868373",
"P. c #8D8974",
"I. c #8D8A7C",
"U. c #868478",
"Y. c #958C76",
"T. c #999378",
"R. c #A39B75",
"E. c #A1997C",
"W. c #ABA37C",
"Q. c #EDB04C",
"!. c #F6AF62",
"~. c #D98F53",
"^. c #FBDB4C",
"/. c #FBD463",
"(. c #FAE27A",
"). c #180A85",
"_. c #041C8B",
"`. c #0B1688",
"'. c #131785",
"]. c #031F90",
"[. c #250484",
"{. c #270998",
"}. c #0A2284",
"|. c #00228C",
" X c #062181",
".X c #002093",
"XX c #7C7C80",
"oX c #7E8082",
"OX c #838384",
"+X c #8C8C8B",
"@X c #888A87",
"#X c #9A988A",
"$X c #898D92",
"%X c #959493",
"&X c #9D9D9C",
"*X c #999897",
"=X c #8F959A",
"-X c #A29B85",
";X c #A19B95",
":X c #9FA49A",
">X c #AAA58C",
",X c #AAA485",
"<X c #B1A984",
"1X c #B3AB89",
"2X c #A2A39D",
"3X c #B3AE96",
"4X c #BAB390",
"5X c #A4A4A4",
"6X c #ABABAB",
"7X c #AAA9A3",
"8X c #B8B5A9",
"9X c #AEB4B9",
"0X c #B4B4B4",
"qX c #BBBBBB",
"wX c #BBBAB5",
"eX c #ABAEAB",
"rX c #C8B898",
"tX c #C1BEAC",
"yX c #FDDD83",
"uX c #C9C6BA",
"iX c #BDC7CD",
"pX c #C4C4C4",
"aX c #CCCCCC",
"sX c #C7C9CB",
"dX c #C4CBD6",
"fX c #D4D4D4",
"gX c #DADADA",
"hX c #CCD1D2",
"jX c #E0E1DF",
"kX c #DBE1E4",
"lX c #E3E4E4",
"zX c #ECECEC",
"xX c #F3F3F3",
"cX c #FCFCFC",
"vX c #F8F7F7",
"bX c #ECF2F6",
"nX c #D6DAE9",
"mX c None",
/* pixels */
"mXmXmXmXmXmXmXmXmXmXmXmXmXmXmXmXmXmXmXmXmXmXmXmXmXmXmXmXmXmXmX( W ~ mXmXmXmXmXmXmXmXmXmXmXmXmXmXmXmXmXmXmXmXmXmXmXmXmXmXmXmXmXmXmX",
"mXmXmXmXmXmXmXmXmXmXmXmXmXmXmXmXmXmXmXmXmXmXmXmXmXmXmXmXR mX5X>XR.R.H.~ mXmXmXmXmXmXmXmXmXmXmXmXmXmXmXmXmXmXmXmXmXmXmXmXmXmXmXmXmX",
"mXmXmXmXmXmXmXmXmXmXmXmXmXmXmXmXmXmXmXmXmXmXmXmXmXmXmX#XT.K.O.( Q Q ] Y.K.mXmXmXmXmXmXmXmXmXmXmXmXmXmXmXmXmXmXmXmXmXmXmXmXmXmXmXmX",
"mXmXmXmXmXmXmXmXmXmXmXmXmXmXmXmXmXmXmXmXmXmXmXmXmXL.-X3XT.] mXmXmXmXmX| { h.mXmXmXmXmXmXmXmXmXmXmXmXmXmXmXmXmXmXmXmXmXmXmXmXmXmXmX",
"mXmXmXmXmXmXmXmXmXmXmXmXmXmXmXmXmXmXmXmXmXmXmXXX8X1XW.P./ mXmXmXmXmXmXmXmX] h.mXmXmXmXmXmXmXmXmXmXmXmXmXmXmXmXmXmXmXmXmXmXmXmXmXmX",
"mXmXmXmXmXmXmXmXmXmXmXmXmXmXmXmXmXmXmXmXmXmXXX8X1XR.L.( mXmXmXmXmXmXmXmXmXE @.J.mXmXmXmXmXmXmXmXmXmXmXmXmXmXmXmXmXmXmXmXmXmXmXmXmX",
"mXmXmXmXmXmXmXmXmXmXmXmXmXmXmXmXmXmXmXmXmXoX8XW.R.I./ 8 mXmXmXmXmXmXmXmXmXT @.K.mXmXmXmXmXmXmXmXmXmXmXmXmXmXmXmXmXmXmXmXmXmXmXmXmX",
"mXmXmXmXmXmXmXmXmXmXmXmXmXmXmXmXmXmXmXmX*.8X<XR.L.=. .f 7 mXmXmXmXmXmXmXmXE { @.mXmXmXmXmXmXmXmXmXmXmXmXmXmXmXmXmXmXmXmXmXmXmXmXmX",
"mXmXmXmXmXmXmXmXmXmXmXmXmXmXmXmXmXmXmXmX*XwX,XL.*.( ~ o.O.mXmXmXmXmXmXmXmX7 f mXmXmXmXmXmXmXmXmXmXmXmXmXmXmXmXmXmXmXmXmXmXmXmXmXmX",
"mXmXmXmXmXmXmXmXmXmXmXmXmXmXmXmXmXmXmXmXqXwX,XL.X.$.R.] 8 R mXmXmXmXmXmXmXmXmXmXmXmXmXmXmXmXmXmXmXmXmXmXmXmXmXmXmXmXmXmXmXmXmXmXmX",
"mXmXmXmXmXmXmXmXmXmXmXmXmXmXmXmXmXmXmX$XsX0XL.&.U.{ h.G.{ O.R mXmXmXmXmXmXmXmXmXmXmXmXmXmXmXmXmXmXmXmXmXmXmXmXmXmXmXmXmXmXmXmXmXmX",
"mXmXmXmXmXmXmXmXmXmXmXmXmXmXmXmXmXmXmXL.uXpX;X@XY.+.I.4X<XU. .mXmXmXmXmXmXmXmXmXmXmXmXmXmXmXmXmXmXmXmXmXmXmXmXmXmXmXmXmXmXmXmXmXmX",
"mXmXmXmXmXmXmXmXmXmXmXmXmXmXmXmXmXmXmX$.,XaXaX1X$.J.>X#X+.O.#.~ mXmXmXmXmXmXmXmXmXmXmXmXmXmXmXmXmXmXmXmXmXmXmXmXmXmXmXmXmXmXmXmXmX",
"mXmXmXmXmXmXmXmXmXmXmXmXmXmXmXmXmXmX@X=.] I.3XP.( J.L.[ T E / ~ mXmXmXmXmXmXmXmXmXmXmXmXmXmXmXmXmXmXmXmXmXmXmXmXmXmXmXmXmXmXmXmXmX",
"mXmXmXmXmXmXmXmXmXmXmXmXmXmXmXmXmXmX^ ~ Q ( E # 7 J.L.$.H.] Y 6 mXmXmXmXmXmXmXmXmXmXmXmXmXmXmXmXmXmXmXmXmXmXmXmXmXmXmXmXmXmXmXmXmX",
"mXmXmXmXmXmXmXmXmXmXmXmXmXmXmXmXmXmXmXY &.&.9 . | j.%X&.f { Q 8 mXmXmXmXmXmXmXmXmXmXmXmXmXmXmXmXmXmXmXmXmXmXmXmXmXmXmXmXmXmXmXmXmX",
"mXmXmXmXmXmXmXmXmXmXmXmXmXmXmXmXmXmXmX( OX$X .Q K.j.%.$.H.{ R mXmXmXmXmXmXmXmXmXmXmXmXmXmXmXmXmXmXmXmXmXmXmXmXmXmXmXmXmXmXmXmXmXmX",
"mXmXmXmXmXmXmXmXmXmXmXmXmXmXmXmXmXmXmX$.-X>X7X6XI.#.X./ ( E 7 mXmXmXmXmXmXmXmXmXmXmXmXmXmXmXmXmXmXmXmXmXmXmXmXmXmXmXmXmXmXmXmXmXmX",
"mXmXmXmXmXmXmXmXmXmXmXmXmXmXmXmXmXmXmX[ h.#XwX&X&.&.k.+.Q 6 8 mXmXmXmXmXmXmXmXmXmXmXmXmXmXmXmXmXmXmXmXmXmXmXmXmXmXmXmXmXmXmXmXmXmX",
"mXmXmXmXmXmXmXmXmXmXmXmXmXmXmXmXmXmXmXmX[ *X0XXX&.&.I.-X&.R 6 mXmXmXmXmXmXmXmXmXmXmXmXmXmXmXmXmXmXmXmXmXmXmXmXmXmXmXmXmXmXmXmXmXmX",
"mXmXmXmXmXmXmXmXmXmXmXmXmXmXmXmXmXmXmXmX{ >X8XOXO.~ @XeX+X#.( mXmXmXmXmXmXmXmXmXmXmXmXmXmXmXmXmXmXmXmXmXmXmXmXmXmXmXmXmXmXmXmXmXmX",
"mXmXmXmXmXmXmXmXmXmXmXmXmXmXmXmXmXmXmXmX{ R.E.=.~ Y OX8X,X&...Y mXmXmXmXmXmXmXmXmXmXmXmXmXmXmXmXmXmXmXmXmXmXmXmXmXmXmXmXmXmXmXmXmX",
"mXmXmXmXmXmXmXmXmXmXmXmXmXmXmXmXmXmXmXmXmX[ [ T / ^ -.<XH.B 2 M 7 mXmXmXmXmXmXmXmXmXmXmXmXmXmXmXmXmXmXmXmXmXmXmXmXmXmXmXmXmXmXmXmX",
"mXmXmXmXmXmXmXmXmXmXmXmXmXmXmXmXmXmXmXmXmXmXmX, z z M B M 5 ! $.@.~ 5 mXmXmXmXmXmXmXmXmXmXmXmXmXmXmXmXmXmXmXmXmXmXmXmXmXmXmXmXmXmX",
"mXmXmXmXmXmXmXmXmXmXmXmXmXmXmXmXmXmXmXmXmX> > > Z c < > 2 / :X8Xk.~ ! 2 , mXmXmXmXmXmXmXmXmXmXmXmXmXmXmXmXmXmXmXmXmXmXmXmXmXmXmXmX",
"mXmXmXmXmXmXmXmXmXmXmXmXmXmXmXmXmXmXmXk C c > > C j = 4 f I.qXwXP.#.O.5 , mXmXmXmXmXmXmXmXmXmXmXmXmXmXmXmXmXmXmXmXmXmXmXmXmXmXmXmX",
"mXmXmXmXmXmXmXmXmXmXmXmXmXmXmXmXmXmXx b A C x b j * ;.;.) #XtX1XK.$.o.N , mXmXmXmXmXmXmXmXmXmXmXmXmXmXmXmXmXmXmXmXmXmXmXmXmXmXmXmX",
"mXmXmXmXmXmXmXmXmXmXmXmXmXmXmXmXmX> c b l k [.{.P ,.r.u R @X>XR.+.[ [ 6 , < mXmXmXmXmXmXmXmXmXmXmXmXmXmXmXmXmXmXmXmXmXmXmXmXmXmXmX",
"mXmXmXmXmXmXmXmXmXmXmXmXmXmXmXmXmX> h mXmXx {.{.s n.<.+ 7 =.k.&.o.~ f 5 , > mXmXmXmXmXmXmXmXmXmXmXmXmXmXmXmXmXmXmXmXmXmXmXmXmXmXmX",
"mXmXmXmXmXmXmXmXmXmXmXmXmXmXmXmXmXmXmXmXmXn {.[.>.M.7.+ Y P.U.( E f 8 5 1 < mXmXmXmXmXmXmXmXmXmXmXmXmXmXmXmXmXmXmXmXmXmXmXmXmXmXmX",
"mXmXmXmXmXmXmXmXmXmXmXmXmXmXmXmXmXmXmXmXmXx ).n i M.v.d W 2X2Xo.Y 8 7 5 1 > mXmXmXmXmXmXmXmXmXmXmXmXmXmXmXmXmXmXmXmXmXmXmXmXmXmXmX",
"mXmXmXmXmXmXmXmXmXmXmXmXmXmXmXmXmXmXmXmXmXh j h p 9.d.,.W 2XwX=.7 E Q B n j mXmXmXmXmXmXmXmXmXmXmXmXmXmXmXmXmXmXmXmXmXmXmXmXmXmXmX",
"mXmXmXmXmXmXmXmXmXmXmXmXmXmXmXmXmXmXmXmXmXmXmXmXmXy 0.g T P.3X&.7 / +.B A x mXmXmXmXmXmXmXmXmXmXmXmXmXmXmXmXmXmXmXmXmXmXmXmXmXmXmX",
"mXmXmXmXmXmXmXmXmXmXmXmXmXmXmXmXmXmXmXmXmXmXmXmXmXmX_ _ _ #.#XL.^ { @.B D A 1 mXmXmXmXmXmXmXmXmXmXmXmXmXmXmXmXmXmXmXmXmXmXmXmXmXmX",
"mXmXmXmXmXmXmXmXmXmXmXmXmXmXmXmXmXmXmXmXmXmXmXmXmXmX0.1.5.{ =.&.E T f $ b D v mXmXmXmXmXmXmXmXmXmXmXmXmXmXmXmXmXmXmXmXmXmXmXmXmXmX",
"mXmXmXmXmXmXmXmXmXmXmXmXmXmXmXmXmXmXmXmXmXmXmXmXmX:.a.Z.i.5.{ ! : @ . . 3 S V mXmXmXmXmXmXmXmXmXmXmXmXmXmXmXmXmXmXmXmXmXmXmXmXmXmX",
"mXmXmXmXmXmXmXmXmXmXmXmXmXmXmXmXmXmXmXmXmXmXmXmXmXt.!./.B.s.5.g 9 @ . # B J V mXmXmXmXmXmXmXmXmXmXmXmXmXmXmXmXmXmXmXmXmXmXmXmXmXmX",
"mXmXmXmXmXmXmXmXmXmXmXmXmXmXmXmXmXmXmXmXmXmXmXmX1.~.yX/.C.f.2.g ^ / ( R  .K m mXmXmXmXmXmXmXmXmXmXmXmXmXmXmXmXmXmXmXmXmXmXmXmXmXmX",
"mXmXmXmXmXmXmXmXmXmXmXmXmXmXmXmXmXmXmXmXmXmXmXp.t.Q.^.V.f.t.0.` oXeXeXU. .J G k mXmXmXmXmXmXmXmXmXmXmXmXmXmXmXmXmXmXmXmXmXmXmXmXmX",
"mXmXmXmXmXmXmXmXmXmXmXmXmXmXmXmXmXmXmXmXmXmXb.Q.A.d.n.d.t.e.k.=X&XwXqX%X%.U '.c > mXmXmXmXmXmXmXmXmXmXmXmXmXmXmXmXmXmXmXmXmXmXmXmX",
"mXmXmXmXmXmXmXmXmXmXmXmXmXmXmXmXmXmXmXmXmX4.B.(.^.n.t.4.e.;XsXzXkXaXqX:X+X%.K v ; mXmXmXmXmXmXmXmXmXmXmXmXmXmXmXmXmXmXmXmXmXmXmXmX",
"mXmXmXmXmXmXmXmXmXmXmXmXmXmXmXmXmXmXmXmXmX2.p.D.S.m.t.w.;XdXzXxXzXsXqXqX*X%.K V < mXmXmXmXmXmXmXmXmXmXmXmXmXmXmXmXmXmXmXmXmXmXmXmX",
"mXmXmXmXmXmXmXmXmXmXmXmXmXmXmXmXmXmXmXmXmX2.r.M.m.s.r.z.aXbXxXlXfXaXlXjX&X .J _.m > mXmXmXmXmXmXmXmXmXmXmXmXmXmXmXmXmXmXmXmXmXmXmX",
"mXmXmXmXmXmXmXmXmXmXmXmXmXmXmXmXmXmXmXmXmXe.5.4.2.2.q.Y.pXjXxXxXzXzXvXaX=.L '..XS < mXmXmXmXmXmXmXmXmXmXmXmXmXmXmXmXmXmXmXmXmXmXmX",
"mXmXmXmXmXmXmXmXmXmXmXmXmXmXmXmXmXmXmXmXmX*.l.l.l.l.-X9X6X0XfXzXxXvXfX*.M D `._.F c mXmXmXmXmXmXmXmXmXmXmXmXmXmXmXmXmXmXmXmXmXmXmX",
"mXmXmXmXmXmXmXmXmXmXmXmXmXmXmXmXmXmXmXmXmX@X6XiXhXdXkXlXpX6X&X5XqXqX*.M > v F |.`.G h mXmXmXmXmXmXmXmXmXmXmXmXmXmXmXmXmXmXmXmXmXmX",
"mXmXmXmXmXmXmXmXmXmXmXmXmXmXmXmXmXmXmXmXmX+XiXxXcXcXxXlXlXpXoXo.=.o.B < > > V _.|.F c mXmXmXmXmXmXmXmXmXmXmXmXmXmXmXmXmXmXmXmXmXmX",
"mXmXmXmXmXmXmXmXmXmXmXmXmXmXmXmXmXmXmXmXmX@XqXlXcXzXfXaXsX6X%XOX&.-.^ z > < c '.|._.D h mXmXmXmXmXmXmXmXmXmXmXmXmXmXmXmXmXmXmXmXmX",
"mXmXmXmXmXmXmXmXmXmXmXmXmXmXmXmXmXmXmXmXmXmX%XfXzXxXxXzXgX6XoX6X0X%X=.! 2 3 , S .X|.F j mXmXmXmXmXmXmXmXmXmXmXmXmXmXmXmXmXmXmXmXmX",
"mXmXmXmXmXmXmXmXmXmXmXmXmXmXmXmXmXmXmXmXmXmXmX0XgXjXgX0X=.*.0XqX5X&X%X-.y r r N }.}.|.D k mXmXmXmXmXmXmXmXmXmXmXmXmXmXmXmXmXmXmXmX",
"mXmXmXmXmXmXmXmXmXmXmXmXmXmXmXmXmXmXmXmXmXmXmXmX0XgXpX&X6XaXxXgX6X6X9X-X6.4.1.u p N _.`.v mXmXmXmXmXmXmXmXmXmXmXmXmXmXmXmXmXmXmXmX",
"mXmXmXmXmXmXmXmXmXmXmXmXmXmXmXmXmXmXmXmXmXmXmXmXmXpXpXpXzXcXzXfX0X0XdXrXZ.m.u.1.1.p J |.G k mXmXmXmXmXmXmXmXmXmXmXmXmXmXmXmXmXmXmX",
"mXmXmXmXmXmXmXmXmXmXmXmXmXmXmXmXmXmXmXmXmXmXmXmXmX$X0XlXvXzXaX9X0XfXnXrXD.V.p.i.u.p F .X'.Z k mXmXmXmXmXmXmXmXmXmXmXmXmXmXmXmXmXmX",
"mXmXmXmXmXmXmXmXmXmXmXmXmXmXmXmXmXmXmXmXmXmXmXmXmX-.%XaXzXaX5X6XfXzXdX<XD.S.v.n.c.p  X|.|.`.Z h > mXmXmXmXmXmXmXmXmXmXmXmXmXmXmXmX",
"mXmXmXmXmXmXmXmXmXmXmXmXmXmXmXmXmXmXmXmXmXmXmXmXmX@XOX%XqX&X%.*XfXqX$Xl.Z.N.p.M.c.a F _._._.).A > mXmXmXmXmXmXmXmXmXmXmXmXmXmXmXmX",
"mXmXmXmXmXmXmXmXmXmXmXmXmXmXmXmXmXmXmXmXmXmXmXmXmXmXOX$X=.X.X.O.X.X.X.' 6.t.r.n.x.q 1 D `.).H b < mXmXmXmXmXmXmXmXmXmXmXmXmXmXmXmX",
"mXmXmXmXmXmXmXmXmXmXmXmXmXmXmXmXmXmXmXmXmXmXmXmXmXmX` o.&.&.&.&.X. .) y r t :.r.4.r mXj D [.C < mXmXmXmXmXmXmXmXmXmXmXmXmXmXmXmXmX",
"mXmXmXmXmXmXmXmXmXmXmXmXmXmXmXmXmXmXmXmXmXmXmXmXmX- u <.8.8.5.u 4 z : o . X q ,.,.w mXmXh k h mXmXmXmXmXmXmXmXmXmXmXmXmXmXmXmXmXmX",
"mXmXmXmXmXmXmXmXmXmXmXmXmXmXmXmXmXmXmXmXmXmXmXmX  % ;.i.N.N.y.r O @ @       . 0 r w mXmXmXmXmXmXmXmXmXmXmXmXmXmXmXmXmXmXmXmXmXmXmX",
"mXmXmXmXmXmXmXmXmXmXmXmXmXmXmXmXmXmXmXmXmXmX    o q ,.y.p.n.r.r o             . & q .   mXmXmXmXmXmXmXmXmXmXmXmXmXmXmXmXmXmXmXmXmX",
"mXmXmXmXmXmXmXmXmXmXmXmXmXmXmXmXmXmXmXmXmX    o w ,.i.p.u.r.,.q X               X %       mXmXmXmXmXmXmXmXmXmXmXmXmXmXmXmXmXmXmXmX",
"mXmXmXmXmXmXmXmXmXmXmXmXmXmXmXmXmXmXmXmX    . q ;.1.u.v.x.3.w X                             mXmXmXmXmXmXmXmXmXmXmXmXmXmXmXmXmXmXmX",
"mXmXmXmXmXmXmXmXmXmXmXmXmXmXmXmXmXmXmX      . & q q q w w w q o                               mXmXmXmXmXmXmXmXmXmXmXmXmXmXmXmXmXmX",
"mXmXmXmXmXmXmXmXmXmXmXmXmXmXmXmXmXmXmX          . .                                           mXmXmXmXmXmXmXmXmXmXmXmXmXmXmXmXmXmX",
"mXmXmXmXmXmXmXmXmXmXmXmXmXmXmXmXmXmXmXmX                                                  mXmXmXmXmXmXmXmXmXmXmXmXmXmXmXmXmXmXmXmX"
};
