/* XPM */
static char *result[] = {
/* columns rows colors chars-per-pixel */
"65 65 240 2 ",
"   c #000000",
".  c #0A0601",
"X  c #050608",
"o  c #130901",
"O  c #040118",
"+  c #191918",
"@  c #281300",
"#  c #371B01",
"$  c #31110F",
"%  c #3A221C",
"&  c #05052A",
"*  c #1C1524",
"=  c #010134",
"-  c #03023B",
";  c #0A0838",
":  c #181738",
">  c #140F33",
",  c #2C2D2D",
"<  c #252524",
"1  c #262837",
"2  c #343433",
"3  c #3B3B3C",
"4  c #34363B",
"5  c #352E30",
"6  c #231D2B",
"7  c #4D1D1B",
"8  c #492200",
"9  c #542B00",
"0  c #462719",
"q  c #5C3317",
"w  c #5B2C17",
"e  c #6B3300",
"r  c #773705",
"t  c #683817",
"y  c #692D0E",
"u  c #441C28",
"i  c #583D28",
"p  c #443B35",
"a  c #4F2F33",
"s  c #6E3026",
"d  c #4D4339",
"f  c #6A4727",
"g  c #714E33",
"h  c #796022",
"j  c #754B00",
"k  c #050044",
"l  c #04004A",
"z  c #0A024B",
"x  c #0B0546",
"c  c #161447",
"v  c #0B0352",
"b  c #0B015B",
"n  c #030053",
"m  c #11005C",
"M  c #110B57",
"N  c #1A1953",
"B  c #39125B",
"V  c #1F2243",
"C  c #212344",
"Z  c #2B2B45",
"A  c #373A4A",
"S  c #3B3D53",
"D  c #292B50",
"F  c #070562",
"G  c #170567",
"H  c #011161",
"J  c #1C0374",
"K  c #1D017B",
"L  c #150270",
"P  c #271677",
"I  c #2B1071",
"U  c #372D73",
"Y  c #531C48",
"T  c #423B5D",
"R  c #622547",
"E  c #411260",
"W  c #453A6B",
"Q  c #4B4C4C",
"!  c #484847",
"~  c #514F44",
"^  c #55544C",
"/  c #494A54",
"(  c #545453",
")  c #54545A",
"_  c #5B5C5B",
"`  c #575959",
"'  c #4F5149",
"]  c #645E56",
"[  c #705A4C",
"{  c #64635C",
"}  c #6A6757",
"|  c #716C5B",
" . c #77735E",
".. c #4C4366",
"X. c #5B5C64",
"o. c #504E6E",
"O. c #636363",
"+. c #6B6A66",
"@. c #6C6C6B",
"#. c #666769",
"$. c #757365",
"%. c #74736C",
"&. c #7C7A6C",
"*. c #7D7865",
"=. c #6A6A72",
"-. c #737373",
";. c #7B7A73",
":. c #7C7C7B",
">. c #767677",
",. c #6D716D",
"<. c #615B72",
"1. c #883A02",
"2. c #953E00",
"3. c #883C33",
"4. c #8C4205",
"5. c #9D4501",
"6. c #954508",
"7. c #A44501",
"8. c #AB4A01",
"9. c #A94A04",
"0. c #B44A02",
"q. c #A85501",
"w. c #B35300",
"e. c #B65900",
"r. c #B05819",
"t. c #BC6605",
"y. c #B86717",
"u. c #B06E0C",
"i. c #9C643A",
"p. c #AB6A37",
"a. c #8E6825",
"s. c #C65703",
"d. c #D85B00",
"f. c #C84E00",
"g. c #E05B00",
"h. c #C96901",
"j. c #DD6401",
"k. c #D66702",
"l. c #D67A02",
"z. c #C66C0B",
"x. c #E66A01",
"c. c #E77900",
"v. c #F67705",
"b. c #8F7054",
"n. c #817D68",
"m. c #A7725E",
"M. c #7D8077",
"N. c #BE8400",
"B. c #BB8828",
"V. c #D88502",
"C. c #CD891A",
"Z. c #E68601",
"A. c #F88B00",
"S. c #EA9603",
"D. c #FA9600",
"F. c #F28B1F",
"G. c #E5A703",
"H. c #FCA300",
"J. c #FCAB00",
"K. c #F7AF09",
"L. c #EE8F2C",
"P. c #F7AF2C",
"I. c #FCC619",
"U. c #FBD839",
"Y. c #FBC923",
"T. c #8C866A",
"R. c #82847E",
"E. c #8B8877",
"W. c #928D78",
"Q. c #95917C",
"!. c #9C9676",
"~. c #97906F",
"^. c #A39C79",
"/. c #A38660",
"(. c #ABA37C",
"). c #B3AA7D",
"_. c #C88341",
"`. c #FBD649",
"'. c #FCE14B",
"]. c #FBE471",
"[. c #FBDB77",
"{. c #1D0183",
"}. c #1A018A",
"|. c #111D9B",
" X c #160792",
".X c #210282",
"XX c #230888",
"oX c #290695",
"OX c #2A0D9B",
"+X c #260B96",
"@X c #370E97",
"#X c #2E0DA2",
"$X c #3211AC",
"%X c #300CA4",
"&X c #1412B4",
"*X c #797C81",
"=X c #7D8183",
"-X c #858584",
";X c #8B8B8B",
":X c #898985",
">X c #928B86",
",X c #999588",
"<X c #949493",
"1X c #9B9B9B",
"2X c #96979C",
"3X c #8E9191",
"4X c #A19C89",
"5X c #B0998D",
"6X c #9FA197",
"7X c #A9A38A",
"8X c #B1AA85",
"9X c #B2AD98",
"0X c #BCB79C",
"qX c #AFAB98",
"wX c #A5A5A4",
"eX c #ACACAC",
"rX c #A7ACAF",
"tX c #B1AFA8",
"yX c #B8B6AB",
"uX c #B4B4B3",
"iX c #BCBCBC",
"pX c #B7B8BD",
"aX c #AFB3B5",
"sX c #C5B7A7",
"dX c #C0BEB3",
"fX c #FCE585",
"gX c #C9C7BE",
"hX c #C3C3C3",
"jX c #CBCBCB",
"kX c #C9C9C9",
"lX c #CDD2D5",
"zX c #D4D4D4",
"xX c #DCDCDC",
"cX c #CECED0",
"vX c #E4E4E4",
"bX c #ECECEC",
"nX c #F4F4F4",
"mX c #FBFBFB",
"MX c #EFF5F8",
"NX c None",
/* pixels */
"NXNXNXNXNXNXNXNXNXNXNXNXNXNXNXNXNXNXNXNXNXNXNXNXNXNXNXNXNXNX( ( ` ` ( ( ( ( ( ( NXNXNXNXNXNXNXNXNXNXNXNXNXNXNXNXNXNXNXNXNXNXNXNXNX",
"NXNXNXNXNXNXNXNXNXNXNXNXNXNXNXNXNXNXNXNXNXNXNXNXNXNXNXNXNXNXT.!.wXeX4X~.!.~.;.,.NX, NXNXNXNXNXNXNXNXNXNXNXNXNXNXNXNXNXNXNXNXNXNXNX",
"NXNXNXNXNXNXNXNXNXNXNXNXNXNXNXNXNXNXNXNXNXNXNXNXNXNXNX| >X,X).(.R.:.$.| | } ` ) | $.Q NXNXNXNXNXNXNXNXNXNXNXNXNXNXNXNXNXNXNXNXNXNX",
"NXNXNXNXNXNXNXNXNXNXNXNXNXNXNXNXNXNXNXNXNXNXNXNXNXNX:.4X0X0X(. .NXNXNXNXNXNXNXNX} n.+.} NXNXNXNXNXNXNXNXNXNXNXNXNXNXNXNXNXNXNXNXNX",
"NXNXNXNXNXNXNXNXNXNXNXNXNXNXNXNXNXNXNXNXNXNXNXNXNX:.tX8X^.!. .NXNXNXNXNXNXNXNXNXNX3 { n.( NXNXNXNXNXNXNXNXNXNXNXNXNXNXNXNXNXNXNXNX",
"NXNXNXNXNXNXNXNXNXNXNXNXNXNXNXNXNXNXNXNXNXNXNXNX:.yX8X^.W.{ 3 NXNXNXNXNXNXNXNXNXNXNX3 ` %.' NXNXNXNXNXNXNXNXNXNXNXNXNXNXNXNXNXNXNX",
"NXNXNXNXNXNXNXNXNXNXNXNXNXNXNXNXNXNXNXNXNXNXNXNXtX8X^.E.:.O.3 2 NXNXNXNXNXNXNXNXNXNXNX~ T.^ NXNXNXNXNXNXNXNXNXNXNXNXNXNXNXNXNXNXNX",
"NXNXNXNXNXNXNXNXNXNXNXNXNXNXNXNXNXNXNXNXNXNXNX2XyX7XT.:.( / #.O.NXNXNXNXNXNXNXNXNXNXNX3 ~ NXNXNXNXNXNXNXNXNXNXNXNXNXNXNXNXNXNXNXNX",
"NXNXNXNXNXNXNXNXNXNXNXNXNXNXNXNXNXNXNXNXNXNXNXpXdX7X;.#.| T.,X#.< + NXNXNXNXNXNXNXNXNXNXNXNXNXNXNXNXNXNXNXNXNXNXNXNXNXNXNXNXNXNXNX",
"NXNXNXNXNXNXNXNXNXNXNXNXNXNXNXNXNXNXNXNXNXNX3XkXsX^.&.&.^.~. .&.! , NXNXNXNXNXNXNXNXNXNXNXNXNXNXNXNXNXNXNXNXNXNXNXNXNXNXNXNXNXNXNX",
"NXNXNXNXNXNXNXNXNXNXNXNXNXNXNXNXNXNXNXNXNXNXE.hXjX9XE.E.(.T.&.!.E.X.NXNXNXNXNXNXNXNXNXNXNXNXNXNXNXNXNXNXNXNXNXNXNXNXNXNXNXNXNXNXNX",
"NXNXNXNXNXNXNXNXNXNXNXNXNXNXNXNXNXNXNXNXNXNXn.7XdXdXqXQ.E.7X0XQ.%.-.( NXNXNXNXNXNXNXNXNXNXNXNXNXNXNXNXNXNXNXNXNXNXNXNXNXNXNXNXNXNX",
"NXNXNXNXNXNXNXNXNXNXNXNXNXNXNXNXNXNXNXNXNX<X:.( { ,XyX7X| *.!.{ Q O.` NXNXNXNXNXNXNXNXNXNXNXNXNXNXNXNXNXNXNXNXNXNXNXNXNXNXNXNXNXNX",
"NXNXNXNXNXNXNXNXNXNXNXNXNXNXNXNXNXNXNXNXNXX.` Q ' { { 2 ,  .T.%.*._ 3 NXNXNXNXNXNXNXNXNXNXNXNXNXNXNXNXNXNXNXNXNXNXNXNXNXNXNXNXNXNX",
"NXNXNXNXNXNXNXNXNXNXNXNXNXNXNXNXNXNXNXNXNXNXNX! O.-.2   d  .>X;Xd < 3 NXNXNXNXNXNXNXNXNXNXNXNXNXNXNXNXNXNXNXNXNXNXNXNXNXNXNXNXNXNX",
"NXNXNXNXNXNXNXNXNXNXNXNXNXNXNXNXNXNXNXNXNXNXNX` =X=X< + T.T.-.R.} d NXNXNXNXNXNXNXNXNXNXNXNXNXNXNXNXNXNXNXNXNXNXNXNXNXNXNXNXNXNXNX",
"NXNXNXNXNXNXNXNXNXNXNXNXNXNXNXNXNXNXNXNXNXNX%.W.,XQ.+.:X,X&.O.O.} ~ NXNXNXNXNXNXNXNXNXNXNXNXNXNXNXNXNXNXNXNXNXNXNXNXNXNXNXNXNXNXNX",
"NXNXNXNXNXNXNXNXNXNXNXNXNXNXNXNXNXNXNXNXNXNX| ~.^.7XwXeX:X;.;.O.Q ! NXNXNXNXNXNXNXNXNXNXNXNXNXNXNXNXNXNXNXNXNXNXNXNXNXNXNXNXNXNXNX",
"NXNXNXNXNXNXNXNXNXNXNXNXNXNXNXNXNXNXNXNXNXNX( { ,XeX:X>.-.;.W.:X@.! NXNXNXNXNXNXNXNXNXNXNXNXNXNXNXNXNXNXNXNXNXNXNXNXNXNXNXNXNXNXNX",
"NXNXNXNXNXNXNXNXNXNXNXNXNXNXNXNXNXNXNXNXNXNXNX| 7XuX-X@.O.( ;.wX;X' NXNXNXNXNXNXNXNXNXNXNXNXNXNXNXNXNXNXNXNXNXNXNXNXNXNXNXNXNXNXNX",
"NXNXNXNXNXNXNXNXNXNXNXNXNXNXNXNXNXNXNXNXNXNXNX .).7XR.( _ _ ` &.Q.T.NXNX1 - NXNXNXNXNXNXNXNXNXNXNXNXNXNXNXNXNXNXNXNXNXNXNXNXNXNXNX",
"NXNXNXNXNXNXNXNXNXNXNXNXNXNXNXNXNXNXNXNXNXNXNXNX*.*.{ Q +.%./ Z S / ! , , > = NXNXNXNXNXNXNXNXNXNXNXNXNXNXNXNXNXNXNXNXNXNXNXNXNXNX",
"NXNXNXNXNXNXNXNXNXNXNXNXNXNXNXNXNXNXNXNXNXNXNXNXNXNX1 1 S S V ; > 4 ! ^ } ( : = NXNXNXNXNXNXNXNXNXNXNXNXNXNXNXNXNXNXNXNXNXNXNXNXNX",
"NXNXNXNXNXNXNXNXNXNXNXNXNXNXNXNXNXNXNXNXNXNXNXNXNXNX- M v ; = ; 5 p { 4X>XO.! 1 = NXNXNXNXNXNXNXNXNXNXNXNXNXNXNXNXNXNXNXNXNXNXNXNX",
"NXNXNXNXNXNXNXNXNXNXNXNXNXNXNXNXNXNXNXNXNXNXk v k & = L m ; c u r f ,.0X4X{ +.( : & NXNXNXNXNXNXNXNXNXNXNXNXNXNXNXNXNXNXNXNXNXNXNX",
"NXNXNXNXNXNXNXNXNXNXNXNXNXNXNXNXNXNXNXNXNXk m J G k k z k D [ r.7.i ` Q.^.W.>.,./ : ; NXNXNXNXNXNXNXNXNXNXNXNXNXNXNXNXNXNXNXNXNXNX",
"NXNXNXNXNXNXNXNXNXNXNXNXNXNXNXNXNXNXNXNX- b b z v J XXz - 5 y.x.9.i A _ R.E.>.` ` ( : - NXNXNXNXNXNXNXNXNXNXNXNXNXNXNXNXNXNXNXNXNX",
"NXNXNXNXNXNXNXNXNXNXNXNXNXNXNXNXNXNXNXNX- n = X z +XOXv S 3.s.k.r w i A X.M.Q.>X:XT.( c - NXNXNXNXNXNXNXNXNXNXNXNXNXNXNXNXNXNXNXNX",
"NXNXNXNXNXNXNXNXNXNXNXNXNXNXNXNXNXNXNXNX7 7 a 1 M OXXXl p B.Z.5.@ @ t t f ( %.yXgX,X#.0 * ; NXNXNXNXNXNXNXNXNXNXNXNXNXNXNXNXNXNXNX",
"NXNXNXNXNXNXNXNXNXNXNXNXNXNXNX5.0.f.0.4.t.s.p.d M }.K N s V.K.N.j e 6.s.6.i 4 *XaX3Xa.9.6.% - NXNXNXNXNXNXNXNXNXNXNXNXNXNXNXNXNXNX",
"NXNXNXNXNXNXNXNXNXNXNXNXNXNX8.8.k.F.L.y.V.A.k.w z F M X.b.h.Z.G.l.k.g.d.r.s > Z ] p._.P.c.5.% NXNXNXNXNXNXNXNXNXNXNXNXNXNXNXNXNXNX",
"NXNXNXNXNXNXNXNXNXNXNXNXNXNX7.d.A.`.[.L.h.Z.h.q c > 5 *.W.b.y.y.r.z.y.i.[ 5 ; & w V.U.fXP.G.q.NXNXNXNXNXNXNXNXNXNXNXNXNXNXNXNXNXNX",
"NXNXNXNXNXNXNXNXNXNXNXNXNXNX8.d.A.Y.U.K.e.k.t.f / 4 2 ~ 3X7X/.b.b.n.b.{ 4 > b z y c.I.].[.P.c.0.NXNXNXNXNXNXNXNXNXNXNXNXNXNXNXNXNX",
"NXNXNXNXNXNXNXNXNXNXNXNXNXNX8.0.x.D.J.Z.q.5.1.f ' NXNX, E.Q.%.-X=X+.` 4 X O L J a s.D.I.`.P.d.7.0 NXNXNXNXNXNXNXNXNXNXNXNXNXNXNXNX",
"NXNXNXNXNXNXNXNXNXNXNXNXNXNXNX7.9.e.t.e.NXNXNXNXNXNXNXNX( ' A 4 3 < + X   O L XXB 3.x.A.D.A.j.e.6.7 NXNXNXNXNXNXNXNXNXNXNXNXNXNXNX",
"NXNXNXNXNXNXNXNXNXNXNXNXNXNXNXNX4.NXNXNXNXNXNXNXNXNXNXa.h f 0 .         . : J }.{.R w.g.A.J.D.v.d.8.NXNXNXNXNXNXNXNXNXNXNXNXNXNXNX",
"NXNXNXNXNXNXNXNXNXNXNXNXNXNXNXNXNXNXNXNXNXNXNXNXNXNXw.V.l.s.e .       + ( =.U {.{.B r e.K.U.Y.D.x.5.NXNXNXNXNXNXNXNXNXNXNXNXNXNXNX",
"NXNXNXNXNXNXNXNXNXNXNXNXNXNXNXNXNXNXNXNXNXNXNXNXNXNXw.Z.c.s.1.% , , , -.hXeX<.P {.K Y e.P.].'.J.l.s - NXNXNXNXNXNXNXNXNXNXNXNXNXNX",
"NXNXNXNXNXNXNXNXNXNXNXNXNXNXNXNXNXNXNXNXNXNXNXNXNXNX9.V.S.k.p.,XrXeXuXzXzX6X#.P {.}.E r.v.P.P.V.3.I k NXNXNXNXNXNXNXNXNXNXNXNXNXNX",
"NXNXNXNXNXNXNXNXNXNXNXNXNXNXNXNXNXNXNXNXNXNXNXNXNXNXb.y.z._.sXzXbXmXmXxX1XM.X.P }..XK R 0.z.t.3.%X#Xk NXNXNXNXNXNXNXNXNXNXNXNXNXNX",
"NXNXNXNXNXNXNXNXNXNXNXNXNXNXNXNXNXNXNXNXNXNXNXNXNXNXNX5Xm.5XlXlXjXvXnXhX>.+.@.o.P {.}.J u 7 u I &XOXG NXNXNXNXNXNXNXNXNXNXNXNXNXNX",
"NXNXNXNXNXNXNXNXNXNXNXNXNXNXNXNXNXNXNXNXNXNXNXNXNXNXzXMXzXuXiXkXiXjXxXwX@.>.:X-...XX.XL k = - H |.OXK k NXNXNXNXNXNXNXNXNXNXNXNXNX",
"NXNXNXNXNXNXNXNXNXNXNXNXNXNXNXNXNXNXNXNXNXNXNXNXNXeXbXmXnXkXeXwXeXhXeX,.=.wXrXn.X.W }.L - = = H |.%X.Xz NXNXNXNXNXNXNXNXNXNXNXNXNX",
"NXNXNXNXNXNXNXNXNXNXNXNXNXNXNXNXNXNXNXNXNXNXNXNXNXvXnXnXnXbXeX-X<XuX2X#.>.rXuX=X_ ..XXJ z = = H |.$XOXz NXNXNXNXNXNXNXNXNXNXNXNXNX",
"NXNXNXNXNXNXNXNXNXNXNXNXNXNXNXNXNXNXNXNXNXNXNXNX3XzXnXbXnXbXkX1X:X;X>.-.wXdXhXwX:.#.W .XL k = H |.$XOXv NXNXNXNXNXNXNXNXNXNXNXNXNX",
"NXNXNXNXNXNXNXNXNXNXNXNXNXNXNXNXNXNXNXNXNXNXNXNX-XpXbXnXvXzXzXiX<X>.#.>.uXzXzXhXwX:.W .XK z = b +X$XOXv NXNXNXNXNXNXNXNXNXNXNXNXNX",
"NXNXNXNXNXNXNXNXNXNXNXNXNXNXNXNXNXNXNXNXNXNXNXNXdXzXxXzXkXpXuXuX-X#.%.-XeXzXzXhXiX<XX.W J k & m +X$XOXv NXNXNXNXNXNXNXNXNXNXNXNXNX",
"NXNXNXNXNXNXNXNXNXNXNXNXNXNXNXNXNXNXNXNXNXNXNXjXmXmXxXpXuX1X;X:X#.` ;XeXeXpXuXuXiXeXR.=.U x = m oX$XOXz NXNXNXNXNXNXNXNXNXNXNXNXNX",
"NXNXNXNXNXNXNXNXNXNXNXNXNXNXNXNXNXNXNXNXNXNXuXvXbXbXxXcXpX:X>.-.) ) <XhXhXeXwXeXuXeX2XR.+.Z ; b oX$XOXv NXNXNXNXNXNXNXNXNXNXNXNXNX",
"NXNXNXNXNXNXNXNXNXNXNXNXNXNXNXNXNXNXNXNXNXNXkXvXzXjXkXdXuX1X:X) : A ;.eXzXzXkXhXuXwXwX1XM.X.V b oX$X+Xz NXNXNXNXNXNXNXNXNXNXNXNXNX",
"NXNXNXNXNXNXNXNXNXNXNXNXNXNXNXNXNXNXNXNXNXNXjXbXzXhXhXhXwX<X:X) ; ; S <XjXxXxXzXzXhXuX1XM.O.V n OX#XK z NXNXNXNXNXNXNXNXNXNXNXNXNX",
"NXNXNXNXNXNXNXNXNXNXNXNXNXNXNXNXNXNXNXNXNXNXkXbXxXjXhXeX1XR.<.I k = Z :XeXkXzXxXxXcXpX2X:.O.V b oX#XJ k NXNXNXNXNXNXNXNXNXNXNXNXNX",
"NXNXNXNXNXNXNXNXNXNXNXNXNXNXNXNXNXNXNXNXNXwXeXpXzXcXeX-X@.%.T M NXNXc / M.3X6XjXxXcXiX1X=XO.V b oX#XK k NXNXNXNXNXNXNXNXNXNXNXNXNX",
"NXNXNXNXNXNXNXNXNXNXNXNXNXNXNXNXNXNXNXNXNXuXiXwXaXkXuX=X@.-./ NXNXNX- c W O.:XiXzXjXuX:X@.d > b oX#XK k NXNXNXNXNXNXNXNXNXNXNXNXNX",
"NXNXNXNXNXNXNXNXNXNXNXNXNXNXNXNXNXNXNXNXNXNXvXzXuXjXjXeXwX-XNXNXNXNX- l P o.;XeXhXpX<X@.d o O G oX#XK k NXNXNXNXNXNXNXNXNXNXNXNXNX",
"NXNXNXNXNXNXNXNXNXNXNXNXNXNXNXNXNXNXNXNXNXNX,XzXnXxXhXhXwXNXNXNXNXNXNX= l G ..-XeX,Xb.g r @ & G oX#XL k NXNXNXNXNXNXNXNXNXNXNXNXNX",
"NXNXNXNXNXNXNXNXNXNXNXNXNXNXNXNXNXNXNXNXNXNXg >XjXlXpX1X#.NXNXNXNXNXNX& = = ; / | p.d.s.j.4.* F +XXXk NXNXNXNXNXNXNXNXNXNXNXNXNXNX",
"NXNXNXNXNXNXNXNXNXNXNXNXNXNXNXNXNXNXNX8.8.l.Z.p.;.-.( 3 + X             X X O 0 4.9.h.S.c.4.* F J z NXNXNXNXNXNXNXNXNXNXNXNXNXNXNX",
"NXNXNXNXNXNXNXNXNXNXNXNXNXNXNXNXNX1.w.V.x.c.H.G.C.y.t + X                   . 8 w.c.S.c.q.NX* n z NXNXNXNXNXNXNXNXNXNXNXNXNXNXNXNX",
"NXNXNXNXNXNXNXNXNXNXNXNXNXNXNXNXNXe q.S.D.J.H.S.h.1.# .                     . e h.l.q.5.NXNXNXNXNXNXNXNXNXNXNXNXNXNXNXNXNXNXNXNXNX",
"NXNXNXNXNXNXNXNXNXNXNXNXNXNXNXNXNXNXr w.t.G.D.v.0.8 o                     . @ e 9.e @ @ NXNXNXNXNXNXNXNXNXNXNXNXNXNXNXNXNXNXNXNXNX",
"NXNXNXNXNXNXNXNXNXNXNXNXNXNXNXNXNXNXNX# # 4.l.V.q.8 .                     o # 8 # @       NXNXNXNXNXNXNXNXNXNXNXNXNXNXNXNXNXNXNXNX",
"NXNXNXNXNXNXNXNXNXNXNXNXNXNXNXNXNXNX      # 8 9 # o                                         NXNXNXNXNXNXNXNXNXNXNXNXNXNXNXNXNXNXNX",
"NXNXNXNXNXNXNXNXNXNXNXNXNXNXNXNXNXNX        .   .                                           NXNXNXNXNXNXNXNXNXNXNXNXNXNXNXNXNXNXNX",
"NXNXNXNXNXNXNXNXNXNXNXNXNXNXNXNXNXNXNXNX                                                  NXNXNXNXNXNXNXNXNXNXNXNXNXNXNXNXNXNXNXNX"
};
