/* XPM */
static char *result[] = {
/* columns rows colors chars-per-pixel */
"65 65 227 2 ",
"   c #010100",
".  c #0B0703",
"X  c #1D0E00",
"o  c #150A05",
"O  c #020415",
"+  c #1B1714",
"@  c #250E01",
"#  c #271403",
"$  c #371B00",
"%  c #291919",
"&  c #292619",
"*  c #00002D",
"=  c #000027",
"-  c #1D0F28",
";  c #16122D",
":  c #010135",
">  c #0C0C33",
",  c #01013A",
"<  c #0C0B39",
"1  c #140D35",
"2  c #0A113A",
"3  c #131335",
"4  c #18193C",
"5  c #22112B",
"6  c #30152F",
"7  c #2D2C2C",
"8  c #2A2A35",
"9  c #3B3B3C",
"0  c #363637",
"q  c #422100",
"w  c #572900",
"e  c #582D11",
"r  c #662B00",
"t  c #693201",
"y  c #773701",
"u  c #421B21",
"i  c #53372D",
"p  c #784B00",
"a  c #73531A",
"s  c #574B39",
"d  c #42413D",
"f  c #744E35",
"g  c #040245",
"h  c #00094B",
"j  c #09014C",
"k  c #131548",
"l  c #010B51",
"z  c #0F025B",
"x  c #090657",
"c  c #10015C",
"v  c #00105E",
"b  c #1F2040",
"n  c #252546",
"m  c #353545",
"M  c #2F2F51",
"N  c #0E0063",
"B  c #000E6C",
"V  c #0F0768",
"C  c #140164",
"Z  c #15016A",
"A  c #180468",
"S  c #03116A",
"D  c #1C0779",
"F  c #001873",
"G  c #06197F",
"H  c #272C61",
"J  c #413440",
"K  c #403471",
"L  c #444344",
"P  c #4C4C4D",
"I  c #4A4A45",
"U  c #56544B",
"Y  c #4C4D57",
"T  c #545454",
"R  c #565658",
"E  c #5B5B5C",
"W  c #5B5B55",
"Q  c #64534A",
"!  c #635B4B",
"~  c #605F57",
"^  c #715549",
"/  c #69644A",
"(  c #6D6A5A",
")  c #676558",
"_  c #716D59",
"`  c #79745C",
"'  c #7F6645",
"]  c #5E5F62",
"[  c #5C656A",
"{  c #636362",
"}  c #65666A",
"|  c #6E6E6C",
" . c #6A6966",
".. c #716F69",
"X. c #75736C",
"o. c #7A7866",
"O. c #737373",
"+. c #76757A",
"@. c #7C7C7C",
"#. c #7A7B75",
"$. c #6F7171",
"%. c #8C3A02",
"&. c #853A05",
"*. c #8C4208",
"=. c #9C4400",
"-. c #9A4505",
";. c #8F4517",
":. c #98530E",
">. c #A94C04",
",. c #B95301",
"<. c #AB570D",
"1. c #B56B0C",
"2. c #8B5C2B",
"3. c #865333",
"4. c #BA5D28",
"5. c #A85D2D",
"6. c #926438",
"7. c #BD692F",
"8. c #C45800",
"9. c #D25D00",
"0. c #C54F01",
"q. c #CA6604",
"w. c #D96A02",
"e. c #D97702",
"r. c #C46918",
"t. c #CC770D",
"y. c #E66B01",
"u. c #E77A00",
"i. c #C77024",
"p. c #8C6B42",
"a. c #926446",
"s. c #977653",
"d. c #AC7851",
"f. c #837F6B",
"g. c #817D66",
"h. c #847D73",
"j. c #927062",
"k. c #9C8136",
"l. c #A4923E",
"z. c #C98500",
"x. c #DB8809",
"c. c #F78800",
"v. c #EB9900",
"b. c #F5950A",
"n. c #EBA903",
"m. c #F8AB03",
"M. c #F8B900",
"N. c #FEB71E",
"B. c #D7843D",
"V. c #EA8322",
"C. c #F9AD2C",
"Z. c #FCCA05",
"A. c #AF8249",
"S. c #89846A",
"D. c #918A68",
"F. c #868474",
"G. c #898574",
"H. c #8C8973",
"J. c #84837C",
"K. c #8E8B7C",
"L. c #888878",
"P. c #918C77",
"I. c #9B9574",
"U. c #99947A",
"Y. c #9C956F",
"T. c #A29B77",
"R. c #B28E72",
"E. c #ABA37B",
"W. c #DEA55C",
"Q. c #F7DC56",
"!. c #FBEE42",
"~. c #F7CE73",
"^. c #FFE068",
"/. c #091884",
"(. c #10138B",
"). c #1F0F8D",
"_. c #270B98",
"`. c #2414A4",
"'. c #3009A5",
"]. c #7E8083",
"[. c #838384",
"{. c #8B8B8A",
"}. c #888885",
"|. c #979588",
" X c #8D9192",
".X c #939393",
"XX c #9B9B9B",
"oX c #9A9994",
"OX c #968F8B",
"+X c #AAA587",
"@X c #B2AC88",
"#X c #A4A298",
"$X c #B8B39A",
"%X c #B6B092",
"&X c #9B9EA1",
"*X c #9FA2A6",
"=X c #A4A4A3",
"-X c #ABABAB",
";X c #A9A9A5",
":X c #B2AFA6",
">X c #B1AFA9",
",X c #B9B7A9",
"<X c #AFAFB1",
"1X c #B4B4B4",
"2X c #BABABB",
"3X c #B7B7B7",
"4X c #ACB4BB",
"5X c #C4BFB8",
"6X c #CDB5A9",
"7X c #FBE68B",
"8X c #D0C7BA",
"9X c #E4CDBF",
"0X c #FBFAA2",
"qX c #C4C4C5",
"wX c #CBCBCA",
"eX c #C8CDD2",
"rX c #D9DADA",
"tX c #D5D5D5",
"yX c #D0CFC6",
"uX c #E6DDDA",
"iX c #E3E3E3",
"pX c gray93",
"aX c #E3E8EC",
"sX c gray99",
"dX c #F4F5F5",
"fX c #EBF0F2",
"gX c None",
/* pixels */
"gXgXgXgXgXgXgXgXgXgXgXgXgXgXgXgXgXgXgXgXgXgXgXgXgXgXT W T gXgXgXgXgXgXgXgXgXgXgXgXgXgXgXgXgXgXgXgXgXgXgXgXgXgXgXgXgXgXgXgXgXgXgXgX",
"gXgXgXgXgXgXgXgXgXgXgXgXgXgXgXgXgXgXgXgXgXgXgXgXP f.I.Y.+XXXgXgXgXgXgXgXgXgXgXgXgXgXgXgXgXgXgXgXgXgXgXgXgXgXgXgXgXgXgXgXgXgXgXgXgX",
"gXgXgXgXgXgXgXgXgXgXgXgXgXgXgXgXgXgXgXgXgXgXgXS.I.( ! / ~ | D.U.|.gXgXgXgXgXgXgXgXgXgXgXgXgXgXgXgXgXgXgXgXgXgXgXgXgXgXgXgXgXgXgXgX",
"gXgXgXgXgXgXgXgXgXgXgXgXgXgXgXgXgXgXgXgXgXgXg.` ) gXgXgXgXgX( U.%X|.L.gXgXgXgXgXgXgXgXgXgXgXgXgXgXgXgXgXgXgXgXgXgXgXgXgXgXgXgXgXgX",
"gXgXgXgXgXgXgXgXgXgXgXgXgXgXgXgXgXgXgXgXgXg._ gXgXgXgXgXgXgXgXE H.E.%X#XgXgXgXgXgXgXgXgXgXgXgXgXgXgXgXgXgXgXgXgXgXgXgXgXgXgXgXgXgX",
"gXgXgXgXgXgXgXgXgXgXgXgXgXgXgXgXgXgXgXgXg.S.I gXgXgXgXgXgXgXgXgXW H.E.@X:X@.gXgXgXgXgXgXgXgXgXgXgXgXgXgXgXgXgXgXgXgXgXgXgXgXgXgXgX",
"gXgXgXgXgXgXgXgXgXgXgXgXgXgXgXgXgXgXgXgXS.S.U gXgXgXgXgXgXgXgXgX0 ] K.T.@X:X@.gXgXgXgXgXgXgXgXgXgXgXgXgXgXgXgXgXgXgXgXgXgXgXgXgXgX",
"gXgXgXgXgXgXgXgXgXgXgXgXgXgXgXgXgXgXgXgXo.` I gXgXgXgXgXgXgXgX9 9 ] +.G.T.@X>XgXgXgXgXgXgXgXgXgXgXgXgXgXgXgXgXgXgXgXgXgXgXgXgXgXgX",
"gXgXgXgXgXgXgXgXgXgXgXgXgXgXgXgXgXgXgXgXgXL 9 gXgXgXgXgXgXgXgX{ X.T R #.F.+X,X.XgXgXgXgXgXgXgXgXgXgXgXgXgXgXgXgXgXgXgXgXgXgXgXgXgX",
"gXgXgXgXgXgXgXgXgXgXgXgXgXgXgXgXgXgXgXgXgXgXgXgXgXgXgXgXgXgXP 7 ( T.o.} h.+X8X4XgXgXgXgXgXgXgXgXgXgXgXgXgXgXgXgXgXgXgXgXgXgXgXgXgX",
"gXgXgXgXgXgXgXgXgXgXgXgXgXgXgXgXgXgXgXgXgXgXgXgXgXgXgXgXgXP  .o.D.` _ F.#.K.3XqX[.gXgXgXgXgXgXgXgXgXgXgXgXgXgXgXgXgXgXgXgXgXgXgXgX",
"gXgXgXgXgXgXgXgXgXgXgXgXgXgXgXgXgXgXgXgXgXgXgXgXgXgXgXgXgX] h.@X$XK.o.P.}.=XwX,XX.gXgXgXgXgXgXgXgXgXgXgXgXgXgXgXgXgXgXgXgXgXgXgXgX",
"gXgXgXgXgXgXgXgXgXgXgXgXgXgXgXgXgXgXgXgXgXgXgXgXgXgXgXgXT O.{ ..|.+Xf.o.$XyX8XU.f.gXgXgXgXgXgXgXgXgXgXgXgXgXgXgXgXgXgXgXgXgXgXgXgX",
"gXgXgXgXgXgXgXgXgXgXgXgXgXgXgXgXgXgXgXgXgXgXgXgXgXgXgXgXP E I U ) H.D./ S.#XF.) @.@.gXgXgXgXgXgXgXgXgXgXgXgXgXgXgXgXgXgXgXgXgXgXgX",
"gXgXgXgXgXgXgXgXgXgXgXgXgXgXgXgXgXgXgXgXgXgXgXgXgXgXgXgX0 L ( ` X.L.E./ + L E T P R gXgXgXgXgXgXgXgXgXgXgXgXgXgXgXgXgXgXgXgXgXgXgX",
"gXgXgXgXgXgXgXgXgXgXgXgXgXgXgXgXgXgXgXgXgXgXgXgXgXgXgXgX7 U ` I #.{.H._ . 8 #.$.I gXgXgXgXgXgXgXgXgXgXgXgXgXgXgXgXgXgXgXgXgXgXgXgX",
"gXgXgXgXgXgXgXgXgXgXgXgXgXgXgXgXgXgXgXgXgXgXgXgXgXgXgXgXgXL ( g.X.} f.H.) ..U.h.E gXgXgXgXgXgXgXgXgXgXgXgXgXgXgXgXgXgXgXgXgXgXgXgX",
"gXgXgXgXgXgXgXgXgXgXgXgXgXgXgXgXgXgXgXgXgXgXgXgXgXgXgXgXgX9 I U E  ...}.<X:X+XI.o.gXgXgXgXgXgXgXgXgXgXgXgXgXgXgXgXgXgXgXgXgXgXgXgX",
"gXgXgXgXgXgXgXgXgXgXgXgXgXgXgXgXgXgXgXgXgXgXgXgXgXgXgXgXgXgXm W g.F.O.$.XX1X|.o.W gXgXgXgXgXgXgXgXgXgXgXgXgXgXgXgXgXgXgXgXgXgXgXgX",
"gXgXgXgXgXgXgXgXgXgXgXgXgXgXgXgXgXgXgXgXgXgXgXgXgXgXgXgXgXgXL X.#XL.$.O.[.1X|.W gXgXgXgXgXgXgXgXgXgXgXgXgXgXgXgXgXgXgXgXgXgXgXgXgX",
"gXgXgXgXgXgXgXgXgXgXgXgXgXgXgXgXgXgXgXgXgXgXgXgXgXgXgXgXgXgXL O.<X[.P { {.,XE.( gXgXgXgXgXgXgXgXgXgXgXgXgXgXgXgXgXgXgXgXgXgXgXgXgX",
"gXgXgXgXgXgXgXgXgXgXgXgXgXgXgXgXgXgXgXgXgXgXgXgXgXgXgXgXgXgXL #.:XJ.I E X.U.Y.gXgXgXgXgXgXgXgXgXgXgXgXgXgXgXgXgXgXgXgXgXgXgXgXgXgX",
"gXgXgXgXgXgXgXgXgXgXgXgXgXgXgXgXgXgXgXgXgXgXgXgXgXgXgXgXgXgXm ..P.) Y R L P gXgXgXgXgXgXgXgXgXgXgXgXgXgXgXgXgXgXgXgXgXgXgXgXgXgXgX",
"gXgXgXgXgXgXgXgXgXgXgXgXgXgXgXgXgXgXgXgXgXgXgXgXgXgXgXgXgX3 m T W m k n 8 3 gXgXgXgXgXgXgXgXgXgXgXgXgXgXgXgXgXgXgXgXgXgXgXgXgXgXgX",
"gXgXgXgXgXgXgXgXgXgXgXgXgXgXgXgXgXgXgXgXgXgXgXgXgXgXgXgX> m E ) o.~ k < < : : , , gXgXgXgXgXgXgXgXgXgXgXgXgXgXgXgXgXgXgXgXgXgXgXgX",
"gXgXgXgXgXgXgXgXgXgXgXgXgXgXgXgXgXgXgXgXgXgXgXgXgXgXgX> m  .U.#X:X{.f u : : g Z z * , : gXgXgXgXgXgXgXgXgXgXgXgXgXgXgXgXgXgXgXgXgX",
"gXgXgXgXgXgXgXgXgXgXgXgXgXgXgXgXgXgXgXgXgXgXgXgXgXgX, 3 P L.T.oX1X*X6.%.i M k z j = j C c gXgXgXgXgXgXgXgXgXgXgXgXgXgXgXgXgXgXgXgX",
"gXgXgXgXgXgXgXgXgXgXgXgXgXgXgXgXgXgXgXgXgXgXgXgXgXgXgX4 L X.P.P..X[.3.0.r.^ 3 , z c z C C c gXgXgXgXgXgXgXgXgXgXgXgXgXgXgXgXgXgXgX",
"gXgXgXgXgXgXgXgXgXgXgXgXgXgXgXgXgXgXgXgXgXgXgXgXgXgXgX3 8 R X.f.#.] i >.y.<.J z D _.Z , j c j gXgXgXgXgXgXgXgXgXgXgXgXgXgXgXgXgXgX",
"gXgXgXgXgXgXgXgXgXgXgXgXgXgXgXgXgXgXgXgXgXgXgXgXgXgXgX, 3 L | @.#.T + w 9.r.p.n N '.D * gXg g gXgXgXgXgXgXgXgXgXgXgXgXgXgXgXgXgXgX",
"gXgXgXgXgXgXgXgXgXgXgXgXgXgXgXgXgXgXgXgXgXgXgXgXgXgXgX, > L #.oXJ.P & t z.n.1.6 V _.D : gXgXgXgXgXgXgXgXgXgXgXgXgXgXgXgXgXgXgXgXgX",
"gXgXgXgXgXgXgXgXgXgXgXgXgXgXgXgXgXgXgXgXgXgXgXgXgXgXgX: > I H.}.+.T a z.n.v.4.^ H Z Z : gXgXgXgXgXgXgXgXgXgXgXgXgXgXgXgXgXgXgXgXgX",
"gXgXgXgXgXgXgXgXgXgXgXgXgXgXgXgXgXgXgXgXgXgXgXgXgXgX, , > P |.#X*X$.2.e.t.4.s.H.W < g , gXgXgXgXgXgXgXgXgXgXgXgXgXgXgXgXgXgXgXgXgX",
"gXgXgXgXgXgXgXgXgXgXgXgXgXgXgXgXgXgXgXgXgXgXgXgXgXgXx j > I oXyX2XX.Q a.6.A.#X+X/ ; gXgXgXgXgXgXgXgXgXgXgXgXgXgXgXgXgXgXgXgXgXgXgX",
"gXgXgXgXgXgXgXgXgXgXgXgXgXgXgXgXgXgXgXgXgXgXgXgXgX: C N > I L.R.A.2.Q @.F.F.$X$X..gXgXgXgXgXgXgXgXgXgXgXgXgXgXgXgXgXgXgXgXgXgXgXgX",
"gXgXgXgXgXgXgXgXgXgXgXgXgXgXgXgXgXgXgXgXgXgXgXgXgX: C N 2 J p.r.e.9.;.! R L f.#X+.gXgXgXgXgXgXgXgXgXgXgXgXgXgXgXgXgXgXgXgXgXgXgXgX",
"gXgXgXgXgXgXgXgXgXgXgXgXgXgXgXgXgXgXgXgXgXgXgXgXgX: C C 2 i w.b.C.C.1.e 7 7 s s.p.gXgXgXgXgXgXgXgXgXgXgXgXgXgXgXgXgXgXgXgXgXgXgXgX",
"gXgXgXgXgXgXgXgXgXgXgXgXgXgXgXgXgXgXgXgXgXgXgXgXgX* N N 1 y y.N.7X^.z.$ . # y >.>.gXgXgXgXgXgXgXgXgXgXgXgXgXgXgXgXgXgXgXgXgXgXgXgX",
"gXgXgXgXgXgXgXgXgXgXgXgXgXgXgXgXgXgXgXgXgXgXgXgXgX, S B - %.u.N.7X~.:.X O # %.8.q.gXgXgXgXgXgXgXgXgXgXgXgXgXgXgXgXgXgXgXgXgXgXgXgX",
"gXgXgXgXgXgXgXgXgXgXgXgXgXgXgXgXgXgXgXgXgXgXgXgXgXc /.B - %.u.m.C.u.>.f I % *.e.w.gXgXgXgXgXgXgXgXgXgXgXgXgXgXgXgXgXgXgXgXgXgXgXgX",
"gXgXgXgXgXgXgXgXgXgXgXgXgXgXgXgXgXgXgXgXgXgXgXgX, Z (.B - &.y.c.v.v.x.i.a. .j.i.,.gXgXgXgXgXgXgXgXgXgXgXgXgXgXgXgXgXgXgXgXgXgXgXgX",
"gXgXgXgXgXgXgXgXgXgXgXgXgXgXgXgXgXgXgXgXgXgXgXgX, C (.B 5 y 9.c.Z.!.7XB.4.6X3Xj.3.gXgXgXgXgXgXgXgXgXgXgXgXgXgXgXgXgXgXgXgXgXgXgXgX",
"gXgXgXgXgXgXgXgXgXgXgXgXgXgXgXgXgXgXgXgXgXgXgXgX, Z (.S 1 e >.v.Z.Q.0XW.i.uXeX X[ gXgXgXgXgXgXgXgXgXgXgXgXgXgXgXgXgXgXgXgXgXgXgXgX",
"gXgXgXgXgXgXgXgXgXgXgXgXgXgXgXgXgXgXgXgXgXgXgXgX, C (.S g 5 -.c.m.m.M.x.R.uXeX{.{ gXgXgXgXgXgXgXgXgXgXgXgXgXgXgXgXgXgXgXgXgXgXgXgX",
"gXgXgXgXgXgXgXgXgXgXgXgXgXgXgXgXgXgXgXgXgXgXgX: , Z (.v g 5 %.y.c.u.y.d.5XqXXX+.| gXgXgXgXgXgXgXgXgXgXgXgXgXgXgXgXgXgXgXgXgXgXgXgX",
"gXgXgXgXgXgXgXgXgXgXgXgXgXgXgXgXgXgXgXgXgXgXgX, , Z c , , n Q 5.4.4.d.5XtXXX].OX[.gXgXgXgXgXgXgXgXgXgXgXgXgXgXgXgXgXgXgXgXgXgXgXgX",
"gXgXgXgXgXgXgXgXgXgXgXgXgXgXgXgXgXgXgXgXgXgXgX: : Z z : k R O.OX6XyXuXaXqX@.@.=X.XgXgXgXgXgXgXgXgXgXgXgXgXgXgXgXgXgXgXgXgXgXgXgXgX",
"gXgXgXgXgXgXgXgXgXgXgXgXgXgXgXgXgXgXgXgXgXgXgX: , Z c : n ] ].4XfXsXdXyX*X}.{.=XoXgXgXgXgXgXgXgXgXgXgXgXgXgXgXgXgXgXgXgXgXgXgXgXgX",
"gXgXgXgXgXgXgXgXgXgXgXgXgXgXgXgXgXgXgXgXgXgXh v g Z c : b E h.2XfXsXrX-X-X=X.X;X#XgXgXgXgXgXgXgXgXgXgXgXgXgXgXgXgXgXgXgXgXgXgXgXgX",
"gXgXgXgXgXgXgXgXgXgXgXgXgXgXgXgXgXgXgXgXgXgXl F h C z : b ] {.-XrXuX2X2XrX1X.X2X<XgXgXgXgXgXgXgXgXgXgXgXgXgXgXgXgXgXgXgXgXgXgXgXgX",
"gXgXgXgXgXgXgXgXgXgXgXgXgXgXgXgXgXgXgXgXgXgXh F l C z < M +.=XXX-X1X2XpXpX-X XqX1XgXgXgXgXgXgXgXgXgXgXgXgXgXgXgXgXgXgXgXgXgXgXgXgX",
"gXgXgXgXgXgXgXgXgXgXgXgXgXgXgXgXgXgXgXgXgXgXl F l C N M ~ {.1X-X*XqXdXsXrX.X XqX<XgXgXgXgXgXgXgXgXgXgXgXgXgXgXgXgXgXgXgXgXgXgXgXgX",
"gXgXgXgXgXgXgXgXgXgXgXgXgXgXgXgXgXgXgXgXgXgXh F x C ).H | }.<XtXpXsXsXiX-X].*XqXXXgXgXgXgXgXgXgXgXgXgXgXgXgXgXgXgXgXgXgXgXgXgXgXgX",
"gXgXgXgXgXgXgXgXgXgXgXgXgXgXgXgXgXgXgXgXgXgXh G `.N n +.XX.X.XqXdXsXpX3X@.[.1X<X].gXgXgXgXgXgXgXgXgXgXgXgXgXgXgXgXgXgXgXgXgXgXgXgX",
"gXgXgXgXgXgXgXgXgXgXgXgXgXgXgXgXgXgXgXgXgXgXh G `.z m @.<X3X3XtXiXiX2X.X[.}.XX X .gXgXgXgXgXgXgXgXgXgXgXgXgXgXgXgXgXgXgXgXgXgXgXgX",
"gXgXgXgXgXgXgXgXgXgXgXgXgXgXgXgXgXgXgXgXgXgXh /.`.z m | .X1XtXrX2X&XXX;XXXh.a.3.gXgXgXgXgXgXgXgXgXgXgXgXgXgXgXgXgXgXgXgXgXgXgXgXgX",
"gXgXgXgXgXgXgXgXgXgXgXgXgXgXgXgXgXgXgXgXgXgXh /.`.N k i / ].*X;X].} ].&X[.f y r # gXgXgXgXgXgXgXgXgXgXgXgXgXgXgXgXgXgXgXgXgXgXgXgX",
"gXgXgXgXgXgXgXgXgXgXgXgXgXgXgXgXgXgXgXgXgXgXg S _.C * X e 2.A.l.k.6.3.p.f %.=.&.$ .     gXgXgXgXgXgXgXgXgXgXgXgXgXgXgXgXgXgXgXgXgX",
"gXgXgXgXgXgXgXgXgXgXgXgXgXgXgXgXgXgXgXgXgXgXgX, V x O . t e.m.Z.M.u.0.%.y =.8.>.t $ .     gXgXgXgXgXgXgXgXgXgXgXgXgXgXgXgXgXgXgXgX",
"gXgXgXgXgXgXgXgXgXgXgXgXgXgXgXgXgXgXgXgXgXgXgX  O = O X t q.v.M.m.e.0.*.w q $ $ q q #       gXgXgXgXgXgXgXgXgXgXgXgXgXgXgXgXgXgXgX",
"gXgXgXgXgXgXgXgXgXgXgXgXgXgXgXgXgXgXgXgXgXgX          X w =.,.q.w.w.8.>.y X                   gXgXgXgXgXgXgXgXgXgXgXgXgXgXgXgXgXgX",
"gXgXgXgXgXgXgXgXgXgXgXgXgXgXgXgXgXgXgXgXgXgXgX        . X r ,.v.M.m.x.,.=.t @                 gXgXgXgXgXgXgXgXgXgXgXgXgXgXgXgXgXgX",
"gXgXgXgXgXgXgXgXgXgXgXgXgXgXgXgXgXgXgXgXgXgXgXgX        X w t p p p y y %.=.y @             gXgXgXgXgXgXgXgXgXgXgXgXgXgXgXgXgXgXgX",
"gXgXgXgXgXgXgXgXgXgXgXgXgXgXgXgXgXgXgXgXgXgXgXgXgX          . .   .   . . .             gXgXgXgXgXgXgXgXgXgXgXgXgXgXgXgXgXgXgXgXgX",
"gXgXgXgXgXgXgXgXgXgXgXgXgXgXgXgXgXgXgXgXgXgXgXgXgXgXgX                                gXgXgXgXgXgXgXgXgXgXgXgXgXgXgXgXgXgXgXgXgXgX"
};
