/* XPM */
static char *result[] = {
/* columns rows colors chars-per-pixel */
"65 65 228 2 ",
"   c #010000",
".  c #06030E",
"X  c #170A02",
"o  c #010310",
"O  c #1A1B1C",
"+  c #111411",
"@  c #240F00",
"#  c #261301",
"$  c #331A00",
"%  c #38210E",
"&  c #00002F",
"*  c #000025",
"=  c #000036",
"-  c #02003B",
";  c #0A0837",
":  c #141436",
">  c #150E34",
",  c #2A172B",
"<  c #292936",
"1  c #333333",
"2  c #36363A",
"3  c #3B3B3C",
"4  c #383835",
"5  c #262625",
"6  c #4F2900",
"7  c #4C2508",
"8  c #522903",
"9  c #55241A",
"0  c #6A2D00",
"q  c #733402",
"w  c #773509",
"e  c #7E3817",
"r  c #6A2C10",
"t  c #49352D",
"y  c #64362C",
"u  c #784A0F",
"i  c #44423C",
"p  c #6D482E",
"a  c #050042",
"s  c #0B024C",
"d  c #090345",
"f  c #11074B",
"g  c #0D0154",
"h  c #0F0159",
"j  c #000A5E",
"k  c #11025D",
"l  c #130555",
"z  c #1D1E59",
"x  c #201E49",
"c  c #302849",
"v  c #363745",
"b  c #2F2D4E",
"n  c #140265",
"m  c #16016B",
"M  c #17036B",
"N  c #1B0173",
"B  c #1E017B",
"V  c #1D0A7C",
"C  c #150875",
"Z  c #22007F",
"A  c #280E79",
"S  c #28187E",
"D  c #0F277F",
"F  c #12257B",
"G  c #1B216B",
"H  c #434343",
"J  c #4B4B4C",
"K  c #484846",
"L  c #524E48",
"P  c #55534C",
"I  c #5A544C",
"U  c #5A5646",
"Y  c #484A52",
"T  c #545454",
"R  c #5C5B54",
"E  c #5B5C5C",
"W  c #565756",
"Q  c #4F5052",
"!  c #64584A",
"~  c #625B50",
"^  c #644D44",
"/  c #6E694E",
"(  c #78604A",
")  c #63625C",
"_  c #6D6A5C",
"`  c #676555",
"'  c #76725A",
"]  c #726E5F",
"[  c #4E5568",
"{  c #535868",
"}  c #55556B",
"|  c #5B646C",
" . c #636464",
".. c #6C6C6C",
"X. c #696866",
"o. c #756D64",
"O. c #73736D",
"+. c #7A766D",
"@. c #7A7765",
"#. c #6F6F71",
"$. c #757473",
"%. c #7D7B73",
"&. c #7C7C7C",
"*. c #767777",
"=. c #6D757C",
"-. c #893B04",
";. c #923E00",
":. c #964709",
">. c #894417",
",. c #964C1C",
"<. c #914C0D",
"1. c #A44400",
"2. c #AC4809",
"3. c #B94C04",
"4. c #BA5300",
"5. c #B15914",
"6. c #AA5D0E",
"7. c #BC6505",
"8. c #B56B1B",
"9. c #995E35",
"0. c #965327",
"q. c #A35B2F",
"w. c #C64D01",
"e. c #C55B05",
"r. c #D55A01",
"t. c #C26000",
"y. c #D66303",
"u. c #DB7703",
"i. c #CC7011",
"p. c #EA7800",
"a. c #EC6F00",
"s. c #81684D",
"d. c #986E53",
"f. c #8A7153",
"g. c #847F69",
"h. c #827764",
"j. c #817E74",
"k. c #AB7252",
"l. c #7D817F",
"z. c #BF8304",
"x. c #D49400",
"c. c #D28A0F",
"v. c #E98700",
"b. c #F38901",
"n. c #EA9901",
"m. c #F79500",
"M. c #ED9017",
"N. c #D3AE0F",
"B. c #FCBD03",
"V. c #FDAD09",
"C. c #CDA020",
"Z. c #EBA83B",
"A. c #FDD50A",
"S. c #FACA32",
"D. c #888369",
"F. c #958E6C",
"G. c #9D946F",
"H. c #84827C",
"J. c #8C8A7B",
"K. c #888473",
"L. c #97897A",
"P. c #9A9475",
"I. c #A29C78",
"U. c #A8A17C",
"Y. c #D68142",
"T. c #EAA454",
"R. c #F9D453",
"E. c #FADE79",
"W. c #0B0B85",
"Q. c #1C0382",
"!. c #180784",
"~. c #0C1585",
"^. c #011B8B",
"/. c #081888",
"(. c #021C92",
"). c #210081",
"_. c #230889",
"`. c #2B0B9B",
"'. c #250792",
"]. c #002188",
"[. c #002087",
"{. c #112981",
"}. c #787C80",
"|. c #848484",
" X c #8B8982",
".X c #8B8B8C",
"XX c #838789",
"oX c #9E9A84",
"OX c #94958A",
"+X c #959595",
"@X c #9C9C9C",
"#X c #9C9B92",
"$X c #928F84",
"%X c #A29B88",
"&X c #AAA483",
"*X c #A8A387",
"=X c #B1A981",
"-X c #A7A49A",
";X c #B2AE95",
":X c #B5B19D",
">X c #B8B295",
",X c #9EA2A6",
"<X c #A2A1A2",
"1X c #ACACAC",
"2X c #A3A9A7",
"3X c #B9B6A4",
"4X c #AEB2B6",
"5X c #B4B4B4",
"6X c #BBB9B4",
"7X c #BBBBBB",
"8X c #B6B6B8",
"9X c #ACACB0",
"0X c #C0BEB6",
"qX c #FBD385",
"wX c #C5C1B3",
"eX c #B3BCC2",
"rX c #C2C2C3",
"tX c #CDCDCC",
"yX c #CFCDC3",
"uX c #D4D4D4",
"iX c #DBDBDB",
"pX c #D5D8DA",
"aX c #CECECF",
"sX c #E4E4E4",
"dX c gray91",
"fX c #F4F4F4",
"gX c #FAFAFA",
"hX c None",
/* pixels */
"hXhXhXhXhXhXhXhXhXhXhXhXhXhXhXhXhXhXhXhXhXhXhXhXhXhXhXhXhXhXhX) ) _ X.hXhXhXhXhXhXhXhXhXhXhXhXhXhXhXhXhXhXhXhXhXhXhXhXhXhXhXhXhXhX",
"hXhXhXhXhXhXhXhXhXhXhXhXhXhXhXhXhXhXhXhXhXhXhXhXhXhXhXhXhXR g.G.G.*X-XX.T E hXhXhXhXhXhXhXhXhXhXhXhXhXhXhXhXhXhXhXhXhXhXhXhXhXhXhX",
"hXhXhXhXhXhXhXhXhXhXhXhXhXhXhXhXhXhXhXhXhXhXhXhXhXhXhXhXF.G.R i i i P F.&X;XhXJ hXhXhXhXhXhXhXhXhXhXhXhXhXhXhXhXhXhXhXhXhXhXhXhXhX",
"hXhXhXhXhXhXhXhXhXhXhXhXhXhXhXhXhXhXhXhXhXhXhXhXhXhXhXD.~ K hXhXhXhXhXP %.*XI.oX.XhXhXhXhXhXhXhXhXhXhXhXhXhXhXhXhXhXhXhXhXhXhXhXhX",
"hXhXhXhXhXhXhXhXhXhXhXhXhXhXhXhXhXhXhXhXhXhXhXhXhXhX@.` hXhXhXhXhXhXhXhXQ %.U.=X;X.XhXhXhXhXhXhXhXhXhXhXhXhXhXhXhXhXhXhXhXhXhXhXhX",
"hXhXhXhXhXhXhXhXhXhXhXhXhXhXhXhXhXhXhXhXhXhXhXhXhXD.D.U hXhXhXhXhXhXhXhXhXJ +.I.=X:X.XhXhXhXhXhXhXhXhXhXhXhXhXhXhXhXhXhXhXhXhXhXhX",
"hXhXhXhXhXhXhXhXhXhXhXhXhXhXhXhXhXhXhXhXhXhXhXhXhXD.D.U hXhXhXhXhXhXhXhXhX1 E J.G.&X3X.XhXhXhXhXhXhXhXhXhXhXhXhXhXhXhXhXhXhXhXhXhX",
"hXhXhXhXhXhXhXhXhXhXhXhXhXhXhXhXhXhXhXhXhXhXhXhXhXhX_ K hXhXhXhXhXhXhXhXQ Q T ..H.G.&X6X|.hXhXhXhXhXhXhXhXhXhXhXhXhXhXhXhXhXhXhXhX",
"hXhXhXhXhXhXhXhXhXhXhXhXhXhXhXhXhXhXhXhXhXhXhXhXhXhX3 hXhXhXhXhXhXhXhXH E +._ R *.l.U.6X,XhXhXhXhXhXhXhXhXhXhXhXhXhXhXhXhXhXhXhXhX",
"hXhXhXhXhXhXhXhXhXhXhXhXhXhXhXhXhXhXhXhXhXhXhXhXhXhXhXhXhXhXhXhXhXhXJ E 4 / U.@...%.U.wXrX&.hXhXhXhXhXhXhXhXhXhXhXhXhXhXhXhXhXhXhX",
"hXhXhXhXhXhXhXhXhXhXhXhXhXhXhXhXhXhXhXhXhXhXhXhXhXhXhXhXhXhXhXhXhXhXY ..P.G.' ` P.%.|.8XwXXXhXhXhXhXhXhXhXhXhXhXhXhXhXhXhXhXhXhXhX",
"hXhXhXhXhXhXhXhXhXhXhXhXhXhXhXhXhXhXhXhXhXhXhXhXhXhXhXhXhXhXhXhXhXhXX.H.&X:X-XD.J.oX5XaX3X@.hXhXhXhXhXhXhXhXhXhXhXhXhXhXhXhXhXhXhX",
"hXhXhXhXhXhXhXhXhXhXhXhXhXhXhXhXhXhXhXhXhXhXhXhXhXhXhXhXhXhXhXhXhXT ..T P +.P.D.o.>XwXwXD.H.hXhXhXhXhXhXhXhXhXhXhXhXhXhXhXhXhXhXhX",
"hXhXhXhXhXhXhXhXhXhXhXhXhXhXhXhXhXhXhXhXhXhXhXhXhXhXhXhXhXhXhXhXhXH J T _ _ D.G./ R l.o.R #.#.hXhXhXhXhXhXhXhXhXhXhXhXhXhXhXhXhXhX",
"hXhXhXhXhXhXhXhXhXhXhXhXhXhXhXhXhXhXhXhXhXhXhXhXhXhXhXhXhXhXhXhXhX1 K _ ` O.$XG./ + 1 ) E J hXhXhXhXhXhXhXhXhXhXhXhXhXhXhXhXhXhXhX",
"hXhXhXhXhXhXhXhXhXhXhXhXhXhXhXhXhXhXhXhXhXhXhXhXhXhXhXhXhXhXhXhXhX1 P ' ! $. Xl.' O 1 H.$.J hXhXhXhXhXhXhXhXhXhXhXhXhXhXhXhXhXhXhX",
"hXhXhXhXhXhXhXhXhXhXhXhXhXhXhXhXhXhXhXhXhXhXhXhXhXhXhXhXhXhXhXhXhXhXH R @.o. .+.P.|.|.I.J. .hXhXhXhXhXhXhXhXhXhXhXhXhXhXhXhXhXhXhX",
"hXhXhXhXhXhXhXhXhXhXhXhXhXhXhXhXhXhXhXhXhXhXhXhXhXhXhXhXhXhXhXhXhXhX2 3 J R ..O.}.8X6X*XG.o.hXhXhXhXhXhXhXhXhXhXhXhXhXhXhXhXhXhXhX",
"hXhXhXhXhXhXhXhXhXhXhXhXhXhXhXhXhXhXhXhXhXhXhXhXhXhXhXhXhXhXhXhXhXhX1 3 ) J.J.$.#..X5XOX_ P hXhXhXhXhXhXhXhXhXhXhXhXhXhXhXhXhXhXhX",
"hXhXhXhXhXhXhXhXhXhXhXhXhXhXhXhXhXhXhXhXhXhXhXhXhXhXhXhXhXhXhXhXhXhX1 i O.-X X .$.|.8XoX` hXhXhXhXhXhXhXhXhXhXhXhXhXhXhXhXhXhXhXhX",
"hXhXhXhXhXhXhXhXhXhXhXhXhXhXhXhXhXhXhXhXhXhXhXhXhXhXhXhXhXhXhXhX- = : 4 $.9XXXH E  X:XU._ hXhXhXhXhXhXhXhXhXhXhXhXhXhXhXhXhXhXhXhX",
"hXhXhXhXhXhXhXhXhXhXhXhXhXhXhXhXhXhXhXhXhXhXhXhXhXhXhXhXhXhXhX; : : : 2 %.:XJ.T ~ X.D.D.hXhXhXhXhXhXhXhXhXhXhXhXhXhXhXhXhXhXhXhXhX",
"hXhXhXhXhXhXhXhXhXhXhXhXhXhXhXhXhXhXhXhXhXhXhXhXhXhXhXhXhXhX; 2 R U i 4 Y { Y Y v < v hXhXhXhXhXhXhXhXhXhXhXhXhXhXhXhXhXhXhXhXhXhX",
"hXhXhXhXhXhXhXhXhXhXhXhXhXhXhXhXhXhXhXhXhXhXhXhXhXhXhXhXhX: c Q %.-XH.Y < , : d f l - hXhXhXhXhXhXhXhXhXhXhXhXhXhXhXhXhXhXhXhXhXhX",
"hXhXhXhXhXhXhXhXhXhXhXhXhXhXhXhXhXhXhXhXhXhXhXhXhXhXhXhXhX2 E ) K.6X6X=.i >.e = h C - = a g a hXhXhXhXhXhXhXhXhXhXhXhXhXhXhXhXhXhX",
"hXhXhXhXhXhXhXhXhXhXhXhXhXhXhXhXhXhXhXhXhXhXhXhXhXhXhXhXhX3 ..K.F.:XwXOXp <.4.9 ; g a a k N k - hXhXhXhXhXhXhXhXhXhXhXhXhXhXhXhXhX",
"hXhXhXhXhXhXhXhXhXhXhXhXhXhXhXhXhXhXhXhXhXhXhXhXhXhXhXhX= < X.X.' U.;XOXP w r.e.9 a !.N g s k n - hXhXhXhXhXhXhXhXhXhXhXhXhXhXhXhX",
"hXhXhXhXhXhXhXhXhXhXhXhXhXhXhXhXhXhXhXhXhXhXhXhXhXhXhXhX; < K W o.K.J.&.H % 6.b.w s '.`.g * s s - hXhXhXhXhXhXhXhXhXhXhXhXhXhXhXhX",
"hXhXhXhXhXhXhXhXhXhXhXhXhXhXhXhXhXhXhXhXhXhXhXhXhXhXhXs k c 4 K Q E %.D.H o u n.r s Q.`.n hXhXhXhXhXhXhXhXhXhXhXhXhXhXhXhXhXhXhXhX",
"hXhXhXhXhXhXhXhXhXhXhXhXhXhXhXhXhXhXhXhXhXhXhXhXhXhXhX- l c 4 1 H ) +X#XP 8 x.n.-.a N '.n hXhXhXhXhXhXhXhXhXhXhXhXhXhXhXhXhXhXhXhX",
"hXhXhXhXhXhXhXhXhXhXhXhXhXhXhXhXhXhXhXhXhXhXhXhXhXhXhXl ; < H 3 v #.5X2X! :.v.z.u hXs k s hXhXhXhXhXhXhXhXhXhXhXhXhXhXhXhXhXhXhXhX",
"hXhXhXhXhXhXhXhXhXhXhXhXhXhXhXhXhXhXhXhXhXhXhXhX- s M C f v _ E 4 ..3XP.L p q.u hXhXhX- - hXhXhXhXhXhXhXhXhXhXhXhXhXhXhXhXhXhXhXhX",
"hXhXhXhXhXhXhXhXhXhXhXhXhXhXhXhXhXhXhXhXhXhX- d n _.V n n c @.o.J j.%X%.L ^ ^ hXhXhXhXhXhXhXhXhXhXhXhXhXhXhXhXhXhXhXhXhXhXhXhXhXhX",
"hXhXhXhXhXhXhXhXhXhXhXhXhXhXhXhXhXhXhXhXhXa n _.'._.k M m > U R J $.l.@.0.,.p hXhXhXhXhXhXhXhXhXhXhXhXhXhXhXhXhXhXhXhXhXhXhXhXhXhX",
"hXhXhXhXhXhXhXhXhXhXhXhXhXhXhXhXhXhXhXhXa n '.`.V l N Z ; . + O 5 { o.q.e.a.8.hXhXhXhXhXhXhXhXhXhXhXhXhXhXhXhXhXhXhXhXhXhXhXhXhXhX",
"hXhXhXhXhXhXhXhXhXhXhXhXhXhXhXhXhXhXhXa n '.V h g m ).A < +     + t 0.y.M.R.T.w.hXhXhXhXhXhXhXhXhXhXhXhXhXhXhXhXhXhXhXhXhXhXhXhXhX",
"hXhXhXhXhXhXhXhXhXhXhXhXhXhXhXhXhXhXd n '.A h g M ).Q._.} i 4 H Y p 3.a.V.R.qXY.1.hXhXhXhXhXhXhXhXhXhXhXhXhXhXhXhXhXhXhXhXhXhXhXhX",
"hXhXhXhXhXhXhXhXhXhXhXhXhXhXhXhXhXhXg _.Q.g N Q.).Z V S [ +.+X<X}.~ ,.r.b.B.R.T.e.7.hXhXhXhXhXhXhXhXhXhXhXhXhXhXhXhXhXhXhXhXhXhXhX",
"hXhXhXhXhXhXhXhXhXhXhXhXhXhXhXhXhXd n V k N ).).).Z !.D [  X8X5X.XXXh.q.y.b.n.M.M.T.i.hXhXhXhXhXhXhXhXhXhXhXhXhXhXhXhXhXhXhXhXhXhX",
"hXhXhXhXhXhXhXhXhXhXhXhXhXhXhXhX= k n s m ).).).Z Z W.D [  XrXuXuXpX4X$Xq.e.y.b.S.E.M.4.hXhXhXhXhXhXhXhXhXhXhXhXhXhXhXhXhXhXhXhXhX",
"hXhXhXhXhXhXhXhXhXhXhXhXhXhXhXhX= k n s N ).).).).!.^.{.[ %.5XsXfXiX9X4X%Xq.r.b.A.S.u.3.hXhXhXhXhXhXhXhXhXhXhXhXhXhXhXhXhXhXhXhXhX",
"hXhXhXhXhXhXhXhXhXhXhXhXhXhXhXhX= - g m Z Q.).).V V ^.{.[ +.+XuXfXeX1XpXuXk.w.a.m.b.e.2.hXhXhXhXhXhXhXhXhXhXhXhXhXhXhXhXhXhXhXhXhX",
"hXhXhXhXhXhXhXhXhXhXhXhXhXhXhXhX= & s ).).Z Z ).Z !.^.D }  X.X1XuXtXuXsXuXj.0.3.e.e.5.9.hXhXhXhXhXhXhXhXhXhXhXhXhXhXhXhXhXhXhXhXhX",
"hXhXhXhXhXhXhXhXhXhXhXhXhXhXhXhX= d n Z ).Q.Z Z !.~.^.D { -X1X@X5XsXfXiX9XXXh.d.d.d.d.$.hXhXhXhXhXhXhXhXhXhXhXhXhXhXhXhXhXhXhXhXhX",
"hXhXhXhXhXhXhXhXhXhXhXhXhXhXhXhX- h ).).).Z Q.Q./.].].D } +XtX7X9XpXsXuX<X&.XX2XeXeX2X|.hXhXhXhXhXhXhXhXhXhXhXhXhXhXhXhXhXhXhXhXhX",
"hXhXhXhXhXhXhXhXhXhXhXhXhXhXhXhX= g Z ).).Z Z ~.].].^.{.[ %.1XuX5X1XiXiX5X.X&.<XuXfXaX.XhXhXhXhXhXhXhXhXhXhXhXhXhXhXhXhXhXhXhXhXhX",
"hXhXhXhXhXhXhXhXhXhXhXhXhXhXhXhX= g Z ).Z Z Q.~.^.].^.{.[ +.l.+X2XrXdXdXuX2Xj.+XaXfXiX+XhXhXhXhXhXhXhXhXhXhXhXhXhXhXhXhXhXhXhXhXhX",
"hXhXhXhXhXhXhXhXhXhXhXhXhXhXhXhX= h Q.).Z Z ~.^.].^.^.{.[ +..X1XuXfXfXuX1X@X.X|.eXsX<XhXhXhXhXhXhXhXhXhXhXhXhXhXhXhXhXhXhXhXhXhXhX",
"hXhXhXhXhXhXhXhXhXhXhXhXhXhXhXhX= g B Z ).)./.].].].^.F [ %.+X1XiXfXsX5X5X8X+X|.<X@XhXhXhXhXhXhXhXhXhXhXhXhXhXhXhXhXhXhXhXhXhXhXhX",
"hXhXhXhXhXhXhXhXhXhXhXhXhXhXhXhX- a s g B ).~.].].].G t ~ *.+X@X7XuX8X7XiXuX@X*.|.hXhXhXhXhXhXhXhXhXhXhXhXhXhXhXhXhXhXhXhXhXhXhXhX",
"hXhXhXhXhXhXhXhXhXhXhXhXhXhXhXhX- = hXhXg h C /.(.G y ,.( =.<X<X+X1XrXsXfXtX.XhXhXhXhXhXhXhXhXhXhXhXhXhXhXhXhXhXhXhXhXhXhXhXhXhXhX",
"hXhXhXhXhXhXhXhXhXhXhXhXhXhXhXhXhXhXhXhXhX& g C (.z 6.i.( ..|..X.X1XsXgXfXiX5XhXhXhXhXhXhXhXhXhXhXhXhXhXhXhXhXhXhXhXhXhXhXhXhXhXhX",
"hXhXhXhXhXhXhXhXhXhXhXhXhXhXhXhXhXhXhXhXhXhXhXs W.z ,.c.f.{ X.*..X5XiXfXgXfXaX.XhXhXhXhXhXhXhXhXhXhXhXhXhXhXhXhXhXhXhXhXhXhXhXhXhX",
"hXhXhXhXhXhXhXhXhXhXhXhXhXhXhXhXhXhXhXhXhXhXhXhXj x -.i.( | .X1X+X<XuXfXfXtX+X%.hXhXhXhXhXhXhXhXhXhXhXhXhXhXhXhXhXhXhXhXhXhXhXhXhX",
"hXhXhXhXhXhXhXhXhXhXhXhXhXhXhXhXhXhXhXhXhXhXhXhXhX, -.5.( |  X1XeXtXiXuXrX<X.X+XhXhXhXhXhXhXhXhXhXhXhXhXhXhXhXhXhXhXhXhXhXhXhXhXhX",
"hXhXhXhXhXhXhXhXhXhXhXhXhXhXhXhXhXhXhXhXhXhXhXhXhXhXq u ~ { ...X5XuXtX<XXX<X8X.XhXhXhXhXhXhXhXhXhXhXhXhXhXhXhXhXhXhXhXhXhXhXhXhXhX",
"hXhXhXhXhXhXhXhXhXhXhXhXhXhXhXhXhXhXhXhXhXhXhXhXhXhX7 , : : t p *..XXX=. .*.l.hXhXhXhXhXhXhXhXhXhXhXhXhXhXhXhXhXhXhXhXhXhXhXhXhXhX",
"hXhXhXhXhXhXhXhXhXhXhXhXhXhXhXhXhXhXhXhXhXhXhXhXhXhXX . o o # >.8.C.C.z.8.u t hXhXhXhXhXhXhXhXhXhXhXhXhXhXhXhXhXhXhXhXhXhXhXhXhXhX",
"hXhXhXhXhXhXhXhXhXhXhXhXhXhXhXhXhXhXhXhXhXhXhX              # :.p.A.A.V.a.1.6     hXhXhXhXhXhXhXhXhXhXhXhXhXhXhXhXhXhXhXhXhXhXhXhX",
"hXhXhXhXhXhXhXhXhXhXhXhXhXhXhXhXhXhXhXhXhX                  $ ;.t.v.v.v.y.1.0 #       hXhXhXhXhXhXhXhXhXhXhXhXhXhXhXhXhXhXhXhXhXhX",
"hXhXhXhXhXhXhXhXhXhXhXhXhXhXhXhXhXhXhXhX                    @ 8 ;.4.u.v.u.4.1.q @       hXhXhXhXhXhXhXhXhXhXhXhXhXhXhXhXhXhXhXhXhX",
"hXhXhXhXhXhXhXhXhXhXhXhXhXhXhXhXhXhXhX                        # q t.x.N.x.7.1.1.q @       hXhXhXhXhXhXhXhXhXhXhXhXhXhXhXhXhXhXhXhX",
"hXhXhXhXhXhXhXhXhXhXhXhXhXhXhXhXhXhX                          # 6 6 8 8 8 8 q :.;.0 X       hXhXhXhXhXhXhXhXhXhXhXhXhXhXhXhXhXhXhX",
"hXhXhXhXhXhXhXhXhXhXhXhXhXhXhXhXhXhX                                                        hXhXhXhXhXhXhXhXhXhXhXhXhXhXhXhXhXhXhX",
"hXhXhXhXhXhXhXhXhXhXhXhXhXhXhXhXhXhXhXhX                                                  hXhXhXhXhXhXhXhXhXhXhXhXhXhXhXhXhXhXhXhX"
};
