/* XPM */
static char *result[] = {
/* columns rows colors chars-per-pixel */
"65 65 224 2 ",
"   c #010000",
".  c #080607",
"X  c #190B00",
"o  c #080917",
"O  c #150A16",
"+  c #131415",
"@  c #280F00",
"#  c #2A1301",
"$  c #221102",
"%  c #3C1D00",
"&  c #321600",
"*  c #30200F",
"=  c #010035",
"-  c #02013A",
";  c #191A39",
":  c #190C2E",
">  c #201B2F",
",  c #1E2327",
"<  c #282827",
"1  c #333229",
"2  c #2D2C36",
"3  c #3C3C3D",
"4  c #383836",
"5  c #2E2B29",
"6  c #4C1D00",
"7  c #4B2100",
"8  c #572601",
"9  c #492D19",
"0  c #662B02",
"q  c #792F00",
"w  c #6B3304",
"e  c #7C3C00",
"r  c #753501",
"t  c #412E21",
"y  c #453E38",
"u  c #433523",
"i  c #6E3827",
"p  c #794119",
"a  c #47423D",
"s  c #5D583E",
"d  c #68452E",
"f  c #72563D",
"g  c #050041",
"h  c #09004C",
"j  c #00094D",
"k  c #060249",
"l  c #161746",
"z  c #0C0055",
"x  c #0E0159",
"c  c #070053",
"v  c #13015D",
"b  c #18045B",
"n  c #041456",
"m  c #221A4A",
"M  c #383A43",
"N  c #2C2A44",
"B  c #130061",
"V  c #16006A",
"C  c #1A0072",
"Z  c #1D017B",
"A  c #170479",
"S  c #011C7F",
"D  c #0B127D",
"F  c #151076",
"G  c #21007D",
"H  c #291777",
"J  c #311E76",
"K  c #26196A",
"L  c #0D236C",
"P  c #162A71",
"I  c #282B66",
"U  c #36256C",
"Y  c #3F356F",
"T  c #3B2B71",
"R  c #2C2070",
"E  c #401644",
"W  c #4A3E72",
"Q  c #3F4041",
"!  c #35416A",
"~  c #444443",
"^  c #4C4A44",
"/  c #48494B",
"(  c #56554E",
")  c #4C4854",
"_  c #555554",
"`  c #5C5B54",
"'  c #5B5C5C",
"]  c #565659",
"[  c #554640",
"{  c #69594E",
"}  c #645F55",
"|  c #6D6A5C",
" . c #676457",
".. c #766B5A",
"X. c #79755D",
"o. c #6B674F",
"O. c #474A6A",
"+. c #5A5663",
"@. c #585566",
"#. c #4F4F76",
"$. c #605F62",
"%. c #5B6163",
"&. c #646463",
"*. c #6A6A65",
"=. c #6C6C6C",
"-. c #676469",
";. c #776D67",
":. c #74736D",
">. c #7B7A6B",
",. c #797665",
"<. c #6A6C75",
"1. c #737473",
"2. c #7B7B75",
"3. c #7C7C7C",
"4. c #777876",
"5. c #853B00",
"6. c #83360A",
"7. c #8E3F0A",
"8. c #854409",
"9. c #994501",
"0. c #8B4B19",
"q. c #A64803",
"w. c #B74C00",
"e. c #BC5500",
"r. c #B65B03",
"t. c #AB560A",
"y. c #BA6700",
"u. c #B86A0A",
"i. c #995F34",
"p. c #90562E",
"a. c #A05C2F",
"s. c #93633D",
"d. c #C55801",
"f. c #DA5F00",
"g. c #C66202",
"h. c #D46300",
"j. c #D76A00",
"k. c #D67801",
"l. c #C67702",
"z. c #E66A01",
"x. c #E57C00",
"c. c #847F67",
"v. c #817D7A",
"b. c #8C644A",
"n. c #7F817B",
"m. c #DB8405",
"M. c #D58809",
"N. c #E88800",
"B. c #F78B00",
"V. c #E99400",
"C. c #FB9300",
"Z. c #F49800",
"A. c #ECA400",
"S. c #E5A906",
"D. c #F5A700",
"F. c #F4B900",
"G. c #F8C500",
"H. c #89846A",
"J. c #83837B",
"K. c #8A8878",
"L. c #938B77",
"P. c #9A9477",
"I. c #A49D7B",
"U. c #B18C6B",
"Y. c #A6A17B",
"T. c #C59F7F",
"R. c #1C0383",
"E. c #150D86",
"W. c #190486",
"Q. c #0D1486",
"!. c #051C87",
"~. c #011D8A",
"^. c #091888",
"/. c #161287",
"(. c #05128B",
"). c #220183",
"_. c #230588",
"`. c #002188",
"'. c #052186",
"]. c #0A268B",
"[. c #655C83",
"{. c #807C87",
"}. c #7F8083",
"|. c #848484",
" X c #8C8C8B",
".X c #8A8A86",
"XX c #918E81",
"oX c #8E9186",
"OX c #979589",
"+X c #949494",
"@X c #9B9C9C",
"#X c #9A9A94",
"$X c #8F9092",
"%X c #A39E87",
"&X c #A9A385",
"*X c #B3AB83",
"=X c #A8A699",
"-X c #B2AD9A",
";X c #BBB59C",
":X c #9C9EA0",
">X c #A3A3A3",
",X c #ACACAC",
"<X c #AAA8A6",
"1X c #B9B6A7",
"2X c #B3B3B4",
"3X c #BCBCBC",
"4X c #B7B7B6",
"5X c #C1BDB6",
"6X c #C8C4B3",
"7X c #BFC1C2",
"8X c #C4C4C4",
"9X c #CBCCCC",
"0X c #C8C9C6",
"qX c #D5D5D5",
"wX c #DCDCDC",
"eX c #D6D7D8",
"rX c #D5D6CE",
"tX c #E3E3E3",
"yX c #ECECEC",
"uX c #F4F4F4",
"iX c #FCFCFC",
"pX c #F7F7F8",
"aX c #F0F1EC",
"sX c None",
/* pixels */
"sXsXsXsXsXsXsXsXsXsXsXsXsXsXsXsXsXsXsXsXsXsXsXsXsXsXsXsXsXsX~ _ _ sXsXsXsXsXsXsXsXsXsXsXsXsXsXsXsXsXsXsXsXsXsXsXsXsXsXsXsXsXsXsXsX",
"sXsXsXsXsXsXsXsXsXsXsXsXsXsXsXsXsXsXsXsXsXsXsXsXsXsXsXsXsXsX>.OXXXsXsXsXsXsXsXsXsXsXsXsXsXsXsXsXsXsXsXsXsXsXsXsXsXsXsXsXsXsXsXsXsX",
"sXsXsXsXsXsXsXsXsXsXsXsXsXsXsXsXsXsXsXsXsXsXsXsXsXsXsXsXsXo.H.XXK.X.J.J.sXsXsXsXsXsXsXsXsXsXsXsXsXsXsXsXsXsXsXsXsXsXsXsXsXsXsXsXsX",
"sXsXsXsXsXsXsXsXsXsXsXsXsXsXsXsXsXsXsXsXsXsXsXsXsXsXsXsX .X.~ 2 4 o.#X-XI.2.&.sXsXsXsXsXsXsXsXsXsXsXsXsXsXsXsXsXsXsXsXsXsXsXsXsXsX",
"sXsXsXsXsXsXsXsXsXsXsXsXsXsXsXsXsXsXsXsXsXsXsXsXsXsXsX` &.~ sXsXsXsXa | %X5XY.,.sXsXsXsXsXsXsXsXsXsXsXsXsXsXsXsXsXsXsXsXsXsXsXsXsX",
"sXsXsXsXsXsXsXsXsXsXsXsXsXsXsXsXsXsXsXsXsXsXsXsXsXsXsX,.c.^ sXsXsXsXsXM *.I.*X-X|.sXsXsXsXsXsXsXsXsXsXsXsXsXsXsXsXsXsXsXsXsXsXsXsX",
"sXsXsXsXsXsXsXsXsXsXsXsXsXsXsXsXsXsXsXsXsXsXsXsXsXsXsX` v. .Q sXsXsXsXsX) c.Y.*X-XsXsXsXsXsXsXsXsXsXsXsXsXsXsXsXsXsXsXsXsXsXsXsXsX",
"sXsXsXsXsXsXsXsXsXsXsXsXsXsXsXsXsXsXsXsXsXsXsXsXsXsXsXsX] J.c.` sXsXsX5 / 1.K.I.*X=XsXsXsXsXsXsXsXsXsXsXsXsXsXsXsXsXsXsXsXsXsXsXsX",
"sXsXsXsXsXsXsXsXsXsXsXsXsXsXsXsXsXsXsXsXsXsXsXsXsXsXsXsXsX` | sXsXsXsX*.' ] =.K.P.;X,XsXsXsXsXsXsXsXsXsXsXsXsXsXsXsXsXsXsXsXsXsXsX",
"sXsXsXsXsXsXsXsXsXsXsXsXsXsXsXsXsXsXsXsXsXsXsXsXsXsXsXsXsXsXsXsXsXsX=.+.a o.4.3.P.1X4XsXsXsXsXsXsXsXsXsXsXsXsXsXsXsXsXsXsXsXsXsXsX",
"sXsXsXsXsXsXsXsXsXsXsXsXsXsXsXsXsXsXsXsXsXsXsXsXsXsXsXsXsXsXsXsXsX' .X .s H.:.=.K.&X=X=._ sXsXsXsXsXsXsXsXsXsXsXsXsXsXsXsXsXsXsXsX",
"sXsXsXsXsXsXsXsXsXsXsXsXsXsXsXsXsXsXsXsXsXsXsXsXsXsXsXsXsXsXsXsX~ *.L.P.&XP. .*. X#X&X1._ sXsXsXsXsXsXsXsXsXsXsXsXsXsXsXsXsXsXsXsX",
"sXsXsXsXsXsXsXsXsXsXsXsXsXsXsXsXsXsXsXsXsXsXsXsXsXsXsXsXsXsXsXsX&.3.4.=..X<XY.P.-X9X6XP.( sXsXsXsXsXsXsXsXsXsXsXsXsXsXsXsXsXsXsXsX",
"sXsXsXsXsXsXsXsXsXsXsXsXsXsXsXsXsXsXsXsXsXsXsXsXsXsXsXsXsXsXsX~ -.n.' Q / :.P.X.c.1X1XP._ sXsXsXsXsXsXsXsXsXsXsXsXsXsXsXsXsXsXsXsX",
"sXsXsXsXsXsXsXsXsXsXsXsXsXsXsXsXsXsXsXsXsXsXsXsXsXsXsXsXsXsXsX~ -.&.~ | >.,.H.| 2 a :.` ( ) sXsXsXsXsXsXsXsXsXsXsXsXsXsXsXsXsXsXsX",
"sXsXsXsXsXsXsXsXsXsXsXsXsXsXsXsXsXsXsXsXsXsXsXsXsXsXsXsXsXsXsX3 / Q  .o.( oXXXX.1 . 3 4._ sXsXsXsXsXsXsXsXsXsXsXsXsXsXsXsXsXsXsXsX",
"sXsXsXsXsXsXsXsXsXsXsXsXsXsXsXsXsXsXsXsXsXsXsXsXsXsXsXsXsXsXsXsX4 4  .X.| 3.4.H.| 2 ' $X' sXsXsXsXsXsXsXsXsXsXsXsXsXsXsXsXsXsXsXsX",
"sXsXsXsXsXsXsXsXsXsXsXsXsXsXsXsXsXsXsXsXsXsXsXsXsXsXsXsXsXsXsXsXsX4 3 ` | &.-.H.OX+X=XOX` sXsXsXsXsXsXsXsXsXsXsXsXsXsXsXsXsXsXsXsX",
"sXsXsXsXsXsXsXsXsXsXsXsXsXsXsXsXsXsXsXsXsXsXsXsXsXsXsXsXsXsXsXsXsX3 Q / ` *.=.=.+X8X=Xc._ sXsXsXsXsXsXsXsXsXsXsXsXsXsXsXsXsXsXsXsX",
"sXsXsXsXsXsXsXsXsXsXsXsXsXsXsXsXsXsXsXsXsXsXsXsXsXsXsXsXsXsXsXsXsX^  .K.L.2.1.<.@X,X2.( sXsXsXsXsXsXsXsXsXsXsXsXsXsXsXsXsXsXsXsXsX",
"sXsXsXsXsXsXsXsXsXsXsXsXsXsXsXsXsXsXsXsXsXsXsXsXsXsXsXsXsXsXsXsX2 ~ +.+X>X=.&.3.>X1XH.sXsXsXsXsXsXsXsXsXsXsXsXsXsXsXsXsXsXsXsXsXsX",
"sXsXsXsXsXsXsXsXsXsXsXsXsXsXsXsXsXsXsXsXsXsXsXsXsXsXsXsXsXsX- - - ; l +.L.' ~ =.OX*XH.sXsXsXsXsXsXsXsXsXsXsXsXsXsXsXsXsXsXsXsXsXsX",
"sXsXsXsXsXsXsXsXsXsXsXsXsXsXsXsXsXsXsXsXsXsXsXsXsXsXsXsXsXc v : , ; > 2 N N M ( | X.sXsXsXsXsXsXsXsXsXsXsXsXsXsXsXsXsXsXsXsXsXsXsX",
"sXsXsXsXsXsXsXsXsXsXsXsXsXsXsXsXsXsXsXsXsXsXsXsXsXsXsXsXh v : < ^ | X.$.N ; 2 ; sXsXsXsXsXsXsXsXsXsXsXsXsXsXsXsXsXsXsXsXsXsXsXsXsX",
"sXsXsXsXsXsXsXsXsXsXsXsXsXsXsXsXsXsXsXsXsXsXsXsXsXsXsXk A v o 1 ,.I.H.>..X` 2 c c sXsXsXsXsXsXsXsXsXsXsXsXsXsXsXsXsXsXsXsXsXsXsXsX",
"sXsXsXsXsXsXsXsXsXsXsXsXsXsXsXsXsXsXsXsXsXsXsXsXsXsXsXz W.B o 5 H.*XH. X5XY._ K A v h sXsXsXsXsXsXsXsXsXsXsXsXsXsXsXsXsXsXsXsXsXsX",
"sXsXsXsXsXsXsXsXsXsXsXsXsXsXsXsXsXsXsXsXsXsXsXsXsXsX- B _.V O u *.L.=X4X1XP.:._ U _.V - sXsXsXsXsXsXsXsXsXsXsXsXsXsXsXsXsXsXsXsXsX",
"sXsXsXsXsXsXsXsXsXsXsXsXsXsXsXsXsXsXsXsXsXsXsXsXsXg B G _.V O 0 d &.L.*XL.` 1.L.-.R Z - sXsXsXsXsXsXsXsXsXsXsXsXsXsXsXsXsXsXsXsXsX",
"sXsXsXsXsXsXsXsXsXsXsXsXsXsXsXsX- sXsXsXsXsXsXsXg B ).E./.V O & w d ~ ` :.*.3.=XL.) m : sXsXsXsXsXsXsXsXsXsXsXsXsXsXsXsXsXsXsXsXsX",
"sXsXsXsXsXsXsXsXsXsXsXsXsXsXsXsX- sXsXsXsXsXsXg B G E.~.U i 8 X X $ , M ] 2.4.<.J...1 6.h.g.w.e.h.sXsXsXsXsXsXsXsXsXsXsXsXsXsXsXsX",
"sXsXsXsXsXsXsXsXsXsXsXsXsXsXsX= = sXsXsXsXsXg B G E.!.~.I 0.q.q 7 X . + , _ 1.>.P..X{ a.g.k.g.j.x.f.sXsXsXsXsXsXsXsXsXsXsXsXsXsXsX",
"sXsXsXsXsXsXsXsXsXsXsXsXsXsXsXg h sXsXsXsXg B Z E.!.'.~.P y p.i.t.q 7 6 7 i  .K.-X=Xv.c.t.A.A.B.C.N.h.sXsXsXsXsXsXsXsXsXsXsXsXsXsX",
"sXsXsXsXsXsXsXsXsXsXsXsXsXsXsXh C v sXsX- v G ).~.].~.~.L ) 2.L.s.6.r 0.0.i y ` L.&XXX;.t.F.G.C.C.S.d.sXsXsXsXsXsXsXsXsXsXsXsXsXsX",
"sXsXsXsXsXsXsXsXsXsXsXsXsXsXsXh C G v k B G ).E.~.`.].~.L 4 *.XXOX:.{ ..:.~ 1 3 ' 1.:.b.u.B.D.B.C.N.q.sXsXsXsXsXsXsXsXsXsXsXsXsXsX",
"sXsXsXsXsXsXsXsXsXsXsXsXsXsXsXh G ).C C G _.E.^.~.~.`.`.j o <  .L..XJ.,.%.y sXsXsX/ d t.z.z.z.x.N.f.q.sXsXsXsXsXsXsXsXsXsXsXsXsXsX",
"sXsXsXsXsXsXsXsXsXsXsXsXsXsXsXh Z ).)._./.Q.'.`.`.`.`.n o     + 1 y a 1 t 7.d.sXsXsX7.w.d.w.w.r.g.w.sXsXsXsXsXsXsXsXsXsXsXsXsXsXsX",
"sXsXsXsXsXsXsXsXsXsXsXsXsXsXsXk D ^.Q.Q.'.`.`.`.`.`.~.I 4 , . .         # q.z.sXsXsXsXsXsXsXsXsXsXsXsXsXsXsXsXsXsXsXsXsXsXsXsXsXsX",
"sXsXsXsXsXsXsXsXsXsXsXsXsXsXsXj S `.`.`.`.`.`.`.`.`.P [.|.1.-.` ~ 3 <   @ q.B.sXsXsXsXsXsXsXsXsXsXsXsXsXsXsXsXsXsXsXsXsXsXsXsXsXsX",
"sXsXsXsXsXsXsXsXsXsXsXsXsXsXsXj '.`.`.`.`.`.`.`.`.].! |.<X3X9X7X,X<Xv./ a p.l.sXsXsXsXsXsXsXsXsXsXsXsXsXsXsXsXsXsXsXsXsXsXsXsXsXsX",
"sXsXsXsXsXsXsXsXsXsXsXsXsXsXsXj S `.`.`.`.`.`.`.`.P #.}.,X0XwXtXwXeXrX4X X;.p.sXsXsXsXsXsXsXsXsXsXsXsXsXsXsXsXsXsXsXsXsXsXsXsXsXsX",
"sXsXsXsXsXsXsXsXsXsXsXsXsXsXsXj S `.`.`.`.`.~.~.'.O.J.#X3XqXtXuXyXwXqX>X4.@X<XsXsXsXsXsXsXsXsXsXsXsXsXsXsXsXsXsXsXsXsXsXsXsXsXsXsX",
"sXsXsXsXsXsXsXsXsXsXsXsXsXsXsXj S `.`.`.`.`.`.~.!.O.J.<X8XwXuXiXuXtX0X+X3.3X9X$XsXsXsXsXsXsXsXsXsXsXsXsXsXsXsXsXsXsXsXsXsXsXsXsXsX",
"sXsXsXsXsXsXsXsXsXsXsXsXsXsXsXh A !.`.`.`.`.`.~./.O.J.:X4XwXiXiXyX9X@X4.:XqXwX2XsXsXsXsXsXsXsXsXsXsXsXsXsXsXsXsXsXsXsXsXsXsXsXsXsX",
"sXsXsXsXsXsXsXsXsXsXsXsXsXsXsXh Z !.`.`.`.`.!.'.Y -..X,X4X8XyXtXeX3X3.<.,XwXyXqX$XsXsXsXsXsXsXsXsXsXsXsXsXsXsXsXsXsXsXsXsXsXsXsXsX",
"sXsXsXsXsXsXsXsXsXsXsXsXsXsXsXh A ^.'.~.~.`.!.F +.2.4.,XqX9X8X3X8X2X4.3.8XyXiXtX,XsXsXsXsXsXsXsXsXsXsXsXsXsXsXsXsXsXsXsXsXsXsXsXsX",
"sXsXsXsXsXsXsXsXsXsXsXsXsXsXsXh C Q.!.`.'.!./.T -.$X|.>XaXuX0X3X2X#X1.|.tXiXaXwX9X+XsXsXsXsXsXsXsXsXsXsXsXsXsXsXsXsXsXsXsXsXsXsXsX",
"sXsXsXsXsXsXsXsXsXsXsXsXsXsXsXh V G Q.`.~.(.H +.n.8X9XwXuXuXuXwX@X1.=.+XqXtXwXwX0X+XsXsXsXsXsXsXsXsXsXsXsXsXsXsXsXsXsXsXsXsXsXsXsX",
"sXsXsXsXsXsXsXsXsXsXsXsXsXsXsXsXg C Q.~.~.Q.H +.2.7XtXyXyXwX8X:X3.-.3.,X3X8X0X9X,X1.sXsXsXsXsXsXsXsXsXsXsXsXsXsXsXsXsXsXsXsXsXsXsX",
"sXsXsXsXsXsXsXsXsXsXsXsXsXsXsXsXg C ).^.Q.R.J @.n.8X4X,X0X3X,X,X X&.J.:X<X:X X3XwX8X XsXsXsXsXsXsXsXsXsXsXsXsXsXsXsXsXsXsXsXsXsXsX",
"sXsXsXsXsXsXsXsXsXsXsXsXsXsXsXsXg C ).Z W.J @.4.+X8X<X X#X>X3X3X$X-.4.|.<.3.2XyXiXtX,XsXsXsXsXsXsXsXsXsXsXsXsXsXsXsXsXsXsXsXsXsXsX",
"sXsXsXsXsXsXsXsXsXsXsXsXsXsXsXsXsXh C R.J @.4.#X>X,X+X+X2X9XtX9X|.W W 1.4. X8XtXtXtX3XsXsXsXsXsXsXsXsXsXsXsXsXsXsXsXsXsXsXsXsXsXsX",
"sXsXsXsXsXsXsXsXsXsXsXsXsXsXsXsXsX= V W.Y *.|.:X4X8X8X8XwXpXaX1X#._.U &.3.J.|.+X,X0X0XsXsXsXsXsXsXsXsXsXsXsXsXsXsXsXsXsXsXsXsXsXsX",
"sXsXsXsXsXsXsXsXsXsXsXsXsXsXsXsXsXsXz A W $.v.>X8XyXiXyXtXyXqX[.H W.T *.3.|.|.+X,X9XyX2XsXsXsXsXsXsXsXsXsXsXsXsXsXsXsXsXsXsXsXsXsX",
"sXsXsXsXsXsXsXsXsXsXsXsXsXsXsXsXsXsXsXz H ) { v.3XtXuXqX3X3X>X[.H R.T 4.,X0X9XwXyXyXyX3XsXsXsXsXsXsXsXsXsXsXsXsXsXsXsXsXsXsXsXsXsX",
"sXsXsXsXsXsXsXsXsXsXsXsXsXsXsXsXsXsXsXsXv E 6.u.*X9X9X,X{.sXsXH A ).U &.@X3X8XeXtXeX@XsXsXsXsXsXsXsXsXsXsXsXsXsXsXsXsXsXsXsXsXsXsX",
"sXsXsXsXsXsXsXsXsXsXsXsXsXsXsXsXsXsXsXsXsX6.y.V.x.U. X+X>XsXsXl B Z x l sX=X7X9X2X3.f 8.sXsXsXsXsXsXsXsXsXsXsXsXsXsXsXsXsXsXsXsXsX",
"sXsXsXsXsXsXsXsXsXsXsXsXsXsXsXsXsXsXsXsX8.q.k.G.G.M.i.=.sXsXsXsX- g - sXsX_ &.:.=.i.k.l.8.sXsXsXsXsXsXsXsXsXsXsXsXsXsXsXsXsXsXsXsX",
"sXsXsXsXsXsXsXsXsXsXsXsXsXsXsXsXsXsXsXsX5.g.N.N.D.k.q.9 o       . .     . + 9 0.M.S.Z.l.9.e r r sXsXsXsXsXsXsXsXsXsXsXsXsXsXsXsXsX",
"sXsXsXsXsXsXsXsXsXsXsXsXsXsXsXsXsXsXsXsX9.k.D.A.k.e.q X                     @ w y.m.V.V.N.r.e sXsXsXsXsXsXsXsXsXsXsXsXsXsXsXsXsXsX",
"sXsXsXsXsXsXsXsXsXsXsXsXsXsXsXsXsXsXsXsX5.e.Z.G.V.e.w $                     . % 8.j.V.S.u.t.e sXsXsXsXsXsXsXsXsXsXsXsXsXsXsXsXsXsX",
"sXsXsXsXsXsXsXsXsXsXsXsXsXsXsXsXsXsXsXsXsX0 9.l.V.N.g.e $                   . # r y.y.8.% % sXsXsXsXsXsXsXsXsXsXsXsXsXsXsXsXsXsXsX",
"sXsXsXsXsXsXsXsXsXsXsXsXsXsXsXsXsXsXsXsX  X & 7 9.k.k.e.0 X                     $ 7 % #     sXsXsXsXsXsXsXsXsXsXsXsXsXsXsXsXsXsXsX",
"sXsXsXsXsXsXsXsXsXsXsXsXsXsXsXsXsXsXsX        X % 8 r 9.8 X                                   sXsXsXsXsXsXsXsXsXsXsXsXsXsXsXsXsXsX",
"sXsXsXsXsXsXsXsXsXsXsXsXsXsXsXsXsXsXsXsX              .                                       sXsXsXsXsXsXsXsXsXsXsXsXsXsXsXsXsXsX",
"sXsXsXsXsXsXsXsXsXsXsXsXsXsXsXsXsXsXsXsXsX                                                  sXsXsXsXsXsXsXsXsXsXsXsXsXsXsXsXsXsXsX"
};
