/* XPM */
static char *result[] = {
/* columns rows colors chars-per-pixel */
"65 65 238 2 ",
"   c #000000",
".  c #0B0601",
"X  c #0A090C",
"o  c #140A00",
"O  c #1B0E00",
"+  c #1B0D0A",
"@  c #16120F",
"#  c #080813",
"$  c #1E1E1A",
"%  c #100F1F",
"&  c #391C00",
"*  c #281013",
"=  c #3B250D",
"-  c #010134",
";  c #0A0A35",
":  c #01013A",
">  c #0A0839",
",  c #1E1C37",
"<  c #100E2A",
"1  c #372327",
"2  c #2C2C3B",
"3  c #272738",
"4  c #34343B",
"5  c #3C3C3B",
"6  c #353535",
"7  c #222323",
"8  c #4D2500",
"9  c #4A2502",
"0  c #562900",
"q  c #59331E",
"w  c #683305",
"e  c #723603",
"r  c #653918",
"t  c #743C12",
"y  c #6F2E0E",
"u  c #4F312A",
"i  c #543629",
"p  c #4E2E24",
"a  c #6F2931",
"s  c #6E4019",
"d  c #45443E",
"f  c #544C3E",
"g  c #684935",
"h  c #060044",
"j  c #0B0144",
"k  c #05024B",
"l  c #0B004C",
"z  c #191B42",
"x  c #0D0254",
"c  c #0D025C",
"v  c #040656",
"b  c #11015D",
"n  c #160759",
"m  c #00105E",
"M  c #292647",
"N  c #372C46",
"B  c #373848",
"V  c #050C67",
"C  c #130163",
"Z  c #15036B",
"A  c #1B066A",
"S  c #071469",
"D  c #0A0972",
"F  c #150575",
"G  c #071779",
"H  c #22007C",
"J  c #1A2D78",
"K  c #213378",
"L  c #32246E",
"P  c #260E4A",
"I  c #423756",
"U  c #364378",
"Y  c #444443",
"T  c #4A4944",
"R  c #4A4A4A",
"E  c #474849",
"W  c #5B544D",
"Q  c #59564B",
"!  c #4C4C56",
"~  c #535353",
"^  c #5C5C5B",
"/  c #585856",
"(  c #505050",
")  c #674D41",
"_  c #635E59",
"`  c #6C5947",
"'  c #62615B",
"]  c #6B6856",
"[  c #766C5C",
"{  c #78735B",
"}  c #595C65",
"|  c #5A6065",
" . c #646465",
".. c #6A6964",
"X. c #6D6D6B",
"o. c #65686B",
"O. c #767363",
"+. c #7E7A65",
"@. c #79766A",
"#. c #6D6E71",
"$. c #656970",
"%. c #747473",
"&. c #7C7B75",
"*. c #7B7B7C",
"=. c #777B7D",
"-. c #766E6F",
";. c #883A01",
":. c #903C0B",
">. c #873321",
",. c #994603",
"<. c #8A5C00",
"1. c #804C1B",
"2. c #A84902",
"3. c #B64803",
"4. c #AC5305",
"5. c #B85608",
"6. c #A5531A",
"7. c #BA5D11",
"8. c #BC641B",
"9. c #AB710B",
"0. c #90522A",
"q. c #A85B2A",
"w. c #98623C",
"e. c #C55C00",
"r. c #CB5A04",
"t. c #D45900",
"y. c #D35910",
"u. c #CD6201",
"i. c #C66A00",
"p. c #D26602",
"a. c #D87701",
"s. c #CB740F",
"d. c #E46801",
"f. c #E57B00",
"g. c #F57000",
"h. c #8F6E5A",
"j. c #827D64",
"k. c #817D6C",
"l. c #817F77",
"z. c #967663",
"x. c #AA7252",
"c. c #CD8900",
"v. c #D78300",
"b. c #D69200",
"n. c #CE8D0A",
"m. c #E88700",
"M. c #F38800",
"N. c #E69700",
"B. c #F49300",
"V. c #E8951B",
"C. c #FAB700",
"Z. c #FEA910",
"A. c #E99922",
"S. c #FFA021",
"D. c #FBC704",
"F. c #EEC216",
"G. c #F5CC31",
"H. c #8B845D",
"J. c #89846B",
"K. c #8D886E",
"L. c #93896A",
"P. c #8A8673",
"I. c #84817A",
"U. c #8D8B7B",
"Y. c #868375",
"T. c #948A79",
"R. c #989376",
"E. c #A39B75",
"W. c #A19B7C",
"Q. c #A38F7C",
"!. c #AEA57D",
"~. c #EEB24D",
"^. c #E8A15C",
"/. c #FBDA4B",
"(. c #FBD362",
"). c #FAE27B",
"_. c #180A85",
"`. c #041D8B",
"'. c #0A1788",
"]. c #131685",
"[. c #041F91",
"{. c #250482",
"}. c #270998",
"|. c #0A2285",
" X c #00228C",
".X c #062181",
"XX c #002093",
"oX c #7E7E81",
"OX c #7E8183",
"+X c #838484",
"@X c #8C8D8D",
"#X c #8A8B88",
"$X c #9C998C",
"%X c #969786",
"&X c #888C93",
"*X c #949493",
"=X c #9C9C9C",
"-X c #9A9996",
";X c #8F959A",
":X c #A39B85",
">X c #A29992",
",X c #9FA09E",
"<X c #ABA587",
"1X c #B2AB87",
"2X c #A4A499",
"3X c #B3AE96",
"4X c #BAB38F",
"5X c #A4A4A4",
"6X c #ABABAB",
"7X c #AAA9A5",
"8X c #B8B5AA",
"9X c #B5B5B5",
"0X c #BAB9B5",
"qX c #BBBBBB",
"wX c #B8B7B7",
"eX c #ACB1B2",
"rX c #C8B896",
"tX c #C1BEAC",
"yX c #FDDD82",
"uX c #C9C7BB",
"iX c #BDC7CE",
"pX c #C4C4C4",
"aX c #CCCCCC",
"sX c #C8CACA",
"dX c #C3CBD6",
"fX c #D5D5D5",
"gX c #DADADA",
"hX c #CED3D5",
"jX c #E0E0DF",
"kX c #DCE1E4",
"lX c #E3E4E4",
"zX c #ECECEC",
"xX c #F3F3F3",
"cX c #FCFCFC",
"vX c #F8F7F7",
"bX c #EDF2F6",
"nX c #D6DAE9",
"mX c None",
/* pixels */
"mXmXmXmXmXmXmXmXmXmXmXmXmXmXmXmXmXmXmXmXmXmXmXmXmXmXmXmXmXmXmXmX/ / / mXmXmXmXmXmXmXmXmXmXmXmXmXmXmXmXmXmXmXmXmXmXmXmXmXmXmXmXmXmX",
"mXmXmXmXmXmXmXmXmXmXmXmXmXmXmXmXmXmXmXmXmXmXmXmXmXmXmXmXmXmX~ J.E.E.<X2XmXR mXmXmXmXmXmXmXmXmXmXmXmXmXmXmXmXmXmXmXmXmXmXmXmXmXmXmX",
"mXmXmXmXmXmXmXmXmXmXmXmXmXmXmXmXmXmXmXmXmXmXmXmXmXmXmXmXmXK.R.] Q Q W ..K.R.$XmXmXmXmXmXmXmXmXmXmXmXmXmXmXmXmXmXmXmXmXmXmXmXmXmXmX",
"mXmXmXmXmXmXmXmXmXmXmXmXmXmXmXmXmXmXmXmXmXmXmXmXmXmXmXmX+.{ ` mXmXmXmXmX] R.3X:XY.mXmXmXmXmXmXmXmXmXmXmXmXmXmXmXmXmXmXmXmXmXmXmXmX",
"mXmXmXmXmXmXmXmXmXmXmXmXmXmXmXmXmXmXmXmXmXmXmXmXmXmXmX+.] mXmXmXmXmXmXmXmX^ P.!.4X3XoXmXmXmXmXmXmXmXmXmXmXmXmXmXmXmXmXmXmXmXmXmXmX",
"mXmXmXmXmXmXmXmXmXmXmXmXmXmXmXmXmXmXmXmXmXmXmXmXmXmXK.{ T mXmXmXmXmXmXmXmXmX/ P.E.1X8XoXmXmXmXmXmXmXmXmXmXmXmXmXmXmXmXmXmXmXmXmXmX",
"mXmXmXmXmXmXmXmXmXmXmXmXmXmXmXmXmXmXmXmXmXmXmXmXmXmXK.+.T mXmXmXmXmXmXmXmXmX4 ^ U.E.1X8XoXmXmXmXmXmXmXmXmXmXmXmXmXmXmXmXmXmXmXmXmX",
"mXmXmXmXmXmXmXmXmXmXmXmXmXmXmXmXmXmXmXmXmXmXmXmXmXmXj.{ d mXmXmXmXmXmXmXmXmX5 ^ %.Y.E.<X8XoXmXmXmXmXmXmXmXmXmXmXmXmXmXmXmXmXmXmXmX",
"mXmXmXmXmXmXmXmXmXmXmXmXmXmXmXmXmXmXmXmXmXmXmXmXmXmXmXd 5 mXmXmXmXmXmXmXmX .#./ ~ *.Y.<X8X=XmXmXmXmXmXmXmXmXmXmXmXmXmXmXmXmXmXmXmX",
"mXmXmXmXmXmXmXmXmXmXmXmXmXmXmXmXmXmXmXmXmXmXmXmXmXmXmXmXmXmXmXmXmXmXmXmXE 6 ] E.@. .l.W.0XqXmXmXmXmXmXmXmXmXmXmXmXmXmXmXmXmXmXmXmX",
"mXmXmXmXmXmXmXmXmXmXmXmXmXmXmXmXmXmXmXmXmXmXmXmXmXmXmXmXmXmXmXmXmXmXmXE o.{ H.H.[ Y.%.Y.9XsX@XmXmXmXmXmXmXmXmXmXmXmXmXmXmXmXmXmXmX",
"mXmXmXmXmXmXmXmXmXmXmXmXmXmXmXmXmXmXmXmXmXmXmXmXmXmXmXmXmXmXmXmXmXmXmX} I.1X4XU.O.R.U.=XpXuXY.mXmXmXmXmXmXmXmXmXmXmXmXmXmXmXmXmXmX",
"mXmXmXmXmXmXmXmXmXmXmXmXmXmXmXmXmXmXmXmXmXmXmXmXmXmXmXmXmXmXmXmXmXmX~ %...O.%X2XK.+.4XsXuX<X+.mXmXmXmXmXmXmXmXmXmXmXmXmXmXmXmXmXmX",
"mXmXmXmXmXmXmXmXmXmXmXmXmXmXmXmXmXmXmXmXmXmXmXmXmXmXmXmXmXmXmXmXmXmX( ^ R T ' P.J.~ K.2XT.] =.#XmXmXmXmXmXmXmXmXmXmXmXmXmXmXmXmXmX",
"mXmXmXmXmXmXmXmXmXmXmXmXmXmXmXmXmXmXmXmXmXmXmXmXmXmXmXmXmXmXmXmXmXmX5 d ' +.O.J.J.d $ T ^ ~ ~ / mXmXmXmXmXmXmXmXmXmXmXmXmXmXmXmXmX",
"mXmXmXmXmXmXmXmXmXmXmXmXmXmXmXmXmXmXmXmXmXmXmXmXmXmXmXmXmXmXmXmXmXmX2 Q { f %.-X+.] . 7 #.%.E mXmXmXmXmXmXmXmXmXmXmXmXmXmXmXmXmXmX",
"mXmXmXmXmXmXmXmXmXmXmXmXmXmXmXmXmXmXmXmXmXmXmXmXmXmXmXmXmXmXmXmXmXmXmXR ] J.@.#.+.R.~ ^ @X+X/ mXmXmXmXmXmXmXmXmXmXmXmXmXmXmXmXmXmX",
"mXmXmXmXmXmXmXmXmXmXmXmXmXmXmXmXmXmXmXmXmXmXmXmXmXmXmXmXmXmXmXmXmXmXmX5 T W '  .O.U.6X7X3XW.@.mXmXmXmXmXmXmXmXmXmXmXmXmXmXmXmXmXmX",
"mXmXmXmXmXmXmXmXmXmXmXmXmXmXmXmXmXmXmXmXmXmXmXmXmXmXmXmXmXmXmXmXmXmXmX6 4 ( O.&.%.%.=XwX$X+...mXmXmXmXmXmXmXmXmXmXmXmXmXmXmXmXmXmX",
"mXmXmXmXmXmXmXmXmXmXmXmXmXmXmXmXmXmXmXmXmXmXmXmXmXmXmXmXmXmXmXmXmXmXmX6 R %.$XT.#.%.OX9X$X' mXmXmXmXmXmXmXmXmXmXmXmXmXmXmXmXmXmXmX",
"mXmXmXmXmXmXmXmXmXmXmXmXmXmXmXmXmXmXmXmXmXmXmXmXmXmXmXmXmXmXmXmXmXmXmX/ @.#X7X#X! X.+X8X1X] mXmXmXmXmXmXmXmXmXmXmXmXmXmXmXmXmXmXmX",
"mXmXmXmXmXmXmXmXmXmXmXmXmXmXmXmXmXmXmXmXmXmXmXmXmXmXmXmXmXmXmXmXmXmXY  .%.%XtX+XY ~ l.R.E.[ mXmXmXmXmXmXmXmXmXmXmXmXmXmXmXmXmXmXmX",
"mXmXmXmXmXmXmXmXmXmXmXmXmXmXmXmXmXmXmXmXmXmXmXmXmXmXmXmXmXmXmXmXmX5 M , B J.1XO.~ ^ ( / _ mXmXmXmXmXmXmXmXmXmXmXmXmXmXmXmXmXmXmXmX",
"mXmXmXmXmXmXmXmXmXmXmXmXmXmXmXmXmXmXmXmXmXmXmXmXmXmXmXmXmXmXmX, ~ @.O.! 3 M B M z M ; mXmXmXmXmXmXmXmXmXmXmXmXmXmXmXmXmXmXmXmXmXmX",
"mXmXmXmXmXmXmXmXmXmXmXmXmXmXmXmXmXmXmXmXmXmXmXmXmXmXmXmXmX; , ! ~ &.8X2X^ 3 - : c Z : - - mXmXmXmXmXmXmXmXmXmXmXmXmXmXmXmXmXmXmXmX",
"mXmXmXmXmXmXmXmXmXmXmXmXmXmXmXmXmXmXmXmXmXmXmXmXmXmXmXmXmX; 2 ..@.T.8X0XU.d 1 * k C - - x C l mXmXmXmXmXmXmXmXmXmXmXmXmXmXmXmXmXmX",
"mXmXmXmXmXmXmXmXmXmXmXmXmXmXmXmXmXmXmXmXmXmXmXmXmXmXmXmXmX; 4 X.&.L.1XuX%XQ t :.1 k c n b Z b x mXmXmXmXmXmXmXmXmXmXmXmXmXmXmXmXmX",
"mXmXmXmXmXmXmXmXmXmXmXmXmXmXmXmXmXmXmXmXmXmXmXmXmXmXmXmX- ; 4 ^ ' O.R.<X#X( y e.,.P }.{.x > b n : mXmXmXmXmXmXmXmXmXmXmXmXmXmXmXmX",
"mXmXmXmXmXmXmXmXmXmXmXmXmXmXmXmXmXmXmXmXmXmXmXmXmXmXmXmX: ; 3 d ~ X.%.I.&.B + <.m.a }.}.n mXmXh - mXmXmXmXmXmXmXmXmXmXmXmXmXmXmXmX",
"mXmXmXmXmXmXmXmXmXmXmXmXmXmXmXmXmXmXmXmXmXmXmXmXmXmXmXmX: > 6 6 Y E ~ I.K.T @ <.B.>.{.}.c mXmXmXmXmXmXmXmXmXmXmXmXmXmXmXmXmXmXmXmX",
"mXmXmXmXmXmXmXmXmXmXmXmXmXmXmXmXmXmXmXmXmXmXmXmXmXmXmXmX- ; 2 5 6 Y X.,X2XW s b.N.y n _.x mXmXmXmXmXmXmXmXmXmXmXmXmXmXmXmXmXmXmXmX",
"mXmXmXmXmXmXmXmXmXmXmXmXmXmXmXmXmXmXmXmXmXmXmXmXmXmXmXmXk n N ( E 5 =.0X,X` ,.f.9.i : k h mXmXmXmXmXmXmXmXmXmXmXmXmXmXmXmXmXmXmXmX",
"mXmXmXmXmXmXmXmXmXmXmXmXmXmXmXmXmXmXmXmXmXmXmXmXmXmXmXmXx A I { ' 4 %.3XU.R g 0.r mXmXmX: mXmXmXmXmXmXmXmXmXmXmXmXmXmXmXmXmXmXmXmX",
"mXmXmXmXmXmXmXmXmXmXmXmXmXmXmXmXmXmXmXmXmXmXmXmXmXmXmX> C Z B j.] ~ Y.%X@.) ) W mXmXmXmXmXmXmXmXmXmXmXmXmXmXmXmXmXmXmXmXmXmXmXmXmX",
"mXmXmXmXmXmXmXmXmXmXmXmXmXmXmXmXmXmXmXmXmXmXmXmXmXmXmXx F c % d R E %.=.h.6.4.1.mXmXmXmXmXmXmXmXmXmXmXmXmXmXmXmXmXmXmXmXmXmXmXmXmX",
"mXmXmXmXmXmXmXmXmXmXmXmXmXmXmXmXmXmXmXmXmXmXmXmXmXmXmXm G <   X @ $ ! [ q.y.A.s.:.mXmXmXmXmXmXmXmXmXmXmXmXmXmXmXmXmXmXmXmXmXmXmXmX",
"mXmXmXmXmXmXmXmXmXmXmXmXmXmXmXmXmXmXmXmXmXmXmXmXmXmXmXV K B $ X X 7 i 6.p.V.(.^.y.mXmXmXmXmXmXmXmXmXmXmXmXmXmXmXmXmXmXmXmXmXmXmXmX",
"mXmXmXmXmXmXmXmXmXmXmXmXmXmXmXmXmXmXmXmXmXmXmXmXmXmXmXv |.} Q ~ | / g 3.g.Z./.yX^.2.mXmXmXmXmXmXmXmXmXmXmXmXmXmXmXmXmXmXmXmXmXmXmX",
"mXmXmXmXmXmXmXmXmXmXmXmXmXmXmXmXmXmXmXmXmXmXmXmXmXmXl D J } l.6X6XOX_ 0.y.M.C.G.~.u.p.mXmXmXmXmXmXmXmXmXmXmXmXmXmXmXmXmXmXmXmXmXmX",
"mXmXmXmXmXmXmXmXmXmXmXmXmXmXmXmXmXmXmXmXmXmXmXmXmX- c ].U #.*XqXwX=X;XI.w.y.f.B.M.S.~.n.mXmXmXmXmXmXmXmXmXmXmXmXmXmXmXmXmXmXmXmXmX",
"mXmXmXmXmXmXmXmXmXmXmXmXmXmXmXmXmXmXmXmXmXmXmXmXmX- m K o.#X,XqXaXjXzXsX>Xw.5.t.m.G.yXA.5.mXmXmXmXmXmXmXmXmXmXmXmXmXmXmXmXmXmXmXmX",
"mXmXmXmXmXmXmXmXmXmXmXmXmXmXmXmXmXmXmXmXmXmXmXmXmX: V K $.$XqX0XsXzXzXzXdX>Xq.t.B.D.F.a.3.mXmXmXmXmXmXmXmXmXmXmXmXmXmXmXmXmXmXmXmX",
"mXmXmXmXmXmXmXmXmXmXmXmXmXmXmXmXmXmXmXmXmXmXmXmX- m '.J } =XjXlXaXfXzXbXxXaXx.3.d.M.B.u.3.mXmXmXmXmXmXmXmXmXmXmXmXmXmXmXmXmXmXmXmX",
"mXmXmXmXmXmXmXmXmXmXmXmXmXmXmXmXmXmXmXmXmXmXmXmX: S XX].L %.aXvXzXzXxXbXlXpXT.0.3.5.7.6.h.mXmXmXmXmXmXmXmXmXmXmXmXmXmXmXmXmXmXmXmX",
"mXmXmXmXmXmXmXmXmXmXmXmXmXmXmXmXmXmXmXmXmXmXmXmXb G  X'.Z M *.aXvXxXzXfXeX6X9X>Xz.z.h.z.*.mXmXmXmXmXmXmXmXmXmXmXmXmXmXmXmXmXmXmXmX",
"mXmXmXmXmXmXmXmXmXmXmXmXmXmXmXmXmXmXmXmXmXmXmX: D `. XG v - M oX0XqX7X=X6XpXlXjXdXfXiXeX+XmXmXmXmXmXmXmXmXmXmXmXmXmXmXmXmXmXmXmXmX",
"mXmXmXmXmXmXmXmXmXmXmXmXmXmXmXmXmXmXmXmXmXmXmXx G  X`.V : - : B X.&.X.+XiXlXlXzXcXcXvXpX@XmXmXmXmXmXmXmXmXmXmXmXmXmXmXmXmXmXmXmXmX",
"mXmXmXmXmXmXmXmXmXmXmXmXmXmXmXmXmXmXmXmXmXmXk F '. X].C : - z ! X.&.OX@X7XsXfXfXzXcXzXqX+XmXmXmXmXmXmXmXmXmXmXmXmXmXmXmXmXmXmXmXmX",
"mXmXmXmXmXmXmXmXmXmXmXmXmXmXmXmXmXmXmXmXmXmXk G  XXXS < ; , ! &.@XwX6X+X5XfXzXxXxXzXfX*XmXmXmXmXmXmXmXmXmXmXmXmXmXmXmXmXmXmXmXmXmX",
"mXmXmXmXmXmXmXmXmXmXmXmXmXmXmXmXmXmXmXmXmXl F `.|.|.N r y r [ ;X5X5XqXwXl.=.6XgXlXgX9XmXmXmXmXmXmXmXmXmXmXmXmXmXmXmXmXmXmXmXmXmXmX",
"mXmXmXmXmXmXmXmXmXmXmXmXmXmXmXmXmXmXmXmXmXk '.|.N p t 2.e.7.%X9X6X6XgXzXhX5X,XpXfX9XmXmXmXmXmXmXmXmXmXmXmXmXmXmXmXmXmXmXmXmXmXmXmX",
"mXmXmXmXmXmXmXmXmXmXmXmXmXmXmXmXmXmXmXmXl D  X|.i 2.2.u.M.A.rXdXwX6XhXxXcXzXpXpXsXmXmXmXmXmXmXmXmXmXmXmXmXmXmXmXmXmXmXmXmXmXmXmXmX",
"mXmXmXmXmXmXmXmXmXmXmXmXmXmXmXmXmXmXmXj F ]. X|.i i.p.v.C.F.rXnXfX9X9XaXzXcXkX9X@XmXmXmXmXmXmXmXmXmXmXmXmXmXmXmXmXmXmXmXmXmXmXmXmX",
"mXmXmXmXmXmXmXmXmXmXmXmXmXmXmXmXmX: h Z ]. X XG u c.m.m.F.F.1XiXzXfX6X5XaXzXaX*X%.mXmXmXmXmXmXmXmXmXmXmXmXmXmXmXmXmXmXmXmXmXmXmXmX",
"mXmXmXmXmXmXmXmXmXmXmXmXmXmXmXmXmX- Z _.`.`.`.G p b.N.a.B.V.L.&XwXfX-XX.,XqX*X+X#XmXmXmXmXmXmXmXmXmXmXmXmXmXmXmXmXmXmXmXmXmXmXmXmX",
"mXmXmXmXmXmXmXmXmXmXmXmXmXmXmXmXmX- b H _.'.D j 9 c.m.u.e.8.g o. . . . . .=.@X+XmXmXmXmXmXmXmXmXmXmXmXmXmXmXmXmXmXmXmXmXmXmXmXmXmX",
"mXmXmXmXmXmXmXmXmXmXmXmXmXmXmXmXmXmX: b {.F l mXw 5.e.,.e w r ) }  .%.%.%.%.X._ mXmXmXmXmXmXmXmXmXmXmXmXmXmXmXmXmXmXmXmXmXmXmXmXmX",
"mXmXmXmXmXmXmXmXmXmXmXmXmXmXmXmXmXmXmXh l h mXmXw :.,.8 o . o % z 1 r 6.s.8.6.t = mXmXmXmXmXmXmXmXmXmXmXmXmXmXmXmXmXmXmXmXmXmXmXmX",
"mXmXmXmXmXmXmXmXmXmXmXmXmXmXmXmXmXmXmXmXmXmXmXmX8 w 8 o       X # + e e.B.B.u.;.&   mXmXmXmXmXmXmXmXmXmXmXmXmXmXmXmXmXmXmXmXmXmXmX",
"mXmXmXmXmXmXmXmXmXmXmXmXmXmXmXmXmXmXmXmXmXmXmX. 9 & o             O e e.m.a.p.,.0 O     mXmXmXmXmXmXmXmXmXmXmXmXmXmXmXmXmXmXmXmXmX",
"mXmXmXmXmXmXmXmXmXmXmXmXmXmXmXmXmXmXmXmXmX      O o               o & ,.e.i.a.u.,.0 O     mXmXmXmXmXmXmXmXmXmXmXmXmXmXmXmXmXmXmXmX",
"mXmXmXmXmXmXmXmXmXmXmXmXmXmXmXmXmXmXmXmX        .                   O 0 4.v.b.i.2.;.8 .     mXmXmXmXmXmXmXmXmXmXmXmXmXmXmXmXmXmXmX",
"mXmXmXmXmXmXmXmXmXmXmXmXmXmXmXmXmXmXmX                              O 9 0 9 9 9 8 8 & .       mXmXmXmXmXmXmXmXmXmXmXmXmXmXmXmXmXmX",
"mXmXmXmXmXmXmXmXmXmXmXmXmXmXmXmXmXmXmXmX                                  .   .   .         . mXmXmXmXmXmXmXmXmXmXmXmXmXmXmXmXmXmX",
"mXmXmXmXmXmXmXmXmXmXmXmXmXmXmXmXmXmXmXmXmX                                                  mXmXmXmXmXmXmXmXmXmXmXmXmXmXmXmXmXmXmX"
};
