/* XPM */
static char *result[] = {
/* columns rows colors chars-per-pixel */
"65 65 241 2 ",
"   c #000000",
".  c #0A0601",
"X  c #070607",
"o  c #130901",
"O  c #030117",
"+  c #191817",
"@  c #281300",
"#  c #371B01",
"$  c #2A1514",
"%  c #3C2218",
"&  c #050428",
"*  c #1A0F29",
"=  c #010134",
"-  c #03023A",
";  c #0A0838",
":  c #171638",
">  c #141530",
",  c #1F2532",
"<  c #2D2D2E",
"1  c #242424",
"2  c #262836",
"3  c #3B3B3B",
"4  c #343537",
"5  c #353030",
"6  c #261423",
"7  c #4C1D1B",
"8  c #482200",
"9  c #542B00",
"0  c #47281A",
"q  c #592F19",
"w  c #693400",
"e  c #723401",
"r  c #7D3809",
"t  c #663616",
"y  c #6A2E0D",
"u  c #451C28",
"i  c #573D29",
"p  c #443B35",
"a  c #503032",
"s  c #6E3025",
"d  c #4E4438",
"f  c #694729",
"g  c #73512F",
"h  c #744A00",
"j  c #050044",
"k  c #04014A",
"l  c #0B024C",
"z  c #0A0546",
"x  c #171448",
"c  c #0B0352",
"v  c #0B015C",
"b  c #040053",
"n  c #11005D",
"m  c #110B57",
"M  c #1B1A52",
"N  c #3A135A",
"B  c #1F2244",
"V  c #262644",
"C  c #383B4A",
"Z  c #3C3E54",
"A  c #2A2D50",
"S  c #0A0064",
"D  c #020F62",
"F  c #160367",
"G  c #011162",
"H  c #160171",
"J  c #1C0374",
"K  c #1D017A",
"L  c #170479",
"P  c #1D1069",
"I  c #271677",
"U  c #2A1071",
"Y  c #372C73",
"T  c #4A1753",
"R  c #4C2D50",
"E  c #632646",
"W  c #44396B",
"Q  c #4B4C4B",
"!  c #474747",
"~  c #504F4A",
"^  c #55534A",
"/  c #4B4B55",
"(  c #545453",
")  c #5B5A54",
"_  c #54545A",
"`  c #565A5D",
"'  c #5B5C5C",
"]  c #545A57",
"[  c #4E5148",
"{  c #635E59",
"}  c #705A4B",
"|  c #5F605F",
" . c #686659",
".. c #726C5B",
"X. c #77735C",
"o. c #4B4366",
"O. c #5C5D65",
"+. c #504D73",
"@. c #615D6D",
"#. c #5F6061",
"$. c #646464",
"%. c #6C6C6B",
"&. c #686868",
"*. c #747364",
"=. c #7D7B6C",
"-. c #797667",
";. c #6A6972",
":. c #737373",
">. c #7C7B73",
",. c #7C7C7B",
"<. c #747578",
"1. c #6E716C",
"2. c #8B3D00",
"3. c #973F00",
"4. c #873C33",
"5. c #8B4206",
"6. c #9D4401",
"7. c #954609",
"8. c #AA4A01",
"9. c #A54701",
"0. c #B44B04",
"q. c #A75702",
"w. c #B35300",
"e. c #B95A00",
"r. c #AE5519",
"t. c #BC6605",
"y. c #B86518",
"u. c #B8760F",
"i. c #9C643B",
"p. c #AC6C35",
"a. c #8E6924",
"s. c #C65703",
"d. c #D85B00",
"f. c #C84E00",
"g. c #E05B00",
"h. c #C96801",
"j. c #DC6401",
"k. c #D76702",
"l. c #D67B02",
"z. c #C16414",
"x. c #CA7503",
"c. c #E56A01",
"v. c #E57D01",
"b. c #EA7800",
"n. c #F87300",
"m. c #F27F11",
"M. c #8F7053",
"N. c #A66C4F",
"B. c #827E68",
"V. c #BD8300",
"C. c #BC8827",
"Z. c #D88603",
"A. c #CE891B",
"S. c #E78601",
"D. c #F88B00",
"F. c #EA9603",
"G. c #FB9600",
"H. c #F89A1F",
"J. c #E5A603",
"K. c #FCA300",
"L. c #FCAB00",
"P. c #F9B400",
"I. c #F4A912",
"U. c #EA8F28",
"Y. c #F9B22E",
"T. c #FCC71B",
"R. c #FBD93A",
"E. c #FBC923",
"W. c #8B856A",
"Q. c #82847E",
"!. c #8B8877",
"~. c #928E7B",
"^. c #918C72",
"/. c #96917C",
"(. c #9C9677",
"). c #97916F",
"_. c #A29C79",
"`. c #A38660",
"'. c #AAA37C",
"]. c #B3AA7D",
"[. c #C88443",
"{. c #FBD649",
"}. c #FCE14A",
"|. c #FBE571",
" X c #FBDB77",
".X c #1D0183",
"XX c #180289",
"oX c #121D9B",
"OX c #1C099B",
"+X c #220585",
"@X c #290696",
"#X c #2A0D9A",
"$X c #270B96",
"%X c #360E98",
"&X c #2E0DA2",
"*X c #3211AD",
"=X c #300CA4",
"-X c #1512B4",
";X c #7A7C82",
":X c #7B8182",
">X c #848484",
",X c #8C8C8B",
"<X c #898A85",
"1X c #938C86",
"2X c #999689",
"3X c #939494",
"4X c #9A9A9A",
"5X c #989798",
"6X c #8E9392",
"7X c #A39C88",
"8X c #B5978C",
"9X c #9EA096",
"0X c #A9A48C",
"qX c #B2AA85",
"wX c #B2AD97",
"eX c #BDB79C",
"rX c #ADA894",
"tX c #A5A4A4",
"yX c #ACACAC",
"uX c #ABACA7",
"iX c #B7B5AB",
"pX c #B4B4B4",
"aX c #BCBCBC",
"sX c #B0B1B0",
"dX c #C5B8AA",
"fX c #FCE584",
"gX c #C9C7BE",
"hX c #C3C3C3",
"jX c #CBCBCB",
"kX c #C9C9C8",
"lX c #CDD2D5",
"zX c #D4D4D4",
"xX c #DCDCDC",
"cX c #D6D7D8",
"vX c #CBCDD1",
"bX c #E3E3E3",
"nX c #EBEBEB",
"mX c #F3F3F3",
"MX c #FCFBFB",
"NX c #EFF4F7",
"BX c None",
/* pixels */
"BXBXBXBXBXBXBXBXBXBXBXBXBXBXBXBXBXBXBXBXBXBXBXBXBXBX( ( ) ( ( ) ) ` ( ( BXBXBXBXBXBXBXBXBXBXBXBXBXBXBXBXBXBXBXBXBXBXBXBXBXBXBXBXBX",
"BXBXBXBXBXBXBXBXBXBXBXBXBXBXBXBXBXBXBXBXBXBXBXBX< BX;.>.^.).).7XyXtX(.W.BXBXBXBXBXBXBXBXBXBXBXBXBXBXBXBXBXBXBXBXBXBXBXBXBXBXBXBXBX",
"BXBXBXBXBXBXBXBXBXBXBXBXBXBXBXBXBXBXBXBXBXBXBX~ *...] )  .....*.,.Q.'.].2X,XX.BXBXBXBXBXBXBXBXBXBXBXBXBXBXBXBXBXBXBXBXBXBXBXBXBXBX",
"BXBXBXBXBXBXBXBXBXBXBXBXBXBXBXBXBXBXBXBXBXBX .&.=. .BXBXBXBXBXBXBXBXX.'.eXeX_.,.BXBXBXBXBXBXBXBXBXBXBXBXBXBXBXBXBXBXBXBXBXBXBXBXBX",
"BXBXBXBXBXBXBXBXBXBXBXBXBXBXBXBXBXBXBXBXBX( B. .3 BXBXBXBXBXBXBXBXBXBXX._.(.qXiX;XBXBXBXBXBXBXBXBXBXBXBXBXBXBXBXBXBXBXBXBXBXBXBXBX",
"BXBXBXBXBXBXBXBXBXBXBXBXBXBXBXBXBXBXBXBX~ %.) 3 BXBXBXBXBXBXBXBXBXBXBX3 { ~._.qXiXB.BXBXBXBXBXBXBXBXBXBXBXBXBXBXBXBXBXBXBXBXBXBXBX",
"BXBXBXBXBXBXBXBXBXBXBXBXBXBXBXBXBXBXBXBX) W.^ BXBXBXBXBXBXBXBXBXBXBXBX3 O.,.!._.qXuXBXBXBXBXBXBXBXBXBXBXBXBXBXBXBXBXBXBXBXBXBXBXBX",
"BXBXBXBXBXBXBXBXBXBXBXBXBXBXBXBXBXBXBXBXBX! 3 BXBXBXBXBXBXBXBXBXBXBX$.&.Q _ >.!.0XiX4XBXBXBXBXBXBXBXBXBXBXBXBXBXBXBXBXBXBXBXBXBXBX",
"BXBXBXBXBXBXBXBXBXBXBXBXBXBXBXBXBXBXBXBXBXBXBXBXBXBXBXBXBXBXBXBX+ 1 $.2XW...&.>.0XdXaXBXBXBXBXBXBXBXBXBXBXBXBXBXBXBXBXBXBXBXBXBXBX",
"BXBXBXBXBXBXBXBXBXBXBXBXBXBXBXBXBXBXBXBXBXBXBXBXBXBXBXBXBXBXBXBX< ! =.X.W.(.=.>.(.iXjX6XBXBXBXBXBXBXBXBXBXBXBXBXBXBXBXBXBXBXBXBXBX",
"BXBXBXBXBXBXBXBXBXBXBXBXBXBXBXBXBXBXBXBXBXBXBXBXBXBXBXBXBXBXBXBX' !._.=.!.'.!.!.wXkXgX<XBXBXBXBXBXBXBXBXBXBXBXBXBXBXBXBXBXBXBXBXBX",
"BXBXBXBXBXBXBXBXBXBXBXBXBXBXBXBXBXBXBXBXBXBXBXBXBXBXBXBXBXBXBX( <.:./.wX0X^./.qXdXaX0XB.BXBXBXBXBXBXBXBXBXBXBXBXBXBXBXBXBXBXBXBXBX",
"BXBXBXBXBXBXBXBXBXBXBXBXBXBXBXBXBXBXBXBXBXBXBXBXBXBXBXBXBXBXBX_ #.Q  ./.=. .0XiX7X ._ ,.3XBXBXBXBXBXBXBXBXBXBXBXBXBXBXBXBXBXBXBXBX",
"BXBXBXBXBXBXBXBXBXBXBXBXBXBXBXBXBXBXBXBXBXBXBXBXBXBXBXBXBXBXBX3 ) B.-.W.-.< 5 | | [ Q ' ' BXBXBXBXBXBXBXBXBXBXBXBXBXBXBXBXBXBXBXBX",
"BXBXBXBXBXBXBXBXBXBXBXBXBXBXBXBXBXBXBXBXBXBXBXBXBXBXBXBXBXBXBX3 1 d ,X1XW.d   < 1.$.! BXBXBXBXBXBXBXBXBXBXBXBXBXBXBXBXBXBXBXBXBXBX",
"BXBXBXBXBXBXBXBXBXBXBXBXBXBXBXBXBXBXBXBXBXBXBXBXBXBXBXBXBXBXBXBXd  .Q.:.W.B.1 1 :X:X` BXBXBXBXBXBXBXBXBXBXBXBXBXBXBXBXBXBXBXBXBXBX",
"BXBXBXBXBXBXBXBXBXBXBXBXBXBXBXBXBXBXBXBXBXBXBXBXBXBXBXBXBXBXBXBX[  .$.$.-.2X>X&.~.2X~.-.BXBXBXBXBXBXBXBXBXBXBXBXBXBXBXBXBXBXBXBXBX",
"BXBXBXBXBXBXBXBXBXBXBXBXBXBXBXBXBXBXBXBXBXBXBXBXBXBXBXBXBXBXBXBXp Q  .>.>.<XyXtX0X_.^...BXBXBXBXBXBXBXBXBXBXBXBXBXBXBXBXBXBXBXBXBX",
"BXBXBXBXBXBXBXBXBXBXBXBXBXBXBXBXBXBXBXBXBXBXBXBXBXBXBXBXBXBXBXBX! ;.<X~.=.<.,.>XiX3X .( BXBXBXBXBXBXBXBXBXBXBXBXBXBXBXBXBXBXBXBXBX",
"BXBXBXBXBXBXBXBXBXBXBXBXBXBXBXBXBXBXBXBXBXBXBXBXBXBXBXBXBXBXBXBXQ <XtX>.( $.1.:XpX0X..BXBXBXBXBXBXBXBXBXBXBXBXBXBXBXBXBXBXBXBXBXBX",
"BXBXBXBXBXBXBXBXBXBXBXBXBXBXBXBXBXBXBXBXBXBXBXBXBXBXBXBX- , BXBXQ./.>.] ' ' _ Q.qX].X.BXBXBXBXBXBXBXBXBXBXBXBXBXBXBXBXBXBXBXBXBXBX",
"BXBXBXBXBXBXBXBXBXBXBXBXBXBXBXBXBXBXBXBXBXBXBXBXBXBXBX; > < 4 3 Q R V Q -.1.Q { -.-.BXBXBXBXBXBXBXBXBXBXBXBXBXBXBXBXBXBXBXBXBXBXBX",
"BXBXBXBXBXBXBXBXBXBXBXBXBXBXBXBXBXBXBXBXBXBXBXBXBXBX= , (  .) ! 2 : ; B Z C 2 2 BXBXBXBXBXBXBXBXBXBXBXBXBXBXBXBXBXBXBXBXBXBXBXBXBX",
"BXBXBXBXBXBXBXBXBXBXBXBXBXBXBXBXBXBXBXBXBXBXBXBXBX= : C  .1X7X .d 5 > = ; c v - BXBXBXBXBXBXBXBXBXBXBXBXBXBXBXBXBXBXBXBXBXBXBXBXBX",
"BXBXBXBXBXBXBXBXBXBXBXBXBXBXBXBXBXBXBXBXBXBXBXBX; : ] &. .2XiX1.f r u x - v H = & l c j BXBXBXBXBXBXBXBXBXBXBXBXBXBXBXBXBXBXBXBXBX",
"BXBXBXBXBXBXBXBXBXBXBXBXBXBXBXBXBXBXBXBXBXBXBX= : ! %.>.!.'.(.` i 6.r.} A j l j j F J n - BXBXBXBXBXBXBXBXBXBXBXBXBXBXBXBXBXBXBXBX",
"BXBXBXBXBXBXBXBXBXBXBXBXBXBXBXBXBXBXBXBXBXBX; : ( | ' :.!.Q.| 3 i 8.c.y.a = l +XJ c l n F - BXBXBXBXBXBXBXBXBXBXBXBXBXBXBXBXBXBXBX",
"BXBXBXBXBXBXBXBXBXBXBXBXBXBXBXBXBXBXBXBXBX- : / W.~.1X1X,.` 3 d q e d.s.g Z c $X@Xl O & b - BXBXBXBXBXBXBXBXBXBXBXBXBXBXBXBXBXBXBX",
"BXBXBXBXBXBXBXBXBXBXBXBXBXBXBXBXBXBXBXBX; 6 0 $.6XgXiX=.( f t t @ @ 6.Z.C.d k @X#Xm , a 7 u BXBXBXBXBXBXBXBXBXBXBXBXBXBXBXBXBXBXBX",
"BXBXBXBXBXBXBXBXBXBXBXBXBXBXBXBXBXBXBX- % 5.6.i.1XyX;XC q 7.f.9.w h V.P.Z.s M L OXm p p.s.t.2.8.f.0.6.BXBXBXBXBXBXBXBXBXBXBXBXBXBX",
"BXBXBXBXBXBXBXBXBXBXBXBXBXBXBXBXBXBXBX% 7.S.Y.C.p. .V * s r.z.g.d.Z.J.F.t.M.O.x S j q k.D.Z.t.U.U.k.8.8.BXBXBXBXBXBXBXBXBXBXBXBXBX",
"BXBXBXBXBXBXBXBXBXBXBXBXBXBXBXBXBXBXBXq.F.Y.fX{.Z.q ; ; 5 } N.r.y.y.y.y.N.~.-.2 ; x q h.D.h.H. X{.D.d.8.BXBXBXBXBXBXBXBXBXBXBXBXBX",
"BXBXBXBXBXBXBXBXBXBXBXBXBXBXBXBXBXBX8.b.Y.fX|.T.v.y l v ; 4  .M.M.M.M.`.rX6X[ 4 2 / f q.k.w.I.R.E.G.d.9.BXBXBXBXBXBXBXBXBXBXBXBXBX",
"BXBXBXBXBXBXBXBXBXBXBXBXBXBXBXBXBX0 6.j.H.{.T.D.h.q J H O X 4 ` %.:X:X*./.!.< BXBX^ f 3.9.9.S.P.G.c.0.8.BXBXBXBXBXBXBXBXBXBXBXBXBX",
"BXBXBXBXBXBXBXBXBXBXBXBXBXBXBXBX0 3.s.k.D.G.D.c.4.N @XH &   X + 1 3 3 4 ^ ^ BXBXBXBXBXBXBXBXw.t.e.8.9.BXBXBXBXBXBXBXBXBXBXBXBXBXBX",
"BXBXBXBXBXBXBXBXBXBXBXBXBXBXBXBX8.d.n.G.L.D.c.0.E K XXJ > .         X 0 g g a.BXBXBXBXBXBXBXBXBXBX5.BXBXBXBXBXBXBXBXBXBXBXBXBXBXBX",
"BXBXBXBXBXBXBXBXBXBXBXBXBXBXBXBX7.c.G.E.R.I.e.r N .XL Y ;.( +       o y h.l.Z.w.BXBXBXBXBXBXBXBXBXBXBXBXBXBXBXBXBXBXBXBXBXBXBXBXBX",
"BXBXBXBXBXBXBXBXBXBXBXBXBXBXBX- s k.P.}. XY.e.T K .XI @.yXhX1.< < 2 % 2.e.v.v.w.BXBXBXBXBXBXBXBXBXBXBXBXBXBXBXBXBXBXBXBXBXBXBXBXBX",
"BXBXBXBXBXBXBXBXBXBXBXBXBXBXBX- U 4.A.Y.Y.D.0.N XXXXI @.9XzXvXaXyXyX2XN.x.F.Z.q.BXBXBXBXBXBXBXBXBXBXBXBXBXBXBXBXBXBXBXBXBXBXBXBXBX",
"BXBXBXBXBXBXBXBXBXBXBXBXBXBXBX- &X%X4.h.s.r.E U .XXXI O.>.4XxXMXMXnXzXdX[.x.u.M.BXBXBXBXBXBXBXBXBXBXBXBXBXBXBXBXBXBXBXBXBXBXBXBXBX",
"BXBXBXBXBXBXBXBXBXBXBXBXBXBXBXF #X-XU 7 7 u J XX.X+X+.&.&.<.hXNXbXjXlXlX8XN.8XBXBXBXBXBXBXBXBXBXBXBXBXBXBXBXBXBXBXBXBXBXBXBXBXBXBX",
"BXBXBXBXBXBXBXBXBXBXBXBXBXBXj K &XoXD - = j H .XI o.:.<X,.1.tXcXkXaXkXaXpXlXNXcXBXBXBXBXBXBXBXBXBXBXBXBXBXBXBXBXBXBXBXBXBXBXBXBXBX",
"BXBXBXBXBXBXBXBXBXBXBXBXBXBXz .X=XoXD - = - H .XY  .Q.tX9X1.1.sXhXyXtXuXkXmXMXnXsXBXBXBXBXBXBXBXBXBXBXBXBXBXBXBXBXBXBXBXBXBXBXBXBX",
"BXBXBXBXBXBXBXBXBXBXBXBXBXBXc $X*XoXD - = j J +XW ' >XpXyX,.&.6XpX5X>XyXbXMXmXMXbXBXBXBXBXBXBXBXBXBXBXBXBXBXBXBXBXBXBXBXBXBXBXBXBX",
"BXBXBXBXBXBXBXBXBXBXBXBXBXBXl #X*XoXD = j H +XW &.;XtXhXaXtX:.:.,X>X4XkXnXmXnXmXcX3XBXBXBXBXBXBXBXBXBXBXBXBXBXBXBXBXBXBXBXBXBXBXBX",
"BXBXBXBXBXBXBXBXBXBXBXBXBXBXc #X*X$Xv & j K +XW ,.tXhXzXzXpX,.&.<.3XaXzXcXbXmXnXpX>XBXBXBXBXBXBXBXBXBXBXBXBXBXBXBXBXBXBXBXBXBXBXBX",
"BXBXBXBXBXBXBXBXBXBXBXBXBXBXc #X*X@Xn = l K W @.3XaXhXlXzXyX>X:.&.>XsXpXaXkXzXbXzXaXBXBXBXBXBXBXBXBXBXBXBXBXBXBXBXBXBXBXBXBXBXBXBX",
"BXBXBXBXBXBXBXBXBXBXBXBXBXBXc #X*X@Xn = z Y @.B.yXdXpXsXaXyXyX,X' $.<X,X4XsXpXxXMXMXvXBXBXBXBXBXBXBXBXBXBXBXBXBXBXBXBXBXBXBXBXBXBX",
"BXBXBXBXBXBXBXBXBXBXBXBXBXBXc #X*X@Xv ; V &.Q.4XyXiXtXtXsXhXhX3XO./ :.<.>XaXzXcXnXnXbXaXBXBXBXBXBXBXBXBXBXBXBXBXBXBXBXBXBXBXBXBXBX",
"BXBXBXBXBXBXBXBXBXBXBXBXBXBXl $X*X@Xv B | ,.5XtXtXpXhXkXzXcXyX>.A : _ ,X4XsXdXhXjXvXbXjXBXBXBXBXBXBXBXBXBXBXBXBXBXBXBXBXBXBXBXBXBX",
"BXBXBXBXBXBXBXBXBXBXBXBXBXBXj K &X@Xv B | ,.4XpXkXzXcXxXxXkX3XZ ; : / >X5XyXhXhXhXcXnXjXBXBXBXBXBXBXBXBXBXBXBXBXBXBXBXBXBXBXBXBXBX",
"BXBXBXBXBXBXBXBXBXBXBXBXBXBXj K &X@Xv B #.,.4XaXvXxXcXcXkXsX<XV = j Y +.>X5XyXhXjXbXnXkXBXBXBXBXBXBXBXBXBXBXBXBXBXBXBXBXBXBXBXBXBX",
"BXBXBXBXBXBXBXBXBXBXBXBXBXBXj K &X@Xv B O.B.4XpXvXbXvXtX,X:X/ x BXBXm W 1.1.>XyXjXzXaXtXuXBXBXBXBXBXBXBXBXBXBXBXBXBXBXBXBXBXBXBXBX",
"BXBXBXBXBXBXBXBXBXBXBXBXBXBXz K &X@Xv > C %.,XsXkXzXaX<X$.o.x = BXBXBX! :.;.:XsXkXiXtXaXpXBXBXBXBXBXBXBXBXBXBXBXBXBXBXBXBXBXBXBXBX",
"BXBXBXBXBXBXBXBXBXBXBXBXBXBXj K &X@XF O o d 1.5XpXdXpX,X+.P k - BXBXBXBX>XtXyXjXjXpXlXxXBXBXBXBXBXBXBXBXBXBXBXBXBXBXBXBXBXBXBXBXBX",
"BXBXBXBXBXBXBXBXBXBXBXBXBXBXj H &X@XS & # r g ..2XyX,Xo.P k = BXBXBXBXBXBXyXdXkXxXmXcX5XBXBXBXBXBXBXBXBXBXBXBXBXBXBXBXBXBXBXBXBXBX",
"BXBXBXBXBXBXBXBXBXBXBXBXBXBXBXj +X@XS * 5.k.s.j.p. ./ : = = & BXBXBXBXBXBX&.4XaXlXvX1Xg BXBXBXBXBXBXBXBXBXBXBXBXBXBXBXBXBXBXBXBXBX",
"BXBXBXBXBXBXBXBXBXBXBXBXBXBXBXBXk J S * 5.b.F.h.8.5.0 O O X             X + 3 ( :.-.p.S.l.8.8.BXBXBXBXBXBXBXBXBXBXBXBXBXBXBXBXBXBX",
"BXBXBXBXBXBXBXBXBXBXBXBXBXBXBXBXBXl k * BXq.v.F.b.w.8                     X + t y.A.J.K.n.k.Z.w.2.BXBXBXBXBXBXBXBXBXBXBXBXBXBXBXBX",
"BXBXBXBXBXBXBXBXBXBXBXBXBXBXBXBXBXBXBXBXBXBX6.q.k.j.w o                     . # 5.k.F.L.K.G.F.q.e BXBXBXBXBXBXBXBXBXBXBXBXBXBXBXBX",
"BXBXBXBXBXBXBXBXBXBXBXBXBXBXBXBXBXBXBXBXBXBX@ @ e q.e @ .                     . 8 8.b.K.J.u.w.e BXBXBXBXBXBXBXBXBXBXBXBXBXBXBXBXBX",
"BXBXBXBXBXBXBXBXBXBXBXBXBXBXBXBXBXBXBXBXBX      o # 8 # o                     . 8 9.l.x.3.# # BXBXBXBXBXBXBXBXBXBXBXBXBXBXBXBXBXBX",
"BXBXBXBXBXBXBXBXBXBXBXBXBXBXBXBXBXBXBXBX        .                               o 8 9 9 #       BXBXBXBXBXBXBXBXBXBXBXBXBXBXBXBXBX",
"BXBXBXBXBXBXBXBXBXBXBXBXBXBXBXBXBXBXBXBX                                              .         BXBXBXBXBXBXBXBXBXBXBXBXBXBXBXBXBX",
"BXBXBXBXBXBXBXBXBXBXBXBXBXBXBXBXBXBXBXBXBX                                                  BXBXBXBXBXBXBXBXBXBXBXBXBXBXBXBXBXBXBX"
};
