/* XPM */
static char *result[] = {
/* columns rows colors chars-per-pixel */
"32 32 131 2 ",
"   c #000000",
".  c #0A0703",
"X  c #0F0A06",
"o  c #0C0D0D",
"O  c #1D130A",
"+  c #060C11",
"@  c #0E1114",
"#  c #131314",
"$  c #1A1B1C",
"%  c #2E1E0F",
"&  c #3A2511",
"*  c #31271D",
"=  c #3F2E1D",
"-  c #171C21",
";  c #1C1F21",
":  c #1D2226",
">  c #242424",
",  c #282725",
"<  c #21272D",
"1  c #272829",
"2  c #2D2C2C",
"3  c #302E2C",
"4  c #2C2F32",
"5  c #323232",
"6  c #32363A",
"7  c #3C3C3C",
"8  c #4B331B",
"9  c #593B1D",
"0  c #61370B",
"q  c #623C17",
"w  c #453422",
"e  c #483726",
"r  c #4A3A2A",
"t  c #4E3E30",
"y  c #6C441D",
"u  c #474139",
"i  c #544535",
"p  c #5E4D3E",
"a  c #614222",
"s  c #6E4720",
"d  c #734E29",
"f  c #7E552D",
"g  c #725435",
"h  c #7B5733",
"j  c #3E3F41",
"k  c #3F4040",
"l  c #434343",
"z  c #46484A",
"x  c #4B4B4B",
"c  c #535353",
"v  c #5C5C5C",
"b  c #6D5741",
"n  c #6F6356",
"m  c #66635F",
"M  c #666767",
"N  c #656668",
"B  c #656A6E",
"V  c #6C6C6C",
"C  c #6E6F70",
"Z  c #757575",
"A  c #7C7C7C",
"S  c #87531E",
"D  c #885018",
"F  c #925110",
"G  c #A3601E",
"H  c #825527",
"J  c #885622",
"K  c #895A2A",
"L  c #985D22",
"P  c #905F2D",
"I  c #926539",
"U  c #A16A33",
"Y  c #A26D39",
"T  c #B47331",
"R  c #846343",
"E  c #906A44",
"W  c #946F49",
"Q  c #9A7047",
"!  c #9F7C56",
"~  c #9C7A5A",
"^  c #A97847",
"/  c #AC7B4C",
"(  c #B27D47",
")  c #A9825B",
"_  c #B28254",
"`  c #BE8C5B",
"'  c #8F857A",
"]  c #998776",
"[  c #B79069",
"{  c #BF976F",
"}  c #CC8C4C",
"|  c #C48A51",
" . c #D39354",
".. c #D7985A",
"X. c #DC9B5A",
"o. c #E5A25D",
"O. c #C39568",
"+. c #DCA166",
"@. c #D4A373",
"#. c #E1A366",
"$. c #E1A86F",
"%. c #E9AE74",
"&. c #E5AE78",
"*. c #EBB47C",
"=. c #838383",
"-. c #8B8B8B",
";. c #929292",
":. c #969798",
">. c #97999A",
",. c #9C9C9C",
"<. c #9C9FA2",
"1. c #A4A5A6",
"2. c #A1A4A8",
"3. c #ACACAC",
"4. c #B4B4B4",
"5. c #BCBCBC",
"6. c #CAA881",
"7. c #F9BD80",
"8. c #FBC590",
"9. c #FFCC91",
"0. c #B5BAC0",
"q. c #C3C3C3",
"w. c #CCCCCC",
"e. c #C7CCD0",
"r. c #D4D4D4",
"t. c #DBDBDB",
"y. c #E5E5E5",
"u. c #EBEBEB",
"i. c #F2F3F3",
"p. c #FDFDFD",
"a. c None",
/* pixels */
"a.a.a.a.a.a.a.a.a.a.a.a.a.a.a.a.a.a.a.a.a.a.a.a.a.a.a.a.a.a.a.a.",
"a.a.a.a.a.a.a.a.a.a.a.a.a.a.a.a.a.  a.a.a.a.a.a.a.a.a.a.a.a.a.a.",
"a.a.a.a.a.a.a.a.a.a.a.a.a.a.            a.a.a.a.a.a.a.a.a.a.a.a.",
"a.a.a.a.a.a.a.a.a.a.a.a.                  a.a.a.a.a.a.a.a.a.a.a.",
"a.a.a.a.a.a.a.a.a.a.a.a.                    a.a.a.a.a.a.a.a.a.a.",
"a.a.a.a.a.a.a.a.a.a.a.a.        8 _ r d .     a.a.a.a.a.a.a.a.a.",
"a.a.a.a.a.a.a.a.a.a.7 .     X % | @.*.#.O   @ a.a.a.a.a.a.a.a.a.",
"a.a.a.a.a.a.a.a.a.4 l 7 .   9 8 U * ) y % 7 x a.a.a.a.a.a.a.a.a.",
"a.a.a.a.a.a.a.a., 6 7 x < r f ) 9._ I D u 7 c l a.a.a.a.a.a.a.a.",
"a.a.a.a.a.a.a.a.7 j c x 4 g o.#.O.m W y < z V x a.a.a.a.a.a.a.a.",
"a.a.a.a.a.a.a.a.j 7 x 3 > > O.X.0 0.' g # 5 z x a.a.a.a.a.a.a.a.",
"a.a.a.a.a.a.a., 2 c l 3 @ # i 6.^ Y T e o > v V a.a.a.a.a.a.a.a.",
"a.a.a.a.a.a.a.> 6 u x l x x + - b J g t 3 k z v a.a.a.a.a.a.a.a.",
"a.a.a.a.a.a.a.a.$ 7 B v N N ~ a 3 Q ` 9.E 6 V 3 a.a.a.a.a.a.a.a.",
"a.a.a.a.a.a.a.w.7 4 t 6 z n  .T *.8.+.X.H , 1 v u.p.i.a.a.a.a.a.",
"a.a.a.a.a.a.u.p.i.r.Z : ; [ %.$.&.+.#.J W ( c q.r.y.p.u.a.a.a.a.",
"a.a.a.a.a.u.p.i.p.3.r.,.$ S } } %...K h X.@.>.<.i.p.p.p.a.a.a.a.",
"a.a.a.a.-.q.p.i.i.y.V 4.,.& F } L q 0 G / ;.>.t.u.t.i.t.a.a.a.a.",
"a.a.a.a.q.-.4.5.t.w.4.A 0.B e g 2 = R ] 1.V r.p.p.r.;.:.a.a.a.a.",
"a.a.a.a.w.y.1.3.i.r.p.3.:.t.,.: x 2.e.i.>.;.p.u.q.;.3.u.a.a.a.a.",
"a.a.a.a.;.p.p.y.q.t.t.-.Z w.i.3.w.i.t.q.Z 1.y.p.u.r.y.a.a.a.a.a.",
"a.a.a.a.a.3.q.i.q.4.v u =.q.y.u.i.r.;.x 7 =.5.4.q.,.a.a.a.a.a.a.",
"a.a.a.a.a.a.=.;.V l o a.a.Z -.-.-.Z a.a.    v =.l a.a.a.a.a.a.a.",
"a.a.a.a.a.a.=.3.x     a.a.a.a.a.a.a.a.a.    z 4.# a.a.a.a.a.a.a.",
"a.a.a.a.a.a.a.5.=.#   a.a.a.a.a.a.a.a.a.    x q.x a.a.a.a.a.a.a.",
"a.a.a.a.a.a.a.v q.,   a.a.a.a.a.a.a.a.a.#   $ 3.3.a.a.a.a.a.a.a.",
"a.a.a.a.a.a.a.4.=.o   a.a.a.a.a.a.a.a.a.a.a.2 $ Z ,.a.a.a.a.a.a.",
"a.a.a.a.a.a.;.-.o   a.a.a.a.a.a.a.a.a.a.a.a.a.a.a.a.a.a.a.a.a.a.",
"a.a.a.a.a.6 =.# 2 a.a.a.a.a.a.a.a.a.a.a.a.a.a.a.a.a.a.a.a.a.a.a.",
"a.a.a.a.a.a.x a.a.a.a.a.a.a.a.a.a.a.a.a.a.a.a.a.a.a.a.a.a.a.a.a.",
"a.a.a.a.a.a.a.a.a.a.a.a.a.a.a.a.a.a.a.a.a.a.a.a.a.a.a.a.a.a.a.a.",
"a.a.a.a.a.a.a.a.a.a.a.a.a.a.a.a.a.a.a.a.a.a.a.a.a.a.a.a.a.a.a.a."
};
