/* XPM */
static char *result[] = {
/* columns rows colors chars-per-pixel */
"32 32 208 2 ",
"   c black",
".  c #000001",
"X  c #010101",
"o  c #020101",
"O  c #000002",
"+  c #010102",
"@  c #020202",
"#  c gray1",
"$  c #040100",
"%  c #020304",
"&  c #050504",
"*  c gray2",
"=  c #0A0200",
"-  c #090909",
";  c #0C0C0C",
":  c #0E0E0E",
">  c gray6",
",  c #150D03",
"<  c #19120A",
"1  c #1F150B",
"2  c #101010",
"3  c #111111",
"4  c gray8",
"5  c gray9",
"6  c #171818",
"7  c #15191E",
"8  c #191A1A",
"9  c gray11",
"0  c #1D1D1C",
"q  c #1D1D1D",
"w  c gray12",
"e  c #332312",
"r  c #1F2020",
"t  c #212020",
"y  c gray13",
"u  c #222222",
"i  c #232323",
"p  c #262320",
"a  c gray14",
"s  c #242527",
"d  c gray15",
"f  c #282828",
"g  c gray16",
"h  c #2A2A2A",
"j  c #2D2E2E",
"k  c gray18",
"l  c #2F2F2F",
"z  c #2B2F33",
"x  c #2F3133",
"c  c #2F3134",
"v  c #2D3239",
"b  c #303131",
"n  c #313131",
"m  c #323232",
"M  c gray20",
"N  c #313435",
"B  c #363535",
"V  c gray21",
"C  c #373737",
"Z  c #3E3934",
"A  c #33373B",
"S  c #343638",
"D  c #35373B",
"F  c gray22",
"G  c #393939",
"H  c #393A3B",
"J  c #3C3C3C",
"K  c gray24",
"L  c #3E3E3E",
"P  c #3F3F3E",
"I  c #3E3E3F",
"U  c #4D2C0C",
"Y  c #52300E",
"T  c #432910",
"R  c #402E1B",
"E  c #49331E",
"W  c #5C3816",
"Q  c #6B3C0F",
"!  c #473726",
"~  c #7E4D1C",
"^  c #7F4F1D",
"/  c #50483E",
"(  c #5D4F3F",
")  c #67513B",
"_  c #755331",
"`  c #71573D",
"'  c #76583B",
"]  c #7D5C3A",
"[  c #393C40",
"{  c #3F3F40",
"}  c gray25",
"|  c gray26",
" . c #434343",
".. c #414446",
"X. c #444444",
"o. c #464545",
"O. c #464646",
"+. c #414549",
"@. c #474B4D",
"#. c #45494E",
"$. c #484848",
"%. c #494949",
"&. c #4A4949",
"*. c gray29",
"=. c #4B4B4B",
"-. c #4D4B4A",
";. c #484A4C",
":. c #4A4D4F",
">. c #4C4C4C",
",. c gray30",
"<. c #4F4E4D",
"1. c #4C4D4F",
"2. c #4E4E4E",
"3. c gray31",
"4. c #464C51",
"5. c #505050",
"6. c #505151",
"7. c gray32",
"8. c gray33",
"9. c #525559",
"0. c #54585C",
"q. c #585858",
"w. c #5A5A5A",
"e. c #5D5D5D",
"r. c #5D5D5E",
"t. c #5F5F5E",
"y. c #5F5F5F",
"u. c #615141",
"i. c #695948",
"p. c #715942",
"a. c #7A6146",
"s. c #7F6347",
"d. c #716254",
"f. c #555D66",
"g. c #606060",
"h. c gray38",
"j. c #616263",
"k. c #626262",
"l. c gray39",
"z. c #646464",
"x. c #646564",
"c. c #656565",
"v. c #656666",
"b. c gray40",
"n. c #686867",
"m. c gray42",
"M. c #6F6F6F",
"N. c #717171",
"B. c gray45",
"V. c #747474",
"C. c #767676",
"Z. c gray48",
"A. c #7C7C7C",
"S. c #7E7E7E",
"D. c #825222",
"F. c #9C6730",
"G. c #9D6B39",
"H. c #A96D2F",
"J. c #A96C31",
"K. c #AF7337",
"L. c #C3782B",
"P. c #8F6F4C",
"I. c #976C41",
"U. c #A47343",
"Y. c #B77B40",
"T. c #BA8754",
"R. c #D69B5D",
"E. c #DF9C58",
"W. c #F4B26F",
"Q. c #F0B374",
"!. c #848484",
"~. c #868686",
"^. c gray53",
"/. c #888888",
"(. c gray57",
"). c #979797",
"_. c #989898",
"`. c gray60",
"'. c #9D9D9D",
"]. c gray62",
"[. c #9F9F9F",
"{. c #A0A0A0",
"}. c #A2A2A2",
"|. c #A5A5A5",
" X c gray66",
".X c #A9A9A9",
"XX c #ACACAC",
"oX c gray68",
"OX c #AEAEAE",
"+X c #B1B1B1",
"@X c gray70",
"#X c gray71",
"$X c #B7B7B7",
"%X c #BCBCBC",
"&X c #C0C0C0",
"*X c gray79",
"=X c #CBCBCB",
"-X c #CDCDCD",
";X c #D0D0D0",
":X c gray82",
">X c #D2D2D2",
",X c #E6E6E6",
"<X c gray92",
"1X c #EEEEEE",
"2X c #EFEFEF",
"3X c gray95",
"4X c #FBFBFB",
"5X c None",
/* pixels */
"5X5X5X5X5X5X5X5X5X5X5X5X5X5X5X5X5X5X5X5X5X5X5X5X5X5X5X5X5X5X5X5X",
"5X5X5X5X5X5X5X5X5X5X5X5X5X5X5X5X5X5X5X5X5X5X5X5X5X5X5X5X5X5X5X5X",
"5X5X5X5X5X5X5X5X5X5X5X5X5X5X5X5X5X5X5X5X5X5X5X5X5X5X5X5X5X5X5X5X",
"5X5X5X5X5X5X5X5X5X5X5X5X5X5X5X5X5X5X5X5X5X5X5X5X5X5X5X5X5X5X5X5X",
"5X5X5X5X5X5X5X5X5X5X5X5X5X5X5X5X5X5X5X5X5X5X5X5X5X5X5X5X5X5X5X5X",
"5X5X5X5X5X5X5X5X5X5X5X5X5X5X5X5X5X5X5X5X5X5X5X5X5X5X5X5X5X5X5X5X",
"5X5X5X5X5X5X5X5X5X5X5X5X5X5X5X5X5X5X5X5X5X5X5X5X5X5X5X5X5X5X5X5X",
"5X5X5X5X5X5X5X5X5X5X5X5X5X5X5X5X5X5X5X5X5X5X5X5X5X5X5X5X5X5X5X5X",
"5X5X5X5X5X5X5X5X5X5X5X5X5X5X5X5X5X5X5X5X5X5X5X5X5X5X5X5X5X5X5X5X",
"5X5X5X5X5X5X5X5X5X5X5X5X5X5Xs x A +.:.5X5X5X5X5X5X5X5X5X5X5X5X5X",
"5X5X5X5X5X5X5X5X5X5X5Xj M c z B u.( -.0.#.H 5X5X5X5X5X5X5X5X5X5X",
"5X5X5X5X5X5X5X5X5Xn L &.@.P ] U.Q.R.~ _ / ..j.5X5X5X5X5X5X5X5X5X",
"5X5X5X5X5X5X5X5X5XX.t.1.S I.L.J.' a.W Q F.i.9.J 5X5X5X5X5X5X5X5X",
"5X5X5X5X5X5X5X5XC 3.o.[ Z G.Y ,     O $ T ! N { 5X5X5X5X5X5X5X5X",
"5X5X5X5X5X5X5X5Xm ,.5.I p < X             o 0 x.z.5X5X5X5X5X5X5X",
"5X5X5X5X5X5X5X5Xh 2.b.7.8                   & $.g.5X5X5X5X5X5X5X",
"5X5X5X5X5X5X$XF k %.3.3.r                     m k.S.;X5X5X5X5X5X",
"5X5X5X5X5X-X<XF y *.m.2.9 X                 # f >.O.OX1X5X5X5X5X",
"5X5X5X5X/.*X1XK w 8.e.l a *                 * n O.} [.=X5X5X5X5X",
"5X5X5X5X+X).&XA.5  .=.5.8.t %             # V C.k.L (.#X5X5X5X5X",
"5X5X5X5X>X;X X].5.u 2.l.n.v.v 1         2 } c.k.G e.:X5X5X5X5X5X",
"5X5X5X5X.X2X4X,X`.> M <.r.f.d.T.P.R e i ;.B.l.n 2.oX5X5X5X5X5X5X",
"5X5X5X5X5X|.>X3XoXq.h j D E Y.W.E.^ D.) 4.6.g $.}.5X5X5X5X5X5X5X",
"5X5X5X5X5X5X!._.Z.3.3 5X5X` H.K.s.p.5XU 7 b y.h.5X5X5X5X5X5X5X5X",
"5X5X5X5X5X5XM.oX7.*   5X5X5X5X5X5X5X5X= . 6 '.w.5X5X5X5X5X5X5X5X",
"5X5X5X5X5X5X5X{.^.w   5X5X5X5X5X5X5X5X+   4 oX`.5X5X5X5X5X5X5X5X",
"5X5X5X5X5X5X5Xl.%X|   5X5X5X5X5X5X5X5X5X> @ y.@Xc.5X5X5X5X5X5X5X",
"5X5X5X5X5X5X5XXXN.; - 5X5X5X5X5X5X5X5X5X5X5Xd %.}.5X5X5X5X5X5X5X",
"5X5X5X5X5X5X~.A.: q 5X5X5X5X5X5X5X5X5X5X5X5X5X5X5X5X5X5X5X5X5X5X",
"5X5X5X5X5X5XV.f F 5X5X5X5X5X5X5X5X5X5X5X5X5X5X5X5X5X5X5X5X5X5X5X",
"5X5X5X5X5X5X5X5X5X5X5X5X5X5X5X5X5X5X5X5X5X5X5X5X5X5X5X5X5X5X5X5X",
"5X5X5X5X5X5X5X5X5X5X5X5X5X5X5X5X5X5X5X5X5X5X5X5X5X5X5X5X5X5X5X5X"
};
