/* XPM */
static char *result[] = {
/* columns rows colors chars-per-pixel */
"32 32 251 2 ",
"   c black",
".  c gray1",
"X  c #0E0904",
"o  c gray4",
"O  c #17110A",
"+  c gray7",
"@  c #1D191A",
"#  c #181B1F",
"$  c #1A1C1E",
"%  c #1D1E1E",
"&  c #311903",
"*  c #271F17",
"=  c #2C1F11",
"-  c #22201D",
";  c #372310",
":  c #302417",
">  c #222222",
",  c #232323",
"<  c #2C2825",
"1  c #272829",
"2  c #25282B",
"3  c #2A2A2A",
"4  c gray17",
"5  c #2B2A2D",
"6  c #2A2F32",
"7  c #342C33",
"8  c #372D32",
"9  c #2D3032",
"0  c #2E3133",
"q  c gray19",
"w  c #313131",
"e  c #323232",
"r  c gray20",
"t  c #373432",
"y  c #343434",
"u  c #353535",
"i  c #373535",
"p  c #343536",
"a  c #373737",
"s  c #3C3836",
"d  c #313538",
"f  c #343639",
"g  c #31353F",
"h  c #373A3C",
"j  c gray22",
"k  c #393A3A",
"l  c #3A3A3A",
"z  c #3A3B3B",
"x  c #3A3B3C",
"c  c #3A3C3C",
"v  c #393C3F",
"b  c gray24",
"n  c #3C3F3F",
"m  c #3E3E3E",
"M  c #452F18",
"N  c #49341F",
"B  c #4B351F",
"V  c #48352F",
"C  c #4E3C2B",
"Z  c #523725",
"A  c #453538",
"S  c #7E4B18",
"D  c #4B4035",
"F  c #47433F",
"G  c #5D4731",
"H  c #5C423F",
"J  c #634527",
"K  c #744D26",
"L  c #754D26",
"P  c #784F25",
"I  c #604931",
"U  c #61423B",
"Y  c #604F3D",
"T  c #7E5A35",
"R  c #7F5B38",
"E  c #373D41",
"W  c #3B3F40",
"Q  c #3F4040",
"!  c #3D4142",
"~  c #3F4143",
"^  c #3C404A",
"/  c gray25",
"(  c gray26",
")  c #454047",
"_  c #454544",
"`  c gray27",
"'  c #464646",
"]  c #4F4043",
"[  c #43474A",
"{  c #474B4E",
"}  c #484849",
"|  c #484949",
" . c gray29",
".. c #4C4C4C",
"X. c #4D4D4C",
"o. c gray31",
"O. c #514040",
"+. c #4F5252",
"@. c #4D5054",
"#. c #505151",
"$. c #515151",
"%. c gray32",
"&. c #555351",
"*. c #545353",
"=. c #555555",
"-. c #555657",
";. c #54575A",
":. c gray35",
">. c #5B5D5F",
",. c gray37",
"<. c #5F5F5F",
"1. c #655443",
"2. c #77624E",
"3. c #786048",
"4. c #5B5E61",
"5. c #606060",
"6. c #606162",
"7. c gray39",
"8. c #646464",
"9. c gray40",
"0. c #686868",
"q. c gray42",
"w. c #6D6D6D",
"e. c #6C6D6F",
"r. c gray43",
"t. c #7C7065",
"y. c #717171",
"u. c #727272",
"i. c #747474",
"p. c gray46",
"a. c gray47",
"s. c #A26A1E",
"d. c #B1751A",
"f. c #815A2A",
"g. c #895B2A",
"h. c #854E3E",
"j. c #986028",
"k. c #82603E",
"l. c #95693E",
"z. c #9C6D3C",
"x. c #AA6825",
"c. c #A66729",
"v. c #B6722F",
"b. c #A46A32",
"n. c #A56939",
"m. c #A1683F",
"M. c #B77533",
"N. c #B47536",
"B. c #B6793A",
"V. c #B4783E",
"C. c #844D4B",
"Z. c #814A4E",
"A. c #8A6540",
"S. c #896745",
"D. c #986040",
"F. c #926941",
"G. c #9E7041",
"H. c #9F7348",
"J. c #9F754A",
"K. c #A37A51",
"L. c #E0A100",
"P. c #E1A404",
"I. c #B38250",
"U. c #A18365",
"Y. c #C3884C",
"T. c #CD8C4A",
"R. c #C88C4F",
"E. c #CE9152",
"W. c #D49455",
"Q. c #D1975C",
"!. c #D1985F",
"~. c #D99959",
"^. c #C79562",
"/. c #C59666",
"(. c #D09C67",
"). c #D5A16B",
"_. c #DCA46B",
"`. c #DBA66F",
"'. c #E3A463",
"]. c #E2A467",
"[. c #E0A56A",
"{. c #E2A86D",
"}. c #E6AA6E",
"|. c #E6AC73",
" X c #E6AF76",
".X c #EBB177",
"XX c #E3B27D",
"oX c #E9B17A",
"OX c #EAB27A",
"+X c #F1B87F",
"@X c #838383",
"#X c #848484",
"$X c #868686",
"%X c gray54",
"&X c #8B8B8B",
"*X c gray57",
"=X c #929292",
"-X c #939393",
";X c #959595",
":X c #979797",
">X c #96989B",
",X c #989898",
"<X c gray60",
"1X c gray61",
"2X c gray62",
"3X c #AA9988",
"4X c #A2A2A2",
"5X c gray64",
"6X c #A7A7A7",
"7X c #A9A9A9",
"8X c #AAAAAA",
"9X c gray67",
"0X c gray68",
"qX c #AFAFAF",
"wX c gray69",
"eX c #B1B1B1",
"rX c gray70",
"tX c #B4B4B4",
"yX c gray71",
"uX c #B6B6B6",
"iX c #B7B7B7",
"pX c gray72",
"aX c #B9B9B9",
"sX c gray73",
"dX c #BBBBBB",
"fX c gray",
"gX c #E6BA8E",
"hX c #F0B981",
"jX c #F3BE86",
"kX c #F1BF8A",
"lX c #C0C0C0",
"zX c #C3C3C3",
"xX c #C6C6C6",
"cX c gray79",
"vX c #CBCBCB",
"bX c #CDCDCD",
"nX c #CECECE",
"mX c gray81",
"MX c #D0D0D0",
"NX c #D7D7D7",
"BX c #DFDFDF",
"VX c #E1E1E1",
"CX c #E2E2E2",
"ZX c #E4E4E4",
"AX c gray91",
"SX c gray92",
"DX c gray94",
"FX c #F1F1F1",
"GX c #F4F4F4",
"HX c white",
"JX c None",
/* pixels */
"JXJXJXJXJXJXJXJXJXJXJXJXJXJXJX  JXJXJXJXJXJXJXJXJXJXJXJXJXJXJXJX",
"JXJXJXJXJXJXJXJXJXJXJXJXJX            JXJXJXJXJXJXJXJXJXJXJXJXJX",
"JXJXJXJXJXJXJXJXJXJXJXJX      = : O X   JXJXJXJXJXJXJXJXJXJXJXJX",
"JXJXJXJXJXJXJXJXJXJXJXJX      G.).|.B     JXJXJXJXJXJXJXJXJXJXJX",
"JXJXJXJXJXJXJXJXJXJXJXJX    ; 3.3XK.M   JXJXJXJXJXJXJXJXJXJXJXJX",
"JXJXJXJXJXJXJXJXJXJXJXJXJX  & ^.gXz.L JXJXJXJXJXJXJXJXJXJXJXJXJX",
"JXJXJXJXJXJXJXJXJXJXJXJXJXJXI N.J.k.N JXJXJXJXJXJXJXJXJXJXJXJXJX",
"JXJXJXJXJXJXJXJXJXJXJX4 d A.'.v.P I.l.F x JXJXJXJXJXJXJXJXJXJXJX",
"JXJXJXJXJXJXJXJXJXJXl u ~ Y .X`.c.M.(.s 6.JXJXJXJXJXJXJXJXJXJXJX",
"JXJXJXJXJXJXJXJXJXJXu 4 k >.U.kXOXT.2.@.'  .JXJXJXJXJXJXJXJXJXJX",
"JXJXJXJXJXJXJXJXJX3 y b , } 4.t.H.J [ %.3 | JXJXJXJXJXJXJXJXJXJX",
"JXJXJXJXJXJXJXJXJXh f p 1 % Q { ^ g n z $ 9 JXJXJXJXJXJXJXJXJXJX",
"JXJXJXJXJXJXJXJXJXK D &.t @ i 8 f.g.] 5 * S.JXJXJXJXJXJXJXJXJXJX",
"JXJXJXJXJXJXJXJXJXx.Q.XXD.Z.C.m.P.L.n.h.V.}.JXJXJXJXJXJXJXJXJXJX",
"JXJXJXJXJXJXJXJXJXR.{.E.Z A O.H s.d.U V b.[.JXJXJXJXJXJXJXJXJXJX",
"JXJXJXJXJXJXJXJXJX_.hX/.- W +.! ) 7 9 E T +XJXJXJXJXJXJXJXJXJXJX",
"JXJXJXJXJXJXJXJXJXB.].R 6 _ ..*.#.c $.;.C W.JXJXJXJXJXJXJXJXJXJX",
"JXJXJXJXJXJXJXJXJXY. XG 2 u 5.=.j $.%.-.< j.oXJXJXJXJXJXJXJXJXJX",
"JXJXJXJXJXJXJXJXJX!.jXF.# m 8.( r :.l X.v S ~.JXJXJXJXJXJXJXJXJX",
"JXJXJXJXJXJXJXJXJXJXJX1.0 , w , q / 4 <.>XJXJXJXJXJXJXJXJXJXJXJX",
"JXJXJXJXJXJXJXJXJXJXJXe.pXpX1X7.w.a.2XFXDXJXJXJXJXJXJXJXJXJXJXJX",
"JXJXJXJXJXJXJXJXJXJXJX0.zXHXaX5X%X%XmXBXSXJXJXJXJXJXJXJXJXJXJXJX",
"JXJXJXJXJXJXJXJXJXJXJX&X2XeXdXcXJX@X:X7XrXJXJXJXJXJXJXJXJXJXJXJX",
"JXJXJXJXJXJXJXJXJXJX@XfXsXZXAX,XJX0XiX<X9XtXJXJXJXJXJXJXJXJXJXJX",
"JXJXJXJXJXJXJXJXJXJX1XCXGXvX6XJXJX;XMXHXVX=XJXJXJXJXJXJXJXJXJXJX",
"JXJXJXJXJXJXJXJXJXJX#XbXwXNXBXJXJX*XlXxXyXJXJXJXJXJXJXJXJXJXJXJX",
"JXJXJXJXJXJXJXJXJXJXJX;XnXuX%XJXJXJX$Xu.-XJXJXJXJXJXJXJXJXJXJXJX",
"JXJXJXJXJXJXJXJXJXJXJXr.%X` JXJXJXJX  o 8XJXJXJXJXJXJXJXJXJXJXJX",
"JXJXJXJXJXJXJXJXJXJXJXi.-X  JXJXJXJX    p.r JXJXJXJXJXJXJXJXJXJX",
"JXJXJXJXJXJXJXJXJXJX+ qXy.JXJXJXJXJXy . e &XJXJXJXJXJXJXJXJXJXJX",
"JXJXJXJXJXJXJXJXJXJXo.vX> JXJXJXJXJXJXJXa ,.q.JXJXJXJXJXJXJXJXJX",
"JXJXJXJXJXJXJXJXJXJX4X9.JXJXJXJXJXJXJXJXJXJXJXJXJXJXJXJXJXJXJXJX"
};
