/* XPM */
static char *result[] = {
/* columns rows colors chars-per-pixel */
"65 65 248 2 ",
"   c #000000",
".  c #070109",
"X  c #160A01",
"o  c #0B0015",
"O  c #171113",
"+  c #290E0B",
"@  c #130124",
"#  c #150029",
"$  c #16062B",
"%  c #21023A",
"&  c #3C112E",
"*  c #373838",
"=  c #461C0A",
"-  c #75171A",
";  c #640A0B",
":  c #592604",
">  c #512D0B",
",  c #743403",
"<  c #6A2D07",
"1  c #4E1A2E",
"2  c #75292E",
"3  c #47333C",
"4  c #744C1E",
"5  c #270345",
"6  c #330950",
"7  c #390066",
"8  c #3C016B",
"9  c #3A0566",
"0  c #3A0175",
"q  c #540E5B",
"w  c #661659",
"e  c #742850",
"r  c #400070",
"t  c #460679",
"y  c #5B106D",
"u  c #6F1375",
"i  c #593876",
"p  c #51336B",
"a  c #6B256E",
"s  c #4D385E",
"d  c #5A5B5B",
"f  c #494B4C",
"g  c #6A515B",
"h  c #5D5C61",
"j  c #5B466E",
"k  c #645D6A",
"l  c #686968",
"z  c #777877",
"x  c #746F74",
"c  c #71625C",
"v  c #8A0808",
"b  c #A40000",
"n  c #8A3C01",
"m  c #9C3917",
"M  c #963A0F",
"N  c #A43D19",
"B  c #9A3628",
"V  c #922C33",
"C  c #AB362B",
"Z  c #CA2625",
"A  c #C41718",
"S  c #974B09",
"D  c #A54500",
"F  c #AB4A00",
"G  c #A84703",
"H  c #B34C00",
"J  c #B44707",
"K  c #BD5301",
"L  c #B75602",
"P  c #A84319",
"I  c #B44C16",
"U  c #B0520F",
"Y  c #B7680B",
"T  c #934E26",
"R  c #AF492D",
"E  c #A67432",
"W  c #C85901",
"Q  c #D25A03",
"!  c #C2541B",
"~  c #C96600",
"^  c #D76702",
"/  c #CA7703",
"(  c #DA7702",
")  c #D56918",
"_  c #E46A02",
"`  c #E57700",
"'  c #F57D00",
"]  c #CD582E",
"[  c #E77F26",
"{  c #981858",
"}  c #911052",
"|  c #A11D58",
" . c #852959",
".. c #932C4B",
"X. c #AB3554",
"o. c #941B65",
"O. c #A21F62",
"+. c #8F2F6B",
"@. c #A42464",
"#. c #AC2B6B",
"$. c #A62669",
"%. c #AA2771",
"&. c #B93678",
"*. c #AF346F",
"=. c #C43E7A",
"-. c #D43B4A",
";. c #8E6E55",
":. c #B2775D",
">. c #9A476A",
",. c #BB4772",
"<. c #945857",
"1. c #CC5075",
"2. c #CD5D4F",
"3. c #DC8401",
"4. c #D79210",
"5. c #E68601",
"6. c #F48700",
"7. c #E89600",
"8. c #F1960C",
"9. c #F6A703",
"0. c #F7B602",
"q. c #EEB20B",
"w. c #F0AD28",
"e. c #E99D28",
"r. c #FBCB00",
"t. c #FBD339",
"y. c #81867E",
"u. c #F4A456",
"i. c #FBE65E",
"p. c #4B0986",
"a. c #530D89",
"s. c #56158D",
"d. c #570A98",
"f. c #561492",
"g. c #5B1699",
"h. c #4C0C94",
"j. c #751389",
"k. c #621B9A",
"l. c #6A1191",
"z. c #642593",
"x. c #77298D",
"c. c #5E05A6",
"v. c #5F0BA5",
"b. c #5E04AB",
"n. c #5A06AA",
"m. c #5C1AA6",
"M. c #5C04B3",
"N. c #5F1DB4",
"B. c #610AA5",
"V. c #6006AB",
"C. c #610BAA",
"Z. c #6006A6",
"A. c #6512AD",
"S. c #6319A6",
"D. c #6407B4",
"F. c #6A1AB2",
"G. c #6716B4",
"H. c #701BB4",
"J. c #6A25A6",
"K. c #722DA8",
"L. c #7A35AE",
"P. c #7A33A6",
"I. c #6D23B5",
"U. c #6D27B8",
"Y. c #752CBB",
"T. c #762ABC",
"R. c #7B33BD",
"E. c #7B35B5",
"W. c #5C298F",
"Q. c #745493",
"!. c #6C4D89",
"~. c #796E83",
"^. c #7932C5",
"/. c #671BC0",
"(. c #8B258C",
"). c #B43A87",
"_. c #8139B7",
"`. c #9B3DA6",
"'. c #C13C80",
"]. c #B84D90",
"[. c #877688",
"{. c #984A8A",
"}. c #C94686",
"|. c #D4498C",
" X c #D64D93",
".X c #D95797",
"XX c #D2538E",
"oX c #E45A9B",
"OX c #D9699B",
"+X c #CC748D",
"@X c #E3639A",
"#X c #E9768B",
"$X c #EA5FA2",
"%X c #EA67A5",
"&X c #F46BAA",
"*X c #EB77AB",
"=X c #FA77B5",
"-X c #F275B2",
";X c #DC63A5",
":X c #823AC2",
">X c #853AC2",
",X c #8C3AD2",
"<X c #8C45C7",
"1X c #924ACA",
"2X c #9147CB",
"3X c #8A8989",
"4X c #9C9D9B",
"5X c #969897",
"6X c #8F8E91",
"7X c #9EA09D",
"8X c #A1A49E",
"9X c #ACADAC",
"0X c #A4A6A4",
"qX c #B3B3B3",
"wX c #BBBCBC",
"eX c #B7B8B6",
"rX c #AFB3AF",
"tX c #969EA4",
"yX c #EC86B6",
"uX c #F787BA",
"iX c #EA8FAF",
"pX c #EEA8B8",
"aX c #CE9BA5",
"sX c #BCC0B8",
"dX c #F1DEA0",
"fX c #B3BBC1",
"gX c #FA99C7",
"hX c #F690C6",
"jX c #F8A6CA",
"kX c #F5B0D3",
"lX c #BFC3C5",
"zX c #C3C3C3",
"xX c #CCCCCC",
"cX c #C1C5C8",
"vX c #CED0CB",
"bX c #D4D4D4",
"nX c #DBDBDB",
"mX c #D7D8D9",
"MX c #F2C1DA",
"NX c #F3D2E7",
"BX c #E3E3E3",
"VX c #ECECEC",
"CX c #F4F4F4",
"ZX c #FBFBFB",
"AX c #F7F8F9",
"SX c #FEE2F4",
"DX c #F0F1D0",
"FX c None",
/* pixels */
"FXFXFXFXFXFXFXFXFXFXFXFXFXFXFXFXFXFXFXFXFXFXFXFXFXFXFXFXFXFXFXFXFXFXFXFXFXFXFXFXFXFXFXFXFXFXFXFXFXFXFXFXFXFXFXFXFXFXFXFXFXFXFXFXFX",
"FXFXFXFXFXFXFXFXFXFXFXFXFXFXFXFXFXFXFXFXFXFXFXFXFXFXFXFXFXFXFXFXFXFXFXFXFXFXFXFXFXFXFXFXFXFXFXF F F FXFXFXFXFXFXFXFXFXFXFXFXFXFXFX",
"FXFXFXFXFXFXFXFXFXFXFXFXFXFXFXFXFXFXFXFXFXFXFXFXFXFXFXFXFXFXFXFXFXFXFXFXFXFXFXFXFXFXFXFXFXFXF L W L F FXFXFXFXFXFXFXFXFXFXFXFXFXFX",
"FXFXFXFXFXFXFXFXFXFXFXFXFXFXFXFXFXFXFXFXFXFXFXFXFXFXFXFXFXFXFXFXFXFXFXFXFXFXFXFXFXFXFXFXFXFXF ^ 9.9.( H FXFXFXFXFXFXFXFXFXFXFXFXFX",
"FXFXFXFXFXFXFXFXFXFXFXFXFXFXFXFXFXD D D FXFXFXFXFXFXFXFXFXFXFXFXFXFXFXFXFXFXFXFXFXFXFXFXFXH ^ w.dXDXw.~ FXFXFXFXFXFXFXFXFXFXFXFXFX",
"FXFXFXFXFXFXFXFXFXFXFXFXFXFXFXFXJ W W F F FXFXFXFXFXFXFXFXFXFXFXFXFXFXFXFXFXFXFXFXFXFXFXFXK ( t.DXi.q.~ FXFXFXFXFXFXFXFXFXFXFXFXFX",
"FXFXFXFXFXFXFXFXFXFXFXFXFXFXFXF Q ' 5.W F D FXFXFXFXFXFXFXFXFXFXFXFXFXFXFXFXFXFXFXFXFXFXFXF W 4.t.9.~ D FXFXFXFXFXFXFXFXFXFXFXFXFX",
"FXFXFXFXFXFXFXFXFXFXFXFXFXFXD K e.dXi.e.~ F FXFXFXFXFXFXFXFXFXFXFXFXFXFXFXFXFXFXFXFXFXFXFXFXH K / W Q W H FXFXFXFXFXFXFXFXFXFXFXFX",
"FXFXFXFXFXFXFXFXFXFXFXFXFXL F ~ w.dXDXt.( U FXFXFXFXFXFXFXFXFXFXFXFXFXFXFXFXFXFXFXFXFXFXFXFXFXD J / 6.' W D FXFXFXFXFXFXFXFXFXFXFX",
"FXFXFXFXFXFXFXFXFXFXFXFXD K L H 5.q.i.r.~ H FXFXFXFXFXFXFXFXFXFXFXFXFXFXFXFXFXFXFXFXFXFXFXFXFX^ 7.9.9._ P B FXFXFXFXFXFXFXFXFXFXFX",
"FXFXFXFXFXFXFXFXFXFXFXFXF W W F J ^ 4.~ J FXFXFXFXFXFXFXFXFXFXFXFXFXFXFXFXFXFXFXFXFXFXFXFXFXFX` 9.9._ ] X.} FXFXFXFXFXFXFXFXFXFXFX",
"FXFXFXFXFXFXFXFXFXFXFXD W ' ' ~ F D G G FXFXFXFXFXFXFXFXFXFXFXFXFXFXFXFXFXFXFXFXFXFXFXFXFXFXFXN _ ^ ] 1.).} FXFXFXFXFXFXFXFXFXFXFX",
"FXFXFXFXFXFXFXFXFXFXFXm W ' 9.8.^ L D FXFXFXFXFXFXFXFXFXFXFXFX&.&.#.O.{ *.*.*.FXFXFXFXFXFXFXFX..N R 1.'.$.} FXFXFXFXFXFXFXFXFXFXFX",
"FXFXFXFXFXFXFXFXFXFXFX{ C Q 6.0.9.^ H FXFXFXFXFXFXFXFXFXFX}.}.}.%XyXXXO.O.{ O.#.FXFXFXFXFXFXFXFX@.1.oX'.O.{ FXFXFXFXFXFXFXFXFXFXFX",
"FXFXFXFXFXFXFXFXFXFXFX} |.2.Q ' ' W FXFXFXFXFXFXFXFXFX&.).@X*X;XyX*X}.|.}.%.{ FXFXFXFXFXFXFXFX*.yX=XoX=.@.} FXFXFXFXFXFXFXFXFXFXFX",
"FXFXFXFXFXFXFXFXFXFXFX} &.'.2.U N V FXFXFXFXFXFXFXFX}.&.#..X}.OXuXyX=.&.|.$.$.@.FXFXFXFXFXFX@.XXgXhXoX&.@.{ FXFXFXFXFXFXFXFXFXFXFX",
"FXFXFXFXFXFXFXFXFXFXFX} $.}.|.X...FXFXFXFXFXFXFXFXFX|..X$X|.%.XXgXhX|.#. XoX'.$.FXFXFXFXFXN O..XgXuX|.$.{ FXFXFXFXFXFXFXFXFXFXFXFX",
"FXFXFXFXFXFXFXFXFXFXFX{ $.}.oX*XXX@.FXFXFXFXFXFXFX*.}.&X=X%X1.&.@X@X#.=. XoX|.O.} FXFXFXFXR ;X%XOX&.*.@.FXFXFXFXFXFXFXFXFXFXFXFXFX",
"FXFXFXFXFXFXFXFXFXFXFX{ #.}.%XgXyX,.| FXFXFXFXFXXX}.}.-XhXuX%X|.@XoX|.@X$X&X.X#.$.*.FXFXP ,.-X&X X%.@.O.FXFXFXFXFXFXFXFXFXFXFXFXFX",
"FXFXFXFXFXFXFXFXFXFXFXFXO.*.@XgXgX}.} m FXFXFXo.OX%X@XuXgXgX=XuXkXkXuX=X&X=X%X=.=.#.B I ,.OXoX=X X%.o.FXFXFXFXFXFXFXFXFXFXFXFXFXFX",
"FXFXFXFXFXFXFXFXFXFXFXFX} #.)..X-X;X,.R FXFXp.u =.$XuXgXjXjXgXNXAXCXnXjXuX=X&XoX&.{ B ] oX%XoX X .V FXFXFXFXFXFXFXFXFXFXFXFXFXFXFX",
"FXFXFXFXFXFXFXFXFXFXFXFXFX$.O.%..X-X*XR 2 t F.(.].*XjXkXgX#X1.aXpXpXaX:.@X*X=X&X=.} B V +. X).e = M FXFXFXFXFXFXFXFXFXFXFXFXFXFXFX",
"FXFXFXFXFXFXFXFXFXFXFXFXFXFXo.&.oX=X@X1.R e L.`..XgXMXNXpX-.C Z Z Z C v X.*X=X=X X@.m , 2 1.X.= n FXFXFXFXFXFXFXFXFXFXFXFXFXFXFXFX",
"FXFXFXFXFXFXFXFXFXFXFXFXFXFXFX{ &.$XoX%X|.C {.`.}.uXMXSXjXC b b b v v ; V *X=X&X'.o.V I ^ 8.^ M m FXFXFXFXFXFXFXFXFXFXFXFXFXFXFXFX",
"FXFXFXFXFXFXFXFXFXFXFXFXFXFXFX< 1 *.XX.X).P >.^.(.].iXNXpX..- - v 2 - 1 ..%X=X X%.j.S...` 6._ T w 0 FXFXFXFXFXFXFXFXFXFXFXFXFXFXFX",
"FXFXFXFXFXFXFXFXFXFXFXFXFXFXFX2 > 1 *.&.1 n e J.Y.x.}.-X-XOX+XaXaXaX+X+XOX&X X#.j.U.J.2 Q _ m j.m.t r FXFXFXFXFXFXFXFXFXFXFXFXFXFX",
"FXFXFXFXFXFXFXFXFXFXFXFXFXFXFXe M n ) [ L F > 6 m.I.(.%.#.'.-XgXkXjXgX-X'.#.@.j.F.g.6 > W n 1 n.G.m.t FXFXFXFXFXFXFXFXFXFXFXFXFXFX",
"FXFXFXFXFXFXFXFXFXFXFXFXFXFXa.k. .I Q 6.` < X . 6 a.k.l.y q %.=.].,.'.$.q q j.d.a.5 . X = X @ c.V.G.m.a.FXFXFXFXFXFXFXFXFXFXFXFXFX",
"FXFXFXFXFXFXFXFXFXFXFXFXFXFXs.F.B. .J W < X     o # 5 h.m.z.x.u u u u x.J.d.t 5 $ o     . o 8 c.V.C.I.s.FXFXFXFXFXFXFXFXFXFXFXFXFX",
"FXFXFXFXFXFXFXFXFXFXFXFXFXp.S.I.b.l. .> .         . % f.R.^.G.d.a.d.d.F._.>Xs.%         @ 0 V.C.n.C.F.a.FXFXFXFXFXFXFXFXFXFXFXFXFX",
"FXFXFXFXFXFXFXFXFXFXFXFXFXz.R.F.n.V.d.1 : X     o 5 s.<X1XT.A.d.a.u h.G.T.2X>Xs.% O   + 2 j.V.C.Z.C.T.z.FXFXFXFXFXFXFXFXFXFXFXFXFX",
"FXFXFXFXFXFXFXFXFXFXFXFXFXJ.:XI.C.M.l.B _ S X   @ s.Y.Y.U.m.h.z.].].k.m.m.I.^.I.t @   , / V c.C.c.A.>X^.a.FXFXFXFXFXFXFXFXFXFXFXFX",
"FXFXFXFXFXFXFXFXFXFXFXFXFXK.>XI.V.b.B...] 4.S > & g.P.a w u j.].-X-X).a.y w a S.p.& > S 3...b.c.c.C.R.R.f.FXFXFXFXFXFXFXFXFXFXFXFX",
"FXFXFXFXFXFXFXFXFXFXFXFXFXz.:XU.B.C.B.l.&.R 3./ B q 2 I P *.;X$XoX$X X).X.N I e q B 3.Y T >.m.M.V.B.G.F.f.FXFXFXFXFXFXFXFXFXFXFXFX",
"FXFXFXFXFXFXFXFXFXFXFXFXFXz.Y.F.C.c.b.M.+.'.] ) R T P ! R #X=X=X%X&X&X$X1.] ! m T U U E ~.[.Q.d.V.V.Z.G.g.FXFXFXFXFXFXFXFXFXFXFXFX",
"FXFXFXFXFXFXFXFXFXFXFXFXg.U.F.A.C.c.V.c.& +.*.*.1.#X#X+XiXjXkXgXgXhXhX=X%X1.,.;.;.x ;.3XtX9XrXj d.V.C.C.B.p.FXFXFXFXFXFXFXFXFXFXFX",
"FXFXFXFXFXFXFXFXFXFXFX7 K.^.I.c.c.c.S.!.O & & e  XuXhXhXkXkXMXjXjXpXuX=X].g >.tX5X0XfXcXwXwXvXy.i k.V.V.G.g.FXFXFXFXFXFXFXFXFXFXFX",
"FXFXFXFXFXFXFXFXFXFXFX7 L.>XF.v.b.B.Q.4Xl O   O 1 e s d g c :.u.u.u.2.<.3 d rXvXrXeXnXBXxXsXbXeXy.i d.D.F.k.FXFXFXFXFXFXFXFXFXFXFX",
"FXFXFXFXFXFXFXFXFXFXFX7 J.Y.F.c.b.k.~.sXwXl O       .     . S ( 9.3.H , d lXAXVXcXqXbXBXbXbXmXvX8Xd s.V.F.g.FXFXFXFXFXFXFXFXFXFXFX",
"FXFXFXFXFXFXFXFXFXFXFXt S.Y.F.c.B.!.6XeXnXzXz * f d * X   . n / ~ ^ Y ;.sXCXCXCXnXeXcXBXmXlXlXfX4Xd s.D.F.k.t FXFXFXFXFXFXFXFXFXFX",
"FXFXFXFXFXFXFXFXFXFX8 d.I.U.A.b.k.z 8XwXbXnXsX7XzXmX5Xf * 3 T 4./ ~ E 7XnXZXZXAXnXwXwXBXvXd h x 6Xh d.D.G.F.h.8 FXFXFXFXFXFXFXFXFX",
"FXFXFXFXFXFXFXFXFXFX8 J.R.G.c.v.P.3X8XzXbXmXeXxXBXmXeX9XrXeXrX:.T T ;.5XmXAXAXCXVXzX9XeXl   + > ;.h a u x.P.J.8 FXFXFXFXFXFXFXFXFX",
"FXFXFXFXFXFXFXFXFXFX8 L.:XF.b.z.3XeXrXxXnXxXvXVXZXmX9XwXBXCXBXeXy.x y.qXbXCXAXBXVXBX9Xd X < L Y T 4 T H I >.U.9 FXFXFXFXFXFXFXFXFX",
"FXFXFXFXFXFXFXFXFXFX8 L.^.F.b.z.6XvXcXbXCXbXnXAXZXbXqXmXCXZXCXBXsX6XrXnXxXCXCXnXVXVXeXf + / 0.7.U U W ^ L >.U.9 FXFXFXFXFXFXFXFXFX",
"FXFXFXFXFXFXFXFXFXFX7 L.R.F.b.z.6XvXxXbXCXnXVXZXZXmXwXVXCXBXCXZXBXzXxXzXqXnXVXmXBXbX4Xf : 8.0./ Y 3.( Q U +.N.9 FXFXFXFXFXFXFXFXFX",
"FXFXFXFXFXFXFXFXFXFX8 L.:XG.M.W.6XvXzXbXCXnXVXZXZXnXbXVXnXxXBXZXnXzXeX8X0XxXbXxXBXnX4Xd 4 ` 7.~ 3.` ^ I +.U.m.9 FXFXFXFXFXFXFXFXFX",
"FXFXFXFXFXFXFXFXFXFXd._.:XF.b.z.6XwXqXbXCXbXBXAXZXVXBXVXmXqXvXCXxX0X5X3X4XqXwXwXvXxX4Xz c T Y 3.` ~ I  .A.G.I.g.FXFXFXFXFXFXFXFXFX",
"FXFXFXFXFXFXFXFXFX8 S.>XR.F.b.z.[.0X0XzXnXxXbXVXZXAXVXBXmXeXqXbXwX6Xx c z 7XqX9XzXqX3X3X!.a F / Q I  .v.n.F.^.K.r FXFXFXFXFXFXFXFX",
"FXFXFXFXFXFXFXFXFXr L.2X:XF.c.S.Q.3X8XrXxXxXzXBXVXCXCXmXmXvXeXrX7Xz j y i x 3X7XqX4Xl h j a ..G I +.m.n.B.F.:XL.r FXFXFXFXFXFXFXFX",
"FXFXFXFXFXFXFXFXFXr _.1X^.F.Z.C.U.Q.3X4XzXxXeXxXBXBXnXxXsXzXeX3Xl j f.D.A.i j x z l i p p W.S.+.+.U.D.c.c.F.:XL.r FXFXFXFXFXFXFXFX",
"FXFXFXFXFXFXFXFXFXr E.1X_.G.Z.A.U.R.Q.3X8XsXeXrXbXnXxXzX9X6X[.j s s.V.b.F.,XY.W.p p g.D.M.b.A./.^.U.A.c.V.F.^.L.r FXFXFXFXFXFXFXFX",
"FXFXFXFXFXFXFXFXFXr _.1X:XF.c.C.R.<XR.Q.!.[.0X7X4XrXzXsX7Xl j d.M.n.C.b.F.>XR.U.T.G.V.n.c.b.C.Y.<XY.A.c.B.F.:XL.r FXFXFXFXFXFXFXFX",
"FXFXFXFXFXFXFXFXFXr _.1X^.G.c.B.Y.<X<XY.M.!.Q.k h d h d f s k.V.c.C.V.c.F._.Y.U.F.g.d.c.V.C.C.R.<XT.C.c.C.F.:XL.r FXFXFXFXFXFXFXFX",
"FXFXFXFXFXFXFXFXFXr _.1X:XF.c.A.E.2X2XY.A.v.G.6 . .     @ t D.v.V.c.n.c.A.U.^.S.t 7 7 p.C.V.A.Y.<XY.C.b.c.F.:XL.r FXFXFXFXFXFXFXFX",
"FXFXFXFXFXFXFXFXFXr _.R.Y.F.c.C.Y.2X<XY.C.b.G.6 X X X X O t D.V.c.B.Z.A.U.T.J.t @ . . % f.U.U.Y.<XT.v.n.c.F.:XL.r FXFXFXFXFXFXFXFX",
"FXFXFXFXFXFXFXFXFXr E.R.U.F.c.A.R.2X2XY.A.n.M...U L L H B l.D.v.C.V.B.G.T.I.t @       . % f.T.Y.<XY.v.p.r g.>XE.r FXFXFXFXFXFXFXFX",
"FXFXFXFXFXFXFXFXFXr _.^.k.p.t a.R.1X<XT.C.M.+.) 0.0.7.^ P j.M.Z.V.Z.G.S.a.r $           . % f.Y.<XY.d.FXFXFXk.J.r FXFXFXFXFXFXFXFX",
"FXFXFXFXFXFXFXFXFXr I.k.FXFXFXFXg.R.1XR.M.h.B 5.r.r.9.^ m y n.V.V.V.B.9 # o               . % a.g.a.FXFXFXFXt p.r FXFXFXFXFXFXFXFX",
"FXFXFXFXFXFXFXFXFXr a.t FXFXFXFXFXs.k.f.p.FXK ^ ` 3.~ K M & 0 h.p.p.8 o                     . # # @ . FXFXFXFX8 r FXFXFXFXFXFXFXFX",
"FXFXFXFXFXFXFXFXFXr 8 FXFXFXFXFXFXFXFXFXFXFXW ( 5.( L D : X @ % % % @                                 FXFXFXFXr r FXFXFXFXFXFXFXFX",
"FXFXFXFXFXFXFXFXFXFXFXFXFXFXFXFXFXFXFXFXFXD H 9.0.3.F : X                                             FXFXFXFXFXFXFXFXFXFXFXFXFXFX",
"FXFXFXFXFXFXFXFXFXFXFXFXFXFXFXFXFXFXFXFXFXH ~ 7.3.F < X                                             FXFXFXFXFXFXFXFXFXFXFXFXFXFXFX",
"FXFXFXFXFXFXFXFXFXFXFXFXFXFXFXFXFXFXFXFXF K 3.( K FXFXX                                           FXFXFXFXFXFXFXFXFXFXFXFXFXFXFXFX",
"FXFXFXFXFXFXFXFXFXFXFXFXFXFXFXFXFXFXFXFXF F D D FXFXFXFXFX                                    FXFXFXFXFXFXFXFXFXFXFXFXFXFXFXFXFXFX",
"FXFXFXFXFXFXFXFXFXFXFXFXFXFXFXFXFXFXFXFXFXFXFXFXFXFXFXFXFXFXFXFX                        FXFXFXFXFXFXFXFXFXFXFXFXFXFXFXFXFXFXFXFXFX"
};
