/* XPM */
static char *result[] = {
/* columns rows colors chars-per-pixel */
"65 65 255 2 ",
"   c #000000",
".  c #090608",
"X  c #150704",
"o  c #0B0315",
"O  c #170517",
"+  c #141515",
"@  c #0F1011",
"#  c #240E01",
"$  c #281401",
"%  c #341306",
"&  c #1A0B2C",
"*  c #320E25",
"=  c #272727",
"-  c #363636",
";  c #1F2021",
":  c #4E1E07",
">  c #592406",
",  c #652B00",
"<  c #733606",
"1  c #4A1C2F",
"2  c #4C2C32",
"3  c #752B37",
"4  c #3F413E",
"5  c #784C00",
"6  c #250044",
"7  c #340755",
"8  c #3B0368",
"9  c #3D0871",
"0  c #530E52",
"q  c #731651",
"w  c #6A264B",
"e  c #430374",
"r  c #48077A",
"t  c #540D6F",
"y  c #6B0F6C",
"u  c #51336F",
"i  c #6E2677",
"p  c #484849",
"a  c #575758",
"s  c #4D504F",
"d  c #64467D",
"f  c #676867",
"g  c #797979",
"h  c #6F6279",
"j  c #645A4F",
"k  c #92090B",
"l  c #9C3802",
"z  c #913C0F",
"x  c #A53715",
"c  c #9C3424",
"v  c #942C32",
"b  c #A83134",
"n  c #AD0B11",
"m  c #944803",
"M  c #A44400",
"N  c #AC4B01",
"B  c #A84806",
"V  c #B24D01",
"C  c #B94D08",
"Z  c #B95602",
"A  c #A94519",
"S  c #B35114",
"D  c #B8650B",
"F  c #B74B25",
"G  c #B04832",
"H  c #B46D35",
"J  c #985821",
"K  c #CB5C00",
"L  c #C55602",
"P  c #D35C01",
"I  c #C85315",
"U  c #C86802",
"Y  c #D86801",
"T  c #C97702",
"R  c #D57603",
"E  c #CE6D1D",
"W  c #E56902",
"Q  c #E87802",
"!  c #F57900",
"~  c #EF7205",
"^  c #C94C2E",
"/  c #D2702D",
"(  c #971859",
")  c #8F174B",
"_  c #922D4F",
"`  c #AC2F53",
"'  c #9D1C63",
"]  c #94166C",
"[  c #A41F6B",
"{  c #902B6E",
"}  c #A62666",
"|  c #B32E6D",
" . c #A8356A",
".. c #B83677",
"X. c #B1306F",
"o. c #C23E7D",
"O. c #CC3A4C",
"+. c #A84F52",
"@. c #AC6462",
"#. c #C75350",
"$. c #C8457B",
"%. c #D05070",
"&. c #D46A71",
"*. c #E85975",
"=. c #D48B0B",
"-. c #E68900",
";. c #F98A01",
":. c #E89604",
">. c #F99401",
",. c #E78E13",
"<. c #DAAC13",
"1. c #EBA603",
"2. c #FAA901",
"3. c #F8B801",
"4. c #EEAF11",
"5. c #F4B630",
"6. c #E19F33",
"7. c #F8C702",
"8. c #FAD301",
"9. c #FCDA04",
"0. c #F6CC0B",
"q. c #FAD429",
"w. c #FEE51A",
"e. c #978471",
"r. c #CD8E51",
"t. c #DBAD70",
"y. c #D99E59",
"u. c #EDD251",
"i. c #FBE54D",
"p. c #F7D675",
"a. c #FCE869",
"s. c #A7931F",
"d. c #4B0986",
"f. c #520C8A",
"g. c #541389",
"h. c #550897",
"j. c #5B1998",
"k. c #4A0A93",
"l. c #6B1490",
"z. c #69269A",
"x. c #6E2F98",
"c. c #5D06A7",
"v. c #5B15A5",
"b. c #5C0AB6",
"n. c #620CAB",
"m. c #630AA7",
"M. c #6514AE",
"N. c #651AA8",
"B. c #640AB2",
"V. c #6B1CB3",
"C. c #6718B5",
"Z. c #711FB4",
"A. c #6824A9",
"S. c #752BAC",
"D. c #6D23B5",
"F. c #6C27B8",
"G. c #742BBB",
"H. c #7328B7",
"J. c #7C33BD",
"K. c #7F39B4",
"L. c #7335A8",
"P. c #5D2889",
"I. c #6D4591",
"U. c #7D7685",
"Y. c #7D44B3",
"T. c #762CC4",
"R. c #7C34C2",
"E. c #7029C8",
"W. c #6A15C5",
"Q. c #370581",
"!. c #92368D",
"~. c #B33584",
"^. c #813ABA",
"/. c #C43D84",
"(. c #BA4E89",
"). c #827B87",
"_. c #8A4CB3",
"`. c #9E5FA9",
"'. c #C54384",
"]. c #CB4788",
"[. c #D34B8B",
"{. c #D54D92",
"}. c #DA5897",
"|. c #CF558D",
" X c #E25999",
".X c #EE5988",
"XX c #DA659B",
"oX c #D7698B",
"OX c #E46799",
"+X c #E76C91",
"@X c #E95DA3",
"#X c #D96DA3",
"$X c #E967A5",
"%X c #F46DAD",
"&X c #F669AD",
"*X c #EA75AA",
"=X c #FB74B3",
"-X c #F878B6",
";X c #F174B0",
":X c #DA59A0",
">X c #843CC3",
",X c #8739C7",
"<X c #8B44C6",
"1X c #924ACB",
"2X c #904FCE",
"3X c #A677D6",
"4X c #996AD6",
"5X c #8A8A89",
"6X c #9C9C9C",
"7X c #949594",
"8X c #8F918C",
"9X c #ACA39C",
"0X c #A5A5A4",
"qX c #ACACAC",
"wX c #A8ABA6",
"eX c #B3B4B3",
"rX c #BBBBBB",
"tX c #B8B8B8",
"yX c #B0B5AC",
"uX c #AB9699",
"iX c #ED89B6",
"pX c #F887BB",
"aX c #F18DAD",
"sX c #DEA0A4",
"dX c #F4D88D",
"fX c #C1C4BE",
"gX c #F7EBB6",
"hX c #EDD9A0",
"jX c #B79BD4",
"kX c #FB89C3",
"lX c #FA98C5",
"zX c #FA9DD3",
"xX c #F9A5CC",
"cX c #FCA7D4",
"vX c #FCB6DB",
"bX c #E0B7E1",
"nX c #C4C4C4",
"mX c #CCCCCC",
"MX c #C9CAC6",
"NX c #D4D4D4",
"BX c #DBDBDB",
"VX c #D5D1CE",
"CX c #EBCDD6",
"ZX c #F3ECD1",
"AX c #D8D3EB",
"SX c #F4D0E7",
"DX c #E3E3E3",
"FX c #EBEBEB",
"GX c #E2E8EB",
"HX c #F4F4F4",
"JX c #FBFBFB",
"KX c #F1F5F8",
"LX c #F2F2F2",
"PX c #BFC7CB",
"IX c None",
/* pixels */
"IXIXIXIXIXIXIXIXIXIXIXIXIXIXIXIXIXIXIXIXIXIXIXIXIXIXIXIXIXIXIXIXIXIXIXIXIXIXIXIXIXIXIXIXIXIXIXIXIXIXIXIXIXIXIXIXIXIXIXIXIXIXIXIXIX",
"IXIXIXIXIXIXIXIXIXIXIXIXIXIXIXIXIXIXIXIXIXIXIXIXIXIXIXIXIXIXIXIXIXIX/.]./...X.$.'.IXIXIXIXIXIXIXIXIXIXIXIXIXIXIXIXIXIXIXIXIXIXIXIX",
"IXIXIXIXIXIXIXIXIXIXIXIXIXIXIXIXIXIXIXIXIXIXIXIXIXIXIXIXIXIXIXIXIX'.$X%X}.} } }.}...IXIXIXIXIXIXIXIXIXIXIXIXIXIXIXIXIXIXIXIXIXIXIX",
"IXIXIXIXIXIXIXIXIXIXIXIXIXIXIXIXIXIXIXIXIXIXIXIXIXIXIXIXIXIXIXIX[.*XiX|.} IXIXX...IXIXIXIXIXIXIXIXIXIXIXIXIXIXIXIXIXIXIXIXIXIXIXIX",
"IXIXIXIXIXIXIXIXIXIXIXIXIXIXIXIXIXIXIXIXIXIXIXIXIXIXIXIXIXIXX.'.}.pXiX..) IXIXIXIXIXIXIXIXIXIXIXIXIXIXIXIXIXIXIXIXIXIXIXIXIXIXIXIX",
"IXIXIXIXIXIXIXIXIXIXIXIXIXIXIXIXIXIXIXIXIXIXIXIXIXIXIXIX'.'.].{.*XlXiXX.( [ } IXIXIXIXIXIXIXIXIXIXIXIXIXIXIXIXIXIXIXIXIXIXIXIXIXIX",
"IXIXIXIXIXIXIXIXIXIXIXIXIXIXIXIXIXIXIXIXIXIXIXIXIXIX....[.;X-XOX*XlX$XX.| ].X.( IXIXIXIXIXIXIXIXIXIXIXIXIXIXIXIXIXIXIXIXIXIXIXIXIX",
"IXIXIXIXIXIXIXIXIXIXIXIXIXIXIXIXIXIXIXIXIXIXIXIXIX'.o.' ..;XpXiXlX*X].o. X{.' } } IXIXIXIXIXIXIXIXIXIXIXIXIXIXIXIXIXIXIXIXIXIXIXIX",
"IXIXIXIXIXIXIXIXIXIXIXIXIXIXIXIXIXIXIXIXIXIXIXIXIX'. X[.{.%XpXxXlXOX]. X=X@X/./.} ) IXIXIXIXIXIXIXIXIXIXIXIXIXIXIXIXIXIXIXIXIXIXIX",
"IXIXIXIXIXIXIXIXIXIXIXIXIXIXIXIXIXIXIXIXIXIXIXIXX.'.$X-X-X&XXXiXlX%X X{.@X=X=XOX..( IXIXIXIXIXIXIXIXIXIXIXIXIXIXIXIXIXIXIXIXIXIXIX",
"IXIXIXIXIXIXIXIXIXIXIXIXIXIXIXIXIXIXIXIXIXIXIXo...'.%XpXpX X..#XlXpX$X| o.=X=X=Xo.( ( IXIXIXIXIXIXIXIXIXIXIXIXIXIXIXIXIXIXIXIXIXIX",
"IXIXIXIXIXIXIXIXIXIXIXIXM N M M IXIXIXIXIXIX(.XX|.'.*XlXlXiX*XiXxXlX-X@X@X=X=X%Xo.' o.| IXIXIXIXIXIXIXM M M N M IXIXIXIXIXIXIXIXIX",
"IXIXIXIXIXIXIXv l l l C V M L r.t.J IXIXIXIXo.$X%XOXiXxXxXxXxXxXxXxXlXpX=X=X=X%X[...o.} IXIXIXIXIXIXZ T R V M C V l l l ) IXIXIXIX",
"IXIXIXIXIXIX) F E r.S L Y U y.dXt.S IXIXIXIX} [.%XpXzXxXiXiX*XiXlXxXlXXX}.&X=X=X&X{.| ( y IXIXIXIXM Z 1.2.-.U Y C H r.I b ) IXIXIX",
"IXIXIXIXIX) x R q.hXH I ! 4.dXa.<.B V Z v 0 ] $.*XxXlXlX-X'.} [.pXlX$XX.|  X&X%X%X X} ) y IXIXV N N D 7.9.3.;.~ C r.dX1.U c ( IXIX",
"IXIXIXIX( x P >.4.5.Z L W ! 5.9.:.Z P ~ U c  .#XxXxXpX-X=X$X/.| |.#X....[.{.{. X$X%X$.' l.y V W ~ L Z 7.8.>.~ Y A =.q.2.! L c ( IX",
"IXIXIX} $.#.^ W ;.;.Z N Z W ;.;.T N x ,.;.P b +XcXvXcXxXxXpX&X{.&X;X X X*XaX%X$X&X$X/.' ) x W 2.E x V Q >.! Y Z M Y ;.;.Y ^ %.o.' ",
"IXIX( | [...A K ~ ~ Z M N Z P K C G | #.~ ,.r.&.+XSXSXSXSXvXpX.X%.*.%.;XlXpX-X=X&X X| _ H r.;.E +.| F Z P P V M M K ~ ~ Z b /.[.} ",
"IXIX( ..}.X.c C U K N C F F A F #.}.{.[ A 5.p.r.+.aXcXvXxXcXpXO.n n b oXcXpX=X&X X..) J y.p.,.` ~.}.%.^ A B A F B V U K x b ~.XX} ",
"IXIX) '.kX$X| v B N B #.+X$. .%.*X;X].] G 4.q.=.c X.;X=XaXlXaXb k k k oXkX=X&X XX.] 0 c 4.q.:._ [ }.pX$X%...|.+XF B V B v (.;XiX| ",
"IXIXIX .|.lX*XX.b +.&.aX;X].o.$XkX=X].] G 3.=.+.t y X.o.| ].;X+XoXoXoX%X XX.~.| ] e h.!./ 1.<.` ] }.-XpX Xo.|.-XaX&.+.b '.kXiX(. .",
"IXIXIXIX .oX:XX.[ }.zXkX}.[.OX;X=X@X~.` / ,.c x.F.j.y G ^ #.%. XOX$XOX[.#.^ b q t h.C.S.w m :.^ } /.%X=X;X}.|.$XlX-X/.' /.XX'.( IX",
"IXIXIXIXIX' { ( } '.$X|...$.OX}.].o.` I Y < 7 g.F.v.g.G R b ) q ) q q ) b I v 0 k.b.N.9 & $ m Y ^ } $.[.OXXXo...XXOX..( ' } ' IXIX",
"IXIXIXIXIXIXIXIXIX' } ' ( } } ' ' ( c C < # o 7 9 g.j.P.w y e & X O O 7 t 0 t h.k.e 8 &     % z A b ' ' } } ( ( } } } IXIXIXIXIXIX",
"IXIXIXIXIXIXIXIXIXIXy t l.l.l.S.l.0 : % X     o O & d.c.N.F.j.8 7 9 7 d.F.A.v.f.6 o &         % 1 y l.l.l.l.l.t IXIXIXIXIXIXIXIXIX",
"IXIXIXIXIXIXIXIXIXIXe h.M.n.Z.T.A.e o           . & d.H.,XG.V.h.f.k.h.n.F.J.R.j.6 o           . 6 h.m.c.m.C.A.9 IXIXIXIXIXIXIXIXIX",
"IXIXIXIXIXIXIXIXIXIX8 j.V.n.D.G.N.8 o         o 6 g.J.1X>XC.n.c.f.t h.b.C.G.2X<Xj.8 o o       . 6 h.B.m.m.B.D.d.IXIXIXIXIXIXIXIXIX",
"IXIXIXIXIXIXIXIXIXe h.V.V.n.D.T.N.8 o         & g.G.R.<XJ.C.v.j.!.~.l.j.C.D.>X<XT.v.8 o       . 6 f.m.m.m.C.H.A.d.IXIXIXIXIXIXIXIX",
"IXIXIXIXIXIXIXIXIXe S.R.D.n.V.J.N.8 o         6 A.K.z.g.f.d.g.!.*XiX(.l.d.k.g.g.A.C.9 o       . 6 d.d.c.c.n.C.H.g.IXIXIXIXIXIXIXIX",
"IXIXIXIXIXIXIXIXIXe K.,XV.n.D.A.j.t : : < 5 < 0 k.z._ 3 q i !.}.*XiX$X{ y q w v i k.9 < 5 m < > 0 d.e h.m.m.n.D.d.IXIXIXIXIXIXIXIX",
"IXIXIXIXIXIXIXIXIXe ^.<XV.n.R.g.Q.m._ A D =.Y v 0 3 C L G .X&X@X}.@X X[.].` Z U c 0 w I :.-.Y ` l.h.e c.n.n.M.D.j.IXIXIXIXIXIXJXIX",
"IXIXIXIXIXIXIXIXIXr K.^.C.n.J.j.d.c.m.v N E I S J x S S #.$X-X=X&X&X%X&X$X%.F S B A A S I Z A !.M.h.r h.V.V.n.F.G.j.r IXIXIXIXHXIX",
"IXIXIXIXIXIXIXIXg.L.J.Z.n.c.j.j.N.n.b.7 : ` $.*.*.+XoXoXaXpXxXlXlXkXpX-X=X$X*.%.%.%.#.%.o.v * j.W.c.h.d.N.D.n.D.G.J.A.r IXIXIXIXIX",
"IXIXIXIXIXIXIXIXg.<XR.M.M.S.e f.B.m.x.; O w '.=XkXlXxXzXvXSXSXcXxXxXpXpX=X=X=X;X@X&X@X{.' O   u A.c.c.j.A.V.c.C.D.R.^.x.,.p.IXIXIX",
"IXIXIXIXIXIXIXIXz.^.H.n.H.<Xj.h.c.x.U.s + O w  .XXlXzXbXSXSXSXcXzXcXlXlX-X-X-X=X&X}. ._ * @ 4 f P.h.n.D.G.N.c.c.D.F.E._.=.p.JXIXIX",
"IXIXIXIXIXIXr A.>XH.M.C.^.>XG.v.x.U.6X8X4 @ X O 2 (.#XiXsXsXaXlXsXlXaX+X#XXX:X|.(.w O X   = 6XMX8Xu v.H.T.V.c.c.V.S.G.1X6.dXAXIXIX",
"IXIXIXIXIXr x.>XG.M.M.^.<XG.T.L.U.yXmXyXs + .   O 1 1 1 2 3 / 6.5.5./ ^ 3 1 1 * * O     @ - eXBXfXe.u L.>XR.V.M.C.{ b ^.bX9XI.IXIX",
"IXIXIXIXr z.^.G.M.C.D.,X<XF.I.U.0XMXBXyXg a p @           % B R ,.-.U l :     .     . - f U.6XtXMXqXf I.Y.<XY.3X>X_ M +.p.y.J IXIX",
"IXIXIXIXj.<XR.M.n.D.D.>X<XG.U.5XwXnXNXMXqXwX6Xf p 4 - .   $ N R Y Y R V :     + = - - 5XrXmXeX0XtXrX7Xa I.,X2XKXjX@.R y.4.7.9.IXIX",
"IXIXIXg.G.1XJ.M.M.H.G.>XR.A.U.8XqXnXNXBXrXeXmXNXnXtX7Xp = 2 J :.T L R T 2 = - f 6X6X6XeXNXBXmXqXrXmX7Xf I.R.2XZXDXdX6.VX/ -.7.0.ZX",
"IXIX9 f.R.<XZ.C.V.H.>X1X_.U.wXwXqXNXBXmXMXNXLXJXBXrXrXeXtXtXuXH D S D e.0XqXeXNXDXMXqXrXNXBXNXrXmXNXyX8Xh P.!.u.gXjX_.1XG S =.0.IX",
"IXIXIXf.R.<XC.M.F.H.<X1X_.U.fXfXfXBXFXmXmXLXJXJXmXqXmXLXJXJXDX9X@.e.t.VXKXJXJXHXLXDXrXqXVXFXBXNXNXBXmXwXf u L.@.BXAX4XM.i { +.D IX",
"IXIXIXd.H.<XZ.Z.J.J.<X,XY.).fXmXnXBXKXBXBXHXJXJXmXqXNXJXKXLXJXKXNXPXAXJXHXHXHXFXFXJXDXeXnXFXDXBXBXBXmX0Xf u T.b.3XAXLX4XE.E.`.r.IX",
"IXIXe f.Z.>XJ.J.1X1X1X,Xx.).MXmXMXBXHXDXDXJXJXJXVXrXDXJXDXDXLXJXGXBXKXJXDXDXHXJXJXJXLXmXtXNXLXDXNXmXtXwXf d ,Xc.C.jXJXZX3XE.3XAXIX",
"IXe j.J.,XJ.H.^.1X1X1XR.x.).nXmXnXBXHXDXDXJXJXJXBXMXFXFXmXmXLXJXBXNXHXJXDXBXHXJXJXJXHXBXnXNXLXDXNXfXqXtXg d <XM.v.jXZXi.ZX3XR.4Xg.",
"IXe A.2X<XG.D.R.1X1XR.T.L.U.tXtXtXBXHXBXBXHXJXJXDXBXLXDXrXtXBXJXNXtXBXJXDXNXHXJXFXFXJXFXBXBXLXDXmXPXnXfXf d ,Xm.+.dXBX@.u.r.{ T.r ",
"IXe L.1XJ.D.V.>X1X1XJ.C.x.g wX0XqXNXFXmXmXFXJXJXLXFXFXBXnX0XrXGXfX6XmXKXBXmXHXKXDXBXJXJXDXDXHXBXmXNXBXwXf u C.n.E i.fXS.@.r.e.1Xf.",
"IXe S.<XD.n.V.J._.^.G.b.j.U.5X0X0XrXNXMXnXNXHXHXJXHXBXBXBXrXqXrX6X5XmXKXNXMXLXJXDXBXHXJXDXDXHXDXNXBXfXg j j i _.y.w.6.S.l.jXbX1Xg.",
"IXe S.<XF.D.G.j.r f.c.m.h.t h 7X6XqXVXmXrXmXFXGXFXLXBXNXBXVXrX7Xf f tXDXnXeXBXLXBXNXKXHXNXVXLXDXBXMX7Xa s.0.6.BXZXi.6.A._ @.2X<Xr ",
"IXe K.<XH.T.j.d.IXIXr d.r IXIX5X8X0XnXNXfXeXBXFXDXNXnXtXeXrX0Xg s a g tXtX0XMXDXNXNXHXFXfXtXDXNXrX6Xf IXIX9.w.i.t.5.<.P.9X`.C.G.d.",
"IXIXj.S.H.j.r IXIXIXIX8 IXIXIXIX5X7X6XtXrXqXrXBXBXmXMXrX6X8Xg s - - - U.7X6XeXMXrXMXGXmXwXqXnX6XU.f IXIXIXIXa.a.1.-.D 3 6X4XC.k.r ",
"IXIXIXf.j.e IXIXIXIXIXIXIXIXIXIXIXa a g 0XeX0X0XrXmXMXtX6Xf - IXIXIXIX= s f 8XwX6X6XeX6X8X6X6Xs - 4 IXIXIXIXJXZXi.1.T V 0 h.j.9 IX",
"IXIXIXIXr IXIXIXIXIXIXIXIXIXIXIXIX. @ p g g g g g U.g f a p +         . . ; s a a a a s s a p + . . IXIXIXIXFXIX9.9.4.E IXIXQ.IXIX",
"IXIXIXIXIXIXIXIXIXIXIXIXIXIXIXIXX X . @ ; ; + ; ; ; + + + @               . @ + + + @ @ @ o o . . $ IXH sXgXq.7.IXw.q.hX6.IXIXIXIX",
"IXIXIXIXIXIXIXIXIXIXIXIXIXIXIXm , , , > > % .                                       X : , , , 5 5 m q.t.sXy.3.7.IXIX6.dX5.IXIXIXIX",
"IXIXIXIXIXIXIXIXIXIXIXIXIXIXU Y ! -.Q Q Y l #                                       # N ! Q -.2.:.:.w.ZXr.M 1.7.IXIXU 7.9.IXIXIXIX",
"IXIXIXIXIXIXIXIXIXIXIXIXIXIXP -.3.7.2.Q K z #                                       $ B >.7.7.3.2.3.8.IXD l D :.U =.IXIXIXIXIXIXIX",
"IXIXIXIXIXIXIXIXIXIXIXIXIXIXL -.7.9.3.-.K z #                                       # N >.7.7.3.2.3.8.8.IXIXl Z =.7.9.IXIXIXIXIXIX",
"IXIXIXIXIXIXIXIXIXIXIXIXIXN L Y -.-.T K L m #                                       # N ! -.-.T -.3.3.8.9.u.sXIX=.1.IXIXIXIXIXIXIX",
"IXIXIXIXIXIXIXIXIXIXIXIXIXV L R R Y Z M M , X                                       X < Z L L U :.3.2.7.0.i.gXIXD IXIXIXIXIXIXIXIX",
"IXIXIXIXIXIXIXIXIXIXIXIXIXV K 1.3.:.R L , X                                           X > L Y :.3.7.2.2.7.7.8.8.IXIXIXIXIXIXIXIXIX",
"IXIXIXIXIXIXIXIXIXIXIXIXV K :.-.R Z N Z , X                                           X , Z N Z U -.2.2.2.7.IX8.IXIXIXIXIXIXIXIXIX",
"IXIXIXIXIXIXIXIXIXIXIXM N Z U U V IXIXIXIXX                                           . IXIXIXIXV Z T U T T IXIXIXIXIXIXIXIXIXIXIX",
"IXIXIXIXIXIXIXIXIXIXIXIXM M M M IXIXIXIXIXIXIX                                        IXIXIXIXIXIXM M M M IXIXIXIXIXIXIXIXIXIXIXIX",
"IXIXIXIXIXIXIXIXIXIXIXIXIXIXIXIXIXIXIXIXIXIXIXIXIXIX                          IXIXIXIXIXIXIXIXIXIXIXIXIXIXIXIXIXIXIXIXIXIXIXIXIXIX"
};
