/* XPM */
static char *result[] = {
/* columns rows colors chars-per-pixel */
"65 65 251 2 ",
"   c #000000",
".  c #0C0C0D",
"X  c #130903",
"o  c #141414",
"O  c #1B1B1B",
"+  c #351601",
"@  c #2B1709",
"#  c #3B3C3D",
"$  c #3F2111",
"%  c #461C01",
"&  c #582501",
"*  c #4F2509",
"=  c #6C3106",
"-  c #792E35",
";  c #785337",
":  c #774B0A",
">  c #3C006D",
",  c #3C0172",
"<  c #76194E",
"1  c #7A284E",
"2  c #580868",
"3  c #420273",
"4  c #47067B",
"5  c #4D0E73",
"6  c #670A6D",
"7  c #533073",
"8  c #74266E",
"9  c #53165B",
"0  c #3B454B",
"q  c #4A4B4B",
"w  c #545555",
"e  c #5B5B5B",
"r  c #535350",
"t  c #6C5449",
"y  c #6F5374",
"u  c #686967",
"i  c #7A7A79",
"p  c #6C6E73",
"a  c #616056",
"s  c #923C04",
"d  c #A43C0B",
"f  c #8D332B",
"g  c #AA3B2B",
"h  c #9A4604",
"j  c #894801",
"k  c #A54500",
"l  c #AA4501",
"z  c #AB4900",
"x  c #A6470A",
"c  c #B34C01",
"v  c #B84A05",
"b  c #B85502",
"n  c #AA4915",
"m  c #B45112",
"M  c #BB6709",
"N  c #B75627",
"B  c #AF4C2F",
"V  c #B5692C",
"C  c #8F5A33",
"Z  c #C75800",
"A  c #D25A0C",
"S  c #C96503",
"D  c #D46201",
"F  c #D76A00",
"G  c #D87900",
"H  c #C36718",
"J  c #D0730B",
"K  c #E86802",
"L  c #F76C03",
"P  c #E87400",
"I  c #FB7701",
"U  c #F66B19",
"Y  c #CC4D2B",
"T  c #DC7030",
"R  c #911453",
"E  c #8E2D54",
"W  c #A9334E",
"Q  c #981B65",
"!  c #8B1C74",
"~  c #9A2269",
"^  c #87326D",
"/  c #A92767",
"(  c #BA3978",
")  c #AF2D6E",
"_  c #C3387A",
"`  c #997B5B",
"'  c #B76748",
"]  c #B7457D",
"[  c #887870",
"{  c #A1625F",
"}  c #C65350",
"|  c #E45847",
" . c #CB6C54",
".. c #F2744E",
"X. c #D05271",
"o. c #D26E70",
"O. c #E2746F",
"+. c #AE822C",
"@. c #DA8605",
"#. c #D49701",
"$. c #D1880C",
"%. c #E68802",
"&. c #F98502",
"*. c #E79702",
"=. c #F89700",
"-. c #F9831A",
";. c #D8B308",
":. c #E9A601",
">. c #E7B204",
",. c #F9B800",
"<. c #FAA500",
"1. c #E7B42D",
"2. c #E59936",
"3. c #F9C900",
"4. c #FCD801",
"5. c #F5C712",
"6. c #F4C638",
"7. c #FAE100",
"8. c #A3876A",
"9. c #CB8A54",
"0. c #E48C4C",
"q. c #F9B24C",
"w. c #EF8C70",
"e. c #EAB072",
"r. c #D59C5F",
"t. c #F5CF4E",
"y. c #F8E56A",
"u. c #38008B",
"i. c #4C0385",
"p. c #4B0587",
"a. c #52088B",
"s. c #541587",
"d. c #550594",
"f. c #58099B",
"g. c #5B1799",
"h. c #4C0C94",
"j. c #670897",
"k. c #621B9A",
"l. c #6F1089",
"z. c #6B2697",
"x. c #5D07A8",
"c. c #5B08B4",
"v. c #4E09A1",
"b. c #620AAB",
"n. c #610AA9",
"m. c #6514AD",
"M. c #6319A4",
"N. c #6A1AB2",
"B. c #6715B2",
"V. c #6B17B6",
"C. c #6922AC",
"Z. c #6C23B4",
"A. c #732BBB",
"S. c #7526B7",
"D. c #7A33B7",
"F. c #742EAB",
"G. c #7E7F81",
"H. c #7D33C1",
"J. c #813BB9",
"K. c #992E95",
"L. c #C73A83",
"P. c #B1538C",
"I. c #9B51AD",
"U. c #CA4786",
"Y. c #D24988",
"T. c #D95996",
"R. c #CB4F90",
"E. c #E35C9A",
"W. c #DA6D8F",
"Q. c #E96D8F",
"!. c #D471A8",
"~. c #EA68A5",
"^. c #F469A9",
"/. c #E877AB",
"(. c #FA72B2",
"). c #F87AB5",
"_. c #EC74B2",
"`. c #E75BA4",
"'. c #843BC2",
"]. c #934BCA",
"[. c #8B43C5",
"{. c #F87FCB",
"}. c #7A8083",
"|. c #888988",
" X c #989999",
".X c #8F8F92",
"XX c #B391B3",
"oX c #A4A4A4",
"OX c #ACACAC",
"+X c #A6A7AA",
"@X c #B3B3B3",
"#X c #BBBBBB",
"$X c #B7B8B8",
"%X c #ACB3B1",
"&X c #A89D9A",
"*X c #D68C8D",
"=X c #D28EB3",
"-X c #EC88B8",
";X c #F98CBC",
":X c #F687B9",
">X c #F794BD",
",X c #D9A3BE",
"<X c #F598AD",
"1X c #FBCD98",
"2X c #FAE9AF",
"3X c #EFDEA0",
"4X c #B1BBE2",
"5X c #FA9BC5",
"6X c #F797C4",
"7X c #F68CCA",
"8X c #F9A2CA",
"9X c #F7A8CB",
"0X c #F9ABD2",
"qX c #F7B8D6",
"wX c #EDABC7",
"eX c #FFAEE3",
"rX c #D3A2D5",
"tX c #BDC8C7",
"yX c #AAD5F9",
"uX c #B7DAF7",
"iX c #B7E2F9",
"pX c #C5C5C5",
"aX c #CCCCCC",
"sX c #D4D4D4",
"dX c #DCDCDC",
"fX c #CBD0D1",
"gX c #F8C5DD",
"hX c #F9F8D8",
"jX c #F2F0CA",
"kX c #D8DAEB",
"lX c #C8D2E9",
"zX c #F0D4E6",
"xX c #C8E6F8",
"cX c #D1ECF8",
"vX c #DBEDF9",
"bX c #D5E8F4",
"nX c #DDF4F8",
"mX c #DBF7FA",
"MX c #CCF1F9",
"NX c #E4E4E5",
"BX c #ECECEC",
"VX c #E2EBEF",
"CX c #ECF4F8",
"ZX c #EDFAFA",
"AX c #E3F5F8",
"SX c #F4F4F4",
"DX c #FBFBFB",
"FX c #F4F8F8",
"GX c #F7F3E9",
"HX c #D7E0DB",
"JX c None",
/* pixels */
"JXJXJXJXJXJXJXJXJXJXJXJXJXJXJXJXJXJXJXJXJXJXJXJXJXJXJXJXJXJXJXJXJXJXJXJXJXJXJXJXJXJXJXJXJXJXJXJXJXJXJXJXJXJXJXJXJXJXJXJXJXJXJXJXJX",
"JXJXJXJXJXJXJXJXJXJXJXJXJXJXJXJXJXJXJXJXJXJXJXJXJXJXJXJXJXJXJXJXJXJXJXJXJXJXJXJXJXJXJXJXJXJXJXJXhXJXJXJXJXJXJXJXJXJXJXJXJXJXJXJXJX",
"JXJXJXJXJXJXJXJXJXJXJXJXJXJXJXJXJXz JXJXJXJXJXJXJXJXJXJXJXJXJXJXJXJXJXJXJXJXJXJXJXJXJXJXJXJXJXJXJXJXJXJXJXJXJXJXJXJXJXJXJXJXJXJXJX",
"JXJXJXJXJXJXJXJXJXJXJXJXJXJXJXJXJXJXJXJXJXJXJXJXJXJXJXJXJXJXJXJXJXJXJXJXJXJXJXJXJXJXJXJXJXJXJXJXJXJXJXJXJXJXJXJXJXJXJXJXJXJXJXJXJX",
"JXJXJXJXJXJXJXJXJXJXJXJXJXJXJXJXJXJXJXJXJXJXJXJXJXJXJXJXJXJXJXJXJXJXJXJXJXJXJXJXJXJXJXJXJXJXJXz JXJXJXJXJXJXJXJXJXJXJXJXJXJXJXJXJX",
"JXJXJXJXJXJXJXJXJXJXJXJXJXJXJXJXJXz JXJXJXJXJXJXJXJXJXJXJXJXJXJXJXJXJXJXJXJXJXJXJXJXJXJXJXJXJXz JXJXJXJXJXJXJXJXJXJXJXJXJXJXJXJXJX",
"JXJXJXJXJXJXJXJXJXJXJXJXJXJXJXJXJXJXJXJXJXJXJXJXJXJXJXJXJXnXAXJXJXJXJXJXJXJXJXJXJXJXJXJXJXJXJXz k JXJXJXJXJXJXJXJXJXJXJXJXJXJXJXJX",
"JXJXJXJXJXJXJXJXJXJXJXJX=.&.JXJXJXJXJXJXJXJXJXJXJXJXJXJXAXnXmXAXJXJXJXJXJXJXJXJXJXJXJXJXJXJXJXJXc K JXJXJXJXJXJXJXJXJXJXJXJXJXJXJX",
"JXJXJXJXJXJXJXJXJXJXJXJXZ K D JXJXJXJXJXJXJXJXJXJXJXJXnXCXCXCXCXcXJXJXJXJXJXJXJXJXJXJXJXJXJXJXJXJXK JXJXJXJXJXJXJXJXJXJXJXJXJXJXJX",
"JXJXJXJXJXJXJXJXJXJXJXl z z JXJXJXJXJXJXJXJXJXJXJXJXAXFXFXCXSXCXxXyXJXJXJXJXJXnXcXmXmXAXJXJXJXJXJXJXJXJXJXJXJXJXJXJXJXJXJXJXJXJXJX",
"JXJXJXJXJXJXJXJXJXJXJXJXJXJXJXJXJXJXJXJXJXJXJXJXJXJXAXFXAXxXxXiXyXyXJXJXJXJXxXcXmXcXnXAXmXJXJXJXJXJXJXJXJXJXJXJXJXJXJXJXJXJXJXJXJX",
"JXJXJXJXJXJXJXJXJXJXJXJXJXJXJXJXz JXJXJXJXJXJXJXJXJXJXFXJXJXxXyXJX4XJXJXXXMXMXnXnXcXAXZXAXmXJXJXJXJXJXJXJXJXJXJXJXJXJXJXJXJXJXJXJX",
"JXJXJXJXJXJXJXJXJXJXJXJXJXJXJXJXJXJXJXJXJXJXJXJXJXJXJXJXJXJXvXcXJXJXJX( =XmXmXcXnXCXCXZXZXnXbXhXJXJXJXJXJXJXJXJXJXJXJXJXJXJXJXJXJX",
"JXJXJXJXJXJXJXJXJXJXJXJXJXJXJXJXJXJXJXJXJXJXJXJXJXJXJXJXJXJXxXuXJXJXJX( XXMXcXJXZXZXZXFXAXxXcXJXJXJXJXJXJXJXJXJXJXJXJXJXJXJXJXJXJX",
"JXJXJXJXJXJXJXJXJXJXJXJXJXJXJXJXJXJXJXJXJXJXJXJXJXJXJXJXJXJXxXuXJXJXJXU.!.XXJXJXvXZXFXCXcXiXuXJXJXJXJXJXJXJXJXJXJXJXJXJXJXJXJXJXJX",
"JXJXJXJXJXJXJXJXJXJXJXJXJXJXJXJXJXJXJXJXJXJXJXJXJXJXJXJXJXJXMXiXJXJXT.-XP.R JXJXxXZXCXbXxXuXJXJXJXJXJXJXJXJXJXJXJXJXJXJXJXJXJXJXJX",
"JXJXJXJXJXJXJXJXJXJXJXGXt.JXJXJXJXJXJXJXJXxXvXcXuXJXJXJXJXJXuXJXJXT.>X/.P.JXJXyXuXJXJXyXuXJXJXJXJXJXJXy.DXJXJXJXJXJXJXJXJXJXJXJXJX",
"JXJXJXJXJXJXJXJXJXJXJXhXy.JXJXJXl JXJXJXJXbXCXCXxXyXJXJXJXJXlXJXY.-X-X_ JXJXvXuXyXJXJXyXJXJXJXJXJXJXJXJXDXJXJXJXJXJXJXJXJXJXJXJXJX",
"JXJXJXJXJXJXJXJXJXJX3.2XJXJXJXJXk JXJXJXSXxXvXCXJXyXJXJXJXJX,XT././.P.JXJXxXnXvXuXlXJXJXJXJXJXJXJXJXJXJXJXJXJXJXJXJXJXJXJXJXJXJXJX",
"JXJXJXJXJXJXJXJXJXJX&.JXJXJXJXJXJXJXJXJXDXFXCXJXvXJXJXJXJXJXT._.-X] JXJXFXvXxXuXJXJXJXJXJXJXJXJXJXJXJXJXJXJXJXJXJXJXJXJXJXJXJXJXJX",
"JXJXJXJXJXJXJXJXJXJXJXJXJXJXJXJXJXk JXJXJXDXFXJXxXvXxXI.) ( T.;X/./ R ,XZXxXyXJXJXJXJXJXJXJXJXhXJXJXJXJXJXJXJXJXJXJXJXJXJXJXJXJXJX",
"JXJXJXJXJXJXJXJXJXJXJXJXJXJXJXJXJXk JXJXJXJXJXJXZXZXuX!.E.T.~.;X/./ / wXMXyXJXJXJXJXJXJXJXJXJXJXjXJXJXJXJXJXJXJXJXJXJXJXJXJXJXJXJX",
"JXJXJXJXJXJXJXJXJXJXJXJXJXJXJXJXJXz JXJXJXJXJXJX=XwXkXlX-X_.:X-XY._ =XkX4XP.JXJXJXJXJXJXJXJXJXN w.2XJXJXJXJXJXJXJXJXJXJXJXJXJXJXJX",
"JXJXJXJXJXJXJXJXJXJXJXJXJXJX2Xe.JXJXJXJXJXJXJX2 ( E.8XbXzX9X5X~.Y.!.dXlX!./ R JXJXJXJXJXJXJXJXc 2.1XJXJXJXJXJXJXJXJXJXJXJXJXJXJXJX",
"JXJXJXJXJXJXJXJXJXJXJXJXJX1X2XhXJXJXJXJXu.2 2 ! L.^.).0XSXzX5X^./.zXkX-X`.U.~ 6 2 4 JXJXJXJXz JXJX1XqXJXJXJXJXJXJXJXJXJXJXJXJXJXJX",
"JXJXJXJXJXJXJXJXJXJXJXJX7Xq.y.hXpXJXf < s.K.( P.^.).).;XqXgX5X).>XgX6X^.(.(.R.Q Q l.4 , JXJXd JXJXJXJXqXJXJXJXJXJXJXJXJXJXJXJXJXJX",
"JXJXJXJXJXJXJXJXJXJXJXJX7XJXJX3X2.7 l.f W T.T.T.).>X5X5X5X5X8X5X>X).(.(.(.).T.) _ ~ 4 h.d.9 JXJXJXJXJXJXJXJXJXJXJXJXJXJXJXJXJXJXJX",
"JXJXJXJXJXJXJXJXJXJXJXJXJXJXJX5.H k.A.B x o.^.).>X5X8X8X>X6X5X9X6X^.^.(.(.(.^.Y._ Q l.N.^ f JXJXJXJXJXJXJXJXJXJXJXJXJXJXJXJXJXJXJX",
"JXJXJXJXJXJXJXJXJXJXJXJXJXJXI &.Y 8 E ^ f N /.5X9X9X8X/.R.T.-X5X/.U.Y.^.(.(.(.`./ R K.8 n f , , 3 JXJXJXJXJXJXJXJXJXJXJXJXJXJXJXJX",
"JXJXJXJXJXJXJXJXJXJXJXJXJXJXN K v f ^ d.! g o.9X8X:X).^.U.) T./.U.) U.T.E.`.(.^._ Q E E 8 E f 1 a.4 JXJXJXJXJXJXJXJXJXJXJXJXJXJXJX",
"JXJXJXJXJXJXJXJXJXJXJXJXJXg.8 N M - h.1 ] d  .0X8X6X5X5X_.Y.T.~.Y.T./.~.~.~.^.^.Y.Q g B z.s.f $.E i.p.i.JXJXJXJXJXJXJXJXJXJXJXJXJX",
"JXJXJXJXJXJXJXJXJXJXJXJXs.F.c.{ ;.` 1 A W E ' o.Q.qXzXqX>X:X_.~.).;X;X>X:X_.~.E.) f n F H 1 C #.m j.c.d.4 JXJXJXJXJXJXJXJXJXJXJXJX",
"JXJXJXJXJXJXJXJXJXJXJXs.F.S.c.~ 1.5.*.I g < W }  .=XqX0X5X<X!.T./.6X;X:X:X).^.X.m m z D I *.:.c x ^ j.x.d.3 JXJXJXJXJXJXJXJXJXJXJX",
"JXJXJXJXJXJXJXJXJXJXs.F.V.c.j.Q O.t.5.&.U Y ) T.r.T *X8X0X-X!.!.!.-X7X(.(.).O.H K P Z D <.4.1.v x f l.c.b.d.p.JXJXJXJXJXJXJXJXJXJX",
"JXJXJXJXJXJXJXJXJXs.S.S.B.b.l./ T.w.5.&.L K }  .1.>.V O.8X6X>X5X-X;X:X^.E.w.>.<.I L L L =.1.w.n g 8 N.Z.N.m.M.4 JXJXJXJXJXJXJXJXJX",
"JXJXJXJXJXJXJXJXs.F.'.N.V.B.l./ T...&.I L I P >.4.5.M N *X6X8X9X9X;X^. .B 2.7.3.I K P I &.-...X.W j.v.k.A.m.m.M.4 JXJXJXJXJXJXJXJX",
"JXJXJXJXJXJXJXs.J.].B.S.N.c.l.) X.U L L L &.3.4.7.,.J 9.9.o.6XwX6X/.o.9.9.G 4.4.;.j c I L L L | Q j.d.M.A.m.p.m.M.4 JXJXJXJXJXJXJX",
"JXJXJXJXJXJXs.F.J.S.a.N.B.d.6 ) X.| w...| 2.4.4.3.#.S 0.1X9.X.P.X.} r.e.2.Z :.4.;.: g | U I I L R j.c.N.D.D.g.x.N.g.s.JXJXJXJXJXJX",
"JXJXJXJXJXs.F.S.Z.m.a.C.V.i.2 / Y.R.6X-X_. .1.6.*.F J %.t.2.B ] / B q.t.@.S P 4.3.V X._.Q.....| W j.x.V.H.H.Z.d.x.N.g.4 JXJXJXJXJX",
"JXJXJXJXs.S.S.D.'.b.x.N.B.i.2 / T._.;X5XeX' 9.e.N F =.,.4.#.} -XE.N ;.4.,.&.P >.>.H W.0X8X:X(.Y.Q j.x.B.A.A.F.a.x.x.m.C.4 JXJXJXJX",
"JXJXJX> F.S.S.].'.x.n.b.n.i.2 ~ Y.E.(.6XwX' J $.b Z K =.,.$.B E.Y.m #.,.&.K b S %.H o.wX6X~.T._ ! j.x.m.A.H.[.C.f.n.b.B.g.4 JXJXJX",
"JXJXJX5 D.S.S.].D.4 M.m.i., > 2 / L.Y.T.} n D G c c D L P b X.(./.} S P K Z z b P b B o.T.U.L.! j.x.x.Z.A.D.D.A.i.d.n.b.B.M.4 JXJX",
"JXJX3 F.S.B.J.'.k.4 n.i.3 > , > 2 ~ / _ g c A Z z h h l k ' *X>X5XO.N l l h h b D Z l W L.~ ~ j.b.b.x.N.A.C.g.Z.f.4 f.b.B.A.g.3 JX",
"JXJX3 [.N.S.].'.m.f.x.4 > 3 3 > 5 y &X] B m m v s % + + + f 0.q.q...N & + + & h c c m g ] [ y 7 x.b.x.x.C.A.z.s.N.4 a.b.n.Z.Z.3 JX",
"JXJX3 D.N.J.].J.A.b.a.JXJX, > 5 y  XtXXX*X8.` C $ . .     & Z @.*.S h %     X + * t 8.[ &XOXoXu 7 g.f.i.a.k.z.3 Z.f.i.d.n.b.Z.3 JX",
"JXJXJXz.n.S.'.J.m.a.JXJXJXJX> 7 }.oX#XdXVXtX%X.Xp e q O   & M G D S z %   o # 0 w  XfXfXOX$XsX|.w 5 4 JXJXJXJXJXg.N.i.i.b.m.C.3 JX",
"JXJXJXJXi.n.V.B.f.JXJXJXJXJXJXy .XoXpXsXsX#XtXCXBXaX@Xi w t +.@.M J V a q i $X#X%XpXsXdXpX$XsXOXu 7 JXJXJXJXJXJXJXg.i.a.b.m.C.3 JX",
"JXJXJXJXJXi.n.b.d.JXJXJXJXJXJX X#X%XaXNXaXaXVXDXNX@X@XdXDXVX&XV N V &XHXBXBXBXdX@X@XsXkXsXaXsXpXoXu JXJXJXJXJXJXJXJX, a.b.N.Z.3 JX",
"JXJXJXJXJXJXa.d.3 JXJXJXJXJXJX XaXaXsXGXsXdXSXDXNX@XaXSXFXFXSXaX@XaXSXSXSXBXNXSXsX@XsXBXsXdXdXfX Xa JXJXJXJXJXJXJXJX, d.N.A.M., JX",
"JXJXJXJXJXJXJX3 JXJXJXJXJXJXJX XfXaXsXSXNXNXDXDXNX#XdXDXNXBXDXBXdXSXDXNXBXDXSXDXSXpX#XNXBXsXsX#XoXu JXJXJXJXJXJXJX4 f.V.A.N.3 JXJX",
"JXJXJXJXJXJXJXJXJXJXJXJXJXJXJX XaXpXsXSXNXBXFXDXBXaXNXBXtXHXDXBXsXBXDXNXNXDXFXDXSXdXpXNXBXdXaX@XOXp JXJXJXJXJXJX3 a.N.A.A.g.> JXJX",
"JXJXJXJXJXJXJXJXJXJXJXJXJXJXJX X#X@XaXSXsXdXFXDXBXdXBXNX$X,XBXNX#XsXSXdXdXDXBXBXSXBXdXNXBXaXpXaX,Xp JXJXJXJXJXJXJXp.s.s.s.s.JXJXJX",
"JXJXJXJXJXJXJXJXJXJXJXJXJXJXJX.XoXoXpXNXaXsXBXDXSXBXBXdXpXOXfXpX&XtXhXHXdXDXBXdXSXDXNXBXBXsXsXsX Xa JXJXJXJXJXJXJXJXJXJXJXJXJXJXJX",
"JXJXJXJXJXJXJXJXJXJXJXJXJXJXJX}..X&XOXaXpX#XdXSXSXSXdXsXsX#XpXOXI.%XNXaXaXSXBXdXSXFXdXNXBXdXdX@Xp r JXJXJXJXJXJXJXJXJXJXJXJXJXJXJX",
"JXJXJXJXJXJXJXJXJXJXJXJXJXJXJXJX[ .XoXpXaX#XaXNXBXNXsXpXpXpXaX.Xu OXHX%X@XdXdXfXGXBXpXfXNXaX$XG.w JXJXJXJXJXJXJXJXJXJXJXJXJXJXJXJX",
"JXJXJXJXJXJXJXJXJXJXJXJXJXJXJXJXJX[ .X+XpX$X@XsXNXaXpXOX XOXoXu a  XaX%XoXpXaXaXNXsXOX#XpX Xi t JXJXJXJXJXJXJXJXJXJXJXJXJXJXJXJXJX",
"JXJXJXJXJXJXJXJXJXJXJXJXJXJXJXJXD J ` [ .XOXOX+X#XfXfX#X.X|.i r # e  X XG.oXOX+XtXoX XoX|.t ; h JXJXJXJXJXJXJXJXJXJXJXJXJXJXJXJXJX",
"JXJXJXJXJXJXJXJXJXJXJXJXJXJXJXJXF :.5.:.+.i i i i }.[ u w e # .   o # e r e w w e e e e +.%.b z JXJXJXJXJXJXJXJXJXJXJXJXJXJXJXJXJX",
"JXJXJXJXJXJXJXJXJXJXJXJXJXJXJXJXF <.3.3.$.N = O O o o o . . .       . o o . . . @ h $.;.;.*.Z z JXJXJXJXJXJXJXJXJXJXJXJXJXJXJXJXJX",
"JXJXJXJXJXJXJXJXJXJXJXJXJXJXJXc D G @.S M A = X                                 @ z I %.G b z z k JXJXJXJXJXJXJXJXJXJXJXJXJXJXJXJX",
"JXJXJXJXJXJXJXJXJXJXJXJXJXJXJXc D *.%.S z s + X                                 X & k Z S @.#.b z JXJXJXJXJXJXJXJXJXJXJXJXJXJXJXJX",
"JXJXJXJXJXJXJXJXJXJXJXJXJXJXz S %.:.@.S b %                                       X = Z S *.:.P Z z JXJXJXJXJXJXJXJXJXJXJXJXJXJXJX",
"JXJXJXJXJXJXJXJXJXJXJXJXJXk c F @.Z k k c &                                       X = b k z S %.S z JXJXJXJXJXJXJXJXJXJXJXJXJXJXJX",
"JXJXJXJXJXJXJXJXJXJXJXJXJXJXk k k l JXJXJXJXJX                                    JXJXJXJXJXk k k z JXJXJXJXJXJXJXJXJXJXJXJXJXJXJX",
"JXJXJXJXJXJXJXJXJXJXJXJXJXJXJXJXJXJXJXJXJXJXJXJXJXJX                        JXJXJXJXJXJXJXJXJXJXJXJXJXJXJXJXJXJXJXJXJXJXJXJXJXJXJX"
};
