/* XPM */
static char *result[] = {
/* columns rows colors chars-per-pixel */
"65 65 230 2 ",
"   c #000000",
".  c #0D0D0D",
"X  c #1F0E00",
"o  c #3B1900",
"O  c #2C0812",
"+  c #242526",
"@  c #2F3233",
"#  c #3D023A",
"$  c #502600",
"%  c #763200",
"&  c #6F2B07",
"*  c #551627",
"=  c #671F30",
"-  c #72242F",
";  c #734B30",
":  c #3E006C",
">  c #3D0072",
",  c #6C1350",
"<  c #40006F",
"1  c #460661",
"2  c #410071",
"3  c #440279",
"4  c #4D0C7E",
"5  c #590667",
"6  c #6F0F6D",
"7  c #4A075F",
"8  c #4B4C4C",
"9  c #454646",
"0  c #595A5A",
"q  c #564C45",
"w  c #625848",
"e  c #696969",
"r  c #757575",
"t  c gray49",
"y  c #78716D",
"u  c #893D03",
"i  c #923A1A",
"p  c #8C2D2D",
"a  c #AC3335",
"s  c #AF3F11",
"d  c #A64600",
"f  c #AA4A00",
"g  c #B64F00",
"h  c #BA5200",
"j  c #B65302",
"k  c #B7550E",
"l  c #B4452A",
"z  c #A9562B",
"x  c #B96B2E",
"c  c #A26727",
"v  c #C75900",
"b  c #CB580D",
"n  c #CA6700",
"m  c #DA6100",
"M  c #D36600",
"N  c #C77904",
"B  c #DB7500",
"V  c #CA611E",
"C  c #E07604",
"Z  c #E36800",
"A  c #C74D30",
"S  c #971756",
"D  c #891156",
"F  c #87325D",
"G  c #AB2A58",
"H  c #871A74",
"J  c #94296D",
"K  c #A92869",
"L  c #B22C6D",
"P  c #A7306B",
"I  c #BA3575",
"U  c #B9377A",
"Y  c #AE3275",
"T  c #A41A5B",
"R  c #C43C7D",
"E  c #C5377A",
"W  c #AD6B4D",
"Q  c #9A4E75",
"!  c #B2487F",
"~  c #916D60",
"^  c #C54E4F",
"/  c #C66143",
"(  c #CE765E",
")  c #C1427D",
"_  c #D3576B",
"`  c #CD6C6A",
"'  c #CC8905",
"]  c #E58A00",
"[  c #F78400",
"{  c #EE9200",
"}  c #F3AA00",
"|  c #F7B700",
" . c #EBAA00",
".. c #C8873E",
"X. c #FACF00",
"o. c #A58764",
"O. c #E49C54",
"+. c #DDAE5F",
"@. c #CA8565",
"#. c #DDAC6F",
"$. c #CD9942",
"%. c #FFCF52",
"&. c #4C0286",
"*. c #4E038A",
"=. c #480485",
"-. c #51048D",
";. c #520F87",
":. c #530592",
">. c #560996",
",. c #581497",
"<. c #55128F",
"1. c #67239B",
"2. c #5F07A6",
"3. c #5F08A6",
"4. c #5F05A9",
"5. c #5F18A0",
"6. c #6007A8",
"7. c #6109A9",
"8. c #6008A7",
"9. c #6614AE",
"0. c #6217A4",
"q. c #6A1BB2",
"w. c #6818B2",
"e. c #711FB4",
"r. c #722BA9",
"t. c #6F26B6",
"y. c #6F26B8",
"u. c #7129B9",
"i. c #7426B8",
"p. c #7D36BC",
"a. c #7630AB",
"s. c #651C9F",
"d. c #B53A82",
"f. c #801F92",
"g. c #C73F80",
"h. c #B25093",
"j. c #A76AA4",
"k. c #A45F8E",
"l. c #C64483",
"z. c #D24B8C",
"x. c #DA5996",
"c. c #C75892",
"v. c #E35C9C",
"b. c #D4679B",
"n. c #DC6F84",
"m. c #E66697",
"M. c #E75CA2",
"N. c #D97AAB",
"B. c #D37EAF",
"V. c #E969A4",
"C. c #F46BAA",
"Z. c #E575A9",
"A. c #F076AD",
"S. c #FA72B2",
"D. c #F57BB3",
"F. c #F577B1",
"G. c #8D43C7",
"H. c #7F8280",
"J. c #878887",
"K. c #9B9B9B",
"L. c #949494",
"P. c #938F8A",
"I. c #B286B6",
"U. c #A4A5A5",
"Y. c #ABACAB",
"T. c #A5A7A9",
"R. c #B3B3B3",
"E. c #BCBCBC",
"W. c #B4B7B9",
"Q. c #AEB2B1",
"!. c #9DA4A1",
"~. c #F29595",
"^. c #CB8DB0",
"/. c #EA89B8",
"(. c #FA8CBD",
"). c #F587B8",
"_. c #EA91AE",
"`. c #F9AE8F",
"'. c #B7A7CD",
"]. c #B8BDEB",
"[. c #C699C6",
"{. c #F99AC5",
"}. c #F895C2",
"|. c #FD89C2",
" X c #C4AFCC",
".X c #FAA3CA",
"XX c #F8A9CD",
"oX c #FCA8D2",
"OX c #F9B5D5",
"+X c #EBAFD1",
"@X c #A6CEF8",
"#X c #AAD1F8",
"$X c #A7D0F8",
"%X c #B1D7F8",
"&X c #B5D9F8",
"*X c #BBDDF8",
"=X c #BEE1F9",
"-X c #B4EAFF",
";X c #BFC0C0",
":X c #C4C4C4",
">X c #CBCBCB",
",X c #D4D4D4",
"<X c #DCDCDC",
"1X c #D7DBDE",
"2X c #CFC6D5",
"3X c #CFD8ED",
"4X c #EACFE6",
"5X c #C4E4F8",
"6X c #C8E6F8",
"7X c #C7E8F8",
"8X c #CBEAF8",
"9X c #D3EEF8",
"0X c #DBEDF8",
"qX c #D3E6F8",
"wX c #D6F1F8",
"eX c #DBF4F8",
"rX c #DFF8F8",
"tX c #E4E4E4",
"yX c #EBEBEB",
"uX c #E2EEF8",
"iX c #EEEFF0",
"pX c #E3F4F8",
"aX c #EBF5F8",
"sX c #E2F8F8",
"dX c #EBF8F8",
"fX c #F4F4F4",
"gX c #F3F6F8",
"hX c #F4F8F8",
"jX c #F9F9F9",
"kX c None",
/* pixels */
"kXkXkXkXkXkXkXkXkXkXkXkXkXkXkXkXkXkXkXkXkXkXkXkXkXkXkXkXkXkXkXkXkXkXkXkXkXkXkXkXkXkXkXkXkXkXkXkXkXkXkXkXkXkXkXkXkXkXkXkXkXkXkXkXkX",
"kXkXkXkXkXkXkXkXkXkXkXkXkXkXkXkXkX8X8X8XkXkXkXrXsXrXkXkXkXkXkXkXkXkXwX6XkXkXkXkXkXkXkXkXkXkXkXkXkXkXkXkXkXkXkXkXkXkXkXkXkXkXkXkXkX",
"kXkXkXkXkXkXkXkXkXkXkXkXkXkXkXkXrXeXeX9X8XkXsXsXrXrXrXsX5X@XkXkXkX5XsXeX7X8XkXkXsXeX8X6XkXkXkX#X#X#XkXkXkXkXkXkXkXkXkXkXkXkXkXkXkX",
"kXkXkXkXkXkXkXkXkXkXsXsXsXkXkXsXrXhXjXhX9X5XeXeXrXrXwX8X8X&X@X@X5XsXdXdXwX9XrXdXjXdXwX6X5XkXsXeXwX5X#XkXkXkXkXkXkXkXkXkXkXkXkXkXkX",
"kXkXkXkXkXkXkXkXkXrXhXjXhXsXsXsXdXsXjXjXwX%X=XeXsX9X9XsX9X6X&X5XsXdXjXdXwX7X8XdXjXjXhX0X6X0XjXdXsXwX=X$XkXkX#X$XkXkXkXkXkXkXkXkXkX",
"kXkXkXkXkXkXkXkXsXhXjXjXjXhXsX9XeXhXsXjX9X%X8XsX9XpXjXsXrX9X&XqXdXdXjXdXwX5X9XdXjX0X5XgXpX9XjXjXhXwX=X$XkX#X$X$X#XkXkXkXkXkXkXkXkX",
"kXkXkXkXkXkXkXkXrXhXjXsXsXsX9XwXrXsXhX0X8X%X8XhXhXjXjXjXeX9X8X0XdXsXwXwX9X=X=XdXfXpXfXjXuX9XjXjXsXeX5X$X#X#X#X#X@X#XkXkXkXkXkXkXkX",
"kXkXkXkXkXkXkXkXsXsXsXhXjXjXsX8XeXrXrXfX*X8XdXjXhXjXjXjXaXrXsXwXeXsXrXrX7X=XrXdX0X5XjXaX9X9X*XsXrX8X7X=X#X5X5X5X5X$XkXkXkXkXkXkXkX",
"kXkXkXkXkXkXkXkXkXsXsXsXsXhXsX8X8XeXsX9X9XeXhX0XaXjXjXdXsXrXrXrXrXrXdXjXsXrX8X5XuXjX0X%X%X&X6X8X8X6X8XeXeXwX8X6X5XkXkXkXkXkXkXkXkX",
"kXkXkXkXkXkXkXkXrXrXhX9XrXsX9XeXaXsXsXeXsXsX9X8X8XeXsXsXsXwXwXrXaXhXhXjXjXdXrX9XwX9X*X0X6X&XwX7X8X8XrXsXhXrXrXeX7X8XkXkXkXkXkXkXkX",
"kXkXkXkXkXkXsXrXsXrXhXaX9XeX8XaXjXjXhXjXhXsXeXaX0XwXsXsXwX7XwXdXjXfXjXjXjXhXrXwX6X0XhX0X*XrX9X9XaXrXsXjXjXuX&XsXwX8X#XkXkXkXkXkXkX",
"kXkXkXkXkXkXrXrXhXsXsXjXhX9XwXhXjXsXhXdXhXdXwXeXrX9X8X8X8X&X7XdXjXjXjXjXuXuXsX8X*X&XpXfXuX8X9XjXjXaXsXjXjXjXuX&XeX5X#XkXkXkXkXkXkX",
"kXkXkXkXkXsXrXhXjXjX9XsXjXpX8XhXjXhXsXdX0XeXrXsXrXrX=X*X*X&XwXsXdXuX0XeX9XeX8X6X=X#X*X9XqX8XsXjXhX9XsXjXjXaX*X9X&X5X#XkXkXkXkXkXkX",
"kXkXkXkXkXsXhXhXjXjXeXsX9XeX8XaXdXjXjXdXrXrX9XsXeX=X#X#X*X5XwXrXsXdXeX0XpX6X9XwX*X@X$X%X%X&X0XhX9XeXeXdXrX*X9X&XwX5X#XkXkXkXkXkXkX",
"kXkXkXkXkXsXjXjXjXjX9XeXrX8XeX9XaXsXsX9XeX*X8XeX*X#X#X#X#X=X8X8XwXsXaXpX9X9X8X5X=X5X$X$X@X%X9XsXeX9XsXeX8X9X8X=X&X#X@XkXkXkXkXkXkX",
"kXkXkXkXkXrXsXjXfXpXrX8XrXrX*XuX0XaX0XwX5X6X8X*X6X*X$X#X$X#X5X8X8XeXeX8X8X5X%XkX5X0X@X$X$XkX8X8X8XpXdXsXwX9XeX5X#X=X#XkXkXkXkXkXkX",
"kXkXkXkXkXkXsXsXsXhXsXeX9X=XkX*XuXjXpXeXwX8XeX&X#XkX#X#XkX@X#X%X*X8X8X5X8XkXkXkXqX5X6X@X#XkXkX*XwXdX9X9XwX&X8X7X5X5X#XkXkXkXkXkXkX",
"kXkXkXkXkXkXsXsXhX0XeXwX&X#XkXkX*XaX0XaXeXeX5X6X*X@XkXkXkXkX@X*X8X7X8X8XkXkXkXqX5X8X&X@XkXkXkXkX*X0XiXpX8X=X%X&X6X%XkXkXkXkXkXkXkX",
"kXkXkXkXkXkXkXkXsXeX5X&XkXkXkXkXkX*X&X5X&X&XqXsXeX&XkXkXkXkX$X%X5X8XkXkXkXkXkX5XeX9X@XkXkXkXkXkXkX*X9X9X5X7X5X*X%XkXkXkXkXkXkXkXkX",
"kXkXkXkXkXkXkXkXkXkXkXkXkXkXkXkXkXkXkXkXkXkXgXqXwX5XkXkXkXkX@X=X9XkXkXkXkXkX5XpX9X%X$XkXkXkXkXkXkXkX%X&X&X%X&XkXkXkXkXkXkXkXkXkXkX",
"kXkXkXkXkXkXkXkXkXkXkXkXkXkXkXkXkXkXkXkXkXkXkXuX5X5X*XkXkXkXkX6XkXkXkXkXkXkXaX0X%X@XkXkXkXkXkXkXkXkXkXkXkXkXkXkXkXkXkXkXkXkXkXkXkX",
"kXkXkXkXkXkXkXkXkXkXkXkXkXkXkXkXkXkXkXkXkXkXkXjXaXeX5XkXkXkXkX&XkXkXkXkXkXkX9X8X@XkXkXkXkXkXkXkXkXkXkXkXkXkXkXkXkXkXkXkXkXkXkXkXkX",
"kXkXkXkXkXkXkXkXkXkXkXkXkXkXkXkXkXkXkXkXkXkXkXkXqX0X5X@XkXkXkX-X[.L U I ^.sX8X&XkXkXkXkXkXkXkXkXkXkXkXkXkXkXkXkXkXkXkXkXkXkXkXkXkX",
"kXkXkXkXkXkXkXkXkXkXkXkXkXkXkXkXkXkXkXkXkXkXkXkXkX&X6X*XkXkXkX'.b.v.z.K B.pX&X@XkXkXkXkXkXkXkXkXkX: : : : : kXkXkXkXkXkXkXkXkXkXkX",
"kXkXkXkXkXkXkXkXkXkXkXkXkXkXkXkXkXkXkXkXkXkXkXkXkXuXgX6XkXkXkXc.A.b.I k. XwX@XkXkXkXkXkXkXkXkXkX4 r.r.>.0.5.,.< kXkXkXkXkXkXkXkXkX",
"kXkXkXkXkXkXkXkXkXkXkXkXkXkXkXkXkXkXkXkXkXkXkXkXkXkX0XqX=Xj.g.M.(.c.D I.eX-XkXkXkXkXkXkXkXkXkX4 a.G.t.q.u.u.t.,.-.kXkXkXkXkXkXkXkX",
"kXkXkXkXkXkXkXkXkXkXkXkXkXkXkXkXkXkXkXkXkXkXkXkXkXkXj.+X8X[.x.Z.}.l.! 2X'.k.kXkXkXkXkXkXkXkX4 a.G.e.t.t.u.u.u.y.3.*.kXkXkXkXkXkXkX",
"kXkXkXkXkXkXkXkXkXkXkXkXkXkXkXkXkXkXkXkXkXkXkXkXkXkXU [.9X+XF./.Z.R ^.-Xj.T kXkXkXkXkXkXkX4 p.G.e.7.u.t.u.t.9.9.7.3.< kXkXkXkXkXkX",
"kXkXkXkXkXkXkXkXkXkXkXkXkXkXkXkXkXkXkXkXkXkXkXkXkXJ z./.4X3X+X).v.N.].].B.Y 6 kXkXkXkXkX4 r.i.e.8.t.t.t.t.9.2.2.8.8.-.kXkXkXkXkXkX",
"kXkXkXkXkX1.,.>.:.>.:.:.-.3 kXkXkXkXkXkXkXkX*.;.H h.V.S.{.4X4X(.V.+X3X/.C.v.Y , 4 *.2 ;.a.q.6.7.q.t.t.t.9.7.6.7.3.-.7.r.:.*.kXkXkX",
"kXkXkXkX1.p.q.7.7.7.:.-.&.-.3 < kXkXkXkX&.,.f.c.l.V.D.(.|..XOX{.).}.|.C.S.S.z.T K 6 3 >.0.6.7.q.u.u.t.9.8.7.8.3.&.-.7.i.7.3.*.kXkX",
"kXkXkX1.p.u.7.7.7.:.2 : *.-.3 < 2 kXkX&.9.,.d.b.m.A.}.{..X{.{..X{.D.S.S.S.S.x.g.I H >.0.&.>.y.u.i.9.9.8.8.8.3.-.-.7.7.2.w.w.7.*.kX",
"kXkX1.p.u.w.7.7.-.2 : *.:.2 2 : : > > =.<.*.H z.D.{..X.X).b.N.(.{.V.z.C.S.S.C.z.T H y.e.>.3 ,.<.,.q.7.7.6.3.*.-.6.6.8.q.t.t.7.8.2 ",
"kX1.p.u.w.8.7.:.2 &.-.:.2 < 2 2 > > , - 1 =.H x.{.XX(.).C.R I Z.Z.I E v.v.V.S.v.L H u.y.9.=.3 ,.<.<.-.-.-.-.-.6.7.w.w.u.t.w.7.8.2 ",
"3 G.u.q.8.8.:.2 &.8.:.2 < 2 2 < > , b m i 1 H A.XX.X(..X{.D.z.v.x.z.V.Z.V.m.V.V.U 6 ,.,.>.&.3 s.t.<.<.&.*.:.i.7.w.t.u.u.t.8.7.-.kX",
"kX1.q.7.7.8.2 2 3.7.3 < < 2 2 : > i b A a - , Y /.{.OX4XOX{.(.Z.Z.|.|.}.(.F.M.z.G a = = 5 5 5 3 5.y.i.9.e.i.i.q.u.u.t.q.q.7.3.< kX",
"kXkX-.:.:.-.kXkX*.3.3 < 2 2 : 2 > p K d.U a p S b..XOXOX.X.X/.b.b._.(.).D.S.C.g.A Z s G U l.K 5 2 >.q.q.u.p.9.u.t.w.w.7.8.3.-.kXkX",
"kXkXkXkXkXkXkXkXkX-.2 < 2 : 2 2 > , l.D./.l.^ p P A..XXXXXoXZ././.Z.(.S.S.C.x.S i C a d./.D.l.D 2 3 7.7.q.e.q.q.w.2.6.7.8.-.kXkXkX",
"kXkXkXkXkXkXkXkXkX: 2 2 2 2 < < 2 D ) F.OX|.d.O O G A._.` _..X.X.X(.).m._ _ J O $ V Y /.OXA.R D : 3 >.7.7.7.4.4.8.7.3.:.-.kXkXkXkX",
"kXkXkXkXkXkXkXkXkXkX2 < 2 : 2 2 kXS R D.N.b.L O   # P A x ( ~..X.X}.m.( x s *   X - P b.Z.D.) S kX< 3 :.>.7.7.7.7.3.-.kXkXkXkXkXkX",
"kXkXkXkXkXkXkXkXkXkXkX2 < 2 2 kXkXS R x.c.Y P = o * i h O.#.@.n.b.z.` #.O.h u o o = L P ) x.) S kXkX< : 3 :.:.:.:.-.kXkXkXkXkXkXkX",
"kXkXkXkXkXkXkXkXkXkXkXkXkXkXkXkXkXS l.) _./.V.A x x v M C %...a ! G @.%.C M v x x A V.)./.) ) S kXkXkXkX< < 2 : : kXkXkXkXkXkXkXkX",
"kXkXkXkXkXkXkXkXkXkXkXkXkXkXkXkXkXS g.V.).XXoX/ +...v [ | X.' ` D.^ ' X.| [ v ..+./ oX{.).V.l.S kXkXkXkXkXkXkXkXkXkXkXkXkXkXkXkXkX",
"kXkXkXkXkXkXkXkXkXkXkXkXkXkXkXkXkXkXI z.m./._.x B n g m [ } N ^ M.^ N } [ m g v B x _./.V.z.I kXkXkXkXkXkXkXkXkXkXkXkXkXkXkXkXkXkX",
"kXkXkXkXkXkXkXkXkXkXkXkXkXkXkXkXkXkXkXI R z.l f m v d g m m V n.|.n.V m m h d v M f l z.) E kXkXkXkXkXkXkXkXkXkXkXkXkXkXkXkXkXkXkX",
"kXkXkXkXkXkXkXkXkXkXkXkXkXkXkXkXkXkXkXF Q U l h v g u % & & W `.`.~./ u % % u g v h l ! F F kXkXkXkXkXkXkXkXkXkXkXkXkXkXkXkXkXkXkX",
"kXkXkXkXkXkXkXkXkXkXkXkXkXkXkXkXkXkXkXH.R.j.W z z u X       & C } ] g $     X u u c W Q U.J.0 kXkXkXkXkXkXkXkXkXkXkXkXkXkXkXkXkXkX",
"kXkXkXkXkXkXkXkXkXkXkXkXkXkXkXkXkXkXr L.E.,X<XE.K.0 @ @ .   & n M m j $   . + + 8 T.'.T.R.:Xe 8 kXkXkXkXkXkXkXkXkXkXkXkXkXkXkXkXkX",
"kXkXkXkXkXkXkXkXkXkXkXkXkXkXkXkXkXkXJ.L.W.,X,XE.>XyX>XW.e @ ; ' N n N ; @ 0 Y.Y.Y.>X<X:XR.>XL.e kXkXkXkXkXkXkXkXkXkXkXkXkXkXkXkXkX",
"kXkXkXkXkXkXkXkXkXkXkXkXkXkXkXkXkXr R.R.:XtX>X,XfXjX:XR.<XfX<Xo.z x o.>XtXyXyX>XY.>X<X,X>X,XW.J.8 kXkXkXkXkXkXkXkXkXkXkXkXkXkXkXkX",
"kXkXkXkXkXkXkXkXkXkXkXkXkXkXkXkXkXr ;X>X>XiX,XtXjXjX:X;XiXfXfXiX:X:XiXjXjXyXyXiX>XE.yX<X<X<X>XJ.8 kXkXkXkXkXkXkXkXkXkXkXkXkXkXkXkX",
"kXkXkXkXkXkXkXkXkXkXkXkXkXkXkXkXkXr E.:X,XiXtXyXjXjX:X,XjXtXtXjXtXtXjXyXtXjXjXjXtX;X,XyX<X>XR.P.8 kXkXkXkXkXkXkXkXkXkXkXkXkXkXkXkX",
"kXkXkXkXkXkXkXkXkXkXkXkXkXkXkXkXkXr E.:X>XiX<XyXjXjX,XtXyX:X<XjX1X,XjXtXtXjXjXfXiX,X,XfX,X>XR.U.8 kXkXkXkXkXkXkXkXkXkXkXkXkXkXkXkX",
"kXkXkXkXkXkXkXkXkXkXkXkXkXkXkXkXkXr Y.T.:XyX,X<XjXjXtXyXtXW.R.tX:XR.yX<X,XjXyXtXjXyXtXiX>X>X>XK.8 kXkXkXkXkXkXkXkXkXkXkXkXkXkXkXkX",
"kXkXkXkXkXkXkXkXkXkXkXkXkXkXkXkXkXr P.!.Q.,X>X>XyXfXjXtX<X>XR.;X!.K.yX<X,XjXyXtXjXyXtXyX,X<XW.e 8 kXkXkXkXkXkXkXkXkXkXkXkXkXkXkXkX",
"kXkXkXkXkXkXkXkXkXkXkXkXkXkXkXkXkXkXr P.K.:X>XE.tXtXyXtX,X>X>X>XJ.J.,XE.W.tX<X,XjX<X>XyX,XE.J.8 kXkXkXkXkXkXkXkXkXkXkXkXkXkXkXkXkX",
"kXkXkXkXkXkXkXkXkXkXkXkXkXkXkXkXkXkXkX~ J.Q.>XQ.;XtX,X:XR.K.R.K.0 t :XW.U.2X:X,XyXE.R.>XY.~ q kXkXkXkXkXkXkXkXkXkXkXkXkXkXkXkXkXkX",
"kXkXkXkXkXkXkXkXkXkXkXkXkXkXkXkXkXkXM m ~ o.P.Q.U.Q.:X,X'.P.J.e 9 9 t K.o.!.T.T.R.L.!.L.0 ; f kXkXkXkXkXkXkXkXkXkXkXkXkXkXkXkXkXkX",
"kXkXkXkXkXkXkXkXkXkXkXkXkXkXkXkXkXkXv { X.| o.y y e y e 0 8 8 +     + 8 9 8 8 8 q w 0 c { h f kXkXkXkXkXkXkXkXkXkXkXkXkXkXkXkXkXkX",
"kXkXkXkXkXkXkXkXkXkXkXkXkXkXkXkXkXkXM ] |  .B j o                               $ ' | | ] v f kXkXkXkXkXkXkXkXkXkXkXkXkXkXkXkXkXkX",
"kXkXkXkXkXkXkXkXkXkXkXkXkXkXkXkXkXf v M M j d d o                               $ v n v j j f d kXkXkXkXkXkXkXkXkXkXkXkXkXkXkXkXkX",
"kXkXkXkXkXkXkXkXkXkXkXkXkXkXkXkXkXf n  .} B j $                                   o h B  . .v d kXkXkXkXkXkXkXkXkXkXkXkXkXkXkXkXkX",
"kXkXkXkXkXkXkXkXkXkXkXkXkXkXkXkXf h ] B j f f o                                   o f f j B { v f kXkXkXkXkXkXkXkXkXkXkXkXkXkXkXkX",
"kXkXkXkXkXkXkXkXkXkXkXkXkXkXkXkXf f f f kXkXkXkX                                  kXkXkXkXf f f f kXkXkXkXkXkXkXkXkXkXkXkXkXkXkXkX",
"kXkXkXkXkXkXkXkXkXkXkXkXkXkXkXkXkXkXkXkXkXkXkXkXkXkXkX                      kXkXkXkXkXkXkXkXkXkXkXkXkXkXkXkXkXkXkXkXkXkXkXkXkXkXkX"
};
