/* XPM */
static char *result[] = {
/* columns rows colors chars-per-pixel */
"65 65 232 2 ",
"   c #000000",
".  c #0A0A0B",
"X  c #1B0C00",
"o  c #3B1900",
"O  c #260512",
"+  c #252526",
"@  c #303233",
"#  c #1D1F22",
"$  c #502700",
"%  c #712D05",
"&  c #752534",
"*  c #581B2F",
"=  c #734B30",
"-  c #3E006D",
";  c #370064",
":  c #3D0073",
">  c #6D144F",
",  c #41016C",
"<  c #420173",
"1  c #45027A",
"2  c #49087A",
"3  c #5D076A",
"4  c #6D0E6C",
"5  c #4A085E",
"6  c #4C4C4C",
"7  c #454646",
"8  c #585A5A",
"9  c #564C45",
"0  c #625848",
"q  c #696969",
"w  c #757575",
"e  c #7E7E7E",
"r  c #78716D",
"t  c #8A3C00",
"y  c #913C1C",
"u  c #B33F16",
"i  c #8D2F2B",
"p  c #AC3535",
"a  c #C53F3E",
"s  c #8C4012",
"d  c #A64700",
"f  c #AA4A00",
"g  c #B54C03",
"h  c #B55100",
"j  c #BB5200",
"k  c #BA5505",
"l  c #B45011",
"z  c #B44529",
"x  c #B35830",
"c  c #B96B2A",
"v  c #947931",
"b  c #CD5A00",
"n  c #C35800",
"m  c #D15808",
"M  c #C96700",
"N  c #D66400",
"B  c #C67804",
"V  c #DB7600",
"C  c #CA621D",
"Z  c #E27902",
"A  c #E46502",
"S  c #C15839",
"D  c #C74326",
"F  c #C27933",
"G  c #87125A",
"H  c #971756",
"J  c #91134D",
"K  c #8E2752",
"L  c #AC2958",
"P  c #861A74",
"I  c #941C70",
"U  c #932972",
"Y  c #A92A6B",
"T  c #AB2B75",
"R  c #B93575",
"E  c #B73778",
"W  c #B32E6D",
"Q  c #A41B5E",
"!  c #C33C7D",
"~  c #B04E46",
"^  c #A8704D",
"/  c #904970",
"(  c #B1457A",
")  c #86796E",
"_  c #CA5155",
"`  c #CE755E",
"'  c #CA4D7E",
"]  c #DF7476",
"[  c #CC8805",
"{  c #E68C00",
"}  c #F78400",
"|  c #EE9200",
" . c #F3AA00",
".. c #F7B700",
"X. c #EBAA00",
"o. c #C88A3B",
"O. c #FACF00",
"+. c #A58764",
"@. c #E59A54",
"#. c #DEAE68",
"$. c #D09A41",
"%. c #FECD54",
"&. c #4B0385",
"*. c #490288",
"=. c #53098E",
"-. c #550594",
";. c #550A96",
":. c #5B169B",
">. c #591596",
",. c #53108C",
"<. c #611D99",
"1. c #7D1893",
"2. c #67239A",
"3. c #5E08A5",
"4. c #5F06A7",
"5. c #5F1BA3",
"6. c #6109AA",
"7. c #6007A9",
"8. c #6517AC",
"9. c #6A1BB2",
"0. c #691AB3",
"q. c #6C28A1",
"w. c #722DA7",
"e. c #6E25B6",
"r. c #6D2AB6",
"t. c #7129B9",
"y. c #7027B8",
"u. c #7C35BB",
"i. c #7F37C1",
"p. c #7A66C5",
"a. c #6A54A6",
"s. c #8137BC",
"d. c #AC3789",
"f. c #C63F80",
"g. c #8C5A9A",
"h. c #B44C89",
"j. c #AC6AA0",
"k. c #C74181",
"l. c #C84685",
"z. c #D24A8C",
"x. c #DB4B8C",
"c. c #DA5895",
"v. c #C55690",
"b. c #E35A9C",
"n. c #D36499",
"m. c #D36D90",
"M. c #E46B91",
"N. c #D579AC",
"B. c #E869A5",
"V. c #F36AAA",
"C. c #E775AA",
"Z. c #FA72B2",
"A. c #F67CB3",
"S. c #F176B0",
"D. c #E85FA0",
"F. c #823AC2",
"G. c #8B44C4",
"H. c #9249CA",
"J. c #7A8BCC",
"K. c #878787",
"L. c #9B9B9B",
"P. c #949392",
"I. c #938F8A",
"U. c #BB8AB7",
"Y. c #A5A5A5",
"T. c #ABACAC",
"R. c #A7A8A9",
"E. c #B4B4B4",
"W. c #BCBCBC",
"Q. c #AEAFB0",
"!. c #9EA09F",
"~. c #D8848F",
"^. c #F0A897",
"/. c #EB88B6",
"(. c #FB8CBC",
"). c #F685B9",
"_. c #EA94B1",
"`. c #E89297",
"'. c #B7B7DB",
"]. c #ABADE7",
"[. c #AC94DA",
"{. c #F99AC6",
"}. c #F897C5",
"|. c #EE8DC3",
" X c #D9ABD1",
".X c #F9A3CA",
"XX c #F8A9CD",
"oX c #FBA9D3",
"OX c #F9B5D6",
"+X c #E6A7D1",
"@X c #D0BCE3",
"#X c #A6CEF8",
"$X c #AAD1F8",
"%X c #A7D3FC",
"&X c #B1D6F8",
"*X c #B4D9F8",
"=X c #BBDDF8",
"-X c #BDE1F9",
";X c #BFC0C0",
":X c #C4C4C4",
">X c #CBCBCB",
",X c #D4D4D4",
"<X c #DCDCDC",
"1X c #D6DADB",
"2X c #CACED1",
"3X c #CED0EB",
"4X c #FBC9E3",
"5X c #C4E4F8",
"6X c #CAE6F8",
"7X c #CCEAF8",
"8X c #C7E9F9",
"9X c #D3EDF8",
"0X c #DBEEF8",
"qX c #D3E6F8",
"wX c #D5F1F8",
"eX c #DCF4F8",
"rX c #DFF8F8",
"tX c #DDF4F4",
"yX c #D8EDED",
"uX c #E4E4E4",
"iX c #EBEBEB",
"pX c #E3F4F8",
"aX c #EBF5F8",
"sX c #E2F8F8",
"dX c #EDF8F8",
"fX c #F4F4F4",
"gX c #F4F6F8",
"hX c #F4F8F8",
"jX c #F9F9F9",
"kX c #E9EFF3",
"lX c #E3CCDF",
"zX c None",
/* pixels */
"zXzXzXzXzXzXzXzXzXzXzXzXzXzXzXzXzXzXzXzXzXzXzXzXzXzXzX7X7X7X7XzXzXzXzXzXzXzXzXzXzXzXzXzXzXzXzXzXzXzXzXzXzXzXzXzXzXzXzXzXzXzXzXzXzX",
"zXzXzXzXzXzXzXzXzXzXzXzXzXzXzX7X7X5XzXzXzXzXzXzXzX5X6XpXhXfXhXpX5X7XzXzXzXzXzX$X$X$XzXzXzXzXzXzXzXzXzXzXzXzXzXzXzXzXzXzXzXzXzXzXzX",
"zXzXzXzXzXzXzXzXzXzXzXzXzXzXsXrXsX9X7XzXzXzXzXzX7X*X0XgXjXjXjXhXhXpXzXzXzXzXpXrX9X-X#XzXzXzXzXzXzXzXzXzXzXzXzXzXzXzXzXzXzXzXzXzXzX",
"zXzXzXzXzXzXzXzXzXzXzXzXzXrXrXgXhXjX9X5XwXzXzX7X7X5X6X=X9XjXaXdXjXdXwX5XwXdXhXdXsXwX-XzXzXzXzX5X$X$XzXzXzXzXzXzXzXzXzXzXzXzXzXzXzX",
"zXzXzXzXzXzXzXzXzXzXzXzXzXrXhXsXhXhXwX&X=XeXsX9XwXrX9X5X*X7XsXdXjXdXpX9X8X0XjXjXdXwX-X$XzXzX9XwX-X#X#XzXzXzXzXzXzXzXzXzXzXzXzXzXzX",
"zXzXzXzXzXzXzXzXzXzXzXrXsX7X7XdXaXhX9X&X7XsX9XpXhXaXrX9X*XqXaXaXjXaXwXeXeX0XhXfXsXwX-X$X*X9XhXfXwX5X$XzXzXzXzXzXzXzXzXzXzXzXzXzXzX",
"zXzXzXzXzXzXzXzXzXzXrXhXsX7XwX9XaXpX7X&X7XhXhXhXaXdXeXwX7X7XwXsXwXwXsXwXwX6X5XsXwX7X8X=X=XwX0XjXdXeX=X#XzX5X$XzXzXzXzXzXzXzXzXzXzX",
"zXzXzXzXzXzXzXzXzXzXsXhXaXrX7XeX9X7XeXeXdXhXjXdXdXjXaXrX9X8XwXsXrXsX5X5X6X*X7X7X7X7X7XpXfXhXhXaX0XdXrXeXrX5X-X$XzXzXzXzXzXzXzXzXzX",
"zXzXzXzXzXzXzXzXzXsXsXsX7XeXrX7X*X7XsXsXsXsXdXhXhXaXsXsXsX9X7X9XsXrXaXqX$X=XwX7X8X9XsXhXeX0XjXjXdXsXeX9XrXeX5X$X$XzXzXzXzXzXzXzXzX",
"zXzXzXzXzXzXzXzXrXhXhXsXrX9X7X*X7XrXhXsXrX9XeXsXsXsXrX9XpXeX5X7XwXsXeX7XwXsXpX=X=XsX9X5XdXsXpXsXpXpXdXrXeX7XeX-X#X$XzXzXzXzXzXzXzX",
"zXzXzXzXzXzXzXsXhXjXhXhXhXfXsXwXeXdXjXhXsXrX9X7XeXdX0XwX9X=X=X0XaXrXrXrXsXeX7X5XqX0X=XeXrX9XdXrXsXjXjXpX=XeXeX5X$X$XzXzXzXzXzXzXzX",
"zXzXzXzXzXzXzXsXhXhXjX0XgXjX9XeXsXhXjXjXhX0X9XrXtXhXhX0X7X5X0XhXhXhXhXhXaXrXpXpX9XpXpX7X9XfXjXdXsXjXjXhX0X=XeX5X#X$XzXzXzXzXzXzXzX",
"zXzXzXzXzXzXzXrXsXgX9XaX9XgXgXpXrXsXsXhX0X9XsXdXsXsXdXhXeX7XdXjXdXdXdXdXhXwX9XsXwX9X9X7XsXjXaX9XaXjXjXkX=X9X*X5X$X#XzXzXzXzXzXzXzX",
"zXzXzXzXzXzXzXsXpXgXgXjXgX9XfX9XeXsXdX0XeXrXdXhXjXeXeXhXaX7XpXjXhXdXdXpXwXrXrXsXwX-X$X=XeXfX9XeXsXsXeX=X7X=X9X5X$X$XzXzXzXzXzXzXzX",
"zXzXzXzXzXzXzXT.yXsXjXjX0XaXsXrXsXrXfXfX9XeXwXaXjXpXrX9XeX9XpXhXdXhXdXsXrXwXeXkX5X$X#X&X9XsXwX9XrXeX9X9X7X5X*X$X#X$XzXzXzXzXzXzXzX",
"zXzXzXzXzXzXzXzXrXpXsXsXaXsXpXrXdXsXsXhXhX9X9XhXjX0XeXrX9XwX9XpXdXaXeXwX7X5XeX5X$X#X*X9X6X7X9XsXhXrXwX9XwX5X$X=X$XzXzXzXzXzXzXzXzX",
"zXzXzXzXzXzXzXzXzXsX9XrXsXsXrXdXhXhX9XeXhXsX9XaXdXrX9XeXrX5XqXpXpXeXwX6X5X9X5X5X6X*X7X*X&X*X0XdX7XwXwX*X9XzX5X5XzXzXzXzXzXzXzXzXzX",
"zXzXzXzXzXzXzXzXzXzXeX7X7XrXfXhXjXjXsXrX0XrX7X6XpXaXrX9X5X$X&XqXgXaXrXeXqX9X5X$X6X7X*X#XzXzX=X0X0X*X=X=X&XzXzXzXzXzXzXzXzXzXzXzXzX",
"zXzXzXzXzXzXzXzXzXzXzXzXzXrXhXjXjXjX0XrXeX9XeXpX0XrXeX-X$X#X#X&X0XaX0XpX9X7X$X*X0X7X#XzXzXzXzX*X=X$X-X&X=XzXzXzXzXzXzXzXzXzXzXzXzX",
"zXzXzXzXzXzXzXzXzXzXzXzXzXsXsXhXjXdXeX7XeXsX5X=X9X5X*XzXzXzX#X-X6X*X=X=X*X&X5XpX9X*X%XzXzXzXzXzXzX$X*X-X&X$XzXzXzXzXzXzXzXzXzXzXzX",
"zXzXzXzXzXzXzXzXzXzXzXzXzXzXsXsXsXfXsXrX9X5XzX0X5X5X-XzXzXzXzX8XeXzXzXzXzX9XaX9X*X#XzXzXzXzXzXzXzXzX$X*X#XzXzXzXzXzXzXzXzXzXzXzXzX",
"zXzXzXzXzXzXzXzXzXzXzXzXzXzXsXrXdXeXpXwX=X$XzXjXaXrX-XzXzXzXzX*XU.W R E W U.0X7X#XzXzXzXzXzXzXzXzXzXzXzXzXzXzXzXzXzXzXzXzXzXzXzXzX",
"zXzXzXzXzXzXzXzXzXzXzXzXzXzXzXzXdXeX5X*XzXzXzXg.].wX5X%Xa.zXzX-X+XD.z.Y v.<X8X=XzXzXzXzXzXzXzXzXzXzXzXzXzXzXzXzXzXzXzXzXzXzXzXzXzX",
"zXzXzXzXzXzXzXzXzXzXzXzXzXzXzXzXzXzXzXzXzX; zX*.r.].8X-Xp.: J.@X}.n.E zX XpX*X#XzXzXzXzXzXzXzXzXzXzXzXzXzXzXzXzXzXzXzXzXzXzXzXzXzX",
"zXzXzXzXzXzXzXzXzXzXzXzXzXzXzXzXzXzXzXzX=.5.5.9.4.[.dX8Xj.d.g.N.).v.J g.0X9X#XzXzXzXzXzXzXzXzXzXzXzXzXzXzXzXzXzXzXzXzXzXzXzXzXzXzX",
"zXzXzXzXzXzXzXzXzXzXzXzXzXzXzXzXzXzXzX,.e.t.r.r.8.u.].7X'.N.z.C.}.l.Q U.0X-XzXzXzXzXzXzXzXzXzXzXzXzXzXzXzXzXzXzXzXzXzXzXzXzXzXzXzX",
"zXzXzXzXzXzXzXzXzXzXzXzXzXzXzXzXzXzX2.r.t.t.i.0.4.1.j.lX8X XA.(.B.! m.3X'.h.zXzXzXzXzXzXzXzXzXzXzXzXzXzXzXzXzXzXzXzXzXzXzXzXzXzXzX",
"zXzXzXzXzXzXzXzXzXzXzXzXzXzXzXzXzX<.G.u.0.i.:.*.*.d.x. X7X3X+X(.b.x. X3Xn.W 4 zXzXzXzXzXzXzXzXzXzXzXzXzXzXzXzXzXzXzXzXzXzXzXzXzXzX",
"zXzXzXzXzXzXzXzXzXzXzXzXzXzXzXzX- u.H.H.<.,.=.4 4 h.V.|.+X3X@X(.B.|. X/.V.b.E 4 4 *.zXzXzXzXzXzXzXzXzXzXzXzXzXzXzXzXzXzXzXzXzXzXzX",
"zX2.zXzXzXzXzXzXzXzXzXzXzXzXzXzX<.G.H.w.,.;.1.v.l.D.A.(./.|.+X{.(.}.}.Z.Z.Z.z.Q E 4 1 *.zXzXzXzXzXzXzXzXzXzXzXzXzXzXzXzXzXzXzXzXzX",
"1 G.>.zXzXzXzXzXzXzXzXzXzXzXzX- s.w.2.,.8.:.d.B.B.S.}.{.XX{.{..X{.).Z.V.Z.Z.c.! E 4 ;.:.- zXzXzXzXzXzX2 2.q.:.:.:.=.&.zXzXzXzXzXzX",
"< G.G.>.zXzXzXzXzXzXzXzXzXzXzX- <., ; *.;.=.4 z.S.}..X.X/.n.N.}.}.B.z.V.Z.Z.V.z.Q P 0.9.&.- zXzXzXzXzXw.H.F.t.y.y.0.6.&.zXzXzXzXzX",
"zX2.H.F.>.zXzXzXzXzXzXzXzXzXzX: ; - > & 5 &.P c..XXX}.).V.f.R C.B.E ! b.b.B.Z.b.L P i.i.4.*.2 :.>.:.w.i.u.t.t.y.t.e.0.3.< zXzXzXzX",
"zXzX2.G.t.>.zXzXzXzXzXzXzXzX, < : > k A y ; U C.XX}.(..X{.S.z.n.n.z.B.C.B.B.V.D.W P ;.>.;.*.1 :.t.u.i.r.e.y.r.t.t.t.y.7.< zXzXzXzX",
"zXzX< G.t.t.>.zXzXzXzXzXzX&.< , : i p D m y 4 E /..XXX4XOX{.(.B.B.}.(.(.(.S.b.z.L z & i > 4 3 3 5.9.t.r.y.t.t.t.y.t.e.;.< zXzXzXzX",
"zXzX< G.F.t.t.>.>.>.>.>.=.=.1 - 3 U f.E a g y J c.XXOXOXXXXX/.n.n./.{.).A.Z.V.! L A m A i E ' Y 3 ;.0.9.t.t.y.t.t.e.e.3.< zXzXzXzX",
"zXzXzXq.G.t.t.t.e.t.t.t.8.1 < : G k.A.(.h.L Z y U S.oXoX.X.XC././.C.(.Z.Z.Z.b.H s Z l a l.).A.f.G 1 6.6.0.0.9.t.t.e.9.3.- zXzXzXzX",
"zXzXzX< G.F.t.t.t.r.t.9.6.1 < zXH f.S.OX(.W C $ O Y ] ] `..X.X.X.X}.).Z.M._ K O $ Z u T ).OXS.' > &.6.6.4.7.7.9.9.9.4.3.&.zXzXzXzX",
"zXzXzX< G.H.i.t.y.t.9.6.-.1 < zXH ! A.N.m.Y & X   * u c ` C.}..X{.(.B.' ` F t X X t D Y n.N.A.! G &.-.-.6.7.7.7.7.7.7.7.3.&.zXzXzX",
"zXzXzXzXq.G.H.F.u.e.6.6.1 - zXzXH ' c.v.W L * o o t k @.#.` x.c.n.c.W x #.@.n s o $ z W W h.c.f.H zX, < -.-.-.-.-.-.7.6.6.7.&.zXzX",
"zXzXzXzXzXw.G.s.s.6.6.;.1 < zXzXJ k.' _./.B.x F c b N Z %.o.p h.( I i o.%.Z M b c F z V.S./.( ! H zXzXzX- - - - zX< -.-.-.7.3.< zX",
"zXzXzXzXzXzXq.;.-.;.-.1 , zXzXzXH k.B.)..XoX_ #.o.b }  .O.[ _ S.S.d.i [ O...} b o.#.S oX.X).V.' H zXzXzXzXzXzXzXzXzX- - < -.-.< zX",
"zXzXzXzXzXzXzX, - - - , zXzXzXzXzXR z.B./._.c V b g A Z  .B _ b.b.b.~ M  .} N g M V x _./.B.x.( zXzXzXzXzXzXzXzXzXzXzXzXzX- - zXzX",
"zXzXzXzXzXzXzXzXzXzXzXzXzXzXzXzXzXzXR ! z.z f N n d n b b C ~.).A.).] x b b h d n N h z z.' R zXzXzXzXzXzXzXzXzXzXzXzXzXzXzXzXzXzX",
"zXzXzXzXzXzXzXzXzXzXzXzXzXzXzXzXzXzXzXH R u g n g t y S x ^.4XoX.X{.}.M.S S z l h b M z E > zXzXzXzXzXzXzXzXzXzXzXzXzXzXzXzXzXzXzX",
"zXzXzXzXzXzXzXzXzXzXzXzXzXzXzXzXzXzXzXzX( ^ c s t X * h.j.j.~.^.^.`.] ' ( ( U i % % % ~ / 8 zXzXzXzXzXzXzXzXzXzXzXzXzXzXzXzXzXzXzX",
"zXzXzXzXzXzXzXzXzXzXzXzXzXzXzXzXzXzXzXe Q.,X:X8 # .         % V  .{ j $         . + 8 Y.!.e 8 zXzXzXzXzXzXzXzXzXzXzXzXzXzXzXzXzXzX",
"zXzXzXzXzXzXzXzXzXzXzXzXzXzXzXzXzXzXw P.E.>X1X'.!.8 @ @ .   % M N N j $   . + + 6 R.:XY.E.:Xw 6 zXzXzXzXzXzXzXzXzXzXzXzXzXzXzXzXzX",
"zXzXzXzXzXzXzXzXzXzXzXzXzXzXzXzXzXzXK.P.W.,X,XW.>XiX>XE.q @ = [ [ M B = @ 8 R.T.T.>X<X:XE.>XP.q zXzXzXzXzXzXzXzXzXzXzXzXzXzXzXzXzX",
"zXzXzXzXzXzXzXzXzXzXzXzXzXzXzXzXzXw E.E.>X<X>X,XfXjX:XE.<XfX<X+.x x +.>XiXiXiX>XQ.>X<X,X>X,XW.K.6 zXzXzXzXzXzXzXzXzXzXzXzXzXzXzXzX",
"zXzXzXzXzXzXzXzXzXzXzXzXzXzXzXzXzXw W.>X>XiX,XuXjXjX:X;XfXfXfXfX:X:XfXfXfXiXuXfX>XW.uX<X<X1X:XK.6 zXzXzXzXzXzXzXzXzXzXzXzXzXzXzXzX",
"zXzXzXzXzXzXzXzXzXzXzXzXzXzXzXzXzXw W.:X,XfXuXiXjXjX:X,XjX<XuXjXuXuXjXiXuXjXjXjXuX;X,XfX<X>XE.I.6 zXzXzXzXzXzXzXzXzXzXzXzXzXzXzXzX",
"zXzXzXzXzXzXzXzXzXzXzXzXzXzXzXzXzXw W.:X>XkX<XiXjXjX1XuXuX:X<XjX1X,XhXuXuXjXfXfXfX,X,XiX,X>XE.Y.6 zXzXzXzXzXzXzXzXzXzXzXzXzXzXzXzX",
"zXzXzXzXzXzXzXzXzXzXzXzXzXzXzXzXzXw T.Y.:XiX,X<XjXjXuXiXuXW.E.uX:XE.iX<X1XjXiXuXjXiXuXiX>X>X,XP.6 zXzXzXzXzXzXzXzXzXzXzXzXzXzXzXzX",
"zXzXzXzXzXzXzXzXzXzXzXzXzXzXzXzXzXw P.L.E.,X>X>XiXhXjXuX1X,XQ.:X!.L.iX<X,XjXiXuXjXiXuXiX1X1XE.q 6 zXzXzXzXzXzXzXzXzXzXzXzXzXzXzXzX",
"zXzXzXzXzXzXzXzXzXzXzXzXzXzXzXzXzXzXw P.L.:X>XW.uXuXuXuX,X>X:X>XK.+.,XW.E.uX<X,XjX<X>XfX,XW.K.6 zXzXzXzXzXzXzXzXzXzXzXzXzXzXzXzXzX",
"zXzXzXzXzXzXzXzXzXzXzXzXzXzXzXzXzXzXzX) K.T.>XE.W.iX1X:XE.L.Q.L.8 e 2X'.!.>X>X2XiXW.Q.>XT.+.9 zXzXzXzXzXzXzXzXzXzXzXzXzXzXzXzXzXzX",
"zXzXzXzXzXzXzXzXzXzXzXzXzXzXzXzXzXzXN N ^ ) I.Q.Y.T.:X>X'.I.K.q 7 7 e L.) Y.Y.T.W.P.!.P.8 = f zXzXzXzXzXzXzXzXzXzXzXzXzXzXzXzXzXzX",
"zXzXzXzXzXzXzXzXzXzXzXzXzXzXzXzXzXzXb | O...o.w r q q w 0 7 6 +     + 6 7 6 7 6 6 0 0 v { k f zXzXzXzXzXzXzXzXzXzXzXzXzXzXzXzXzXzX",
"zXzXzXzXzXzXzXzXzXzXzXzXzXzXzXzXzXzXb { O.X.M g o                               $ Z X...{ j d zXzXzXzXzXzXzXzXzXzXzXzXzXzXzXzXzXzX",
"zXzXzXzXzXzXzXzXzXzXzXzXzXzXzXzXzXd n V V k f d o                               $ n M b h h f f zXzXzXzXzXzXzXzXzXzXzXzXzXzXzXzXzX",
"zXzXzXzXzXzXzXzXzXzXzXzXzXzXzXzXzXf n X.X.V j o                                   o j V X.X.n f zXzXzXzXzXzXzXzXzXzXzXzXzXzXzXzXzX",
"zXzXzXzXzXzXzXzXzXzXzXzXzXzXzXzXd n { V h f f o                                   o f f k V | k f zXzXzXzXzXzXzXzXzXzXzXzXzXzXzXzX",
"zXzXzXzXzXzXzXzXzXzXzXzXzXzXzXzXf f f f zXzXzXzX                                  zXzXzXzXf f f f zXzXzXzXzXzXzXzXzXzXzXzXzXzXzXzX",
"zXzXzXzXzXzXzXzXzXzXzXzXzXzXzXzXzXzXzXzXzXzXzXzXzXzXzX                      zXzXzXzXzXzXzXzXzXzXzXzXzXzXzXzXzXzXzXzXzXzXzXzXzXzXzX"
};
