/* XPM */
static char *result[] = {
/* columns rows colors chars-per-pixel */
"65 65 227 2 ",
"   c #000000",
".  c #090A0A",
"X  c #100900",
"o  c #3C1A00",
"O  c #272727",
"+  c #313335",
"@  c #531A0C",
"#  c #532400",
"$  c #6B2E00",
"%  c #7B3810",
"&  c #501835",
"*  c #732327",
"=  c #734B30",
"-  c #3D006D",
";  c #3E0072",
":  c #360070",
">  c #6F1C4B",
",  c #42026A",
"<  c #420173",
"1  c #45027A",
"2  c #5C0665",
"3  c #72126E",
"4  c #4B085E",
"5  c #4C4C4C",
"6  c #454646",
"7  c #5A5A5A",
"8  c #564C45",
"9  c #625848",
"0  c #696969",
"q  c #757575",
"w  c #7E7E7E",
"e  c #78716D",
"r  c #8A3C00",
"t  c #8F3A19",
"y  c #A93D13",
"u  c #8D332A",
"i  c #AB3337",
"p  c #934A12",
"a  c #A64700",
"s  c #AB4A00",
"d  c #B44E01",
"f  c #BB5200",
"g  c #B45302",
"h  c #B64C12",
"j  c #B3502A",
"k  c #B96C2B",
"l  c #A16D24",
"z  c #C15500",
"x  c #CC5B00",
"c  c #C65B00",
"v  c #D15B01",
"b  c #C35119",
"n  c #C76500",
"m  c #D66500",
"M  c #C67704",
"N  c #DB7600",
"B  c #E27703",
"V  c #C34F33",
"C  c #C17C3C",
"Z  c #84115C",
"A  c #961657",
"S  c #8B0E4A",
"D  c #903052",
"F  c #A8314C",
"G  c #8B1A70",
"H  c #95306E",
"J  c #A92769",
"K  c #B83576",
"L  c #B22C72",
"P  c #C23B7D",
"I  c #C43D41",
"U  c #B84244",
"Y  c #AB4978",
"T  c #8E7A61",
"R  c #CB524C",
"E  c #C76C4F",
"W  c #CD526D",
"Q  c #D17366",
"!  c #E9707F",
"~  c #CB8705",
"^  c #E58900",
"/  c #F78400",
"(  c #EE9200",
")  c #F2AA00",
"_  c #F7B700",
"`  c #EBAA00",
"'  c #C78836",
"]  c #FACF00",
"[  c #A58764",
"{  c #E49851",
"}  c #E0B05D",
"|  c #DFAB72",
" . c #D88864",
".. c #FECF52",
"X. c #4B0185",
"o. c #4B0487",
"O. c #51058E",
"+. c #530A8E",
"@. c #540593",
"#. c #560A95",
"$. c #5B159B",
"%. c #581497",
"&. c #520990",
"*. c #661994",
"=. c #752496",
"-. c #5F07A6",
";. c #5A1AA4",
":. c #600AA6",
">. c #6109A9",
",. c #6007A8",
"<. c #6615AD",
"1. c #6719AE",
"2. c #6A1CB2",
"3. c #6916B1",
"4. c #6B18B4",
"5. c #6D28A2",
"6. c #6E24B6",
"7. c #6E25B8",
"8. c #722BBA",
"9. c #772ABA",
"0. c #7D34BD",
"q. c #732EA8",
"w. c #7F37C1",
"e. c #962B8A",
"r. c #B93D87",
"t. c #861E81",
"y. c #C43F80",
"u. c #B15591",
"i. c #B06995",
"p. c #B366A0",
"a. c #C74484",
"s. c #D24B8B",
"d. c #D5498A",
"f. c #D1548E",
"g. c #D95896",
"h. c #C84F8D",
"j. c #E45D9C",
"k. c #E65798",
"l. c #D56499",
"z. c #CA6092",
"x. c #E66496",
"c. c #E86D8E",
"v. c #E65CA0",
"b. c #D573A6",
"n. c #E86AA5",
"m. c #F369AB",
"M. c #E475A9",
"N. c #FA73B3",
"B. c #FA7CB5",
"V. c #F67CB4",
"C. c #EE77B0",
"Z. c #823AC2",
"A. c #8D45C6",
"S. c #8D45C8",
"D. c #914AC9",
"F. c #8B8B8B",
"G. c #838485",
"H. c #9B9B9B",
"J. c #949392",
"K. c #938F8A",
"L. c #A5A5A5",
"P. c #ABABAB",
"I. c #A7A8A9",
"U. c #B4B4B4",
"Y. c #BCBCBC",
"T. c #AEAFB0",
"R. c #AD80B5",
"E. c #E89092",
"W. c #D794B2",
"Q. c #E886B5",
"!. c #FA8CBD",
"~. c #F587B9",
"^. c #EE93B7",
"/. c #E59A91",
"(. c #ACA0CB",
"). c #CE91C4",
"_. c #FB8DC2",
"`. c #F99AC5",
"'. c #F998C5",
"]. c #E38EC4",
"[. c #CDAED2",
"{. c #F9A2CA",
"}. c #F8A9CE",
"|. c #FBAAD2",
" X c #FAB7D8",
".X c #E5A5D0",
"XX c #C5BEE2",
"oX c #A6CFF8",
"OX c #ABD2F8",
"+X c #AAD9FE",
"@X c #B1D6F8",
"#X c #B5DAF8",
"$X c #BADDF8",
"%X c #BEE1F8",
"&X c #BFC0C0",
"*X c #C4C4C4",
"=X c #CBCBCB",
"-X c #D4D4D4",
";X c #DCDCDC",
":X c #D7DBDE",
">X c #CACED1",
",X c #FBC5DE",
"<X c #CDD6F0",
"1X c #E7D2E8",
"2X c #C4E5F8",
"3X c #CAE4F8",
"4X c #C7E9F9",
"5X c #CBEAF8",
"6X c #D3EDF8",
"7X c #DBEDF8",
"8X c #D1E4F8",
"9X c #D5F1F8",
"0X c #DCF5F8",
"qX c #DFF8F8",
"wX c #CEF4FF",
"eX c #E4E4E4",
"rX c #EBEBEB",
"tX c #E8EEF4",
"yX c #E3F4F8",
"uX c #EBF5F8",
"iX c #E2F8F8",
"pX c #ECF8F8",
"aX c #F4F4F4",
"sX c #F2F6F8",
"dX c #F4F8F8",
"fX c #F9F9F9",
"gX c None",
/* pixels */
"gXgXgXgXgXgXgXgXgXgXgXgXgXgXgXgXgXgXgXgXgXgXgXgXgXgXgX5X5X3X5XgXgXgXgXgXgXgXgXgXgXgXgXgXgXgXgXgXgXgXgXgXgXgXgXgXgXgXgXgXgXgXgXgXgX",
"gXgXgXgXgXgXgXgXgXgXgXgXgXgXgXgXgXgXgXgXgXgXgXgXgX4X4XyXdX7X$X$X5X5XgXgXgXgXgXOXOXoXgXgXgXgXgXgXgXgXgXgXgXgXgXgXgXgXgXgXgXgXgXgXgX",
"gXgXgXgXgXgXgXgXgXgXgXgXgXgXgXgXgXgXgXgX4X2X5XgX5X#X7XuX6X9XqXiX6X5X5XgXgXgXyX0X9X%XOXgXgXgXgXgXgXgXgXgXgXgXgXgXgXgXgXgXgXgXgXgXgX",
"gXgXgXgXgXgXgXgXgXgXgXgXgXgXgXgXgXgXgXoX%X5X9X6X4X3X3X5X9XqXpXpX0X0X9X4X9XpXdXpXqX9X%XgXgXgXgX2XOXOXgXgXgXgXgXgXgXgXgXgXgXgXgXgXgX",
"gXgXgXgXgXgXgXgXgXgXgXgXgXgXgXgXgXgXOXoX%X9XqX6X9X5XtXiXyXpXfXfX8X2XiX9X#X3XfXfXpX9X%XoXgXgX6X9X%XOX5XiXiXiXqXgXgXgXgXgXgXgXgXgXgX",
"gXgXgXgXgXgXgXgXgXgXgXiXiX5XgXgXgXgX4X@X5XqX6XtX9XtXdXfXpXpXfXfXdX3X2X9X#X3XdXdXiX9X%XoX#X7XdXpXqX0XqXiXiXdXdXiX9XOXgXgXgXgXgXgXgX",
"gXgXgXgXgXgXgXgXgXgXqXdXiX5X0XgXgXiX5X@X6XpXdXdXiXpXfX7X9XpXdXfX8X2X2X$X$XOX2XiX9X5X3X$X#X0X7XuX5XiXpXdXdXfXfXdXiX0X4XgXgXgXgXgXgX",
"gXgXgXgXgXgXgXgXgXgXqXdXpXqX5X0X5X5X0X0XpXfXfXpX9XuXyX6XqXiXiX3X3X2X2X6X$X@X5X5X5X5X5XiXsXsXsXuX5XiXdXfXfXfXdXdXqX0X5XgXgXgXgXgXgX",
"gXgXgXgXgXgXgXgXgXiXiXiX6XqXqX5X#X5XiXiXiXiXdXdX7X9XyX6X9XiX9X6X6X3X$X@XOX2X6X4X4X5XpXpX0X9XfXtX$XiXfXfXfXfXsX6XpX5X4XgXgXgXgXgXgX",
"gXgXgXgXgXgXgXgXqXdXdXiX0X5X5X#X5XqXdXiXqX6X0XiXiX5X5X9XpXuXqX9X9X6X#X#X#X2XtX$X$XiXiXpXtX5X3X#X5XqXuXsX6XiX5X0X5X5X2XOXgXgXgXgXgX",
"gXgXgXgXgXgXgXiXdXfXdXdXsXsXiX9XqXpXfXdXiXqX5X5X0X%X$XyXyX5X9X2X%X5X2X4X$X$X5X2X9XpXqXiXuX7X#X6X5XiXiXiXuX6XuX5X5X0X2XOXOXgXgXgXgX",
"gXgXgXgXgXgXgXiXdXdXfX7XsXfX6XqXiXaXfXdXfX7X9XqXiXyX2X$XyXsX7X4X#XOX$X$X%X0XyXyX3X5X9XiXqX5X0X0X5X5X6XyXiXtX6X0X5X3XOXoXoXgXgXgXgX",
"gXgXgXgXgXgXgXqXiXsX6XuX6XaXsXyXqXdXfXfX7X9XqXsXiXiXuXuX0X6X3X4X2X%X5XyXuX9X9X9X5XyXuXiXqX0XiX0X4X3X5X6XqX6X2X2X@XOXOXoXoXgXgXgXgX",
"gXgXgXgXgXgXgXiXiXsXsXfXsX6XpX7X0X9X$X7XiXqXpXaXfX7X9XdXpX5X7XsXsXiXiXtX9XqXqX9X9XfXdXdXdXdXpXiXiX7X@X5X5X2X2X@XoXoXoXOXOXgXgXgXgX",
"gXgXgXgXgXgXgXgXyXiXfXfX7XuXuX0X6X#XoX2X5XuXfXfXfXuXiX9X0X9XyXsXpXfXsXiXqX0X5X9XyXfXaXpXdXpXdX9X6XiX5X#X5X2XOXOX5XOXoXoXgXgXgXgXgX",
"gXgXgXgXgXgXgXgXiXiXiXiXuXiXiX9X2X@X$X#X@X2XuXfXfX0X9XqX5X9X7XyXpXiX0X9X5X3XyX9X0XfXfXpXiXuX9XqX0XqX9XoX@X#X9X9XqX%XOXgXgXgXgXgXgX",
"gXgXgXgXgXgXgXgXgXiX9X0XiX9X5X5X#XOX@XoX#X2XyXfXpX0X6X9XiX4X8XyXyXyX9X4X2X6X9X9X7XsXpXfXpXyX0X0X9XpX2X@X6X9XiXqX5X@XoXgXgXgXgXgXgX",
"gXgXgXgXgXgXgXgXgXgX0X6X5X#X@X#XOXoX$X@X@X@X9X0XyXpX0X9X2XOX@X8XsXyX0X0X5X9X9X6X9X0XpXuX0X9X9X%X9X6X$X5X#X%XqX5X2XoXOXgXgXgXgXgXgX",
"gXgXgXgXgXgXgXgXgXgXgXgXgXgXgXoX$X@XOX%X@XoX@X7X7X0X0X%XOXoXoX@X7XuX0XyX6XqXqX5X3XyX0XyX6X6X$X6X5XOXgX#XOX7X5X4X#XoXgXgXgXgXgXgXgX",
"gXgXgXgXgXgXgXgXgXgXgXgXgXgXgXOXOX%XOX#XOXoX8X3X6X2X#XgXgXgXoX%X3X#X#X%X#X2X4X%X3X8XsXpX0X0X5X9X5XoXgXgXgX$X#X@XoXgXgXgXgXgXgXgXgX",
"gXgXgXgXgXgXgXgXgXgXgXgXgXgXgXgXgX#XOXoXOXgXgXuX2X2X$XgXgXgXgXwX[.p.p.p.p.).6XOX#XOX7XuX7XpX7X6X$XgXgXgXgXgXgXgXgXgXgXgXgXgXgXgXgX",
"gXgXgXgXgXgXgXgXgXgXgXgXgXgXgXgXgXgXgXgXgXgXgXfXuXyX2XgXgXgXgX+X).x.s.J P ).4X2XoXgXgX2X#X2X#X#XgXgXgXgXgXgXgXgXgXgXgXgXgXgXgXgXgX",
"gXgXgXgXgXgXgXgXgXgXgXgXgXgXgXgXgXgXgXgXgXgXgXgX3X9X%X+XgXgXgX%X1Xx.K gXW.1X4X$XgXgXgXgXgXgXgXgXgXgXgXgXgXgXgXgXgXgXgXgXgXgXgXgXgX",
"gXgXgXgXgXgXgXgXgXgXgXgXgXgXgXgXgXgXgXgXgXgXgXgXgX%X4X%Xp.L R.<X'.h.S S W.yX#XoXgXgXgXgXgXgXgXgXgXgXgXgXgXgXgXgXgXgXgXgXgXgXgXgXgX",
"gXgXgXgXgX, - - - gXgXgXgXgXgXgXgXgXgXgXgXgXgXgXgXyXuX3X).k.b.Q._.a.J u.[.wX+XgXgXgXgXgXgXgXgXgXgXgXgXgXgXgXgXgXgXgXgXgXgXgXgXgXgX",
"gXgXgXgX%.@.@.@.O.< gXgXgXgXgXgXgXgXgXgXgXgXgX, gXi.XX4X.XB.V.~.n.y.d..XwX(.H gX, gXgX< gXgXgXgXgXgXgXgXgXgXgXgXgXgXgXgXgXgXgXgXgX",
"gXgXgXO.6.0.9.0.6.#.O.< gXgXgXgXgXgXgXgXgXgXX.%.;.t.b.1X<X].!.!.g.s._.<XXXu.3 ;.%.X.; ; , gXgXgXgXgXgXgXgXgXgXgXgXgXgXgXgXgXgXgXgX",
"gXgXO.2.Z.Z.D.D.9.2.>.@.< gXgXgXgXgXgXgXX.%.O.=.e.h.m.'..X[..X!.m.'.<X<XM.g.r.t.*.1 1 o.1 $.o.gXgXgXgXgXgXgXgXgXgXgXgXgXgXgXgXgXgX",
"gX< -.1.0.8.0.D.Z.9.>.>.@.< gXgXgXgXgXo.1.$.*.a.a.n.B.~.!..X.X{.~.'..X].N.N.h.J J 2 -.;.+.$.3.1 gXgXgXgXgXgXgXgXgXgXgXgXgXgXgXgXgX",
"gXO.<.-.<.1.7.0.S.9.2.>.>.@.%.$.$.#.X.o.+.&.H n.n.C.'.`.{.`.`.}.`.B.N.m.N.N.k.K K G 7.7.@.1 *.6.X.gXgXgXgXgXgXgXgXgXgXgXgXgXgXgXgX",
"< :.7.2.,.,.<.7.S.Z.Z.7.>.4.7.9.2.3.> * , X.G s.C.`.{.{.~.l.n.`.`.n.d.m.N.N.m.s.J G 8.7.<.X.o.Z.9.X.gXgXgXgXgX&.5.5.5.X.gXgXgXgXgX",
"< -.0.8.2.,.,.3.w.q.5.$.&.%.%.1.>.3 b m p , G f.'.}._.~.n.a.K l.n.L P g.v.m.B.g.J 3 #.%.#.X.< #.9.1.O.X.gXgX@.6.Z.D.D.9.%.gXgXgXgX",
"< :.A.Z.7.2.>.@.+.gXgXgXgXgXgXX.@.t b V v u J m.|.'.'.{.'.V.s.x.l.d.n.M.n.n.m.x.P S u u > 2 2 < O.%.@.1.@.@.2.8.w.S.0.Z.7.o.gXgXgX",
"< :.A.D.Z.6.&.gXgXgXgXgXgXgXgXgX: F W K I d V W ]..X|.,X X'._.M.n._.!.!.!.C.v.s.J h c B i P P *.- - < %.#.7.Z.Z.D.S.7.8.7.:.O.%.gX",
"< :.A.Z.Z.O.gXgXgXgXgXgXgXgXgXgX: r.C.~.a.F B j g.|. X X|.{.Q.l.l.^.`.~.B.N.m.r.j B g U a.~.V.r.2 ; , - < *.q.D.S.0.8.7.1.:.:.6.< ",
"< :.0.2.O.gXgXgXgXgXgXgXgXgXgXgX2 r.C. X~.L b % H m.E.Q E.}.C.Q.Q.M._.N.N.c.R D u B y J ~. XC.W Z ; , < < - gXq.S.8.8.1.>.-.:.0.< ",
"< -.6.@.gXgXgXgXgXgXgXgXgXgXgXgXA P V.M.z.L * X @ R  .h Q {.{.{.{.`.N.N.x.Q ' r @ r b J z.b.V.y.Z ; < - , ; gX< 5.2.3.-.>.,.>.A.1 ",
"< :.7.< gXgXgXgXgXgXgXgXgXgXgXgXA a.f.z.K F @ o t z { | Q E.'.`.{.!.B.c.E | { z r # y F K h.f.y.3 ; ; < < gXgXgX; @.-.>.,.:.>.0.< ",
"gX&.1.< gXgXgXgXgXgXgXgXgXgXgXgXA a.Y ^.~.j C k x m ^ ..' U f.l.g.f.h.U ' ..B m v k C j ~.Q.a.a.Z - , gXgXgXgXgXgX< >.,.>.:.>.6.< ",
"gXgXO.< gXgXgXgXgXgXgXgXgXgXgXgXA W m.~.`.E } ' v / _ ] ~ F L J J J J i ~ ] _ / v C } E {.~.n.a.A gXgXgXgXgXgXgXgX1 @.,.:.:.<.$.< ",
"gXgXgXgXgXgXgXgXgXgXgXgXgXgXgXgXgXK s.n.E.j ^ n s m / ) n W m.g.j.g.s.U M ( / m d n N j E.n.s.K gXgXgXgXgXgXgXgXgXgX< :.,.>.0.< gX",
"gXgXgXgXgXgXgXgXgXgXgXgXgXgXgXgXgXgXK y.i s m f j h v x d Q _._.V.N.m.W b v v g a z m g y r.K gXgXgXgXgXgXgXgXgXgXgX1 :.6.4.q.gXgX",
"gXgXgXgXgXgXgXgXgXgXgXgXgXgXgXgXgXgXgXA y z c d W W V V V E. X}.`.~.N.N.k.j j j h g x z y A gXgXgXgXgXgXgXgXgXgXgXgX1 1.q.q., gXgX",
"gXgXgXgXgXgXgXgXgXgXgXgXgXgXgXgXgXgXgXgXgXp % $ U m._.!.`. X,X}.{.'.~.N.N.m.v.v.W t $ % p gXgXgXgXgXgXgXgXgXgXgXgXgX< $.- gXgXgXgX",
"gXgXgXgXgXgXgXgXgXgXgXgXgXgXgXgXgXgXgXgXgXG.6 . & H b.!.|.,X,X|.`.`.'.B.N.N.m.h.H & . + 7 gXgXgXgXgXgXgXgXgXgXgXgXgXgXgXgXgXgXgXgX",
"gXgXgXgXgXgXgXgXgXgXgXgXgXgXgXgXgXgXgXgXF.I.H.O     & Y i.i.E.E././.c.W Y Y D &     O F.q 7 gXgXgXgXgXgXgXgXgXgXgXgXgXgXgXgXgXgXgX",
"gXgXgXgXgXgXgXgXgXgXgXgXgXgXgXgXgXgXgXG.T.-X*X7 O .         $ B _ ( f #         . O 7 L.H.G.7 gXgXgXgXgXgXgXgXgXgXgXgXgXgXgXgXgXgX",
"gXgXgXgXgXgXgXgXgXgXgXgXgXgXgXgXgXgXq J.U.-X:XU.H.7 + + .   $ M m m f #   . O O 5 I.*XL.U.*Xq 5 gXgXgXgXgXgXgXgXgXgXgXgXgXgXgXgXgX",
"gXgXgXgXgXgXgXgXgXgXgXgXgXgXgXgXgXgXF.H.Y.-X-XY.>XeX-XU.0 + = ~ M n M = + 7 I.T.T.=X-X=XY.=XJ.7 gXgXgXgXgXgXgXgXgXgXgXgXgXgXgXgXgX",
"gXgXgXgXgXgXgXgXgXgXgXgXgXgXgXgXgXq U.T.=X;X*X-XaXfX&XU.-XaX;X[ l k [ =XeXrXrX=XT.*X;X-X=X-X&XF.5 gXgXgXgXgXgXgXgXgXgXgXgXgXgXgXgX",
"gXgXgXgXgXgXgXgXgXgXgXgXgXgXgXgXgXq Y.=X=XaX-XeXfXfX&X&XrXfXaXaX*X[.aXfXfXrXeXaX=XY.rX;X:X-X=XF.5 gXgXgXgXgXgXgXgXgXgXgXgXgXgXgXgX",
"gXgXgXgXgXgXgXgXgXgXgXgXgXgXgXgXgXq Y.*X>XaXeXrXfXfX*X-XfXeXeXfXeXeXfXrXeXfXfXfXeX&X-XaX-X=XU.K.5 gXgXgXgXgXgXgXgXgXgXgXgXgXgXgXgX",
"gXgXgXgXgXgXgXgXgXgXgXgXgXgXgXgXgXq Y.[.=XrX;XrXfXfX-XeXrX*X-XfX:X-XfXeXeXfXfXaXaX-X-XaX-X*XU.L.5 gXgXgXgXgXgXgXgXgXgXgXgXgXgXgXgX",
"gXgXgXgXgXgXgXgXgXgXgXgXgXgXgXgXgXq P.I.=XrX-X;XfXfXeXrXeXY.Y.eX*XU.rX;X-XfXrXeXfXrXeXrX-X=X-XJ.5 gXgXgXgXgXgXgXgXgXgXgXgXgXgXgXgX",
"gXgXgXgXgXgXgXgXgXgXgXgXgXgXgXgXgXq J.H.T.=X=X=XrXfXfXeX-X=XU.&XL.H.rX;X-XfXrXeXfXrX;XaX:X-XY.0 7 gXgXgXgXgXgXgXgXgXgXgXgXgXgXgXgX",
"gXgXgXgXgXgXgXgXgXgXgXgXgXgXgXgXgXgXq J.H.=X=XY.eXeXeXeX-X-X*X=XF.w -XY.U.eX;X-XfX;X=XrX-X&Xw 5 gXgXgXgXgXgXgXgXgXgXgXgXgXgXgXgXgX",
"gXgXgXgXgXgXgXgXgXgXgXgXgXgXgXgXgXgXgXT F.P.=XU.Y.rX-X*XU.H.P.H.7 w *XY.I.XX*X>XrXY.T.=XI.[ 8 gXgXgXgXgXgXgXgXgXgXgXgXgXgXgXgXgXgX",
"gXgXgXgXgXgXgXgXgXgXgXgXgXgXgXgXgXgXm m T T K.T.L.P.*X=X*XF.F.0 6 6 q H.[ L.I.I.U.J.L.J.7 = s gXgXgXgXgXgXgXgXgXgXgXgXgXgXgXgXgXgX",
"gXgXgXgXgXgXgXgXgXgXgXgXgXgXgXgXgXgXx ( ] _ ' q e 0 0 q 7 6 5 O     O 5 5 5 5 6 5 9 7 l ^ f s gXgXgXgXgXgXgXgXgXgXgXgXgXgXgXgXgXgX",
"gXgXgXgXgXgXgXgXgXgXgXgXgXgXgXgXgXgXn ( _ ) M g o                               # ^ ` _ ^ g s gXgXgXgXgXgXgXgXgXgXgXgXgXgXgXgXgXgX",
"gXgXgXgXgXgXgXgXgXgXgXgXgXgXgXgXgXa c m m f s a o                               # c n c g g s s gXgXgXgXgXgXgXgXgXgXgXgXgXgXgXgXgX",
"gXgXgXgXgXgXgXgXgXgXgXgXgXgXgXgXgXs c ` ) N f o                                   o f N ` ` c s gXgXgXgXgXgXgXgXgXgXgXgXgXgXgXgXgX",
"gXgXgXgXgXgXgXgXgXgXgXgXgXgXgXgXa f ( N g s s o                                   o s s g N ^ z a gXgXgXgXgXgXgXgXgXgXgXgXgXgXgXgX",
"gXgXgXgXgXgXgXgXgXgXgXgXgXgXgXgXs a s s gXgXgXgX                                  gXgXgXgXs s s s gXgXgXgXgXgXgXgXgXgXgXgXgXgXgXgX",
"gXgXgXgXgXgXgXgXgXgXgXgXgXgXgXgXgXgXgXgXgXgXgXgXgXgXgX                      gXgXgXgXgXgXgXgXgXgXgXgXgXgXgXgXgXgXgXgXgXgXgXgXgXgXgX"
};
