/* XPM */
static char *result[] = {
/* columns rows colors chars-per-pixel */
"65 65 243 2 ",
"   c #000000",
".  c #090407",
"X  c #140900",
"o  c #120603",
"O  c #161717",
"+  c #0E0716",
"@  c #250C02",
"#  c #361801",
"$  c #331909",
"%  c #332100",
"&  c #180826",
"*  c #1B0332",
"=  c #320D2E",
"-  c #262626",
";  c #333434",
":  c #393B3A",
">  c #33322D",
",  c #57191E",
"<  c #5B2803",
"1  c #672B02",
"2  c #6E3301",
"3  c #461632",
"4  c #502F36",
"5  c #6D2B27",
"6  c #1F0141",
"7  c #330551",
"8  c #3F2A51",
"9  c #3D006B",
"0  c #370067",
"q  c #3B0674",
"w  c #4F1459",
"e  c #6C1359",
"r  c #422858",
"t  c #6F2E4D",
"y  c #420273",
"u  c #460777",
"i  c #4B0F6E",
"p  c #671479",
"a  c #6F106F",
"s  c #51316C",
"d  c #752973",
"f  c #4A4A4A",
"g  c #555555",
"h  c #4F4557",
"j  c #666666",
"k  c #787877",
"l  c #756A65",
"z  c #61537A",
"x  c #993A17",
"c  c #8D3B0A",
"v  c #A33E1B",
"b  c #8E3330",
"n  c #AD3936",
"m  c #954608",
"M  c #A34500",
"N  c #A94900",
"B  c #A64800",
"V  c #B84D03",
"C  c #B95502",
"Z  c #AE5116",
"A  c #B66703",
"S  c #AA492D",
"D  c #A76528",
"F  c #C65803",
"G  c #C15714",
"H  c #CF5605",
"J  c #D66703",
"K  c #D77802",
"L  c #CB6C0F",
"P  c #E47C00",
"I  c #E97801",
"U  c #F77B00",
"Y  c #C8532C",
"T  c #C47122",
"R  c #961656",
"E  c #8E0E51",
"W  c #90314B",
"Q  c #921C71",
"!  c #912770",
"~  c #A82768",
"^  c #B22B6C",
"/  c #B32D70",
"(  c #B83576",
")  c #AB3372",
"_  c #A12C56",
"`  c #C23D7D",
"'  c #C13F50",
"]  c #B24C4C",
"[  c #897C7A",
"{  c #A25E69",
"}  c #C6514B",
"|  c #D45469",
" . c #E17464",
".. c #DC840A",
"X. c #E58501",
"o. c #E79600",
"O. c #F89700",
"+. c #EF8508",
"@. c #F7AD00",
"#. c #F4B500",
"$. c #EEB011",
"%. c #DF9F31",
"&. c #FCC600",
"*. c #FCCA35",
"=. c #90827D",
"-. c #B58F7F",
";. c #AF8550",
":. c #EA9F4C",
">. c #FBD857",
",. c #380083",
"<. c #4D028A",
"1. c #4B0884",
"2. c #540B8A",
"3. c #560698",
"4. c #591696",
"5. c #50118F",
"6. c #6C158E",
"7. c #67249B",
"8. c #7A2596",
"9. c #693587",
"0. c #5D07A4",
"q. c #5D14A5",
"w. c #5D09B7",
"e. c #4303A4",
"r. c #630CAB",
"t. c #6107A9",
"y. c #6513AC",
"u. c #6319A6",
"i. c #640AB2",
"p. c #6A19B4",
"a. c #7018B6",
"s. c #6D26A6",
"d. c #6D23B5",
"f. c #7125B3",
"g. c #722ABA",
"h. c #7328B8",
"j. c #7B34BC",
"k. c #7A35B5",
"l. c #752FAB",
"z. c #5B2194",
"x. c #694687",
"c. c #775F95",
"v. c #7F38C3",
"b. c #7526C2",
"n. c #711AC3",
"m. c #8E2F90",
"M. c #AA3686",
"N. c #8131B2",
"B. c #C63C86",
"V. c #BF4788",
"C. c #BB4F90",
"Z. c #95699C",
"A. c #C94586",
"S. c #D54C8C",
"D. c #CB5497",
"F. c #D85795",
"G. c #D4518D",
"H. c #E45B9A",
"J. c #DC639C",
"K. c #D87095",
"L. c #E56695",
"P. c #E55CA5",
"I. c #D86FA3",
"U. c #E967A4",
"Y. c #F26BAA",
"T. c #E978AB",
"R. c #F376AD",
"E. c #E776B3",
"W. c #FB78B6",
"Q. c #F868B7",
"!. c #DD54A0",
"~. c #853AC5",
"^. c #8941C4",
"/. c #924BCF",
"(. c #FF75C1",
"). c #7E8386",
"_. c #868585",
"`. c #939494",
"'. c #999A9B",
"]. c #8F8F90",
"[. c #ABABAB",
"{. c #A3A5A5",
"}. c #B3B4B3",
"|. c #BBBCBC",
" X c #B7B8B9",
".X c #AEB0AC",
"XX c #BF8FB4",
"oX c #EC87B6",
"OX c #F788BA",
"+X c #EE95BC",
"@X c #EE90B2",
"#X c #FAA5BA",
"$X c #E18296",
"%X c #BFC0BD",
"&X c #FBEC90",
"*X c #FCF0A4",
"=X c #BABFC0",
"-X c #FA99C6",
";X c #FC93CC",
":X c #DBA9C2",
">X c #FAA3CB",
",X c #F5A3C6",
"<X c #FCA8D4",
"1X c #F9BBD8",
"2X c #EBAAC9",
"3X c #FFBCE6",
"4X c #ADD4F8",
"5X c #B3D6F8",
"6X c #B5DAF8",
"7X c #BBDDF8",
"8X c #A4CDF8",
"9X c #BCE1F8",
"0X c #C4C4C4",
"qX c #CCCCCC",
"wX c #C9CAC7",
"eX c #D3D3D3",
"rX c #DBDBDB",
"tX c #D7D8D6",
"yX c #CED1D5",
"uX c #F9C8DE",
"iX c #C2DDF8",
"pX c #FBCBE4",
"aX c #C5E5F8",
"sX c #CAE4F8",
"dX c #CAEAF8",
"fX c #D2EDF8",
"gX c #DCEDF8",
"hX c #D2E6F8",
"jX c #DBF4F9",
"kX c #D7F3F8",
"lX c #CCECF7",
"zX c #E3E3E3",
"xX c #EBEBEB",
"cX c #E5EEF6",
"vX c #E3F2F8",
"bX c #EBF3F8",
"nX c #E3F9F9",
"mX c #EBF9F9",
"MX c #F3F3F3",
"NX c #F3F7F8",
"BX c #FBFBFA",
"VX c #F4F9F9",
"CX c None",
/* pixels */
"CXCXCXCXCXCXCXCXCXCXCXCXCXCXCXCXCXCXCXCXCXCXCXCXCXCXCXCXCXCXCXCXCXCXCXCXCXCXCXCXCXCXCXCXCXCXCXCXCXCXgXVXbXCXCXCXCXCXCXCXCXCXCXCXCX",
"CXCXCXCXCXCXCXCXCXCXCX6X4X4XCXCXCXCXCXCXCXCXCXCXCXCXCXCXBXCXCXCXCXCXjXlXdXCXCXCXCXCXCXCXCXCXCXCXCXCXCXbX8XCXCXCXCXCXCXCXCXCXCXCXCX",
"CXCXNXnXmXCXCXCXCXCXkXnXjXfX7XCXCXCXCXCXCXCXCXCXCXCXCXCXCXCXCXCXmXNXvXfXfXfXvXCXCXCXCXCXbXVXNXCXCXCXCXCXCXCXCXCXCXCXCXCXCXCXCXCXCX",
"CXCXlXNXNX6XCXCXCXdX5XvXiXfXfX6XCXCXCXCXCXCXnXnXkXCXCXCXCXCXCXCXmXmXnXjXfXkXfXCXCXCXbXvXgXbXCXCXCXCXCXCXCXCXCXCXCX7XNXCXCXCXCXCXCX",
"CXCXNXNXfXCXCXCXCXdXbXiXgXnXkX6XCXCXCXCXCXCXbXmXaX4XCXCXCXCXCXCXnXjXkXkXjXfX6XCXCXNXvXgXvXdXCXCXCXCXCXCXCXCXCXCXCXbXfXCXCXCXCXCXCX",
"CXCXCX5XCXCXCXCXCXaXbXNXiXfXkX6XCXCXCXCXCXCXkXkXaX4XCXCXCXCXCXCXCXCXkXfXdXCXCXCXVXNXNXvXgXVXCXCXCXCXCXCXCXCXCXCXCXCXCXCXCXCXCXCXCX",
"CXCXCXCXCXCXCXCXCXCX5XkXjXlXsXaXCXCXCXCXCXCXCX5X4XCXCXCXCXCXCXCXCXCXCXCXCXCXCXmXvXvXvXaX9XCXCXCXCXCXCXCXCXCXCXCXCXCXCXCXCXCXCXCXCX",
"CXCXCXCXCXCXCXCXCXCXaXlXdXdXdXCXCXCXCXCXCXCXCXCXCXCXCXVXCXCXCXCXCXCXCXCXCXCXmXvXCXNXjX7XCXCXCXCXCXCXCXCXCXCXCXCXCXCXCXCXCXCXCXCXCX",
"CXCXCXCXCXCXCXCXCXCXCXdXaXdXCXCXCXCXCXCXCXCXCXCXCXCXCXCXCXCXCXCXCXCXCXCXCXbXhXCXCXgXCXCXCXsX7XCXCXCXCXCXCXCXCXCXCXCXCXCXCXCXCXCXCX",
"CXCXCXCXCXCXCXCXCXCXCXCXCXCXCXCXCXCXCXCXCXCXCXCXCXCXCXCXCXCXCXCXCXCXCXCXNXgXCXCX7XCXCXCXhXsXvX9XCXCXCXCXCXCXCXCXCXCXCXCXCXCXCXCXCX",
"CXCXCXCXCXCXCXCXCXCXCXCXCXCXCXCXCXCXCXCXCXCXCXCXCXCXCXCXBXCXCXCXCXCXCXCXvXhXCXvXhXCXCXCXhXVXvX6XCXCXCXCXCXCXCXCXCXCXdXCXCXCXCXCXCX",
"CXCXCXjXnXCXCXCXCXCXCXCXBX7XCXCXCXCXCXCXCXCXCXCXCXCXCXCXCXBXCXCXCXCXCXNXgXCXCXCXCXCXCXcXgXfXfX9X8XCXCXCXCXCXCXCXCXCXCXCXCXCXCXCXCX",
"CXCXnXVXVX7XCXCXCXCXCXCXCXCXcXBXsXCXCXCXCXCXCXCXCXCXCXCXCXhXbXCXCXCXCXmXfXCXCXCXCXCXCXCXsX4X5X4XCXCXCXCXCXCXCXCXCXCXCXCXCXCXCXCXCX",
"CXCXnXBXmX6XCXCXCXCXCXCXCXCX6XdXvXiXCXCXCXCXCXCXCXCXCXCXCX6XaXCXCXCXCXCXCXCXCXCXCXCXCXCXCXCXCXCXCXCXCXCXCXCXCXCXCXCXCXCXCXCXCXCXCX",
"CXCXCXaX7XCXCXCXCXCXCXCXCXCXCX5XsXgXVXsXCXCXCXCXCXCXCXCXCXaXjXCXCX( C.A.( / CXCXCXCXCXCXCXCXCXCXCXCXCXCXCXCXCXCXCXCXCXCXCXCXCXCXCX",
"CXCXCXCXCXCXCXCXCXCXCXCXCXCXCX8X7XaXhXaXvXCXCXCXCXCXCXCXCXCXCXCX( H.U.( ) S.F.CXCXvXVXCXCXCXCXCXCXCXCXCXCXCXCXCXCXCXCXCXCXCXCXCXCX",
"CXCXCXCXCXCXCXCXCXCXCXCXCXCXCXCX5X4X4X7XsXsXCXCXCXCXCXCXCXCXCX` J.T.G.CXCX/ ( CXnXbXjXCXCXCXCXCXCXCXCXCXCXCXCXCXCXCXCXCXCXCXCXCXCX",
"CXCXCXCXCXCXCXCXCXCXCXCXCXCXCXCXCXCXCXCXCX6X4XCXCXCXCXCXCXCX/ G.E.oX) E R CXCXcXnXfXCXCXCXCXCXCXCXCXCXCXCXCXCXCXCXCXCXCXCXCXCXCXCX",
"CXCXCXCXCXCXCXCXCXCXCXCXCXCXCXCXCXCXCXCXCXCXCXCXCXCXCXCXA.F.F.F.OXT.^ ~ ^ R :XnXaXCXCXCXCXCXCXCXCXCXCXCXCXCXCXCXCXCXCXCXCXCXCXCXCX",
"CXCXCXCXCXCXCXCXCXCXCXCXCXCXCXCXCXCXCXCXCXCXCXCXCXCXA.~ / U.OXoXoXJ.V.A.) K.hXdXCXCXCXCXCXCXCXCXCXCXCXCXCXCXCXCXCXCXCXCXCXCXCXCXCX",
"CXCXCXCXCXCXCXCXCXCXCXCXCXCXCXCXCXCXCXCXCXCXCXCXCXCXS.G.S.Y.-X-XT.S.U.U.F.I.XXCXCXCXCXCXCXCXCXCXCXCXCXCXCXCXCXCXCXCXCXCXCXCXCXCXCX",
"CXCXCXCXCXCXCXCXCXCXCXCXCXCXCXCXCXCXCXCXCXCXCXCXCX) A.Y.W.H.F.oXOXH.B.P.W.P.) E CXCXCXCXCXCXCXCXCXCXCXCXCXCXCXCXCXCXCXCXCXCXCXCXCX",
"CXCXCXCXCXCXCXCXCXCXCXCXCXCXCXCXCXCXCXCXCXCXCXCXG.V.A.R.-XT.J.oX-XY.S.P.W.U.( R / CXCXCXCXCXCXCXCXCXCXCXCXCXCXCXCXCXCXCXCXCXCXCXCX",
"CXCXCXCXCXCXCXCXCXCXCXCXCXCXCXCXCXCXCXCXCXCXCXCXD.U.U.OX>X-X-X,X>X+XW.Q.W.Y.A.( / CXCXCXCXCXCXCXCXCXCXCXCXCXCXCXCXCXCXCXCXCXCXCXCX",
"CXCXCXCXCXCXCXCXCXCXCXCXCXCXCXCXCXCXCXCXCXCXCXe ( P.OX>X,XT.I.+X>X+XJ.H.W.W.H.( E e CXCXCXCXCXCXCXCXCXCXCXCXCXCXCXCXCXCXCXCXCXCXCX",
"CXCXCXCXCXCXCXCXCXCXCXCXCXCXCXCXCXCXCXCXCXCXCXp M.oX-X-XW.F.( D.oXF./ A.H.U.Y.S.~ Q y CXCXCXCXCXCXCXCXCXCXCXCXCXCXCXCXCXCXCXCXCXCX",
"CXCXCXCXCXCXCXCXCXCXCXCXCXCXCXCXCXCXCXCXCX<.0.m.oX1X1XOX-XR.F.S.U.F.G.U.T.U.Y.Y.S.^ w ,.CXCXCXCXCXCXCXCXCXCXCXCXCXCXCXCXCXCXCXCXCX",
"CXCXCXCXCXCXCXCXCXCXCXCXCXCXCXCXCXCX! 7 w 4.m.D.#XpXpX1X1X-XP.S.F.S.H.OX-XOXW.W.!.~ a 2.w 7 ! CXCXCXCXCXCXCXCXCXCXCXCXCXCXCXCXCXCX",
"CXCXCXCXCXCXCXCXCXCXCXCXCXCXCXCX^ A.B.e 5 W M.V.T.1XpXpXuX2XI.D.D.G.J.-X>XOXW.Y.A.Q Q W 5 d S.( ~ CXCXCXCXCXCXCXCXCXCXCXCXCXCXCXCX",
"CXCXCXCXCXCXCXCXCXCXCXCXCXCXCX~ ~ S.Y.S.n L { m.M.oX<X<X>X-X+X-X,X+XoXOXOXOXY.G.) 9.] L S P.P.) R ~ CXCXCXCXCXCXCXCXCXCXCXCXCXCXCX",
"CXCXCXCXCXCXCXCXCXCXCXCXCXCXE ` ` I.W.P.} I T ! 8.C.F.U.T.OX>X<X-X-X>XOXY.H.S.( 8.z.S U } P.U.A.~ ^ E CXCXCXCXCXCXCXCXCXCXCXCXCXCX",
"CXCXCXCXCXCXCXCXCXCXCXCXCXCXR F.oX;XE.( Y U L 4 u 6.Q Q ) G.L.{ _ { K.G.^ Q Q 6.1.& < H Y ( E.;XF./ R CXCXCXCXCXCXCXCXCXCXCXCXCXCX",
"CXCXCXCXCXCXCXCXCXCXCXCXCXR / Y.+X$XA._ c B 2 @ * 7 i u p M.! 3 = 8 ! ) p u y 7 *   o < v W D.@XK.A.! R CXCXCXCXCXCXCXCXCXCXCXCXCX",
"CXCXCXCXCXCXCXCXCXCXCXCXCXE B.F.} Y n e = @ .     . 6 5.p.N.4.q q q 4.h.d.5.6 . .     . 3 e n Y } | ( R CXCXCXCXCXCXCXCXCXCXCXCXCX",
"CXCXCXCXCXCXCXCXCXCXCXCXCXR ( ] J P J W 6 .     . & q k.~.b.w.3.2.3.w.b.~.j.i & .       * R J I H } A.E CXCXCXCXCXCXCXCXCXCXCXCXCX",
"CXCXCXCXCXCXCXCXCXCXCXCXCXR n K #.@.+.G < o     + q g.~.j.u.4.8.M.8.4.q.j.v.d.q +     o < G X.@.O.J S R CXCXCXCXCXCXCXCXCXCXCXCXCX",
"CXCXCXCXCXCXCXCXCXCXCXCXCXv H O.#.o.K F N < % % = 5.l.9.d 5.8.C.oXD.6.i p p s.5.= % % < M C ..o.O.+.H v CXCXCXCXCXCXCXCXCXCXCXCXCX",
"CXCXCXCXCXCXCXCXCXCXCXCXCXm G I P +.%...H c m A b w t x b ) D.U.Y.L.M.! b S t w b L A C Z %.$.o.I U F c CXCXCXCXCXCXCXCXCXCXCXCXCX",
"CXCXCXCXCXCXCXCXCXCXCXCXCXw c H J >.*X>.K Z C L Y v v G Y L.W.R.U.U.Y.G.Y C x b Z L C Z :.&X>.&.I H x i CXCXCXCXCXCXCXCXCXCXCXCXCX",
"CXCXCXCXCXCXCXCXCXCXCXCXCXe.W Z X.&X*X*...2 , _ | L. .K.$X+X>X-XOXOXW.Y.L.| | | | _ , < %.>.*.@.X.Z b e.CXCXCXCXCXCXCXCXCXCXCXCXCX",
"CXCXCXCXCXCXCXCXCXCXCXCX9 s.^.S F *.$.P D 4 & t C.(.;X<X3XpXuX<X<X-XOXW.(.(.Q.!.M.e O 4 D ..O.X.C b 6.0.y CXCXCXCXCXCXCXCXCXCXCXCX",
"CXCXCXCXCXCXCXCXCXCXCXCX0 l./.k.b Z C D ]._.> + = W I.oX:X:X,X#X#X@XR.U.J.F.V.t 3 X : `.[ x C Z W 6.w.y.<.CXCXCXCXCXCXCXCXCXCXCXCX",
"CXCXCXCXCXCXCXCXCXCXCXCX1.f.^./.l.a t =.|. Xg O   o 3 t h W  .:.%. .] W t 4 = .   O j rX=Xl t d 6.w.y.f.3.y CXCXCXCXCXCXCXCXCXCXCX",
"CXCXCXCXCXCXCXCXCXCXCX9 s.g.~./.n.u.c.}.tX0X).j : O .   . @ m o.o.J c @     X + : k `.}.%X{.z 5.w.0.y.d.y.<.CXCXCXCXCXCXCXCXCXCXCX",
"CXCXCXCXCXCXCXCXCXCXCX9 k.j.^.N.y.z ]..XqXeX|.|.[._.k f - $ B K J J B $ O : j j `.tXeX[.}.%Xk s w.t.y.g.d.3.9 CXCXCXCXCXCXCXCXCXCX",
"CXCXCXCXCX2.1.CXCXCXCX1.l.v./.a.7.Z.'. XyXtX0XeXNXxXwX[.]._.;.T A A ;.[ _.}.eX%X%XtXrXwX0XwX'.z u 3.p.g.d.y.<.CXCXCXCXCXCXCXCXCXCX",
"CXCXCXCXy f.s.4.1.CX9 s.g.~.^.p.x.[.%X0XzXeXeXxXBXrX.XeXVXBXeX-.{ '.eXBXBXBXxXqX.XyXzXqXeXeX|.k 8 <.p.g.g.d.3.9 CXCXCXCXCX4.CXCXCX",
"CXCXCXCXy k./.~.s.7.u k.j.^.j.w.9.[.qXqXxXzXzXVXBXtX|.zXNXMXBXcXrXjXBXMXMXxXMXxXwX0XxXzXtXeX Xk r <.i.p.g.d.y.9 CXCXCXCX7.p.y CXCX",
"CXCXCXCXCX5.k././.k.7.h.N.v.j.w.x.[.0XqXxXxXxXMXBXrXqXxXzXeXMXMXrXMXMXzXxXBXBXNXrX:XrXMXeX0X[._.r <.r.y.g.g.d.5.2.7.7.s./.t.y CXCX",
"CXCXCXCXCX9 y.j.s.i f.h.~.j.d.t.9.{.|.=XzXzXzXMXBXxXzXxXqX|.zXxX0XrXMXzXxXVXMXMXnXtXzXxXqX0X X].r <.3.r.p.g.g.g.r.k././.k.y.y CXCX",
"CXCXCXCXCXy u.p.5.2.q.d.f.g.y.w.9.'.{.}.rXeXyXxXVXMXxXxXeX.XwXeX[.wXxXeXzXBXzXxXVXxXzXxXyXeX0Xk s 3.u t.i.d.g.d.q.1.s.s.y.h.y CXCX",
"CXCXCXCXCXCXl.f.j.h.d.g.g.p.r.p.c.Z.`.{.0XqX0XrXMXVXxXrXeX0X}.`.Z.|.zXwXrXMXrXxXVXrXzXxXtXqX].h i <.u 0.0.0.d.d.d.y.1.2.g.4.CXCXCX",
"CXCXCXCXCXCXCXs.k.f.f.g.d.r.0.d.j.9.c.`.}.eX|.wXzXzXrXeX0XwX[.j f `.%X.X0XzXeXzXMXwXqXzXwX{.j 8 CX9 y u 3.3.3.s.g.g.g.g.d.y CXCXCX",
"CXCXCXCXCXCXCXCX0 7.f.p.r.0.r.h.4.9 h _.'.}. X}.eXrXqX|.{.`.k f > f ).'..X0X0XeXtX[.}.}._.j CXCXCXCXCXq 9 9 9 u s.4.s.u.4.y CXCXCX",
"CXCXCXCXCXCXCXCXCXCX<.3.3.3.u.1.CXCXCXCXf j '.'.`.[.|. X'.j > CXCXCX> f k `.`.'.`._.`.j - ; CXCXCXCXCXCXCXCXCXCX0 0 9 9 9 CXCXCXCX",
"CXCXCXCXCXCXCXCXCXCXCX9 9 9 9 CXCXCXCX.   - h g g g g f : - .         . - : ; > > ; > O   . CXCXCXCXCXCXCXCXCXCXCXCXCXCXCXCXCXCXCX",
"CXCXCXCXCXCXCXCXCXCXCXCXCXCXCXCXCXCX, $ # # # X                               . X # @ # # 1 CXCXCXCXCXCXCXCXCXCXCXCXCXCXCXCXCXCXCX",
"CXCXCXCXCXCXCXCXCXCXCXCXCXCXCXCXCXJ J P P I J 2 o                             X m U X.P J F M CXCXCXCXCXCXCXCXCXCXCXCXCXCXCXCXCXCX",
"CXCXCXCXCXCXCXCXCXCXCXCXCXCXCXCXCXF X.#.&.o.J 2 o                             X c O.&.&.X.V M CXCXCXCXCXCXCXCXCXCXCXCXCXCXCXCXCXCX",
"CXCXCXCXCXCXCXCXCXCXCXCXCXCXCXCXCXV P @.#.X.H 1 o                             X c O.#.#.K V M CXCXCXCXCXCXCXCXCXCXCXCXCXCXCXCXCXCX",
"CXCXCXCXCXCXCXCXCXCXCXCXCXCXCXCXM V J K F N N < o                             X 2 J F C N C N B CXCXCXCXCXCXCXCXCXCXCXCXCXCXCXCXCX",
"CXCXCXCXCXCXCXCXCXCXCXCXCXCXCXCXM F o.#.X.J 1 o                                 o 1 H X.#.o.F B CXCXCXCXCXCXCXCXCXCXCXCXCXCXCXCXCX",
"CXCXCXCXCXCXCXCXCXCXCXCXCXCXCXB V X.X.C B C 1 o                                 o 1 C N C X.X.V M CXCXCXCXCXCXCXCXCXCXCXCXCXCXCXCX",
"CXCXCXCXCXCXCXCXCXCXCXCXCXCXCXN N N N CXCXCXCXCX                                CXCXCXCXCXN N N N CXCXCXCXCXCXCXCXCXCXCXCXCXCXCXCX",
"CXCXCXCXCXCXCXCXCXCXCXCXCXCXCXCXCXCXCXCXCXCXCXCXCXCXCX                    CXCXCXCXCXCXCXCXCXCXCXCXCXCXCXCXCXCXCXCXCXCXCXCXCXCXCXCX"
};
