/* XPM */
static char *result[] = {
/* columns rows colors chars-per-pixel */
"32 32 165 2 ",
"   c #000000",
".  c #07000A",
"X  c #0E0600",
"o  c #1E0C00",
"O  c #2C1408",
"+  c #361A04",
"@  c #382207",
"#  c #130024",
"$  c #4C1819",
"%  c #4F2200",
"&  c #692E00",
"*  c #763206",
"=  c #3D2B58",
"-  c #3D016C",
";  c #350072",
":  c #5C0F55",
">  c #770D5E",
",  c #651B5E",
"<  c #570C6F",
"1  c #420075",
"2  c #45027A",
"3  c #49057E",
"4  c #470C79",
"5  c #621260",
"6  c #721779",
"7  c #813700",
"8  c #964100",
"9  c #9A4C00",
"0  c #AB4600",
"q  c #AE4A00",
"w  c #B14A00",
"e  c #A15600",
"r  c #B55900",
"t  c #BB6100",
"y  c #D45D00",
"u  c #C76A00",
"i  c #D76400",
"p  c #E17900",
"a  c #8E1559",
"s  c #901151",
"d  c #A11E5D",
"f  c #891F70",
"g  c #842070",
"h  c #892374",
"j  c #952B7B",
"k  c #9A2C7B",
"l  c #A52364",
"z  c #AB2B6B",
"x  c #B33171",
"c  c #BC3878",
"v  c #C83D77",
"b  c #D48100",
"n  c #EC8800",
"m  c #E69000",
"M  c #F49B00",
"N  c #EFA900",
"B  c #F8A600",
"V  c #F2A600",
"C  c #ECB300",
"Z  c #430184",
"A  c #4B0285",
"S  c #4D0A85",
"D  c #4E028A",
"F  c #4F0C8B",
"G  c #50048D",
"H  c #510D8B",
"J  c #5C0C89",
"K  c #4F108E",
"L  c #53118C",
"P  c #5D1B8D",
"I  c #58178D",
"U  c #4E0193",
"Y  c #530393",
"T  c #550C92",
"R  c #560599",
"E  c #59059C",
"W  c #530F99",
"Q  c #590C9B",
"!  c #561291",
"~  c #591494",
"^  c #5C1894",
"/  c #55139D",
"(  c #5B149B",
")  c #5D1999",
"_  c #611484",
"`  c #611699",
"'  c #621D9E",
"]  c #601E91",
"[  c #632195",
"{  c #5D06A4",
"}  c #5D0CA1",
"|  c #5E11A1",
" . c #6207AB",
".. c #610AAA",
"X. c #6113A5",
"o. c #631DA4",
"O. c #6412AD",
"+. c #6419A9",
"@. c #681EAE",
"#. c #6107B0",
"$. c #6509B0",
"%. c #6713B0",
"&. c #6916B3",
"*. c #6718B0",
"=. c #6B1DB3",
"-. c #6D1FBA",
";. c #701DB7",
":. c #6520A8",
">. c #6B25AD",
",. c #6E2CAD",
"<. c #6B21A4",
"1. c #6D23B5",
"2. c #6F24B9",
"3. c #6F28B8",
"4. c #7325B5",
"5. c #722BB5",
"6. c #7026BA",
"7. c #732ABB",
"8. c #792CBB",
"9. c #7B33BD",
"0. c #7732BA",
"q. c #6B21C0",
"w. c #782CC0",
"e. c #7D33C1",
"r. c #853EBF",
"t. c #C53F83",
"y. c #8942BE",
"u. c #C34281",
"i. c #C84087",
"p. c #CD4B8A",
"a. c #D54F8F",
"s. c #DF5999",
"d. c #D65894",
"f. c #E45D9D",
"g. c #EC5E9B",
"h. c #E05FA2",
"j. c #EB63A4",
"k. c #EF68A7",
"l. c #E46BA3",
"z. c #F36AA9",
"x. c #FA6DA6",
"c. c #E670A7",
"v. c #EC73AC",
"b. c #E177AC",
"n. c #FF72AE",
"m. c #FD7FB7",
"M. c #FD73B4",
"N. c #853CC4",
"B. c #873EC8",
"V. c #8037C3",
"C. c #8B43C5",
"Z. c #8640CA",
"A. c #8C44CA",
"S. c #8F49CB",
"D. c #924ACA",
"F. c #EC83B4",
"G. c #F182B4",
"H. c #FF80B6",
"J. c #F788BB",
"K. c #FB99C4",
"L. c #FF9FCC",
"P. c #F897C2",
"I. c #FEACCF",
"U. c #FCB8D7",
"Y. c None",
/* pixels */
"Y.Y.Y.Y.Y.Y.Y.Y.Y.Y.Y.Y.p.z x z Y.Y.Y.Y.Y.Y.Y.Y.Y.Y.Y.Y.Y.Y.Y.Y.",
"Y.Y.Y.Y.Y.Y.Y.Y.Y.Y.Y.Y.x Y.x k.c Y.Y.Y.Y.Y.Y.Y.Y.Y.Y.Y.Y.Y.Y.Y.",
"Y.Y.Y.Y.Y.Y.Y.Y.Y.Y.Y.Y.Y.u.d.l.H.l z Y.Y.Y.Y.Y.Y.Y.Y.Y.Y.Y.Y.Y.",
"Y.Y.Y.Y.Y.Y.Y.Y.Y.Y.Y.Y.u.i.L.v.p.f.i.l Y.Y.Y.Y.Y.Y.Y.Y.Y.Y.Y.Y.",
"Y.Y.Y.Y.Y.Y.Y.Y.Y.Y.Y.x j.v.F.K.k.f.h.a.s Y.Y.Y.Y.Y.Y.Y.Y.Y.Y.Y.",
"Y.Y.Y.Y.Y.Y.Y.Y.Y.Y.u.d.c.K.J.b.v.G.k.s.x d Y.Y.Y.Y.Y.Y.Y.Y.Y.Y.",
"Y.Y.Y.Y.Y.Y.Y.Y.Y.Y.z z.I.U.I.K.P.m.M.z.v a Y.Y.Y.Y.Y.Y.Y.Y.Y.Y.",
"Y.Y.Y.Y.Y.Y.Y.Y.Y.; h x.H.v.b.c.h.j.n.g.v > Y.Y.Y.Y.Y.Y.Y.Y.Y.Y.",
"Y.Y.Y.Y.Y.Y.Y.2 S ^ ` h k 6 K L K _ j j g ( F { D Y.Y.Y.Y.Y.Y.Y.",
"Y.Y.Y.Y.Y.Y.A ` 5.] w.| ,.0.Z.V.N.:./ / R e.! { D A Y.Y.Y.Y.Y.Y.",
"Y.Y.Y.Y.Y.Y.G o.y.^ D.N.w.e.V.8.;.O.2 - F L w.2.G R Y.Y.Y.Y.Y.Y.",
"Y.Y.Y.Y.Y.~ H 8.C.G >.A.=.` P P I S Y R 3 D o.w.I { D Y.Y.Y.Y.Y.",
"Y.Y.Y.Y.Y.^ I r.D.) - :.7.5.r.C.C.9.5.&.D D ) A.L { D Y.Y.Y.Y.Y.",
"Y.Y.Y.Y.Y.4.] D.D.) A G } 7.C.D.C.D.A.o.G Y ) A.L E E Y.Y.Y.Y.Y.",
"Y.Y.Y.Y.1 N.) 9.D.( R 6.O.O.7.B.D.S.D.:.Y R ) A.H E  .2 Y.Y.Y.Y.",
"Y.Y.Y.Y.3 N.%.9.B.( R 9.9.+.=.9.D.D.S.[ Y R ) A.L { O.2 Y.Y.Y.Y.",
"Y.Y.Y.Y.o.N.1.9.e.( G 9.D.7.*.1.N.D.V.( ~ F 1.C.H } &.1 Y.Y.Y.Y.",
"Y.Y.Y.Y.>.B.1.C.9.2.S 5.9.3.7.3.B.C.7.A +.F 7.B.| T =.G Y.Y.Y.Y.",
"Y.Y.Y.Y.,.4.7.D.A.7.F =.1.*.w.A.D.V.Q T | T B.C.O.S =.E Y.Y.Y.Y.",
"Y.Y.Y.3 7.&.1.D.A.7.Q T 7.Q o.C.N.4.A 1.L +.N.C.=.S 7.} Y.Y.Y.Y.",
"Y.Y.Y.! 6.E 8.D.D.r.1.Z 6.o.A =.=.G Q w.F >.C.C.1.! 7.&.L Y.Y.Y.",
"Y.Y.Y.+.>.S A.D.D.N.1.X.G 1.Q A A Q 7.} D 8.D.C.1.O.6.&.! Y.Y.Y.",
"Y.Y.2 7.Q ( A.D.D.D.9.7.X.( 6.>.5.6.6.Y ~ e.D.C.1.O.6.%.o.Y.Y.Y.",
"Y.Y.3 6.3 4.D.C.D.D.D.7.7.2.1.A.D.0.O.Y / e.D.9.1.1.5.O.B.4 Y.Y.",
"Y.Y.( &.Z 4.D.D.A.=.@.+.=.8.7.6.2.-.{ D 1.S.A.3.2.0.O...Z.I Y.Y.",
"Y.Y.@.E 2 =.D.r./ 4 = = 4 ( &.{ { { U Z q.Z.7.2.9.A.*. .Z.y.Y.Y.",
"Y.Y.T Y.Y.H >.Q Y.Y.+ @ O # Y $.#.#.< : 5 , J 2.A.C.F - ^ 9.Y.Y.",
"Y.Y.- Y.Y.Y.Y.Y.Y.u B n q   # G R ; * M M i $ Z ' L Y.Y.Y.S Y.Y.",
"Y.Y.Y.Y.Y.Y.Y.Y.o t C n w     . .   * V N y % . Y.Y.Y.Y.Y.Y.Y.Y.",
"Y.Y.Y.Y.Y.Y.Y.Y.q u b i &           + 0 p m w X Y.Y.Y.Y.Y.Y.Y.Y.",
"Y.Y.Y.Y.Y.Y.Y.Y.0 r t 8 o             7 9 e q Y.Y.Y.Y.Y.Y.Y.Y.Y.",
"Y.Y.Y.Y.Y.Y.Y.Y.Y.Y.Y.Y.Y.              Y.Y.Y.Y.Y.Y.Y.Y.Y.Y.Y.Y."
};
