/* XPM */
static char *result[] = {
/* columns rows colors chars-per-pixel */
"65 65 212 2 ",
"   c #010000",
".  c #0A0508",
"X  c #140A05",
"o  c #090010",
"O  c #0E0414",
"+  c #1F140C",
"@  c #2C1300",
"#  c #371701",
"$  c #1A002E",
"%  c #0D0028",
"&  c #461C00",
"*  c #4D2100",
"=  c #562300",
"-  c #662900",
";  c #7C3400",
":  c #753300",
">  c #6C3000",
",  c #65212D",
"<  c #1E0045",
"1  c #34005D",
"2  c #350D4E",
"3  c #3E3B46",
"4  c #3A0065",
"5  c #3D016C",
"6  c #390365",
"7  c #3F0475",
"8  c #2D006D",
"9  c #461F5B",
"0  c #44215C",
"q  c #712047",
"w  c #5C0D6C",
"e  c #451C62",
"r  c #420274",
"t  c #46047A",
"y  c #49057D",
"u  c #4A097D",
"i  c #460879",
"p  c #550C79",
"a  c #53127A",
"s  c #450875",
"d  c #631274",
"f  c #7F1F74",
"g  c #690E66",
"h  c #424543",
"j  c #863803",
"k  c #953E00",
"l  c #A33E00",
"z  c #953727",
"x  c #9B4200",
"c  c #AB4A01",
"v  c #A04500",
"b  c #B44B00",
"n  c #B94B00",
"m  c #B45200",
"M  c #B95900",
"N  c #CD5D00",
"B  c #C45800",
"V  c #D15C00",
"C  c #C56600",
"Z  c #D56300",
"A  c #D76A00",
"S  c #C47400",
"D  c #DB7A00",
"F  c #EA7500",
"G  c #9B1B5B",
"H  c #951758",
"J  c #8D0E4E",
"K  c #A11F5E",
"L  c #9F205F",
"P  c #8D2578",
"I  c #A32364",
"U  c #AE2C6D",
"Y  c #B53474",
"T  c #B93676",
"R  c #BC3B7B",
"E  c #BC377B",
"W  c #AF2F74",
"Q  c #C23D7E",
"!  c #BE407E",
"~  c #C4417E",
"^  c #D88100",
"/  c #EA8800",
"(  c #EF9500",
")  c #F39500",
"_  c #F48E00",
"`  c #F4AC00",
"'  c #F9BA00",
"]  c #F4B800",
"[  c #ECB300",
"{  c #FAC900",
"}  c #FCD300",
"|  c #4A0283",
" . c #4C0B84",
".. c #4D028A",
"X. c #4A0787",
"o. c #510D84",
"O. c #51058E",
"+. c #520D8C",
"@. c #531286",
"#. c #54118C",
"$. c #5B1A8D",
"%. c #5D1387",
"&. c #540593",
"*. c #550A93",
"=. c #560699",
"-. c #59069C",
";. c #590B9B",
":. c #570A98",
">. c #561292",
",. c #591495",
"<. c #5B159C",
"1. c #5E1A9D",
"2. c #571598",
"3. c #4D0490",
"4. c #601C9B",
"5. c #64229B",
"6. c #652398",
"7. c #5D06A4",
"8. c #5E0BA3",
"9. c #5E05A8",
"0. c #5408A4",
"q. c #5B19A4",
"w. c #5E13A3",
"e. c #6106AA",
"r. c #620BAB",
"t. c #610EA6",
"y. c #6116A2",
"u. c #621BA3",
"i. c #6513AD",
"p. c #661BAB",
"a. c #681CAD",
"s. c #6A19AB",
"d. c #6509B1",
"f. c #6613B0",
"g. c #6916B2",
"h. c #6A1BB3",
"j. c #6B1CB6",
"k. c #721EB6",
"l. c #6721AB",
"z. c #6923AE",
"x. c #6C26A4",
"c. c #722DA9",
"v. c #6D24B5",
"b. c #6F25B8",
"n. c #6F28B8",
"m. c #6F29B5",
"M. c #722BB5",
"N. c #7126BA",
"B. c #732BBA",
"V. c #7528B9",
"C. c #7B35B6",
"Z. c #7B33BD",
"A. c #7631B9",
"S. c #7531AA",
"D. c #782DC1",
"F. c #7D34C1",
"G. c #7E38C1",
"H. c #BB3D80",
"J. c #853EBC",
"K. c #8234BF",
"L. c #C43D81",
"P. c #BE4E99",
"I. c #BE599D",
"U. c #8740BF",
"Y. c #C54283",
"T. c #CA4584",
"R. c #CE4A8C",
"E. c #C94889",
"W. c #D44D8B",
"Q. c #CB528D",
"!. c #DB5394",
"~. c #D95996",
"^. c #CC5096",
"/. c #E55E9E",
"(. c #E05490",
"). c #DF679E",
"_. c #E8639E",
"`. c #C262A0",
"'. c #DD70A3",
"]. c #EA63A3",
"[. c #E36BA4",
"{. c #E969A6",
"}. c #F46CAC",
"|. c #FA6DAC",
" X c #F368A4",
".X c #E974AB",
"XX c #F571AB",
"oX c #EE7DB3",
"OX c #FA73B2",
"+X c #FD79B5",
"@X c #F778B4",
"#X c #843CC3",
"$X c #853BC6",
"%X c #8740C5",
"&X c #8B43C6",
"*X c #8D45C8",
"=X c #8F48CA",
"-X c #924AC9",
";X c #9047C9",
":X c #9B52D1",
">X c #FD83BA",
",X c #FA87BB",
"<X c #FA92BE",
"1X c #EC85B3",
"2X c #FE8DC0",
"3X c #FB94C3",
"4X c #F69AC4",
"5X c #F999C4",
"6X c #F9A4CB",
"7X c #FBA6CB",
"8X c #F9B4D6",
"9X c None",
/* pixels */
"9X9X9X9X9X9X9X9X9X9X9X9X9X9X9X9X9X9X9X9X9X9X9X9X9X9X9X9X9X9X9X9X9X9X9X9X9X9X9X9X9X9X9X9X9X9X9X9X9X9X9X9X9X9X9X9X9X9X9X9X9X9X9X9X9X",
"9X9X9X9X9X9X9X9X9X9X9X9X9X9X9X9X9X9X9X9X9X9X9X9X9XR R W G G G G 9X9X9X9X9X9X9X9X9X9X9X9X9X9X9X9X9X9X9X9X9X9X9X9X9X9X9X9X9X9X9X9X9X",
"9X9X9X9X9X9X9X9X9X9X9X9X9X9X9X9X9X9X9X9X9X9X9X9XY._.Y.I U T.R.T G 9X9X9X9X9X9X9X9X9X9X9X9X9X9X9X9X9X9X9X9X9X9X9X9X9X9X9X9X9X9X9X9X",
"9X9X9X9X9X9X9X9X9X9X9X9X9X9X9X9X9X9X9X9X9X9X9X9XR Y.U 9X9XT W./.R.I 9X9X9X9X9X9X9X9X9X9X9X9X9X9X9X9X9X9X9X9X9X9X9X9X9X9X9X9X9X9X9X",
"9X9X9X9X9X9X9X9X9X9X9X9X9X9X9X9X9X9X9X9X9X9X9X9X9XI 9X9X9XI Q @X@XT.I 9X9X9X9X9X9X9X9X9X9X9X9X9X9X9X9X9X9X9X9X9X9X9X9X9X9X9X9X9X9X",
"9X9X9X9X9X9X9X9X9X9X9X9X9X9X9X9X9X9X9X9X9X9X9X9X9X9X9X9XR R Y._.,X+XT.H H G G 9X9X9X9X9X9X9X9X9X9X9X9X9X9X9X9X9X9X9X9X9X9X9X9X9X9X",
"9X9X9X9X9X9X9X9X9X9X9X9X9X9X9X9X9X9X9X9X9X9X9X9X9XT T E.]..X~.[.4X,XL.K E Q I H 9X9X9X9X9X9X9X9X9X9X9X9X9X9X9X9X9X9X9X9X9X9X9X9X9X",
"9X9X9X9X9X9X9X9X9X9X9X9X9X9X9X9X9X9X9X9X9X9X9X9XR Y.I U {.5X@X{.[.~.Q T.!.W G I G 9X9X9X9X9X9X9X9X9X9X9X9X9X9X9X9X9X9X9X9X9X9X9X9X",
"9X9X9X9X9X9X9X9X9X9X9X9X9X9X9X9X9X9X9X9X9X9X9X9XL.!.E E oX7X3X@X!.Y.E.{.}.L.U E L 9X9X9X9X9X9X9X9X9X9X9X9X9X9X9X9X9X9X9X9X9X9X9X9X",
"9X9X9X9X9X9X9X9X9X9X9X9X9X9X9X9X9X9X9X9X9X9X9X9XH.].}.@X4X4X6X3XXX!./.|.}.}.].L.L 9X9X9X9X9X9X9X9X9X9X9X9X9X9X9X9X9X9X9X9X9X9X9X9X",
"9X9X9X9X9X9X9X9X9X9X9X9X9X9X9X9X9X9X9X9X9X9X9XW R ].>X.XQ.{.3X5X2X}.|./.E !.+X!.I J 9X9X9X9X9X9X9X9X9X9X9X9X9X9X9X9X9X9X9X9X9X9X9X",
"9X9X9X9X9X9X9X9X9X9X9X9X9X9X9X9X9X9X9X9X9X9X~.Q.P.].2X1X'.oX2X.X~.{.+X.X^.].+X!.I I Y 9X9X9X9X9X9X9X9X9X9X9X9X9X9X9X9X9X9X9X9X9X9X",
"9X9X9X9X9X9X9X9X9X9X9X9X9X9X9X9X9X9X9X9X9XT [.{.W..X6X7X8X6X<X.X~..X3X<X@X}.OX/.Y Q E H 9X9X9X9X9X9X9X9X9X9X9X9X9X9X9X9X9X9X9X9X9X",
"9X9X9X9X9X9X9X9X9X9X9X9X9X9X9X9X9X9X9X9X9XY !.|.XX<X8X8X8X7X5X5X4X4X<X>X@X|.OX}.W.Q I H 9X9X9X9X9X9X9X9X9X9X9X9X9X9X9X9X9X9X9X9X9X",
"9X9X9X9X9X9X9X9X9X9X9X9X9X9X9X9X9X9X9X9X9XG T _.,X6X7X7X7X7X4X<X<X>X@XOX|.OXOX}.!.U H H 9X9X9X9X9X9X9X9X9X9X9X9X9X9X9X9X9X9X9X9X9X",
"9X9X9X9X9X9X9X9X9X9X9X9X9X9X9X9X9X9X9X9X9XI W. X>X,X<X6X5X7X5X<X>X+X@X+X+XOX}./.W.Y K H 9X9X9X9X9X9X9X9X9X9X9X9X9X9X9X9X9X9X9X9X9X",
"9X9X9X9X9X9X9X9X9X9X9X9X9X9X9X9X9X9X9X7 o.P E.{.|.|.XX.X`.`.`.I.P.^.^.`.].|._.!.W.~ I g y 9X9X| | 9X9X9X9X9X9X9X9X9X9X9X9X9X9X9X9X",
"9X9X9X9X9X9X9X9X9X9X9X9X9X9X9Xr r t 5 #.l.@.f H.R.R.T.P a i a a u u u d W R.W.Y.T W P y =.| | 7.8.| 9X9X9X9X9X9X9X9X9X9X9X9X9X9X9X",
"9X9X9X9X9X9X9X9X9X9X9X9X9X9Xr t -.p. .$.Z.i.y w d d w p 1.q.q.q.q.q.q.,.p d d d w w %.z.v. .| d.e.| 5 9X9X9X9X9X9X9X9X9X9X9X9X9X9X",
"9X9X9X9X9X9X9X9X9X9X9X9X9X..r o.V.B. .$.J.V.=.*.6.5.6.c.J.%X$X%X%X%XG.m.1.>.2.,.3...a.$XM.u y 9.e.| r ..9X9X9X9X9X9X9X9X9X9X9X9X9X",
"9X9X9X9X9X9X9X9X9X9X9X9X7 7.t $.&X$X@.$.U.$Xg.h.#X%X%X#X#X$X#XK.#XK.V.a.u.u.u.q.0.r.m.C.m.>.+.r.8.y | -.r 9X9X9X9X9X9X9X9X9X9X9X9X",
"9X9X9X9X9X9X9X9X9X9X9X9Xy -.| $.=X-X$.@.&X-XK.V.B.Z.B.Z.Z.Z.k.s.g.f.f.8. .s t r u q.,.@.v.n.v.v.e.y | 7.| 9X9X9X9X9X9X9X9X9X9X9X9X",
"9X9X9X9X9X9X9X9X9X9X9X9Xq.| ..s.;X-X$.@.A.-X=X&X#XB.b.B.$X;X$X#X#XV.j.h.=.r 4 4 5 y r u v.D.B.B.a. .| r.=.9X9X9X9X9X9X9X9X9X9X9X9X",
"9X9X9X9X9X9X9X9X9X9X9X>.z.i O.V.-X-Xs.X.,.Z.=X-X#Xh.i.s.6.6.6.6.4.>.#.+.....O.O...r t +.,.v.n.b.m. .| r.r...9X9X9X9X9X9X9X9X9X9X9X",
"9X9X9X9X9X9X9X9X9X9X9X>.z.u >.Z.-X-XD.;.s ,.Z.%XM.i.i.8. .@.@.@.@.@.o.|  .;.r.e.7.y ..=.i 4.D.D.b. .| r.e.| 9X9X9X9X9X9X9X9X9X9X9X",
"9X9X9X9X9X9X9X9X9X9X9X#.z.u ,.F.-X-X#Xu.5 r 1.M.n.b.v.v.n.C.U.J.J.J.C.z.m.m.j.d.7.| ..=.t 4.$X&XM. .| e.e...9X9X9X9X9X9X9X9X9X9X9X",
"9X9X9X9X9X9X9X9X9X9X9X4.C.u 5.&X-X;X$Xu.r 4 r >.b.B.n.B.&X-X:X-X-X-X-X*X$XZ.b.h.8.y ..-.y 1.$X*XM. .y e.e.| 9X9X9X9X9X9X9X9X9X9X9X",
"9X9X9X9X9X9X9X9X9X9X9Xx.U.u x.-X-X;X$Xq.r | ..o.>.p.b.A.J.=X-X;X-X;X-X-X-X#XZ.a.O...=.=.y <.$X=XM. .| r.e.*.9X9X9X9X9X9X9X9X9X9X9X",
"9X9X9X9X9X9X9X9X9X5 *.D.J.u 4.*X-X-X$Xq.t =.d.;.+.=.f.v.B.#X=X-X-X-X;X-X-X-X#Xu.t &.e.-.i 1.$X&XM. .| r.r.e.&.5 9X9X9X9X9X9X9X9X9X",
"9X9X9X9X9X9X9X9X9X5 ;.G.U.o.,.F.-X-X#X1.t =.j.b.a.r.7.i.v.B.K.=X-X;X;X-X-X-X$Xu.t &.d.=.t q.$X*XM. .| 9.e.r.&.5 9X9X9X9X9X9X9X9X9X",
"9X9X9X9X9X9X9X9X9X5 <.G.&Xy.y.Z.-X-X$X1.t &.h.B.B.b.i.i.v.b.M.Z.&X-X-X;X-X;X#Xu.y &.r.=.t 1.$X*XM. .| e.r.e.&.5 9X9X9X9X9X9X9X9X9X",
"9X9X9X9X9X9X9X9X9X4 x.#XZ.r.f.F.-X$XF.4.t =.g.A.Z.B.h.i.h.b.n.Z.;X-X;X;X-X-X#Xu.y &.d.:.t 1.$X&XM. .| r.g.r.&.5 9X9X9X9X9X9X9X9X9X",
"9X9X9X9X9X9X9X9X9X9XS.&Xn.i.h.Z.*XZ.B.1.t =.j.Z.*XZ.M.j.i.g.m.B.U.=X;X;X;X*X#Xl.y :.r.O.| u.#X&XM. .| i.N.f.O.5 9X9X9X9X9X9X9X9X9X",
"9X9X9X9X9X9X9X9Xr =.K.&Xn.v.v.Z.&XB.B.1.u =.i.Z.-X-XG.M.j.i.a.b.A.%X-X-X=XC.B.1.y 1.1.y ;.j.#X*XM.X.| r.N.f.&.5 9X9X9X9X9X9X9X9X9X",
"9X9X9X9X9X9X9X9Xt p.#X%XB.B.b.Z.&XZ.B.a.&.| <.Z.-X-XG.B.M.j.v.b.M.#X-X-X*XA.h.;.y q.1.t p.N.#X*XM. .| r.v.f.O.r 9X9X9X9X9X9X9X9X9X",
"9X9X9X9X9X9X9X9Xt p.%X%Xn.b.A.%X&XV.b.b.i.t >.B.$X#XZ.M.n.B.M.b.M.%X-X=X$XA.w...+.u.1.u z.B.F.&XV.>.| ;.v.f.-.9X9X9X9X9X9X9X9X9X9X",
"9X9X9X9X9X9X9X9Xt l.#X#Xn.b.$X-X=XZ.B.B.v.u ,.b.M.n.b.v.b.n.B.B.Z.&X-X&XB.v.>.t w.j.,.i l.Z.#X&XB.i.O.t z.g.e.-.r 9X9X9X9X9X9X9X9X",
"9X9X9X9X9X9X9X9Xr z.Z.B.v.v.G.-X-X*XZ.B.l.u ,.v.B.n.g.i.b.n.Z.*X*X;X-X#XB.i...X.a.g.O.| z.&X-XU.B.r.O.i v.g.e.-.t 9X9X9X9X9X9X9X9X",
"9X9X9X9X9X9X9X9Xu Z.Z.h.g.v.#X;X-X-X#XB.l.u O.g.B.n.i.r.v.B.J.-X-X-X#XZ.b.+.| w.v.*.| -.b.&X:X&XB.i.O.i z.V.f.7.r 9X9X9X9X9X9X9X9X",
"9X9X9X9X9X9X9X9X+.C.G.h.8.j.J.=X-X=XF.B.v.*.| <.n.M.g.8.<.m.Z.#X;X%XZ.N.p. .| j.m. . .j.B.%X-X&XB.j.&.i z.V.j.-.r 9X9X9X9X9X9X9X9X",
"9X9X9X9X9X9X9X| i.N.N.g.r.h.#X-X-X-X#XB.b.g.|  .v.B.j.:.t q.N.Z.%XZ.N.h.=.| ,.B.b. .+.b.B.%X-X&XM.n.,.t v.B.h.7.| 9X9X9X9X9X9X9X9X",
"9X9X9X9X9X9X9X+.b.n.p.e.r.v.J.;X;X=X-XJ.M.b.+.u 8.b.B.1.t &.h.N.B.M.h.:.y &.a.B.m. .@.B.B.%X-X&XB.B.,.t z.B.h.r.z.@.9X9X9X9X9X9X9X",
"9X9X9X9X9X9X9X@.B.B.,.O.z.#X&X;X;X;X-X%XB.n.i.X.| z.B.v.*.| :.r.f.r.:.y O.i.N.b.i.| +.B.#X;X-X%XA.b.p.;.v.M.p.r.N.#.9X9X9X9X9X9X9X",
"9X9X9X9X9X9X9X;.B.B. .u B.*X;X=X;X;X-X%XM.b.N.8.| >.z.B.g.O.| O.&.O.| O.f.N.b.p.&.| <.F.-X-X;X&XB.n.j.r.n.n.h.r.v.#.9X9X9X9X9X9X9X",
"9X9X9X9X9X5 *.j.B.N.o.| m.&X-X-X;X;X-X%XB.M.B.b.t.| +.z.b.g.:.u r u *.i.N.B.h.=.r :.j.B.*X-X-X&XB.b.h.r.v.B.p.i.b.+.9X9X9X9X9X9X9X",
"9X9X9X9X9X5 <.N.N.r.| +.M.&X-X&X-X-X;X-X&XB.N.N.j.8...#.v.N.z.l.l.z.v.b.B.n.h.&.t <.D.D.=X-X-X&XA.b.h.r.m.B.g.r.m.#.9X9X9X9X9X9X9X",
"9X9X9X9X9X5 4.D.m.o...y.U.=X;X-X;X-X=X-X-X&XZ.n.n.b.u.<.p.v.B.F.%X*XG.M.b.h.r.=.t 5.D.A.&X-X-X*XB.b.p.r.b.B.h.r.b.S.6.9X9X9X9X9X9X",
"9X9X9X9X9X4 <.D.p.r ..b.;X=X;X-X;X;X-X-X-X-XK.b.b.B.D.N.i.j.B.J.-X-X$XB.b.r.9.=.t 1.n.B.*X-X*XZ.M.n.h.h.n.n.h.r.N.*XS.5 9X9X9X9X9X",
"9X9X9X9X9X9Xu.N.7.r ..k.;X-X;X-X-X-X=X*X=X*XF.B.b.B.b.n.n.B.Z.*X=X*XZ.n.v.r.7.3.| q.D.Z.=X-XK.M.M.B.n.b.b.b.i.r.N.*XS.6 9X9X9X9X9X",
"9X9X9X9Xr :.v.j.7.t ..k.;X;X=X-X-X=XF.B.B.B.b.v.b.n.M.B.n.B.B.B.B.B.B.v.r.9.O.| ;.v.F.=X-X;X#Xb.n.b.n.M.B.i.8.r.b.&XS.s 9X9X9X9X9X",
"9X9X9X9Xt p.j.r.7.r ..k.-X;X;X-X-X#Xb.8...+.+.+.+.i.j.B.M.B.h.r.i.i.f.r.r.e...u p.V.G.-X-XJ.B.M.n.b.Z.#XB.i.9.r.b.%X%X5.9X9X9X9X9X",
"9X9X9X9Xr v.j.7.O.r O.g.#X;X&X#XZ.u.-.X.e 0 0 0 e +.;.u.h.j.i.7.7.7.7.7.r.=.t  .i.D.#X-X%XM.b.b.B.A.%X&XB.r.e.r.n.&X:XU.u 9X9X9X9X",
"9X9X9X9Xu a.g.&.r 5 9Xi.A.&X#Xj.:.7 5 9 h h h h 3 2 1 r ;.e.e.r.e.7.r.e.7.| 5 t =.f.A.A.z.v.b.b.M.#X-X*XB.y.-.8.z.J.-XJ.u 9X9X9X9X",
"9X9X9X9Xt 8.=.9X9X9X9X+.b.A.D.u.X.9X9X9X+ X O X O O o $ r 7.r.e.e.r.e.r.7.y 6 7 t i u u u w.j.V.B.&X-X=XB.+.r t u l.&XU.u 9X9X9X9X",
"9X9X9X9X5 | 9X9X9X9X9X9X>.+.+.9X9X9X9Xv j : ; ; ; > @ . $ r 7.r.e.9.r.9.O.q z z z z z z , w 0.h.B.*X*XA.,.9X9X9X9X9Xl.B.u 9X9X9X9X",
"9X9X9X9X5 5 9X9X9X9X9X9X9X9X9X9X9X9Xx B / ) _ F F B =     $ 5 =.-.=.=.X.2 j D / ( / F A x , 8 =.y.c.z.>.9X9X9X9X9X9X .>.r 9X9X9X9X",
"9X9X9X9X5 r 9X9X9X9X9X9X9X9X9X9X9X9X- C ` } { _ Z b * .     $ 1 4 1 4 < . : D ' } { / N x @ % 4 4 5 5 9X9X9X9X9X9X9X9X5 r 9X9X9X9X",
"9X9X9X9Xr 9X9X9X9X9X9X9X9X9X9X9X9X. = C ` { { ( Z b =       . o o o o o X : D ' } ] / B v # . o O 9X9X9X9X9X9X9X9X9X9X9Xr 9X9X9X9X",
"9X9X9X9X9X9X9X9X9X9X9X9X9X9X9X9X9X> j m C S D D Z m = .                 X j Z S S D A B c ; #     9X9X9X9X9X9X9X9X9X9X9X9X9X9X9X9X",
"9X9X9X9X9X9X9X9X9X9X9X9X9X9X9X9X9Xm b M S C C N M j @                   X & j l b A / ^ B n -     9X9X9X9X9X9X9X9X9X9X9X9X9X9X9X9X",
"9X9X9X9X9X9X9X9X9X9X9X9X9X9X9X9X9Xc n ^ ] ` D V k @                         = b Z / ] [ A b =   9X9X9X9X9X9X9X9X9X9X9X9X9X9X9X9X9X",
"9X9X9X9X9X9X9X9X9X9X9X9X9X9X9X9X9Xc c m M M m m k @                         * b n M M M m c ; 9X9X9X9X9X9X9X9X9X9X9X9X9X9X9X9X9X9X",
"9X9X9X9X9X9X9X9X9X9X9X9X9X9X9X9X9X9X9X9X9X9X- * # X                         X & & # & & 9X9X9X9X9X9X9X9X9X9X9X9X9X9X9X9X9X9X9X9X9X",
"9X9X9X9X9X9X9X9X9X9X9X9X9X9X9X9X9X9X9X9X9X9X9X.                                       9X9X9X9X9X9X9X9X9X9X9X9X9X9X9X9X9X9X9X9X9X9X",
"9X9X9X9X9X9X9X9X9X9X9X9X9X9X9X9X9X9X9X9X9X9X9X9X9X9X                            9X9X9X9X9X9X9X9X9X9X9X9X9X9X9X9X9X9X9X9X9X9X9X9X9X"
};
