/* XPM */
static char *result[] = {
/* columns rows colors chars-per-pixel */
"65 65 208 2 ",
"   c #000000",
".  c #090400",
"X  c #170800",
"o  c #0F001A",
"O  c #12001F",
"+  c #301500",
"@  c #261000",
"#  c #1C0036",
"$  c #140025",
"%  c #240727",
"&  c #582605",
"*  c #652D00",
"=  c #702C00",
"-  c #753200",
";  c #783300",
":  c #753800",
">  c #693100",
",  c #6C1F3B",
"<  c #612122",
"1  c #7C283A",
"2  c #2B004B",
"3  c #280047",
"4  c #2E0051",
"5  c #34015B",
"6  c #3D006B",
"7  c #390065",
"8  c #3F0070",
"9  c #73315D",
"0  c #590562",
"q  c #420274",
"w  c #4B0A73",
"e  c #46037B",
"r  c #48037E",
"t  c #4A097E",
"y  c #480877",
"u  c #530D79",
"i  c #55077E",
"p  c #481175",
"a  c #651677",
"s  c #6A1272",
"d  c #8D390F",
"f  c #8A362D",
"g  c #B84D00",
"h  c #B65002",
"j  c #A84E22",
"k  c #B57325",
"l  c #C35300",
"z  c #C56100",
"x  c #CF7900",
"c  c #DB7400",
"v  c #E06F00",
"b  c #E07200",
"n  c #8D0D4E",
"m  c #931454",
"M  c #9B1B5A",
"N  c #961659",
"B  c #8C1056",
"V  c #A01E5E",
"C  c #8D1D66",
"Z  c #952974",
"A  c #A52464",
"S  c #AC2B6B",
"D  c #A92368",
"F  c #B32F70",
"G  c #AF3070",
"H  c #A8367E",
"J  c #B43373",
"K  c #BA3676",
"L  c #BC3B7B",
"P  c #A12D76",
"I  c #C13E7E",
"U  c #BE407E",
"Y  c #C4851C",
"T  c #E48600",
"R  c #F6A300",
"E  c #F8A500",
"W  c #FEBB00",
"Q  c #FBC901",
"!  c #FFD000",
"~  c #39058F",
"^  c #4A0284",
"/  c #4D0B83",
"(  c #4E0389",
")  c #4F0B89",
"_  c #470386",
"`  c #51048D",
"'  c #510C8B",
"]  c #510E86",
"[  c #541385",
"{  c #53128B",
"}  c #59148C",
"|  c #4F0091",
" . c #540493",
".. c #560A95",
"X. c #570599",
"o. c #59069D",
"O. c #5A0B9B",
"+. c #580F97",
"@. c #561292",
"#. c #591596",
"$. c #5B149B",
"%. c #5D199C",
"&. c #5B1894",
"*. c #4E118D",
"=. c #64209A",
"-. c #5606A3",
";. c #5D06A3",
":. c #5D0BA2",
">. c #5E06A9",
",. c #5E14A1",
"<. c #610BA7",
"1. c #6007A9",
"2. c #620BAB",
"3. c #6115A4",
"4. c #621CA3",
"5. c #6513AD",
"6. c #661BAB",
"7. c #6A1CAE",
"8. c #6816AE",
"9. c #660DB0",
"0. c #6713B0",
"q. c #6916B2",
"w. c #6B1CB3",
"e. c #6E1CB8",
"r. c #711EB4",
"t. c #701EBB",
"y. c #6721AA",
"u. c #6923AE",
"i. c #6B25A8",
"p. c #732DAA",
"a. c #7631AB",
"s. c #7832AD",
"d. c #6D24B5",
"f. c #6F28B6",
"g. c #6F24B8",
"h. c #6F29B8",
"j. c #6721B2",
"k. c #7324B5",
"l. c #712BB4",
"z. c #7125BA",
"x. c #722ABA",
"c. c #7A2ABC",
"v. c #7933B4",
"b. c #7E39B5",
"n. c #7B33BE",
"m. c #7730BD",
"M. c #792DC1",
"N. c #7D35C1",
"B. c #7F39C0",
"V. c #8B318A",
"C. c #9A378A",
"Z. c #9B3C8C",
"A. c #AF3A81",
"S. c #823BBE",
"D. c #8039B4",
"F. c #9B458F",
"G. c #8841BF",
"H. c #C54282",
"J. c #CB4585",
"K. c #CC4A89",
"L. c #C94887",
"P. c #D44D8E",
"I. c #CD568E",
"U. c #D14D91",
"Y. c #DA5595",
"T. c #D75996",
"R. c #D25793",
"E. c #E45C9B",
"W. c #E85D98",
"Q. c #D66B9E",
"!. c #E2639F",
"~. c #E462A1",
"^. c #EB66A5",
"/. c #EE6AA9",
"(. c #E568A7",
"). c #F46CAC",
"_. c #F86AA6",
"`. c #EC72AC",
"'. c #E678AB",
"]. c #EE7FB1",
"[. c #FB73B2",
"{. c #FB7AB5",
"}. c #FA7CB7",
"|. c #8236C4",
" X c #843BC2",
".X c #893EC5",
"XX c #8C44C6",
"oX c #8D44C9",
"OX c #8F48C9",
"+X c #8740C4",
"@X c #924AC9",
"#X c #9045C9",
"$X c #9A52D3",
"%X c #944CD1",
"&X c #E987B6",
"*X c #FB83BA",
"=X c #FB8BBC",
"-X c #F586B7",
";X c #EF90BC",
":X c #FC94BF",
">X c #FC94C3",
",X c #FB9CC5",
"<X c #F79AC5",
"1X c #F9A4CA",
"2X c #F8A9CF",
"3X c #F8ADD0",
"4X c #F8B5D6",
"5X c None",
/* pixels */
"5X5X5X5X5X5X5X5X5X5X5X5X5X5X5X5X5X5X5X5X5X5X5X5X5X5X5X5X5X5X5X5X5X5X5X5X5X5X5X5X5X5X5X5X5X5X5X5X5X5X5X5X5X5X5X5X5X5X5X5X5X5X5X5X5X",
"5X5X5X5X5X5X5X5X5X5X5X5X5X5X5X5X5X5X5X5X5X5X5X5XL K L L L 5X5X5X5X5X5X5X5X5X5X5X5X5X5X5X5X5X5X5X5X5X5X5X5X5X5X5X5X5X5X5X5X5X5X5X5X",
"5X5X5X5X5X5X5X5X5X5X5X5X5X5X5X5X5X5X5X5X5X5X5XK.T.K H./.!.I G 5X5X5X5X5X5X5X5X5X5X5X5X5X5X5X5X5X5X5X5X5X5X5X5X5X5X5X5X5X5X5X5X5X5X",
"5X5X5X5X5X5X5X5X5X5X5X5X5X5X5X5X5X5X5X5X5X5X5XH.H.S K K.P.T.Y.J.5X5X5X5X5X5X5X5X5X5X5X5X5X5X5X5X5X5X5X5X5X5X5X5X5X5X5X5X5X5X5X5X5X",
"5X5X5X5X5X5X5X5X5X5X5X5X5X5X5X5X5X5X5X5X5X5X5X5XM 5X5Xm A Y.{.(.L.5X5X5X5X5X5X5X5X5X5X5X5X5X5X5X5X5X5X5X5X5X5X5X5X5X5X5X5X5X5X5X5X",
"5X5X5X5X5X5X5X5X5X5X5X5X5X5X5X5X5X5X5X5X5X5X5X5X5X5X5X5X5XS Q.:X^.H.5X5X5X5X5X5X5X5X5X5X5X5X5X5X5X5X5X5X5X5X5X5X5X5X5X5X5X5X5X5X5X",
"5X5X5X5X5X5X5X5X5X5X5X5X5X5X5X5X5X5X5X5X5X5X5X5X5X5X5X5XJ G K.'.*X~.S n m N 5X5X5X5X5X5X5X5X5X5X5X5X5X5X5X5X5X5X5X5X5X5X5X5X5X5X5X",
"5X5X5X5X5X5X5X5X5X5X5X5X5X5X5X5X5X5X5X5X5X5X5X5X5X5XJ L.~.(.R.(.<X`.S A K A M 5X5X5X5X5X5X5X5X5X5X5X5X5X5X5X5X5X5X5X5X5X5X5X5X5X5X",
"5X5X5X5X5X5X5X5X5X5X5X5X5X5X5X5X5X5X5X5X5X5X5X5X5XI K.H.P.&X`.(.'.R.K K.~.H.N n 5X5X5X5X5X5X5X5X5X5X5X5X5X5X5X5X5X5X5X5X5X5X5X5X5X",
"5X5X5X5X5X5X5X5X5X5X5X5X5X5X5X5X5X5X5X5X5X5X5X5XL P.).P.A.&X>X/.P.I P.).{.~.D B M 5X5X5X5X5X5X5X5X5X5X5X5X5X5X5X5X5X5X5X5X5X5X5X5X",
"5X5X5X5X5X5X5X5X5X5X5X5X5X5X5X5X5X5X5X5X5X5X5X5XI ~.[.{.;X,X<X-X^.Y.^.[.[./.P.D m 5X5X5X5X5X5X5X5X5X5X5X5X5X5X5X5X5X5X5X5X5X5X5X5X",
"5X5X5X5X5X5X5X5X5X5X5X5X5X5X5X5X5X5X5X5X5X5X5XJ L ~.{.=X&XR.&X,X{.).).[.Y.I Y.K n m 5X5X5X5X5X5X5X5X5X5X5X5X5X5X5X5X5X5X5X5X5X5X5X",
"5X5X5X5X5X5X5X5X5X5X5X5X5X5X5X5X5X5X5X5X5X5XI.I.I ~.>X>X&X'.&X>X/.Y.].*XE.Y.~.J V K 5X5X5X5X5X5X5X5X5X5X5X5X5X5X5X5X5X5X5X5X5X5X5X",
"5X5X5X5X5X5X5X5X5X5X5X5X5X5X5X5X5X5X5X5X5XF Q./.Y.'.1X2X2X1X1X<X/.Q.&X-X).[./.H.K I V 5X5X5X5X5X5X5X5X5X5X5X5X5X5X5X5X5X5X5X5X5X5X",
"5X5X5X5X5X5X5X5X5X5X5X5X5X5X5X5X5X5X5X5X5XS K._.{.>X2X4X4X1X1X,X<X>X-X{.[.[.[.E.H.S V 5X5X5X5X5X5X5X5X5X5X5X5X5X5X5X5X5X5X5X5X5X5X",
"5X5X5X5X5X5X5X5X5X5X5X5X5X5X5X5X5X5X5X5X5XB F E.-X,X1X1X1X,X:X-X=X}.[.[.[.[.).E.J M m 5X5X5X5X5X5X5X5X5X5X5X5X5X5X5X5X5X5X5X5X5X5X",
"5X5X5X5X5X5X5X5X5X5X5X5X5X5X5X5X5X5X5X5X5XC K.).{.*X=X:X,X:X:X=X{.{.{.{.*X(.V.a s 0 0 5X5X5X5X5X5X5X5X5X5X5X5X5X5X5X5X5X5X5X5X5X5X",
"5X5X5X5X5X5X5X5X5X5X5X5X5X5X5X5X5X5X5Xq ' a H W._._._.R.F.F.F.F.C.C.C.Z.Z.V.&.*.*.@.@.( 5X5X` ( 5X5X5X5X5X5X5X5X5X5X5X5X5X5X5X5X5X",
"5X5X5X5X5X5X5X5X5X5X5X5X5X5X5Xq e ^ q t k.$.a Z H H H s u / / / / / / / / { d.h.h.h.h.q./ ^ 9.;.r 5X5X5X5X5X5X5X5X5X5X5X5X5X5X5X5X",
"5X5X5X5X5X5X5X5X5X5X5X5X5X5Xq q O.2. ./ D.z.` e u u u &.j.f.j.f.d.j.j.j.w.j.g.x.g.h.c.d.) ^ 1.>.r q 5X5X5X5X5X5X5X5X5X5X5X5X5X5X5X",
"5X5X5X5X5X5X5X5X5X5X5X5X5X^  .q p.|.%.u D.|.3.:.l.b.b.b.oXoXoXoX#XXXN.z.e.0.2.2.9.6.h.h.) ^ 1.;.r ^  .5X5X5X5X5X5X5X5X5X5X5X5X5X5X",
"5X5X5X5X5X5X5X5X5X5X5X5X5X( -.e a.%Xi.t b.#Xc.d.m.B.B.N.n.n.k.r.r.r.5.O.) ^ ^ _ :.6.$.y.,.O.w.;.r ` X.6 5X5X5X5X5X5X5X5X5X5X5X5X5X",
"5X5X5X5X5X5X5X5X5X5X5X5X5X..( ( v.$Xa.t l.@XXXB.B.c.h.c.|..XM.c.z.e.q.O.e 6 7 6 ] [ y y.M.q.g.,.r ` ;.^ 5X5X5X5X5X5X5X5X5X5X5X5X5X",
"5X5X5X5X5X5X5X5X5X5X5X5X%.%.t :.|.$Xv.) %.B.OX@X Xg.w.d.s.s.a.a.p.4.,.$.( e e t 8 q _ ,.h.x.x.f./ ( 2.o.e 5X5X5X5X5X5X5X5X5X5X5X5X",
"5X5X5X5X5X5X5X5X5X5X5X5X4.%.y y..X$XS.O.e %.B.XXm.8.2.$.[ u [ [ ] / t / ` O.>.;.^ e  .) %.c.m.G.{ ^ 2.;.e 5X5X5X5X5X5X5X5X5X5X5X5X",
"5X5X5X5X5X5X5X5X5X5X5X5Xy.%.t y..X@XXXw.e 8 %.m.x.j.w.k.a.a.p.a.s.p.4.%.6.w.2.1.` ^ X.r %.x.m.G.} ( 2.;.e 5X5X5X5X5X5X5X5X5X5X5X5X",
"5X5X5X5X5X5X5X5X5X5X5X5X,.%./ y.n.XXXXd.t 7 / 0.e.g.h.N.@X$X@X@X@X@XXXN.x.d.w.2.( ^ ;.%.@.,.N.G.[ ^ 2.;.q 5X5X5X5X5X5X5X5X5X5X5X5X",
"5X5X5X5X5X5X5X5X5X5X5X5X4.%._ y.g. XXXf.r q ( (  .6.g.m.XX@X@XOX@X@X#XN.d.x.z.5.( r <.q./ / N.XX} ^ 9.2./ 5X5X5X5X5X5X5X5X5X5X5X5X",
"5X5X5X5X5X5X5X5X5X5Xq O.z.%.t y.g.n.+Xd.t ` X./ e  .5.d.c.+XOXOXOX@XOX Xx.x.z.5.( e ;.2.) @.m.G.[ ^ q.g.<.^ 5X5X5X5X5X5X5X5X5X5X5X",
"5X5X5X5X5X5X5X5X5X5Xq 4.M.$.t y.x.x.M.u.t  .5.3.O.^  .5.d.m..XOX@XOX#XOXB.x.g.5.^ ^ <.w.3.3.x.f./ / q.g.2.^ 5X5X5X5X5X5X5X5X5X5X5X",
"5X5X5X5X5X5X5X5X5X5Xq y.g.O.e y. Xn.x.j.t ` q.M.w.O.^ @.d.h.x.XXOX@X#X@X Xz.3. .( o.w.h.q.0.x.j./ ( q.g.2.^ 5X5X5X5X5X5X5X5X5X5X5X",
"5X5X5X5X5X5X5X5X5X5Xq i.3.( #.d.B.n.M.y.t ( 0.x.x.w.$.$.6.h.x.x.+X@X@X@X+Xg.;.e ( 0.x.g.$.:.c.v./ ( q.g.2.^ 5X5X5X5X5X5X5X5X5X5X5X",
"5X5X5X5X5X5X5X5X5X5Xr 6.' ) d.x.h.g.x.u.y  .q.g.d.g.x.w.5.w.z.d.l.+XOXXXn.g.:.r ( w.x.f.' ) N.+X[ _ q.z.2.^ 5X5X5X5X5X5X5X5X5X5X5X",
"5X5X5X5X5X5X5X5X5X_ :.2./ ] h.x.d.g.M.u./ ( 5.d.5.w.h.x.d.5.w.h.d.n.XXS.x.z.:.^ { x.M.j.) / N.G.[ _ q.d.2.^ 5X5X5X5X5X5X5X5X5X5X5X",
"5X5X5X5X5X5X5X5X^ <.d.9.^ / d.x.x.x.x.d.:.^ @.d.d.0.w.x.d.d.d.x.d.x..Xn.l.z.:.^ #.x.z.3./ ] c.f.) ( q.g.2.^ 5X5X5X5X5X5X5X5X5X5X5X",
"5X5X5X5X5X5X5X5X( 5.g.0.^ / d.x.n.n.x.g.9.e { d.x.w.w.l.x.x.h.x.f.x.m.m.x.j.` ^ 3.x.z.<.^ ' h.h.X.X.q.x.w.:.5X5X5X5X5X5X5X5X5X5X5X",
"5X5X5X5X5X5X5X5X^ 2.l.:.( %.f.x.n.n.l.g.2.^ { l.x.h.d.d.l.z.l.d.x.n.x.g.z.3.y O.g.h.g.#.^ $.x.x.w.O.O.d.g.0.( 5X5X5X5X5X5X5X5X5X5X",
"5X5X5X5X5X5X5X5X( q.d.t @.l.x.h.n.x.x.d.<.^ ' j.x.x.5.0.x.x.g.x.n. Xc.d.q. ./ ,.M.h.6._ ` w.f.x.g.@.^ :.g.w. .5X5X5X5X5X5X5X5X5X5X",
"5X5X5X5X5X5X5X5X@.w.:.y %.x.x.l. XN.h.h.5.r _ 5.x.x.0.3.j.x.z.n. Xn.x.w. .e X.d.m.g.:.e $.x.x.x.x.6.( / y.h.q.| 5X5X5X5X5X5X5X5X5X",
"5X5X5X5X5X5X5X5X6.7./ $.u.x.g.x.XX Xh.h.w.] ^ >.g.x.q.o.@.u.x.n.n.h.g.0.( e :.g.h.w.O.e %.M.x. Xn.e.5.` ] y.g.o.q 5X5X5X5X5X5X5X5X",
"5X5X5X5X5X5X6 O.z.d.&.j.l.w.x.n.XXXXn.x.l.,.(  .5.d.g.:.( @.u.x.h.x.w.O.` $.6.d.d.0.o.r &.x.n.oXn.h.d.;.8 %.c.k.^ 5X5X5X5X5X5X5X5X",
"5X5X5X5X5X5X5X6.u.y.h.x.5.2.x.XXOX#X+Xx.x.w.` e ;.z.x.z.O.q { 4.y.%..._ @.h.x.x.q.;. ./ 4.x.c.XXB.x.w.:.) 3. X Xk.^ 5X5X5X5X5X5X5X",
"5X5X5X5X5Xq O.z.%./ d.x.5.5.x.oX@X@XXXx.l.x.%.r  .w.x.g.<.r q r e q e  .6.z.h.x.w. .e X.w.x.n.OXOXn.d.d.3.q.z.n..Xw.^ 5X5X5X5X5X5X",
"5X5X5X5X5Xe 6.x.d.y.f.x.0.2.x.XX@XOXOXG.x.x.w. .^ O.w.x.w.:. .X.O.X.X.5.z.f.x.x.q. .r 4.x.n.XX@X#XS.g.h.g.0.6.x.n..Xr.` 5X5X5X5X5X",
"5X5X5X5X5X..d.x.x.x.x.q.8.w.x.oXOXOX@XXXc.f.x.q...^ ..w.h.g.r.w.e.w.d.g.x.x.x.q.O.^ ..j.c.B.@X@X#XXXn.f.z.w.5.0.l.OX#Xr.( 5X5X5X5X",
"5X5X^ ( %.q.d.x.h.x.x.<.q.l.x.|.XX@X@XOX Xx.h.x.q.` ^ O.h.c.x.x.h.x.n.m.g.h.z.2. .` 2.e.x.N.OXOX@X@X+Xh.l.x.d.0.x.|.@X.Xk.=.' ( ( ",
"5Xq  .e.x.x.x.d.x.g.d.2.q.x.l.l.G.@XOXOX@X+Xx.x.d.q.' @.w.d.d.x.c.n. Xn.h.x.w.:.o.1.1.d.x.n.@X@X@XOX+Xx.x.h.z.h.d.d.S.oX@X@Xk.9.1.",
"5Xq  .w.x.d.x.x.l.d.<.>.8.x.x.x.S.XXOXOXOXOXn.x.x.g.f.6.2.2.d.n.XXXXn.f.x.g.<./ ` 1.2.d.x.n.OXOXOX@X#XXXx.d.h.l.x.x.x..X@X#X#Xk. .",
"5X5X5X..2.0.l.x.d.2.1.1.q.x.x.f.m.x.B.OXn.n.m.h.h.x.x.g.d.n..X Xn.m.x.z.d.2.;.o.o.>.<.d.x.x.m.n.XXOXOXXXx.l.z.g.x..XXXXX.Xr.r.O.5X",
"5X5X5X5X .1.0.q.2.;.1.;.8.x.x.x.g.d.x.n.x.f.h.d.w.d.h.h.c.B. Xm.d.g.l.w.O.` ;.9.1.1.1.5.d.h.d.g.n.S.S.n.x.d.x.f.x.n.M.c.7.( ^ 5X5X",
"5X5X5X5X5X . .;.<.1.<.>.5.w.f.h.h.h.h.g.d.w.e.0.<.5.w.d.x.g.d.z.x.f.w.5. .` o.1.<.1.>.1.5.d.w.w.d.d.d.l.x.x.x.d.d.w.:.( 5X5X5X5X5X",
"5X5X5X5X5X8 6 ` ;.;.;.;.;.5.g.d.d.g.g.w.:.-.-.;.1.1.>.5.d.d.d.d.d.d.2.1.1.;.;.:.-.;.-.-.>.<.1.<.w.z.d.g.g.d.d.w.;.o.^ 6 5X5X5X5X5X",
"5X5X5X5X5X5X5X5Xe e e e  .<.2.<.<.1.0.:.i w w w ;.1.;.<.2.2.<.2.2.2.1.2.X.q q q y w p p +.>.>.<.<.2.<.1.2.2.2.O.e e 5X5X5X5X5X5X5X",
"5X5X5X5X5X5X5X5X5X5X5X5X5X^ ^ ^ ^ ^ | i f f d 9 u ( _  .1.2.1.1.1.1.1.o.5 $ % < f j k k 9 ~ _ _ ^ ^ ^ ^ ^ _ ^ 5X5X5X5X5X5X5X5X5X5X",
"5X5X5X5X5X5X5X5X5X5X5X5X5X5X5X5X5X5X5X5X& * > & % # # 5 ( X. . . . . .5 o   X ; c R ! ! Y 1 , 5X5X5X5X5X5X5X5X5X5X5X5X5X5X5X5X5X5X",
"5X5X5X5X5X5X5X5X5X5X5X5X5X5X5X5X5X5X5X5X              O 2 4 2 2 2 4 2 O     X = T W Q ! Q T h 5X5X5X5X5X5X5X5X5X5X5X5X5X5X5X5X5X5X",
"5X5X5X5X5X5X5X5X5X5X5X5X5X5X5X5X5X5X5X                                      X ; b E E E R x d 5X5X5X5X5X5X5X5X5X5X5X5X5X5X5X5X5X5X",
"5X5X5X5X5X5X5X5X5X5X5X5X5X5X5X5X5X5X                                        X - h z c v z : X   5X5X5X5X5X5X5X5X5X5X5X5X5X5X5X5X5X",
"5X5X5X5X5X5X5X5X5X5X5X5X5X5X5X5X5X                                          . + ; g l l = X     5X5X5X5X5X5X5X5X5X5X5X5X5X5X5X5X5X",
"5X5X5X5X5X5X5X5X5X5X5X5X5X5X5X5X5X5X                                            @ * * & @       5X5X5X5X5X5X5X5X5X5X5X5X5X5X5X5X5X",
"5X5X5X5X5X5X5X5X5X5X5X5X5X5X5X5X5X5X5X                                                        5X5X5X5X5X5X5X5X5X5X5X5X5X5X5X5X5X5X",
"5X5X5X5X5X5X5X5X5X5X5X5X5X5X5X5X5X5X5X5X                                                    5X5X5X5X5X5X5X5X5X5X5X5X5X5X5X5X5X5X5X",
"5X5X5X5X5X5X5X5X5X5X5X5X5X5X5X5X5X5X5X5X5X5X                                          5X5X5X5X5X5X5X5X5X5X5X5X5X5X5X5X5X5X5X5X5X5X",
"5X5X5X5X5X5X5X5X5X5X5X5X5X5X5X5X5X5X5X5X5X5X5X5X5X5X                            5X5X5X5X5X5X5X5X5X5X5X5X5X5X5X5X5X5X5X5X5X5X5X5X5X",
"5X5X5X5X5X5X5X5X5X5X5X5X5X5X5X5X5X5X5X5X5X5X5X5X5X5X                          5X5X5X5X5X5X5X5X5X5X5X5X5X5X5X5X5X5X5X5X5X5X5X5X5X5X"
};
