/* XPM */
static char *result[] = {
/* columns rows colors chars-per-pixel */
"32 32 151 2 ",
"   c #000000",
".  c #0B0400",
"X  c #0F0800",
"o  c #100800",
"O  c #0A0011",
"+  c #3E1A00",
"@  c #1D0032",
"#  c #1B003B",
"$  c #3D1122",
"%  c #441B00",
"&  c #491D00",
"*  c #662800",
"=  c #7B2B22",
"-  c #722430",
";  c #2C004D",
":  c #2E0050",
">  c #3C006E",
",  c #5F065F",
"<  c #4E0577",
"1  c #46017C",
"2  c #49037F",
"3  c #440277",
"4  c #6F0E65",
"5  c #621A70",
"6  c #A05300",
"7  c #A44823",
"8  c #BA7722",
"9  c #CE6700",
"0  c #ED7B00",
"q  c #9D1956",
"w  c #961657",
"e  c #8A1862",
"r  c #A62365",
"t  c #AD2C6C",
"y  c #B63172",
"u  c #BD3D7C",
"i  c #C13976",
"p  c #C03E7E",
"a  c #F29F00",
"s  c #FFA600",
"d  c #FFDB00",
"f  c #4B0384",
"g  c #4E0B87",
"h  c #4E0289",
"j  c #500886",
"k  c #51058E",
"l  c #530B8B",
"z  c #5B198F",
"x  c #5A148E",
"c  c #49009F",
"v  c #550695",
"b  c #550B93",
"n  c #580E97",
"m  c #56059A",
"M  c #5A059D",
"N  c #590A9A",
"B  c #571096",
"V  c #591496",
"C  c #56139C",
"Z  c #5C159B",
"A  c #5E1A9E",
"S  c #621D8C",
"D  c #631D95",
"F  c #7D2B8C",
"G  c #68249D",
"H  c #4C00A0",
"J  c #5405A2",
"K  c #5E06A5",
"L  c #5E0BA2",
"P  c #5E07AC",
"I  c #5F14A1",
"U  c #591AA2",
"Y  c #600CA6",
"T  c #6206AC",
"R  c #630BAC",
"E  c #6214A4",
"W  c #621BA3",
"Q  c #6514AC",
"!  c #661BAC",
"~  c #681BAD",
"^  c #650CB0",
"/  c #6714B0",
"(  c #6917B2",
")  c #6219B1",
"_  c #6A1CB3",
"`  c #6E1DB9",
"'  c #6622A5",
"]  c #6621AA",
"[  c #6A23AC",
"{  c #7328AC",
"}  c #7A35AF",
"|  c #6E24B5",
" . c #6F2DB7",
".. c #6F23B8",
"X. c #6F29B8",
"o. c #6422B3",
"O. c #722AB6",
"+. c #7125BA",
"@. c #722ABB",
"#. c #7A2DBD",
"$. c #7824BC",
"%. c #7630B5",
"&. c #7730BB",
"*. c #7B33BE",
"=. c #7D2AC0",
"-. c #762BC1",
";. c #7B33C1",
":. c #7F38C2",
">. c #802588",
",. c #822A8A",
"<. c #B73F84",
"1. c #813BBF",
"2. c #C43F82",
"3. c #B74589",
"4. c #BD4893",
"5. c #C94686",
"6. c #D24C8D",
"7. c #DD5494",
"8. c #DF5F9D",
"9. c #D75493",
"0. c #E85B96",
"q. c #E15F9D",
"w. c #E0639F",
"e. c #EA609D",
"r. c #EC64A6",
"t. c #ED68A6",
"y. c #E567A2",
"u. c #F66DAE",
"i. c #E67DAE",
"p. c #EC78AD",
"a. c #EB73AB",
"s. c #ED7CB0",
"d. c #FF74B3",
"f. c #FC78B5",
"g. c #843CC3",
"h. c #883FC6",
"j. c #8640C4",
"k. c #8B43C5",
"l. c #8E45CA",
"z. c #934BCA",
"x. c #E080B0",
"c. c #FD87BC",
"v. c #F484B7",
"b. c #FF94BE",
"n. c #F390BD",
"m. c #FF92C3",
"M. c #FA9BC6",
"N. c #FFA5CA",
"B. c #F9AACE",
"V. c #FAB2D4",
"C. c None",
/* pixels */
"C.C.C.C.C.C.C.C.C.C.C.p 6.5.C.C.C.C.C.C.C.C.C.C.C.C.C.C.C.C.C.C.",
"C.C.C.C.C.C.C.C.C.C.C.r t 6.8.C.C.C.C.C.C.C.C.C.C.C.C.C.C.C.C.C.",
"C.C.C.C.C.C.C.C.C.C.C.C.C.t p.w.C.C.C.C.C.C.C.C.C.C.C.C.C.C.C.C.",
"C.C.C.C.C.C.C.C.C.C.C.C.2.w.y.a.y u w C.C.C.C.C.C.C.C.C.C.C.C.C.",
"C.C.C.C.C.C.C.C.C.C.C.6.r.x.c.6.r.u.r C.C.C.C.C.C.C.C.C.C.C.C.C.",
"C.C.C.C.C.C.C.C.C.C.u 9.m.i.n.t.f.7.5.q C.C.C.C.C.C.C.C.C.C.C.C.",
"C.C.C.C.C.C.C.C.C.C.y.s.V.B.M.i.v.d.0.i q C.C.C.C.C.C.C.C.C.C.C.",
"C.C.C.C.C.C.C.C.C.4 0.m.N.N.b.c.f.d.4.e , C.C.C.C.C.C.C.C.C.C.C.",
"C.C.C.C.C.C.C.C.3 S <.7.3.F F >.,.F C U C 2 v C.C.C.C.C.C.C.C.C.",
"C.C.C.C.C.C.2 ~ l &.h S D @. . .o.) ` ..@.f T 2 C.C.C.C.C.C.C.C.",
"C.C.C.C.C.f b l.z k.#.g.:.g.#.$.Q 2 3 n W Q Q f k C.C.C.C.C.C.C.",
"C.C.C.C.C.C n z.Z [ z.+.~ G G Z k f f 3 l X.%.j P C.C.C.C.C.C.C.",
"C.C.C.C.C.V D z.O.> _ +.| } } } ' _ ^ h k U j.l K C.C.C.C.C.C.C.",
"C.C.C.C.f A C g.%.3 h N #.l.z.z.k.X._ f R g 1.l / f C.C.C.C.C.C.",
"C.C.C.C.Z W V ;.[ k ~ k n #.k.z.l.&.Q f Q Q O.f ` N C.C.C.C.C.C.",
"C.C.C.C.Z n [ ;.[ f +.| Z _ X.k.z.=.h n #.C *.j ` v C.C.C.C.C.C.",
"C.C.C.f R g @.X.| h o._ X._ | &.k.+.h W ..g *.j ` b C.C.C.C.C.C.",
"C.C.C.E ~ g #.*...k ' ..| X.X.@.&.| h X.) g @.m _ Q C.C.C.C.C.C.",
"C.C.C.Q k ] @.&...k I @.Q @.@.:.X.v B -.l I @.! k +.k C.C.C.C.C.",
"C.C.f ~ B X.#.j.@.B m @.L A ;.;.( f ( +.h ] :.@.N V ( C.C.C.C.C.",
"C.C.I ' +.Q g.z.&._ f ~ ..f l V h ! @.R f ] j.:.Q n g.E C.C.C.C.",
"C.f @.] | Q g.z.h.@.Z k | Q m v I @.@.v B =.l.k.@._ _ g.W C.C.C.",
"l ! @.@.( | *.z.z.*.+.N b @.X.#.*.@.~ v ( &.z.z.*.@.( &.l.{ l v ",
"Q @.@._ Y | O.j.k.k.#.+.! ( ;.g.#...m M ( &.k.z.k.@.+.@.g.z.=.f ",
"C.K ( R T | @.X.*.@..._ @.;.:.X.| m P R Q ..@.*.:.@.X.#.#.Z f C.",
"C.C.f M m Q ..` _ J J T / | _ _ T M m H H P R _ _ | ` N 3 C.C.C.",
"C.C.C.C.C.f f h < = - 2 h T T T K # $ 7 8 5 h h f f f C.C.C.C.C.",
"C.C.C.C.C.C.C.C.C.X .   O ; ; : @   % s d a C.C.C.C.C.C.C.C.C.C.",
"C.C.C.C.C.C.C.C.                    + 9 0 6 X C.C.C.C.C.C.C.C.C.",
"C.C.C.C.C.C.C.C.                      & * .   C.C.C.C.C.C.C.C.C.",
"C.C.C.C.C.C.C.C.C.                          C.C.C.C.C.C.C.C.C.C.",
"C.C.C.C.C.C.C.C.C.C.C.C.              C.C.C.C.C.C.C.C.C.C.C.C.C."
};
