/* XPM */
static char *result[] = {
/* columns rows colors chars-per-pixel */
"32 32 157 2 ",
"   c #000000",
".  c #120602",
"X  c #150900",
"o  c #10001C",
"O  c #381600",
"+  c #3B1C00",
"@  c #22041B",
"#  c #110020",
"$  c #1A0035",
"%  c #7C3800",
"&  c #3E006C",
"*  c #63175C",
"=  c #762A51",
"-  c #47007F",
";  c #4C027D",
":  c #48087C",
">  c #460273",
",  c #771A72",
"<  c #7B1C78",
"1  c #8D3804",
"2  c #983A18",
"3  c #8F4400",
"4  c #AC5226",
"5  c #CC6403",
"6  c #D56D02",
"7  c #DF7E00",
"8  c #961656",
"9  c #951759",
"0  c #991A5A",
"q  c #831361",
"w  c #86247A",
"e  c #A62464",
"r  c #AB296A",
"t  c #B63373",
"y  c #BA3077",
"u  c #BD3B7B",
"i  c #8D4E44",
"p  c #C1407F",
"a  c #D0467F",
"s  c #DC8403",
"d  c #E68200",
"f  c #FB9200",
"g  c #FFCC00",
"h  c #FFD900",
"j  c #4B0284",
"k  c #4D0A83",
"l  c #4E038A",
"z  c #530886",
"x  c #51048D",
"c  c #520B8D",
"v  c #53118C",
"b  c #530493",
"n  c #550C92",
"m  c #580C97",
"M  c #55049A",
"N  c #59059D",
"B  c #570A98",
"V  c #5B0C9C",
"C  c #5B0493",
"Z  c #551294",
"A  c #5A1695",
"S  c #5D139C",
"D  c #5D189B",
"F  c #53149A",
"G  c #610D80",
"H  c #611F93",
"J  c #631C9D",
"K  c #622093",
"L  c #652298",
"P  c #6A269E",
"I  c #5200A7",
"U  c #5D05A4",
"Y  c #5E0CA3",
"T  c #5F06A8",
"R  c #5706B1",
"E  c #5A03B0",
"W  c #6007AB",
"Q  c #6209AC",
"!  c #621BA3",
"~  c #6514AD",
"^  c #6916AE",
"/  c #651CAA",
"(  c #681FAD",
")  c #650AB0",
"_  c #6613B1",
"`  c #6812B3",
"'  c #6B1CB3",
"]  c #6C1EB9",
"[  c #671BB3",
"{  c #711DB5",
"}  c #6522A4",
"|  c #6824A7",
" . c #6622A8",
".. c #6B23AC",
"X. c #6E29AE",
"o. c #712BAD",
"O. c #7431A8",
"+. c #7831AF",
"@. c #6D24B4",
"#. c #6B28B1",
"$. c #6F24B8",
"%. c #6F28B8",
"&. c #7223B7",
"*. c #742BB1",
"=. c #7126BA",
"-. c #732ABA",
";. c #7A2BBA",
":. c #792DB6",
">. c #7B34B6",
",. c #7E38B5",
"<. c #7732BB",
"1. c #7C34BD",
"2. c #7E34C1",
"3. c #852480",
"4. c #8033BE",
"5. c #8139BB",
"6. c #C74484",
"7. c #CB4786",
"8. c #D34987",
"9. c #D24D8D",
"0. c #CF589E",
"q. c #D45791",
"w. c #D85996",
"e. c #DB5998",
"r. c #D55597",
"t. c #E45D9D",
"y. c #E1609E",
"u. c #EF629E",
"i. c #CF6AA5",
"p. c #D370A7",
"a. c #EB64A4",
"s. c #E36CA4",
"d. c #F46AA9",
"f. c #E475A9",
"g. c #F071AB",
"h. c #FF76AF",
"j. c #F77CAF",
"k. c #FB73B3",
"l. c #8235C3",
"z. c #833CC3",
"x. c #893DC6",
"c. c #8C3FC8",
"v. c #8B43C6",
"b. c #8D40C9",
"n. c #9047C8",
"m. c #944CCB",
"M. c #F380B7",
"N. c #F586B9",
"B. c #FE86BB",
"V. c #F788BB",
"C. c #F888BB",
"Z. c #ED91BD",
"A. c #FF8CC0",
"S. c #FF96C1",
"D. c #FB9BC5",
"F. c #FDB3D4",
"G. c None",
/* pixels */
"G.G.G.G.G.G.G.G.G.G.G.G.G.u u 9.G.G.G.G.G.G.G.G.G.G.G.G.G.G.G.G.",
"G.G.G.G.G.G.G.G.G.G.G.G.G.G.r f.t.G.G.G.G.G.G.G.G.G.G.G.G.G.G.G.",
"G.G.G.G.G.G.G.G.G.G.G.G.G.G.7.q.A.t e 0 G.G.G.G.G.G.G.G.G.G.G.G.",
"G.G.G.G.G.G.G.G.G.G.G.G.6.y M.C.e.9.r.e G.G.G.G.G.G.G.G.G.G.G.G.",
"G.G.G.G.G.G.G.G.G.G.G.G.6.k.f.D.g.a.t.t.8 G.G.G.G.G.G.G.G.G.G.G.",
"G.G.G.G.G.G.G.G.G.G.G.q.w.D.Z.C.s.C.a.d.t e G.G.G.G.G.G.G.G.G.G.",
"G.G.G.G.G.G.G.G.G.G.G.8.B.F.F.D.S.B.k.k.6.8 G.G.G.G.G.G.G.G.G.G.",
"G.G.G.G.G.G.G.G.G.G.> 6.h.j.p.i.0.r.d.a.a q G.G.G.G.G.G.G.G.G.G.",
"G.G.G.G.G.G.G.G.x k | G w < v F F F < w , J n N x G.G.G.G.G.G.G.",
"G.G.G.G.G.G.G.l >.J ,.[ #.<.z.z.l.%.F Z M -.J Y x x G.G.G.G.G.G.",
"G.G.G.G.G.G.l l v.| o.m.4.$.1.<.( ~ j & : k -.=.c N G.G.G.G.G.G.",
"G.G.G.G.G.G.D l c.>.j >.:.~ A K K v m Q l j D *.c Q x G.G.G.G.G.",
"G.G.G.G.G.G.D l ;.4.j l #.%.z.m.m.v.-._ x S c +.Y ] l G.G.G.G.G.",
"G.G.G.G.G.l ( l ;.;.j j / -.-.2.m.m.z.Q x ! V O.b ' ; G.G.G.G.G.",
"G.G.G.G.G.v #.j -.;.j N c =.=.$.5.m.4.N c ~ V } x / G.G.G.G.G.G.",
"G.G.G.G.G.G...b | &.j T j ! -.%.;.b.&.b ! Y v X.x / G.G.G.G.G.G.",
"G.G.G.G.G.G.*.n  .@.j W U Y %.-.%.z.Q j %.S A ,.x ( G.G.G.G.G.G.",
"G.G.G.G.G.G.! b  .^ j T ' [ ' %.%.-.N A [ j <.1.l S G.G.G.G.G.G.",
"G.G.G.G.G.j ' x ! =.m x $.=.@.=.-._ b | [ l z.v.l B c G.G.G.G.G.",
"G.G.G.G.G.j _ N ..1.V l =.-.$.1.1.U V 2.n ! z.m._ l l G.G.G.G.G.",
"G.G.G.G.G.j Q U -.v.Y l @.@.$.<.[ j  .=.l ! 2.m.;.j c G.G.G.G.G.",
"G.G.G.G.G.j U j $.v.-.j Y @.@.~ B ! 1.=.Y ..%.v.;.b A Z G.G.G.G.",
"G.G.G.G.G.*.T U [ z.x.l Y -.@.@.@.v.-.B D -.%.v.&.T b Y G.G.G.G.",
"G.G.G.G.L { T Q ~ z.x.M n -.%.2.z.' _ ! %.-.%.1.~ W T V | G.G.G.",
"G.G.G.Z l.U M U Q =.@.W U ' -.<.' T Q ` ] ] ' ' W W Q U ' 1.Z & ",
"G.G.> ^ Y G.G.G.U Q z ; I R _ _ W Q N ; ; ; b E C j j x W ~ n & ",
"G.G.G.G.G.G.G.G.G.G.2 6 i = C N N N $ . 5 s 4 * G.G.G.G.G.G.G.G.",
"G.G.G.G.G.G.G.G.G.G.1 f h d @ # # o   . 7 g 6 G.G.G.G.G.G.G.G.G.",
"G.G.G.G.G.G.G.G.G.  X % 3 +             + 3 O   G.G.G.G.G.G.G.G.",
"G.G.G.G.G.G.G.G.G.                              G.G.G.G.G.G.G.G.",
"G.G.G.G.G.G.G.G.G.G.                          G.G.G.G.G.G.G.G.G.",
"G.G.G.G.G.G.G.G.G.G.G.G.                    G.G.G.G.G.G.G.G.G.G."
};
