/* XPM */
static char *result[] = {
/* columns rows colors chars-per-pixel */
"65 65 207 2 ",
"   c #000000",
".  c #050009",
"X  c #1A0B00",
"o  c #190905",
"O  c #230F00",
"+  c #2B1300",
"@  c #160027",
"#  c #250726",
"$  c #542300",
"%  c #632700",
"&  c #692900",
"*  c #712730",
"=  c #310057",
"-  c #390557",
";  c #2A005D",
":  c #3E006C",
">  c #3A0166",
",  c #3F0371",
"<  c #6C1B5D",
"1  c #691C44",
"2  c #6F2242",
"3  c #430275",
"4  c #46027A",
"5  c #49037E",
"6  c #4B0B7E",
"7  c #450978",
"8  c #520D7C",
"9  c #4E036A",
"0  c #691479",
"q  c #6B1271",
"w  c #853A01",
"e  c #8A3E00",
"r  c #953929",
"t  c #82363A",
"y  c #A13F28",
"u  c #8A4400",
"i  c #9E4401",
"p  c #A74809",
"a  c #B4500F",
"s  c #99502E",
"d  c #A04120",
"f  c #C25600",
"g  c #D16A05",
"h  c #E47C00",
"j  c #E87F00",
"k  c #F47D00",
"l  c #921353",
"z  c #9B1B5B",
"x  c #94185B",
"c  c #8B155B",
"v  c #822942",
"b  c #9E1C61",
"n  c #A21F63",
"m  c #8C2472",
"M  c #982C7C",
"N  c #932672",
"B  c #A32362",
"V  c #AA2969",
"C  c #B12C6B",
"Z  c #B53474",
"A  c #BC3A7A",
"S  c #B93376",
"D  c #B12D73",
"F  c #C13E7E",
"G  c #824842",
"H  c #CE447F",
"J  c #EC8300",
"K  c #EA8901",
"L  c #F88B00",
"P  c #F49900",
"I  c #FDBC00",
"U  c #FCB500",
"Y  c #F6AF00",
"T  c #FDC900",
"R  c #FED600",
"E  c #460282",
"W  c #4B0384",
"Q  c #4D0B83",
"!  c #4E038B",
"~  c #4D0A89",
"^  c #42078E",
"/  c #51048D",
"(  c #520B8C",
")  c #510F83",
"_  c #521183",
"`  c #53118C",
"'  c #5A178B",
"]  c #490291",
"[  c #540593",
"{  c #550A93",
"}  c #56059A",
"|  c #59069D",
" . c #5B0B9D",
".. c #580C96",
"X. c #561392",
"o. c #591695",
"O. c #5C1996",
"+. c #5B149B",
"@. c #5D199C",
"#. c #60189B",
"$. c #632298",
"%. c #5D06A4",
"&. c #5D0AA3",
"*. c #5E05AA",
"=. c #5C09A9",
"-. c #5F11A3",
";. c #5C12A8",
":. c #600BA6",
">. c #6007A9",
",. c #620AAA",
"<. c #6213A5",
"1. c #631DA4",
"2. c #6513AD",
"3. c #6914AE",
"4. c #651DAB",
"5. c #681EAD",
"6. c #650BB0",
"7. c #6714B0",
"8. c #6916B1",
"9. c #6B1CB4",
"0. c #6D1BB8",
"q. c #6719B1",
"w. c #711EB4",
"e. c #731FB8",
"r. c #6B26A4",
"t. c #6621A9",
"y. c #6A23AD",
"u. c #6E29AC",
"i. c #6520A7",
"p. c #722DA6",
"a. c #732DAC",
"s. c #7834AE",
"d. c #6D24B6",
"f. c #6E28B6",
"g. c #6F25B8",
"h. c #6F28B8",
"j. c #6721B1",
"k. c #7224B6",
"l. c #7125BA",
"z. c #722ABA",
"x. c #7A2CBB",
"c. c #752BB7",
"v. c #7B34B2",
"b. c #7D38B2",
"n. c #7B33BD",
"m. c #7934BA",
"M. c #762DC2",
"N. c #7A2FC3",
"B. c #7D35C1",
"V. c #7F39C0",
"C. c #852C83",
"Z. c #863586",
"A. c #833CBB",
"S. c #8238BB",
"D. c #C43B80",
"F. c #BA488C",
"G. c #C44281",
"H. c #CD4A8A",
"J. c #CB4688",
"K. c #D44C8C",
"L. c #D3508F",
"P. c #DA5392",
"I. c #D85A95",
"U. c #CD508C",
"Y. c #E25C9C",
"T. c #E65A95",
"R. c #D9629B",
"E. c #EA629B",
"W. c #F3639E",
"Q. c #DE6DA4",
"!. c #EB64A4",
"~. c #E86BA5",
"^. c #F36DAC",
"/. c #F466A3",
"(. c #ED72AC",
"). c #E573A9",
"_. c #F170AC",
"`. c #EF79B1",
"'. c #FB73B2",
"]. c #F779B4",
"[. c #8235C3",
"{. c #843BC2",
"}. c #893DC5",
"|. c #863DC9",
" X c #893FC9",
".X c #812FC3",
"XX c #8740C4",
"oX c #8B43C6",
"OX c #8D45C8",
"+X c #924BCA",
"@X c #9047C8",
"#X c #9A52D2",
"$X c #964FCF",
"%X c #ED87B6",
"&X c #FB85BA",
"*X c #FC8DBD",
"=X c #F686B9",
"-X c #FD92BE",
";X c #FB93C2",
":X c #F99AC5",
">X c #F99BC7",
",X c #FB8EC1",
"<X c #FAA3CA",
"1X c #FCA0C7",
"2X c #F9B3D5",
"3X c #F8AED1",
"4X c None",
/* pixels */
"4X4X4X4X4X4X4X4X4X4X4X4X4X4X4X4X4X4X4X4X4X4X4X4X4X4X4X4X4X4X4X4X4X4X4X4X4X4X4X4X4X4X4X4X4X4X4X4X4X4X4X4X4X4X4X4X4X4X4X4X4X4X4X4X4X",
"4X4X4X4X4X4X4X4X4X4X4X4X4X4X4X4X4X4X4X4X4X4X4X4XA A Z A A A A 4X4X4X4X4X4X4X4X4X4X4X4X4X4X4X4X4X4X4X4X4X4X4X4X4X4X4X4X4X4X4X4X4X4X",
"4X4X4X4X4X4X4X4X4X4X4X4X4X4X4X4X4X4X4X4X4X4X4XG.I.G.B A Y.!.H.4X4X4X4X4X4X4X4X4X4X4X4X4X4X4X4X4X4X4X4X4X4X4X4X4X4X4X4X4X4X4X4X4X4X",
"4X4X4X4X4X4X4X4X4X4X4X4X4X4X4X4X4X4X4X4X4X4X4XA J.Z z A L.`.`.L.4X4X4X4X4X4X4X4X4X4X4X4X4X4X4X4X4X4X4X4X4X4X4X4X4X4X4X4X4X4X4X4X4X",
"4X4X4X4X4X4X4X4X4X4X4X4X4X4X4X4X4X4X4X4X4X4X4X4XB 4X4X4XV R.;X_.J.4X4X4X4X4X4X4X4X4X4X4X4X4X4X4X4X4X4X4X4X4X4X4X4X4X4X4X4X4X4X4X4X",
"4X4X4X4X4X4X4X4X4X4X4X4X4X4X4X4X4X4X4X4X4X4X4X4X4X4X4XD.A J.~.&X~.D l z z 4X4X4X4X4X4X4X4X4X4X4X4X4X4X4X4X4X4X4X4X4X4X4X4X4X4X4X4X",
"4X4X4X4X4X4X4X4X4X4X4X4X4X4X4X4X4X4X4X4X4X4X4X4XS Z H.~.).I.).>X(.C V D.Z z 4X4X4X4X4X4X4X4X4X4X4X4X4X4X4X4X4X4X4X4X4X4X4X4X4X4X4X",
"4X4X4X4X4X4X4X4X4X4X4X4X4X4X4X4X4X4X4X4X4X4X4XA G.B D _.:X(.!.Q.H.A P.H.b z B 4X4X4X4X4X4X4X4X4X4X4X4X4X4X4X4X4X4X4X4X4X4X4X4X4X4X",
"4X4X4X4X4X4X4X4X4X4X4X4X4X4X4X4X4X4X4X4X4X4X4XH P.D.J.,X<X;X_.K.D.P.'.Y.S S V l 4X4X4X4X4X4X4X4X4X4X4X4X4X4X4X4X4X4X4X4X4X4X4X4X4X",
"4X4X4X4X4X4X4X4X4X4X4X4X4X4X4X4X4X4X4X4X4X4X4XF.!.].`.%X:X1X-X^.Y.^.^.!.'.I.V l 4X4X4X4X4X4X4X4X4X4X4X4X4X4X4X4X4X4X4X4X4X4X4X4X4X",
"4X4X4X4X4X4X4X4X4X4X4X4X4X4X4X4X4X4X4X4X4X4XZ A !.&XQ.U.~.>X>X=X'.^.G.A _._.S l z 4X4X4X4X4X4X4X4X4X4X4X4X4X4X4X4X4X4X4X4X4X4X4X4X",
"4X4X4X4X4X4X4X4X4X4X4X4X4X4X4X4X4X4X4X4X4XI.I.F Q.,X%X`.,X&XR.U.^.*X).Y.'./.S n A B 4X4X4X4X4X4X4X4X4X4X4X4X4X4X4X4X4X4X4X4X4X4X4X",
"4X4X4X4X4X4X4X4X4X4X4X4X4X4X4X4X4X4X4X4XZ I._.E.`.<X2X2X<X-X).Q.=X:X=X'.'.^.J.F F z 4X4X4X4X4X4X4X4X4X4X4X4X4X4X4X4X4X4X4X4X4X4X4X",
"4X4X4X4X4X4X4X4X4X4X4X4X4X4X4X4X4X4X4X4XV J.^.].>X3X2X2X<X-X<X:X;X=X'.'.'.'.Y.F V z 4X4X4X4X4X4X4X4X4X4X4X4X4X4X4X4X4X4X4X4X4X4X4X",
"4X4X4X4X4X4X4X4X4X4X4X4X4X4X4X4X4X4X4X4Xc S E.=X>X>X<X1X1X-X-X&X'.'.'.'.'.^.Y.F z l 4X4X4X4X4X4X4X4X4X4X4X4X4X4X4X4X4X4X4X4X4X4X4X",
"4X4X4X4X4X4X4X4X4X4X4X4X4X4X4X4X4X4X4X: m K.^.].].=X*X;X-X*X&X].'.'.'.'.^.T.P.D.C x 9 4X4X9 3 4X4X4X4X4X4X4X4X4X4X4X4X4X4X4X4X4X4X",
"4X4X4X4X4X4X4X4X4X4X4X4X4X4X4X4X4X4X7 X._ M T././.E.F.Z.Z.Z.Z.C.m C.F.E.W.T.K.H C q 5 4X4X[ / 4X4X4X4X4X4X4X4X4X4X4X4X4X4X4X4X4X4X",
"4X4X4X4X4X4X4X4X4X4X4X4X4X4X3 4 ( 6 Q a.+.0 m M M m 0 _ ~ ` ~ ~ ^ ~ 0 m M M m m q X.;.( 5 ,.,.W 4X4X4X4X4X4X4X4X4X4X4X4X4X4X4X4X4X",
"4X4X4X4X4X4X4X4X4X4X4X4X4X3 3 -.l.+.Q A.l.[ 4 8 _ 8 O.f.z.z.z.z.m.h.O.Q 6 ) 5 4 ' z.x.` 4 >.>.W 3 4X4X4X4X4X4X4X4X4X4X4X4X4X4X4X4X",
"4X4X4X4X4X4X4X4X4X4X4X4X/ [ 4 v.|.+.) A.[.2.<.m.{.b.XXOXOXOXOXOXXXM.j.;.i.4.&.} 4.}.n.` W ,.%.W 4 [ 3 4X4X4X4X4X4X4X4X4X4X4X4X4X4X",
"4X4X4X4X4X4X4X4X4X4X4X4X/ } 7 v.$Xr.8 A.+Xx.g.x.B.B.B.x.x.w.3.9.9.2...Q _ ( W +.5.#.r.j.4.9.&.E W %.3 4X4X4X4X4X4X4X4X4X4X4X4X4X4X",
"4X4X4X4X4X4X4X4X4X4X4X4X/ ! [ S.#Xp.6 c.$XoX{.B.c.h.x.|.|..XS.x.0.0.-.E : > : 6 ) 3 1.N.z.z.9.W 4 :./ 4X4X4X4X4X4X4X4X4X4X4X4X4X4X",
"4X4X4X4X4X4X4X4X4X4X3  ./ 4 :.S.#Xa.~ +.n.+X+X{.k.4.d.p.p.p.p.r.@.o...! 4 E W 4 3 5 +.d.z.d.1.( [ ,.>.4 4X4X4X4X4X4X4X4X4X4X4X4X4X",
"4X4X4X4X4X4X4X4X4X4X: 4.O.4 :.{.$X{.+.5 O.n.oXz.2.2. .) Q _ _ ) Q Q 5 ( :.:.&.W 4 [ ~ o.N.y.6 ( ,.>.>.4 4X4X4X4X4X4X4X4X4X4X4X4X4X",
"4X4X4X4X4X4X4X4X4X4X: t.O.5 &.{.+XoX5.3 3 O.c.z.d.9.5.t.a.b.v.v.v.y.;.u.d.7.*./ W } W ' B.v.6 ..0.:.>.5 4X4X4X4X4X4X4X4X4X4X4X4X4X",
"4X4X4X4X4X4X4X4X4X4X: 4.o.5 &.z.oX{.<.4 W / O.d.z.h.x.oX#X+X+X#X+XoXN.f.d.,.*.! Q <. ./ r.}.<.&.9.3.>.5 4X4X4X4X4X4X4X4X4X4X4X4X4X",
"4X4X4X4X4X4X4X4X4X4X4Xy.o.5 &.9.}.[. .4 } W Q y.M.h.x.V.XX@X+X+X@X@XoXn.l.,.*.! ) j.2.E ' A.#.} 8.d.,.4 4X4X4X4X4X4X4X4X4X4X4X4X4X",
"4X4X4X4X4X4X4X4X4X4 &.l.o.4 &.d.XX[. .4 } W Q 5.M.h.h.h.z.n.@X+X@X@X@X}.j.,.>./ 6 j.7.[ $.A._ [ 8.d. .4 4X4X4X4X4X4X4X4X4X4X4X4X4X",
"4X4X4X4X4X4X4X4X4X7 j.M.o.4 &.9.XX[.&.4 [ / W :.d.h.h.h.h.l.B.@X+X@X+X.X2.%.>./ ~ 5.7.<.c.b.Q / 0.t.4 3 4X4X4X4X4X4X4X4X4X4X4X4X4X",
"4X4X4X4X4X4X4X4X4X7 y.B.o.4 &.9.XX[. .4 [ >./ W 5.h.h.h.h.h.z.B.@X+X+XS.,.%./ ( 1.7.>.{ @.u.Q / 0.4.3 4X4X4X4X4X4X4X4X4X4X4X4X4X4X",
"4X4X4X4X4X4X4X4X4X4X( j.1./ / 4.n.x.| 4 / 6.} 4 +.g.l.h.h.h.d.x.@X@X$XS.,.%.4 ` g.>.[ ~ 1.i.5 ! 0.t.3 4X4X4X4X4X4X4X4X4X4X4X4X4X4X",
"4X4X4X4X4X4X4X4X4X4X3 r.l.} 4 1.B.z. .4 [ ,.| W ! 4.z.z.h.l.h.c.}.@X}.k.:.[ ( @.d.&.E X.B.u.Q / 0.t.3 4X4X4X4X4X4X4X4X4X4X4X4X4X4X",
"4X4X4X4X4X4X4X4X4X4X: s.[.} 3 #.{..X .4 [ >.>. .E +.d.z.z.h.h.h.x.XXx.,.| W O.l.g.&.4 X.|.b.Q / 0.t.3 4X4X4X4X4X4X4X4X4X4X4X4X4X4X",
"4X4X4X4X4X4X4X4X4X4X: b.[. .4 1.n.l.| 4 [ >.,.>.| &.3.z.z.h.z.d.c.}.k.>.} 4 #.N.0.&.E X.|.A.Q / 0.t.3 4X4X4X4X4X4X4X4X4X4X4X4X4X4X",
"4X4X4X4X4X4X4X4X4X4X: r.k.} 4 1.z.0. .4 [ >.>.,.9.,.2.l.z.d.h.d.m.XXx.>.} 5 @.l.-.~ X.j.B.A.Q / 0.t.4 4X4X4X4X4X4X4X4X4X4X4X4X4X4X",
"4X4X4X4X4X4X4X4X4X4X: 1.0.} 4 1.z.0.} 4 { >.>.3.z.9.2.9.d.z.z.h.z.x.9.| ( { t.0.[ 5 1.B.}.A.X.W &.1.3 4X4X4X4X4X4X4X4X4X4X4X4X4X4X",
"4X4X4X4X4X4X4X4X4X4X3 i.0.} 4 1.z.g.&.W / %.,.k.z.z.9.2.d.z.h.h.d.2.>.[ 6 t.z.0.[ 4 1.XX+XoX2.4 W &.Q 4X4X4X4X4X4X4X4X4X4X4X4X4X4X",
"4X4X4X4X4X4X4X4X4X4 } d.w.} 3 1.z.z.d.&.E / 2.l.z.z.d.d.d.h.z.c.l.,.>.[ Q t.M.q.[ 6 1.}.$X}.,.E W ,.4.Q 4X4X4X4X4X4X4X4X4X4X4X4X4X",
"4X4X4X4X4X4X4X4X4X4 %.d.0.} 4 4.z.z.l.,.4 W <.l.z.h.z.c.h.h.B.V.z.,.*.&.t.f.h.-.~ @.d.{.+X}.3.} / ( :.W 4X4X4X4X4X4X4X4X4X4X4X4X4X",
"4X4X4X4X4X4X4X4X4X4 | 2.3. ./ 5.n.B.l.,.E W 2.d.z.h.h.h.h.n.XXn.9.>.[ +.z.z.9.( Q j.x.A.+X@Xx.7.! 4 | W 4X4X4X4X4X4X4X4X4X4X4X4X4X",
"4X4X4X4X4X4X4X4X4X4 | >.>.>.,.j.XXXXh.=.4 W ,.x.z.z.z.d.z.S.B.d.:.} / X.h.z.2.! Q j.x.V.+X+X+Xw.! 4 %.E 4X4X4X4X4X4X4X4X4X4X4X4X4X",
"4X4X4X4X4X4X4X4X4X4 %.>.&.%.>.9.XXoXz.,.W ! &.g.l.d.d.l.z.z.x.9.&.4 ` h.z.h.2.! 6 t.M.B.@X+X@Xk.! 4  .~ 4X4X4X4X4X4X4X4X4X4X4X4X4X",
"4X4X4X4X4X4X4X4X4X4 %.,.[ W &.d.{.+XXXd.&.! ! <.g.9.9.d.z.h.q.,.| 5 o.x.z.z.2./ Q y.z.z.n.+X@Xw.%.[ W @.4X4X4X4X4X4X4X4X4X4X4X4X4X",
"4X4X4X4X4X4X4X4X4X4 %.,.W 4 %.9.z.XX@Xm.8.! 4 &.k.9.j.d.9.2.} { ;.4.a.B.z.l.2. .1.d.l.h.n.@X@Xw.*.} 3 +.9.` 4X4X4X4X4X4X4X4X4X4X4X",
"4X4X4X4X4X4X4X4X4X#.:.>.[ / :.9.d.n.OXS.8.! 4 &.0.z.z.d.2.2.+.X.f.V.}.B.z.q. .-.z.z.d.z.m.@X@X9.%.| ! ! <.+.: 4X4X4X4X4X4X4X4X4X4X",
"4X4X4X4X4X4X4X4X' oX3.:.>.:.>.d.h.n.+X+Xe.! 4 :.d.z.z.h.z.h.d.h.n.XXn.h.9. .W o.z.z.h.h.n.@XoX9.%.*.%.W [ &.4 4X4X4X4X4X4X4X4X4X4X",
"4X4X4X4X4X4X4X4X$.}.3.=.>.>.,.j.d.n.+X@Xe.! E  .d.z.z.z.z.z.z.n.XXn.h.d.&.~ o.h.z.z.h.d.B.oXx.2.&.>.>.%.%.<.t.6 4X4X4X4X4X4X4X4X4X",
"4X4X4X4X4X4X4X$.v.9.,.>.>.>.>.2.q.n.+X@Xw.%./ ! i.z.h.h.z.n.oXXXn.7.,.7.4.i.f.z.h.h.h.z.c.n.h.2.>.>.>.>.[ { z.t.4X4X4X4X4X4X4X4X4X",
"4X4X4X4X4X4X) A.}.%.*.>.>.:.>.%.8.c.[.B.9.>.%./ <.d.d.h.z.n.XXn.9.*.%.,.0.9.g.h.h.h.h.h.h.d.9.>.>.:.>.>.[ { 9.x.u.#.( 4X4X4X4X4X4X",
"4X4X4X4X4XQ j.{.x.=.| [ }  .>.>.2.d.h.d.,.>.>.=.*.9.z.z.z.h.d.2.%.&.>.>.%.*.7.d.d.0.d.9.j.9.:.>.>.>.>.>.,.>.:.9.{.XXt.W 3 4X4X4X4X",
"4X4X3 : W j.l.8.>.| 4 3 3 4 | :.>.8.d.>.&.%.=.%.>.0.d.d.d.z.9.>.%.>.>.>.%.&.&.=.=.%.=.&.,.>.:.%.%.>.&.&.%.>.>.>.d.x.9. .4 : 3 4X4X",
"4X4X4X4X4 &.7.,.| 4 4X4X4X4XE | >.,.:.~ 7 7 ] %.*.=.2.,.,.2.>.>.>.>.>.| 4 4 4 6 7 , 5 [ >.>.>./ 4 4 4 4 7 / >.>.=.,.&.E 3 4X4X4X4X",
"4X4X4X4X4XW W ! 4X4X4X4X4X4X4X4X! ! 8 * r s 2 _ ^ ^ [ >.>.>.>.,.,.,.| : @ # * d r r r < ^ ] E 4X4X4X4X4X4X4XW / ! W 4X4X4X4X4X4X4X",
"4X4X4X4X4X4X4X4X4X4X4X4X4X4X4X4X4X4X4Xp f J K s G t < ..} [ [ [ | [ > @   X u k K P K a 2 1 4X4X4X4X4X4X4X4X4X4X4X4X4X4X4X4X4X4X4X",
"4X4X4X4X4X4X4X4X4X4X4X4X4X4X4X4X4X4X4Xp f j I R I L d - ; = = = = = @     o e K I T U h f p 4X4X4X4X4X4X4X4X4X4X4X4X4X4X4X4X4X4X4X",
"4X4X4X4X4X4X4X4X4X4X4X4X4X4X4X4X4X4X4Xp f j U T U J e o . . . . . .       o w J U T K a w 4X4X4X4X4X4X4X4X4X4X4X4X4X4X4X4X4X4X4X4X",
"4X4X4X4X4X4X4X4X4X4X4X4X4X4X4X4X4X4X  + e g h J h u +                     . + u h j f & X   4X4X4X4X4X4X4X4X4X4X4X4X4X4X4X4X4X4X4X",
"4X4X4X4X4X4X4X4X4X4X4X4X4X4X4X4X4X      + $ % & % O                           O % & $ X       4X4X4X4X4X4X4X4X4X4X4X4X4X4X4X4X4X4X",
"4X4X4X4X4X4X4X4X4X4X4X4X4X4X4X4X                                                              4X4X4X4X4X4X4X4X4X4X4X4X4X4X4X4X4X4X",
"4X4X4X4X4X4X4X4X4X4X4X4X4X4X4X4X4X                                                            4X4X4X4X4X4X4X4X4X4X4X4X4X4X4X4X4X4X",
"4X4X4X4X4X4X4X4X4X4X4X4X4X4X4X4X4X4X                                                        4X4X4X4X4X4X4X4X4X4X4X4X4X4X4X4X4X4X4X",
"4X4X4X4X4X4X4X4X4X4X4X4X4X4X4X4X4X4X4X                                                    4X4X4X4X4X4X4X4X4X4X4X4X4X4X4X4X4X4X4X4X",
"4X4X4X4X4X4X4X4X4X4X4X4X4X4X4X4X4X4X4X4X                                                4X4X4X4X4X4X4X4X4X4X4X4X4X4X4X4X4X4X4X4X4X",
"4X4X4X4X4X4X4X4X4X4X4X4X4X4X4X4X4X4X4X4X4X4X                                        4X4X4X4X4X4X4X4X4X4X4X4X4X4X4X4X4X4X4X4X4X4X4X",
"4X4X4X4X4X4X4X4X4X4X4X4X4X4X4X4X4X4X4X4X4X4X4X4X4X                          4X4X4X4X4X4X4X4X4X4X4X4X4X4X4X4X4X4X4X4X4X4X4X4X4X4X4X"
};
