/* XPM */
static char *result[] = {
/* columns rows colors chars-per-pixel */
"32 32 152 2 ",
"   c #000000",
".  c #3A1700",
"X  c #1A002E",
"o  c #1E0034",
"O  c #4D1F00",
"+  c #501F10",
"@  c #532800",
"#  c #6F3100",
"$  c #7B3111",
"%  c #5F1C33",
"&  c #260050",
"*  c #37006C",
"=  c #3D006C",
"-  c #3D0172",
";  c #430076",
":  c #440279",
">  c #48007F",
",  c #49087E",
"<  c #5A0C73",
"1  c #7F1E71",
"2  c #7F1F79",
"3  c #832E23",
"4  c #964900",
"5  c #9A4211",
"6  c #D66600",
"7  c #D86800",
"8  c #CD7A10",
"9  c #8C175F",
"0  c #971757",
"q  c #981959",
"w  c #8D287F",
"e  c #A82665",
"r  c #AA2768",
"t  c #AD2C6E",
"y  c #A52363",
"u  c #BB3676",
"i  c #BB3A7A",
"p  c #B43272",
"a  c #DE8100",
"s  c #CD8B11",
"d  c #FFC200",
"f  c #FFCD00",
"g  c #470080",
"h  c #4B0284",
"j  c #4E038A",
"k  c #4C0A82",
"l  c #51048E",
"z  c #561488",
"x  c #59188E",
"c  c #4B0192",
"v  c #4E0499",
"b  c #530492",
"n  c #550D93",
"m  c #580F96",
"M  c #550299",
"N  c #5A059E",
"B  c #570A99",
"V  c #590A9A",
"C  c #541192",
"Z  c #5A1494",
"A  c #591895",
"S  c #53149B",
"D  c #5C139D",
"F  c #5E1A9A",
"G  c #641C93",
"H  c #6D278D",
"J  c #622192",
"K  c #68259C",
"L  c #5E05A5",
"P  c #570BA0",
"I  c #5D0BA2",
"U  c #5E11A3",
"Y  c #600FA5",
"T  c #6006A9",
"R  c #6209AC",
"E  c #6111A6",
"W  c #631CA5",
"Q  c #6413AB",
"!  c #661AAC",
"~  c #691DAD",
"^  c #6407B2",
"/  c #6514B1",
"(  c #6814B2",
")  c #6B1CB3",
"_  c #661BB3",
"`  c #701FB3",
"'  c #6321A0",
"]  c #6923A5",
"[  c #6D2AA1",
"{  c #6722AB",
"}  c #6A23AD",
"|  c #6E29AE",
" . c #742EAF",
".. c #6D24B6",
"X. c #6F24B9",
"o. c #6F28B8",
"O. c #7223B6",
"+. c #742CB6",
"@. c #7226BA",
"#. c #722ABA",
"$. c #7A2EBC",
"%. c #7A32B5",
"&. c #7E38B4",
"*. c #7C34BD",
"=. c #7630C1",
"-. c #7D34C1",
";. c #7F38C1",
":. c #C63E85",
">. c #C54383",
",. c #CA4585",
"<. c #CA4887",
"1. c #C9478A",
"2. c #D44985",
"3. c #D34D8E",
"4. c #D35691",
"5. c #D75995",
"6. c #DC5D99",
"7. c #E3629F",
"8. c #D85CA1",
"9. c #CC6BA7",
"0. c #DB73A9",
"q. c #E16DA4",
"w. c #EA62A2",
"e. c #F265A1",
"r. c #F46CAC",
"t. c #F96EAB",
"y. c #EB70AA",
"u. c #E87AAE",
"i. c #F472AE",
"p. c #FB72B2",
"a. c #F47AB3",
"s. c #8135C1",
"d. c #833BC3",
"f. c #893EC2",
"g. c #8740C5",
"h. c #8B43C6",
"j. c #8F48C7",
"k. c #8D45C9",
"l. c #8E48C8",
"z. c #924BCA",
"x. c #9850D1",
"c. c #EF89B8",
"v. c #F683B8",
"b. c #F38FBD",
"n. c #FF89BC",
"m. c #FF8EC1",
"M. c #F791C1",
"N. c #FE96C2",
"B. c #FD9BC4",
"V. c #FEA3CC",
"C. c #FFB5D4",
"Z. c None",
/* pixels */
"Z.Z.Z.Z.Z.Z.Z.Z.Z.Z.Z.Z.>.i 3.Z.Z.Z.Z.Z.Z.Z.Z.Z.Z.Z.Z.Z.Z.Z.Z.Z.",
"Z.Z.Z.Z.Z.Z.Z.Z.Z.Z.Z.Z.i r q.7.Z.Z.Z.Z.Z.Z.Z.Z.Z.Z.Z.Z.Z.Z.Z.Z.",
"Z.Z.Z.Z.Z.Z.Z.Z.Z.Z.Z.Z.Z.<.4.m.u y q Z.Z.Z.Z.Z.Z.Z.Z.Z.Z.Z.Z.Z.",
"Z.Z.Z.Z.Z.Z.Z.Z.Z.Z.Z.t 1.V.v.6.>.:.>.Z.Z.Z.Z.Z.Z.Z.Z.Z.Z.Z.Z.Z.",
"Z.Z.Z.Z.Z.Z.Z.Z.Z.Z.Z.>.y.b.V.i.3.t.w.0 Z.Z.Z.Z.Z.Z.Z.Z.Z.Z.Z.Z.",
"Z.Z.Z.Z.Z.Z.Z.Z.Z.Z.5.5.c.M.q.a.u.i.r.p e Z.Z.Z.Z.Z.Z.Z.Z.Z.Z.Z.",
"Z.Z.Z.Z.Z.Z.Z.Z.Z.Z.2.n.C.C.B.B.n.p.p.,.q Z.Z.Z.Z.Z.Z.Z.Z.Z.Z.Z.",
"Z.Z.Z.Z.Z.Z.Z.Z.Z.- < H H 9.0.8.8.t.e.2.9 Z.Z.Z.Z.Z.Z.Z.Z.Z.Z.Z.",
"Z.Z.Z.Z.Z.Z.Z.j k ] V / _ Z C C z 2 w 1 G n M b Z.Z.Z.Z.Z.Z.Z.Z.",
"Z.Z.Z.Z.Z.Z.j %.F &._ $.d.g.s.s.#.S S v #.K L b j Z.Z.Z.Z.Z.Z.Z.",
"Z.Z.Z.Z.Z.h l f.K  .k.-.O.*.$.O./ h = , , ) =.n M h Z.Z.Z.Z.Z.Z.",
"Z.Z.Z.Z.Z.b j k.*.h $.$.Q x J J x m I N M j @.A M b Z.Z.Z.Z.Z.Z.",
"Z.Z.Z.Z.Z.b j $.O.l D $.o.#.-.s.k.z.$./ N g X.{ ~ n Z.Z.Z.Z.Z.Z.",
"Z.Z.Z.Z.h W l ) L T E { #.o.o...#.z.l.) L Z } Z $.) Z.Z.Z.Z.Z.Z.",
"Z.Z.Z.Z.l ~ j ) T T L B #.o.o.o...d.z...c ..%.U #._ : Z.Z.Z.Z.Z.",
"Z.Z.Z.Z.Q W ~ O.L ..) ( ..o.#.o...*.-.Q h *.+.U $.) h Z.Z.Z.Z.Z.",
"Z.Z.Z.l #.h +.*.Q o.#.o.....Q ..#.d.#.j D k.$.Q #.#.I Z.Z.Z.Z.Z.",
"Z.Z.Z.I -.) *.+.{ #.o.#.#.o.....*.;.B b ..g.d.( #.$.Q Z.Z.Z.Z.Z.",
"Z.Z.h o.$._ ;.} j @.#...o.....$.-.M j X.$.z.k.D | d.#.n Z.Z.Z.Z.",
"Z.Z.Q +.$.) $.O.L ..#.o.#.) #...Q m ) U @.g.z.D A d.$...h Z.Z.Z.",
"Z.j ..#...@.z.#.L Q #.@.~ ) o.o.#.-.} g ) -.z.*.I #.d.#.) h Z.Z.",
"Z.Q g.z.z.l.z.$.n I ) R j } o.o.#.g.V g ~ #.g.l...U g.h.*.) Z.Z.",
"h O.-.=.l.z.z.*.) b T N l ....o.d.g.U L W o.*.z.$.h { g.z.*.n Z.",
"h ( l b #.z.h.$.Q L R b A s.*.d.z.| I R b V h.z.l.@.L ) s.k.) : ",
"h h Z.Z.: ] #.` R R R L ! l.x.z.-.! L R T I @.z.x.l.W ; g @.@.l ",
"Z.g Z.Z.Z.Z.Z.c c c c M ( $.d.;.) T b b b N ^ { [ z Z.Z.Z.g Q Z.",
"Z.Z.; Z.Z.Z.Z.Z.5 s 8 3 * P T R R & + $ $ % - Z.Z.Z.Z.Z.Z.; Z.Z.",
"Z.Z.Z.Z.Z.Z.Z.Z.a f d 4   o o o o           Z.Z.Z.Z.Z.Z.Z.Z.Z.Z.",
"Z.Z.Z.Z.Z.Z.Z.Z.@ 7 6 #                       Z.Z.Z.Z.Z.Z.Z.Z.Z.",
"Z.Z.Z.Z.Z.Z.Z.Z.  . O                         Z.Z.Z.Z.Z.Z.Z.Z.Z.",
"Z.Z.Z.Z.Z.Z.Z.Z.Z.                          Z.Z.Z.Z.Z.Z.Z.Z.Z.Z.",
"Z.Z.Z.Z.Z.Z.Z.Z.Z.Z.Z.Z.              Z.Z.Z.Z.Z.Z.Z.Z.Z.Z.Z.Z.Z."
};
