/* XPM */
static char *result[] = {
/* columns rows colors chars-per-pixel */
"65 65 209 2 ",
"   c #000000",
".  c #0C0501",
"X  c #040009",
"o  c #120800",
"O  c #110603",
"+  c #0C0015",
"@  c #11001E",
"#  c #291200",
"$  c #271000",
"%  c #3D1A00",
"&  c #0F0022",
"*  c #140023",
"=  c #380A39",
"-  c #542200",
";  c #642A01",
":  c #602700",
">  c #763600",
",  c #571C2A",
"<  c #6A1E3B",
"1  c #73233A",
"2  c #782739",
"3  c #7C3030",
"4  c #2E0254",
"5  c #2F0060",
"6  c #3E006C",
"7  c #380165",
"8  c #3F0171",
"9  c #702140",
"0  c #40026F",
"q  c #550B6D",
"w  c #420174",
"e  c #46027B",
"r  c #48047E",
"t  c #4C0C7C",
"y  c #460B79",
"u  c #560B77",
"i  c #56117A",
"p  c #611368",
"a  c #771369",
"s  c #893C02",
"d  c #933D00",
"f  c #8F4000",
"g  c #984200",
"h  c #AA4800",
"j  c #BC5B00",
"k  c #B04E06",
"l  c #8C473B",
"z  c #C85900",
"x  c #C46700",
"c  c #D57600",
"v  c #D06C00",
"b  c #E57E00",
"n  c #971858",
"m  c #9B1B5B",
"M  c #961656",
"N  c #8D0E4E",
"B  c #A8235F",
"V  c #A21E66",
"C  c #8D2577",
"Z  c #A42262",
"A  c #AC2B6B",
"S  c #A9246A",
"D  c #B52D74",
"F  c #B43373",
"G  c #B93676",
"H  c #BC3A7A",
"J  c #B53979",
"K  c #AE2E6F",
"L  c #C23E7F",
"P  c #BC417D",
"I  c #E78300",
"U  c #E99800",
"Y  c #F8AC00",
"T  c #FCBB00",
"R  c #FCB200",
"E  c #FCC500",
"W  c #FBD300",
"Q  c #450486",
"!  c #4B0384",
"~  c #4D0B84",
"^  c #4E038A",
"/  c #490987",
"(  c #51038D",
")  c #520C8C",
"_  c #54128C",
"`  c #5B1A8C",
"'  c #561185",
"]  c #540494",
"[  c #550B93",
"{  c #560499",
"}  c #59059D",
"|  c #5A0B9C",
" . c #580D97",
".. c #571293",
"X. c #591495",
"o. c #5E1C92",
"O. c #5B159B",
"+. c #5D199D",
"@. c #611E93",
"#. c #631B9C",
"$. c #68269B",
"%. c #5E06A5",
"&. c #5E0BA4",
"*. c #5D07A9",
"=. c #5F08A8",
"-. c #5F15A2",
";. c #5E1BA5",
":. c #600DA6",
">. c #6107A9",
",. c #620AAA",
"<. c #6112A5",
"1. c #621BA3",
"2. c #6513AD",
"3. c #651CAC",
"4. c #681DAF",
"5. c #6914AE",
"6. c #6714B0",
"7. c #6915B2",
"8. c #671BB1",
"9. c #6B1CB3",
"0. c #6E1EB9",
"q. c #711EB8",
"w. c #670FB2",
"e. c #6721AC",
"r. c #6A22AE",
"t. c #6925A4",
"y. c #722EA5",
"u. c #752FAF",
"i. c #6D24B5",
"p. c #6F28B6",
"a. c #6F25B8",
"s. c #6F28B8",
"d. c #7125B7",
"f. c #722BB5",
"g. c #7126B9",
"h. c #722AB9",
"j. c #7B2DBC",
"k. c #792AB7",
"l. c #7730BC",
"z. c #7B33BE",
"x. c #7C36BA",
"c. c #7B2EC1",
"v. c #7D34C1",
"b. c #7F39C1",
"n. c #8F388C",
"m. c #8134BE",
"M. c #833ABE",
"N. c #C43F83",
"B. c #90408E",
"V. c #8F4891",
"C. c #B64A96",
"Z. c #B75A9C",
"A. c #BE4081",
"S. c #8640BC",
"D. c #C44383",
"F. c #CA4584",
"G. c #CD468A",
"H. c #CC4A89",
"J. c #C6478C",
"K. c #D54D8C",
"L. c #DB5495",
"P. c #D25C94",
"I. c #DD5B9A",
"U. c #D75894",
"Y. c #D45090",
"T. c #E35B9B",
"R. c #E45793",
"E. c #E0538F",
"W. c #DB649D",
"Q. c #E55FA0",
"!. c #E464A2",
"~. c #EA65A4",
"^. c #E46DA5",
"/. c #EE68A7",
"(. c #F46CAC",
"). c #F76BAA",
"_. c #EB71AB",
"`. c #EB75AC",
"'. c #FB74B3",
"]. c #FB7BB5",
"[. c #F37BB2",
"{. c #F375B1",
"}. c #8136C1",
"|. c #843CC2",
" X c #893EC5",
".X c #863DC9",
"XX c #8640C4",
"oX c #8B43C6",
"OX c #8E46C8",
"+X c #8F48C9",
"@X c #924AC9",
"#X c #9047C8",
"$X c #9850D1",
"%X c #9852CD",
"&X c #DD81B4",
"*X c #EA84B4",
"=X c #FA83B9",
"-X c #FB8BBD",
";X c #F585B9",
":X c #FA93BF",
">X c #FB9BC6",
",X c #F998C4",
"<X c #FA8DC0",
"1X c #FAA3CA",
"2X c #FCA9CE",
"3X c #F7A3CA",
"4X c #FAACD0",
"5X c #FBBAD9",
"6X c None",
/* pixels */
"6X6X6X6X6X6X6X6X6X6X6X6X6X6X6X6X6X6X6X6X6X6X6X6X6X6X6X6X6X6X6X6X6X6X6X6X6X6X6X6X6X6X6X6X6X6X6X6X6X6X6X6X6X6X6X6X6X6X6X6X6X6X6X6X6X",
"6X6X6X6X6X6X6X6X6X6X6X6X6X6X6X6X6X6X6X6X6X6X6X6X6XH J H H H 6X6X6X6X6X6X6X6X6X6X6X6X6X6X6X6X6X6X6X6X6X6X6X6X6X6X6X6X6X6X6X6X6X6X6X",
"6X6X6X6X6X6X6X6X6X6X6X6X6X6X6X6X6X6X6X6X6X6X6X6XH.L.G H Q.R.N.6X6X6X6X6X6X6X6X6X6X6X6X6X6X6X6X6X6X6X6X6X6X6X6X6X6X6X6X6X6X6X6X6X6X",
"6X6X6X6X6X6X6X6X6X6X6X6X6X6X6X6X6X6X6X6X6X6X6X6XD.H.G F W.;X!.N.6X6X6X6X6X6X6X6X6X6X6X6X6X6X6X6X6X6X6X6X6X6X6X6X6X6X6X6X6X6X6X6X6X",
"6X6X6X6X6X6X6X6X6X6X6X6X6X6X6X6X6X6X6X6X6X6X6X6X6XZ 6X6XJ *X-XT.H 6X6X6X6X6X6X6X6X6X6X6X6X6X6X6X6X6X6X6X6X6X6X6X6X6X6X6X6X6X6X6X6X",
"6X6X6X6X6X6X6X6X6X6X6X6X6X6X6X6X6X6X6X6X6X6X6X6X6X6XG G H U.[.=XI.V M n n 6X6X6X6X6X6X6X6X6X6X6X6X6X6X6X6X6X6X6X6X6X6X6X6X6X6X6X6X",
"6X6X6X6X6X6X6X6X6X6X6X6X6X6X6X6X6X6X6X6X6X6X6X6XG G Y.~.W.U.*X>XI.Z F H Z M 6X6X6X6X6X6X6X6X6X6X6X6X6X6X6X6X6X6X6X6X6X6X6X6X6X6X6X",
"6X6X6X6X6X6X6X6X6X6X6X6X6X6X6X6X6X6X6X6X6X6X6XV V H.[.,X;X~._.^.H.D S N.G.A n 6X6X6X6X6X6X6X6X6X6X6X6X6X6X6X6X6X6X6X6X6X6X6X6X6X6X",
"6X6X6X6X6X6X6X6X6X6X6X6X6X6X6X6X6X6X6X6X6X6XH S D _.3X3X>X].T.F.H.K.D G./.L m 6X6X6X6X6X6X6X6X6X6X6X6X6X6X6X6X6X6X6X6X6X6X6X6X6X6X",
"6X6X6X6X6X6X6X6X6X6X6X6X6X6X6X6X6X6X6X6X6X6XF H._.,X3X3X3X>X].R.L./.(.(.(.K.S 6X6X6X6X6X6X6X6X6X6X6X6X6X6X6X6X6X6X6X6X6X6X6X6X6X6X",
"6X6X6X6X6X6X6X6X6X6X6X6X6X6X6X6X6X6X6X6X6XF F Y.~.P.!.<X4X4X:X].L.G R.].'.Q.A N 6X6X6X6X6X6X6X6X6X6X6X6X6X6X6X6X6X6X6X6X6X6X6X6X6X",
"6X6X6X6X6X6X6X6X6X6X6X6X6X6X6X6X6X6X6X6XD.P.P Y._.^.`.<X[.W._.'.!.P.~.'.'.~.S V F 6X6X6X6X6X6X6X6X6X6X6X6X6X6X6X6X6X6X6X6X6X6X6X6X",
"6X6X6X6X6X6X6X6X6X6X6X6X6X6X6X6X6X6X6X6XH.`.I.I.<X4X4X,X_.P.^.=X<X,X].(.]./.H H L m 6X6X6X6X6X6X6X6X6X6X6X6X6X6X6X6X6X6X6X6X6X6X6X",
"6X6X6X6X6X6X6X6X6X6X6X6X6X6X6X6X6X6X6X6XF.~.'.=X3X5X5X4X,X:X,X3X,X=X'.(.'.(.L.N.K m 6X6X6X6X6X6X6X6X6X6X6X6X6X6X6X6X6X6X6X6X6X6X6X",
"6X6X6X6X6X6X6X6X6X6X6X6X6X6X6X6X6X6X6X6XA E.].,X4X4X4X3X>X:X-X-X].'.'.'.'.'.R.D m M 6X6X6X6X6X6X6X6X6X6X6X6X6X6X6X6X6X6X6X6X6X6X6X",
"6X6X6X6X6X6X6X6X6X6X6X6X6X6X6X6X6X6X6X6Xp C n.n.V.V.&X1X1X:X-X=X].].'.'.(.Q.L.H B n 6X6X6X6X6X6X6X6X6X6X6X6X6X6X6X6X6X6X6X6X6X6X6X",
"6X6X6X6X6X6X6X6X6X6X6X6X6X6X6X6X6X0 ! e 8 ~ ~ ~ / _ B.Z.Z.Z.C.C.C.C.T.)./.T.K.F.A a u 6X6X! ! 6X6X6X6X6X6X6X6X6X6X6X6X6X6X6X6X6X6X",
"6X6X6X6X6X6X6X6X6X6X6X6X6X6Xw e w w t.#./ ;.r.8.8.4._ t t t t t t i C P J.A.J K C r { ( e ,.%.! 6X6X6X6X6X6X6X6X6X6X6X6X6X6X6X6X6X",
"6X6X6X6X6X6X6X6X6X6X6X6X0 6 ^ 2.1.e y.l.:.,.6.=.7.g.r.;.;.;.;.;.3.;.' q u u u q i 4.i.) ! >.>.^ 6 6X6X6X6X6X6X6X6X6X6X6X6X6X6X6X6X",
"6X6X6X6X6X6X6X6X6X6X6X6X^ w #.c.r.r y.|.9.%.q.z.z.|..XoXoXOXOXoXXXh.1.+.+.#.[ ^ <..Xl.~ e %.%.! w ( 6X6X6X6X6X6X6X6X6X6X6X6X6X6X6X",
"6X6X6X6X6X6X6X6X6X6X6X! %.w t.@Xf.r y.+Xj.6.h.|.|.|.|.|.m.m.k.x.j.8.+.+.1.+. .&.i.u.f.+...6.%.! ! | w 6X6X6X6X6X6X6X6X6X6X6X6X6X6X",
"6X6X6X6X6X6X6X6X6X6X6X^ } e y.$XM.t t.@XOXl.l.l.k.h.l.v.k.q.7.9.6.2.) w 0 6 w X.X.t 3.h.i.s.2.! r >.! 6X6X6X6X6X6X6X6X6X6X6X6X6X6X",
"6X6X6X6X6X6X6X6X6X6X( ] e ] k.$XS.t X.b.#X+XoXz.i.g.z. X X|.M.k.9.3.&.! 6 6 6 y w w | 0.h.h.i.~ ! >.%.r 6X6X6X6X6X6X6X6X6X6X6X6X6X",
"6X6X6X6X6X6X6X6X6X6X] } w { j.$XoXO.^ O.k.#XXXk.2.,.@.` ` ` ` _ ~ ~ ! ^ ] ] ] ] ] ] ! | i.h.p._ e >.,.! 6X6X6X6X6X6X6X6X6X6X6X6X6X",
"6X6X6X6X6X6X6X6X6X6X] ] w { j.$X#Xd.! e 2.}.j.9.6.2..._ o.o.$.o.$.` $.O.5.6.,.*.,.%.e ^ 6.k.p.~ e >.%.! 6X6X6X6X6X6X6X6X6X6X6X6X6X",
"6X6X6X6X6X6X6X6X6X6X] ] e { k.oX|.d.) ! | i.h.i.s.i.i.l.M.XXM.M.XXoXoX|.h.i.2.,.,.} e ( 6.h.s...) 2.,.! 6X6X6X6X6X6X6X6X6X6X6X6X6X",
"6X6X6X6X6X6X6X6X6X6X .{ w } d.d.5.,.>.( ~ e.h.h.s.h.h.j.c.c.v.l.z.#X$X@X|.h.i.2.>.%.e ( 7.p.i.i.i.i.i.) 6X6X6X6X6X6X6X6X6X6X6X6X6X",
"6X6X6X6X6X6X6X6X6X6X5.O.e { 9.9.>.>.>.} | i.h.h.h.h.s.s.p.p.i.i.g.x.oX@X#X|.j.2.>.} e ) c.8...1.h.h.k.<.6X6X6X6X6X6X6X6X6X6X6X6X6X",
"6X6X6X6X6X6X6X6Xw } g.1.e { 9.9.>.>.%.,.,.5.O.1.s.h.g.g.p.f.s.h.i.h.oX@X@X#Xl.6.>.%.] 1.j.e.w X.c.h.g.6.( 0 6X6X6X6X6X6X6X6X6X6X6X",
"6X6X6X6X6X6X6X6X0 { 0.1.w { 9.i.>.&.>.>.,.%.^ ..i.h.s.g.s.s.s.f.s.f.}.+X@X#Xl.5.%.} %.i.c.r._ +.h.s.g.6.] 6X6X6X6X6X6X6X6X6X6X6X6X",
"6X6X6X6X6X6X6X6Xw } g.1.e { 9.9.:.%.:.,.,.%.} 2.s.h.s.s.h.g.g.p.s.s.h.|.#XoXl.6.] e &.v.XXp.e.i.h.s.g.6.( 6X6X6X6X6X6X6X6X6X6X6X6X",
"6X6X6X6X6X6X6X6X] 5.g.9.| 3.h.9.>.>.5.i.9.,.>.6.h.h.s.g.s.s.s.g.h.i.s.}.oXb.s.8.] w +..XoXe...1.h.h.g.6.( 6X6X6X6X6X6X6X6X6X6X6X6X",
"6X6X6X6X6X6X6Xe %.g.t.O.,.l.l.i.%.%.9.h.s.9.2.i.i.9.i.h.h.h.h.s.s.i.s.b.oXh.8.| ! ^ i.XXXXr.) -.h.h.h.9.&.6X6X6X6X6X6X6X6X6X6X6X6X",
"6X6X6X6X6X6X6X^ ,.g._ e ,.|.|.8.=.,.i.f.s.h.i.h.i.5.i.i.9.9.i.h.s.h.l.|.|.h.,.! r 5.j.oX|.i.=.9.h.g.h.h.9.{ w 6X6X6X6X6X6X6X6X6X6X",
"6X6X6X6X6X6X! ,.g.c._ e 2.oXb.9.2.9.p.p.s.s.h.h.i.i.g.9.2.2.i.h.i.h.XX|.h.a.&.! ^ i.|.+X|.g.,.9.h.s.s.g.9.} w 6X6X6X6X6X6X6X6X6X6X",
"6X6X6X6X6X6X^ w.h.|.4.| i.oXb.i.i.s.g.s.g.g.h.i.g.h.i.i.9.9.i.h.s.h.oX}.0.-.^ ^ -.g.b.oX#X}.5.8.h.h.s.h.9.} w 6X6X6X6X6X6X6X6X6X6X",
"6X6X6X6X6X6X| 9.h.b.k.9.j.OXb.e.O.i.h.s.s.s.h.h.g.s.g.f.h.h.s.s.h.|.b.j.-.^ ! &.a.s.v.oX%X X5.6.h.h.b.j.i.2.^ 6X6X6X6X6X6X6X6X6X6X",
"6X6X6X6X6 { 9.h.s.s.i.9.h.+X.XO.w 1.s.h.h.s.s.s.s.g.s.i.i.i.s.h.|.|.h.&.^ ^ &.i.h.h.oX#X#X X4.-.r.l.oXb.i.i.2.! 6X6X6X6X6X6X6X6X6X",
"6X6X6X6Xw } 9.h.h.h.6.6.h.|.|.+.e } 9.h.p.f.f.p.g.s.h.9.5.i.d.z.}.h.&.^ ! &.0.s.s.h.oX@X#X#Xg.) _ l.oXz.p.s.s.) 6X6X6X6X6X6X6X6X6X",
"6X6X6Xe { 4.i.l.XXh.i.i.h.l.h.4.} %.9.s.g.s.s.g.s.s.s.i.i.i.h.i.9.&.^ ! -.9.6.9.s.j.oX@X#X#Xf.~ ~ s.v.|.z.s.h.-.6X6X6X6X6X6X6X6X6X",
"6X6X6Xe %.i.h.j.b.9.i.g.h.l.l.i.,.*.9.g.g.f.s.s.h.h.9.9.s.h.s.i.7.2.O.-.g.i.[ | 9.g.z.oX@X+Xh.O.^ ..i.oXoXi.s.a.:.! 6X6X6X6X6X6X6X",
"6X6X6X) 2.9.s.s.i.5.3.s.b.#X}.9.>.>.2.i.g.p.h.h.g.i.2.9.s.s.s.f.h.h.h.l.l.3.r ! 6.s.h.}.@X+Xz.9.{ / i.|.}.h.h.h.i.&.! 6X6X6X6X6X6X",
"6X6X! ,.i.h.h.h.h.h.h.z.+X#X|.9.%.} %.2.h.h.s.s.9.:.8.h.s.f.s.g.g.s.h.|.}.&.e ^ 6.s.h.M.@X@X+Xv.3.,.i.s.}.oXh.h.s.9.,.! 6X6X6X6X6X",
"6X6X^ ,.h.|.oXoXoXoXoXoX#X#Xb.0.%.! { 2.g.g.3.2.| ! 1.h.g.g.s.s.s.h.|.XXd.%.e ^ 6.s.h.h.}.#X#Xb.i.i.2.8.|.@XoXl.s.g.i.-.! 6X6X6X6X",
"6X6X&.0.}.+X@X@X@X@X@X@X#X#Xb.s.2.[ } ,.6.5.,.>.{ w +.h.h.s.s.h.i.h.oX|.3.^ ^ ^ [ s.h.s.l.#X@XoXz.r.( 1.v.}.#XoXb.b.h.a.) 6X6X6X6X",
"w ] 6.v.XXXX|.oX+X+X@X#X@X#Xz.h.d.6.{ { %.*.,.%.( ^ 1.k.h.s.h.i.f.z.oXXX1.^ } ] [ s.h.s.l.|.#X@X|.e./ _ e.h.|.#X@X+Xv.h.O.6X6X6X6X",
"w ] 7.h.s.s.s.k.oX+X@X#X#X@XM.s.i.,.! ^ ,.>.>.( e &.9.s.i.i.s.s.z.oX+X}.i.&.*.%.<.r.d.g.h.j.oX@X|.g.,.! [ s.h.XX#X@XoXj.9.] 6 6X6X",
"w ] 7.s.,.&.=.6.j.oX@X@X@X@Xz.h.i.2.} %.%.>.,.! y 4.h.h.h.h.h.z.+X+Xz.f.9.,.>.,.{ ! | i.b.oX+X#X+X|.g.&.} 6.s.j.|.@X+Xv.g.1.w w 6X",
"w ] w.2.^ ! ! ] 2.j.oX@X+X}.l.h.a.,.,.,.,.=.>.^ ! t.|.|.|.|.|.oX@X#Xh.O.[ %.>.,.%.^ ! -.|.@X@X@X+X@XoXk.,.,.6.2.7.j.#XoXz.i.( w 6X",
"w ] *.6X6X6X6X6X^  .f.oX|.h.s.s.8.,.*.*.,.=.>.{ ) i.+X@X%X@X#X@X#XoXh.O.^ %.,.*.,.%.^ O.h.|.@X@X+X#X@XXXh.-.{ ( ] | m.XXz.9.>.e 6X",
"w ] ( 6 6X6X6X6X8 6 6Xe.r.i.s.9.,.*.,.,.>.*.,.*.,.g.|.+X#X@X+X+X|.h.i.6.>.,.>.>.*.>.,.>.w.g.|.@X@X#X@XoXx.O.w 6 6 e { 9.h.9.%.e 6X",
"6X6Xw w 6X6X6X6X6X6X6Xe r | ,.,.*.*.*.*.*.*.*.*.,.a.h.b.+X@X+X|.l.g.2.>.>.*.*.*.*.*.*.=.,.,.h.|.#X+XoX$.y 6X6X6X6X6Xe &.0.i.&.e 6X",
"6X6X! ] 6X6X6X6X6X6X6X6X6X6X! ! ! Q Q / / Q Q ^ ,.7.9.j.z.z.z.j.i.6.,.{ ! / / ! Q / ! { ,.*.6.#.@.o.o.6X6X6X6X6X6X6X6X6X&.2.! 6X6X",
"6X6X6X( w 6X6X6X6X6X6X6X6X6X6X6X< < 3 l l 2 1 p ] { <.9.6.9.6.9.6.,.{ 7 = < 2 1 1 1 9 p { ] ] 6X6X6X6X6X6X6X6X6X6X6X6X6 e 6X6X6X6X",
"6X6X6X6 w w 6X6X6X6X6X6X6X6X6X6Xk j U E R b z 3 4 5 ! %.%.} } } %.{ 7 & $ > g s s f s , 5 7 6X6X6X6X6X6X6X6X6X6X6X6Xw 6 0 6X6X6X6X",
"6X6X6X6X6X6X6X6X6X6X6X6X6X6X6X6Xk U E W E Y v : O + 4 w 8 6 w 0 e 6 *   . . o o o O O X X 6X6X6X6X6X6X6X6X6X6X6X6X6X6X6X6X6X6X6X6X",
"6X6X6X6X6X6X6X6X6X6X6X6X6X6X6X6Xj U E T T Y v : .   + * @ @ @ @ * + X                       6X6X6X6X6X6X6X6X6X6X6X6X6X6X6X6X6X6X6X",
"6X6X6X6X6X6X6X6X6X6X6X6X6X6X6X6X> x I I I c x : o                                             6X6X6X6X6X6X6X6X6X6X6X6X6X6X6X6X6X6X",
"6X6X6X6X6X6X6X6X6X6X6X6X6X6X6X6X. : h z z h d - .                                             6X6X6X6X6X6X6X6X6X6X6X6X6X6X6X6X6X6X",
"6X6X6X6X6X6X6X6X6X6X6X6X6X6X6X6X  . ; h h g % .                                               6X6X6X6X6X6X6X6X6X6X6X6X6X6X6X6X6X6X",
"6X6X6X6X6X6X6X6X6X6X6X6X6X6X6X6X6X  o # # $ .                                               6X6X6X6X6X6X6X6X6X6X6X6X6X6X6X6X6X6X6X",
"6X6X6X6X6X6X6X6X6X6X6X6X6X6X6X6X6X6X                                                      6X6X6X6X6X6X6X6X6X6X6X6X6X6X6X6X6X6X6X6X",
"6X6X6X6X6X6X6X6X6X6X6X6X6X6X6X6X6X6X6X                                                  6X6X6X6X6X6X6X6X6X6X6X6X6X6X6X6X6X6X6X6X6X",
"6X6X6X6X6X6X6X6X6X6X6X6X6X6X6X6X6X6X6X6X6X                                          6X6X6X6X6X6X6X6X6X6X6X6X6X6X6X6X6X6X6X6X6X6X6X",
"6X6X6X6X6X6X6X6X6X6X6X6X6X6X6X6X6X6X6X6X6X6X6X6X6X                          6X6X6X6X6X6X6X6X6X6X6X6X6X6X6X6X6X6X6X6X6X6X6X6X6X6X6X"
};
