/* XPM */
static char *result[] = {
/* columns rows colors chars-per-pixel */
"65 65 205 2 ",
"   c #000000",
".  c #080300",
"X  c #1B0B00",
"o  c #130900",
"O  c #381800",
"+  c #120024",
"@  c #4B1F00",
"#  c #4D2200",
"$  c #592400",
"%  c #662900",
"&  c #743900",
"*  c #46103C",
"=  c #7C283A",
"-  c #3E016D",
";  c #3A0066",
":  c #5C1452",
">  c #651B4E",
",  c #7F105D",
"<  c #6B1B59",
"1  c #6B244D",
"2  c #440368",
"3  c #420174",
"4  c #45027A",
"5  c #48037E",
"6  c #4A0B7E",
"7  c #47087A",
"8  c #5C0D78",
"9  c #5F137F",
"0  c #52036C",
"q  c #7E1F6E",
"w  c #67147C",
"e  c #6B166F",
"r  c #843800",
"t  c #822C3C",
"y  c #963A2E",
"u  c #AD4B04",
"i  c #B14E0E",
"p  c #A55627",
"a  c #C75B07",
"s  c #CE6400",
"d  c #D56B00",
"f  c #D66600",
"g  c #D67A00",
"h  c #EE7D00",
"j  c #8E1357",
"k  c #941454",
"l  c #9B1B5C",
"z  c #811F70",
"x  c #831D6E",
"c  c #88216D",
"v  c #8D2676",
"b  c #972D7C",
"n  c #90226D",
"m  c #A42263",
"M  c #AD2B6A",
"N  c #A72868",
"B  c #B53373",
"V  c #B93575",
"C  c #BC3B7A",
"Z  c #B93578",
"A  c #AD2E70",
"S  c #C23D7D",
"D  c #C0357D",
"F  c #E78402",
"G  c #EF9200",
"H  c #F29500",
"J  c #FCAB00",
"K  c #FCA700",
"L  c #F7BC01",
"P  c #EDA400",
"I  c #FCC900",
"U  c #FFD100",
"Y  c #470385",
"T  c #4B0284",
"R  c #4E0C84",
"E  c #4E038A",
"W  c #4D0C8D",
"Q  c #40038F",
"!  c #51048E",
"~  c #520C8C",
"^  c #500D85",
"/  c #541285",
"(  c #54128A",
")  c #591789",
"_  c #4D0292",
"`  c #4C0199",
"'  c #540493",
"]  c #550994",
"[  c #580B97",
"{  c #560499",
"}  c #59069C",
"|  c #56089C",
" . c #5A0B9C",
".. c #561393",
"X. c #5E199D",
"o. c #5A1699",
"O. c #611999",
"+. c #7C2982",
"@. c #69259C",
"#. c #64209D",
"$. c #5E06A5",
"%. c #5E0BA4",
"&. c #5D06A9",
"*. c #5F0AAB",
"=. c #5E15A0",
"-. c #5E18A6",
";. c #600DA7",
":. c #6106AA",
">. c #620BAA",
",. c #6006A7",
"<. c #6214A5",
"1. c #621CA4",
"2. c #6513AD",
"3. c #6915AD",
"4. c #651CAC",
"5. c #691AAD",
"6. c #650BB1",
"7. c #6714B0",
"8. c #6916B1",
"9. c #6A1CB3",
"0. c #6B1BB5",
"q. c #6721AA",
"w. c #6A24AD",
"e. c #6C26A7",
"r. c #742AAC",
"t. c #7532A9",
"y. c #6D24B5",
"u. c #6F28B7",
"i. c #6F26B8",
"p. c #6F28B8",
"a. c #7224B6",
"s. c #722BB3",
"d. c #7126BA",
"f. c #722AB9",
"g. c #782BBB",
"h. c #7C34B6",
"j. c #7731BD",
"k. c #7B33BE",
"l. c #7F38BA",
"z. c #7D34C1",
"x. c #7F38C0",
"c. c #822A82",
"v. c #813083",
"b. c #823CBB",
"n. c #8036BA",
"m. c #C03B80",
"M. c #B2468A",
"N. c #C44181",
"B. c #C94585",
"V. c #CC468A",
"C. c #CD4989",
"Z. c #C2468A",
"A. c #D34D8D",
"S. c #D34984",
"D. c #D0528F",
"F. c #DA5493",
"G. c #DC5B99",
"H. c #D55592",
"J. c #CF5890",
"K. c #E25C9C",
"L. c #E75B97",
"P. c #DE619E",
"I. c #DD689F",
"U. c #E5639E",
"Y. c #F3639F",
"T. c #DD6EA4",
"R. c #EB64A4",
"E. c #E56BA5",
"W. c #EE6CA9",
"Q. c #E463A0",
"!. c #F46BAB",
"~. c #F167A7",
"^. c #E476AA",
"/. c #F177AF",
"(. c #F96FB0",
"). c #FB73B2",
"_. c #F47BB3",
"`. c #FA7CB6",
"'. c #FB75B4",
"]. c #8335C2",
"[. c #843CC2",
"{. c #893EC5",
"}. c #883EC9",
"|. c #8C43C6",
" X c #8D45C8",
".X c #8F48C8",
"XX c #8740C4",
"oX c #924AC9",
"OX c #9851CE",
"+X c #9950D2",
"@X c #EB84B4",
"#X c #FB84BA",
"$X c #F78CBE",
"%X c #FB8CBC",
"&X c #F684B9",
"*X c #F791BE",
"=X c #FB95C2",
"-X c #FA9BC5",
";X c #FB9DC9",
":X c #FE8DC1",
">X c #FBA2CA",
",X c #FAA8CE",
"<X c #F9B2D4",
"1X c #F9AFD2",
"2X c None",
/* pixels */
"2X2X2X2X2X2X2X2X2X2X2X2X2X2X2X2X2X2X2X2X2X2X2X2X2X2X2X2X2X2X2X2X2X2X2X2X2X2X2X2X2X2X2X2X2X2X2X2X2X2X2X2X2X2X2X2X2X2X2X2X2X2X2X2X2X",
"2X2X2X2X2X2X2X2X2X2X2X2X2X2X2X2X2X2X2X2X2X2X2X2X2X2X2XC C V C 2X2X2X2X2X2X2X2X2X2X2X2X2X2X2X2X2X2X2X2X2X2X2X2X2X2X2X2X2X2X2X2X2X2X",
"2X2X2X2X2X2X2X2X2X2X2X2X2X2X2X2X2X2X2X2X2X2X2X2X2X2XC K.B.C H.C.2X2X2X2X2X2X2X2X2X2X2X2X2X2X2X2X2X2X2X2X2X2X2X2X2X2X2X2X2X2X2X2X2X",
"2X2X2X2X2X2X2X2X2X2X2X2X2X2X2X2X2X2X2X2X2X2X2X2X2X2X2XB.V N B.H.B.2X2X2X2X2X2X2X2X2X2X2X2X2X2X2X2X2X2X2X2X2X2X2X2X2X2X2X2X2X2X2X2X",
"2X2X2X2X2X2X2X2X2X2X2X2X2X2X2X2X2X2X2X2X2X2X2X2X2X2X2X2X2X2XN I.E.N.2X2X2X2X2X2X2X2X2X2X2X2X2X2X2X2X2X2X2X2X2X2X2X2X2X2X2X2X2X2X2X",
"2X2X2X2X2X2X2X2X2X2X2X2X2X2X2X2X2X2X2X2X2X2X2X2X2X2X2X2X2X2XA ^.:XK.S 2X2X2X2X2X2X2X2X2X2X2X2X2X2X2X2X2X2X2X2X2X2X2X2X2X2X2X2X2X2X",
"2X2X2X2X2X2X2X2X2X2X2X2X2X2X2X2X2X2X2X2X2X2X2X2X2X2X2X2X2XB V H._.#XG.m k k l 2X2X2X2X2X2X2X2X2X2X2X2X2X2X2X2X2X2X2X2X2X2X2X2X2X2X",
"2X2X2X2X2X2X2X2X2X2X2X2X2X2X2X2X2X2X2X2X2X2X2X2X2X2X2XV D.Q.U.H./.;XG.m M C N 2X2X2X2X2X2X2X2X2X2X2X2X2X2X2X2X2X2X2X2X2X2X2X2X2X2X",
"2X2X2X2X2X2X2X2X2X2X2X2X2X2X2X2X2X2X2X2X2X2X2X2X2Xm.m.m C `.%XE.E.E.C.C F.m.l m l 2X2X2X2X2X2X2X2X2X2X2X2X2X2X2X2X2X2X2X2X2X2X2X2X",
"2X2X2X2X2X2X2X2X2X2X2X2X2X2X2X2X2X2X2X2X2X2X2X2X2Xm.D.Z V.%X>X$XR.V.N.K.(.V.A Z m 2X2X2X2X2X2X2X2X2X2X2X2X2X2X2X2X2X2X2X2X2X2X2X2X",
"2X2X2X2X2X2X2X2X2X2X2X2X2X2X2X2X2X2X2X2X2X2X2X2X2XN.R.(._.=X-X-X#XR.K.~.!.~.~.C.m 2X2X2X2X2X2X2X2X2X2X2X2X2X2X2X2X2X2X2X2X2X2X2X2X",
"2X2X2X2X2X2X2X2X2X2X2X2X2X2X2X2X2X2X2X2X2X2X2X2XB N.R.#XT.C./.-X=X_.).R.C S.`.K.m j 2X2X2X2X2X2X2X2X2X2X2X2X2X2X2X2X2X2X2X2X2X2X2X",
"2X2X2X2X2X2X2X2X2X2X2X2X2X2X2X2X2X2X2X2X2X2X2XJ.J.Z.E.=X@X@X%X&XG.H.`.&XP.K.'.K.N M B 2X2X2X2X2X2X2X2X2X2X2X2X2X2X2X2X2X2X2X2X2X2X",
"2X2X2X2X2X2X2X2X2X2X2X2X2X2X2X2X2X2X2X2X2X2XV P.W.G.&X,X<X1X>X%X^.^.*X*X`.(.).R.S S B k 2X2X2X2X2X2X2X2X2X2X2X2X2X2X2X2X2X2X2X2X2X",
"2X2X2X2X2X2X2X2X2X2X2X2X2X2X2X2X2X2X2X2X2X2XN B.~.`.-X1X<X<X>X>X*X-X$X#X'.).).!.F.V l l 2X2X2X2X2X2X2X2X2X2X2X2X2X2X2X2X2X2X2X2X2X",
"2X2X2X2X2X2X2X2X2X2X2X2X2X2X2X2X2X2X2X2X2X2Xj V U.&X-X>X>X>X>X*X%X#X'.).).).(.!.F.M k j 2X2X2X2X2X2X2X2X2X2X2X2X2X2X2X2X2X2X2X2X2X",
"2X2X2X2X2X2X2X2X2X2X2X2X2X2X2X2X2X2X2X2X2X- n A.(.`.`.&X%X%X*X*X`.'.(.).(.(.~.L.S.D l q 2X2X2X3 2X2X2X2X2X2X2X2X2X2X2X2X2X2X2X2X2X",
"2X2X2X2X2X2X2X2X2X2X2X2X2X2X2X2X2X2X2X2X4 o.w b F.Y.Y.L.M.v +.+.+.c.q c.Z.Y.L.F.S.S n 0 ! 2X2X' ! 2X2X2X2X2X2X2X2X2X2X2X2X2X2X2X2X",
"2X2X2X2X2X2X2X2X2X2X2X2X2X2X2X2X3 5 ] R R s.=.8 c v v z w W W W W W W ( e v c.b c q w o.<.5 ' 6.' 3 2X2X2X2X2X2X2X2X2X2X2X2X2X2X2X",
"2X2X2X2X2X2X2X2X2X2X2X2X2X2X2X5 3 o.d.o./ n.d.' T / ) / #.j.j.j.j.z.k.a...^ R R T 6 1.z.q.4 ' >.{ 3 5 2X2X2X2X2X2X2X2X2X2X2X2X2X2X",
"2X2X2X2X2X2X2X2X2X2X2X2X2X2XE { 4 t.|.1.6 b.b.2.2.k.[.l.[. X|.{.}.|.{.d.4.1.q.-.| %.a.[.q.T ' 6.' 4 } T 2X2X2X2X2X2X2X2X2X2X2X2X2X",
"2X2X2X2X2X2X2X2X2X2X2X2X2X2XE } 4 t.+Xe./ h.oXk.i.z.k.z.z.j.g.y.3.8.8.;.~ 6 R 6 R <.O.o.y.%.2.8.' 4 } E 2X2X2X2X2X2X2X2X2X2X2X2X2X",
"2X2X2X2X2X2X2X2X2X2X2X2X2X2XE E ' h.+Xt.6 s.oX X{.x.f.p.j.XXXX].].g.0.0. .4 ; ; - 6 7 R f.i.i.8.' 4 } $.2X2X2X2X2X2X2X2X2X2X2X2X2X",
"2X2X2X2X2X2X2X2X2X2X2X2X2X' ' 4 $.n.OXh.~ ..s. XoXb.y.7.1.e.@.@.@.O.....! E Y T R E T W X.y.d.8.' 4 $.:.! 2X2X2X2X2X2X2X2X2X2X2X2X",
"2X2X2X2X2X2X2X2X2X2X2X2X2X' ' 4 } ].OX].%.4 X.x.[.f.2.2. ./ / ) ) ) ( R R  .2.*.$.&.,.' 6 w.z.0.' 3 $.>.! 2X2X2X2X2X2X2X2X2X2X2X2X",
"2X2X2X2X2X2X2X2X2X2X2X2X2X} ] 4 } g.oX{.%.- o.f.f.p.i.y.4.y.l.l.n.b.h.w.q.y.d.a.2.:.:.' 7 w.}.g.' 4 %.>.' 2X2X2X2X2X2X2X2X2X2X2X2X",
"2X2X2X2X2X2X2X2X2X2X2X2XE 0.X.4 } y.|.].%.4 X.f.i.p.f.p.p.z.z.z.z.z.z.f.f.p.k.[.d.>.,.' 7 w.z.f.2.} ,.8.2.2X2X2X2X2X2X2X2X2X2X2X2X",
"2X2X2X2X2X2X2X2X2X2X2X- {  .~ ] 2.0.{.{.5.' ;.y.f.f.p.i.k.x.p.y.y.y.d.[.{.b. X Xf.>.:.' 7 q.f.f.4.' %.0.f.4.E 2X2X2X2X2X2X2X2X2X2X",
"2X2X2X2X2X2X2X2X2X2X2X5 2.~ 4 $.d.f.k.[.k.5.'  .y.f.f.p.k.k.j.k.x.x.[.[.[. XOX Xg.7.{ E _ w.z.p.X.3 } d.f.y.$.3 2X2X2X2X2X2X2X2X2X",
"2X2X2X2X2X2X2X2X2X2XE ;.4.~ E 2.d.f.y.k. Xk...' %.4.y.f.g.f.f.l.XXXX[.f.p.[. XXXd.>.E Y 2.y.p.g.q.5 ' 8.d.i.>.T 2X2X2X2X2X2X2X2X2X",
"2X2X2X2X2X2X2X2X2X5 >.d.( T ;.i.i.d.y.j. X.Xh.2.[ R %.0.y.w.u.j.g.j.f.f.y.p.f.y.;.} E R i.i.f.n.k.} 4 [ 0.f.a.>.5 2X2X2X2X2X2X2X2X",
"2X2X2X2X2X2X2X2X2XT >.d.6 E 7.f.f.p.p.d.k..XoXz.4.<.$.>.[ ..y.p.y.y.p.y.5.*.2.%.Y 4 E <.y.7.0.[.{.$.- ' 8.k.[.8.T 2X2X2X2X2X2X2X2X",
"2X2X2X2X2X2X2X2X2X| 5...E  .0.f.d.p.p.y.8.k.x.[.].f.9.8.=.X.y.f.y.2.7.2.! Y T Y E O.r.0.2.:.9.[..Xr.4 ! 0.g.x.y.{ 2X2X2X2X2X2X2X2X",
"2X2X2X2X2X2X2X2X .i.p.( =.y.f.p.u.d.f.8.;.7.y.k.x.s.p.f.f.f.f.f.8.2.2.2.../ R ~ a. Xn.2.,.,.y.k.XXXX~ { 0.f.i.i.0. .2X2X2X2X2X2X2X",
"2X2X2X2X2X2X4 | 0.y.4.y.i.i.p.f.s.p.f.y.>.*.7.y.p.f.f.f.f.f.y.y.y.p.y.i.y.y.y.k..X|.a.$.,.>.y.s.n.{.2.' 2.y.p.j.g.8.{ 4 2X2X2X2X2X",
"2X2X2X2X2X4 { 0.f.1.R y.f.f.p.s.f.p.i.f.y.;.;.>.2.i.y.p.f.i.f.f.p.f.j.f.g.f.x..X{.a.,.,.;.0.d.d.z.{.3.! ~ 8.f.[.k.8.*.| 5 2X2X2X2X",
"2X2X2X2X2X4 $.i.g.4.] y.f.f.d.d.p.p.d.f.p.y.y.2.*.;.2.y.f.i.f.[.k.k.XX[.j.k.[.k.9.,.$.2.9.f.f.p.f.k.k.O.{ >.f.k.j.y.3.>.} 5 2X2X2X",
"2X2X2X2X2X] 5.y.f.y.0.k.f.f.p.y.8.y.k.k.f.p.f.y.8.2.:.;.5.2.8.k.j.g.b.g.8.y.a.2.$.$.;.0.f.[.f.i.y.f.[.0.{ ] 8.y.k.[.g.,.:.} 2X2X2X",
"2X2X2X2X' 8.p.d.d.f.x.{.j.i.f.y.*.5.[.XXf.y.y.f.f.y.8.2.2.2.3.y.y.8.2.$.$.$.$.,.2.2.9.f.j. Xk.y.f.f.d.8.' T ] y.[..X{.9.>.:.} 2X2X",
"2X2X2X' 7.p.s.p.y.k..Xf.p.a.f.9.;.9.[.XXg.i.f.f.f.f.y.i.y.y.y.d.8.;.>.>.>.>.>.2.y.p.f.f.f.[.x.p.y.y.f.f.8.{ T w.f.k.oX{.3.$.>.{ - ",
"2X2X' :.8.f.p.y.d.l. Xf.p.s.y.>.>.8.[.oXXXf.f.p.p.p.p.p.f.f.f.f.f.y.y.y.y.y.y.y.i.f.p.y.p.f.XXl.9.2.y.p.f.8. .y.f.f.b.oXf.>.>.%.4 ",
"2X' :.2.y.a.p.i.k.[.j.d.p.f.9.$.$.9.x.oX.Xf.p.d.p.p.f.i.k.[.XXXX{.XX[.f.p.p.f.f.p.f.f.f.p.s.XXoXk.7.2.y.f.f.0.8.y.p.f..Xg.y.2.$.' ",
"4 >.2.y.f.f.k.[. XXXy.i.f.f.y.*.$.9.f.XX.X[.l.j.y.p.k.[.XXoXoXoXXX[.[.[.f.k.{.l.d.p.y.f.p.d.XXoXXXd.5.y.f.p.d.4.7.y.f.[.x.j.7.&.>.",
"T $.y.f.f.x.oXoX.Xx.p.i.p.f.y.>.2.y.y.j..XoXoX{.g.k..XoXoX.XXX[.k.y.j.[.k.k.XX[.h.f.y.f.d.d.XXoXXXd.p.f.u.d.u.q.%.2.f.f..Xx.5.$.$.",
":.>.0.i.j.{.XX Xx.i.i.f.f.s.d.f.p.p.y.k..X.X.X.X.X.XoX X.X{.f.y.y.y.y.y.d.s.f.j.XXk.p.d.u.s.{.oXXXs.f.y.p.f.y.7 ' 0.d.d.{.g.7.>.>.",
">.>.>.>.2.3.3.2.;.2.d.f.f.d.p.d.d.p.y.k..XoX.XoXoXoX.Xl.f.g.y.2.>.;.>.2.0.f.y.f.j.f.d.f.f.XX.XoX.XXXf.2.8.f.w.4 ' 6.>.>.2.2.>.$.$.",
"6.:.:.' T T T T T ' 7.7.2.2.2.2.2.3.9.d.k. X.XoXoX.Xx.p.p.y.2.$.$.$.$.:.2.2.2.7.y.f.p.f.XXoXoXoXoX.Xj.;.,.8.y. .} :.} T Y Y T E E ",
">.' ! 2X2X2X2X2X2X2XE ' E { &.&.$.$.2.8.f.x.[.n.[.x.f.9.8.2.:.$.&.>.:.$.$.$.$.:.2.9.y.k.oXoXoXoX Xb.0.;.,.>.5. .' ' 2X2X2X2X2X2X2X",
"' 2X- 2X2X2X2X2X2X2X2X2X2X2X} }  .$.,.;.9.y.y.y.0.0.y.;.$.:.:.>.>.>.,.>.$.>.>.>.$.&.7.z.XX X X.X].y.>.$.,.$.' 2X2X2X2X2X2X2X2X2X2X",
"3 2X2X2X2X2X2X2X2X2X2X2X2X2X3 3 3 ' $.%.$.>.0.0.;.>.>.>.>.$.$.$.$.$.$.,.$.$.$.*.:.*.8.p.p.f.[.x.y.y.>.:.>.' 3 2X2X2X2X2X2X2X2X2X2X",
"2X2X2X2X2X2X2X2X2X2X2X2X2X2X2X2X2X2X3 ! $.:.>.*.&.&.&.:.} T T T T T T T T T R R %.&.*.7.i.f.g.g.0.;.>.&.' 2X2X2X2X2X2X2X2X2X2X2X2X",
"2X2X2X2X2X2X2X2X2X2X2X2X2X2X2X2X2X2X4 } :.:._ Y T Q Y E 2 2X2X2X2X2X2X2X2X2X2Xt 8 Q { *.7.7.>.2.7.$.! T 2X2X2X2X2X2X2X2X2X2X2X2X2X",
"2X2X2X2X2X2X2X2X2X2X2X2X2X2X2X2X2X2X2X' ` ' < = = = = * + 2X2X2X2X2X2X2X2X2Xr i y 1 e Q _ _ ' ! ' E 2X2X2X2X2X2X2X2X2X2X2X2X2X2X2X",
"2X2X2X2X2X2X2X2X2X2X2X2X2X2X2X2X2X2X2X2 : 1 i F F h d #                     # s h h p > > > 2 2X2X2X2X2X2X2X2X2X2X2X2X2X2X2X2X2X2X",
"2X2X2X2X2X2X2X2X2X2X2X2X2X2X2X2X2X2X2X2Xi a F L I J d #                     # d K I I F a i 2X2X2X2X2X2X2X2X2X2X2X2X2X2X2X2X2X2X2X",
"2X2X2X2X2X2X2X2X2X2X2X2X2X2X2X2X2X2X2X2X2Xu f K U J d #                     @ d J U I G f u 2X2X2X2X2X2X2X2X2X2X2X2X2X2X2X2X2X2X2X",
"2X2X2X2X2X2X2X2X2X2X2X2X2X2X2X2X2X2X2X2X  O r d G g & X                     X & g G g s u # o 2X2X2X2X2X2X2X2X2X2X2X2X2X2X2X2X2X2X",
"2X2X2X2X2X2X2X2X2X2X2X2X2X2X2X2X2X2X2X      O % r % X                         X % & % % @ .     2X2X2X2X2X2X2X2X2X2X2X2X2X2X2X2X2X",
"2X2X2X2X2X2X2X2X2X2X2X2X2X2X2X2X2X2X                                              .     .         2X2X2X2X2X2X2X2X2X2X2X2X2X2X2X2X",
"2X2X2X2X2X2X2X2X2X2X2X2X2X2X2X2X2X2X2X                                                            2X2X2X2X2X2X2X2X2X2X2X2X2X2X2X2X",
"2X2X2X2X2X2X2X2X2X2X2X2X2X2X2X2X2X2X2X2X                                                        2X2X2X2X2X2X2X2X2X2X2X2X2X2X2X2X2X",
"2X2X2X2X2X2X2X2X2X2X2X2X2X2X2X2X2X2X2X2X2X                                                    2X2X2X2X2X2X2X2X2X2X2X2X2X2X2X2X2X2X",
"2X2X2X2X2X2X2X2X2X2X2X2X2X2X2X2X2X2X2X2X2X2X                                              2X2X2X2X2X2X2X2X2X2X2X2X2X2X2X2X2X2X2X2X",
"2X2X2X2X2X2X2X2X2X2X2X2X2X2X2X2X2X2X2X2X2X2X2X2X                                      2X2X2X2X2X2X2X2X2X2X2X2X2X2X2X2X2X2X2X2X2X2X",
"2X2X2X2X2X2X2X2X2X2X2X2X2X2X2X2X2X2X2X2X2X2X2X2X2X2X2X                          2X2X2X2X2X2X2X2X2X2X2X2X2X2X2X2X2X2X2X2X2X2X2X2X2X"
};
