/* XPM */
static char *result[] = {
/* columns rows colors chars-per-pixel */
"32 32 142 2 ",
"   c black",
".  c #150800",
"X  c #190900",
"o  c #200E00",
"O  c #211000",
"+  c #2F1500",
"@  c #471D00",
"#  c #642A01",
"$  c #3C0363",
"%  c #5F1558",
"&  c #611352",
"*  c #7F264A",
"=  c #5F0662",
"-  c #430176",
";  c #46057A",
":  c #48027E",
">  c #49087D",
",  c #58097A",
"<  c #540473",
"1  c #620965",
"2  c #B05300",
"3  c #AB4D28",
"4  c #E17600",
"5  c #EB7C00",
"6  c #9B1B5B",
"7  c #853744",
"8  c #922772",
"9  c #AC2B6B",
"0  c #B12A64",
"q  c #A0327F",
"w  c #B43171",
"e  c #BA3677",
"r  c #B73C7E",
"t  c #BB367A",
"y  c #CE830F",
"u  c #DE8100",
"i  c #E18400",
"p  c #F18000",
"a  c #E79500",
"s  c #FFBB00",
"d  c #FFC900",
"f  c #4B0384",
"g  c #4D0887",
"h  c #4E0289",
"j  c #4E088E",
"k  c #51048E",
"l  c #530B8D",
"z  c #55118F",
"x  c #540593",
"c  c #550D92",
"v  c #56059A",
"b  c #5A059D",
"n  c #570899",
"m  c #5A0B9B",
"M  c #541391",
"N  c #5C1794",
"B  c #5D1B92",
"V  c #5C139B",
"C  c #6A1C88",
"Z  c #6C2189",
"A  c #632196",
"S  c #5502A6",
"D  c #5D05A3",
"F  c #5E0DA2",
"G  c #5F06AC",
"H  c #5E0BAB",
"J  c #5F11A5",
"K  c #5F1CA6",
"L  c #5403B0",
"P  c #610DA7",
"I  c #6107AB",
"U  c #620CAB",
"Y  c #6113A4",
"T  c #641DA2",
"R  c #6513AC",
"E  c #6817AF",
"W  c #671AAF",
"Q  c #6B1CAD",
"!  c #630AB1",
"~  c #6614B1",
"^  c #6816B3",
"/  c #6719B0",
"(  c #6A1BB3",
")  c #6824A2",
"_  c #6B24AD",
"`  c #7429AD",
"'  c #6D24B5",
"]  c #6F24B8",
"[  c #7126B5",
"{  c #732CB4",
"}  c #7125BA",
"|  c #722BBA",
" . c #792DBC",
".. c #7A33B7",
"X. c #7630BB",
"o. c #7B33BD",
"O. c #7C35C1",
"+. c #7E38C0",
"@. c #8A2984",
"#. c #A43682",
"$. c #8034BE",
"%. c #853FBF",
"&. c #BF4380",
"*. c #C54282",
"=. c #C44788",
"-. c #CA488B",
";. c #D34B8D",
":. c #D74F94",
">. c #D95696",
",. c #DC5C99",
"<. c #E75993",
"1. c #E05C9B",
"2. c #EA5F9D",
"3. c #E2619E",
"4. c #E56CA5",
"5. c #F067A7",
"6. c #F36AAA",
"7. c #E777AC",
"8. c #EB78AD",
"9. c #F272AD",
"0. c #FE73B3",
"q. c #FF7CB4",
"w. c #8137C4",
"e. c #833CC2",
"r. c #893EC5",
"t. c #8A3FC9",
"y. c #8B43C5",
"u. c #8E46C9",
"i. c #8F48C8",
"p. c #934ACA",
"a. c #EF86B6",
"s. c #EF88B7",
"d. c #F081B4",
"f. c #F587B9",
"g. c #F888BB",
"h. c #FB86BB",
"j. c #FF91BC",
"k. c #FF8FC2",
"l. c #FD9CC5",
"z. c #FBACD1",
"x. c #FAB5D5",
"c. c None",
/* pixels */
"c.c.c.c.c.c.c.c.c.c.c.c.c.*.&.c.c.c.c.c.c.c.c.c.c.c.c.c.c.c.c.c.",
"c.c.c.c.c.c.c.c.c.c.c.c.c.9 9 ,.c.c.c.c.c.c.c.c.c.c.c.c.c.c.c.c.",
"c.c.c.c.c.c.c.c.c.c.c.c.c.c.9 8.1.c.c.c.c.c.c.c.c.c.c.c.c.c.c.c.",
"c.c.c.c.c.c.c.c.c.c.c.c.e e 9.4.4.e 9 6 c.c.c.c.c.c.c.c.c.c.c.c.",
"c.c.c.c.c.c.c.c.c.c.c.c.-.>.l.g.;.6.:.9 c.c.c.c.c.c.c.c.c.c.c.c.",
"c.c.c.c.c.c.c.c.c.c.c.*.>.f.7.f.9.3.6.*.6 c.c.c.c.c.c.c.c.c.c.c.",
"c.c.c.c.c.c.c.c.c.c.c.3.d.x.z.s.s.h.0.1.e c.c.c.c.c.c.c.c.c.c.c.",
"c.c.c.c.c.c.c.c.c.c.1 <.k.l.l.j.q.0.0.2.0 1 c.c.c.c.c.c.c.c.c.c.",
"c.c.c.c.c.c.c.c.- ; N q -.#.Z C C @.=.r 8 l f n c.c.c.c.c.c.c.c.",
"c.c.c.c.c.c.c.: [ N o.x A ) O.X.O.Y M j V | g D : c.c.c.c.c.c.c.",
"c.c.c.c.c.c.f k i.B %.w.w.O.r. .} F > ; z T ( J k f c.c.c.c.c.c.",
"c.c.c.c.c.c.k x p.T V i.} Y A A B l k x k l | P h D c.c.c.c.c.c.",
"c.c.c.c.c.c.m h t.Q g | ] ' [ ....' | ] ! f { Q v U c.c.c.c.c.c.",
"c.c.c.c.c.x c F o. .n Q | X.o.| | e.y.w.U h ' _ x } Y c.c.c.c.c.",
"c.c.c.c.g T k ] ' y.{ n K ] | +.w.| e. .x c | { h W ( g c.c.c.c.",
"c.c.c.c.F c F | [ | y.o.R F T ] ( W n h l / ^ t.l n w.Y c.c.c.c.",
"c.c.c.m ' K ] ] | R R o.| | | ' / K z _ t.D R e.` D | | m c.c.c.",
"c.c.k } V { ] | | ' R H ( [ | | o.o.O.t.R U ] | o.x ( o.^ x c.c.",
"c.c.W | ' o.| ( | X.| ' R R W |  .( Q U U [ +.' o.Y c | t.U n c.",
"c.P | ' e.{ ] U | r.' | | ' ' ( U R U / | | w.[ ( ' n ' r.$.I h ",
"D ] | O.O.[ ] D | p.| | [ o.y.y.e. .o.| | ' o.y./ ' ] ( | w.' D ",
"( | u.p.| } [ / ' y.p.w.y.p.y.o.[ o.o.w.| ' o.i.] | | V / e. .I ",
"U P Y m / } ] ' ' e.p.p.p.o.' U U R ( | | | y.p.+.R ' l U F m D ",
"k c.c.c.: f b D U ' o.$.| ^ U I U I I U / y.p.i.{ G U k f c.c.c.",
"c.c.c.c.c.c.c.c.x D ~ H G G b b b b S S U | O.o.~ I f c.c.c.c.c.",
"c.c.c.c.c.c.c.c.- S x < l $ c.c.c.c.c.7 h L H U x ; c.c.c.c.c.c.",
"c.c.c.c.c.c.c.c.c.& 3 a 4 o         O 5 y 7 & c.c.c.c.c.c.c.c.c.",
"c.c.c.c.c.c.c.c.c.c.2 s i X         X u d 5 # c.c.c.c.c.c.c.c.c.",
"c.c.c.c.c.c.c.c.c.  . # +             + # @     c.c.c.c.c.c.c.c.",
"c.c.c.c.c.c.c.c.c.                              c.c.c.c.c.c.c.c.",
"c.c.c.c.c.c.c.c.c.c.                          c.c.c.c.c.c.c.c.c.",
"c.c.c.c.c.c.c.c.c.c.c.c.                  c.c.c.c.c.c.c.c.c.c.c."
};
