/* XPM */
static char *result[] = {
/* columns rows colors chars-per-pixel */
"32 32 223 2 ",
"   c #000000",
".  c #0C0107",
"X  c #1A0900",
"o  c #070019",
"O  c #131514",
"+  c #2B1101",
"@  c #381800",
"#  c #220F00",
"$  c #0D0028",
"%  c #191E24",
"&  c #1A0039",
"*  c #150025",
"=  c #1E2524",
"-  c #242527",
";  c #2E3238",
":  c #4A180E",
">  c #4E2000",
",  c #672900",
"<  c #793200",
"1  c #712D00",
"2  c #4D1335",
"3  c #503C37",
"4  c #7A2625",
"5  c #7B253B",
"6  c #280249",
"7  c #2E0059",
"8  c #3F006F",
"9  c #4C0B58",
"0  c #5C1349",
"q  c #6D1854",
"w  c #772954",
"e  c #44066D",
"r  c #530469",
"t  c #5E1468",
"y  c #4A0778",
"u  c #670A66",
"i  c #79156A",
"p  c #7B1571",
"a  c #730C60",
"s  c #522B72",
"d  c #464946",
"f  c #515558",
"g  c #594B62",
"h  c #615E63",
"j  c #747577",
"k  c #717175",
"l  c #9C3B0C",
"z  c #853900",
"x  c #9E3B27",
"c  c #8A2A3D",
"v  c #B33B36",
"b  c #9B4501",
"n  c #895400",
"m  c #A84701",
"M  c #B54C00",
"N  c #B44B09",
"B  c #A85300",
"V  c #B65A00",
"C  c #AE5616",
"Z  c #B96903",
"A  c #B47009",
"S  c #9E4530",
"D  c #B2472E",
"F  c #9E6820",
"G  c #B6612C",
"H  c #C85900",
"J  c #D25B00",
"K  c #E05F1C",
"L  c #C86700",
"P  c #D76500",
"I  c #D77700",
"U  c #C6671A",
"Y  c #E67800",
"T  c #E16900",
"R  c #C7522D",
"E  c #C8553A",
"W  c #D34C3B",
"Q  c #CB6139",
"!  c #9B1C5C",
"~  c #8E185F",
"^  c #8F294D",
"/  c #A5295E",
"(  c #961D63",
")  c #801A73",
"_  c #942B68",
"`  c #A62568",
"'  c #B22C68",
"]  c #B9336D",
"[  c #B42C71",
"{  c #BD3B7B",
"}  c #B63275",
"|  c #C03E7E",
" . c #B04E76",
".. c #AB7F6C",
"X. c #CB427D",
"o. c #EC7A7D",
"O. c #C94F4E",
"+. c #7B8275",
"@. c #DD8F00",
"#. c #E78800",
"$. c #F38600",
"%. c #E69A00",
"&. c #F89500",
"*. c #FEA500",
"=. c #FEAC01",
"-. c #FCB709",
";. c #FDD306",
":. c #FEC02A",
">. c #FDE35E",
",. c #F6CA63",
"<. c #FFE67E",
"1. c #490586",
"2. c #510C89",
"3. c #5A188D",
"4. c #4F0B92",
"5. c #550B93",
"6. c #59079B",
"7. c #57169A",
"8. c #4F149A",
"9. c #780D89",
"0. c #651C95",
"q. c #771996",
"w. c #582384",
"e. c #782998",
"r. c #6B379C",
"t. c #5B02A3",
"y. c #5E04AB",
"u. c #590CAA",
"i. c #5715AA",
"p. c #5503AA",
"a. c #6309AC",
"s. c #6408B0",
"d. c #691AB7",
"f. c #701DAA",
"g. c #6928A5",
"h. c #7929A7",
"j. c #7431A9",
"k. c #6D25B3",
"l. c #7225BA",
"z. c #772CBD",
"x. c #7328B8",
"c. c #7E37BA",
"v. c #5F4084",
"b. c #634580",
"n. c #7B6A8A",
"m. c #6415C0",
"M. c #772AC1",
"N. c #883DBC",
"B. c #C93D85",
"V. c #AE6F8C",
"C. c #CD4C8B",
"Z. c #C94585",
"A. c #D34B8C",
"S. c #DA4A89",
"D. c #CA538B",
"F. c #D44E95",
"G. c #DA569A",
"H. c #DD538D",
"J. c #E45C9D",
"K. c #E75593",
"L. c #D5639A",
"P. c #C6609C",
"I. c #EB6C99",
"U. c #E35AA0",
"Y. c #DE76A6",
"T. c #EA66A5",
"R. c #F56DAC",
"E. c #E879AD",
"W. c #FB78B5",
"Q. c #F36BAF",
"!. c #863CC7",
"~. c #802EC7",
"^. c #8D44CB",
"/. c #984FD0",
"(. c #9850D0",
"). c #FF74C3",
"_. c #8E8793",
"`. c #959598",
"'. c #8E8F88",
"]. c #A19D96",
"[. c #9EA39B",
"{. c #9C9EA1",
"}. c #A5A6A4",
"|. c #B6B7B5",
" X c #BCBCBC",
".X c #BEB4B2",
"XX c #ADB4A7",
"oX c #F49889",
"OX c #FBB288",
"+X c #E787B3",
"@X c #F589BA",
"#X c #EF92BD",
"$X c #F992BC",
"%X c #F981AF",
"&X c #C2B7B0",
"*X c #BFC0BD",
"=X c #FFF096",
"-X c #CFC3BD",
";X c #BEBFC0",
":X c #FF8DC2",
">X c #FA93C7",
",X c #FF92D0",
"<X c #FDA3CC",
"1X c #F9A8CE",
"2X c #FCABD5",
"3X c #FCB1E0",
"4X c #C3C3C2",
"5X c #CCCCCC",
"6X c #C6CBC5",
"7X c #D3D4D3",
"8X c #DCDCDC",
"9X c #D7D8D8",
"0X c #D1D2CF",
"qX c #F9C5DD",
"wX c #DADDE0",
"eX c #FFD3EF",
"rX c #DCE4E8",
"tX c #E2E2E2",
"yX c #EBEBEB",
"uX c #F4F4F4",
"iX c #FCFCFC",
"pX c #F1F6F9",
"aX c None",
/* pixels */
"aXaXaXaXaXaXaXaXaXaXaXaXaXaXaXaXaXA.X.{ Z.aXaXaXaXaXaXaXaXaXaXaX",
"aXaXaXaXaXaXaXaXaXaXaXaXaXaXaXaXG.E.` ! { aXaXaXaXaXaXaXaXaXaXaX",
"aXaXaXaXaXaXaXaXaXaXaXaXaXaXZ.C.@XL.~ ! aXaXaXaXaXaXaXaXaXaXaXaX",
"aXaXaXaXaXaXaXaXaXaXaXaXZ.[ U.$X@XZ.K.` ! aXaXaXaXaXaXaXaXaXaXaX",
"aXaXaXaXaXaXaXaXaXaXaXaX| R.T.E.%XA.Q.T.[ aXaXaXaXaXaXaXaXaXaXaX",
"aXaXaXaXaXaXaXaXaXaXaXD.Z.@X@XY.<XT.U.W.{ ' aXaXaXaXaXaXaXaXaXaX",
"aXaXaXaXaXaXaXaXaXaXr S.W.1X#X$X1X@XT.W.J.' u aXaXaXaXaXaXaXaXaX",
"aXaXaXaXaXaXaXaXaX5.h.D.2X@XJ.[ E.{ Z.J.R.] 9.1.aXaXaXaXaXaXaXaX",
"aXaXaXaXaXaXaX1.i.d.N.C.3XqX1XD.K.A.E.W.R.] q.s.u.1.aXaXaXaXaXaX",
"aXaXaXaXaXaXe p t 2 g.h.D.>X<X#XL.+X$XW.X.q.d.2 9 ) r aXaXaXaXaX",
"aXaXaXaXaXe ~ K.H.S N i.h.` _ W.#X%X} ! 9.i.S C G.S.( r aXaXaXaX",
"aXaXaXaXaXa H.E.T.W Z o 6 4.0.p p i 0.4.7 $ n K G.T.{ ~ aXaXaXaX",
"aXaXaXaXaX[ >X+X` m @   6 M.M.u.1.6.M.!.y   X b ^ #XT.' u aXaXaX",
"aXaXaXaXr B.O.H 4     & c.x.7.0.P.e.8.k.M.7     : H R A.u aXaXaX",
"aXaXaXaXr v %.*.H 1 Z 4 t l _ G.T.A._ l w 0 A b N *.$.R u aXaXaX",
"aXaXaXaXq P =.#.L M R E E Q I.>XW.W.J.E D D R M H #.&.Y 5 aXaXaX",
"aXaXaXaX6.S T ,.=XL 2 G.,X3XeX3X2X>X).).Q.F.q C =X;.Y N f.1.aXaX",
"aXaXaXaXd.i L >.:.Z .   w D.].oXOXo. . .^ .   F -.-.I ^ s.1.aXaX",
"aXaXaX1.d.y.~ Z U .Xj -       L #.V X     O k {.G V ^ y.d.7.aXaX",
"aXaXaXg.l.y.r.'.-X9X4X8X|.k d A L L 3 f }.{.8X5X;X{.g s.d.x.aXaX",
"aXaXaXj.l.t._.6X9X7XtXiX|.tXiX-X..&XpXiXyX X0X8X9X0Xj 5.d.N.aXaX",
"aXaXaXj.l.t._.7X8XyXuXiX4XuXtXiXwXiXyXuXiXyX XyX9X*Xj 5.d.g.aXaX",
"aXaXaXc.l.t._.*X8XtXyXiXwXyX|.uX5XyX8XuXyXuX8XyX0X6X'.2.s.k.2.aX",
"aXaX2.!.k.t.n.[.4X5X9XiXuX8X4X X'.tX0XuXtXiXyXyX8X6Xh 6.a.z.g.aX",
"aXaX3.(.l.y.k.n.}.0X-XyXwX6X4X`.d [.|.7X7XiX5X8X6Xk g.a.u.z.g.aX",
"aXaX3.(.l.a.z.c.n._.XX|.5X;X+.s 5.3.n.}.}. X`.`.g g.M.a.6.M.j.aX",
"aXaX3.^.7.1.z.(.m.g.r.; ; ; s y.a.s.6.- = % - aXaXM.^.2.aX7.g.aX",
"aXaX2.3.aXaX2.c.l.1.l B B b 9 y.a.6.$ + V B B m aXy 2.aXaXaXy aX",
"aXaXe aXaXaXaXaX6 o V ;.-.J + & 6 *   > *.;.$.< aXaXaXaXaXaXe aX",
"aXaXaXaXaXaXaXaX  @ L #.L m #         @ P I L b aXaXaXaXaXaXaXaX",
"aXaXaXaXaXaXaXaXaXz #.%.P ,             1 P %.#.M aXaXaXaXaXaXaX",
"aXaXaXaXaXaXaXaXaXM H 1 + X             X > M V M aXaXaXaXaXaXaX"
};
