/* XPM */
static char *result[] = {
/* columns rows colors chars-per-pixel */
"65 65 254 2 ",
"   c #010000",
".  c #080407",
"X  c #170903",
"o  c #0B0616",
"O  c #151618",
"+  c #190E11",
"@  c #2B1401",
"#  c #371901",
"$  c #270F17",
"%  c #160026",
"&  c #181129",
"*  c #2F0E2E",
"=  c #343435",
"-  c #332314",
";  c #491D00",
":  c #501C09",
">  c #572402",
",  c #4D220D",
"<  c #692B00",
"1  c #7A3301",
"2  c #6F340A",
"3  c #4F162B",
"4  c #6F1A2E",
"5  c #71242D",
"6  c #553F37",
"7  c #704724",
"8  c #1F0047",
"9  c #280245",
"0  c #340259",
"q  c #2D0552",
"w  c #3E006D",
"e  c #3C0869",
"r  c #3B0071",
"t  c #3A007A",
"y  c #3D304D",
"u  c #540E50",
"i  c #6D1352",
"p  c #752753",
"a  c #46036C",
"s  c #5B0565",
"d  c #410172",
"f  c #46037A",
"g  c #47087A",
"h  c #521170",
"j  c #670963",
"k  c #6F136F",
"l  c #522E70",
"z  c #76286A",
"x  c #44394D",
"c  c #4C4C4C",
"v  c #565858",
"b  c #544C5A",
"n  c #6C5D79",
"m  c #615A68",
"M  c #666865",
"N  c #777A78",
"B  c #716874",
"V  c #5A5562",
"C  c #883902",
"Z  c #963C09",
"A  c #A93C17",
"S  c #94342E",
"D  c #AB342B",
"F  c #9B4301",
"G  c #85450D",
"H  c #AC4A00",
"J  c #A74604",
"K  c #B74C04",
"L  c #B95602",
"P  c #A74716",
"I  c #B54C15",
"U  c #B15215",
"Y  c #BA6E08",
"T  c #B74A28",
"R  c #B94A34",
"E  c #B2512E",
"W  c #B46929",
"Q  c #9C6200",
"!  c #C45B00",
"~  c #CA5A01",
"^  c #C65503",
"/  c #D25D00",
"(  c #C85511",
")  c #C96500",
"_  c #D66901",
"`  c #D87900",
"'  c #CF6C0C",
"]  c #E56B01",
"[  c #E67701",
"{  c #F27800",
"}  c #CC5C26",
"|  c #981959",
" . c #891055",
".. c #8E2C4C",
"X. c #85196B",
"o. c #9A1D62",
"O. c #851B74",
"+. c #A31E66",
"@. c #97286B",
"#. c #A82767",
"$. c #B22C6D",
"%. c #B32E72",
"&. c #B53474",
"*. c #BB3A7A",
"=. c #BB3676",
"-. c #AA366E",
";. c #A52351",
":. c #C33C7C",
">. c #C13E5B",
",. c #976546",
"<. c #B14570",
"1. c #AD7754",
"2. c #C3524A",
"3. c #C6725B",
"4. c #CC4A72",
"5. c #C97166",
"6. c #C23D37",
"7. c #DB8503",
"8. c #D99400",
"9. c #E88801",
"0. c #F38801",
"q. c #E89900",
"w. c #F79901",
"e. c #E9931A",
"r. c #F9A700",
"t. c #F8B800",
"y. c #EDB20E",
"u. c #EEAC30",
"i. c #FAC700",
"p. c #FAD507",
"a. c #FED02D",
"s. c #AA8E79",
"d. c #90847C",
"f. c #F9D34C",
"g. c #FAE964",
"h. c #3A0285",
"j. c #490687",
"k. c #520A8D",
"l. c #4C0695",
"z. c #570799",
"x. c #5A1795",
"c. c #56168C",
"v. c #750C86",
"b. c #611B99",
"n. c #6D1492",
"m. c #5C3086",
"M. c #6B2891",
"N. c #5E06A5",
"B. c #5E04AA",
"V. c #5C0AA5",
"C. c #5A17A3",
"Z. c #5B0CB5",
"A. c #6106AA",
"S. c #610AAA",
"D. c #620AA5",
"F. c #6113A2",
"G. c #6514AD",
"H. c #661CA7",
"J. c #6B1CB3",
"K. c #6818B6",
"L. c #6609B2",
"P. c #6A24AA",
"I. c #742BA9",
"U. c #6C26B5",
"Y. c #742CBB",
"T. c #732AB6",
"R. c #7931BD",
"E. c #7832BA",
"W. c #71548D",
"Q. c #7B7682",
"!. c #7A35C2",
"~. c #772AC2",
"^. c #610EC7",
"/. c #8F2786",
"(. c #AA3B91",
"). c #8730A7",
"_. c #C63E81",
"`. c #B7508F",
"'. c #94659E",
"]. c #CA4786",
"[. c #D34B8A",
"{. c #C85489",
"}. c #DB5594",
"|. c #D85795",
" X c #D35491",
".X c #E35C9C",
"XX c #E25695",
"oX c #E15686",
"OX c #D86794",
"+X c #E86893",
"@X c #E85DA4",
"#X c #DA70A4",
"$X c #EC64A3",
"%X c #E868A4",
"&X c #F36CAB",
"*X c #F768AA",
"=X c #E876AB",
"-X c #F375AA",
";X c #FC74B4",
":X c #F979B7",
">X c #F371B5",
",X c #D84CA3",
"<X c #843BC4",
"1X c #8D45C7",
"2X c #8D45C9",
"3X c #944BCD",
"4X c #964ED0",
"5X c #7E8183",
"6X c #868787",
"7X c #989997",
"8X c #90958D",
"9X c #AF928E",
"0X c #9CA099",
"qX c #9FA0A3",
"wX c #A5A5A4",
"eX c #A9ABA9",
"rX c #B3B3B3",
"tX c #BCBCBC",
"yX c #B6B9B8",
"uX c #B1B4AE",
"iX c #999EA0",
"pX c #F886BA",
"aX c #F592BD",
"sX c #ED8CB7",
"dX c #C8B7B0",
"fX c #E79F94",
"gX c #FBF091",
"hX c #EAD9AB",
"jX c #B8BDC2",
"kX c #FA99C6",
"lX c #F997CD",
"zX c #FAA2CA",
"xX c #F7A5CB",
"cX c #FCA9D3",
"vX c #FAB9D9",
"bX c #BFC1C2",
"nX c #C4C4C4",
"mX c #CCCCCC",
"MX c #C7C8C9",
"NX c #D3D3D3",
"BX c #DBDBDB",
"VX c #D6D7D8",
"CX c #CCD3D7",
"ZX c #FCCAE4",
"AX c #F8D0E3",
"SX c #E4E3E3",
"DX c #ECECEC",
"FX c #E4EAEE",
"GX c #F3F3F3",
"HX c #FBFBFB",
"JX c #F4F9FD",
"KX c #E8F0F4",
"LX c #E7E9E0",
"PX c None",
/* pixels */
"PXPXPXPXPXPXPXPXPXPXPXPXPXPXPXPXPXPXPXPXPXPXPXPXPXPXPXPXPXPXPXPXPXPXPXPXPXPXPXPXPXPXPXPXPXPXPXPXPXPXPXPXPXPXPXPXPXPXPXPXPXPXPXPXPX",
"PXPXPXPXPXPXPXPXPXPXPXPXPXPXPXPXPXPXPXPXPXPXPXPXPXPXPXPXPXPXPXPXPXPX*.*.*.&.*.*.PXPXPXPXPXPXPXPXPXPXPXPXPXPXPXPXPXPXPXPXPXPXPXPXPX",
"PXPXPXPXPXPXPXPXPXPXPXPXPXPXPXPXPXPXPXPXPXPXPXPXPXPXPXPXPXPXPXPXPX[.@X%X].#.&.|.[.PXPXPXPXPXPXPXPXPXPXPXPXPXPXPXPXPXPXPXPXPXPXPXPX",
"PXPXPXPXPXPXPXPXPXPXPXPXPXPXPXPXPXPXPXPXPXPXPXPXPXPXPXPXPXPXPXPX].%X:X|.*.| $.[.[.PXPXPXPXPXPXPXPXPXPXPXPXPXPXPXPXPXPXPXPXPXPXPXPX",
"PXPXPXPXPXPXPXPXPXPXPXPXPXPXPXPXPXPXPXPXPXPXPXPXPXPXPXPXPXPXPX].$XkX#X#.PXPXPX| PXPXPXPXPXPXPXPXPXPXPXPXPXPXPXPXPXPXPXPXPXPXPXPXPX",
"PXPXPXPXPXPXPXPXPXPXPXPXPXPXPXPXPXPXPXPXPXPXPXPXPXPXPXPX=.&.=. X-XkX#X#. .| | PXPXPXPXPXPXPXPXPXPXPXPXPXPXPXPXPXPXPXPXPXPXPXPXPXPX",
"PXPXPXPXPXPXPXPXPXPXPXPXPXPXPXPXPXPXPXPXPXPXPXPXPXPX&.`.|.%X|.}.sXkX|.#.#.=.#.| PXPXPXPXPXPXPXPXPXPXPXPXPXPXPXPXPXPXPXPXPXPXPXPXPX",
"PXPXPXPXPXPXPXPXPXPXPXPXPXPXPXPXPXPXPXPXPXPXPXPXPX].%.#..XpXpX=XsX:X[.=.[.].o.#.| PXPXPXPXPXPXPXPXPXPXPXPXPXPXPXPXPXPXPXPXPXPXPXPX",
"PXPXPXPXPXPXPXPXPXPXPXPXPXPXPXPXPXPXPXPXPXPXPXPX=.[.:.#.}.pXkXlXaX|._.}.&X_.+.%.#. .PXPXPXPXPXPXPXPXPXPXPXPXPXPXPXPXPXPXPXPXPXPXPX",
"PXPXPXPXPXPXPXPXPXPXPXPXPXPXPXPXPXPXPXPXPXPXPXPX=.}.$X$X*X;XpXxXpX.X}.&X;X*X@X[.#. .PXPXPXPXPXPXPXPXPXPXPXPXPXPXPXPXPXPXPXPXPXPXPX",
"PXPXPXPXPXPXPXPXPXPXPXPXPXPXPXPXPXPXPXPXPXPXPX%.&.}.;X:X;X].{.sXkX&X X%.}.:X:X$X%. .PXPXPXPXPXPXPXPXPXPXPXPXPXPXPXPXPXPXPXPXPXPXPX",
"PXPXPXPXPXPXPXPXPXPXPXPXPXPXPXPXPXPXPXPXPXPX{.[.(. X:XkXpX X{.sXkXpX@X:.}.;X;X%X&.| %.PXPXPXPXPXPXPXPXPXPXPXPXPXPXPXPXPXPXPXPXPXPX",
"PXPXPXPXPXPXPXPXPXPXPXPXPXPXPXPXPXPXPXPXPXX. X-X[.OXpXzXxXkXaXkXkXkX:X-X&X>X;X&X:.$._.+.PXPXPXPXPXPXPXPXPXPXPXPXPXPXPXPXPXPXPXPXPX",
"PXPXPXPXPXPXPXPXPXPXPXPXPXPXPXPXPXPXPXPXPXX. X-X*XpXzXzXxXxXlXzXkXzXkX:X&X;X;X&X}.4.=.| j PXPXPXPXPXPXPXPXPXPXPXPXPXPXPXPXPXPXPXPX",
"PXPXPXPXPXPXPXPXPXPXPXPXPXPXPXPXPXPXPXPXPXO.$.XXpXzXxXzX=X{. XsXzXkX=X].[.&X;X;X*X].| | k PXPXPXPXPXPXPXPXPXPXPXPXPXPXPXPXPXPXPXPX",
"PXPXPXPXPXPXPXPXPXPXPXPXPXPXPXPXPXPXj.k.T./.&.=XlXkXpXpX%X:.%.[.sX=X].$._.XX@X*X&X}.#.| n.l.r j.PXPXPXPXPXPXPXPXPXPXPXPXPXPXPXPXPX",
"PXPXPXPXPXPXPXPXPXPXPXPXPXPXPXf g C.U.K.!.(.`.kXvXkXpXpX-X.X=.=.%X X$._.|.|.}.XX&X$X:.o.n.l.g V.k.f PXPXPXPXPXPXPXPXPXPXPXPXPXPXPX",
"PXPXPXPXPXPXPXPXPXPXPXPXPXPXj.z.H.T.U.Y.2X(.].pXvXvXvXvXvX#X].|.-X&X}.].=XkX-X>X*XXX%.o.n.G.D.J.G.N.z.f PXPXPXPXPXPXPXPXPXPXPXPXPX",
"PXPXPXPXPXPXPXPXPXPXPXPXPXw t h.l.x.l.C.2X<X/.].kXZXAXZXvXsX#X[.[.]. X#XaXaX:X;X&X].o.v.T.K.l.x.l.h.t t PXPXPXPXPXPXPXPXPXPXPXPXPX",
"PXPXPXPXPXPXPXPXPXPXPXPXr a j k k q 9 i H.!.).O.{.aXzXcXzXcXsXOX{.{.#XaXkX:X;X*X[.#./.U.K.h u 9 a k k s a PXPXPXPXPXPXPXPXPXPXPXPX",
"PXPXPXPXPXPXPXPXPXPXPXr a k $.*.*.u , Z p M.!.T./.].$X$X=XaXzXkXlXkXkXaX&X$X.X4.#.v.J.R.c.5 Z $ p ].%.o.j d PXPXPXPXPXPXPXPXPXPXPX",
"PXPXPXPXPXPXPXPXPXPXPXa i $.}.$X}.-...K ~ ..x.J.I.O.#.#.#. X:XkXxXzXkX-X:.#.#.#.v.G.K.c.R ~ P <.|.$X].=.| j r PXPXPXPXPXPXPXPXPXPX",
"PXPXPXPXPXPXPXPXPXPXs X.%.$.].&X&X@X<.K r.G q l.C.I.k s u o.:.].].4.4.=.i s j v.z.V.j.* U 9.T oX;X*X_.o.#.+.j PXPXPXPXPXPXPXPXPXPX",
"PXPXPXPXPXPXPXPXPXPXs +.[.4.{.:X;X,X>.' 9.2 o 8 9 g x.c.c.v.O. .O.X.k O.M.k.j.j.e q % @ Q 0.( :.@X>X|.%.$.#. .a PXPXPXPXPXPXPXPXPX",
"PXPXPXPXPXPXPXPXPXPXj #.+XkXkXkX|.%.6.] L # . . . 9 c.U.<XY.b.j.x.k.j.H.R.R.J.g % o . X < ) ] ;.(.=XlX>X[.$.X.s PXPXPXPXPXPXPXPXPX",
"PXPXPXPXPXPXPXPXPXj #.[.sXxXcX>X&.S I K ; X   . 8 g T.<XY.K.A.z.j.k.V.L.K.<X<XP.e %     X < K A ;.{.cXlX%X:.#.o.PXPXPXPXPXPXPXPXPX",
"PXPXPXPXPXPXPXPXPXi $.}.>XOX5.2.;.4 : ; .   . 9 j.Y.4X3XY.J.B.k.k n.l.G.J.!.4X2XP.r % .   X ; > 4 $.3.5.oX].%.| j PXPXPXPXPXPXPXPX",
"PXPXPXPXPXPXPXPXd j $.}.:.T ( K D *         o g E.!.U.U.C.z.x.M.|.`.M.x.C.H.T.T.~.C.0 .       X 4 D ^ I 2.{.].+.s PXPXPXPXPXPXPXPX",
"PXPXPXPXPXPXPXPXd j $.4.T _ { [ ^ : X @ @ # $ g Y.M.k h h h /.#XsXsX,Xh g h h h P.C.e $ @ # @ @ 1 _ { ] ( 2.}.+.s PXPXPXPXPXPXPXPX",
"PXPXPXPXPXPXPXPXa j ;.T 7.t.t.w.{ H 1 G Y Y S h c...I S -.`.|..X.X%X X-.@...P T z h.u P Y ) H C ! w.t.r.{ ' R ;.j PXPXPXPXPXPXPXPX",
"PXPXPXPXPXPXPXPXd i A _ t.i.t.` ~ K H K ` ` K 5 5 P ~ L 4.*X&X.X.X.X.XXX XR K ~ Z 3 S ) 8.` / K K ` q.r.r.{ ^ D u PXPXPXPXPXPXPXPX",
"PXPXPXPXPXPXPXPXPXS ~ { r.r.9._ ! K H H T E E R E E E 2.OX-XpXpX:X:X;X;X$X4.R T T I T R R I H H L ) 9.q.w.0.] L i PXPXPXPXPXPXPXPX",
"PXPXPXPXPXPXPXf l...I _ { ] 9.u.u.' ! P ..=.|.%X-XpXsXsXxXvXcXkXkXkXpX;X*X&X$XoX[. XoX[.&.D K } u.a.i.7.] ] ~ P k V.PXPXPXPXPXPXPX",
"PXPXPXPXPXPXPXf B.D...I / [ u.gXhXf.9.F 3 p  XlXaXkXkXvXAXZXvXzXzXzXkX:X;X;X;X>X>X@X}.(.u , U hXhXg.p.q.] ^ P z J.C.w PXPXPXPXPXPX",
"PXPXPXPXPXPXPXg Z.^.z P ~ q.g.LXgXf.w.F X $ 4 @.OXpXzXvXZXZXvXcXlXzXkXkX:X:X;X*X@X<.p 3 + @ Y g.gXf.t.t.` ^ Z n.^.P.w PXPXPXPXPXPX",
"PXPXPXPXPXPXPXf P.K.v.S K 9.f.gXa.r.` G X     + p <.'.OX'.fXfXfXfXfX+X5.{.<.`.-...3       : W q.i.t.r.9._ I ..F.~.C.w PXPXPXPXPXPX",
"PXPXPXPXPXPXPXg U.K.B.n.S U e.y.0.' 1.B = O .   + $ $ $ $ 5 ' e.y.e.} P , & $ $ + .   + & b 8XW _ 0.8.L P ..D.B.J.H.d PXPXPXPXPXPX",
"PXPXPXPXPXPXPXN.U.G.B.B.n.S L L L 3.dXtX6XM = O . . . .   < ' ` 0.` K C @ .     . . O c 6XqXqX1.E ^ Y P ..D.B.A.U.K.k.PXPXPXPXPXPX",
"PXPXPXPXPXPXj.J.Y.G.B.B.Z.z ,.,.1.dXDXBXrXrX7XN M v = .   > ) 7._ _ ' F @   . = c c M 0XNXNXyXwX9Xs.,.S c.^.A.A.J.U.F.f PXPXPXPXPX",
"PXPXPXPXPXPXc.E.Y.G.B.V.H.W.8XwXbXNXBXmXuXnXSXSXMXbX5Xc c 6 Y 9.L ) ` W 6 = c 8XrXeXwXtXNXBXmXrXnXmX8XM n F.B.A.J.Y.T.g PXPXPXPXPX",
"PXPXPXPXPXPXx.1XY.G.B.F.W.7XuXuXmXBXNXnXmXDXHXDXtXrXbXmXVXbXs.W P U W 0XbXMXmXSXSXnXeXtXNXBXNXnXNXVXtX0Xm l A.A.J.<X<Xh PXPXPXPXPX",
"PXPXPXPXPXPXb.1XR.G.B.F.B uXmXtXCXFXBXMXSXHXHXDXrXuXBXHXHXJXBXeXs.9XdXSXHXHXHXGXDXSXtXuXNXDXVXNXNXBXmXwXM l A.A.J.<X1Xg PXPXPXPXPX",
"PXPXPXPXPXPXM.1XR.G.B.F.W.yXVXmXNXDXDXVXGXHXHXDXrXnXDXHXDXGXHXKXCXCXJXHXGXGXGXDXGXHXVXyXmXDXSXBXVXVXmXwXM l A.A.J.!.T.g PXPXPXPXPX",
"PXPXPXPXPXPXc.1XY.G.B.F.B uXNXnXNXDXDXBXDXHXHXDXrXNXHXDXBXSXHXHXSXFXHXGXBXSXHXHXHXHXDXMXtXBXGXSXVXmXuXwXM l A.S.U.Y.P.f PXPXPXPXPX",
"PXPXPXPXPXPXb.1X!.G.B.F.n yXmXnXNXDXDXBXGXHXHXDXmXBXGXBXnXBXHXGXNXVXHXGXBXSXGXHXGXHXGXVXnXVXGXSXNXbXeXyXM l N.A.J.Y.P.g PXPXPXPXPX",
"PXPXPXPXPXPXP.1XE.G.B.C.W.eXdXuXmXGXSXNXDXHXHXGXVXSXGXNXuXnXDXDXbXtXDXGXVXBXHXHXDXDXHXDXBXSXGXBXmXnXMXbXN l D.N.S.J.U.H.PXPXPXPXPX",
"PXPXPXPXd z.R.2XE.G.B.F.B 0XeXwXnXSXVXnXBXGXHXHXDXDXDXVXrXeXmXBXeXwXSXGXNXVXHXHXBXSXHXHXSXDXDXBXmXNXVXwXM l A.A.B.G.Y.<Xc.d PXPXPX",
"PXPXPXPXd b.<X2XE.G.B.C.W.6X7XwXrXmXNXnXmXDXGXGXHXDXVXVXmXrXrXrX6X7XSXDXmXmXHXGXBXSXHXGXBXSXGXBXVXBXtXN b m.A.A.N.G.E.1Xb.d PXPXPX",
"PXPXPXPXd I.3X1XE.G.A.S.U.W.6X0XwXnXNXnXdXSXKXDXDXDXNXNXVXmXuX5Xv 6XmXNXyXyXSXGXNXVXHXGXNXNXGXBXBXnX8Xv m.J.A.A.A.G.R.1Xb.d PXPXPX",
"PXPXPXPXe I.4X1XE.G.V.S.J.T.W.6X7XyXmXmXrXMXDXDXVXmXbXrXrXyX7Xv c v d.yXuXeXNXBXmXVXHXSXyXbXSXCXdX8XV W.U.K.S.A.A.G.R.1Xx.a PXPXPX",
"PXPXPXPXd I.4X2XE.G.B.S.U.~.E.W.6X7XeXbXrXrXmXBXNXmXnXeX8X5XB l l l V '.8X0XtXMXdXCXSXnXwXrXbX7XN m m.U.~.K.A.A.A.G.R.2Xx.d PXPXPX",
"PXPXPXPXd I.4X2XE.G.B.S.J.1X2XE.W.n Q.7XuXwXiXuXnXmXMXeXd.v l N.Z.V.c.l M '.7XwX7XwXrX7X8XwX8Xb x m.~.~.T.J.A.z.z.F.R.2Xb.d PXPXPX",
"PXPXPXPXd I.4X2XY.G.N.V.U.<X3X1XE.G.M.Q.'.Q.N N 1.5XB v v l V.S.B.B.V.F.F.l v v v v v v v v V h k.J.E.1X!.J.z.j.d k.!.2Xb.d PXPXPX",
"PXPXPXPXa I.3X!.x.j.g k.J.<X3X1X!.S.F.M.m.y & & & & O & h Z.A.B.B.V.A.L.z.q O o o O o o O - PXPXPXV.!.3X<XC.f PXPXPXx.Y.c.a PXPXPX",
"PXPXPXPXd I.R.x.PXPXPXPXPXY.2X3XE.K.B.z.z 5 : ; - : ; : h V.V.B.S.A.A.z.0 o X ; > ; ; ; > 1 PXPXPXPXb.I.P.PXPXPXPXPXPXc.g r PXPXPX",
"PXPXPXPXd x.x.PXPXPXPXPXPXc.I.E.U.Z.h.u U ] ` [ ` [ _ P u t V.V.z.N.l.0 o   # ! { [ 7.[ _ ! J PXPXPXw w w PXPXPXPXPXPXd d d PXPXPX",
"PXPXPXPXd f PXPXPXPXPXPXPXPXg g f f 8 + J 9.t.i.r.9./ F @ 8 d f f f 0 o     # L w.t.i.r.] ^ F PXPXPXPXPXPXPXPXPXPXPXPXd w w PXPXPX",
"PXPXPXPXd PXPXPXPXPXPXPXPXPXPXPX% % o X F 0.i.p.i.9./ Z @ . % % % % o       # L r.i.p.t.` ^ C X PXPXPXPXPXPXPXPXPXPXPXPXd d PXPXPX",
"PXPXPXPXPXPXPXPXPXPXPXPXPXPXPXPX    X > K [ 9.q.7.) ~ F @                   # ! 0.q.8.` ! H F > PXPXPXPXPXPXPXPXPXPXPXPXPXPXPXPXPX",
"PXPXPXPXPXPXPXPXPXPXPXPXPXPXPXPX    # H ) _ ` _ K J J 1 @                   @ F ) ~ ~ L L L H H PXPXPXPXPXPXPXPXPXPXPXPXPXPXPXPXPX",
"PXPXPXPXPXPXPXPXPXPXPXPXPXPXPXPXPX. # J / q.i.w._ ^ C X                       @ C ^ _ r.t.q.! H PXPXPXPXPXPXPXPXPXPXPXPXPXPXPXPXPX",
"PXPXPXPXPXPXPXPXPXPXPXPXPXPXPXPXPX< C ) 9.q.7.) ! ~ C X                       X 1 ! L ) 7.q.9.) H PXPXPXPXPXPXPXPXPXPXPXPXPXPXPXPX",
"PXPXPXPXPXPXPXPXPXPXPXPXPXPXPXPXPXK H ) ` _ J < < < ; .                       . ; < < Z K ) ` ) H J PXPXPXPXPXPXPXPXPXPXPXPXPXPXPX",
"PXPXPXPXPXPXPXPXPXPXPXPXPXPXPXPXPXPXJ J J K < X                                     X PXPXJ J J H PXPXPXPXPXPXPXPXPXPXPXPXPXPXPXPX",
"PXPXPXPXPXPXPXPXPXPXPXPXPXPXPXPXPXPXPXPXPXPXPXPXPX                            PXPXPXPXPXPXPXPXPXPXPXPXPXPXPXPXPXPXPXPXPXPXPXPXPXPX"
};
