/* XPM */
static char *result[] = {
/* columns rows colors chars-per-pixel */
"32 32 207 2 ",
"   c #000000",
".  c #020010",
"X  c #0A0015",
"o  c #11110B",
"O  c #230B00",
"+  c #28031B",
"@  c #312500",
"#  c #330C31",
"$  c #282C2B",
"%  c #312739",
"&  c #4A1D00",
"*  c #572D05",
"=  c #6C350E",
"-  c #411F3B",
";  c #671938",
":  c #763C31",
">  c #3A403D",
",  c #5E4B1E",
"<  c #7E4F0F",
"1  c #766300",
"2  c #654B3A",
"3  c #300759",
"4  c #360B63",
"5  c #6D184C",
"6  c #6F2751",
"7  c #520169",
"8  c #42007B",
"9  c #4B0877",
"0  c #5C0674",
"q  c #4B0A75",
"w  c #6A0E73",
"e  c #592D7C",
"r  c #543172",
"t  c #7E2572",
"y  c #394446",
"u  c #524950",
"i  c #7F5669",
"p  c #6A6A69",
"a  c #6A6672",
"s  c #7D7C7D",
"d  c #873D04",
"f  c #9E3D00",
"g  c #9F3A17",
"h  c #883438",
"j  c #8E3124",
"k  c #AE3531",
"l  c #844700",
"z  c #BC5200",
"x  c #B05605",
"c  c #B84E00",
"v  c #956200",
"b  c #B86007",
"n  c #8B572B",
"m  c #8B512D",
"M  c #AE4528",
"N  c #BD7E3F",
"B  c #C65700",
"V  c #D04E1B",
"C  c #C86402",
"Z  c #DB7317",
"A  c #D27305",
"S  c #EF7E00",
"D  c #E76F00",
"F  c #CC552B",
"G  c #CF6735",
"H  c #971959",
"J  c #8B1356",
"K  c #90205E",
"L  c #8C2D52",
"P  c #B83053",
"I  c #971D65",
"U  c #901D70",
"Y  c #8F2073",
"T  c #9C226F",
"R  c #AD2766",
"E  c #BC3778",
"W  c #AE3276",
"Q  c #C03D7E",
"!  c #BA5345",
"~  c #8E764E",
"^  c #AD4178",
"/  c #CD584B",
"(  c #D66451",
")  c #E16E49",
"_  c #C4437E",
"`  c #C3880C",
"'  c #E38300",
"]  c #F89700",
"[  c #E98710",
"{  c #E89A08",
"}  c #F9AE04",
"|  c #FDBA00",
" . c #FDBF11",
".. c #EDB217",
"X. c #DE8D36",
"o. c #FFC300",
"O. c #FFE606",
"+. c #FFC83D",
"@. c #B08851",
"#. c #F39D58",
"$. c #EAAA44",
"%. c #E28766",
"&. c #FBA661",
"*. c #4A0184",
"=. c #4C038A",
"-. c #4C0988",
";. c #540688",
":. c #50158F",
">. c #4E0994",
",. c #55029B",
"<. c #540B99",
"1. c #5A0B9C",
"2. c #540993",
"3. c #581496",
"4. c #64169B",
"5. c #6C1087",
"6. c #5D0CA3",
"7. c #5804A1",
"8. c #5F13A2",
"9. c #610AA8",
"0. c #6011A6",
"q. c #621AAC",
"w. c #681AA9",
"e. c #6E1DB3",
"r. c #6B19B8",
"t. c #6821A5",
"y. c #6C22B4",
"u. c #6424B0",
"i. c #7328BC",
"p. c #7A31BE",
"a. c #7E37B6",
"s. c #6E32A3",
"d. c #73568F",
"f. c #7B7381",
"g. c #7A2EC5",
"h. c #7C34C7",
"j. c #9E3E8E",
"k. c #B02F84",
"l. c #8237BC",
"z. c #8B2EA4",
"x. c #BA4387",
"c. c #BE4695",
"v. c #C94686",
"b. c #D24B8A",
"n. c #DA5896",
"m. c #D5558E",
"M. c #E45F9F",
"N. c #E2578F",
"B. c #DA639C",
"V. c #E36C9D",
"C. c #E66399",
"Z. c #F8689C",
"A. c #E559A7",
"S. c #DC6CA2",
"D. c #EC62A4",
"F. c #E467A3",
"G. c #F46CA8",
"H. c #E977AB",
"J. c #F374AC",
"K. c #F575B2",
"L. c #F76EB2",
"P. c #843BC6",
"I. c #883EC6",
"U. c #8C43C8",
"Y. c #9149CC",
"T. c #FF7CC3",
"R. c #878989",
"E. c #878998",
"W. c #959997",
"Q. c #8F9095",
"!. c #A0A79A",
"~. c #9C9FA2",
"^. c #A595B2",
"/. c #A7A9A9",
"(. c #B0B2AE",
"). c #AEB6BC",
"_. c #B3B3B4",
"`. c #BCBDBC",
"'. c #BDB6B9",
"]. c #A4AAB0",
"[. c #FF8397",
"{. c #ED88B6",
"}. c #F786B8",
"|. c #F491BC",
" X c #FBE885",
".X c #FF88C4",
"XX c #FA98C4",
"oX c #FD99C6",
"OX c #FC95D2",
"+X c #FCA6CD",
"@X c #FCBBD7",
"#X c #FBA9D9",
"$X c #FFBCE9",
"%X c #CCCDCC",
"&X c #C6C8C5",
"*X c #D3D3D4",
"=X c #DBDBDB",
"-X c #CED1CC",
";X c #DEE2DB",
":X c #FFD0ED",
">X c #FECFE4",
",X c #E4E4E4",
"<X c #ECECEC",
"1X c #E7EAE8",
"2X c #F4F4F4",
"3X c #FAFAFA",
"4X c None",
/* pixels */
"4X4X4X4X4X4X4X4X4X4X4X4X4X4X4X4X4X4X4X4X4X4X4X4X4X4X4X4X4X4X4X4X",
"4X4X4X4X4X4X4X4X4X4X4X4X4X4X4X4X4Xb.v.v.4X4X4X4X4X4X4X4X4X4X4X4X",
"4X4X4X4X4X4X4X4X4X4X4X4X4X4X4X4XF.Q 4X4X4X4X4X4X4X4X4X4X4X4X4X4X",
"4X4X4X4X4X4X4X4X4X4X4X4X4X4Xv.n.}.H H 4X4X4X4X4X4X4X4X4X4X4X4X4X",
"4X4X4X4X4X4X4X4X4X4X4X4XQ v.M.}.}.v.Q J 4X4X4X4X4X4X4X4X4X4X4X4X",
"4X4X4X4X4X4X4X4X4X4X4X4Xb.J.A.J.H.F.M.W 4X4X4X4X4X4X4X4X4X4X4X4X",
"4X4X4X4X4X4X4X4X4X4X4Xm.n.oX|.{.H.L.A.v.R 4X4X4X4X4X4X4X4X4X4X4X",
"4X4X4X4X4X4X4X4X4X4Xw N.|.+X{.{.oXF.G.C.R 0 4X4X4X4X4X4X4X4X4X4X",
"4X4X4X4X4X4X4X4X;.q.z.V.@XXXK.E F.Q m.L.E 5.>.-.4X4X4X4X4X4X4X4X",
"4X4X4X4X4X4X4X8 3.:.l.c.@X>X@XS.m.n.oXD.I t.>.>.9 4X4X4X4X4X4X4X",
"4X4X4X4X4X4X*.w H H 5.u.x.C.}.+XXXG.N.W e.- = W I 7 4X4X4X4X4X4X",
"4X4X4X4X4X4X5.R B.K.P 6 -.7 Y x.x.U 0 ;.3   @ #.b.J 4X4X4X4X4X4X",
"4X4X4X4X4X;.T V.oXF.G @ . :.h.1.4 ,.g.t.X     X.OXE w 4X4X4X4X4X",
"4X4X4X4X4X7 x.n.k.P l   q h.u.1.j.0.q.h.3..   = F b.I 4X4X4X4X4X",
"4X4X4X4X4X5 S./ k k v l q h L v.K.c.6 j 0 n = H Z Z K 4X4X4X4X4X",
"4X4X4X4X4Xk.) ..[ V M ) ! ( }.|.J.D./ G M [.Z.R Z ] g 4X4X4X4X4X",
"4X4X4X4X>.K { ..$.+.V A.OX$X:X#XOXT.T..XJ.^ + = | C t >.4X4X4X4X",
"4X4X4X4Xr.# x S  XO.Z 5 5 i ~ %.&.( L 5 #   y ~ } M e.w.4X4X4X4X",
"4X4X4X<.h.>.; D o...h $ $ .   x S z   o % (.`.R.: 0 g.p.4X4X4X4X",
"4X4X8 y.Y.0.r 2 x m E.1X`.~.].@.x @.~.-X`.&X_.W.4 *.i.p.-.4X4X4X",
"4X8.p.Y.l.,.d.W.j.W.;X1X`.,X<X%X`.*X=X<X;X3X%X/.r =.<.U.w.4X4X4X",
"4X0.p.Y.3.7.d.&X-X;X2X2X=X*X/./._.*X<X3X2X3X<X%Xa ,.6.p.I.6.4X4X",
"4X4X*.6.9.g.t.Q.-X=X;X3X<X*X_.p %X3X<X2X<X2X1X`.a 3.1.i.U.U.8.4X",
"4X4X4X4X-.3.p.s.R.`.).1X*X`.R.u /.=X<X<X%X3X<X&Xa 0.-.y.p.Y.U.e.",
"4X4X4X4X4X4X4X*.4Xp ~.).).R.e ,.^.;X*X].E.].*X!.e r.w.9.0.w.w.=.",
"4X4X4X4X4X4X4X4X4X4Xn n n 2 ,.8 % _.Q., 1 * R.s 2.2.2.4X4X4X4X4X",
"4X4X4X4X4X4X4X4X4X4XC o.] f X .   $ a ` o.C u 4X4X4X4X4X4X4X4X4X",
"4X4X4X4X4X4X4X4X4X  * A C &         O C B z 4X4X4X4X4X4X4X4X4X4X",
"4X4X4X4X4X4X4X4X                    O A o.A & 4X4X4X4X4X4X4X4X4X",
"4X4X4X4X4X4X4X4X4X                  O ' } ] & 4X4X4X4X4X4X4X4X4X",
"4X4X4X4X4X4X4X4X4X4X                o d B c 4X4X4X4X4X4X4X4X4X4X",
"4X4X4X4X4X4X4X4X4X4X4X4X4X            4X4X4X4X4X4X4X4X4X4X4X4X4X"
};
