/* XPM */
static char *result[] = {
/* columns rows colors chars-per-pixel */
"65 65 248 2 ",
"   c #000000",
".  c #0A0608",
"X  c #160806",
"o  c #180917",
"O  c #151415",
"+  c #100911",
"@  c #250E00",
"#  c #2C1200",
"$  c #2F140C",
"%  c #302508",
"&  c #1A0527",
"*  c #17022C",
"=  c #340928",
"-  c #28292B",
";  c #2C2E34",
":  c #4E190D",
">  c #592602",
",  c #4B3200",
"<  c #692A01",
"1  c #733109",
"2  c #732B2F",
"3  c #542430",
"4  c #6D4E04",
"5  c #654826",
"6  c #28034A",
"7  c #32075A",
"8  c #3C036A",
"9  c #3D0173",
"0  c #390378",
"q  c #3A1075",
"w  c #353C42",
"e  c #4C0E53",
"r  c #770D59",
"t  c #700E55",
"y  c #462B51",
"u  c #6D2C4E",
"i  c #430274",
"p  c #47077B",
"a  c #560A77",
"s  c #4F0D70",
"d  c #660A65",
"f  c #71126D",
"g  c #533A69",
"h  c #4F2772",
"j  c #3F434A",
"k  c #575758",
"l  c #514F4F",
"z  c #6E6357",
"x  c #5A4270",
"c  c #636362",
"v  c #696B68",
"b  c #6D6B72",
"n  c #787978",
"m  c #736F6E",
"M  c #665B66",
"N  c #913A0E",
"B  c #8F2F2F",
"V  c #A83531",
"C  c #AE391D",
"Z  c #9C4400",
"A  c #89491B",
"S  c #93530F",
"D  c #A84602",
"F  c #B64B02",
"G  c #B85501",
"H  c #B14D12",
"J  c #AD6B02",
"K  c #895125",
"L  c #BA522D",
"P  c #BD5634",
"I  c #B24C2C",
"U  c #B46C2D",
"Y  c #C85903",
"T  c #CD5515",
"R  c #CB6800",
"E  c #D86802",
"W  c #D67601",
"Q  c #CE7706",
"!  c #E57801",
"~  c #F47B00",
"^  c #E46F10",
"/  c #CB512E",
"(  c #C46C2C",
")  c #981959",
"_  c #8F1152",
"`  c #8B2D51",
"'  c #A82557",
"]  c #AE334E",
"[  c #891568",
"{  c #981C67",
"}  c #8A1877",
"|  c #820F6C",
" . c #962A69",
".. c #AA2768",
"X. c #BC3A7A",
"o. c #B83575",
"O. c #B13071",
"+. c #A51C74",
"@. c #C33C7C",
"#. c #857F7C",
"$. c #A5615D",
"%. c #C5514A",
"&. c #CD5173",
"*. c #E06D67",
"=. c #7E817B",
"-. c #DA8702",
";. c #C68D16",
":. c #E58403",
">. c #EC9701",
",. c #E78917",
"<. c #F39409",
"1. c #F4A703",
"2. c #FBB801",
"3. c #EEAE09",
"4. c #F0B32F",
"5. c #DC9220",
"6. c #FCC801",
"7. c #FCD600",
"8. c #FAD613",
"9. c #F7D130",
"0. c #F0985A",
"q. c #F9D84C",
"w. c #F7D563",
"e. c #3C0389",
"r. c #4B0383",
"t. c #4F048B",
"y. c #480584",
"u. c #52068B",
"i. c #551587",
"p. c #540594",
"a. c #57079A",
"s. c #5A1696",
"d. c #4B0B8C",
"f. c #690F8E",
"g. c #752594",
"h. c #5D05A4",
"j. c #5908A3",
"k. c #5D17A8",
"l. c #5C12B4",
"z. c #620CAA",
"x. c #6109A8",
"c. c #6514AC",
"v. c #661AA9",
"b. c #6918B5",
"n. c #6D11B1",
"m. c #6923AA",
"M. c #6D23B5",
"N. c #6D27B7",
"B. c #732BBA",
"V. c #7528B9",
"C. c #7A33BC",
"Z. c #7429AC",
"A. c #5A2093",
"S. c #70538B",
"D. c #775F8D",
"F. c #701EC1",
"G. c #7628C2",
"H. c #7D36C1",
"J. c #5D0CC9",
"K. c #932D89",
"L. c #B43B89",
"P. c #8536B7",
"I. c #881C8B",
"U. c #C63E83",
"Y. c #B7468E",
"T. c #837A8A",
"R. c #AB718B",
"E. c #9041BC",
"W. c #C84787",
"Q. c #D44C8A",
"!. c #D7568C",
"~. c #D54C96",
"^. c #D85795",
"/. c #CC528C",
"(. c #E45C9C",
"). c #E75A99",
"_. c #D5659A",
"`. c #D9728D",
"'. c #E6679C",
"]. c #F1799B",
"[. c #EA5EA3",
"{. c #D971A6",
"}. c #E968A4",
"|. c #F46DAC",
" X c #F36AA7",
".X c #E878AA",
"XX c #F674AC",
"oX c #FA74B3",
"OX c #F879B6",
"+X c #F76FB1",
"@X c #DC57A6",
"#X c #843CC2",
"$X c #863AC4",
"%X c #8B43C6",
"&X c #8D45C8",
"*X c #934BCA",
"=X c #9246C6",
"-X c #FA7AC3",
";X c #888A89",
":X c #989999",
">X c #8D9295",
",X c #9EA19B",
"<X c #9EA2A3",
"1X c #ACACAC",
"2X c #A6A7A6",
"3X c #B4B4B4",
"4X c #BCBCBC",
"5X c #B7B9B9",
"6X c #AFB0AE",
"7X c #AC9F97",
"8X c #F2918F",
"9X c #FEAD8F",
"0X c #FA8BBD",
"qX c #F784B8",
"wX c #EE8BB4",
"eX c #C0BFBF",
"rX c #DB8387",
"tX c #C8C1BD",
"yX c #F6E28D",
"uX c #BCBFC2",
"iX c #FD89C4",
"pX c #FB95C3",
"aX c #F89AC5",
"sX c #FC9AD1",
"dX c #FAA3CB",
"fX c #F7A7CC",
"gX c #FDA7D3",
"hX c #FAB8D9",
"jX c #E0B1D5",
"kX c #BEC4C8",
"lX c #C4C4C4",
"zX c #CCCCCC",
"xX c #C5CBC9",
"cX c #D3D3D3",
"vX c #DBDBDB",
"bX c #C9CFD2",
"nX c #F9C5DD",
"mX c #E2D7D2",
"MX c #DBDEE0",
"NX c #FEC8E3",
"BX c #F9D0E3",
"VX c #E4E4E4",
"CX c #EBECEC",
"ZX c #F3F3F3",
"AX c #FBFBFB",
"SX c #EDF1EE",
"DX c #FAF3CA",
"FX c None",
/* pixels */
"FXFXFXFXFXFXFXFXFXFXFXFXFXFXFXFXFXFXFXFXFXFXFXFXFXFXFXFXFXFXFXFXFXFXFXFXFXFXFXFXFXFXFXFXFXFXFXFXFXFXFXFXFXFXFXFXFXFXFXFXFXFXFXFXFX",
"FXFXFXFXFXFXFXFXFXFXFXFXFXFXFXFXFXFXFXFXFXFXFXFXFXFXFXFXFXFXFXFXFXFXX.X.X.o.X.FXFXFXFXFXFXFXFXFXFXFXFXFXFXFXFXFXFXFXFXFXFXFXFXFXFX",
"FXFXFXFXFXFXFXFXFXFXFXFXFXFXFXFXFXFXFXFXFXFXFXFXFXFXFXFXFXFXFXFXO.o.^.|.~.O.Q.^.o.FXFXFXFXFXFXFXFXFXFXFXFXFXFXFXFXFXFXFXFXFXFXFXFX",
"FXFXFXFXFXFXFXFXFXFXFXFXFXFXFXFXFXFXFXFXFXFXFXFXFXFXFXFXFXFXFXW.Q.^.^.~.W...@.W.FXFXFXFXFXFXFXFXFXFXFXFXFXFXFXFXFXFXFXFXFXFXFXFXFX",
"FXFXFXFXFXFXFXFXFXFXFXFXFXFXFXFXFXFXFXFXFXFXFXFXFXFXFXFXFXFX@.^.OX}.O._ FXFXFXFXFXFXFXFXFXFXFXFXFXFXFXFXFXFXFXFXFXFXFXFXFXFXFXFXFX",
"FXFXFXFXFXFXFXFXFXFXFXFXFXFXFXFXFXFXFXFXFXFXFXFXFXFXFXFXFXX.^.iXwXo.FXFXFXFXFXFXFXFXFXFXFXFXFXFXFXFXFXFXFXFXFXFXFXFXFXFXFXFXFXFXFX",
"FXFXFXFXFXFXFXFXFXFXFXFXFXFXFXFXFXFXFXFXFXFXFXFXFXFXFXO.o.W.}.pX{..._ _ ) FXFXFXFXFXFXFXFXFXFXFXFXFXFXFXFXFXFXFXFXFXFXFXFXFXFXFXFX",
"FXFXFXFXFXFXFXFXFXFXFXFXFXFXFXFXFXFXFXFXFXFXFXFXFXO.Q.}.}.'.(..XwX_.' ) ..) FXFXFXFXFXFXFXFXFXFXFXFXFXFXFXFXFXFXFXFXFXFXFXFXFXFXFX",
"FXFXFXFXFXFXFXFXFXFXFXFXFXFXFXFXFXFXFXFXFXFXFXFXU.W.Q.~.OXOX}.wXpX{.o.X.U.) _ FXFXFXFXFXFXFXFXFXFXFXFXFXFXFXFXFXFXFXFXFXFXFXFXFXFX",
"FXFXFXFXFXFXFXFXFXFXFXFXFXFXFXFXFXFXFXFXFXFXFXX.~.|.U.O.}.0XpXaX.XW.W. X^.+._ FXFXFXFXFXFXFXFXFXFXFXFXFXFXFXFXFXFXFXFXFXFXFXFXFXFX",
"FXFXFXFXFXFXFXFXFXFXFXFXFXFXFXFXFXFXFXFXFXFXFX@.}.oX X}.|.oXpXaX|.~.(.+X+X(.O.FXFXFXFXFXFXFXFXFXFXFXFXFXFXFXFXFXFXFXFXFXFXFXFXFXFX",
"FXFXFXFXFXFXFXFXFXFXFXFXFXFXFXFXFXFXFXFXFXFXO.W. XOXoX+XoX|.W./.XX|.+XQ.@.(.o._ FXFXFXFXFXFXFXFXFXFXFXFXFXFXFXFXFXFXFXFXFXFXFXFXFX",
"FXFXFXFXFXFXFXFXFXFXFXFXFXFXFXFXFXFXFXFXFX/.W.X. XiX0XqXOXqX_._.OXOX+X~.W.(.O.) O.FXFXFXFXFXFXFXFXFXFXFXFXFXFXFXFXFXFXFXFXFXFXFXFX",
"FXFXFXFXFXFXFXFXFXFXFXFXFXFXFXFXFXFXFXFXO..X}.!.wXaXdXaXaXfXfXaX0XoXoXoXOX XX.o.&.) FXFXFXFXFXFXFXFXFXFXFXFXFXFXFXFXFXFXFXFXFXFXFX",
"FXFXFXFXFXFXFXFXFXFXFXFXFXFXFXFXFXFXFXs  .^.XXOX0XfXdXdXaXwXaXdXaXOX X|.oX+X).U.O.) a FXFXFXFXFXFXFXFXFXFXFXFXFXFXFXFXFXFXFXFXFXFX",
"FXFXFXFXFXFXFXFXFXFXFXFXFXFXFXFXFX8 FXv.{ @.}.aXfXfXfX0X_.o.^.pXdXOX@.o.(.oX|.U._ [ f.FX8 FXFXFXFXFXFXFXFXFXFXFXFXFXFXFXFXFXFXFXFX",
"FXFXFXFXFXFXFXFXFXFXFXFXFXFXFXFXFXu.k.C.O./.wXhXfX0XqXoX).@.O.^..XW.O.U.Q.(. X)...{ h.y.i FXFXFXFXFXFXFXFXFXFXFXFXFXFXFXFXFXFXFXFX",
"FXFXFXFXFXFXFXFXFXFXFXFXFXFXu.s.B.b.B.E.L._.fXNXnXdX0XaXqX!.o.^.XXW.@.!.}.}.|.[.@.{ f.a.a.c.p.t.FXFXFXFXFXFXFXFXFXFXFXFXFXFXFXFXFX",
"FXFXFXFXFXFXFXFXFXFXFXFXFXp j.v.m.k.G.=XL./.qXhXBXnXnXnXfX_./.(.}.(./.{.aXqX|.Q.' } Z.l.j.v.j.a.y.FXFXFXFXFXFXFXFXFXFXFXFXFXFXFXFX",
"FXFXFXFXFXFXFXFXFXFXFXFX9 i i p p i A.%XC.} W.dXhXnXnXhXfXaX_.W.@.W.{.aX0XOX).o.[ v.m.s.i p p p i i FXFXFXFXFXFXFXFXFXFXFXFXFXFXFX",
"FXFXFXFXFXFXFXFXFXFXFX9 t.f.r r t t d f.H.C.} Y.qXpXpXaXfXfXwXwX{..XOX0XoX).o.} n.Z.y B B * f  .[ d 9 FXFXFXFXFXFXFXFXFXFXFXFXFXFX",
"FXFXFXFXFXFXFXFXFXFX9 y.p.} ..{ ' o...f s.F.Z.K.@.Q.Q.'.0XdXfXgXgX0X).Q.Q.o.} g.V.f.& > S K /.~.O.{ d i FXFXFXFXFXFXFXFXFXFXFXFXFX",
"FXFXFXFXFXFXFXFXFXFXr.f.} ) ..&.(.'.@.) u f.m.m.I.{ r { Q.'..X.X.X^...t _ | f.k.s.7 . . , ;.0.'.&..._ d FXFXFXFXFXFXFXFXFXFXFXFXFX",
"FXFXFXFXFXFXFXFXFXp x.[ O...+.}.pXqXW.' T ` q q i.a 8 a  ... . ...{ d i r.a.y.9 6 .     . 4 4.8X@X+._ _ d FXFXFXFXFXFXFXFXFXFXFXFX",
"FXFXFXFXFXFXFXFXFXr.x.[ o.^.wXpXpX0X~.' :.4 o & * 7 d.m.P.I.a a f.s i.N.C.b.y.* .         % 5.9X-XQ.O.) d FXFXFXFXFXFXFXFXFXFXFXFX",
"FXFXFXFXFXFXFXFXFXu.} { /.XXwXdXqX~.&.( S %     * q N.#XB.b.j.a.d.p.c.b.C.P.m.8 +         % ,.9XgXOXW...[ FXFXFXFXFXFXFXFXFXFXFXFX",
"FXFXFXFXFXFXFXFXh.f.) o.^.^./._.^.K./ 3.,   + * p B.*X%XN.b.j.u.a d.k.b.B.*X&Xm.8 * .     @ A *.wX`.~.@.' r FXFXFXFXFXFXFXFXFXFXFX",
"FXFXFXFXFXFXFXFXe.a ) Q.^.Q.L.+.O...P J %   * s V.H.H.B.k.k.s.K.Y.I.s.k.m.C.H.G.l.7 .     . # N H L /.W...r FXFXFXFXFXFXFXFXFXFXFX",
"FXFXFXFXFXFXFXFX6 =  ..X.X).U.O.{ %.H > @ X & i.C.g.s s d.i.K..X0X_.g.p d.s h m.c.8 O . . X 1 B / E / !.X.d 9 FXFXFXFXFXFXFXFXFXFX",
"FXFXFXFXFXFXFXFXe u ^..X&./ I I ) C G J J J 2 p A.] C 2  .Y.~.}..X_.X.[ [ B V ` y.s S J N N ] ../ <.T / ' r FXFXFXFXFXFXFXFXFXFXFX",
"FXFXFXFXFXFXFXFXt @.XX&.U R R E / V C E -.! H 3 3 F T %.}.oX X(.(.(.Q.o.I G Y N 3 2 0.0.*./ o.{ / 2.<.E C t FXFXFXFXFXFXFXFXFXFXFX",
"FXFXFXFXFXFXFXFXt +.'./ -.9.4.^ ~ / V V I P L L I L &.].OXqXOXOXoX+X(.&.L P P P L %.].qX XQ.o.' T 1.2.:.Y B FXFXFXFXFXFXFXFXFXFXFX",
"FXFXFXFXFXFX9 a.f ' &.,.6.q.yX^ ,.,.T ' o.).].].8XwXwXhXgXfXaXaX0XoX+X X]..XwX].XX X+X[.Y...` H ! ! ~ E F ` a.i FXFXFXFXFXFXFXFXFX",
"FXFXFXFXFXFX9 k.I.' L 3.6.5.0.,.yXq.<./ ] ~.-XsXsXgXNXNXnXgXdXaXaXqX+X-XoXiXiXOX+X[.!.u = = : J 2.>.E H ` v.k.i FXFXFXFXFXFXFXFXFX",
"FXFXFXFXFXFXt.b.i.3 F 3.>.! ,.w.w.q.2.<.V U.XXqXiXgXhXNXhXgXgXsXpXOXOXoXoX|.).[.&.u 3 o     w ;.7.3.Y H f J.m.i FXFXFXFXFXFXFXFXFX",
"FXFXFXFXFXi z.G.q o 1 :.! W 4.DXq.8.7.1.] {  . .O.R.R.7XR.`.8X9X0.].*./.O. .` ` u   . . ; l m 5.2.3.Y V g.F.Z.y.FXFXFXFXFXFXFXFXFX",
"FXFXFXFXFXr.M.H.s.6 o Y ^ ~ 4.yXq.7.6.,.B = o X + O O O $ S ,.3.3.^ H > O + . + + O - k >X>X;XU :.-.B f b.H.%Xc.y.FXFXFXFXFXFXFXFX",
"FXFXFXFXp z.N.%XZ.0 7 N E :.1.9.8.7.5.V = O O O +         Z E W ! Y D >   . + + - c :X3X3X2X>Xz S A s j.F.#X=XN.y.FXFXFXFXFXFXFXFX",
"FXFXFXFXd.M.N.&XV.d.p e H Y W <.2.,.] u k m ;Xn k -   . . Z -.Q R Q R > O w c c n 3XvXlX6X3X,Xc y e p j.b.H.&XB.i.FXFXFXFXFXFXFXFX",
"FXFXFXFXa.B.H.&XP.a.i i.u 5 A Y ! H g n 3XVXVXlX3Xn k c c $.;.Q F R U z b 6XtX3X6XlXzX1X1XeX,Xc e 0 i h.b.H.H.B.p.FXFXFXFXFXFXFXFX",
"FXp p a.b.P.&X*XV.a.i b c l l S H 5 b 1XcXZXvX2X4XvXCXZXZXeX$.U U %.7XxXcXCXVX4X1XzXzX3X1X5X2Xm y 0 p a.n.B.B.B.b.d.FXFXFXFXFXFXFX",
"d.j.M.M.C.&X*XH.b.a.p b =.D.=.m m ;X2XcXvXZXcX1XzXCXCXZXZXMX6X7XlXmXVXVXzXcXCXvXzXCXZXVX4X1X6X;Xh p a.p u.b.B.%XC.s.FXFXFXFXFXFXFX",
"m.V.$X&X&X*X*Xs.p.h.m.b 2X3X,X:X>X6XcXMXCXAXcX3XmXcX5XeXzXcXuXkXbXxXcXcXcXVXZXVXMXAXAXAXvXlX6X,Xb h h.p u.b.C.&XC.c.FXFXFXFXFXFXFX",
"M.b.C.&X*X*X#Xs y.z.C.D.4XcX5X4XuXzXMXCXAXAXcXlXCXcX1X2X1X4X4X6X1X3XeXcXZXAXAXZXZXZXAXAXZXmXzX6Xm g h.a.a.c.B.H.#XV.c.r.FXFXFXFXFX",
"p.a.n.V.%X#Xb.d.p.b.N.x 2XzXtXcXVXvXMXZXAXAXVXcXSXCXzX3X1X2X:X,X3XvXCXCXZXSXZXAXZXZXZXAXCXvXCX3Xm g k.a.j.c.B.B.%X%XB.c.t.FXFXFXFX",
"i i p.x.b.N.z.x.c.G.N.p T.6X6XcXZXcXcXSXAXAXCXVXSXVXeX5X3Xn n 3XvXZXAXZXZXVXZXAXCXVXZXAXSXcXlX2Xm x m.r.t.n.B.N.#X*X#XB.c.r.FXFXFX",
"FXFXFXp t.z.x.x.n.H.$Xn.S.>X2XlXvXcXzXvXZXAXAXZXVXvXzXeX2Xc m 3XVXZXSXCXZXZXZXAXCXvXSXAXCXcXeX2Xm g m.y.t.b.B.V.B.%X*X$XB.c.u.p p ",
"FXFXFXFXFXr.t.a.x.B.&X$XZ.S.;X1XeXzXlX5XvXZXZXcXlX4X3X6X>Xc k ;XxXVXvXVXZXSXZXCXzXcXSXAXCXcXlX2Xm g c.v.d.s.B.N.M.C.*X*X%X#XV.s.k.",
"FXFXFXFXFXFXFXFXp.a.Z.P.G.v.S.n :X3X4X1X3XvXvXzXlX3X:X>Xn x y m 5XzXcXSXSXMXSXMX3XvXZXZXCXVXxX2X=.g j.M.i.p M.B.B.C.%X*X*X*X#Xb.V.",
"FXFXFXFXFXFXFXFX8 i i t.j.h.a.l c #.2X5X6XtXvXvXcXkX:Xv g a.A.n eXcXzXVXVXkXMXkX5XSXSXMXvXVXeX,Xv h z.M.s.t.z.b.M.M.C.$X$XB.c.a.a.",
"FXFXFXFXFXFXFXFXFXFXFXFXi p FXFXl c T.2X3X5XkX5X2X>Xv x k.x.a.Z.tXSXvXxXcXxX2X>X:X:X<X5XxXtX<Xv h x.z.M.M.c.h.z.j.h.z.z.z.z.p.i i ",
"FXFXFXFXFXFXFXFXFXFXFXFXFXFXFXFXFXk k v b b b v c k x i.z.h.a.h ;XtXbX3X5X,Xl - - - ; =.eX4X,Xc i.x.x.c.b.n.h.r.r.r.r.y.r.r.FXFXFX",
"FXFXFXFXFXFXFXFXFXFXFXFXFXFXFXFXFXFXl K K A A A K 4 u u.p.u.8 * - =.5X6Xn l 5 4 4 4 > 3 D.2X=.x s.h.p.t.t.t.FXFXFXFXFXFXFXFXFXFXFX",
"FXFXFXFXFXFXFXFXFXFXFXFXFXFXFXFXFXFXFXE ! :.! ! E Y 2 6 7 6 o     ; =.2Xb % J 7.7.2.Q , w =.k i.j.FXFXFXFXFXFXFXFXFXFXFXFXFXFXFXFX",
"FXFXFXFXFXFXFXFXFXFXFXFXFXFXFXFXFXFXFXR <.6.6.1.E Y > .           . - =.>Xz ;.2.2.<.E K l l FXFX9 FXFXFXFXFXFXFXFXFXFXFXFXFXFXFXFX",
"FXFXFXFXFXFXFXFXFXFXFXFXFXFXFXFXFXFX# F >.6.6.1.E Y > .             . O 3 S -.-.J G R H K FXFXFXFXFXFXFXFXFXFXFXFXFXFXFXFXFXFXFXFX",
"FXFXFXFXFXFXFXFXFXFXFXFXFXFXFXFXFX  X : J W W R G 1 @                   # Z R G D F G F N FXFXFXFXFXFXFXFXFXFXFXFXFXFXFXFXFXFXFXFX",
"FXFXFXFXFXFXFXFXFXFXFXFXFXFXFXFX        # < < < < X                     # Z G R :.W F D 1 FXFXFXFXFXFXFXFXFXFXFXFXFXFXFXFXFXFXFXFX",
"FXFXFXFXFXFXFXFXFXFXFXFXFXFXFX                                          # N E >.2.1.R D >   FXFXFXFXFXFXFXFXFXFXFXFXFXFXFXFXFXFXFX",
"FXFXFXFXFXFXFXFXFXFXFXFXFXFXFX                                          # D >.6.7.7.1.R >   FXFXFXFXFXFXFXFXFXFXFXFXFXFXFXFXFXFXFX",
"FXFXFXFXFXFXFXFXFXFXFXFXFXFXFXFX                                        @ Z >.2.2.2.2.Q < FXFXFXFXFXFXFXFXFXFXFXFXFXFXFXFXFXFXFXFX",
"FXFXFXFXFXFXFXFXFXFXFXFXFXFXFXFXFX                                      # D W -.:.! W G FXFXFXFXFXFXFXFXFXFXFXFXFXFXFXFXFXFXFXFXFX",
"FXFXFXFXFXFXFXFXFXFXFXFXFXFXFXFXFXFX                                    @ 1 Z F Y Y D FXFXFXFXFXFXFXFXFXFXFXFXFXFXFXFXFXFXFXFXFXFX",
"FXFXFXFXFXFXFXFXFXFXFXFXFXFXFXFXFXFXFXFX                                  @ 1 F D D FXFXFXFXFXFXFXFXFXFXFXFXFXFXFXFXFXFXFXFXFXFXFX",
"FXFXFXFXFXFXFXFXFXFXFXFXFXFXFXFXFXFXFXFXFXFXFXFX                          FXFXFXFXFXFXFXFXFXFXFXFXFXFXFXFXFXFXFXFXFXFXFXFXFXFXFXFX"
};
