/* XPM */
static char *result[] = {
/* columns rows colors chars-per-pixel */
"32 32 198 2 ",
"   c #000000",
".  c #0A0500",
"X  c #140600",
"o  c #1A0A00",
"O  c #131715",
"+  c #341700",
"@  c #250B18",
"#  c #320C1E",
"$  c #250F00",
"%  c #1A0034",
"&  c #300A22",
"*  c #37332E",
"=  c #551B00",
"-  c #5F2F00",
";  c #522200",
":  c #7B3205",
">  c #6D2700",
",  c #7C2533",
"<  c #7B3636",
"1  c #78553C",
"2  c #310458",
"3  c #2B004E",
"4  c #270568",
"5  c #390A66",
"6  c #5D025F",
"7  c #711E50",
"8  c #7A265E",
"9  c #4B056B",
"0  c #5A0468",
"q  c #4B017E",
"w  c #45007A",
"e  c #540377",
"r  c #46146C",
"t  c #6F0E67",
"y  c #7C1B7A",
"u  c #6D0973",
"i  c #573C6C",
"p  c #7F2C60",
"a  c #565A5E",
"s  c #624D41",
"d  c #665D6E",
"f  c #5B6064",
"g  c #666867",
"h  c #736B7A",
"j  c #7A7878",
"k  c #6C717A",
"l  c #892736",
"z  c #854F00",
"x  c #925403",
"c  c #915016",
"v  c #AA4601",
"b  c #A25100",
"n  c #B95A03",
"m  c #A64312",
"M  c #B44810",
"N  c #BC6200",
"B  c #B9630D",
"V  c #A96E18",
"C  c #805C3F",
"Z  c #B2492E",
"A  c #C24F0B",
"S  c #D05E00",
"D  c #D85E1E",
"F  c #C36000",
"G  c #C46D00",
"H  c #D87808",
"J  c #E27300",
"K  c #EB7800",
"L  c #CE5B3C",
"P  c #DA6126",
"I  c #9C1957",
"U  c #82265D",
"Y  c #8A2C60",
"T  c #9D236F",
"R  c #882877",
"E  c #953563",
"W  c #A42364",
"Q  c #AF306F",
"!  c #B8316C",
"~  c #A62675",
"^  c #B83976",
"/  c #BA2E71",
"(  c #C13C7F",
")  c #845F40",
"_  c #936C46",
"`  c #B37844",
"'  c #A94B78",
"]  c #CC6148",
"[  c #D64F6C",
"{  c #CC4678",
"}  c #CD5C7C",
"|  c #B28118",
" . c #E48600",
".. c #F39900",
"X. c #E79700",
"o. c #E3A40B",
"O. c #FCA20E",
"+. c #FBB800",
"@. c #ECAA13",
"#. c #DB962A",
"$. c #E39726",
"%. c #FFC400",
"&. c #FFDE37",
"*. c #FFF14B",
"=. c #FFE673",
"-. c #4A0184",
";. c #490089",
":. c #4E0F85",
">. c #51068E",
",. c #561689",
"<. c #5A0D9A",
"1. c #540595",
"2. c #5B1698",
"3. c #490092",
"4. c #7F1684",
"5. c #5408A3",
"6. c #5811A3",
"7. c #6311AB",
"8. c #6C1AAD",
"9. c #6B1BB4",
"0. c #6610B0",
"q. c #6503B5",
"w. c #6C21B9",
"e. c #7629B9",
"r. c #7431BD",
"t. c #6622AD",
"y. c #766883",
"u. c #7A2EC2",
"i. c #7C32C6",
"p. c #8E2E8E",
"a. c #AD3A93",
"s. c #8536BC",
"d. c #C23780",
"f. c #BB458C",
"g. c #AE7791",
"h. c #C94384",
"j. c #C94787",
"k. c #D44B8A",
"l. c #D8528D",
"z. c #D35391",
"x. c #D75895",
"c. c #D74E93",
"v. c #E55D9B",
"b. c #E75A96",
"n. c #E4649D",
"m. c #E759A9",
"M. c #E768A3",
"N. c #F56CAC",
"B. c #F366A6",
"V. c #FE7CBA",
"C. c #F975B2",
"Z. c #F76FAF",
"A. c #833AC4",
"S. c #8A41C8",
"D. c #FF75C0",
"F. c #989997",
"G. c #848386",
"H. c #B9A295",
"J. c #949BA1",
"K. c #9CA3AB",
"L. c #A9A9A9",
"P. c #A3A7A8",
"I. c #A9AEB2",
"U. c #B4B7B8",
"Y. c #B2BAAB",
"T. c #D58C92",
"R. c #F49285",
"E. c #FDAE8C",
"W. c #EE88B8",
"Q. c #F483B5",
"!. c #F48EBC",
"~. c #F989B9",
"^. c #ED92BD",
"/. c #ECC695",
"(. c #FF89C1",
"). c #FE95CC",
"_. c #FA98C5",
"`. c #FF9BD3",
"'. c #FAA2C9",
"]. c #FAA9D5",
"[. c #FEB9D3",
"{. c #FFBAE4",
"}. c #C4C4C4",
"|. c #CCCCCC",
" X c #C5C9C5",
".X c #D0D2CF",
"XX c #D3D3D3",
"oX c gray86",
"OX c #D7D9D6",
"+X c #C6CDD2",
"@X c #FFCAE7",
"#X c #E4E4E4",
"$X c #EBEBEB",
"%X c #E6E7E9",
"&X c #F2F2F2",
"*X c #FAFAFA",
"=X c #EDF0F3",
"-X c None",
/* pixels */
"-X-X-X-X-X-X-X-X-X-X-X-X-X-X-X-Xh.j.^ j.-X-X-X-X-X-X-X-X-X-X-X-X",
"-X-X-X-X-X-X-X-X-X-X-X-X-X-X-Xh.Q.Q -X^ -X-X-X-X-X-X-X-X-X-X-X-X",
"-X-X-X-X-X-X-X-X-X-X-X-X-X^ z.M.Q.I W -X-X-X-X-X-X-X-X-X-X-X-X-X",
"-X-X-X-X-X-X-X-X-X-X-X-Xh.( (._.x.b.a.W -X-X-X-X-X-X-X-X-X-X-X-X",
"-X-X-X-X-X-X-X-X-X-X-X^ x.V.x.^.b.c.C.d.I -X-X-X-X-X-X-X-X-X-X-X",
"-X-X-X-X-X-X-X-X-X-X-Xn.n.'.^.'.~.N.V.k.! -X-X-X-X-X-X-X-X-X-X-X",
"-X-X-X-X-X-X-X-X-X-Xy n._._.x.W.!.k.B.N.! u -X-X-X-X-X-X-X-X-X-X",
"-X-X-X-X-X-X-X-X<.u.a.Q.].!.k.l.l.j.M.N.{ p.5.<.-X-X-X-X-X-X-X-X",
"-X-X-X-X-X-X-Xq :.1.s.f.[.@X^.l.l.^.(.B.T e.,.,.q -X-X-X-X-X-X-X",
"-X-X-X-X-X-Xt h.U z R 9.a.l.Q._._.Z.k.~ 0.R z U h.t -X-X-X-X-X-X",
"-X-X-X-X-X6 / ~.m.D x 4 :.0 R ^ ^ R e e 4 x D m.C.! 6 -X-X-X-X-X",
"-X-X-X-X-X~ ~.).{ A +   5 i.9.;.;.9.A.5   + M { ).!.~ -X-X-X-X-X",
"-X-X-X-X9 ^ ).b., .   2 i.r.5.p.p.5.r.u.2   . , b.).^ 9 -X-X-X-X",
"-X-X-X-Xl H ] m ; - z 9 p l p.M.M.y , 8 9 z - ; m ] H l -X-X-X-X",
"-X-X-X-XF =.@.b # [ P Z Z L ~.C.N.N.L m Z P [ # b @.=.F -X-X-X-X",
"-X-X-X-Xn &.O.v   & U C.].{.@X].`.D.D.C.b.U &   M ..&.N -X-X-X-X",
"-X-X-X-Xn J +. .s     @ ' g.T.E.R.} ' E @     s H +.K n -X-X-X-X",
"-X-X-X-X#./.o. .` J.g O     >  .J =     O f J.`  .o./.$.-X-X-X-X",
"-X-X-X-X#.*.%.N _ +XXX|.L.f _ G F ) a L.P.+X+X_ N %.*.$.-X-X-X-X",
"-X-X-X-X8 B B _ U.+X&XOXI.$X=XL.H.%X#X$X+X+XoXI._ B B 7 -X-X-X-X",
"-X-X-X-X9.0.y.L.%X=X*X=X.XU.U.+XU.}.#X*X&X}.%XoXU.d 1.t.-X-X-X-X",
"-X-X-X<.A.t.y. X=X=X*X%X&X|.F._ }.=X&X$X*X#X%X|.XXh 6.S.>.-X-X-X",
"-X-X>.e.A.-.<.y.Y. XOX%X#XP.j i  X#X$X$X&X$X$XOX.Xd 7.A.u.>.-X-X",
"-Xw 9.u.w.-.1.1.i k y.K.K.h ,.1.F. X|.#X$XoX#XOXG.:.1.r.S.9.w -X",
"-X-X-.;.q -X-X-X3.< V | c -X5.q.2.j L.U.+XI.I.g r ;.1.0.<.q -X-X",
"-X-X-X-X-X-X-X-X-X-XS ..v -X% 2 3 -X* C 1 1 1 -X-X-X-Xw -X-X-X-X",
"-X-X-X-X-X-X-X-X-X-X-X+ X           X J ..J v -X-X-X-X-X-X-X-X-X",
"-X-X-X-X-X-X-X-X-X                  o H X.J v -X-X-X-X-X-X-X-X-X",
"-X-X-X-X-X-X-X-X                    o H %.n $ -X-X-X-X-X-X-X-X-X",
"-X-X-X-X-X-X-X-X                      + : $   -X-X-X-X-X-X-X-X-X",
"-X-X-X-X-X-X-X-X-X                          -X-X-X-X-X-X-X-X-X-X",
"-X-X-X-X-X-X-X-X-X-X-X-X              -X-X-X-X-X-X-X-X-X-X-X-X-X"
};
