/* XPM */
static char *result[] = {
/* columns rows colors chars-per-pixel */
"65 65 244 2 ",
"   c #000000",
".  c #0B0607",
"X  c #170904",
"o  c #0A0316",
"O  c #191818",
"+  c #1A0A0B",
"@  c #230E00",
"#  c #291502",
"$  c #391B00",
"%  c #240A19",
"&  c #2F1415",
"*  c #18012E",
"=  c #310B2E",
"-  c #282929",
";  c #383838",
":  c #322921",
">  c #322100",
",  c #4A1B06",
"<  c #4D2100",
"1  c #552504",
"2  c #5B3B03",
"3  c #6F2E07",
"4  c #541C33",
"5  c #762C2A",
"6  c #6D1F35",
"7  c #764926",
"8  c #260145",
"9  c #340856",
"0  c #3B0369",
"q  c #3B0074",
"w  c #4F1053",
"e  c #670959",
"r  c #701355",
"t  c #772950",
"y  c #47056B",
"u  c #57096A",
"i  c #410073",
"p  c #46017B",
"a  c #470679",
"s  c #550876",
"d  c #53157C",
"f  c #5B1668",
"g  c #70126F",
"h  c #542A77",
"j  c #52346B",
"k  c #545252",
"l  c #655747",
"z  c #70635B",
"x  c #5B4C6B",
"c  c #66576B",
"v  c #666668",
"b  c #767878",
"n  c #6E6E6F",
"m  c #5D6363",
"M  c #853703",
"N  c #9E3C02",
"B  c #90381C",
"V  c #A13F05",
"C  c #90342D",
"Z  c #AA3332",
"A  c #C13B3C",
"S  c #9B4502",
"D  c #934512",
"F  c #A74703",
"G  c #B74C04",
"H  c #AF5200",
"J  c #B85601",
"K  c #A64818",
"L  c #B7481B",
"P  c #B05617",
"I  c #BC6307",
"U  c #B16D07",
"Y  c #90572C",
"T  c #B94935",
"R  c #B04828",
"E  c #AD6A36",
"W  c #956420",
"Q  c #C55901",
"!  c #D9570B",
"~  c #C76701",
"^  c #D96800",
"/  c #CB7401",
"(  c #D87701",
")  c #D36F14",
"_  c #E67700",
"`  c #EB6F04",
"'  c #C6553D",
"]  c #D1682F",
"[  c #971758",
"{  c #881056",
"}  c #8D3258",
"|  c #AC2A56",
" . c #8C1766",
".. c #8A1A73",
"X. c #941C65",
"o. c #982966",
"O. c #922971",
"+. c #A72668",
"@. c #B53273",
"#. c #BB3B7B",
"$. c #B93778",
"%. c #AF3171",
"&. c #A11D65",
"*. c #C23A7A",
"=. c #B44358",
"-. c #8F6D57",
";. c #BA447D",
":. c #8A746B",
">. c #996460",
",. c #CB4F53",
"<. c #CA4870",
"1. c #D26B68",
"2. c #C67C50",
"3. c #7F847B",
"4. c #D98802",
"5. c #D79808",
"6. c #CF810E",
"7. c #E78700",
"8. c #E69701",
"9. c #FA9700",
"0. c #F7890B",
"q. c #E8A604",
"w. c #F6A701",
"e. c #FAB701",
"r. c #F0AC13",
"t. c #E19C2E",
"y. c #FBC601",
"u. c #FBD016",
"i. c #F9D02F",
"p. c #FEE42B",
"a. c #8B847C",
"s. c #B5917C",
"d. c #F1A059",
"f. c #F8CE53",
"g. c #FBE971",
"h. c #FCD477",
"j. c #BF851E",
"k. c #3B0482",
"l. c #4B0285",
"z. c #4A0886",
"x. c #52068A",
"c. c #561588",
"v. c #4B0394",
"b. c #540594",
"n. c #570A9A",
"m. c #591399",
"M. c #4D138C",
"N. c #671899",
"B. c #6F128C",
"V. c #5D2A82",
"C. c #6E2B90",
"Z. c #5D0AA3",
"A. c #5C07A5",
"S. c #5A17A6",
"D. c #5C06BA",
"F. c #6209AB",
"G. c #651BAA",
"H. c #6609B5",
"J. c #6919B4",
"K. c #7118A9",
"L. c #6D25B6",
"P. c #742ABB",
"I. c #7B32BC",
"U. c #7730BA",
"Y. c #6F29AD",
"T. c #726488",
"R. c #7C35C2",
"E. c #772BC4",
"W. c #8C2A90",
"Q. c #B03A89",
"!. c #8A37B4",
"~. c #C43984",
"^. c #96628C",
"/. c #CA4686",
"(. c #D44A89",
"). c #DC5494",
"_. c #D95895",
"`. c #D2528E",
"'. c #E45B9A",
"]. c #E65A98",
"[. c #E15587",
"{. c #D76597",
"}. c #DD668E",
"|. c #E4659D",
" X c #E75DA3",
".X c #D869A2",
"XX c #EB64A4",
"oX c #E869A6",
"OX c #F46CAC",
"+X c #F56BAC",
"@X c #E976AA",
"#X c #FA73B2",
"$X c #F87AB6",
"%X c #F471B2",
"&X c #DD4EA4",
"*X c #853BC3",
"=X c #8C44C7",
"-X c #934BCE",
";X c #7D8385",
":X c #878886",
">X c #9B9C9C",
",X c #949594",
"<X c #8D8D8E",
"1X c #A2A69D",
"2X c #999FA1",
"3X c #A7A8A8",
"4X c #ADB1B3",
"5X c #B4B4B4",
"6X c #BCBCBC",
"7X c #B5B8BA",
"8X c #B1AFAC",
"9X c #A1A0A0",
"0X c #E888B5",
"qX c #FB84BA",
"wX c #FB8BBD",
"eX c #F388B8",
"rX c #EA8AB5",
"tX c #BBC2B7",
"yX c #F8E8AE",
"uX c #FAED9C",
"iX c #FA9AC6",
"pX c #F998C5",
"aX c #FC8FC9",
"sX c #FAA3CB",
"dX c #F8A8CD",
"fX c #FBADD4",
"gX c #FAB5D7",
"hX c #BEC2C5",
"jX c #C3C3C3",
"kX c #CCCCCC",
"lX c #C7C8C7",
"zX c #D4D4D4",
"xX c #DBDBDB",
"cX c #D8D8D7",
"vX c #CED1D0",
"bX c #F2ECD0",
"nX c #FCCBE4",
"mX c #E4E4E4",
"MX c #EBEBEB",
"NX c #E8E7E8",
"BX c #F4F4F4",
"VX c #FAFAFA",
"CX c #EAD2E2",
"ZX c None",
/* pixels */
"ZXZXZXZXZXZXZXZXZXZXZXZXZXZXZXZXZXZXZXZXZXZXZXZXZXZXZXZXZXZXZXZXZXZXZXZXZXZXZXZXZXZXZXZXZXZXZXZXZXZXZXZXZXZXZXZXZXZXZXZXZXZXZXZXZX",
"ZXZXZXZXZXZXZXZXZXZXZXZXZXZXZXZXZXZXZXZXZXZXZXZXZXZXZXZXZXZXZXZXZXZXZXZXZXZXZXZXZXZXZXZXZXZXZXZXZXZXZXZXZXZXZXZXZXZXZXZXZXZXZXZXZX",
"ZXZXZXZXZXZXZXZXZXZXZXZXZXZXZXZXZXZXZXZXZXZXZXZXZXZXZXZXZXZXZXZXZX#.#.#.$.$.#.ZXZXZXZXZXZXZXZXZXZXZXZXZXZXZXZXZXZXZXZXZXZXZXZXZXZX",
"ZXZXZXZXZXZXZXZXZXZXZXZXZXZXZXZXZXZXZXZXZXZXZXZXZXZXZXZXZXZXZXZX~._.XX`.%.%.`._.ZXZXZXZXZXZXZXZXZXZXZXZXZXZXZXZXZXZXZXZXZXZXZXZXZX",
"ZXZXZXZXZXZXZXZXZXZXZXZXZXZXZXZXZXZXZXZXZXZXZXZXZXZXZXZXZXZXZX*._.$X|.*.ZX+.*.(.ZXZXZXZXZXZXZXZXZXZXZXZXZXZXZXZXZXZXZXZXZXZXZXZXZX",
"ZXZXZXZXZXZXZXZXZXZXZXZXZXZXZXZXZXZXZXZXZXZXZXZXZXZXZXZXZXZX$.`.eXrX;.{ ZXZX[ ZXZXZXZXZXZXZXZXZXZXZXZXZXZXZXZXZXZXZXZXZXZXZXZXZXZX",
"ZXZXZXZXZXZXZXZXZXZXZXZXZXZXZXZXZXZXZXZXZXZXZXZXZXZXZXZX#.#./.|.wXeX$.[ [ [ ZXZXZXZXZXZXZXZXZXZXZXZXZXZXZXZXZXZXZXZXZXZXZXZXZXZXZX",
"ZXZXZXZXZXZXZXZXZXZXZXZXZXZXZXZXZXZXZXZXZXZXZXZXZX$.@./.oX@X_.oXpX$X@.+.*.@.o.ZXZXZXZXZXZXZXZXZXZXZXZXZXZXZXZXZXZXZXZXZXZXZXZXZXZX",
"ZXZXZXZXZXZXZXZXZXZXZXZXZXZXZXZXZXZXZXZXZXZXZXZXZX/.&.%.oXaXeXeXrX`.#.(.(.&.&.&.ZXZXZXZXZXZXZXZXZXZXZXZXZXZXZXZXZXZXZXZXZXZXZXZXZX",
"ZXZXZXZXZXZXZXZXZXZXZXZXZXZXZXZXZXZXZXZXZXZXZXZX#.).~.~.+XqXiXiX@X/.).#X X@.@.+.[ ZXZXZXZXZXZXZXZXZXZXZXZXZXZXZXZXZXZXZXZXZXZXZXZX",
"ZXZXZXZXZXZXZXZXZXZXZXZXZXZXZXZXZXZXZXZXZXZXZXZX*.XX#X#X+XXXeXpX+X).'.XX#X%X'.%.[ ZXZXZXZXZXZXZXZXZXZXZXZXZXZXZXZXZXZXZXZXZXZXZXZX",
"ZXZXZXZXZXZXZXZXZXZXZXZXZXZXZXZXZXZXZXZXZXZXZX$.#. X$XqX|.$.{.iXqXXX@.Q.#X$X+X*.{ [ ZXZXZXZXZXZXZXZXZXZXZXZXZXZXZXZXZXZXZXZXZXZXZX",
"ZXZXZXZXZXZXZXZXZXZXZXZXZXZXZXZXZXZXZXZXZXZX`.}.;.oXwXiXeX{.0XsXiX$X).'.+X$X%X*.&.*.+.ZXZXZXZXZXZXZXZXZXZXZXZXZXZXZXZXZXZXZXZXZXZX",
"ZXZXZXZXZXZXZXZXZXZXZXZXZXZXZXZXZXZXZXZXZXO.{.OX_.@XsXsXdXdXiXdXiXpXqX$X#X#X%X(.@.<.[ e ZXZXZXZXZXZXZXZXZXZXZXZXZXZXZXZXZXZXZXZXZX",
"ZXZXZXZXZXZXZXZXZXZXZXZXZXZXZXZXZXZXZXZXz.../.+X$XpXdXiXrX0XeXiXsXiXoX'.+X#X#XXX(.+.[ g ZXZXZXZXZXZXZXZXZXZXZXZXZXZXZXZXZXZXZXZXZX",
"ZXZXZXZXZXZXZXZXZXZXZXZXZXZXZXZXZXZX0 a G...%.|.iXsXsXeX`.%.`.eXiX@X#.@. X+X#X+X).&.[ B.v.i i ZXZXZXZXZXZXZXZXZXZXZXZXZXZXZXZXZXZX",
"ZXZXZXZXZXZXZXZXZXZXZXZXZXZXZXZXZXZXm.S.R.W.`.wXgXeX#X#X|./.%.`.@X;.@./.(.).].XXXX*.[ B.v.q x.ZX0 ZXZXZXZXZXZXZXZXZXZXZXZXZXZXZXZX",
"ZXZXZXZXZXZXZXZXZXZXZXZXZXZXZXb.m.L.E.L.*XQ.}.sXgXdXsXdXwX(.#.oX%X`.*._.@XoXXX+X+X*.[ W.L.G.L.G.m.ZXZXZXZXZXZXZXZXZXZXZXZXZXZXZXZX",
"ZXZXZXZXZXZXZXZXZXZXZXZXZXZXp v.m.S.S.L.=X!.Q.|.gXnXnXnXdX{.`._.]._.`.@XiXqX#X#X].+...!.R.S.S.S.n.l.q ZXZXZXZXZXZXZXZXZXZXZXZXZXZX",
"ZXZXZXZXZXZXZXZXZXZXZXZXZXi y s s y 0 f !.*XB.%.0XgXgXfXdXpX.X/././.0XiXqX$X+X'.@. .K.R.C.y 0 a a u y q ZXZXZXZXZXZXZXZXZXZXZXZXZX",
"ZXZXZXZXZXZXZXZXZXZXZXZXq u  .%.%.w & 5 f U.I.C.%. X$X$XeXsXeXrX0XrXeXwX+X+X].*. .K.P.N.r 3 % t Q.o.{ y q ZXZXZXZXZXZXZXZXZXZXZXZX",
"ZXZXZXZXZXZXZXZXZXZXZXq u X.<.'.(.O.C G L g L.U.W.@.*.@./.$XsXdXfXsXqX|.*.*.@.X.K.J.N.} L V t %.].).*. .y ZXZXZXZXZXZXZXZXZXZXZXZX",
"ZXZXZXZXZXZXZXZXZXZXZXe r +.XX+XXX_.=.P 7.5 0 S.K.C.g r r ;.}._.{.}.(.+.e e g n.S.M.w P _ K /. X+XXX(.[ r u ZXZXZXZXZXZXZXZXZXZXZX",
"ZXZXZXZXZXZXZXZXZXZXy [ [ ~.$X$X%X&X=.! 8.2 * 9 0 c.c.z.d ..[  .X. .O.g d l.b.q 9 8 O U 0.L /.XX#X$X_.@.[ e ZXZXZXZXZXZXZXZXZXZXZX",
"ZXZXZXZXZXZXZXZXZXZXu [ (.$XsXpXoX$.A ` J $ . o o 0 m.L.R.Y.x.x.m.s c.U.I.L.x.* o o . 3 ^ ! | ~.$XiXpX@X*.r q ZXZXZXZXZXZXZXZXZXZX",
"ZXZXZXZXZXZXZXZXZXZX .$.@XsXsXeX X=.V G < .   . 8 M.U.*XL.S.A.b.z.b.D.J.P.*XY.a *     @ 3 Q K <.OXaXsXiX X+.r ZXZXZXZXZXZXZXZXZXZX",
"ZXZXZXZXZXZXZXZXZXe &.(.aXiXqXXX~.5 3 , .   o 8 M.R.-X=XL.J.S.c.g x.S.J.U.-X-XL.a * .   X 1 3 | &X%XaXiX%X*.{ ZXZXZXZXZXZXZXZXZXZX",
"ZXZXZXZXZXZXZXZXZXu [ @.@XaX+X<.| 4 .       * a R.R.L.Y.S.m.m.Q..XW.m.S.S.L.L.P.G.9 o       + 6 ,.<.%XaX}.&. .q ZXZXZXZXZXZXZXZXZX",
"ZXZXZXZXZXZXZXZXZXe Z L 1.].<.K V , @ @ > > = M.U.C.f u d d Q.%XwX.XW.a d f g N.S.q & > # @ # 3 K T /.|.' R [ f ZXZXZXZXZXZXZXZXZX",
"ZXZXZXZXZXZXZXZXB L ) 8.) T L S < 1 M S U U C y d Z K C Q.`.'.|.oX_.$.O.} B L } q w K U U M 3 $ 3 G R R 5.q.! B ZXZXZXZXZXZXZXZXZX",
"ZXZXZXZXZXZXZXZXF ~ r.g.i.5./ S X 6 ,.,.( ( K 5 5 J Q L [.+X+X'.'. X'.'.,.H J F 5 B Q ( ) ,.| & $ ~ 4.5.f.f._ J ZXZXZXZXZXZXZXZXZX",
"ZXZXZXZXZXZXZXZXN ~ i.bXf.0.4.F @ = o.(.,.T ' ' ' ' ,.1.@XaXqXqX$X$X#XXX_.,.T T ' T T =.<./.t % < ~ 9.r.uXyX8.J ZXZXZXZXZXZXZXZXZX",
"ZXZXZXZXZXZXZXZXN ~ u.uXf.` ^ S @ . = } o.Q.XX$X$XqXeXaXgXfXfXiXiXwXqXOX#X+X].).[.].(.=.o.t + . < Q ` 0.h.g.q.H ZXZXZXZXZXZXZXZXZX",
"ZXZXZXZXZXZXZXZXN ~ e.i.y.9.^ F &   . % & t /.@XaXsXfXnXnXnXfXsXsXsXwX$X$X$X#X+XoX`.@.w % +   X 1 Q ` w.i.u.8.H ZXZXZXZXZXZXZXZXZX",
"ZXZXZXZXZXZXZXZXN ~ w.9.e.y.7.H 7 -       % 4 t .XqXaXfXnXfXfXfXiXaXqX%X$X$XXX].%.4 = .     O ; Y ~ w.y.w.9.8.G ZXZXZXZXZXZXZXZXZX",
"ZXZXZXZXZXZXZXZXN ~ _ ! 8.e.w./ E v ; .       . 4 } x >.:.1.d.d.d.d.1.%.} t t r =   .     o k z E 7.e.e._ ^ _ F ZXZXZXZXZXZXZXZXZX",
"ZXZXZXZXZXZXZXZXH ) t.2.t.q.8.9.J s.3.k ; - .       .   @ F _ q.w.~ G 1           . O - ; k <XE ( w.8.q.t.2.t.Q ZXZXZXZXZXZXZXZXZX",
"ZXZXZXZXZXZXZXF / f.nXyXi.5./ 8.I >.4X6X,X:Xk - - O o   X S ~ ( _ Q F ,     . O O - v <X8XhX>XE ( 7.I r.g.bXyXr.Q ZXZXZXZXZXZXZXZX",
"ZXZXZXZXZXZXZXF 4.f.bXg.p.e.( I Y :X6XxX6X6X6X9X,X;X; O & D 4.6.Q ( U 2 . O k b b :X8X5XlXxX3X:.W ~ 8.u.p.uXyXr.~ N ZXZXZXZXZXZXZX",
"ZXZXZXZXZXZXZX6 K t.f.y.y.y.8.H n ;X8XlXjXvXNXmXjXhX>X:X<X-.j.I H ~ E :.3.:X7XvX6X5X6XjXjXhX3XT.Y Q e.e.y.i.f.) J ZXZXZXZXZXZXZXZX",
"ZXZXZXZXZXZXZXZXe R 5.q.8.7.( Y :.>X5XjXmXNXmXlX3X8XzXBXVXcXs.E E 2.8XxXMXxXNXMXzX8X5XcXxX6X8X<X-.P 4.7.5.8./ B ZXZXZXZXZXZXZXZXZX",
"ZXZXZXZXZXZXZXZXn.g C K K K W b >XkXvXkXMXVXBXvX8X7XlXcXNXBXxX6X8XlXmXMXmXlXlXNXBXvX8XzXmXkXzX7X<X:.P K K D B u ZXZXZXZXZXZXZXZXZX",
"ZXZXZXZXZXZXZXZXZ.J.Z.B.c b a.>XhXNXNXxXBXVXVXmXjXlXhX8X5XlXvXlXhXhX6XhXkXzXNXBXVXMXjXhXxXMXxXzXhX3X:Xl f c.d S.z.ZXZXZXZXZXZXZXZX",
"ZXZXZXZXZXZXZXZXG.E.E.D.C.;X2X5XzXmXNXBXBXVXVXBXxXzXkX6X3X3X7X6X4X3X5XhXzXBXVXVXVXBXcX6XcXVXxXcXjX5X4Xm M.D.G.=Xc.ZXZXZXZXZXZXZXZX",
"ZXZXZXZXZXZXi G.J.R.=XJ.T.;X4XvXmXxXmXVXVXVXBXNXNXNXmXzX5X9X,X<X>X7XxXMXBXBXMXBXVXVXNXzXxXBXxXvX6X6X5Xv d J.R.=XN.ZXZXZXZXZXZXZXZX",
"ZXZXZXZXZXZXp G.P.*X!.A.V.3.1XvXMXMXmXMXBXVXMXxXBXVXmX6X3X>Xn v 3XcXBXBXBXBXNXNXBXVXVXmXmXBXcXjXkXcX5Xm c.H.I.=XL.b.ZXZXZXZXZXZXZX",
"ZXZXZXZXZXa Z.J.*X*XZ.z.b.C.^.1XlXMXmXkXcXBXNXmXMXNXjX3X9X,Xn v 9XcXBXmXzXBXBXmXmXVXVXmXmXBXcXjXvXcX8Xm d J.U.=XR.J.b.i ZXZXZXZXZX",
"ZXZXZXi l.F.L.L.=X*Xn.q b.S.V.v a.3X6XtXjXxXxXxXmXxX6X,X3.n h h b kXVXxXkXBXVXmXxXVXBXmXNXBXxXzXcXjXa.k c.H.P.I.*XR.J.n.ZXZXZXZXZX",
"ZXZXi p F.J.U.R.=XP.n.p b.H.A.d k m b ,X>X>X7XcXvXhX3X;Xm h A.c.m tXMXkX6XmXBXmXcXVXBXxXxXBXxXxXvX>Xm h c.m.P.L.=X-XE.J.b.ZXZXZXZX",
"ZXZXZXb.G.L.J.!.E.G.b.i x.b.A.F.h j x c m m ;X3X2X:Xb m j A.F.x.x ,XlX7X3XvXMXzXzXVXMXlXkXMXxXkX1Xn h n.l.z.L.L.*X*X!.L.n.l.ZXZXZX",
"ZXZXZXZXl.A.Z.A.A.b.i q i i p n.Z.A.V.k l l l l l l k j Z.A.F.F.m.x ,X8X3XhXzXkXzXBXxX4X7XzX7X>Xv j Z.F.l.l.H.L.P.G.A.b.p ZXZXZXZX",
"ZXZXZXZXZXp p p p ZXZXZXZXZXZXp l.k.e K P 6.q.5.U K D ZXx.A.F.F.F.m.c b <X3XhX4X7XvX4X>X4X8Xb k j y p p x.F.F.F.F.b.p p ZXZXZXZXZX",
"ZXZXZXZXZXZXZXZXZXZXZXZXZXZXZXZXZXZXZXZXQ ^ w.e.( G ZXZXZXp b.x.b.l.ZXZXk v b n n b n v n n ZXZXZXZXZXZXZXx.l.l.l.ZXZXZXZXZXZXZXZX",
"ZXZXZXZXZXZXZXZXZXZXZXZXZXZXZXZXZXZXZXZXZXG ( 7.Q M $ ZXZX* 8 * 8 * o ZX. : 7 7 7 7 Y 7 7 7 ZXZXZXZXZXZXZXZXZXZXZXZXZXZXZXZXZXZXZX",
"ZXZXZXZXZXZXZXZXZXZXZXZXZXZXZXZXZXZXZXZXZXM M M 3 @                       @ F ` ( _ ( ^ Q F ZXZXZXZXZXZXZXZXZXZXZXZXZXZXZXZXZXZXZX",
"ZXZXZXZXZXZXZXZXZXZXZXZXZXZXZXZXZXZXZXZXZX. . . X                         @ S 0.e.e.w.^ G F ZXZXZXZXZXZXZXZXZXZXZXZXZXZXZXZXZXZXZX",
"ZXZXZXZXZXZXZXZXZXZXZXZXZXZXZXZXZXZXZX                                    @ S _ ( ( ( ^ Q F ZXZXZXZXZXZXZXZXZXZXZXZXZXZXZXZXZXZXZX",
"ZXZXZXZXZXZXZXZXZXZXZXZXZXZXZXZXZXZX                                      @ F _ 7.8.7.( Q F ZXZXZXZXZXZXZXZXZXZXZXZXZXZXZXZXZXZXZX",
"ZXZXZXZXZXZXZXZXZXZXZXZXZXZXZXZXZX                                        @ F 9.y.y.w.^ V 3 ZXZXZXZXZXZXZXZXZXZXZXZXZXZXZXZXZXZXZX",
"ZXZXZXZXZXZXZXZXZXZXZXZXZXZXZXZX                                          X S 7.e.e.( V <     ZXZXZXZXZXZXZXZXZXZXZXZXZXZXZXZXZXZX",
"ZXZXZXZXZXZXZXZXZXZXZXZXZXZXZXZX                                            # S _ _ G < .     ZXZXZXZXZXZXZXZXZXZXZXZXZXZXZXZXZXZX",
"ZXZXZXZXZXZXZXZXZXZXZXZXZXZXZXZXZX                                            @ 1 < $ .     ZXZXZXZXZXZXZXZXZXZXZXZXZXZXZXZXZXZXZX",
"ZXZXZXZXZXZXZXZXZXZXZXZXZXZXZXZXZXZX                                                      ZXZXZXZXZXZXZXZXZXZXZXZXZXZXZXZXZXZXZXZX",
"ZXZXZXZXZXZXZXZXZXZXZXZXZXZXZXZXZXZXZX                                                  ZXZXZXZXZXZXZXZXZXZXZXZXZXZXZXZXZXZXZXZXZX",
"ZXZXZXZXZXZXZXZXZXZXZXZXZXZXZXZXZXZXZXZXZX                                          ZXZXZXZXZXZXZXZXZXZXZXZXZXZXZXZXZXZXZXZXZXZXZX"
};
