/* XPM */
static char *_d02695a3f1c42d6ce69c5c8dd66002dB3OhUea86KgSxP07[] = {
/* columns rows colors chars-per-pixel */
"65 65 252 2 ",
"   c None",
".  c #000000",
"X  c #080309",
"o  c #150904",
"O  c #0A0013",
"+  c #1A1C1B",
"@  c #1B0C11",
"#  c #260F00",
"$  c #261600",
"%  c #361602",
"&  c #2F130F",
"*  c #382B0C",
"=  c #1E0038",
"-  c #150626",
";  c #391627",
":  c #2C072C",
">  c #353232",
",  c #4D1A07",
"<  c #5A2700",
"1  c #482510",
"2  c #703105",
"3  c #4E0A33",
"4  c #59392E",
"5  c #712F32",
"6  c #711C2F",
"7  c #61471A",
"8  c #280548",
"9  c #330B52",
"0  c #3C016B",
"q  c #380265",
"w  c #3C0275",
"e  c #3F3B42",
"r  c #4E134E",
"t  c #770C59",
"y  c #730D59",
"u  c #6B264F",
"i  c #490469",
"p  c #420173",
"a  c #45027B",
"s  c #49087C",
"d  c #551070",
"f  c #781867",
"g  c #6A0D6B",
"h  c #4E3463",
"j  c #543071",
"k  c #692464",
"l  c #3A4348",
"z  c #4A494A",
"x  c #545254",
"c  c #635147",
"v  c #585163",
"b  c #63576D",
"n  c #656666",
"m  c #777976",
"M  c #6D706F",
"N  c #68655E",
"B  c #943A0B",
"V  c #A43E10",
"C  c #90322E",
"Z  c #AC3631",
"A  c #8B4E08",
"S  c #A64800",
"D  c #B64D01",
"F  c #AA5504",
"G  c #B95705",
"H  c #A74719",
"J  c #B85318",
"K  c #B25019",
"L  c #B96506",
"P  c #915324",
"I  c #B74B34",
"U  c #B8702C",
"Y  c #956C14",
"T  c #C55804",
"R  c #C65516",
"E  c #CE5611",
"W  c #CA6705",
"Q  c #D66802",
"!  c #DB7601",
"~  c #C97211",
"^  c #E77701",
"/  c #E96B0B",
"(  c #CA5331",
")  c #D36F2C",
"_  c #8B1258",
"`  c #971858",
"'  c #90144D",
"]  c #913054",
"[  c #A4245B",
"{  c #AE3650",
"}  c #981B67",
"|  c #8B176F",
" . c #A31F68",
".. c #952672",
"X. c #AC2B6B",
"o. c #A42464",
"O. c #B5326B",
"+. c #B42D73",
"@. c #BB397A",
"#. c #B73476",
"$. c #AF306F",
"%. c #A31E5B",
"&. c #C33B7B",
"*. c #C13944",
"=. c #81614E",
"-. c #BC437D",
";. c #A75A55",
":. c #C95356",
">. c #CD4D6E",
",. c #E66B6D",
"<. c #C13F1C",
"1. c #7F807F",
"2. c #D28E05",
"3. c #E48501",
"4. c #EA9601",
"5. c #F79701",
"6. c #F0890B",
"7. c #D3AA08",
"8. c #F7A600",
"9. c #F8B700",
"0. c #EDA600",
"q. c #DA8F29",
"w. c #EC8F28",
"e. c #F3B02C",
"r. c #FCCB02",
"t. c #FCC302",
"y. c #FCD701",
"u. c #F9D410",
"i. c #F8D02F",
"p. c #B08D74",
"a. c #E39E5F",
"s. c #F8D071",
"d. c #FBE75F",
"f. c #AD8E07",
"g. c #3B0897",
"h. c #4B0285",
"j. c #4D0B84",
"k. c #4D028A",
"l. c #480986",
"z. c #52078B",
"x. c #551588",
"c. c #4A0794",
"v. c #510393",
"b. c #58089A",
"n. c #5B1696",
"m. c #4F1080",
"M. c #6D128F",
"N. c #652497",
"B. c #692D8F",
"V. c #5C08A6",
"C. c #570FA4",
"Z. c #620BAA",
"A. c #6107AB",
"S. c #6512AC",
"D. c #661BA9",
"F. c #640AB4",
"G. c #6B14B4",
"H. c #6918B4",
"J. c #721CB7",
"K. c #6A25AA",
"L. c #7329A9",
"P. c #6C24B4",
"I. c #732BBB",
"U. c #7529B8",
"Y. c #7C35BC",
"T. c #7432AB",
"R. c #5C2596",
"E. c #6D5085",
"W. c #775898",
"Q. c #7C33C5",
"!. c #6A13C2",
"~. c #93308D",
"^. c #AE3387",
"/. c #8136BD",
"(. c #8A32A8",
"). c #C43D82",
"_. c #C83D93",
"`. c #AA5B94",
"'. c #CA4484",
"]. c #C84786",
"[. c #D44C8B",
"{. c #D8558C",
"}. c #D84B97",
"|. c #C85A93",
" X c #D95695",
".X c #CB558D",
"XX c #E35B9C",
"oX c #E45898",
"OX c #DA649B",
"+X c #CE6191",
"@X c #E46C92",
"#X c #D972A4",
"$X c #ED65A5",
"%X c #E869A5",
"&X c #F46CAD",
"*X c #F866AB",
"=X c #E878AB",
"-X c #F86DB2",
";X c #FA73B2",
":X c #FA78B6",
">X c #F075B2",
",X c #E75BA8",
"<X c #8339C4",
"1X c #8B43C4",
"2X c #8B43CA",
"3X c #9149CC",
"4X c #944BD1",
"5X c #FF7FC4",
"6X c #7E8286",
"7X c #878888",
"8X c #989A99",
"9X c #8D8D92",
"0X c #A1A49E",
"qX c #A4A4A3",
"wX c #ACACAC",
"eX c #A7A9A7",
"rX c #AFB1AE",
"tX c #B3B3B3",
"yX c #BCBCBC",
"uX c #B6B8B4",
"iX c #AFAFB1",
"pX c #A4978F",
"aX c #EB87B5",
"sX c #F986BA",
"dX c #F091B2",
"fX c #F8A8A8",
"gX c #E3989D",
"hX c #EEE29D",
"jX c #BABBC1",
"kX c #FB95C3",
"lX c #F99AC6",
"zX c #FC92C9",
"xX c #FBA3CB",
"cX c #F7A6CC",
"vX c #FBA6D4",
"bX c #FAB9D9",
"nX c #FDACE7",
"mX c #C4C4C4",
"MX c #CCCCCD",
"NX c #C8C7C7",
"BX c #D4D3D4",
"VX c #DBDBDB",
"CX c #CFD0CF",
"ZX c #FCCBE5",
"AX c #FAD0E3",
"SX c #E4E4E4",
"DX c #EAEAEA",
"FX c #F4F4F4",
"GX c #FAFAFA",
"HX c #F5FBFD",
"JX c #DAE1E2",
"KX c #BEC8CD",
/* pixels */
"                                                                                                                                  ",
"                                                                  @.@.@.@.@.                                                      ",
"                                                                ]. X X#.]. X@.                                                    ",
"                                                              '.%X:X XX.).{.@.                                                    ",
"                                                            @.$XlX#X$.  } o.                                                      ",
"                                                      ` ` ' [ OXlX>X[.@.O.$.                                                      ",
"                                                    @.X.@.).).%XxX=X#.@.[.[.$.`                                                   ",
"                                                  X.o.@.%X:X>XaXaX+X#.[.'.@.].$.`                                                 ",
"                                                  X.o.}.sXsXsXlX#X).XX&X).#.$X[.%.`                                               ",
"                                                  '.XX-X;X;X:XkX=X X$X;X&X&X&X XX._                                               ",
"                                                $.'.&XsX[.&.%XlXlX X+. X:X;X;X$X#.' '                                             ",
"                                               X].^.&XkX#X.X=XxXcX=X].XX;X;X;X&X&.` #.o.                                          ",
"                                            @.%X%XOXdXxXcXcXlXdXlXkXsX:X-X;X;X&X&.+.'.o.                                          ",
"                                          s $.XXsXdXxXlXlXlXcXlXsX;X&X-X&X;X;X-XXX'.O.` g                                         ",
"                                      0   z.} &.>XxXcX=X).).>XxXkXXX#.'.&X;X;X;X-X[.` ` M.  0                                     ",
"                                      w h.M...{.aXlXsX$X[.+.>.=X#X#.#.'. XoXXX-X;XXXO.o.(.K.z.n.                                  ",
"                                h.z.S.b.b.M.^.=XvXbXkXkX%X@.^.=XXX@.].OX%XOXXX&X;X$X&.o.(.Q.G.I.n.j.                              ",
"                              h.b.V.D.Z.C.U.^.[.dXAXAXbXaX[.oX%X$X X.XaXdX;X-X-X;XXXO.} (.Q.D.P.P.S.v.p                           ",
"                            w p a a l.p x.P.Y.| |.bXZXcXlX#X].@.>.|.aXsXsX;X;X;X$X&.} M.1XT.p a l.a p w p                         ",
"                          0 g f ..g = 5 C d I.(...+XsXzXlXlXaX#X#X=XxXkX:X:X;X$X&.} M.Q.K.d y y y y g v.w                         ",
"                        0 g } $._.'.P F < + R.Q.L.~.&.oX{.%XdXxXvXvXxXkX$X[.{.&. .M.J.P.M._ X.X.[ o. .M.v.a                       ",
"                        g _ o._.oXgX2.7 o O 8 n.P.M.| _ t X.XX=XaXaX=XXX$._ _ ..M.F.D.g _ +. XoX].+.o.} M.v.                      ",
"                      g _ _ X._.,.e.7 o . . O 8 s j.b.s i d } o.o.X.X.o.f 0 s N.c.w k J Z +.%XkX>X@.` +.} g b.                    ",
"                      y `  .}.,Xa.e.* . . . . O = p D.U.T.x.g M.g g M.(.T.c.q 8 - - 1 3.( ^.;XkXlXaX|.'.%.M.V.0                   ",
"                      _ X.>.>XnXfXw.1 . . . . O 9 n.Q.Q.I.Z.c.c.c.n.H.I.Q.U.j.= X . $ 7 ~ :.[.&XxXxXaX%XX.| M.                    ",
"                    t o.@. X=XgXa.H # . . . O 9 n.<X3XU.H.V.v.z.j.C.V.H.<X4XY.m.= O . * f.q. .'.#XOX{.%X). .| A.a                 ",
"                    t X.'.[.I R B % X . . O 9 n.I.1X<XI.K.C.N.^.~.n.D.P.Y.<X<XI.j.= . $ Y ~ [ &.$.$.^.[. XO.t v.a                 ",
"                  w y ).OX*.Q <.C 2 o . . O q H.K.n.x.j.s M.`.aX=X~.m.l.j.x.R.<XN.8 . . * A ( [  .@.}.$XaX].r = q                 ",
"                  0 t X.:.E 6.( %.Z 2 < A 7 i g.k ] 5 f g ~. X>X>X|...| u C ] B.c.r 2 A 7 F R ` { *.:.:.#X%X] 3 q                 ",
"                  a t Z Q 5.9.) ..#.:.E ^ ! 5 r C T F Z O.>. XoXoX X%XoX:.R T 6 r C ^ 4.4.R Z Z K T L J :.%XOX_ i                 ",
"                a V.C T ^ 9.8.( %.^.[.( T J H H K R J J :.XX-X:X&X-X;X-X$X:.J V V H R G J Z { / / w.e.0.R ,.,X_ i                 ",
"                h.V.C K ^ 6.^ Q Z [ ).Z H { >.,.@X@X@X,.gXlXvXlXkXkXsX;X-X$X@X>.>.>.>.>.{ Z / 5.6.a.d.r.4.,._.` i                 ",
"                w C.g C T Q 3.0.L , 3 1 5 [.}.$X5XzXzXvXbXAXbXvXxXcXlXsX:X:X;X-X$X,X}.@.{ / e.s.w.w.a.y.r.q.[ _ i                 ",
"                k.D.c.r C W 9.y.2.> . . ; f ] ].:XzXvXnXZXAXnXvXzXvXlXkX:X:X5X-X&X.X..` / 8.u.hXs.w.! 4.r.2.B t z.                ",
"              z.Z.D.z.w r T 9.r.q.n > + X o @ u ^.].|.pXaXcXfXfXfXfXdX+X|.|.|.).$.6 : ' ) y.u.i.hXs.4.Q 5.L 6 h.b.h.              ",
"            k.S.P.x.v.k.d H 4.4.U p.7Xm l + . @ ; ; ; ; 4 U ) e.e.w.( 5 ; ; ; ; : o o 6 ) r.y.i.hXhX5.Q ^ 2 = b.h.b.z.            ",
"          p b.Q.Y.s v.V.v.f J K N 7XeXtXqXm z + . . . . , B T 3.3.Q D % X . . . . . X : C q.t.u.i.i.5./ T 6 g.D.i K.L.0           ",
"            K./.L.j.b.A.F.F.f 4 n 8XwXiXmXBXwXn 4 l + X % F Q Q W ! S & . . X > z x x e u Z q.t.9.8.^ E C M.!.P.z.N.L.x.          ",
"        p b.<XT.s b.V.V.V.V.A.j n 8XyXwXiXMXmXeX0XqX9Xx 4 J 3.G 2.2.Y 4 l > z 7XuXNXBXwXM u Z 3.6.D A B r n.H.P.Z.s N./.s         ",
"        s D.<XT.a b.A.v.l.H.F.d n 0XyXwXiXmXmXtXuXJXSXMXeXp.U F K U pXmXMXmXmXyXtXCXHXJXeXM c K K P x c n L.F.P.Z.a B./.s         ",
"        b.K.2XT.a b.F.h.s /.J.B.1.rXrXtXCXSXSXmXMXSXSXVXJXVXmXgXp.pXNXHXGXGXGXVXwXmXFXSXBXwXm =.N M n M 1.B.H.<XS.a N.1Xb.        ",
"      h.A.J.2XT.a b.b.z.n.Y.N.b 8XrXtXCXFXGXGXVXSXFXVXNXCXSXJXVXKXjXCXJXBXCXVXVXyXyXFXDXVXCXtX9X7X6X8X0X6XB.J.1XS.c.n.L.U.j.      ",
"      a Z.I./.N.l.b.h.x.U.Z.h m 0XyXCXDXGXGXGXDXSXGXGXDXBXyXwXrXuXyXmXuXwXqXyXSXMXjXGXGXDXVXCXrXrXwXyXCX9XB.H.<XH.A.k.m.1Xn.      ",
"      j.I.3XN.j.V.V.l.N.<XZ.h M uXSXJXDXGXGXGXFXGXFXGXFXDXVXMXtXqXwXtXwXiXyXBXFXVXCXGXGXFXDXBXBXBXmXmXMX7XB.F.I.U.S.k.s 1XJ.h.p   ",
"    h.V.I.3XR.a Z.J.D.L.U.S.h M rXBXVXSXGXFXSXFXGXFXSXFXFXFXFXBXtX9Xm iXyXuXVXFXSXVXFXGXGXSXCXFXSXmXrXyXW.V.J.I.I.G.v.m.1XJ.h.p   ",
"  p z.G.I.2XN.a Z.P.I.Y.U.Z.h m eXyXCXDXGXFXVXSXGXFXDXFXFXFXGXDXmXm N 8XmXjXVXDXDXFXFXGXDXBXNXSXVXrX0X9XD.F.Q.Y.U.S.k.m.1XJ.k.p   ",
"  p z.Z.U.3XN.p b.J.U.1X<XS.h M eXmXBXDXGXFXVXVXDXGXFXGXSXVXDXVXiXm x 7XtXjXNXCXVXFXGXFXBXmXMXCXyXqX7XE.D.H.Y.2XI.S.k.m./.J.h.p   ",
"  p k.Z.P.2XN.q a b./.4X/.S.h m wXmXBXDXGXFXBXyXVXFXVXDXFXVXBXNX7Xz v 7X0X0XwXjXNXVXFXBXtXyXCXyX0X7XE.Z.P.I.<X2XI.S.v.d 1XJ.k.p   ",
"      k.S.2XN.p   a n.J.G.Z.h m eXmXSXDXDXHXFXjXMXSXBXSXFXBXNXmX7Xh x.b M 8XuXMXBXVXBXuXrXtXeX7Xn j J.J.U.<X3X1XG.Z.k.s 1XJ.k.p   ",
"      a A.J.U.B.      h.k.k.i v 1.wXBXCXNXNXKXrXrXKXNXVXVXCXVXCX`.n.V.x.v M 8XyXMXCXmXtXrX0X1.v j n.J.U./.3X<XJ.A.z.n.T./.G.k.p   ",
"        k.v.U.L.p             9 n 8XuXmX8Xn v n v m rXmXyXMXJXuXW.F.A.A.m.x b m 9X8X8X8X7XM n j V.F.P.I./.<XK.v.v.p N.4XU.b.      ",
"        p 0 v.v.p               n 8XuXrXN & $ $ $ * m 8XrXmXrXn w V.A.V.h.9 c c c c c c c x h b.A.A.Z.P.Z.b.v.p i 0 N.3XI.j.      ",
"              a p                 M 8Xv 1 S 2.7.7.Y * v eXrXM + 8 w l.w 8 & A T G G G L G P w h.V.A.A.Z.h.p         N.3XS.a       ",
"                                    M l 4 W 8.y.y.7.7 W.eXn + . X - - - X % D Q 3.8.8.5.^ Z       h.h.h.          N.Y.D.h.        ",
"                                      4 P Q ! 2.7.7.P 7XM + . . . . . . . % S Q 4.r.y.9.! B                       N.D.h.          ",
"                                      2 D T D V W 3.L 4 + . . . . . . . . $ B T 3.0.9.4.F ,                         0             ",
"                                    . < S D T W T D S % . . . . . . . . . . $ B D F D S , . .                                     ",
"                                  . . < S D 3.0.! T S % . . . . . . . . . . . # % # % # o . . .                                   ",
"                                  . . < D 3.9.r.9.^ S % . . . . . . . . . . . . . . . . . . . .                                   ",
"                                  . . < W 9.r.r.r.8.F % . . . . . . . . . . . . . . . . . . . .                                   ",
"                                    . , L 8.8.5.8.4.F % . . . . . . . . . . . . . . . . . . X                                     ",
"                                      o < G ! ! W W S % . . . . . . . . . . . . . . . . . .                                       ",
"                                          S T D D B < o . . . . . . . . . . . . . . . .                                           ",
"                                              S D 2 # . . . . . . . . . . . . . . .                                               ",
"                                                    $ . . . . . . . . . . . .                                                     "
};
