/* XPM */
static char *result[] = {
/* columns rows colors chars-per-pixel */
"32 32 215 2 ",
"   c #000000",
".  c #180405",
"X  c #040013",
"o  c #0C0114",
"O  c #131916",
"+  c #281600",
"@  c #3A1702",
"#  c #261010",
"$  c #332D00",
"%  c #15012C",
"&  c #340B3A",
"*  c #2D073B",
"=  c #3C2020",
"-  c #461905",
";  c #491E1E",
":  c #452406",
">  c #5B2500",
",  c #783515",
"<  c #7B3100",
"1  c #6C1831",
"2  c #4D3C35",
"3  c #77242E",
"4  c #3C423F",
"5  c #4D430F",
"6  c #5A503C",
"7  c #7E4C2E",
"8  c #3D0076",
"9  c #3A006D",
"0  c #6E065C",
"q  c #611B42",
"w  c #4A324E",
"e  c #722458",
"r  c #5C0465",
"t  c #45017B",
"y  c #450479",
"u  c #4F0978",
"i  c #630866",
"p  c #760E7B",
"a  c #6F156D",
"s  c #4F2178",
"d  c #6B2172",
"f  c #3D4442",
"g  c #565855",
"h  c #554B53",
"j  c #795C46",
"k  c #604952",
"l  c #5A615D",
"z  c #5F5267",
"x  c #5C4277",
"c  c #6C6B6E",
"v  c #747476",
"b  c #813D09",
"n  c #8D3032",
"m  c #B83822",
"M  c #AA392D",
"N  c #8F4200",
"B  c #B64B05",
"V  c #BB5200",
"C  c #BF5F00",
"Z  c #A24817",
"A  c #AA5212",
"S  c #996D07",
"D  c #BA6204",
"F  c #9C413C",
"G  c #B8672A",
"H  c #C85A08",
"J  c #CF5912",
"K  c #C86B06",
"L  c #D36600",
"P  c #CD7303",
"I  c #D77500",
"U  c #C76A10",
"Y  c #E87005",
"T  c #C55125",
"R  c #D16B31",
"E  c #86135B",
"W  c #9A1658",
"Q  c #892550",
"!  c #AA2E4C",
"~  c #8C1964",
"^  c #991A69",
"/  c #9F2971",
"(  c #972D72",
")  c #AA286A",
"_  c #B22C6C",
"`  c #B63569",
"'  c #BB3475",
"]  c #BC3B7B",
"[  c #B73675",
"{  c #AE2C76",
"}  c #C23B72",
"|  c #837F7E",
" . c #E07042",
".. c #CB467D",
"X. c #DE5B7A",
"o. c #CD466A",
"O. c #CE7D64",
"+. c #DD8300",
"@. c #CE8208",
"#. c #EA8C00",
"$. c #E99400",
"%. c #F69009",
"&. c #FAA800",
"*. c #FEB200",
"=. c #FBBC04",
"-. c #D48D3B",
";. c #E78021",
":. c #EEA32E",
">. c #FFD500",
",. c #FBD010",
"<. c #FAE62E",
"1. c #AE8653",
"2. c #EEA74A",
"3. c #C2976C",
"4. c #FCD55D",
"5. c #FAE96D",
"6. c #3F028A",
"7. c #4C0385",
"8. c #4C0289",
"9. c #530A8D",
"0. c #55068A",
"q. c #4F1386",
"w. c #5A168D",
"e. c #561287",
"r. c #540394",
"t. c #560A98",
"y. c #5A1697",
"u. c #4C0B91",
"i. c #660B87",
"p. c #6B1688",
"a. c #572181",
"s. c #662A9B",
"d. c #6B3A92",
"f. c #550AA1",
"g. c #5D05A7",
"h. c #661AA9",
"j. c #6308B4",
"k. c #6718B5",
"l. c #6915B3",
"z. c #742DA8",
"x. c #7731AD",
"c. c #6F22B8",
"v. c #7224B4",
"b. c #7324BB",
"n. c #742ABA",
"m. c #702BAF",
"M. c #7E7684",
"N. c #792AC2",
"B. c #7D39C0",
"V. c #831688",
"C. c #8D288A",
"Z. c #96348F",
"A. c #BD3A8C",
"S. c #8229AE",
"D. c #847490",
"F. c #CA4789",
"G. c #D44D8C",
"H. c #D94E91",
"J. c #D35A96",
"K. c #DA5795",
"L. c #CD548F",
"P. c #E55E9E",
"I. c #E15895",
"U. c #E3578C",
"Y. c #DB6698",
"T. c #DB648E",
"R. c #E56597",
"E. c #EB738E",
"W. c #EC64A3",
"Q. c #E568A3",
"!. c #F469A8",
"~. c #E97AAB",
"^. c #F876AE",
"/. c #FB73B3",
"(. c #FC77B8",
"). c #FB68B3",
"_. c #8538C6",
"`. c #8D45D3",
"'. c #8D46C9",
"]. c #7A808E",
"[. c #848386",
"{. c #8D9587",
"}. c #999D9C",
"|. c #8D9391",
" X c #9FA59D",
".X c #A7A9A9",
"XX c #BDBDBE",
"oX c #B6B7B6",
"OX c #AFB4B0",
"+X c #EA8C9C",
"@X c #E882B1",
"#X c #F688B9",
"$X c #FFA1B2",
"%X c #C0C0BF",
"&X c #BDBFC4",
"*X c #FB9ECA",
"=X c #F997C3",
"-X c #FF88C6",
";X c #FDA3CC",
":X c #F8AAD2",
">X c #FBB3D9",
",X c #BDC2C8",
"<X c #CBCCCC",
"1X c #C3C5C5",
"2X c #D3D3D3",
"3X c #DCDDDC",
"4X c #D2D6DA",
"5X c #CACED3",
"6X c #DFDFE0",
"7X c #FECCE4",
"8X c #E3E3E3",
"9X c #ECECEC",
"0X c #F4F4F4",
"qX c #FDFDFD",
"wX c None",
/* pixels */
"wXwXwXwXwXwXwXwXwXwXwXwXwXwXwXwXG.] F.wXwXwXwXwXwXwXwXwXwXwXwXwX",
"wXwXwXwXwXwXwXwXwXwXwXwXwXwXwXQ.Q.) ] wXwXwXwXwXwXwXwXwXwXwXwXwX",
"wXwXwXwXwXwXwXwXwXwXwXwXwX) _ #XY.' ] wXwXwXwXwXwXwXwXwXwXwXwXwX",
"wXwXwXwXwXwXwXwXwXwXwXwX) K.-X@XL.H.F.[ wXwXwXwXwXwXwXwXwXwXwXwX",
"wXwXwXwXwXwXwXwXwXwXwXwXG.^.K.=XG.W./.H.W wXwXwXwXwXwXwXwXwXwXwX",
"wXwXwXwXwXwXwXwXwXwXwXI.Y.=X@X*X@X!./.P._ ~ wXwXwXwXwXwXwXwXwXwX",
"wXwXwXwXwXwXwXwXwXwXp R.;X~.~.*XQ.Q././...~ wXwXwXwXwXwXwXwXwXwX",
"wXwXwXwXwXwXwXwX0.r.p.~.;XQ.[ ~.' H.P./.I./ b.y.wXwXwXwXwXwXwXwX",
"wXwXwXwXwXwXwX8.t.f.v.J.7X>XT.H.T.#X(./...C.n.y.t.8 wXwXwXwXwXwX",
"wXwXwXwXwXwXi / e , s S.J.(.@X@X;X#X!.G.p.c.a E E 0.8 wXwXwXwXwX",
"wXwXwXwXwXr W U.-.+ X u.i.0 / Y.T.] i V.t.Q ' Q.' ^ 0.wXwXwXwXwX",
"wXwXwXwXwXE G.$XS     o t.n.w.u i.x.y.% o D ..=X#X..p 7.wXwXwXwX",
"wXwXwXwXr ' T.3.:   X u `.n.f.p.t.N.`.q.X $ R A.J.K.) t.wXwXwXwX",
"wXwXwXwXr ..J m - + & l.d e.C.~.Z.u d c.* $ A ! _ R.L.& wXwXwXwX",
"wXwXwXwXa H &.! } I A 3 V M K.W.R.K.J 3 Z I T m P U R.~ wXwXwXwX",
"wXwXwX8 a L #.J ~ F o.E.E.+X:X;X=X(.Q.X.U.` T %.2.,. .~ wXwXwXwX",
"wXwXwX7.f.1 %.=.O   q L.-X>X7X;X*X-X-X).( ! =.5.:.$.@.0 wXwXwXwX",
"wXwXt k.u.8.U @.[.c O . # = T :.Y ; & .   1 =.<.4.Y , 6.y.wXwXwX",
"wXwXh.z.r.j.i.k OX&X1Xg f . V L P .   4 c h F *.#.V e.k.y.w.wXwX",
"wXy B.w.g.u.l.x .XOX5X&X6XoX3.G 1.5X2XXX6X3Xv Z F g s.c.9.x.wXwX",
"wXt._.w.r.y.s.D.oX8XqX6X9X2X4X1X,X3X2X2X<X0X<X|.|. Xd._.r.z.9.wX",
"wXh.x.r.t.v.s |.6X0X0X0X0X0X4XoX.X.XXX9X3XqX8X3X1XXXs.k.l.e.v.wX",
"7.N.z.r.N.N.a.{.<X0X9X9X0X0X0X6Xc  X1X8X0X0X2X8XXXD.l.B.h.w.v.y ",
"y c.z.9 v._.a.{.2X0X9X<X9X9X3XOXh [..X<X8X2XXXOXD.h.b.'.g.w.v.y ",
"wXr.n.wXwX8.u c 1X2X,X.X,X3X6X&Xy.q.v oX5XOX}.z y.n.'.v.r.x.v.y ",
"wXwX9.7.wXwXwXw .Xv : 5 6  X1Xz g.r.w j j j k t.j.k.g.y y S.9.wX",
"wXwXwXwXwXwXwXwXl 6 Y >.S ].g   % % > Y &.#.n wX0.t wXwXs.h.wXwX",
"wXwXwXwXwXwXwXwXwX< H K P 2         @ L *.$.@ wXwXwXwXwXwXwXwXwX",
"wXwXwXwXwXwXwXwX  < L #.H .           @ - +   wXwXwXwXwXwXwXwXwX",
"wXwXwXwXwXwXwXwX  N =.>.+..                     wXwXwXwXwXwXwXwX",
"wXwXwXwXwXwXwXwXwX: I I C .                   wXwXwXwXwXwXwXwXwX",
"wXwXwXwXwXwXwXwXwXwXwXV >                 wXwXwXwXwXwXwXwXwXwXwX"
};
