/* XPM */
static char *result[] = {
/* columns rows colors chars-per-pixel */
"32 32 211 2 ",
"   c #000000",
".  c #0C0301",
"X  c #02000A",
"o  c #0A0906",
"O  c #120600",
"+  c #190605",
"@  c #0F1613",
"#  c #111712",
"$  c #2D0D07",
"%  c #360C2B",
"&  c #2E1020",
"*  c #2C0F2F",
"=  c #441608",
"-  c #5A2600",
";  c #592318",
":  c #4E2D15",
">  c #672601",
",  c #782F00",
"<  c #67201C",
"1  c #52242D",
"2  c #74312F",
"3  c #684E2E",
"4  c #2B0C55",
"5  c #3A0176",
"6  c #2B0075",
"7  c #5A1050",
"8  c #7B264A",
"9  c #6C2253",
"0  c #4B016F",
"q  c #440371",
"w  c #4A087A",
"e  c #55077A",
"r  c #4A186F",
"t  c #6C0E68",
"y  c #6B0B6F",
"u  c #583179",
"i  c #7D2867",
"p  c #3C4649",
"a  c #525750",
"s  c #6A597B",
"d  c #656E6A",
"f  c #786C65",
"g  c #72716F",
"h  c #746E77",
"j  c #973927",
"k  c #862E3D",
"l  c #A33334",
"z  c #9C5307",
"x  c #8C4A05",
"c  c #BF5D00",
"v  c #B55706",
"b  c #AA5F17",
"n  c #AB500E",
"m  c #B6660D",
"M  c #BC7518",
"N  c #AF6C1D",
"B  c #94402E",
"V  c #B35624",
"C  c #A84934",
"Z  c #B26126",
"A  c #C16000",
"S  c #DA6A00",
"D  c #CA7A12",
"F  c #D27613",
"G  c #D97C25",
"H  c #CF7B31",
"J  c #CF7526",
"K  c #91195D",
"L  c #B23C47",
"P  c #AA245F",
"I  c #88196D",
"U  c #831A7A",
"Y  c #981F6A",
"T  c #AC2B6C",
"R  c #BA397A",
"E  c #A73071",
"W  c #C73E7C",
"Q  c #BB4357",
"!  c #8B6E55",
"~  c #BE407F",
"^  c #A35466",
"/  c #8E7A6D",
"(  c #D7565A",
")  c #C04658",
"_  c #CE4E62",
"`  c #E65B64",
"'  c #F16573",
"]  c #E97676",
"[  c #D48713",
"{  c #DD8C0F",
"}  c #F38E00",
"|  c #EB9A01",
" . c #EC9D12",
".. c #EDA901",
"X. c #F6A801",
"o. c #FFB100",
"O. c #EEA418",
"+. c #F39B29",
"@. c #E9A628",
"#. c #FFF139",
"$. c #85857D",
"%. c #B79576",
"&. c #F3AB4C",
"*. c #FFEF5D",
"=. c #FFF758",
"-. c #4A0383",
";. c #460082",
":. c #560C8A",
">. c #4D0493",
",. c #550A93",
"<. c #590D94",
"1. c #560899",
"2. c #5A1292",
"3. c #5A129C",
"4. c #581992",
"5. c #57108D",
"6. c #631D9C",
"7. c #6B1C98",
"8. c #711682",
"9. c #6C2081",
"0. c #742487",
"q. c #71289F",
"w. c #5913A3",
"e. c #5C0BA8",
"r. c #6619A6",
"t. c #651DBB",
"y. c #701EB6",
"u. c #6B23A7",
"i. c #742CAC",
"p. c #7525AA",
"a. c #762CB9",
"s. c #7932AB",
"d. c #772AC9",
"f. c #7B36C7",
"g. c #6D2BC8",
"h. c #86198F",
"j. c #972B94",
"k. c #9B3997",
"l. c #AA3884",
"z. c #B93A81",
"x. c #964286",
"c. c #B84583",
"v. c #847596",
"b. c #B74BAA",
"n. c #C84686",
"m. c #D64E8D",
"M. c #DD5589",
"N. c #D75693",
"B. c #CD5C98",
"V. c #E35898",
"C. c #C0659F",
"Z. c #DE639C",
"A. c #E6619A",
"S. c #D75EAB",
"D. c #E95BA1",
"F. c #EB63A5",
"G. c #E56BA3",
"H. c #F56EAE",
"J. c #E877A9",
"K. c #ED7AB4",
"L. c #F976B1",
"P. c #8439C6",
"I. c #FF7DC3",
"U. c #858589",
"Y. c #8B9594",
"T. c #979995",
"R. c #8F8E92",
"E. c #A39894",
"W. c #9698A3",
"Q. c #A49FA2",
"!. c #BABDBA",
"~. c #A7ADAA",
"^. c #F6958F",
"/. c #C3A086",
"(. c #ED80A1",
"). c #ED89B5",
"_. c #F889BA",
"`. c #F294BC",
"'. c #F897AB",
"]. c #FDB0B7",
"[. c #B8C1B6",
"{. c #C0C5BC",
"}. c #B5BDC6",
"|. c #AFB8C6",
" X c #DC9CCE",
".X c #F597C3",
"XX c #FE98D3",
"oX c #FD80C8",
"OX c #C0BAC4",
"+X c #FFAFCD",
"@X c #F4B1CC",
"#X c #BCC2C8",
"$X c #C9C9C6",
"%X c #CED2D5",
"&X c #D5D5D5",
"*X c #DBDBDB",
"=X c #D1D4D8",
"-X c #CBD5CD",
";X c #FFC9DF",
":X c #DDE2DA",
">X c #D3D8E2",
",X c #E1DFE0",
"<X c #DEE1E2",
"1X c #E2E2E1",
"2X c #EBECEB",
"3X c #E8EAE9",
"4X c #F1F0EF",
"5X c #F2F2F2",
"6X c #F9F8F8",
"7X c #E5ECF4",
"8X c None",
/* pixels */
"8X8X8X8X8X8X8X8X8X8X8X8X8X8X8X8X8X8X8X8X8X8X8X8X8X8X8X8X8X8X8X8X",
"8X8X8X8X8X8X8X8X8X8X8X8X8X8X8X8X8X8X8X8X8X8X8X8X8X8X8X8X8X8X8X8X",
"8X8X8X8X8X8X8X8X8X8X8X8X8X8X8X8X8X_ ~ 8X8X8X8X8X8X8X8X8X8X8X8X8X",
"8X8X8X8X8X8X8X8X8X8X8X8X8X8X8X8Xn.R T 8X8X8X8X8X8X8X8X8X8X8X8X8X",
"8X8X8X8X8X8X8X8X8X8X8X8X8X8X8XN.J.Y 8X8X8X8X8X8X8X8X8X8X8X8X8X8X",
"8X8X8X8X8X8X8X8X8X8X8X8X8Xz.G._.Z.R T 8X8X8X8X8X8X8X8X8X8X8X8X8X",
"8X8X8X8X8X8X8X8X8X8X8X8Xn.V.K._.D.D.N.T 8X8X8X8X8X8X8X8X8X8X8X8X",
"8X8X8X8X8X8X8X8X8X8X8XR A.oXJ.).K.D.L.W K 8X8X8X8X8X8X8X8X8X8X8X",
"8X8X8X8X8X8X8X8X8X8Xe n._.+X)..X_.F.H.V.Y 0 8X8X8X8X8X8X8X8X8X8X",
"8X8X8X8X8X8X8X8X8Xw.h.C.+X.Xm.n.m.n.H.A.E <.>.8X8X8X8X8X8X8X8X8X",
"8X8X8X8X8X8X8X0 :.w.a.b.`.;X`.N.Z.).I.m.j.u.4.:.q 8X8X8X8X8X8X8X",
"8X8X8X8X8X8X8XI z.2 1 u.j.N.J.`.).G._ h.7.k k z.I 8X8X8X8X8X8X8X",
"8X8X8X8X8X8Xt M.I.` A * 5 y U l.l.U e 6 1 m ` I.M.y 8X8X8X8X8X8X",
"8X8X8X8X8X8Xz.XXJ.l -   4 g.t.-.-.t.g.4 X - L K.XXl.8X8X8X8X8X8X",
"8X8X8X8X8Xy ( J.L $ O * a.s.7.k.k.5.s.4.* o = L J.( 7 8X8X8X8X8X",
"8X8X8X8Xw C @.J , ; V B 8 j c.L.G.T j 8 j V < , J @.j q 8X8X8X8X",
"8X8X8X,.e m =.| > % ) ( ] ^.+XXXoXL.' ` ( Q % > O.#.V e 8X8X8X8X",
"8X8X2.i.>.V X.| x @ . 9 b. X@X].'.G.S.~ 7 X @ z X.X.C <.6.8X8X8X",
"8X8Xa.3.y [ &...G f p # + & 3 +.J < + o # p ! [ ..&.H u 3.r.8X8X",
"8Xr.s.>.U @.*.} b Q.-X~.d p 3 S c 3 a d R.$XT.m X.*.@.k.3.a.2.8X",
"-.f.6.>.4.^ [ M / }.,X4X&X=X$X%./.$X&X,X*X*X!.! M D k i.a.r.u.8X",
"1.P.:.1.d.P.u / {.,X:X*X4X5X*X}.}.%X-X1X4X5X3X!./ 0.e.1.y.<.p.3.",
",.i.q -.u.a.e.R.:X*X3X3X6X5X2X[.U.T.&X4X6X6X6X-Xv.f.d.1.;.q i.<.",
"8X5.8X8X8X-.w g :X3X5X5X2X2X4XOXu h [.7X>X#X~.v.w.t.2.8X8X8X2.8X",
"8X8X8X8X8X8X8X8Xv.*X,X3X7X*X{.U.q u f R.$.f a r ;.8X8X8X8X8X8X8X",
"8X8X8X8X8X8X8X8X8Xs Y.R.W.U.8X8X8X8X1 D { v 8X8X8X8X8X8X8X8X8X8X",
"8X8X8X8X8X8X8X8X8X8Xb M N : o     X + x c 8X8X8X8X8X8X8X8X8X8X8X",
"8X8X8X8X8X8X8X8X8X8XS } S -           o +   8X8X8X8X8X8X8X8X8X8X",
"8X8X8X8X8X8X8X8X8X8Xz o...-                   8X8X8X8X8X8X8X8X8X",
"8X8X8X8X8X8X8X8X8X  $ z x O                   8X8X8X8X8X8X8X8X8X",
"8X8X8X8X8X8X8X8X8X8X  O O                   8X8X8X8X8X8X8X8X8X8X",
"8X8X8X8X8X8X8X8X8X8X8X8X                8X8X8X8X8X8X8X8X8X8X8X8X"
};
