/* XPM */
static char *result[] = {
/* columns rows colors chars-per-pixel */
"65 65 244 2 ",
"   c #000000",
".  c #080509",
"X  c #160804",
"o  c #19191A",
"O  c #100412",
"+  c #230E02",
"@  c #271404",
"#  c #381800",
"$  c #2A0C1A",
"%  c #2C101D",
"&  c #25033C",
"*  c #331429",
"=  c #332F30",
"-  c #1F0C2D",
";  c #491B0C",
":  c #532A03",
">  c #672C01",
",  c #753200",
"<  c #702D0C",
"1  c #76282F",
"2  c #511738",
"3  c #744928",
"4  c #6B4800",
"5  c #240245",
"6  c #33035C",
"7  c #3C006D",
"8  c #3A0B63",
"9  c #3D0172",
"0  c #32007A",
"q  c #520B59",
"w  c #6E1058",
"e  c #75294C",
"r  c #44046A",
"t  c #550668",
"y  c #420273",
"u  c #46027C",
"i  c #4A087C",
"p  c #580E74",
"a  c #650A6A",
"s  c #7B1568",
"d  c #6C1374",
"f  c #553071",
"g  c #74267A",
"h  c #484849",
"j  c #51435A",
"k  c #585958",
"l  c #574C4D",
"z  c #655846",
"x  c #795A4E",
"c  c #585164",
"v  c #624C74",
"b  c #676969",
"n  c #777776",
"m  c #6F6E72",
"M  c #5D6063",
"N  c #8E3B0F",
"B  c #86283A",
"V  c #8F3326",
"C  c #A93F34",
"Z  c #9A4503",
"A  c #904C1E",
"S  c #A84803",
"D  c #B95504",
"F  c #A94615",
"G  c #B65614",
"H  c #B84C0B",
"J  c #B7680A",
"K  c #8C4E29",
"L  c #B44A2C",
"P  c #AE6328",
"I  c #9A6235",
"U  c #C75A04",
"Y  c #D45A0F",
"T  c #C86806",
"R  c #D86900",
"E  c #CB7506",
"W  c #D57700",
"Q  c #C46B14",
"!  c #D07014",
"~  c #E97600",
"^  c #F07901",
"/  c #C34933",
"(  c #CD6C24",
")  c #E67725",
"_  c #971758",
"`  c #93134F",
"'  c #8E2F53",
"]  c #AC2F56",
"[  c #85167A",
"{  c #9C1D63",
"}  c #972A6C",
"|  c #93297E",
" . c #A92667",
".. c #B32C6C",
"X. c #B42D71",
"o. c #B43373",
"O. c #BB3A7B",
"+. c #BA3576",
"@. c #AF3568",
"#. c #A21F5A",
"$. c #C33C7C",
"%. c #8E674B",
"&. c #887B73",
"*. c #A54D62",
"=. c #D05752",
"-. c #C74968",
";. c #C8457D",
":. c #D45272",
">. c #E66B78",
",. c #BF8216",
"<. c #D98504",
"1. c #D38C09",
"2. c #E68800",
"3. c #F28500",
"4. c #ED9800",
"5. c #F59909",
"6. c #EBA304",
"7. c #F8A900",
"8. c #F8B700",
"9. c #F3B20A",
"0. c #F5B229",
"q. c #FEC600",
"w. c #FBD306",
"e. c #F7CF17",
"r. c #F3CA27",
"t. c #B59376",
"y. c #F0B24D",
"u. c #FCC741",
"i. c #FAE151",
"p. c #FEDF7D",
"a. c #FCEA73",
"s. c #3D0080",
"d. c #4A0383",
"f. c #4D038A",
"g. c #450587",
"h. c #51078C",
"j. c #56148B",
"k. c #530493",
"l. c #55039A",
"z. c #5B0C9C",
"x. c #560D97",
"c. c #581597",
"v. c #4C0F8B",
"b. c #691A88",
"n. c #6A1393",
"m. c #68259B",
"M. c #732487",
"N. c #5C08A7",
"B. c #5612A8",
"V. c #6518A7",
"C. c #6818B4",
"Z. c #6812AE",
"A. c #6D27A8",
"S. c #6C23B7",
"D. c #7425BA",
"F. c #752DBC",
"G. c #782AB7",
"H. c #7A34BA",
"J. c #742DAC",
"K. c #797486",
"L. c #725689",
"P. c #7C34C2",
"I. c #762CC7",
"U. c #6718C6",
"Y. c #8F298A",
"T. c #B13A88",
"R. c #843CBA",
"E. c #8F3AAB",
"W. c #C73E86",
"Q. c #BB4F8D",
"!. c #8E45BA",
"~. c #BD6493",
"^. c #CE4A8A",
"/. c #C64684",
"(. c #C8558D",
"). c #D74C91",
"_. c #DB5494",
"`. c #D75695",
"'. c #D54E8B",
"]. c #E25B9B",
"[. c #E65B9A",
"{. c #DB6592",
"}. c #E57094",
"|. c #E859A6",
" X c #EC63A4",
".X c #E968A6",
"XX c #F46CAC",
"oX c #F469A8",
"OX c #E679AB",
"+X c #F479AE",
"@X c #F76DB4",
"#X c #EF79B1",
"$X c #FB73B3",
"%X c #F878B5",
"&X c #DC73A3",
"*X c #843AC4",
"=X c #8C44C7",
"-X c #9249CC",
";X c #7E898B",
":X c #898A89",
">X c #989898",
",X c #929094",
"<X c #AA978D",
"1X c #999DA0",
"2X c #9EA2A6",
"3X c #ACACAC",
"4X c #A3A4A6",
"5X c #B5B5B5",
"6X c #BCBCBC",
"7X c #B3B7BA",
"8X c #AFB3B1",
"9X c #B393A4",
"0X c #F986BA",
"qX c #F394BE",
"wX c #E888B4",
"eX c #E4A3A2",
"rX c #DFC289",
"tX c #EBD7A7",
"yX c #FB9AC5",
"uX c #F996C4",
"iX c #FB94CF",
"pX c #FBA4CB",
"aX c #F8A6CC",
"sX c #FBAAD6",
"dX c #FAB3D5",
"fX c #FFBDE2",
"gX c #BBC3C8",
"hX c #C3C3C3",
"jX c #CCCCCC",
"kX c #C7C8C9",
"lX c #D3D3D3",
"zX c #DBDBDB",
"xX c #D7D8D9",
"cX c #C9CED1",
"vX c #FAC7DF",
"bX c #FBF7CE",
"nX c #FCCCE5",
"mX c #E3E3E3",
"MX c #EBEBEB",
"NX c #E7E8E7",
"BX c #F3F3F3",
"VX c #FBFBFB",
"CX c #ECF0F2",
"ZX c None",
/* pixels */
"ZXZXZXZXZXZXZXZXZXZXZXZXZXZXZXZXZXZXZXZXZXZXZXZXZXZXZXZXZXZXZXZXZXZXZXZXZXZXZXZXZXZXZXZXZXZXZXZXZXZXZXZXZXZXZXZXZXZXZXZXZXZXZXZXZX",
"ZXZXZXZXZXZXZXZXZXZXZXZXZXZXZXZXZXZXZXZXZXZXZXZXZXZXZXZXZXZXZXZXZXZXO.+.O.O.ZXZXZXZXZXZXZXZXZXZXZXZXZXZXZXZXZXZXZXZXZXZXZXZXZXZXZX",
"ZXZXZXZXZXZXZXZXZXZXZXZXZXZXZXZXZXZXZXZXZXZXZXZXZXZXZXZXZXZXZXZXZXZX_.^.O.).^.ZXZXZXZXZXZXZXZXZXZXZXZXZXZXZXZXZXZXZXZXZXZXZXZXZXZX",
"ZXZXZXZXZXZXZXZXZXZXZXZXZXZXZXZXZXZXZXZXZXZXZXZXZXZXZXZXZXZXZXZXZX^._.O. ./.^.ZXZXZXZXZXZXZXZXZXZXZXZXZXZXZXZXZXZXZXZXZXZXZXZXZXZX",
"ZXZXZXZXZXZXZXZXZXZXZXZXZXZXZXZXZXZXZXZXZXZXZXZXZXZXZXZXZXZXZXZX'..XQ.` ZX_ ZXZXZXZXZXZXZXZXZXZXZXZXZXZXZXZXZXZXZXZXZXZXZXZXZXZXZX",
"ZXZXZXZXZXZXZXZXZXZXZXZXZXZXZXZXZXZXZXZXZXZXZXZXZXZXZXZXZXZXZX/.#X0XQ.` ZXZXZXZXZXZXZXZXZXZXZXZXZXZXZXZXZXZXZXZXZXZXZXZXZXZXZXZXZX",
"ZXZXZXZXZXZXZXZXZXZXZXZXZXZXZXZXZXZXZXZXZXZXZXZXZXZXZXZXo.o.O._.0X0X/.` ` _ ZXZXZXZXZXZXZXZXZXZXZXZXZXZXZXZXZXZXZXZXZXZXZXZXZXZXZX",
"ZXZXZXZXZXZXZXZXZXZXZXZXZXZXZXZXZXZXZXZXZXZXZXZXZXZXo./.`..X`.{.uX0XO._ +.@. .ZXZXZXZXZXZXZXZXZXZXZXZXZXZXZXZXZXZXZXZXZXZXZXZXZXZX",
"ZXZXZXZXZXZXZXZXZXZXZXZXZXZXZXZXZXZXZXZXZXZXZXZXZX/.X. .|.0X#XwXwX&X+./.). .{ } ZXZXZXZXZXZXZXZXZXZXZXZXZXZXZXZXZXZXZXZXZXZXZXZXZX",
"ZXZXZXZXZXZXZXZXZXZXZXZXZXZXZXZXZXZXZXZXZXZXZXZXo.'.W.X.].0XuXyX#X^.^.XX].X.X. .` ZXZXZXZXZXZXZXZXZXZXZXZXZXZXZXZXZXZXZXZXZXZXZXZX",
"ZXZXZXZXZXZXZXZXZXZXZXZXZXZXZXZXZXZXZXZXZXZXZXZXo.).XXXXXXXXwXyX@X].[.@X$XXX_...` ZXZXZXZXZXZXZXZXZXZXZXZXZXZXZXZXZXZXZXZXZXZXZXZX",
"ZXZXZXZXZXZXZXZXZXZXZXZXZXZXZXZXZXZXZXZXZXZXZXo.o.).$X0XXX$.(.uXuX X+.+.XX%XoX$.` _ ZXZXZXZXZXZXZXZXZXZXZXZXZXZXZXZXZXZXZXZXZXZXZX",
"ZXZXZXZXZXZXZXZXZXZXZXZXZXZXZXZXZXZXZXZXZXZX/.{.Q.^.0XyXqX].&XyXuX$X).).@X%XXX$.{ $. .ZXZXZXZXZXZXZXZXZXZXZXZXZXZXZXZXZXZXZXZXZXZX",
"ZXZXZXZXZXZXZXZXZXZXZXZXZXZXZXZXZXZXZXZXZXa Q.+X`..XqXpXaXaXaXaXyXuXuX%X$X$XoX^.+.$._ t ZXZXZXZXZXZXZXZXZXZXZXZXZXZXZXZXZXZXZXZXZX",
"ZXZXZXZXZXZXZXZXZXZXZXZXZXZXZXZXZXZXZXZXZXd o.].%X0XpXaXqXwXwXyXpXyX#X].XX@X$X X^..._ a ZXZXZXZXZXZXZXZXZXZXZXZXZXZXZXZXZXZXZXZXZX",
"ZXZXZXZXZXZXZXZXZXZXZXZXZXZXZXZXZXZXZXr x.m. .^.0XyXpXqX].o./.#XyX#X$.o.].oX@X$X).#._ n.f.7 ZXZXZXZXZXZXZXZXZXZXZXZXZXZXZXZXZXZXZX",
"ZXZXZXZXZXZXZXZXZXZXZXZXZXZXZXZX7 y c.N.S.E.O.OXdXyX%X%XoX'.X./.OX/...^.'.'.[.oX X$.{ z.f.u k.9 7 ZXZXZXZXZXZXZXZXZXZXZXZXZXZXZXZX",
"ZXZXZXZXZXZXZXZXZXZXZXZXZXZXZXZXx.A.F.C.P.!.;.+XdXdXaXaXyX{.$.].+X].$.(.+XOX XXX X$.{ Y.S.V.S.A.x.ZXZXZXZXZXZXZXZXZXZXZXZXZXZXZXZX",
"ZXZXZXZXZXZXZXZXZXZXZXZXZXZX7 s.f.B.B.V.P.!.T./.qXvXnXnXdXwX(.).).).`.wXqX0X$XXX'. .[ R.I.B.V.c.k.s.7 ZXZXZXZXZXZXZXZXZXZXZXZXZXZX",
"ZXZXZXZXZXZXZXZXZXZXZXZXZX9 r t p p 6 5 v.P.G.Y.(.qXdXdXsXaXwX(./.(.OXyX0X%X$X_...[ A.F.g 6 6 t p t r 9 ZXZXZXZXZXZXZXZXZXZXZXZXZX",
"ZXZXZXZXZXZXZXZXZXZXZXZXy r s  .O.} % . - b.P.F.[ /.oXXXwXuXpXqXuXqXqX0XXXoX_...[ Z.F.b.1 < * } T. .s r 7 ZXZXZXZXZXZXZXZXZXZXZXZX",
"ZXZXZXZXZXZXZXZXZXZXZXZXy w ..[. X^.} V S L b.S.D.Y. .....].0XyXaXyX0X_... . .[ V.C.b.L U V } /. X]...s r ZXZXZXZXZXZXZXZXZXZXZXZX",
"ZXZXZXZXZXZXZXZXZXZXZXt s ` +. X$X X_.C 2.J * s.z.m.M.t q { ;./.;./.;.{ q a d x.B.s.* J ~ L _.oXXX[.$.` s t ZXZXZXZXZXZXZXZXZXZXZX",
"ZXZXZXZXZXZXZXZXZXZXZXt _ ..`.#X0X XW.L 3.J o 5 & 8 h.j.c.Y.s s [ s s Y.c.h.f.6 & & @ J ^ / W. X0X+X`...` t ZXZXZXZXZXZXZXZXZXZXZX",
"ZXZXZXZXZXZXZXZXZXZXZXa  ..XuXpX0X).] Y U > X   . & j.F.P.D.x.h.v.v.z.D.P.F.v.5 .   X > U Y ] _.0XyXuX.X..w ZXZXZXZXZXZXZXZXZXZXZX",
"ZXZXZXZXZXZXZXZXZXZXa  .).uXaXuXXX;.V H > X   . 5 v.H.*XD.C.N.k.h.k.N.C.D.=XH.v.5 .   X > H V ;.@XuXpXqX).{ a ZXZXZXZXZXZXZXZXZXZX",
"ZXZXZXZXZXZXZXZXZXZXw #.`.uXqXXX)._ ; # X   . 5 v.F.-X=XS.S.N.b.| b.N.C.F.-X-XF.v.5 .   X # ; { ).XXuXuX`...w ZXZXZXZXZXZXZXZXZXZX",
"ZXZXZXZXZXZXZXZXZXZXd ` =.%X$X'.=.V +       . 8 F.H.V.c.c.s.b.~.OX~.b.v.c.c.c.S.C.6 .       X V =.:.@X#X=.` a 7 ZXZXZXZXZXZXZXZXZX",
"ZXZXZXZXZXZXZXZXf.d } / T =.-.L N > ; ; : 4 : r B.M.e e d g T..XwX.XY.a a e e g B.8 : 4 : # ; > N L -.=.! G ' q 9 ZXZXZXZXZXZXZXZX",
"ZXZXZXZXZXZXZXf.x.B Y 5.r.1.J U , + V L Q <.D e q K U F -.|. X].[.[.'.W.] F U V r 1 Y <.Q L N + > U G 1.r.5.Y 1 9 d.ZXZXZXZXZXZXZX",
"ZXZXZXZXZXZXd.l.d.V T r.tXr.4.W > X ' ^.=.! U F V G G G :.@X%XXXoXoXXX X:.L G F V F Y Q =.:.' . < W 6.0.tXr.R 1 g.k.u ZXZXZXZXZXZX",
"ZXZXZXZXZXf.k.u 9 1 W i.bX0.3.R , X $ } +.] -.>.>.>.}.}.qXaXpXuXqX0X%XXXoX>.:.-.=.-.-.@.O.} * X , R 3.0.bXi.<.B l.d.y ZXZXZXZXZXZX",
"ZXZXZXZXu C.J.9 g.B W r.i.9.~ R , X   % q e ).@XiXiXiXsXvXnXdXpXpXqX0X$X$X$X@X|. X|.^.e q %   X , U ^ 9.i.r.W B l.y m.ZXZXZXZXZXZX",
"ZXZXZXu V.G.m.f.N.B E 7.8.q.7.R N = .     o w *.&XiXpXvXnXnXsXiXiXpXiX0X%X%X@X@X(.' w X     . = N R 7.w.8.7.W ' N.h.m.c.ZXZXZXZXZX",
"ZXZXy z.*XJ.i N.N.' R 3.~ 9.q.2.P z = .     . O e O.(.9X9XwXeXeXeX0X}.{.~.Q.O.@.e . .     . = z P 2.8.8.~ ^ T ' U.N.i c.V.ZXZXZXZX",
"ZXZXu A.-Xm.u N.z.B ! ) ( 5.6.7.<.P &.h o o .   X % * * = K ) 0.0.1.Y 1 % * % $ X   . o o h t.I <.6.7.5.( ) ! K G.N.i m.R.x.u ZXZX",
"ZXZXz.*Xm.j.N.n.' Q y.rXp.e.E 2.2.G <X3X:Xm h o . .       , U W 2.T S :       .   o h m :X4X<XG 2.2.<.e.rXeXy.Q ' A.N.j.A.R.l.u ZX",
"ZXk.D.-Xj.d.C.V.F 2.tXbXtXw.1.W J %.>XxXlX5X3Xt.b b h .   > W W T R T >   . = h l b 1X5XlXlX,X%.J W 6.e.tXbXp.2.F R.S.d.j.-XD.u ZX",
"h.C.F.-Xj.g.N.m.' Q y.i.e.w.q.W A n >X6X6X6XxXmXkXhX,Xk l x ,.<.D T J x h k ,X6X8X3X6X5XhXhX>Xn A W q.q.w.i.y.Q ' !.*XV.j.J.H.x.ZX",
"c.F.F.R.j.k.l.u A.' Q 9.8.6.4.T I n 2X7XkXmXmXzX8X3X6XlXNXjXt.P L P t.hXlXlXmXNXjX3X5XlXlX5X2X&.I E 4.4.w.9.Q e V.=X-XD.h.i =XD.f.",
"C.P.!.j.k.N.k.u C.F.' P G G G I &.4XkXhXxXBXMXmX5X3XjXmXBXBXzX5X<X5XzXBXMXlXjXNXMXhX5XmXzXhXjX4X&.I G G G L ' k.g.J.=XG.x.i R.H.x.",
"C.P.=Xi k.l.h.V.U.*X!.Y.g z %.,X7XjXzXNXzXlXxXNXmXmXmXxXlXhXkXkXgXcXzXlX5X3X6XlXmXMXmXMXmXzXMXlX1X&.x x d d z.l.y N.D.*XD.k.j.J.Z.",
"C.H.*Xp l.l.x.F.*X-X*XI.C.j ,X7X6XzXzXBXzX6XkXBXVXVXVXNXjX6X8X3X5X6X5X4X3X6XlXlXxXVXVXVXBXMXNXzX6X1X;XK.F.U.C.N.f.f.V.D.D.N.y A.P.",
"C.*XJ.i f.x.z.S.*X-X*XC.x.j 1X7X6XjXxXCXmXjXmXBXVXBXBXBXMXmXlX3X>X>X4X4X6XxXmXmXNXBXBXVXVXMXxXmXlX7X:XK.!.P.R.D.N.d.h.l.l.k.y R.*X",
"H.H.u r r 9 u z.A.*XD.N.z.j >XjXlXhXlXBXNXmXBXVXBXNXNXBXBXBXMXlX>Xb &.4X3XjXCXVXMXmXBXVXBXMXNXBXzX5X:XL.H.*X-X*XS.N.u 7 r y y R.R.",
"J.R.y ZXZXZXZXu i z.Z.N.c.j >XlXlXhXlXBXNXmXBXVXNXNXBXBXzXNXBXlX>XM n 4X1X3XlXBXNXmXBXNXjXxXBXzX5X:XL.V.D.*XR.N.z.d.ZXZXZXZXy R.A.",
"j.V.y ZXZXZXZXZXZXZXd.f.i j m 5XxXlXxXMXNXmXBXVXzXNXVXMXjXzXBXhXm f v n t.2XkXmXmXzXmXjX6X6X6X>Xm v V.N.Z.C.z.u u ZXZXZXZXZXy V.z.",
"ZXd.y ZXZXZXZXZXZXZXZXZXZXZXl :XkXzXxXBXmXzXBXVXzXmXBXmX6XlXNX8Xc h.z.f M ;X7XkXlXlX3X>X1X,Xb k f l.N.f.h.h.ZXZXZXZXZXZXZXZXZXd.ZX",
"ZXr ZXZXZXZXZXZXZXZXZXZXZXZXZXM ,XkXlXMXlXhXMXVXcXxXNXjX3X6XhX,Xc v.N.f k b ;X,X4X2Xm M b k h h j.l.ZXZXZXZXZXZXZXZXZXZXZXZXZXZXZX",
"ZXZXZXZXZXZXZXZXZXZXZXZXZXZXZXZXb.,X8XcX6X3XxXCXlXjXlX6X4X3X:XM ZXZX9 ZXZXj l 3 z z z z l z ZXZXZX9 ZXZXZXZXZXZXZXZXZXZXZXZXZXZXZX",
"ZXZXZXZXZXZXZXZXZXZXZXZXZXZXZXZXZXf c 2X5X1X3XcX7X8X7X4X:Xn b ZXZXZXZXZXZXq V D E 6.1.E F Z ZXZXZXZXZXZXZXZXZXZXZXZXZXZXZXZXZXZXZX",
"ZXZXZXZXZXZXZXZXZXZXZXZXZXZXZXZXZXZXZXb m b b m b m m b ZXZXZXZXZXZXZXZXZXZXN Y 2.q.3.U D ZXZXZXZXZXZXZXZXZXZXZXZXZXZXZXZXZXZXZXZX",
"ZXZXZXZXZXZXZXZXZXZXZXZXZXZXZXZXZXZXZX3 3 K K A K A 3 o . ZXZXZXZXZXZXZXZX. : Z E <.U S ZXZXZXZXZXZXZXZXZXZXZXZXZXZXZXZXZXZXZXZXZX",
"ZXZXZXZXZXZXZXZXZXZXZXZXZXZXZXZXZXZXZXS D R ~ 2.~ ^ Z +                       # , < , ZXZXZXZXZXZXZXZXZXZXZXZXZXZXZXZXZXZXZXZXZXZX",
"ZXZXZXZXZXZXZXZXZXZXZXZXZXZXZXZXZXZXZXZ D R 6.8.8.3.Z +                               ZXZXZXZXZXZXZXZXZXZXZXZXZXZXZXZXZXZXZXZXZXZX",
"ZXZXZXZXZXZXZXZXZXZXZXZXZXZXZXZXZXZXZXS D R R W R ~ Z +                                     ZXZXZXZXZXZXZXZXZXZXZXZXZXZXZXZXZXZXZX",
"ZXZXZXZXZXZXZXZXZXZXZXZXZXZXZXZXZXZXZXZ D R 2.6.4.3.Z +                                       ZXZXZXZXZXZXZXZXZXZXZXZXZXZXZXZXZXZX",
"ZXZXZXZXZXZXZXZXZXZXZXZXZXZXZXZXZXZXZX# N U 4.w.q.7.S +                                       ZXZXZXZXZXZXZXZXZXZXZXZXZXZXZXZXZXZX",
"ZXZXZXZXZXZXZXZXZXZXZXZXZXZXZXZXZXZX    # N U 4.7.W , X                                         ZXZXZXZXZXZXZXZXZXZXZXZXZXZXZXZXZX",
"ZXZXZXZXZXZXZXZXZXZXZXZXZXZXZXZXZXZX      @ N D U > .                                           ZXZXZXZXZXZXZXZXZXZXZXZXZXZXZXZXZX",
"ZXZXZXZXZXZXZXZXZXZXZXZXZXZXZXZXZXZXZX    . X X + X                                           ZXZXZXZXZXZXZXZXZXZXZXZXZXZXZXZXZXZX",
"ZXZXZXZXZXZXZXZXZXZXZXZXZXZXZXZXZXZXZXZX                                                    ZXZXZXZXZXZXZXZXZXZXZXZXZXZXZXZXZXZXZX",
"ZXZXZXZXZXZXZXZXZXZXZXZXZXZXZXZXZXZXZXZXZXZX                                            ZXZXZXZXZXZXZXZXZXZXZXZXZXZXZXZXZXZXZXZXZX",
"ZXZXZXZXZXZXZXZXZXZXZXZXZXZXZXZXZXZXZXZXZXZXZX                                        ZXZXZXZXZXZXZXZXZXZXZXZXZXZXZXZXZXZXZXZXZXZX",
"ZXZXZXZXZXZXZXZXZXZXZXZXZXZXZXZXZXZXZXZXZXZXZXZXZXZXZX                        ZXZXZXZXZXZXZXZXZXZXZXZXZXZXZXZXZXZXZXZXZXZXZXZXZXZX"
};
