/* XPM */
static char *result[] = {
/* columns rows colors chars-per-pixel */
"32 32 196 2 ",
"   c #000000",
".  c #0E0700",
"X  c #070E0A",
"o  c #1E0B00",
"O  c #1F0700",
"+  c #0C0415",
"@  c #140013",
"#  c #240F00",
"$  c #2E0B00",
"%  c #291200",
"&  c #381701",
"*  c #230710",
"=  c #1B002A",
"-  c #1D003F",
";  c #3A0F24",
":  c #3E3833",
">  c #4C171C",
",  c #622800",
"<  c #753100",
"1  c #7D3600",
"2  c #531034",
"3  c #442131",
"4  c #71312E",
"5  c #725338",
"6  c #260043",
"7  c #350A57",
"8  c #3E036D",
"9  c #5E1E46",
"0  c #671A59",
"q  c #420075",
"w  c #46007C",
"e  c #48087E",
"r  c #500C6A",
"t  c #7A1567",
"y  c #512474",
"u  c #5B5C59",
"i  c #4C4155",
"p  c #62635F",
"a  c #6F655E",
"s  c #767676",
"d  c #787776",
"f  c #6A6D70",
"g  c #853A00",
"h  c #99351A",
"j  c #9A4201",
"k  c #9F4906",
"l  c #A94800",
"z  c #B44C00",
"x  c #A65400",
"c  c #BD5300",
"v  c #B25615",
"b  c #9C5B37",
"n  c #BC4337",
"m  c #B47133",
"M  c #C45B00",
"N  c #C65500",
"B  c #C66600",
"V  c #D76500",
"C  c #C57C00",
"Z  c #DF7200",
"A  c #D16018",
"S  c #D47E16",
"D  c #E26A00",
"F  c #E37800",
"G  c #C14A34",
"H  c #D56120",
"J  c #C67A36",
"K  c #9B1B5B",
"L  c #8F1656",
"P  c #A01F5F",
"I  c #862E51",
"U  c #A9295F",
"Y  c #861F6B",
"T  c #88237A",
"R  c #AE2D6E",
"E  c #B42D6A",
"W  c #BF3563",
"Q  c #B43474",
"!  c #BD3A7A",
"~  c #B93776",
"^  c #B52F73",
"/  c #C73E66",
"(  c #A6425C",
")  c #A77A5B",
"_  c #D76C43",
"`  c #DE8900",
"'  c #EA8800",
"]  c #E09200",
"[  c #F99200",
"{  c #F9A601",
"}  c #FFD200",
"|  c #FACC0B",
" . c #460383",
".. c #490382",
"X. c #4D0B87",
"o. c #4D048A",
"O. c #4D0A88",
"+. c #43068C",
"@. c #520B8D",
"#. c #570988",
"$. c #4F1183",
"%. c #561585",
"&. c #550C93",
"*. c #5B1694",
"=. c #5E179C",
"-. c #4E049A",
";. c #66168C",
":. c #7A1B88",
">. c #600E9F",
",. c #5D2A87",
"<. c #5D13A2",
"1. c #5E10AA",
"2. c #5608A3",
"3. c #631CA3",
"4. c #6414AB",
"5. c #651AAB",
"6. c #691DAB",
"7. c #6A1DB0",
"8. c #651CB9",
"9. c #701FBA",
"0. c #6A0EAB",
"q. c #6722A7",
"w. c #6A21B4",
"e. c #762FB6",
"r. c #722ABB",
"t. c #772BB9",
"y. c #7932BB",
"u. c #7B36B8",
"i. c #772EC0",
"p. c #762DCA",
"a. c #7E33C3",
"s. c #7731C1",
"d. c #9A2BA1",
"f. c #BE4780",
"g. c #B54992",
"h. c #C34384",
"j. c #CA4686",
"k. c #C64A86",
"l. c #D34C8C",
"z. c #D0528F",
"x. c #CC4D90",
"c. c #D65192",
"v. c #DB5393",
"b. c #DF5B9C",
"n. c #D75D98",
"m. c #CA5793",
"M. c #E25695",
"N. c #E25896",
"B. c #DA639D",
"V. c #E4619E",
"C. c #C14FAE",
"Z. c #EA5FA1",
"A. c #E967A6",
"S. c #E977AC",
"D. c #EF67B2",
"F. c #FD7CB7",
"G. c #FA77B0",
"H. c #F473AE",
"J. c #883EC6",
"K. c #863DCA",
"L. c #893FC8",
"P. c #863FC6",
"I. c #8A43C6",
"U. c #8B43C9",
"Y. c #944CCC",
"T. c #848981",
"R. c #90908F",
"E. c #969697",
"W. c #A59F9C",
"Q. c #9EA5AA",
"!. c #A9A9A9",
"~. c #B3B3B3",
"^. c #BABBBD",
"/. c #F98EBE",
"(. c #F784B7",
"). c #FF90B8",
"_. c #C1BCBB",
"`. c #FFF590",
"'. c #FB98C7",
"]. c #FBA4CB",
"[. c #FFA2D3",
"{. c #F5B5D5",
"}. c #BAC1C6",
"|. c #C6C6C6",
" X c #C6C8CA",
".X c #D0D1CF",
"XX c #DCDCDC",
"oX c #D6D7D8",
"OX c #CBCDD3",
"+X c #E2E2E2",
"@X c #EAECED",
"#X c #EEF1F4",
"$X c #F5F7F9",
"%X c #F6F7F7",
"&X c #EBEBF0",
"*X c None",
/* pixels */
"*X*X*X*X*X*X*X*X*X*X*X*X*X! z.l.R ! h.*X*X*X*X*X*X*X*X*X*X*X*X*X",
"*X*X*X*X*X*X*X*X*X*X*X~ h.S.(.Q *XP ! *X*X*X*X*X*X*X*X*X*X*X*X*X",
"*X*X*X*X*X*X*X*X*X*X! B./.].k.R *X*X*X*X*X*X*X*X*X*X*X*X*X*X*X*X",
"*X*X*X*X*X*X*X*X*X*Xn./.'.V.M.! ! K *X*X*X*X*X*X*X*X*X*X*X*X*X*X",
"*X*X*X*X*X*X*X*X*Xk./.S.'.(.F.A.c.Q *X*X*X*X*X*X*X*X*X*X*X*X*X*X",
"*X*X*X*X*X*X*X*X*Xm.'./.F.A.l.x.v.l.P *X*X*X*X*X*X*X*X*X*X*X*X*X",
"*X*X*X*X*X*X*X*X*Xk.f.l.V.v.n.Q j.M.R *X*X*X*X*X*X*X*X*X*X*X*X*X",
"*X*X*X*X*X*X*X*X*Xj.v.G.A.V.v.! j.N.E *X*X*X*X*X*X*X*X*X*X*X*X*X",
"*X*X*X*X*X*X*X*X! l.B.{.].H.b.c.M.h.t =.*X*X*X*X*X*X*X*X*X*X*X*X",
"*X*X*X*X*X*X*X*X*X! (.].).G.D.c.T #.-.@.w *X*X*X*X*X*X*X*X*X*X*X",
"*X*X*X*X*X*X*X*X*X#.! B.C.d.7.6...<.P.e.7.e *X*X*X*X*X*X*X*X*X*X",
"*X*X*X*X*X*X*X*X#...;.0.8.3.;.t.u.*.q.Y.U.4.*X*X*X*X*X*X*X*X*X*X",
"*X*X*X*X*X*X+.q &.e 5.+.9 Y l.L *.U.=.3.Y.J.e *X*X*X*X*X*X*X*X*X",
"*X*X*X*X*Xo.+.<.4.0 > + < / '.! L ;.s.*.q.U.>.*X*X*X*X*X*X*X*X*X",
"*X*X*X*X*X*X*Xp.p.0 V C M E '.x.W h 2.i.&.3.r.*X*X*X*X*X*X*X*X*X",
"*X*X*X*X*X*X3.d.%.g._ S A L k.V.U n ;.w.w.o.7.@.*X*X*X*X*X*X*X*X",
"*X*X*X*X*X*X .d.N.[.'.m.U N n D.Q I r w.r.&.3.w.*X*X*X*X*X*X*X*X",
"*X*X*X*X*X*Xb A 4 3 ; * j { ' n 2   + &.i.5.4.r.@.*X*X*X*X*X*X*X",
"*X*X*X*X*X*XV V %   X j B ] [ V 5 f p $.L.r.1.r.5.*X*X*X*X*X*X*X",
"*X*X*X*X*X*Xk m !.!.^.J `.| D v d s f e L.P.&.r.y.o.*X*X*X*X*X*X",
"*X*X*X*X*X*Xd }.#X%X@Xm { { M ) Q.d E.$.I.I.&.5.a.q.*X*X*X*X*X*X",
"*X*X*X*X*X*Xd XX+X+X@XOXm v ) }.!.R.E.%.I.I.4.&.U.3.*X*X*X*X*X*X",
"*X*X*X*X*X*X*XE.~.+XXX$X#X@X@XoX^.!.p e K.Y.e.X.U.y...*X*X*X*X*X",
"*X*X*X*X*X*X*Xd s |.|.+XXX%XXX#X.XT.y O.P.Y.e.O.U.U.@.*X*X*X*X*X",
"*X*X*X*X*X*X*X*X*Xd R.^. X+X~.~.T.,.o.5.I.Y.e.O.L.U.X.*X*X*X*X*X",
"*X*X*X*X*X*X*X*X*X*X: a a p u i 7 2...e.Y.Y.e.O.U.U.O.*X*X*X*X*X",
"*X*X*X*X*X*X*X*X*X  , N l         q e t.Y.Y.y.X.K.4.*X*X*X*X*X*X",
"*X*X*X*X*X*X*X    . < D c k x x g = <.I.Y.I.4.q w *X*X*X*X*X*X*X",
"*X*X*X*X*X*X    & l M M z Z } { c @ 6.Y.I.4.q *X*X*X*X*X*X*X*X*X",
"*X*X*X*X*X*X*X  # % o % g F ' M g r 0.>.q *X*X*X*X*X*X*X*X*X*X*X",
"*X*X*X*X*X*X*X*X    # l c ` ` N & - 6 = *X*X*X*X*X*X*X*X*X*X*X*X",
"*X*X*X*X*X*X*X*X*X*X*X& # O # # .   *X*X*X*X*X*X*X*X*X*X*X*X*X*X"
};
