/* XPM */
static char *result[] = {
/* columns rows colors chars-per-pixel */
"65 65 251 2 ",
"   c #020100",
".  c #09050A",
"X  c #160907",
"o  c #080114",
"O  c #151217",
"+  c #271305",
"@  c #381800",
"#  c #2D110B",
"$  c #160027",
"%  c #190035",
"&  c #250E2B",
"*  c #2F2D2C",
"=  c #4D1E01",
"-  c #4D2200",
";  c #592602",
":  c #642B00",
">  c #632700",
",  c #793501",
"<  c #733008",
"1  c #501031",
"2  c #693122",
"3  c #56213E",
"4  c #1E0049",
"5  c #310451",
"6  c #3E006C",
"7  c #360167",
"8  c #390071",
"9  c #3E284E",
"0  c #6B114A",
"q  c #493750",
"w  c #6C224B",
"e  c #45076E",
"r  c #570C6C",
"t  c #410173",
"y  c #46047A",
"u  c #490979",
"i  c #5A0A78",
"p  c #4D137A",
"a  c #581276",
"s  c #6C1574",
"d  c #4F2373",
"f  c #5E165D",
"g  c #484948",
"h  c #57504F",
"j  c #594A65",
"k  c #645A6B",
"l  c #686968",
"z  c #757575",
"x  c #787878",
"c  c #6F736E",
"v  c #775A46",
"b  c #654934",
"n  c #873902",
"m  c #9D3817",
"M  c #983C03",
"N  c #AD2E3A",
"B  c #9E3228",
"V  c #994505",
"C  c #95460B",
"Z  c #A84902",
"A  c #B34C00",
"S  c #B94B06",
"D  c #BB5200",
"F  c #B85605",
"G  c #B14E19",
"H  c #945829",
"J  c #B1512A",
"K  c #B6652C",
"L  c #B87216",
"P  c #C25401",
"I  c #C95900",
"U  c #C95011",
"Y  c #CD6201",
"T  c #D56300",
"R  c #D96A01",
"E  c #D87700",
"W  c #CF7701",
"Q  c #E46900",
"!  c #E77B00",
"~  c #F77F05",
"^  c #C55731",
"/  c #D07D3C",
"(  c #881759",
")  c #9C1C5C",
"_  c #951455",
"`  c #92154D",
"'  c #8E2B4B",
"]  c #AA2A53",
"[  c #8A186C",
"{  c #8F2A70",
"}  c #A82766",
"|  c #AD2B73",
" . c #AB3279",
".. c #B53575",
"X. c #BC3B7B",
"o. c #BA3678",
"O. c #B2306F",
"+. c #A21E5A",
"@. c #C13D7D",
"#. c #C0337A",
"$. c #B74352",
"%. c #9B4C6F",
"&. c #B34570",
"*. c #A47A61",
"=. c #8C6855",
"-. c #C84F54",
";. c #D04B74",
":. c #D9706F",
">. c #7F807F",
",. c #D68E00",
"<. c #E68400",
"1. c #E89800",
"2. c #F99700",
"3. c #F88400",
"4. c #F6A600",
"5. c #F9B801",
"6. c #ECA306",
"7. c #CF9825",
"8. c #FBD30C",
"9. c #FBCF2C",
"0. c #AA876E",
"q. c #998475",
"w. c #E0BC72",
"e. c #FDE844",
"r. c #F2C769",
"t. c #4A0383",
"y. c #4C0A83",
"u. c #4E048A",
"i. c #480788",
"p. c #520D8C",
"a. c #51058D",
"s. c #54128B",
"d. c #530493",
"f. c #550B92",
"g. c #590B9C",
"h. c #58069B",
"j. c #551192",
"k. c #5B149C",
"l. c #5D1A9D",
"z. c #581497",
"x. c #480393",
"c. c #68179D",
"v. c #621589",
"b. c #582483",
"n. c #5E08A5",
"m. c #5D15A2",
"M. c #4D12A0",
"N. c #630CAC",
"B. c #621CA3",
"V. c #6412AC",
"C. c #641CAB",
"Z. c #6619AA",
"A. c #6B1CB4",
"S. c #6716B2",
"D. c #7013AD",
"F. c #6923AD",
"G. c #6A25AD",
"H. c #6D24B5",
"J. c #6D26B6",
"K. c #7225BB",
"L. c #732BBB",
"P. c #762CB9",
"I. c #7A32BE",
"U. c #7735B4",
"Y. c #732DAF",
"T. c #5F219C",
"R. c #7D6E87",
"E. c #772AC0",
"W. c #7C34C1",
"Q. c #7935C1",
"!. c #94248A",
"~. c #9128A6",
"^. c #A13197",
"/. c #C13F82",
"(. c #A55F8B",
"). c #C44382",
"_. c #C94485",
"`. c #CE4A8A",
"'. c #CC438E",
"]. c #D44D8D",
"[. c #D74A8D",
"{. c #D5528C",
"}. c #D64F93",
"|. c #DB5393",
" X c #D75797",
".X c #CB5293",
"XX c #E35B9C",
"oX c #E65798",
"OX c #E3558F",
"+X c #D46294",
"@X c #E3639E",
"#X c #EB6A9B",
"$X c #D85AA9",
"%X c #E967A4",
"&X c #F46DAA",
"*X c #E975AA",
"=X c #F473AD",
"-X c #FC7CB4",
";X c #F679B4",
":X c #EF76B2",
">X c #DF61A7",
",X c #843BC5",
"<X c #8439C7",
"1X c #802DC2",
"2X c #8A43C6",
"3X c #8C44C9",
"4X c #8943C5",
"5X c #924AC9",
"6X c #9048C7",
"7X c #7E8286",
"8X c #838483",
"9X c #8B8B8B",
"0X c #848988",
"qX c #979796",
"wX c #91938F",
"eX c #ACACAC",
"rX c #A4A5A3",
"tX c #B4B4B4",
"yX c #BABABA",
"uX c #B1ABA7",
"iX c #9FA4A6",
"pX c #E888B6",
"aX c #F886B8",
"sX c #F892BE",
"dX c #E888A6",
"fX c #CAB8B1",
"gX c #DBA0AB",
"hX c #E7D89D",
"jX c #BABFC2",
"kX c #FA93C2",
"lX c #FA9AC6",
"zX c #F38EC2",
"xX c #F9A5CB",
"cX c #FEACD4",
"vX c #FAB6D7",
"bX c #BFC7CC",
"nX c #C2C3C3",
"mX c #CDCDCD",
"MX c #D4D4D4",
"NX c #DBDBDB",
"BX c #D7DADC",
"VX c #D5D0CD",
"CX c #F3F1D2",
"ZX c #E3E3E3",
"AX c #ECECED",
"SX c #EDF2F4",
"DX c #F3F3F3",
"FX c #FBFCFC",
"GX c #F4FAFC",
"HX c #DCD5D1",
"JX c None",
/* pixels */
"JXJXJXJXJXJXJXJXJXJXJXJXJXJXJXJXJXJXJXJXJXJXJXJXJXJXJXJXJXJXJXJXJXJXJXJXJXJXJXJXJXJXJXJXJXJXJXJXJXJXJXJXJXJXJXJXJXJXJXJXJXJXJXJXJX",
"JXJXJXJXJXJXJXJXJXJXJXJXJXJXJXJXJXJXJXJXJXJXJXJXJXJXJXJXo.X.X.X.X...o.X.X.X.JXJXJXJXJXJXJXJXJXJXJXJXJXJXJXJXJXJXJXJXJXJXJXJXJXJXJX",
"JXJXJXJXJXJXJXJXJXJXJXJXJXJXJXJXJXJXJXJXJXJXJXJXJXJX....].@X%X@X_.| +.} |. X..JXJXJXJXJXJXJXJXJXJXJXJXJXJXJXJXJXJXJXJXJXJXJXJXJXJX",
"JXJXJXJXJXJXJXJXJXJXJXJXJXJXJXJXJXJXJXJXJXJXJXJXJXX.@.].:XkXaX|.o.+.( +.).`.X.JXJXJXJXJXJXJXJXJXJXJXJXJXJXJXJXJXJXJXJXJXJXJXJXJXJX",
"JXJXJXJXJXJXJXJXJXJXJXJXJXJXJXJXJXJXJXJXJXJXJXX.@.`.XX;XlXaX|.} JXJXJXJX) ) JXJXJXJXJXJXJXJXJXJXJXJXJXJXJXJXJXJXJXJXJXJXJXJXJXJXJX",
"JXJXJXJXJXJXJXJXJXJXJXJXJXJXJXJXJXJXJXJXJXJXX.].%X=XsXlXsX.X} } } JXJXJXJXJXJXJXJXJXJXJXJXJXJXJXJXJXJXJXJXJXJXJXJXJXJXJXJXJXJXJXJX",
"JXJXJXJXJXJXJXJXJXJXJXJXJXJXJXJXJXJXJXJXJXX.].&XaXkXlXlXaX`..._...) JXJXJXJXJXJXJXJXJXJXJXJXJXJXJXJXJXJXJXJXJXJXJXJXJXJXJXJXJXJXJX",
"JXJXJXJXJXJXJXJXJXJXJXJXJXJXJXJXJXJXJXJX.._.%XkXxXcXpX%X&XXX@.o.)...} JXJXJXJXJXJXJXJXJXJXJXJXJXJXJXJXJXJXJXJXJXJXJXJXJXJXJXJXJXJX",
"JXJXJXJXJXJXJXJXJXJXJXJXJXJXJXJXJXJXJXJX/. X*XpXxXcX*X`.XX&X`.| /.]...+.JXJXJXJXJXJXJXJXJXJXJXJXJXJXJXJXJXJXJXJXJXJXJXJXJXJXJXJXJX",
"JXJXJXJXJXJXJXJXJXJXJXJXJXJXJXJXJXJXJX/.XX-X%X.XpXxXkXaX-X-X&X%XoX].`...) JXJXJXJXJXJXJXJXJXJXJXJXJXJXJXJXJXJXJXJXJXJXJXJXJXJXJXJX",
"JXJXJXJXJXJXJXJXJXJXJXJXJXJXJXJXJXJXJX&.%XlXlX*XpXsXkXaXaX-X-X;XXX[.|._.} ` JXJXJXJXJXJXJXJXJXJXJXJXJXJXJXJXJXJXJXJXJXJXJXJXJXJXJX",
"JXJXJXJXJXJXJXJXJXJXJXJXJXJXJXJXJXJXJX).*XcXvXxXsXaXaX-X>X|. X X|.[.|.].O.) JXJXJXJXJXJXJXJXJXJXJXJXJXJXJXJXJXJXJXJXJXJXJXJXJXJXJX",
"JXJXJXJXJXJXJXJXJXJXJXJXJXJXJXJXJXJXJX).pXsX*X;XaX-X=X%X`.).)./.`.|.|.}._.} _ JXJXJXJXJXJXJXJXJXJXJXJXJXJXJXJXJXJXJXJXJXJXJXJXJXJX",
"JXJXJXJXJXJXJXJXJXJXJXJXJXJXJXJXJXJXJX).pX+XO.[.&X;XXX'. X;X#X&..._.}.|.].o.) JXJXJXJXJXJXJXJXJXJXJXJXJXJXJXJXJXJXJXJXJXJXJXJXJXJX",
"JXJXJXJXJXJXJXJXJXJXJXJXJXJXJXJXJXJXJX..&.&.#.`.OXXX}.].=X X| | ../.}.|.|.o._ JXJXJXJXJXJXJXJXJXJXJXJXJXJXJXJXJXJXJXJXJXJXJXJXJXJX",
"JXJXJXJXJXJXJXJXJXJXJXJXJXJXJXJXJXJX/.X.| '.%X%XXXXX|.oX=X Xo.@.X.;.}.|.|.#.( JXJXJXJXJXJXJXJXJXJXJXJXJXJXJXJXJXJXJXJXJXJXJXJXJXJX",
"JXJXJXJXJXJXJXJXJXJXJXJXJXJXJXJXJX..@.{.|.oX&XsXsXaX=XXX%X%XXX`.@._.|.|.[.#.( u JXJXJXJXJXJXJXJXJXJXJXJXJXJXJXJXJXJXJXJXJXJXJXJXJX",
"JXJXJXJXJXJXJXJXJXJXJXJXJXJXJXJXJX..@.|.&X}.+XxXvXcXkX&XoX[.).@.`.{.|.|.;.} [ h.i.JXJXJXJXJXJXJXJXJXJXJXJXJXJXJXJXJXJXJXJXJXJXJXJX",
"JXJXJXJXJXJXJXJXJXJXJXJXJXJXJXJXJX..X.@.)..XpXvXvXxXsX-X%XXXXXoX|.OXoX).[ r s A.V.JXJXJXJXJXJXJXJXJXJXJXJXJXJXJXJXJXJXJXJXJXJXJXJX",
"JXJXJXJXJXJXJXJXJXJXJXJXJXJXJXJXJXJXX.@.`.*XxXvXlXsXaXaX-X-X-X&X|./.{ [ u t.i.j.a.y 6 JXJXJXJXJXJXJXJXJXJXJXJXJXJXJXJXJXJXJXJXJXJX",
"JXJXJXJXJXJXJXJXJXJXJXJXJXJXJXJXJXJXJX . X=XaXsXkXaXaX&X>X$X$X'. .s i y.n.n.n.y.u y JXJXJXJXJXJXJXJXJXJXJXJXJXJXJXJXJXJXJXJXJXJXJX",
"JXJXJXJXJXJXJXJXJXJXJXJXJXJXJXJXJXJXJXi ^.`.@XaXaXzX&X}.~.D.D.c.y.u.n.C.H.L.J.F.F.Z.d.JXJXJXJXJXJXJXJXJXJXJXJXJXJXJXJXJXJXJXJXJXJX",
"JXJXJXJXJXJXJXJXJXJXJXJXJXJXJXJXJXJXJXd.s { ;.[.^.~.~.~.A.E.1XI.F.i.y p.H.W.4X3X,XI.S.d.JXJXJXJXJXJXJXJXJXJXJXJXJXJXJXJXJXJXJXJXJX",
"JXJXJXJXJXJXJXJXJXJXJXJXJXJXJXJXJXJXa.d.8 r !.!.D.S.K.K.m.l.G.I.<XY.T.y.p.Y.3X5X5X4XE.Z.t.JXJXJXJXJXJXJXJXJXJXJXJXJXJXJXJXJXJXJXJX",
"JXJXJXJXJXJXJXJXJXJXJXJXJXJXJXJXJXf.g.y u z.S.N.Z.H.I.U.z.r v.c.Y.4X3XY.f.p.Y.4X5X5X3XP.j.JXJXJXJXJXJXJXJXJXJXJXJXJXJXJXJXJXJXJXJX",
"JXJXJXJXJXJXJXJXJXJXJXJXJXt t t 6 l.c.y z.U.E.N.t.p p a [ /.o.[ r l.<X,XP.s.p.H.3X5X5X4XA.i.JXJXJXJXJXJXJXJXJXJXJXJXJXJXJXJXJXJXJX",
"JXJXJXJXJXJXJXJXJXJXJXJXu.h.u.t u.f.y.t y.z.m.i.4 2 B ( /.oX[._ 0 r g.1X3XY.j.p.Y.3X5X5XP.f.6 JXJXJXJXJXJXJXJXJXJXJXJXJXJXJXJXJXJX",
"JXJXJXJXJXJXJXJXJXJXJXu.a.d.f.p.n.g.i.e 0 5 4 % o < U ] .XaX%X..+.[ r M.Q.<XF.p.j.G.3X5XI.m.JXJXJXJXJXJXJXJXJXJXJXJXJXJXJXJXJXJXJX",
"JXJXJXJXJXJXJXJXJXt y h.t.6 y.F.n.A.C.p m < + X X : m ]  XxXpX_.#.} _ f c.L.L.G.p.p.Y.4XW.A.g.t JXJXJXJXJXJXJXJXJXJXJXJXJXJXJXJXJX",
"JXJXJXJXJXJXJXJXJXt t y JXJXs.J.S.1XL.r G P V V V V m +. XcXpX .#.#.] G w M.L.E.F.f.p.J.E.K.B.y JXJXJXJXJXJXJXJXJXJXJXJXJXJXJXJXJX",
"JXJXJXJXJXJXJXJXJXJXJXJXJXp.G.,X<X<XH.u C Q ! 6.1.<.U +.'.zXzX.X[.o.] A w x.S.L.L.Z.u.p.G.E.F.y JXJXJXJXJXJXJXJXJXJXJXJXJXJXJXJXJX",
"JXJXJXJXJXJXJXJXJXJXJXJXJXj.W.5XU.T.j.s $.U R ,.,.E U ) /..X*X%X[.| B M ' j.g.J.L.K.g.t k.L.F.u.JXJXJXJXJXJXJXJXJXJXJXJXJXJXJXJXJX",
"JXJXJXJXJXJXJXJXJXJXJXJXJXk.Q.~.v.e v. X;X:.K K ^ ^ J ] ' ] .XXX].| N J ;.!.i.H.L.L.F.t.u.C.K.V.y JXJXJXJXJXJXJXJXJXJXJXJXJXJXJXJX",
"JXJXJXJXJXJXJXJXJXJXJXJXJXm.m.p.{ ..@XkXvXlXdX*XOX`.-.B m ] |.:X&X#.+.;.[.{ i.F.K.L.H.g.t.j.L.H.p.JXJXJXJXJXJXJXJXJXJXJXJXJXJXJXJX",
"JXJXJXJXJXJXJXJXJXJXJXJXJXi.v.[ ).oX-XlXlXzX;X X{ ' ^ T Q U -.%X@X..( 3 3 5 t.V.K.L.L.Z.t.p.L.L.m.JXJXJXJXJXJXJXJXJXJXJXJXJXJXJXJX",
"JXJXJXJXJXJXJXJXJXJXJXJXJXq =.-.-.&.%.%.%.{ ( 3 . - W 2.2.Q U $.| ( 1     o 5 u.A.L.K.H.j.z.L.L.A.a.6 JXJXJXJXJXJXJXJXJXJXJXJXJXJX",
"JXJXJXJXJXJXJXJXJXJXJXJXJX7.1.Y D ; O X . X . X + , E 5.5.2.! U B 1 O O O O & 6 Z.E.L.H.N.N.H.L.L.l.JXJXJXJXJXJXJXJXJXJXJXJXJXJXJX",
"JXJXJXJXJXJXJXJXJXJXJXJXJX~ ! F A = .       + < C V F W 6.4.2.Q S b g k h h h d B.<X4XL.V.N.Z.J.L.A.d.t JXJXJXJXJXJXJXJXJXJXJXJXJX",
"JXJXJXJXJXJXJXJXJXJXJXJXJXI Y W I =       * b F D ,.1.1.! ! 3.Q D H z 7Xz c j p m.,X6XL.A.N.N.H.J.K.B.t JXJXJXJXJXJXJXJXJXJXJXJXJX",
"JXJXJXJXJXJXJXJXJXJXJXJXJXM F <.K v h h h 0XwXJ / r.e.8.1.Q Q S H v c c >.c q 8 B.,X4XW.L.Z.g.H.W.I.F.u.JXJXJXJXJXJXJXJXJXJXJXJXJX",
"JXJXJXJXJXJXJXJXJXJXJXJXJXG H J 0.bXBXBXMXSXfXL w.CXhX9.5.3.I Z =.7Xz k 8X8Xg e m.<X5X5XI.j.y J.3X~.H.V.t.JXJXJXJXJXJXJXJXJXJXJXJX",
"JXJXJXJXJXJXJXJXJXJXJXJXJXJX=.wXjXSXFXFXFXFXgXK 7.e.8.8.4.<.D G q.iX>.l 0XqXk y m.<X5X5XI.j.u H.Q.P.K.H.y.JXJXJXJXJXJXJXJXJXJXJXJX",
"JXJXJXJXJXJXJXJXJXJXJXJXJXJXwXbXAXDXZXBXSXSXfX0.L ! 2.4.,.F G 0.uXtX9Xc 9XrXR.p m.,X5X5XQ.m.d.V.J.Q.,XJ.s.JXJXJXJXJXJXJXJXJXJXJXJX",
"JXJXJXJXJXJXJXJXJXJXJXJXJXJXwXBXGXZXmXVXAXAXBXyX*.S R R A C *.tXjXtXiX7XwXeX9Xy.m.<X5X5XP.S.n.d.A.Q.3XL.y.JXJXJXJXJXJXJXJXJXJXJXJX",
"JXJXJXJXJXJXJXJXJXJXJXJXJXc wXmXDXNXVXAXFXZXZXAXnX0.K K K 0.yXmXtXeXeX9XwXrXR.p M.<X5X6XI.A.g.y m.Q.3XL.p.JXJXJXJXJXJXJXJXJXJXJXJX",
"JXJXJXJXJXJXJXJXJXJXJXJXJXJX8XuXMXmXnXNXGXNXMXDXDXZXVXfXVXMXBXMXtXeXtXrXiXq.g d B.<X5X5X3XW.c.y l.4X3XL.V.u.JXJXJXJXJXJXJXJXJXJXJX",
"JXJXJXJXJXJXJXJXJXJXJXJXJXJXx 0XeXiXrXMXDXNXVXSXFXFXSXFXFXAXZXZXmXjXyXrX9Xl q 6 V.,X6X5X5X4XB.y m.,X5X4XL.f.t JXJXJXJXJXJXJXJXJXJX",
"JXJXJXJXJXJXJXJXJXJXJXJXJXJXJXz 0Xz 0XmXAXmXnXZXFXNXNXDXFXNXNXDXAXmXjXrXz j d 8 m.<X5X5X5X,XB.y l.,X5X5XW.k.6 JXJXJXJXJXJXJXJXJXJX",
"JXJXJXJXJXJXJXJXJXJXJXJXJXJXJXx x z 8XtXMXyXeXMXSXBXmXDXFXMXmXAXZXmXyXwXk d d.t.c.,X6X5X5X,XB.y l.,X5X5XI.z.t JXJXJXJXJXJXJXJXJXJX",
"JXJXJXJXJXJXJXJXJXJXJXJXJXJXJXJXJXx x 9XtXtXeXnXNXmXMXDXAXjXyXMXVXyXwXk b.a.t.g.H.,X6X5X5X,XB.y l.,X5X5XW.z.t JXJXJXJXJXJXJXJXJXJX",
"JXJXJXJXJXJXJXJXJXJXJXJXJXJXJXJXJXJXc l z 8XwXeXnXyXnXNXmXiXrXeX9Xc k b.n.a.y Z.W.4X6X5X6X,XB.y m.,X5X5XI.z.t JXJXJXJXJXJXJXJXJXJX",
"JXJXJXJXJXJXJXJXJXJXJXJXJXJXJXJXJXJXJXJX* g l 7XwX0X9XiX0Xq.0Xx j 9 p N.N.u.y.Y.3X5X6X5X6X,XB.y l.,X5X5XW.j.t JXJXJXJXJXJXJXJXJXJX",
"JXJXJXJXJXJXJXJXJXJXJXJXJXJXJXJXJXJXJXJXJX* h h h h h g g g g g 9 7 6 d.n.t.y G.3X5X5X5X5X,XB.u l.4X5X3XI.f.6 JXJXJXJXJXJXJXJXJXJX",
"JXJXJXJXJXJXJXJXJXJXJXJXJXJXJXJXJXJXJX  . - Z Z M Z < + .   O . o o % 6 t.t t.H.3X5X6X5X5X,XB.y m.<X3XI.S.d.t JXJXJXJXJXJXJXJXJXJX",
"JXJXJXJXJXJXJXJXJXJXJXJXJXJXJXJXJX        ; A I I I , X           . $ 7 y y g.H.4X5X6X5X5X,XB.y z.E.Q.V.d.JXJXJXJXJXJXJXJXJXJXJXJX",
"JXJXJXJXJXJXJXJXJXJXJXJXJXJXJXJX          = A T T I M ; - - ; - - - = % 7 f.A.W.4X5X6X5X,XE.B.y u.g.l.d.JXJXJXJXJXJXJXJXJXJXJXJXJX",
"JXJXJXJXJXJXJXJXJXJXJXJXJXJXJX        X X ; D T T D A Y Q E E R T I n X 4 m.L.3X5X5X5X3XL.V.d.t 6 t 6 6 JXJXJXJXJXJXJXJXJXJXJXJXJX",
"JXJXJXJXJXJXJXJXJXJXJXJXJXJX        @ n V A Y R T D A T 1.5.5.6.! I < X 4 m.Q.5X5X5X3XQ.S.d.t t JXJXJXJXJXJXJXJXJXJXJXJXJXJXJXJXJX",
"JXJXJXJXJXJXJXJXJXJXJXJXJX        @ n A D P P P D A A I 2.8.8.5.E I , O 4 z.Q.5X,XQ.~.S.d.t 6 JXJXJXJXJXJXJXJXJXJXJXJXJXJXJXJXJXJX",
"JXJXJXJXJXJXJXJXJXJXJXJXJXJX      @ , < : : : ; ; , A I ! 1.1.<.I P n & 8 N.K.P.F.m.m.a.JXJXJXJXJXJXJXJXJXJXJXJXJXJXJXJXJXJXJXJXJX",
"JXJXJXJXJXJXJXJXJXJXJXJXJXJXJX                . X ; D R R W I A Z Z 2 e h.n.n.d.t 5 7 t JXJXJXJXJXJXJXJXJXJXJXJXJXJXJXJXJXJXJXJXJX",
"JXJXJXJXJXJXJXJXJXJXJXJXJXJXJXJX            @ n V Z R 4.5.5.1.T A > & 7 t.y t.6 % . o JXJXJXJXJXJXJXJXJXJXJXJXJXJXJXJXJXJXJXJXJXJX",
"JXJXJXJXJXJXJXJXJXJXJXJXJXJXJXJXJXJX      @ n A P P I W E ,.R I A ; . $ % $ $ $ o JXJXJXJXJXJXJXJXJXJXJXJXJXJXJXJXJXJXJXJXJXJXJXJX",
"JXJXJXJXJXJXJXJXJXJXJXJXJXJXJXJXJXJXJXJX  ; Z , > > > > > > ; > > @             JXJXJXJXJXJXJXJXJXJXJXJXJXJXJXJXJXJXJXJXJXJXJXJXJX",
"JXJXJXJXJXJXJXJXJXJXJXJXJXJXJXJXJXJXJXJXJXJXJXX     .   .     .         JXJXJXJXJXJXJXJXJXJXJXJXJXJXJXJXJXJXJXJXJXJXJXJXJXJXJXJXJX"
};
