/* XPM */
static char *result[] = {
/* columns rows colors chars-per-pixel */
"32 32 191 2 ",
"   c #010001",
".  c #070909",
"X  c #0D0908",
"o  c #0C0016",
"O  c #0C1210",
"+  c #171818",
"@  c #190A00",
"#  c #240D00",
"$  c #2D1000",
"%  c #321400",
"&  c #1A012F",
"*  c #451C00",
"=  c #531D15",
"-  c #652F00",
";  c #772E03",
":  c #663500",
">  c #590C2E",
",  c #794F36",
"<  c #1B004B",
"1  c #310758",
"2  c #3D006B",
"3  c #3C0074",
"4  c #3A1C65",
"5  c #590C52",
"6  c #6E1B51",
"7  c #6F2C4D",
"8  c #6E2355",
"9  c #40006F",
"0  c #540E6D",
"q  c #410074",
"w  c #48057A",
"e  c #580679",
"r  c #451071",
"t  c #620761",
"y  c #610D7E",
"u  c #6B1D79",
"i  c #545353",
"p  c #585765",
"a  c #6A6C69",
"s  c #757677",
"d  c #933A02",
"f  c #9B2C38",
"g  c #B13C3B",
"h  c #8C4812",
"j  c #AC4F00",
"k  c #B34A00",
"l  c #B55401",
"z  c #B95300",
"x  c #BC5C00",
"c  c #AE421C",
"v  c #BD5115",
"b  c #B5640C",
"n  c #915F2B",
"m  c #97423E",
"M  c #A96122",
"N  c #C65D01",
"B  c #C95E00",
"V  c #C76101",
"C  c #CA6B00",
"Z  c #C76011",
"A  c #D56214",
"S  c #E47500",
"D  c #E67801",
"F  c #CE6024",
"G  c #CD7824",
"H  c #9B1A5B",
"J  c #B43459",
"K  c #911A61",
"L  c #841972",
"P  c #891667",
"I  c #8F2474",
"U  c #A62666",
"Y  c #AC2A6A",
"T  c #AF316C",
"R  c #BD3A7B",
"E  c #BC3575",
"W  c #AF2C71",
"Q  c #C13D7D",
"!  c #A24944",
"~  c #9A735D",
"^  c #956B51",
"/  c #91426B",
"(  c #B05D75",
")  c #857C7E",
"_  c #CC4F47",
"`  c #E17C48",
"'  c #D76162",
"]  c #D79400",
"[  c #EA8F00",
"{  c #F78901",
"}  c #E69501",
"|  c #F09E00",
" . c #FFAC00",
".. c #FDBA00",
"X. c #F4BA00",
"o. c #EDB610",
"O. c #CC8A36",
"+. c #EAAB34",
"@. c #F9C800",
"#. c #FEC816",
"$. c #B98759",
"%. c #3E0183",
"&. c #4C0385",
"*. c #4F0887",
"=. c #520B8D",
"-. c #51058D",
";. c #551D8D",
":. c #4F0493",
">. c #540593",
",. c #550A92",
"<. c #5B0E9B",
"1. c #57079C",
"2. c #5A1095",
"3. c #5D149A",
"4. c #5D199B",
"5. c #611A9C",
"6. c #751C8C",
"7. c #5B0EA3",
"8. c #5B04A1",
"9. c #5E10B0",
"0. c #5A13AC",
"q. c #610CAF",
"w. c #6313A4",
"e. c #6412AC",
"r. c #671DA9",
"t. c #691BB7",
"y. c #7920AC",
"u. c #6A25B7",
"i. c #732ABB",
"p. c #7528B9",
"a. c #7F32BF",
"s. c #757E84",
"d. c #7A26C4",
"f. c #7D34C2",
"g. c #B43886",
"h. c #9633B6",
"j. c #C53C8A",
"k. c #BE4381",
"l. c #BE4094",
"z. c #C54282",
"x. c #C94887",
"c. c #D14C8C",
"v. c #D44C87",
"b. c #CF518D",
"n. c #DD548F",
"m. c #DC5495",
"M. c #DA5896",
"N. c #DB4C94",
"B. c #E0528C",
"V. c #E65C9D",
"C. c #DB619A",
"Z. c #EB679E",
"A. c #C74CB0",
"S. c #E76BA5",
"D. c #E962A4",
"F. c #E87AAC",
"G. c #F772AF",
"H. c #F579B2",
"J. c #F96BA6",
"K. c #893FC9",
"L. c #8136C6",
"P. c #8640C4",
"I. c #954BCD",
"U. c #888888",
"Y. c #9C8D86",
"T. c #9EA4A8",
"R. c gray68",
"E. c #BBBBBB",
"W. c #B7B9BC",
"Q. c #B0AAA6",
"!. c #E0BE83",
"~. c #F98BBC",
"^. c #F787B7",
"/. c #E287B5",
"(. c #C6B7AD",
"). c #FFFFAB",
"_. c #F588C9",
"`. c #FF99C5",
"'. c #FA9AC8",
"]. c #FCA6C9",
"[. c #C5C5C5",
"{. c #C9CACC",
"}. c #CDCFD1",
"|. c #D7D6D6",
" X c #E0D9D6",
".X c #ECECED",
"XX c #E5E4E4",
"oX c #F4F5F5",
"OX c #FCFCFC",
"+X c #F6F9FB",
"@X c None",
/* pixels */
"@X@X@X@X@X@X@X@X@X@X@X@X@X@X@Xc.z.z.@X@X@X@X@X@X@X@X@X@X@X@X@X@X",
"@X@X@X@X@X@X@X@X@X@X@X@X@X@Xz.F.U Y @X@X@X@X@X@X@X@X@X@X@X@X@X@X",
"@X@X@X@X@X@X@X@X@X@X@X@X@XQ D.M.@X@X@X@X@X@X@X@X@X@X@X@X@X@X@X@X",
"@X@X@X@X@X@X@X@X@X@X@XQ V.^.`.b.H @X@X@X@X@X@X@X@X@X@X@X@X@X@X@X",
"@X@X@X@X@X@X@X@X@X@X@Xj.~.].F.m.j.U @X@X@X@X@X@X@X@X@X@X@X@X@X@X",
"@X@X@X@X@X@X@X@X@X@X( ~.^.F._.G.V.c.Y @X@X@X@X@X@X@X@X@X@X@X@X@X",
"@X@X@X@X@X@X@X@X@X@Xk.'.^.^.H.m.c.j.j.H @X@X@X@X@X@X@X@X@X@X@X@X",
"@X@X@X@X@X@X@X@X@X@Xk.F.E V.V.V.( Q B.K @X@X@X@X@X@X@X@X@X@X@X@X",
"@X@X@X@X@X@X@X@X@X@Xc.D.S.^.H.V.x.x.B.P @X@X@X@X@X@X@X@X@X@X@X@X",
"@X@X@X@X@X@X@X@X@X@Xz.m./.].^.J.B.v.I e 1.@X@X@X@X@X@X@X@X@X@X@X",
"@X@X@X@X@X@X@X@X@X@XL Z.'.~.D.A.g.=.<.7.=.@X@X@X@X@X@X@X@X@X@X@X",
"@X@X@X@X@X@X@X@X@X@Xr.I x.h.y.r.i.=.4.K.K.<.@X@X@X@X@X@X@X@X@X@X",
"@X@X@X@X@X@X@X@X9 =.4.r.9.4.6.0 6.a.5.2.I.h.3 @X@X@X@X@X@X@X@X@X",
"@X@X@X@X@X@X@X>.*.,.w r 8 g W W H =.p.2.2.L.&.@X@X@X@X@X@X@X@X@X",
"@X@X@X@X@X@Xw @X3.d.u d b ` _.'.N.g.e e.>.<.r.@X@X@X@X@X@X@X@X@X",
"@X@X@X@X@X@X@X0 f.u.u A x F g.'.C.J > %.L.=.r.@X@X@X@X@X@X@X@X@X",
"@X@X@X@X@Xb !.;.3.u ~.].' c f T G } Z 5 ;.p.,.3.@X@X@X@X@X@X@X@X",
"@X@X@X@X@Xb #.m ! _ ( / 7     ; { { S ; < d.2.3.@X@X@X@X@X@X@X@X",
"@X@X@X@X@X@Xx N [ N O . O + + * S o.[ h 4 e.r.-.1.@X@X@X@X@X@X@X",
"@X@X@X@X@X@X@X@Xl G k.s.(.XXE.^ O.).X.M p *.i.=.-.@X@X@X@X@X@X@X",
"@X@X@X@X@X@X@X@XY.|.+X|.XXOX.XQ.$.+.S n p 2 w.4.>.@X@X@X@X@X@X@X",
"@X@X@X@X@X@X@X@XW.oX|.oX+X.X.XoX(.~ ~ U.p 2 w.p.>.&.@X@X@X@X@X@X",
"@X@X@X@X@X@X@X@XU.W.|.OXOX[.oXOX}.[.T.a 1 3 7.i.*.&.@X@X@X@X@X@X",
"@X@X@X@X@X@X@X@X@Xs.R.U.Q.{.+X}.E.}.a X = 5 7.f.<.q @X@X@X@X@X@X",
"@X@X@X@X@X@X@X@X@X@X,   O s [.E.[.s O @ z 6 9.f.<.2 @X@X@X@X@X@X",
"@X@X@X@X@X@X@X@X@X@XV :   . i U.i O   l v >.u.L.,.9 @X@X@X@X@X@X",
"@X@X@X@X@X@X@Xl @Xk | X.-   X + .     - 6 9.P.p.q @X@X@X@X@X@X@X",
"@X@X@X@X@X@X@X} ] C @. .N #           & 7.d.i.w.@X@X@X@X@X@X@X@X",
"@X@X@X@X@X@X@Xz | @...B %           & 1.p.d.e.&.@X@X@X@X@X@X@X@X",
"@X@X@X@X@X@X@X@Xz [ N $               1 1.>.@X@X@X@X@X@X@X@X@X@X",
"@X@X@X@X@X@X@X@X@Xk *                   o @X@X@X@X@X@X@X@X@X@X@X",
"@X@X@X@X@X@X@X@X@X@X@X@X              @X@X@X@X@X@X@X@X@X@X@X@X@X"
};
