/* XPM */
static char *result[] = {
/* columns rows colors chars-per-pixel */
"65 65 242 2 ",
"   c #000000",
".  c #0C0707",
"X  c #1D0C01",
"o  c #170803",
"O  c #0C0015",
"+  c #1D1419",
"@  c #261100",
"#  c #381702",
"$  c #351013",
"%  c #180028",
"&  c #150033",
"*  c #2C0A2F",
"=  c #282828",
"-  c #393939",
";  c #342216",
":  c #5B2801",
">  c #4F2C10",
",  c #692A07",
"<  c #773401",
"1  c #732E00",
"2  c #4C1731",
"3  c #721734",
"4  c #582828",
"5  c #53423A",
"6  c #260146",
"7  c #310750",
"8  c #3D016B",
"9  c #390167",
"0  c #3E0172",
"q  c #520C50",
"w  c #6E1153",
"e  c #493656",
"r  c #462D5C",
"t  c #732A4B",
"y  c #41026E",
"u  c #4C0A6C",
"i  c #420174",
"p  c #46027C",
"a  c #49067B",
"s  c #550978",
"d  c #510F68",
"f  c #6F106D",
"g  c #5C2674",
"h  c #79276E",
"j  c #464646",
"k  c #5A5B5A",
"l  c #785B4A",
"z  c #574F66",
"x  c #686B6A",
"c  c #767777",
"v  c #707070",
"b  c #7F6151",
"n  c #8F3A08",
"m  c #8A2C31",
"M  c #AB382F",
"N  c #A34400",
"B  c #AC4A00",
"V  c #A74A05",
"C  c #B34C00",
"Z  c #B94F00",
"A  c #B75700",
"S  c #AB4A17",
"D  c #B65B11",
"F  c #B24F11",
"G  c #BC6206",
"H  c #91572B",
"J  c #A34F2D",
"K  c #B86F32",
"L  c #9E4613",
"P  c #C85902",
"I  c #D15D00",
"U  c #C85513",
"Y  c #CA6801",
"T  c #D46401",
"R  c #D66801",
"E  c #C87600",
"W  c #DA7400",
"Q  c #CC6D17",
"!  c #E76A01",
"~  c #E57A00",
"^  c #CF512C",
"/  c #CA7523",
"(  c #99185A",
")  c #891055",
"_  c #8B2746",
"`  c #AC295D",
"'  c #A4355C",
"]  c #8D1C6F",
"[  c #962671",
"{  c #A42464",
"}  c #AD2B6C",
"|  c #A92567",
" . c #B53474",
".. c #BB3B7A",
"X. c #BA3778",
"o. c #B1316F",
"O. c #A11F60",
"+. c #C03D7C",
"@. c #B94F4C",
"#. c #916A52",
"$. c #9C7B67",
"%. c #C9447E",
"&. c #CE6E5D",
"*. c #D98900",
"=. c #D1910A",
"-. c #E78B01",
";. c #E99600",
":. c #F59900",
">. c #F88900",
",. c #E4A400",
"<. c #F6A600",
"1. c #F6BB00",
"2. c #F8AC1C",
"3. c #DD872C",
"4. c #E49222",
"5. c #FDCB00",
"6. c #F6C100",
"7. c #F7CE00",
"8. c #F3CD33",
"9. c #FDE82B",
"0. c #AF846B",
"q. c #C78B4B",
"w. c #CB9069",
"e. c #FAE86E",
"r. c #EAC043",
"t. c #3D0089",
"y. c #460080",
"u. c #4A0283",
"i. c #4D038A",
"p. c #4C0B85",
"a. c #50048C",
"s. c #520C8D",
"d. c #580984",
"f. c #5B1689",
"g. c #4C0A98",
"h. c #540594",
"j. c #560B94",
"k. c #58099B",
"l. c #5C139B",
"z. c #5B1897",
"x. c #651999",
"c. c #6B1B85",
"v. c #64239A",
"b. c #5C09A4",
"n. c #5D16A3",
"m. c #4E14A0",
"M. c #610BAB",
"N. c #630EA5",
"B. c #6514AD",
"V. c #6719A9",
"C. c #6C1CB4",
"Z. c #6917B4",
"A. c #701AB4",
"S. c #6A25A8",
"D. c #6D22B7",
"F. c #7224B9",
"G. c #732CBB",
"H. c #7A2CBC",
"J. c #7526B7",
"K. c #7B32BD",
"L. c #7833BB",
"P. c #722EAA",
"I. c #7B2FC2",
"U. c #831D97",
"Y. c #B33782",
"T. c #8238BB",
"R. c #9228A9",
"E. c #AD39A4",
"W. c #9B299C",
"Q. c #C33B85",
"!. c #B44A97",
"~. c #C64383",
"^. c #CA4585",
"/. c #CE4A8A",
"(. c #CA4788",
"). c #D44D8E",
"_. c #D54B89",
"`. c #C9528A",
"'. c #D4528F",
"]. c #D54D91",
"[. c #DC5594",
"{. c #D75A96",
"}. c #CA5998",
"|. c #E25B9B",
" X c #E35997",
".X c #E3598C",
"XX c #D5699C",
"oX c #CB6094",
"OX c #E2629D",
"+X c #D76FA5",
"@X c #EB63A3",
"#X c #EA6AA5",
"$X c #F36CAB",
"%X c #F86FAF",
"&X c #EA76AA",
"*X c #F577AE",
"=X c #FA74B3",
"-X c #F87CB5",
";X c #EF72B3",
":X c #C955A4",
">X c #833AC3",
",X c #8539C4",
"<X c #802EC2",
"1X c #8B43C6",
"2X c #934BCB",
"3X c #828382",
"4X c #8D8C8C",
"5X c #989999",
"6X c #ABA19B",
"7X c #9B9FA1",
"8X c #A3A3A3",
"9X c #ABACAC",
"0X c #B3B3B3",
"qX c #BBBBBB",
"wX c #B5B9BC",
"eX c #B3AEAA",
"rX c #FB8CBB",
"tX c #F886B9",
"yX c #EA8CB9",
"uX c #D8ACA6",
"iX c #E8D2A5",
"pX c #F8EDAA",
"aX c #F9E38A",
"sX c #B6BDC2",
"dX c #F898C4",
"fX c #F289C1",
"gX c #FBA6CC",
"hX c #FDACD4",
"jX c #FFBEDE",
"kX c #C2C2C2",
"lX c #CBCBCB",
"zX c #C8C4C2",
"xX c #DBDBDB",
"cX c #D5D5D6",
"vX c #C9D2D8",
"bX c #E4E4E4",
"nX c #ECECEC",
"mX c #F3F3F3",
"MX c #FBFBFB",
"NX c #EDF2F6",
"BX c #E6E9E0",
"VX c None",
/* pixels */
"VXVXVXVXVXVXVXVXVXVXVXVXVXVXVXVXVXVXVXVXVXVXVXVXVXVXVXVXVXVXVXVXVXVXVXVXVXVXVXVXVXVXVXVXVXVXVXVXVXVXVXVXVXVXVXVXVXVXVXVXVXVXVXVXVX",
"VXVXVXVXVXVXVXVXVXVXVXVXVXVXVXVXVXVXVXVXVXVXVXVXVXVXVXVXVX......X...VXVXVXVXVXVXVXVXVXVXVXVXVXVXVXVXVXVXVXVXVXVXVXVXVXVXVXVXVXVXVX",
"VXVXVXVXVXVXVXVXVXVXVXVXVXVXVXVXVXVXVXVXVXVXVXVXVXVXVXVXVX/.@X{. ./.{.VXVXVXVXVXVXVXVXVXVXVXVXVXVXVXVXVXVXVXVXVXVXVXVXVXVXVXVXVXVX",
"VXVXVXVXVXVXVXVXVXVXVXVXVXVXVXVXVXVXVXVXVXVXVXVXVXVXVXVX'.;X-X~.O...^.VXVXVXVXVXVXVXVXVXVXVXVXVXVXVXVXVXVXVXVXVXVXVXVXVXVXVXVXVXVX",
"VXVXVXVXVXVXVXVXVXVXVXVXVXVXVXVXVXVXVXVXVXVXVXVXVXVXVX..@XtXoXVXVXVXVXVXVXVXVXVXVXVXVXVXVXVXVXVXVXVXVXVXVXVXVXVXVXVXVXVXVXVXVXVXVX",
"VXVXVXVXVXVXVXVXVXVXVXVXVXVXVXVXVXVXVXVXVXVXVXVXVXVX .%.$X{...VXVXVXVXVXVXVXVXVXVXVXVXVXVXVXVXVXVXVXVXVXVXVXVXVXVXVXVXVXVXVXVXVXVX",
"VXVXVXVXVXVXVXVXVXVXVXVXVXVXVXVXVXVXVXVXVXVXVXX.X.+.].$XfXtX).O.VXVXVXVXVXVXVXVXVXVXVXVXVXVXVXVXVXVXVXVXVXVXVXVXVXVXVXVXVXVXVXVXVX",
"VXVXVXVXVXVXVXVXVXVXVXVXVXVXVXVXVXVXVXVXVXVX .Q.'.OX-XdXdX{.{ ( ( VXVXVXVXVXVXVXVXVXVXVXVXVXVXVXVXVXVXVXVXVXVXVXVXVXVXVXVXVXVXVXVX",
"VXVXVXVXVXVXVXVXVXVXVXVXVXVXVXVXVXVXVXVXVX..~.OXtXrXdXrXrX{.X.| { O.VXVXVXVXVXVXVXVXVXVXVXVXVXVXVXVXVXVXVXVXVXVXVXVXVXVXVXVXVXVXVX",
"VXVXVXVXVXVXVXVXVXVXVXVXVXVXVXVXVXVXVXVXVX.. XtXgXgXgXtX@X@X|.+.} { ( VXVXVXVXVXVXVXVXVXVXVXVXVXVXVXVXVXVXVXVXVXVXVXVXVXVXVXVXVXVX",
"VXVXVXVXVXVXVXVXVXVXVXVXVXVXVXVXVXVXVXVX ./.$XtXyXgXdXtX'./.|./.} } o.( VXVXVXVXVXVXVXVXVXVXVXVXVXVXVXVXVXVXVXVXVXVXVXVXVXVXVXVXVX",
"VXVXVXVXVXVXVXVXVXVXVXVXVXVXVXVXVXVXVXo.).$XtXtXoXXXrXrX*X;X%X@X'./.~.} ( VXVXVXVXVXVXVXVXVXVXVXVXVXVXVXVXVXVXVXVXVXVXVXVXVXVXVXVX",
"VXVXVXVXVXVXVXVXVXVXVXVXVXVXVXVXVXVXVX} '.rXgXgX&X&XrXrX-X=X-X%X X'.'.X.( VXVXVXVXVXVXVXVXVXVXVXVXVXVXVXVXVXVXVXVXVXVXVXVXVXVXVXVX",
"VXVXVXVXVXVXVXVXVXVXVXVXVXVXVXVXVXVXVX .oXrXgXgXdXrX-XtX=X@X].].(.).[.^.| ( VXVXVXVXVXVXVXVXVXVXVXVXVXVXVXVXVXVXVXVXVXVXVXVXVXVXVX",
"VXVXVXVXVXVXVXVXVXVXVXVXVXVXVXVXVXVXVX} XXdXrXOX+X*X=X%X@X)./.`.+.~.].)...` VXVXVXVXVXVXVXVXVXVXVXVXVXVXVXVXVXVXVXVXVXVXVXVXVXVXVX",
"VXVXVXVXVXVXVXVXVXVXVXVXVXVXVXVXVXVXVX} XXdX&Xo.+.|.%X$X/.{.;XXX+. .^.[./.{ VXVXVXVXVXVXVXVXVXVXVXVXVXVXVXVXVXVXVXVXVXVXVXVXVXVXVX",
"VXVXVXVXVXVXVXVXVXVXVXVXVXVXVXVXVXVXVX} +X&X..X._.[.|.#X[.#X{.} } ..^.[._.| VXVXVXVXVXVXVXVXVXVXVXVXVXVXVXVXVXVXVXVXVXVXVXVXVXVXVX",
"VXVXVXVXVXVXVXVXVXVXVXVXVXVXVXVXVXVXX.Q.[.XX'.&X*XOX$XtXOX#X$X].(...Q.[._.O.d VXVXVXVXVXVXVXVXVXVXVXVXVXVXVXVXVXVXVXVXVXVXVXVXVXVX",
"VXVXVXVXVXVXVXVXVXVXVXVXVXVXVXVXVXVXX.^. X$X=XOXyXdXdXrX#X|.|.].^.~.).[.+.| f VXVXVXVXVXVXVXVXVXVXVXVXVXVXVXVXVXVXVXVXVXVXVXVXVXVX",
"VXVXVXVXVXVXVXVXVXVXVXVXVXVXVXVXVXVX+.%.).|.|.oXyXgXdXtX-X@X X/.^._..XQ.[ ) c.b.VXVXVXVXVXVXVXVXVXVXVXVXVXVXVXVXVXVXVXVXVXVXVXVXVX",
"VXVXVXVXVXVXVXVXVXVXVXVXVXVXVXVXVXVXo.X.+.~./.yXhXdXrXtX=X%X%X|.].(.Y.[ a a l.Z.a.y VXVXVXVXVXVXVXVXVXVXVXVXVXVXVXVXVXVXVXVXVXVXVX",
"VXVXVXVXVXVXVXVXVXVXVXVXVXVXVXVXVXVXVX[ (.@X&XgXdXtXtX*X%X%X$X X..h s a.g.b.p.a p i VXVXVXVXVXVXVXVXVXVXVXVXVXVXVXVXVXVXVXVXVXVXVX",
"VXVXVXVXVXVXVXVXVXVXVXVXVXVXVXVXVXVXVXd [ [.&X-XrXrX*XOXE.R.R.U.f a.l.n.C.C.n.z.l.a.VXVXVXVXVXVXVXVXVXVXVXVXVXVXVXVXVXVXVXVXVXVXVX",
"VXVXVXVXVXVXVXVXVXVXVXVXVXVXVXVXVXVXy.v.v.[ ^..X:X:XE.W.A.F.H.F.m.y.s.S.L.>XI.>XJ.b.i VXVXVXVXVXVXVXVXVXVXVXVXVXVXVXVXVXVXVXVXVXVX",
"VXVXVXVXVXVXVXVXVXVXVXVXVXVXVXVXVXi.i.I.v.s ] Y.A.C.A.C.V.S.G.,XL.v.a p.S.>X2X2X,XA.d.VXVXVXVXVXVXVXVXVXVXVXVXVXVXVXVXVXVXVXVXVXVX",
"VXVXVXVXVXVXVXVXVXVXVXVXVXVXVXVXp h.p.V.z.s.V.B.N.C.K.T.d.u s S.T.>XJ.j.u.l.<X2X2X,XN.p VXVXVXVXVXVXVXVXVXVXVXVXVXVXVXVXVXVXVXVXVX",
"VXVXVXVXVXVXVXVXVXVXVXVXVXVXi 0 0 p.x.s.s.S.I.B.s.p.g [ ) ) ) f f.V.<XH.j.y.l.K.2X2XB.u.VXVXVXVXVXVXVXVXVXVXVXVXVXVXVXVXVXVXVXVXVX",
"VXVXVXVXVXVXVXVXVXVXVXVXVXi.k.y.i s.s.i p z.x.s._ _ ) ( ) (  .| w a b.<XH.j.y.l.,X,XB.y.VXVXVXVXVXVXVXVXVXVXVXVXVXVXVXVXVXVXVXVXVX",
"VXVXVXVXVXVXVXVXVXVXVXVXa.a.h.s.j.N.j.p q q 6 q Q ^  .}.`.~.Y.| | ] d.n.H.C.h.u.x.I.H.k.VXVXVXVXVXVXVXVXVXVXVXVXVXVXVXVXVXVXVXVXVX",
"VXVXVXVXVXVXVXVXVXVXVXt.g.y.9 f.Z.M.J.g.t n # < :./ `.fXhXdX{. ._.(.f u.N.A.Z.h.y.l.H.F.i.VXVXVXVXVXVXVXVXVXVXVXVXVXVXVXVXVXVXVXVX",
"VXVXVXVXVXVXVXVXVXVXVXu VXVX8 z.D.A.,Xm.m I B N ,.4.^.;XhXjXfX@X@X].{ w 0 k.C.Z.i.u.n.F.x.VXVXVXVXVXVXVXVXVXVXVXVXVXVXVXVXVXVXVXVX",
"VXVXVXVXVXVXVXVXVXVXVXVXVXVXj.L.1X>XI.m.t U ! Z *./ ` Q.&XgXyX{.[.~.} 3 % 8 b.C.Z.h.p.P.P.VXVXVXVXVXVXVXVXVXVXVXVXVXVXVXVXVXVXVXVX",
"VXVXVXVXVXVXVXVXVXVXVXVXn q n.1X1Xv.s.h !.&.U C P I ^ ` Y.$XfXXX@.M M m 2 y h.J.>XV.p z.C.VXVXVXVXVXVXVXVXVXVXVXVXVXVXVXVXVXVXVXVX",
"VXVXVXVXVXVXVXVXVXVXK w.&.g n.G.v.d f !.dXgX&.@.F U ^ M | Q.{.&./ Y E D _ w y x.,XL.s.u.V.S.i VXVXVXVXVXVXVXVXVXVXVXVXVXVXVXVXVXVX",
"VXVXVXVXVXVXVXVXVXV q.pXiXf.g.g.f ] /.tXhXhXdX-X@.m m m 3 _ M U ;.<.<.-.U m * 6 D.1XS.p.f.H.a VXVXVXVXVXVXVXVXVXVXVXVXVXVXVXVXVXVX",
"VXVXVXVXVXVXVXVXVXV / 8.8.l u h ' ` '.+XyX+X}.+Xt + % X o , P ~ <.>.>.;.I n # % s.I.I.f.a.B.k.a VXVXVXVXVXVXVXVXVXVXVXVXVXVXVXVXVX",
"VXVXVXVXVXVXVXVXVXB Y <.<.Q M / 4.U ^ t 2 2 2 4 +         : P >.<.W R W I N # & u.B.I.V.u.a.V.u.VXVXVXVXVXVXVXVXVXVXVXVXVXVXVXVXVX",
"VXVXVXVXVXVXVXVXVXVXG E E R P ~ -.P V #                   X n ! -.;.;.*.I V 5 7 i.b.D.D.j.a V.k.VXVXVXVXVXVXVXVXVXVXVXVXVXVXVXVXVX",
"VXVXVXVXVXVXVXVXVXVXVXN N N A T R Y B #     = - - j j - - ; 1 T -.8.9.1.W S l z u j.D.G.x.u.h.M.a.VXVXVXVXVXVXVXVXVXVXVXVXVXVXVXVX",
"VXVXVXVXVXVXVXVXVXVXVXVXVXVX*.Y P *./ 5 - j v 8XqXlXqX9X5X$.L G r.pXe.7.;.D b k e a B.I.C.k.p k.a.VXVXVXVXVXVXVXVXVXVXVXVXVXVXVXVX",
"VXVXVXVXVXVXVXVXVXVXVXVXVXVXD H S K uXzXqX0X8XlXmXMXmXxX0X8X#.D iXmXe.5.;.D #.x e 0 m.D.G.l.p h.s.VXVXVXVXVXVXVXVXVXVXVXVXVXVXVXVX",
"VXVXVXVXVXVXVXVXVXVXVXVXVXVXb #.0.eXnXMXMXbX0XxXMXMXMXmXcXsX$.K iXaX2.:.-.D b x e 9 p b.D.V.a k.a.VXVXVXVXVXVXVXVXVXVXVXVXVXVXVXVX",
"VXVXVXVXVXVXVXVXVXVXVXVXVXVXc 5XvXNXnXxXnXbXlXbXMXMXmXnXnXcX6X0.q.4.T I G H x x e 8 0 h.F.P.p h.b.VXVXVXVXVXVXVXVXVXVXVXVXVXVXVXVX",
"VXVXVXVXVXVXVXVXVXVXVXVXVXVXx 8XbXMXxXlXbXmXnXmXMXmXnXbXmXmXxXeX$.J H J #.v c x e 8 0 j.H.T.a.h.N.h.y VXVXVXVXVXVXVXVXVXVXVXVXVXVX",
"VXVXVXVXVXVXVXVXVXVXVXVXVXVXv 5XxXnXvXxXmXMXMXMXMXbXxXmXMXMXmXxXlXeX4X4X7X5X3Xk r 8 0 h.H.,Xb.y.a.h.i VXVXVXVXVXVXVXVXVXVXVXVXVXVX",
"VXVXVXVXVXVXVXVXVXVXVXVXVXVXc 4X0XcXzXlXnXMXMXMXmXlXkXbXMXMXMXbXqXkXwX7X7X0.k e 0 0 0 h.A.G.S.a a.h.i VXVXVXVXVXVXVXVXVXVXVXVXVXVX",
"VXVXVXVXVXVXVXVXVXVXVXVXVXVXc c 4X9X5X0XnXmXnXmXxXwXlXmXMXMXbXqXkXcXkX7X3Xk = 6 a 0 0 h.Z.G.S.p.a.k.8 VXVXVXVXVXVXVXVXVXVXVXVXVXVX",
"VXVXVXVXVXVXVXVXVXVXVXVXVXVXVXVXc 3Xv 9XzX0XeXxXqX9XbXMXnXnXkX9XlXxXqX4Xk = . + t 9 0 h.Z.I.L.k.u.p i VXVXVXVXVXVXVXVXVXVXVXVXVXVX",
"VXVXVXVXVXVXVXVXVXVXVXVXVXVXVXVXVXc c 7X3Xj k c 5X9XcXnXxXlXqX0XlXkX8Xv = . . : S t 0 h.C.K.1XA.y.9 i VXVXVXVXVXVXVXVXVXVXVXVXVXVX",
"VXVXVXVXVXVXVXVXVXVXVXVXVXVXVXVXVXVXc $.j O     - 3X0XcXcXqXeXkXsX8Xv = .   X < P m u m.C.K.,XB.u.8 i VXVXVXVXVXVXVXVXVXVXVXVXVXVX",
"VXVXVXVXVXVXVXVXVXVXVXVXVXVXVXVXVXVXVXF > o     . = x 8X9X0XqXqX8Xv = .   @ < R S q g.Z.F.H.J.M.y.9 y VXVXVXVXVXVXVXVXVXVXVXVXVXVX",
"VXVXVXVXVXVXVXVXVXVXVXVXVXVXVXVXVXVXVXP B : o       = k 3X4X4Xc x = .   @ < T ! M a b.C.G.L.,XB.y.8 i VXVXVXVXVXVXVXVXVXVXVXVXVXVX",
"VXVXVXVXVXVXVXVXVXVXVXVXVXVXVXVXVXVXN R :.E : .     . = j x j = + .     # A ! S t h.n.D.L.T.J.j.p VXVXVXVXVXVXVXVXVXVXVXVXVXVXVXVX",
"VXVXVXVXVXVXVXVXVXVXVXVXVXVXVXVXVXVXB *.7.6.E : .       = - =           VX< C m t.M.G.I.1X,Xb.0 8 VXVXVXVXVXVXVXVXVXVXVXVXVXVXVXVX",
"VXVXVXVXVXVXVXVXVXVXVXVXVXA A A VXC I ;.1.5.<.Y : .                       o , t i.b.D.>X1X>XN.p 8 VXVXVXVXVXVXVXVXVXVXVXVXVXVXVXVX",
"VXVXVXVXVXVXVXVXVXVXVXVXB *.6.=.C I -.1.6.1.<.W C : .                     o 7 j.b.D.G.G.H.D.b.p VXVXVXVXVXVXVXVXVXVXVXVXVXVXVXVXVX",
"VXVXVXVXVXVXVXVXVXVXVXVXB W <.6.=.A ,.7.5.<.~ P < @                     O 6 i.b.D.G.G.D.C.l.y.VXVXVXVXVXVXVXVXVXVXVXVXVXVXVXVXVXVX",
"VXVXVXVXVXVXVXVXVXVXVXVXVXZ Y <.1.=.7.7.<.-.Z 1 X                     O 6 s.M.C.G.G.G.C.B.h.i VXVXVXVXVXVXVXVXVXVXVXVXVXVXVXVXVXVX",
"VXVXVXVXVXVXVXVXVXVXVXVXVXN C R <.5.7.<.~ Z 1 X                       O 9 h.M.Z.C.D.C.N.h.a.VXVXVXVXVXVXVXVXVXVXVXVXVXVXVXVXVXVXVX",
"VXVXVXVXVXVXVXVXVXVXVXVXVXVXN C R <.<.~ P 1 o                           O 9 h.M.b.b.b.p 8 VXVXVXVXVXVXVXVXVXVXVXVXVXVXVXVXVXVXVXVX",
"VXVXVXVXVXVXVXVXVXVXVXVXVXVXVXN A R R P 1 X                               O 9 p p i p VXVXVXVXVXVXVXVXVXVXVXVXVXVXVXVXVXVXVXVXVXVX",
"VXVXVXVXVXVXVXVXVXVXVXVXVXVXVXVXVXC Z 1 X                                   O % % % VXVXVXVXVXVXVXVXVXVXVXVXVXVXVXVXVXVXVXVXVXVXVX",
"VXVXVXVXVXVXVXVXVXVXVXVXVXVXVXVXVXVXC @                                           VXVXVXVXVXVXVXVXVXVXVXVXVXVXVXVXVXVXVXVXVXVXVXVX",
"VXVXVXVXVXVXVXVXVXVXVXVXVXVXVXVXVXVXVXVX.                                     VXVXVXVXVXVXVXVXVXVXVXVXVXVXVXVXVXVXVXVXVXVXVXVXVXVX",
"VXVXVXVXVXVXVXVXVXVXVXVXVXVXVXVXVXVXVXVXVXVXVX                          VXVXVXVXVXVXVXVXVXVXVXVXVXVXVXVXVXVXVXVXVXVXVXVXVXVXVXVXVX"
};
