/* XPM */
static char *result[] = {
/* columns rows colors chars-per-pixel */
"65 65 244 2 ",
"   c #000000",
".  c #0C0400",
"X  c #080A0A",
"o  c #110600",
"O  c #190B03",
"+  c #1A1211",
"@  c #371603",
"#  c #2B100A",
"$  c #2C0F29",
"%  c #353634",
"&  c #2B282E",
"*  c #19072B",
"=  c #501D00",
"-  c #481E00",
";  c #582602",
":  c #612500",
">  c #692C00",
",  c #783300",
"<  c #712E01",
"1  c #43102B",
"2  c #44262B",
"3  c #49332E",
"4  c #77233F",
"5  c #744810",
"6  c #735939",
"7  c #37075A",
"8  c #350E56",
"9  c #3E006D",
"0  c #3C0766",
"q  c #3E0073",
"w  c #340178",
"e  c #3F3546",
"r  c #6F0E5A",
"t  c #503156",
"y  c #41066C",
"u  c #431865",
"i  c #400071",
"p  c #46027B",
"a  c #49077C",
"s  c #570B7A",
"d  c #540F6F",
"f  c #791B78",
"g  c #66106C",
"h  c #562E66",
"j  c #520F57",
"k  c #3A4647",
"l  c #49484A",
"z  c #59585A",
"x  c #514A54",
"c  c #5F615D",
"v  c #5A4F62",
"b  c #696A68",
"n  c #7A7A7A",
"m  c #757575",
"M  c #746E6F",
"N  c #79614A",
"B  c #863700",
"V  c #973E01",
"C  c #943617",
"Z  c #973A26",
"A  c #8F2D33",
"S  c #B1362B",
"D  c #B53D1A",
"F  c #9D4500",
"G  c #AA4902",
"H  c #B84C02",
"J  c #B85801",
"K  c #AE4D16",
"L  c #BB700B",
"P  c #9B562A",
"I  c #B1542C",
"U  c #966301",
"Y  c #C95701",
"T  c #CD5714",
"R  c #C86602",
"E  c #D66603",
"W  c #D87800",
"Q  c #D27113",
"!  c #E46700",
"~  c #E77E00",
"^  c #F47F00",
"/  c #C8522F",
"(  c #DA6A31",
")  c #9A1B5B",
"_  c #961859",
"`  c #8C1355",
"'  c #992358",
"]  c #A72957",
"[  c #B0364E",
"{  c #971A65",
"}  c #8D2375",
"|  c #96267A",
" . c #953172",
".. c #AC2A6B",
"X. c #A62664",
"o. c #A82978",
"O. c #B52D71",
"+. c #BB3A7A",
"@. c #B83676",
"#. c #B02F6E",
"$. c #A01F5F",
"%. c #C13E7E",
"&. c #A87652",
"*. c #B24275",
"=. c #867568",
"-. c #C94D72",
";. c #D66B69",
":. c #C98501",
">. c #DA8600",
",. c #D59111",
"<. c #E78800",
"1. c #F68900",
"2. c #E59800",
"3. c #F49B00",
"4. c #E49F11",
"5. c #EAA300",
"6. c #F8A900",
"7. c #FBB603",
"8. c #D9A12D",
"9. c #FBC600",
"0. c #FDD600",
"q. c #F5D00D",
"w. c #FAD129",
"e. c #B3856B",
"r. c #82877E",
"t. c #C58C67",
"y. c #E2A055",
"u. c #FCE152",
"i. c #4B0384",
"p. c #4E038A",
"a. c #4C0886",
"s. c #50058D",
"d. c #530D8B",
"f. c #56128D",
"g. c #540593",
"h. c #540A92",
"j. c #580A9B",
"k. c #561292",
"l. c #5B1898",
"z. c #4E0397",
"x. c #621B98",
"c. c #68128B",
"v. c #5C06A3",
"b. c #5E0BA3",
"n. c #5E0FAB",
"m. c #5D14A5",
"M. c #610DA9",
"N. c #6313AC",
"B. c #6719A8",
"V. c #6A1AB3",
"C. c #6B17B6",
"Z. c #731DB6",
"A. c #7418AD",
"S. c #6A25AC",
"D. c #6C24B3",
"F. c #6B25B7",
"G. c #742BBB",
"H. c #7629B8",
"J. c #7C33BE",
"K. c #7A35B5",
"L. c #7227AF",
"P. c #7F2080",
"I. c #777E83",
"U. c #7B2EC1",
"Y. c #7C34C1",
"T. c #AF358C",
"R. c #8139BC",
"E. c #8B23A4",
"W. c #942B80",
"Q. c #C13680",
"!. c #BB4389",
"~. c #BD47AB",
"^. c #C44282",
"/. c #CB4484",
"(. c #CE4989",
"). c #C84589",
"_. c #D44D8D",
"`. c #D4498C",
"'. c #D35687",
"]. c #DA5393",
"[. c #D85695",
"{. c #C75191",
"}. c #E35B9C",
"|. c #E45894",
" X c #D7679C",
".X c #CB6B9A",
"XX c #E3629F",
"oX c #F6669D",
"OX c #D458AA",
"+X c #D574AB",
"@X c #EA65A4",
"#X c #E769A6",
"$X c #F26CAB",
"%X c #EB74AB",
"&X c #F575AD",
"*X c #F978B4",
"=X c #E97BB1",
"-X c #843AC3",
";X c #853AC6",
":X c #802CC3",
">X c #8A42C8",
",X c #9249CD",
"<X c #7B8287",
"1X c #848484",
"2X c #8A8A8A",
"3X c #939392",
"4X c #999B99",
"5X c #918F8D",
"6X c #A7968A",
"7X c #ACACAC",
"8X c #A6A6A6",
"9X c #B4B4B4",
"0X c #BCBCBC",
"qX c #B6B7B9",
"wX c #98A0A6",
"eX c #ED88B8",
"rX c #FA8ABC",
"tX c #F687B8",
"yX c #F894BE",
"uX c #CA999B",
"iX c #F7ED9E",
"pX c #BDBCC0",
"aX c #FC9CC6",
"sX c #F997C4",
"dX c #F693C5",
"fX c #FCA7CE",
"gX c #FDAAD3",
"hX c #FAB4D6",
"jX c #BBC2C4",
"kX c #CCCDCD",
"lX c #C5C4C3",
"zX c #D4D4D4",
"xX c #DBDBDB",
"cX c #CAD1D4",
"vX c #E5E5E4",
"bX c #EBEBEB",
"nX c #E6E8EA",
"mX c #EDF2F5",
"MX c #F3F3F3",
"NX c #FCFCFC",
"BX c #F3F9FB",
"VX c #ECF0F1",
"CX c #DBE4E8",
"ZX c None",
/* pixels */
"ZXZXZXZXZXZXZXZXZXZXZXZXZXZXZXZXZXZXZXZXZXZXZXZXZXZXZXZXZXZXZXZXZXZXZXZXZXZXZXZXZXZXZXZXZXZXZXZXZXZXZXZXZXZXZXZXZXZXZXZXZXZXZXZXZX",
"ZXZXZXZXZXZXZXZXZXZXZXZXZXZXZXZXZXZXZXZXZXZXZXZXZXZXZXZXZXZXZXZX+.+.+.ZXZXZXZXZXZXZXZXZXZXZXZXZXZXZXZXZXZXZXZXZXZXZXZXZXZXZXZXZXZX",
"ZXZXZXZXZXZXZXZXZXZXZXZXZXZXZXZXZXZXZXZXZXZXZXZXZXZXZXZXZXZXZX_._.+._.[.ZXZXZXZXZXZXZXZXZXZXZXZXZXZXZXZXZXZXZXZXZXZXZXZXZXZXZXZXZX",
"ZXZXZXZXZXZXZXZXZXZXZXZXZXZXZXZXZXZXZXZXZXZXZXZXZXZXZXZXZXZX(.].T.] @.^.ZXZXZXZXZXZXZXZXZXZXZXZXZXZXZXZXZXZXZXZXZXZXZXZXZXZXZXZXZX",
"ZXZXZXZXZXZXZXZXZXZXZXZXZXZXZXZXZXZXZXZXZXZXZXZXZXZXZXZXZX).=X XX.ZXZXZXZXZXZXZXZXZXZXZXZXZXZXZXZXZXZXZXZXZXZXZXZXZXZXZXZXZXZXZXZX",
"ZXZXZXZXZXZXZXZXZXZXZXZXZXZXZXZXZXZXZXZXZXZXZXZXZXZXZXZX+.}.tX XX.ZXZXZXZXZXZXZXZXZXZXZXZXZXZXZXZXZXZXZXZXZXZXZXZXZXZXZXZXZXZXZXZX",
"ZXZXZXZXZXZXZXZXZXZXZXZXZXZXZXZXZXZXZXZXZXZXZXZXZXZXZX@.^.@X[.+.ZXZXZXZXZXZXZXZXZXZXZXZXZXZXZXZXZXZXZXZXZXZXZXZXZXZXZXZXZXZXZXZXZX",
"ZXZXZXZXZXZXZXZXZXZXZXZXZXZXZXZXZXZXZXZXZXZXZXZXZX@.+._.@XtXdX].X.ZXZXZXZXZXZXZXZXZXZXZXZXZXZXZXZXZXZXZXZXZXZXZXZXZXZXZXZXZXZXZXZX",
"ZXZXZXZXZXZXZXZXZXZXZXZXZXZXZXZXZXZXZXZXZXZXZXZX%._.XX%XdXaX XO.X.) ZXZXZXZXZXZXZXZXZXZXZXZXZXZXZXZXZXZXZXZXZXZXZXZXZXZXZXZXZXZXZX",
"ZXZXZXZXZXZXZXZXZXZXZXZXZXZXZXZXZXZXZXZXZXZXZX-.'.&XrXfXaXrX(.O.^.#._ ZXZXZXZXZXZXZXZXZXZXZXZXZXZXZXZXZXZXZXZXZXZXZXZXZXZXZXZXZXZX",
"ZXZXZXZXZXZXZXZXZXZXZXZXZXZXZXZXZXZXZXZXZXZX@._.&XfXfXyX#X@X|.%.+.%..._ ZXZXZXZXZXZXZXZXZXZXZXZXZXZXZXZXZXZXZXZXZXZXZXZXZXZXZXZXZX",
"ZXZXZXZXZXZXZXZXZXZXZXZXZXZXZXZXZXZXZXZXZXZX).@X$XeXhXeX[.XX$X`.+.(.(...) ZXZXZXZXZXZXZXZXZXZXZXZXZXZXZXZXZXZXZXZXZXZXZXZXZXZXZXZX",
"ZXZXZXZXZXZXZXZXZXZXZXZXZXZXZXZXZXZXZXZXZX^.#XrX X XyXfXtXtX*X$X@X|._./..._ ZXZXZXZXZXZXZXZXZXZXZXZXZXZXZXZXZXZXZXZXZXZXZXZXZXZXZX",
"ZXZXZXZXZXZXZXZXZXZXZXZXZXZXZXZXZXZXZXZXZX^.%XfXsXeXtXtXrXtX*X*X$X]._.].@._ ZXZXZXZXZXZXZXZXZXZXZXZXZXZXZXZXZXZXZXZXZXZXZXZXZXZXZX",
"ZXZXZXZXZXZXZXZXZXZXZXZXZXZXZXZXZXZXZXZXZX).eXfXaXyXtXtX*X[.!.^.`.].]._.-..._ ZXZXZXZXZXZXZXZXZXZXZXZXZXZXZXZXZXZXZXZXZXZXZXZXZXZX",
"ZXZXZXZXZXZXZXZXZXZXZXZXZXZXZXZXZXZXZXZXZX{.dX X'.&X*X&X[._.XX[.+.^._.].`.+.{ ZXZXZXZXZXZXZXZXZXZXZXZXZXZXZXZXZXZXZXZXZXZXZXZXZXZX",
"ZXZXZXZXZXZXZXZXZXZXZXZXZXZXZXZXZXZXZXZXZX*..X+.%.].@X}.(.XX#X!.O.+./.].]./.$.ZXZXZXZXZXZXZXZXZXZXZXZXZXZXZXZXZXZXZXZXZXZXZXZXZXZX",
"ZXZXZXZXZXZXZXZXZXZXZXZXZXZXZXZXZXZXZXZXZX+.../.[.|.}.]._.&X[.O.@.+.`.].|.-.{ ZXZXZXZXZXZXZXZXZXZXZXZXZXZXZXZXZXZXZXZXZXZXZXZXZXZX",
"ZXZXZXZXZXZXZXZXZXZXZXZXZXZXZXZXZXZXZXZX^.`.`.}.*XtXtX%X}.XX$X|./.%.`.].]./.{ y ZXZXZXZXZXZXZXZXZXZXZXZXZXZXZXZXZXZXZXZXZXZXZXZXZX",
"ZXZXZXZXZXZXZXZXZXZXZXZXZXZXZXZXZXZXZXZX+.|.@X].+XhXgXsX&X}._./.^.(.]._.`.O.{ c.ZXZXZXZXZXZXZXZXZXZXZXZXZXZXZXZXZXZXZXZXZXZXZXZXZX",
"ZXZXZXZXZXZXZXZXZXZXZXZXZXZXZXZXZXZXZXZX+.%./. XdXhXhXyXtX&X}.}.[.|.|.`.o.g s B.N.ZXZXZXZXZXZXZXZXZXZXZXZXZXZXZXZXZXZXZXZXZXZXZXZX",
"ZXZXZXZXZXZXZXZXZXZXZXZXZXZXZXZXZXZXZXZX+.%.].tXgXaXyXtXtX*X*X*X$X`. .f s p.d.d.a.p ZXZXZXZXZXZXZXZXZXZXZXZXZXZXZXZXZXZXZXZXZXZXZX",
"ZXZXZXZXZXZXZXZXZXZXZXZXZXZXZXZXZXZXZXZXZXo.[.&XdXdXrXrX$X}.~.~.T.} g h.l.n.b.h.a.a ZXZXZXZXZXZXZXZXZXZXZXZXZXZXZXZXZXZXZXZXZXZXZX",
"ZXZXZXZXZXZXZXZXZXZXZXZXZXZXZXZXZXZXZXZXZXs | /.}.$X+XOX).E.C.H.B.d.p.j.S.G.G.K.H.l.ZXZXZXZXZXZXZXZXZXZXZXZXZXZXZXZXZXZXZXZXZXZXZX",
"ZXZXZXZXZXZXZXZXZXZXZXZXZXZXZXZXZXZXZXZXZXz.d } %.T.A.A.A.B.D.J.Y.S.f.a.k.K.>X,X>XH.p.ZXZXZXZXZXZXZXZXZXZXZXZXZXZXZXZXZXZXZXZXZXZX",
"ZXZXZXZXZXZXZXZXZXZXZXZXZXZXZXZXZXZXZXa.g.p q h.c.A.V.U.R.x.s l.D.;XK.S.k.k.K.>X-XG.l.q ZXZXZXZXZXZXZXZXZXZXZXZXZXZXZXZXZXZXZXZXZX",
"ZXZXZXZXZXZXZXZXZXZXZXZXZXZXZXZXZXZX0 k.m.a k.H.C.j.l.l.x.f } } f c.G.>XG.d.k.K.;XY.x.ZXZXZXZXZXZXZXZXZXZXZXZXZXZXZXZXZXZXZXZXZXZX",
"ZXZXZXZXZXZXZXZXZXZXZXZXZXZXZXp.g.i p k.d.p k.S.A.w 8 4 r | |./.` g f.G.>XK.k.k.H.Y.B.ZXZXZXZXZXZXZXZXZXZXZXZXZXZXZXZXZXZXZXZXZXZX",
"ZXZXZXZXZXZXZXZXZXZXZXZXZXZXs.g.j.a.j.j.a.y j 8 7 * 5 Y [ ).&X#X.._ g k.F.>XS.k.s.N.V.g.i ZXZXZXZXZXZXZXZXZXZXZXZXZXZXZXZXZXZXZXZX",
"ZXZXZXZXZXZXZXZXZXZXZXZXi i.g.p q B.N.C.B.d Z - X 5 :.K #.#XaX+X^.O.$.r c.S.U.S.d.s.M.v.i.ZXZXZXZXZXZXZXZXZXZXZXZXZXZXZXZXZXZXZXZX",
"ZXZXZXZXZXZXZXZXZXZXZXZXi p ZXZXi S.V.U.F.d T H B :.4.[ ..XXfXeX@.Q.X.D ' d.F.U.D.d.i.M.j.ZXZXZXZXZXZXZXZXZXZXZXZXZXZXZXZXZXZXZXZX",
"ZXZXZXZXZXZXZXZXZXZXZXZXZXZXZXZXl.-X-X-XS.d K ! Y >.,.] o.`.tXeX[.`.] D P q n.F.;XL.i.s.j.i.ZXZXZXZXZXZXZXZXZXZXZXZXZXZXZXZXZXZXZX",
"ZXZXZXZXZXZXZXZXZXZXZXZXZXZXZXa F.,XK.l.f.| -.( G E Q ] { O.). XXX).] C Z W.z.n.U.-Xx.p j.i.ZXZXZXZXZXZXZXZXZXZXZXZXZXZXZXZXZXZXZX",
"ZXZXZXZXZXZXZXZXZXZXZXZXZXZXZXa S.S.f g  .%XyX;.;.( T S A A ] _.@X_.X.[ ;.).i.z.F.>XH.i.s.p ZXZXZXZXZXZXZXZXZXZXZXZXZXZXZXZXZXZXZX",
"ZXZXZXZXZXZXZXZXZXZXZXZXZXZXZXi.m.f.} /.=XfXhXaXtX-.C F H Y / '.=X#XO.' *.} i.v.F.-XJ.j.i i ZXZXZXZXZXZXZXZXZXZXZXZXZXZXZXZXZXZXZX",
"ZXZXZXZXZXZXZXZXZXZXZXZXZXZXZXq h  .%.'..X+X.X{.T.t # G ! ^ T / /.Q.` 1 + * 7 j.V.G.G.B.i.g.s.ZXZXZXZXZXZXZXZXZXZXZXZXZXZXZXZXZXZX",
"ZXZXZXZXZXZXZXZXZXZXZXZXZXZXZXZX,.Q / 5 2 2 $ $ # + - J 6.7.1.E I ' 1 X . X * 9 b.V.G.D.v.v.s.ZXZXZXZXZXZXZXZXZXZXZXZXZXZXZXZXZXZX",
"ZXZXZXZXZXZXZXZXZXZXZXZXZXZXZXZX6.R Y = .   .   @ < B H >.5.6.1.! C 3 k l % % 8 i.j.V.F.M.M.i.ZXZXZXZXZXZXZXZXZXZXZXZXZXZXZXZXZXZX",
"ZXZXZXZXZXZXZXZXZXZXZXZXZXZXZXZXY W E ; .     & 5 H R >.2.>.1.1.! G N I.n c v t 0 p.C.H.C.M.i.ZXZXZXZXZXZXZXZXZXZXZXZXZXZXZXZXZXZX",
"ZXZXZXZXZXZXZXZXZXZXZXZXZXZXZXZXF L ( P x l x 3X&.I y.u.w.2.! ! H P M m n m z l u i.b.V.G.N.g.i ZXZXZXZXZXZXZXZXZXZXZXZXZXZXZXZXZX",
"ZXZXZXZXZXZXZXZXZXZXZXZXZXZXZXZXP P &.jXCXxXxXmXt.8.iXiXw.7.<.Y K =..Xz m 2Xc l u q a.N.V.G.V.g.ZXZXZXZXZXZXZXZXZXZXZXZXZXZXZXZXZX",
"ZXZXZXZXZXZXZXZXZXZXZXZXZXZXZXZX=.r.0XnXMXBXNXmXe.L 8.w.7.6.<.J P 4X<Xb M 4Xm z 8 p i.v.C.R.R.V.h.ZXZXZXZXZXZXZXZXZXZXZXZXZXZXZXZX",
"ZXZXZXZXZXZXZXZXZXZXZXZXZXZXZXZXr.qXnXVXxXxXMXvXqX&.R <.3.W G I 6XqXjX<X<X8X3Xc 0 q i i.M.H.>XJ.N.g.ZXZXZXZXZXZXZXZXZXZXZXZXZXZXZX",
"ZXZXZXZXZXZXZXZXZXZXZXZXZXZXZXZX=.jXBXvXkXxXMXvXCXpX&.J T K P 6XjXjXjX<X1X8X4Xc u i 9 i i.N.G.Y.B.p.g.ZXZXZXZXZXZXZXZXZXZXZXZXZXZX",
"ZXZXZXZXZXZXZXZXZXZXZXZXZXZXZXZXn 8XxXxXkXbXMXxXbXmXkXuXe.t.uXcXcX8X9X8X3X4Xm h 0 0 y 9 9 i.M.D.S.x.d.p.ZXZXZXZXZXZXZXZXZXZXZXZXZX",
"ZXZXZXZXZXZXZXZXZXZXZXZXZXZXZXZXn 2X7XqX9XxXMXzXxXNXNXMXmXBXVXvXcXjXqX7X4Xr.x 0 i i i i 9 q i.N.Y.R.l.h.p.ZXZXZXZXZXZXZXZXZXZXZXZX",
"ZXZXZXZXZXZXZXZXZXZXZXZXZXZXZXZXZXm 3X1X5XzXMXkXzXNXMXxXVXNXvXvXVXxXlX9X3Xb x y i i i q i 9 i p.N.H.R.f.p.i.ZXZXZXZXZXZXZXZXZXZXZX",
"ZXZXZXZXZXZXZXZXZXZXZXZXZXZXZXZXZXZXm M 2XpXxX9X0XbXvXzXbXNXxXzXVXvXlX7Xn x 0 y i i i i i i 9 i i.M.N.S.l.d a ZXZXZXZXZXZXZXZXZXZX",
"ZXZXZXZXZXZXZXZXZXZXZXZXZXZXZXZXZXZX+ l m 4X0X7X7XzXzXkXnXMXjX0XxXkX7X1Xv u ZXZXi i i i i 9 i 9 i p i.b.H.R.L.g.ZXZXZXZXZXZXZXZXZX",
"ZXZXZXZXZXZXZXZXZXZXZXZXZXZXZXZXZXZX  + % z m r.4XqXpX0XxXkX8X7X8X2Xb c ZXZXZXZXi i 9 i i i i i y i 9 a V.:XH.R.j.ZXZXZXZXZXZXZXZX",
"ZXZXZXZXZXZXZXZXZXZXZXZXZXZXZXZXZXZX    X & & l b I.2X1X5X1Xn 1XM t e ZXZXZXZXZXZXi i i i i i 9 i 9 9 9 p p.B.;XH.j.ZXZXZXZXZXZXZX",
"ZXZXZXZXZXZXZXZXZXZXZXZXZXZXZXZXZXZXZX        % 6 6 3 % % % % % e ZXZXZXZXZXZXZXZXZXi i i 9 i i i i i i 9 9 a F.;XH.j.ZXZXZXZXZXZX",
"ZXZXZXZXZXZXZXZXZXZXZXZXZXZXZXZXZXZXZXZX    . < <.U O .           ZXZXZXZXZXZXZXZXZXZXi i i i i i i i i i 9 i.v.M.R.G.g.ZXZXZXZXZX",
"ZXZXZXZXZXZXZXZXZXZXZXZXZXZXZXZXZXZXZXZXZX  . < J , O o o o . o .         ZXZXZXZXZXZXZXZXi 9 i ZXZXZXZXZXZXi i i b.Z.l.ZXZXZXZXZX",
"ZXZXZXZXZXZXZXZXZXZXZXZXZXZXZXZXZXZXZXZXZX    O < F , , , , , B : O             ZXZXZXZXZXZXZXZXZXZXZXZXZXZXZX9 i p j.Z.ZXZXZXZXZX",
"ZXZXZXZXZXZXZXZXZXZXZXZXZXZXZXZXZXZXZX          = J <.<.2.5.2.~ Y < O               ZXZXZXZXZXZXZXZXZXZXZXZXZXZX9 9 i M.B.i ZXZXZX",
"ZXZXZXZXZXZXZXZXZXZXZXZXZXZXZXZXZXZX            = R 7.9.0.0.9.3.E G @                 ZXZXZXZXZXZXZXZXZXZXZXZXZXZXZX9 p s.i ZXZXZX",
"ZXZXZXZXZXZXZXZXZXZXZXZXZXZXZXZXZX              ; J 7.0.0.7.6.<.E F @                   ZXZXZXZXZXZXZXZXZXZXZXZXZXZXZX9 9 i ZXZXZX",
"ZXZXZXZXZXZXZXZXZXZXZXZXZXZXZXZX                - R 5.9.9.5.>.Y Y F @                     ZXZXZXZXZXZXZXZXZXZXZXZXZXZXZXZXi ZXZXZX",
"ZXZXZXZXZXZXZXZXZXZXZXZXZXZXZXZX                ; G J J J J H G H F @                     ZXZXZXZXZXZXZXZXZXZXZXZXZXZXZXZXZXZXZXZX",
"ZXZXZXZXZXZXZXZXZXZXZXZXZXZXZXZXZX            = L <.5.5.2.<.W Y F - .                   ZXZXZXZXZXZXZXZXZXZXZXZXZXZXZXZXZXZXZXZXZX",
"ZXZXZXZXZXZXZXZXZXZXZXZXZXZXZXZXZXZX      o ; G R W >.>.>.W W Y B O                   ZXZXZXZXZXZXZXZXZXZXZXZXZXZXZXZXZXZXZXZXZXZX",
"ZXZXZXZXZXZXZXZXZXZXZXZXZXZXZXZXZXZXZX    O ; , > : : : ; : ; < ; o                 ZXZXZXZXZXZXZXZXZXZXZXZXZXZXZXZXZXZXZXZXZXZXZX",
"ZXZXZXZXZXZXZXZXZXZXZXZXZXZXZXZXZXZXZXZXZX    .       . .   . .                 ZXZXZXZXZXZXZXZXZXZXZXZXZXZXZXZXZXZXZXZXZXZXZXZXZX",
"ZXZXZXZXZXZXZXZXZXZXZXZXZXZXZXZXZXZXZXZXZXZXZXZX                          ZXZXZXZXZXZXZXZXZXZXZXZXZXZXZXZXZXZXZXZXZXZXZXZXZXZXZXZX"
};
