/* XPM */
static char *_ff20016d0364174b776f86c6c69d68bUv6sjsxUnqBCTOqH[] = {
/* columns rows colors chars-per-pixel */
"32 32 176 2 ",
"   c None",
".  c #000000",
"X  c #0C0200",
"o  c gray5",
"O  c #150500",
"+  c #1B0B00",
"@  c #110115",
"#  c #220E00",
"$  c #371600",
"%  c #2C183E",
"&  c #35393A",
"*  c #5D2500",
"=  c #45301D",
"-  c #712F00",
";  c #682403",
":  c #45082A",
">  c #722829",
",  c #3B413B",
"<  c #674801",
"1  c #7B663D",
"2  c #391850",
"3  c #3E006D",
"4  c #36026A",
"5  c #3F0072",
"6  c #571F4A",
"7  c #701259",
"8  c #40006F",
"9  c #410071",
"0  c #46027C",
"q  c #49037F",
"w  c #48087C",
"e  c #55087E",
"r  c #600762",
"t  c #6F1C74",
"y  c #452060",
"u  c #3F4443",
"i  c #4D4A4F",
"p  c gray35",
"a  c #61625F",
"s  c #574664",
"d  c #625F63",
"f  c #666667",
"g  c #6F6872",
"h  c #777979",
"j  c #863A00",
"k  c #933F00",
"l  c #A93B13",
"z  c #99252B",
"x  c #B23824",
"c  c #8A4200",
"v  c #924500",
"b  c #A84C00",
"n  c #AF5A00",
"m  c #B85904",
"M  c #BF641F",
"N  c #9F5C23",
"B  c #C45900",
"V  c #D45600",
"C  c #C26000",
"Z  c #CF7D00",
"A  c #D57800",
"S  c #D77900",
"D  c #C96413",
"F  c #E16400",
"G  c #E97F00",
"H  c #D15D29",
"J  c #C97536",
"K  c #8D1F50",
"L  c #9F1D5D",
"P  c #B33153",
"I  c #831F7E",
"U  c #A72A6A",
"Y  c #B62C70",
"T  c #B43374",
"R  c #BD3B7B",
"E  c #B73B7E",
"W  c #AB3376",
"Q  c #C13E7F",
"!  c #9E4153",
"~  c #B94748",
"^  c #906D4B",
"/  c #B44078",
"(  c #D86846",
")  c #C84C6B",
"_  c #BA8235",
"`  c #D58500",
"'  c #D69300",
"]  c #F88D00",
"[  c #F49100",
"{  c #EEA100",
"}  c #F4A900",
"|  c #FFD700",
" . c #FBC528",
".. c #AC8C77",
"X. c #F7DC5F",
"o. c #4A0484",
"O. c #4A0688",
"+. c #51048D",
"@. c #51098D",
"#. c #4E0097",
"$. c #540A94",
"%. c #590B9A",
"&. c #550794",
"*. c #561394",
"=. c #5B1495",
"-. c #5C129B",
";. c #621799",
":. c #6B1688",
">. c #6B259A",
",. c #5F1DBA",
"<. c #5D07A2",
"1. c #6818AA",
"2. c #6A1CBC",
"3. c #6109A9",
"4. c #6721A9",
"5. c #6B23B4",
"6. c #6F27BC",
"7. c #7326BB",
"8. c #7629B8",
"9. c #7B34BD",
"0. c #7331B1",
"q. c #7E2CC2",
"w. c #7D32C3",
"e. c #BF3890",
"r. c #8C26A7",
"t. c #C93E8D",
"y. c #B05586",
"u. c #B96789",
"i. c #BE4BAF",
"p. c #C44283",
"a. c #CA4B8B",
"s. c #C94A87",
"d. c #D44D8C",
"f. c #D94C87",
"g. c #DA5393",
"h. c #DD5C9A",
"j. c #D25D95",
"k. c #E15B9A",
"l. c #E25590",
"z. c #D8639B",
"x. c #DD5CA1",
"c. c #E763A1",
"v. c #EA66A3",
"b. c #EA6CA6",
"n. c #ED66AA",
"m. c #F178AF",
"M. c #E778B5",
"N. c #F578B1",
"B. c #8339C3",
"V. c #8237C6",
"C. c #7C8185",
"Z. c #898B86",
"A. c #989798",
"S. c #998A83",
"D. c #A08D83",
"F. c #AFB1AD",
"G. c #B7B7B8",
"H. c #ABADB0",
"J. c #F58FA4",
"K. c #EB86B6",
"L. c #FA8ABC",
"P. c #F990BA",
"I. c #C3BDBC",
"U. c #B9BFC3",
"Y. c #F89BC5",
"T. c #FFA6CD",
"R. c #F5AED0",
"E. c #C6C6C6",
"W. c gray80",
"Q. c #DBDBDB",
"!. c #E0DFDF",
"~. c #E6E7E9",
"^. c #EBECED",
"/. c #E5E4E5",
"(. c #EEECF1",
"). c #F7F9FA",
/* pixels */
"                                ) t.                            ",
"                              h.L W                             ",
"                            h.j.                                ",
"                        t.h.L.s.                                ",
"                      p.L.Y.m.R T                               ",
"                      n.K.Y.b.v.d.R                             ",
"                    ) T.P.L.m.c.k.g.U                           ",
"                    y.z.h.n.g.a.R g.t.                          ",
"                    R s.v.k.c.a.R g.f.r                         ",
"                    d.k.R.T.v.g.d.g.U :.                        ",
"                    T m.T.P.N.n.e.t +.$.w                       ",
"                    e e.x.i.r.8.;.O.8.B.4.                      ",
"                  o.O.=.1.2.-.:.8.0.=.r.V.w                     ",
"              +.w @.w *.4 > W f.7 1.B.*.8.$.                    ",
"            q 0 =.2.t ; < D h.K.T K 4.0.@.<.                    ",
"                w.6.t V Z ~ e.M.a.x 7 ,.8.+.+.                  ",
"              o.2.I M.J.( x z s.x.P / #.V.;.0                   ",
"                ! ) u.y.6 c [ H E : @ o.7.4.+.                  ",
"                G * . . * n { [ l u , 2 &.7.3.9                 ",
"                B ^ f Z.J X.} F N h h i 0 1.2.o.                ",
"                S.~.).(.J  .{ m ..C.Z.f 4 +.9.7.o.              ",
"                G.(.!.(.I.D M ..U.A.A.h 3 8 %.w.-.q             ",
"                A.G.Q.!.)././.~.E.G.C.y 5 3 3 %.9.=.0           ",
"                  f G.E.Q.!.).Q.^.F.s 4 8 8 9 3 %.1.=.w         ",
"                  o p C.H.E.W.H.A.a     9 9 8 8 3 0 5.8.@.      ",
"                  . . = a & & & %         9 8 9 8 3 4 1.r.@.    ",
"                    . * v O X O . .           9       9 %.1.    ",
"                    . . n ` ' S - . . . .               4 $.$.  ",
"                . . . . n | | [ b . . . . .                 9   ",
"                . . . X n ` A m k X . . . .                     ",
"                  . X c S ` A B $ . . . .                       ",
"                    . # O O O + X . . .                         "
};
