/* XPM */
static char *result[] = {
/* columns rows colors chars-per-pixel */
"65 65 236 2 ",
"   c #000000",
".  c #0B0402",
"X  c #0A080D",
"o  c #160800",
"O  c #0E0119",
"+  c #171716",
"@  c #3A1800",
"#  c #2A1200",
"$  c #242424",
"%  c gray17",
"&  c #363636",
"*  c #1C0F2B",
"=  c #451B02",
"-  c #4C2100",
";  c #572601",
":  c #40251F",
">  c #652A00",
",  c #732E11",
"<  c #4D1030",
"1  c #682229",
"2  c #7A5234",
"3  c #340C56",
"4  c #3E006D",
"5  c #380564",
"6  c #3E0072",
"7  c #591054",
"8  c #731354",
"9  c #6B314E",
"0  c #421766",
"q  c #420173",
"w  c #45037B",
"e  c #4C0D7D",
"r  c #480478",
"t  c #57097A",
"y  c #4F1171",
"u  c #73156D",
"i  c #5E3160",
"p  c #595959",
"a  c #4B4B4D",
"s  c #704D5D",
"d  c #5C5561",
"f  c #6C6D6C",
"g  c #636564",
"h  c #747474",
"j  c #78797A",
"k  c #70746C",
"l  c #715763",
"z  c #863804",
"x  c #953E00",
"c  c #A53D0A",
"v  c #943231",
"b  c #9B4600",
"n  c #A54400",
"m  c #AB4A00",
"M  c #A34900",
"N  c #B34B00",
"B  c #B54800",
"V  c #B55001",
"C  c #BC5603",
"Z  c #B64E15",
"A  c #BE6700",
"S  c #BF7200",
"D  c #8C5C39",
"F  c #A94527",
"G  c #B45125",
"H  c #CA5C00",
"J  c #C25803",
"K  c #D55D00",
"L  c #CD5110",
"P  c #C86702",
"I  c #D26100",
"U  c #D76800",
"Y  c #C77903",
"T  c #D67900",
"R  c #D26913",
"E  c #E77700",
"W  c #ED6F00",
"Q  c #CC502C",
"!  c #DF6216",
"~  c #9B1A5B",
"^  c #941757",
"/  c #911749",
"(  c #9B215C",
")  c #98234B",
"_  c #B43054",
"`  c #981B62",
"'  c #902873",
"]  c #A72768",
"[  c #AB2A76",
"{  c #AE3378",
"}  c #B43373",
"|  c #BC3A7A",
" . c #B83578",
".. c #B43470",
"X. c #A31764",
"o. c #C13D7E",
"O. c #C93D77",
"+. c #C43B67",
"@. c #877565",
"#. c #A2634B",
"$. c #C8427C",
"%. c #C95545",
"&. c #DB8600",
"*. c #D69707",
"=. c #EA9A00",
"-. c #F29A00",
";. c #F28900",
":. c #F8A400",
">. c #F8BB03",
",. c #E8A900",
"<. c #D58425",
"1. c #FBC500",
"2. c #FBCA00",
"3. c #FAD700",
"4. c #F6CB19",
"5. c #81847E",
"6. c #B1937B",
"7. c #DFAD5E",
"8. c #FCE257",
"9. c #4A0483",
"0. c #4D0C83",
"q. c #4E038A",
"w. c #4E0A8A",
"e. c #460484",
"r. c #51058C",
"t. c #520B8C",
"y. c #5E0887",
"u. c #56158B",
"i. c #530393",
"p. c #5A059D",
"a. c #560997",
"s. c #5B1698",
"d. c #611D96",
"f. c #77168B",
"g. c #642299",
"h. c #7E338F",
"j. c #5A08A4",
"k. c #5C16A6",
"l. c #630CAC",
"z. c #6207AE",
"x. c #6113A4",
"c. c #631DA3",
"v. c #6513AD",
"b. c #651DAA",
"n. c #6B1AAA",
"m. c #6B1CB3",
"M. c #6917B4",
"N. c #7319AD",
"B. c #6B26A6",
"V. c #6D23B6",
"C. c #6E25B8",
"Z. c #7226BB",
"A. c #742CBB",
"S. c #7428B6",
"D. c #7C33BC",
"F. c #7831B6",
"G. c #702DAC",
"H. c #7F7E80",
"J. c #7A2CC6",
"K. c #7D35C2",
"L. c #6C20C7",
"P. c #902F95",
"I. c #B63F84",
"U. c #833DBC",
"Y. c #962BA7",
"T. c #831DA5",
"R. c #C73F83",
"E. c #B14895",
"W. c #8E44AF",
"Q. c #9D7E8F",
"!. c #C44382",
"~. c #CB4586",
"^. c #CE4A8B",
"/. c #C94787",
"(. c #D44D8D",
"). c #D84D85",
"_. c #D7518C",
"`. c #DA5393",
"'. c #D75896",
"]. c #D05292",
"[. c #E35C9C",
"{. c #E25796",
"}. c #D56399",
"|. c #D5678B",
" X c #E5659E",
".X c #E6648C",
"XX c #DF71A6",
"oX c #EA64A4",
"OX c #EB6CA9",
"+X c #F269A8",
"@X c #EB75AB",
"#X c #F574AC",
"$X c #F37BB2",
"%X c #FA79B4",
"&X c #EB71B2",
"*X c #DD5BA8",
"=X c #843CC3",
"-X c #873AC8",
";X c #8942C6",
":X c #8D44C9",
">X c #934BCB",
",X c #9047CB",
"<X c #9149D0",
"1X c #848484",
"2X c #88898B",
"3X c #939494",
"4X c #9A9A9B",
"5X c #959992",
"6X c #918F90",
"7X c #A5A5A5",
"8X c #A9A9A9",
"9X c #B2B2B3",
"0X c #BBBBBB",
"qX c #B3B1AF",
"wX c #9D9991",
"eX c #F987B9",
"rX c #F18EB9",
"tX c #D6979E",
"yX c #F9E088",
"uX c #F999C4",
"iX c #F48FC5",
"pX c #FBA3CB",
"aX c #FDACD0",
"sX c #F9B6D6",
"dX c #C3C3C3",
"fX c #CCCCCC",
"gX c #D4D4D4",
"hX c #DBDBDB",
"jX c #CAD6CF",
"kX c #E3E3E3",
"lX c #EBEBEB",
"zX c #F3F3F3",
"xX c #FBFBFB",
"cX c #ECF3F5",
"vX c #DAE4EB",
"bX c None",
/* pixels */
"bXbXbXbXbXbXbXbXbXbXbXbXbXbXbXbXbXbXbXbXbXbXbXbXbXbXbXbXbXbXbXbXbXbXbXbXbXbXbXbXbXbXbXbXbXbXbXbXbXbXbXbXbXbXbXbXbXbXbXbXbXbXbXbXbX",
"bXbXbXbXbXbXbXbXbXbXbXbXbXbXbXbXbXbXbXbXbXbXbXbXbXbXbXbXbXbXbXbX| |  . .o.bXbXbXbXbXbXbXbXbXbXbXbXbXbXbXbXbXbXbXbXbXbXbXbXbXbXbXbX",
"bXbXbXbXbXbXbXbXbXbXbXbXbXbXbXbXbXbXbXbXbXbXbXbXbXbXbXbXbXbX{ !.oX XO.o.[.!.bXbXbXbXbXbXbXbXbXbXbXbXbXbXbXbXbXbXbXbXbXbXbXbXbXbXbX",
"bXbXbXbXbXbXbXbXbXbXbXbXbXbXbXbXbXbXbXbXbXbXbXbXbXbXbXbXbX^.'.'.^.E.] ..o.bXbXbXbXbXbXbXbXbXbXbXbXbXbXbXbXbXbXbXbXbXbXbXbXbXbXbXbX",
"bXbXbXbXbXbXbXbXbXbXbXbXbXbXbXbXbXbXbXbXbXbXbXbXbXbXbXbX^.@XeX/.~ ^ bXbXbXbXbXbXbXbXbXbXbXbXbXbXbXbXbXbXbXbXbXbXbXbXbXbXbXbXbXbXbX",
"bXbXbXbXbXbXbXbXbXbXbXbXbXbXbXbXbXbXbXbXbXbXbXbXbXbXbXR.oXeX].( bXbXbXbXbXbXbXbXbXbXbXbXbXbXbXbXbXbXbXbXbXbXbXbXbXbXbXbXbXbXbXbXbX",
"bXbXbXbXbXbXbXbXbXbXbXbXbXbXbXbXbXbXbXbXbXbXbXbXbXbX} !.oX/.` bXbXbXbXbXbXbXbXbXbXbXbXbXbXbXbXbXbXbXbXbXbXbXbXbXbXbXbXbXbXbXbXbXbX",
"bXbXbXbXbXbXbXbXbXbXbXbXbXbXbXbXbXbXbXbXbXbXbX| } | (.oXrX$X/.~ bXbXbXbXbXbXbXbXbXbXbXbXbXbXbXbXbXbXbXbXbXbXbXbXbXbXbXbXbXbXbXbXbX",
"bXbXbXbXbXbXbXbXbXbXbXbXbXbXbXbXbXbXbXbXbXbXbX!.(. X@XiXuX'...] ~ bXbXbXbXbXbXbXbXbXbXbXbXbXbXbXbXbXbXbXbXbXbXbXbXbXbXbXbXbXbXbXbX",
"bXbXbXbXbXbXbXbXbXbXbXbXbXbXbXbXbXbXbXbXbX| $.'.%XrXpXuX}.o.| o.] ^ bXbXbXbXbXbXbXbXbXbXbXbXbXbXbXbXbXbXbXbXbXbXbXbXbXbXbXbXbXbXbX",
"bXbXbXbXbXbXbXbXbXbXbXbXbXbXbXbXbXbXbXbXbX| '.%XuXuXrX$X'.o.~.(.| ] ^ bXbXbXbXbXbXbXbXbXbXbXbXbXbXbXbXbXbXbXbXbXbXbXbXbXbXbXbXbXbX",
"bXbXbXbXbXbXbXbXbXbXbXbXbXbXbXbXbXbXbXbXbX/.oXeXaXrX'.@X$X$.| `._.| ] ~ bXbXbXbXbXbXbXbXbXbXbXbXbXbXbXbXbXbXbXbXbXbXbXbXbXbXbXbXbX",
"bXbXbXbXbXbXbXbXbXbXbXbXbXbXbXbXbXbXbXbX^.'.^.OXuXpXrXrXeX+X+XoX`.(.| ] ^ bXbXbXbXbXbXbXbXbXbXbXbXbXbXbXbXbXbXbXbXbXbXbXbXbXbXbXbX",
"bXbXbXbXbXbXbXbXbXbXbXbXbXbXbXbXbXbXbX..].rXrXuXrXiXiXrXeX%X%X+X`.`.(...~ bXbXbXbXbXbXbXbXbXbXbXbXbXbXbXbXbXbXbXbXbXbXbXbXbXbXbXbX",
"bXbXbXbXbXbXbXbXbXbXbXbXbXbXbXbXbXbXbX] '.pXaXuXrXeX$X'.(._.[.[.`.`.`.o.( bXbXbXbXbXbXbXbXbXbXbXbXbXbXbXbXbXbXbXbXbXbXbXbXbXbXbXbX",
"bXbXbXbXbXbXbXbXbXbXbXbXbXbXbXbXbXbXbX{ o.}.$XeXeX#X'.(.].!.| ^.`._.(.^.} ~ bXbXbXbXbXbXbXbXbXbXbXbXbXbXbXbXbXbXbXbXbXbXbXbXbXbXbX",
"bXbXbXbXbXbXbXbXbXbXbXbXbXbXbXbXbXbXbXbX} } (.[.+X'.(.OXoXE.} o.(.`.`.`.O.( bXbXbXbXbXbXbXbXbXbXbXbXbXbXbXbXbXbXbXbXbXbXbXbXbXbXbX",
"bXbXbXbXbXbXbXbXbXbXbXbXbXbXbXbXbXbXbX} /.[.`.`.`.(.[.@X| ] | o.(.`.(.`.~.` bXbXbXbXbXbXbXbXbXbXbXbXbXbXbXbXbXbXbXbXbXbXbXbXbXbXbX",
"bXbXbXbXbXbXbXbXbXbXbXbXbXbXbXbXbXbXbXo.`.[.+X#X$X X[.+X X(.o.o.(.`.`.`.O.` y bXbXbXbXbXbXbXbXbXbXbXbXbXbXbXbXbXbXbXbXbXbXbXbXbXbX",
"bXbXbXbXbXbXbXbXbXbXbXbXbXbXbXbXbXbX} ^.~.~.@XuXaXrXoX{._.!.o.~.(._.`._.O.` t bXbXbXbXbXbXbXbXbXbXbXbXbXbXbXbXbXbXbXbXbXbXbXbXbXbX",
"bXbXbXbXbXbXbXbXbXbXbXbXbXbXbXbXbXbX .I.~.}.rXsXsXpXeX X(.(.`.[.{.{.).I.u u d.l.bXbXbXbXbXbXbXbXbXbXbXbXbXbXbXbXbXbXbXbXbXbXbXbXbX",
"bXbXbXbXbXbXbXbXbXbXbXbXbXbXbXbXbXbXbX ._.eXpXaXaXuXeXeX%X#X%X+X_.I.[ u w 0.d.p.w bXbXbXbXbXbXbXbXbXbXbXbXbXbXbXbXbXbXbXbXbXbXbXbX",
"bXbXbXbXbXbXbXbXbXbXbXbXbXbXbXbXbXbXbX] /.&XeXuXrXeX%X%XOX*X*X(.{ t 9.r.j.j.w.w w bXbXbXbXbXbXbXbXbXbXbXbXbXbXbXbXbXbXbXbXbXbXbXbX",
"bXbXbXbXbXbXbXbXbXbXbXbXbXbXbXbXbXbXbXbX' R.'.#X%XeX#X*XY.N.N.f.t q.k.V.Z.m.B.c.x.r.bXbXbXbXbXbXbXbXbXbXbXbXbXbXbXbXbXbXbXbXbXbXbX",
"bXbXbXbXbXbXbXbXbXbXbXbXbXbXbXbXbXbXbXbXt.u o.).I.Y.Y.T.n.A.K.Z.s.e.0.c.K.=X;X=XD.x.q.bXbXbXbXbXbXbXbXbXbXbXbXbXbXbXbXbXbXbXbXbXbX",
"bXbXbXbXbXbXbXbXbXbXbXbXbXbXbXbXbXbXbXr.w q T.' N.Z.-XZ.c.g.A.-X=XB.u.w.c.=X>X>X-XA.k.q bXbXbXbXbXbXbXbXbXbXbXbXbXbXbXbXbXbXbXbXbX",
"bXbXbXbXbXbXbXbXbXbXbXbXbXbXbXbXbX4 x.t.r u.N.v.j.k.V.B.y 3 3 w.F.:X=Xc.w.c.=X>X>X;XS.9.bXbXbXbXbXbXbXbXbXbXbXbXbXbXbXbXbXbXbXbXbX",
"bXbXbXbXbXbXbXbXbXbXbXbXbXbX9.w 4 w s.t.e.b.J.x.y.y e u v ; O * 5 G.-X=Xd.w.B.=X>X>X;Xx.w bXbXbXbXbXbXbXbXbXbXbXbXbXbXbXbXbXbXbXbX",
"bXbXbXbXbXbXbXbXbXbXbXbXbXr.p.r.w a.a.6 6 0.t u { E.' ~ L J ; . O 5 b.U.=Xc.w.c.=X>X:XS.t.bXbXbXbXbXbXbXbXbXbXbXbXbXbXbXbXbXbXbXbX",
"bXbXbXbXbXbXbXbXbXbXbXbXq.r.9.t.x.l.k.i.7 1 / [  X#XoXO.%.! Y ; X O 5 g.K.A.s.w.c.=X>X=Xx.bXbXbXbXbXbXbXbXbXbXbXbXbXbXbXbXbXbXbXbX",
"bXbXbXbXbXbXbXbXbXbXbXq 9.bX5 0.V.j.J.v.7 v +.{.rXrX X[ ` <.,., . . 1 ' k.C.A.s.t.B.-X,XS.t.bXbXbXbXbXbXbXbXbXbXbXbXbXbXbXbXbXbXbX",
"bXbXbXbXbXbXbXbXbXbXbXbXbXbXbXk.J.L.P.s 8 ` (.%XrX'./.` ^ R =.b @ - M v e.m.J.K.d.9.B.,XD.t.bXbXbXbXbXbXbXbXbXbXbXbXbXbXbXbXbXbXbX",
"bXbXbXbXbXbXbXbXbXbXbXbXbXbX7 h.W.E.v Z Z )  .@X^. .R.[ _ R Y F F G Z v w j.m.-XA.t.0.U.A.a.bXbXbXbXbXbXbXbXbXbXbXbXbXbXbXbXbXbXbX",
"bXbXbXbXbXbXbXbXbXbXbXbXbXD F F G Q P I K F ..'.*X(.I._ Q ! %..X#X.X$.] u w j.Z.=XG.e x.Z.m.q.bXbXbXbXbXbXbXbXbXbXbXbXbXbXbXbXbXbX",
"bXbXbXbXbXbXbXbXbXbXbXbXB 7.7.L C U =.-.U G |.oX+X`.{ ) B Q _.rXuX&X'.} 8 r i.t.d.=XB.w.G.-Xs.4 bXbXbXbXbXbXbXbXbXbXbXbXbXbXbXbXbX",
"bXbXbXbXbXbXbXbXbXbXbXbXc 7.yX7.<.P ,.:.K Q eXiX{.o.( < @ < 9 s l 9 9 < < w j.9.t.=XG.e B.-XF.bXbXbXbXbXbXbXbXbXbXbXbXbXbXbXbXbXbX",
"bXbXbXbXbXbXbXbXbXbXbXbXc *.8.8.4.T E ;.K Q |.'.R.^ < .                 O 3 9.a.s.c.x.s.V.;X:Xc.q bXbXbXbXbXbXbXbXbXbXbXbXbXbXbXbX",
"bXbXbXbXbXbXbXbXbXbXbXbXm &.>.>.1.T W W K Z ] X./ < .       X & a & % + + * 0 k.s.w l.m.S.K.=Xc.q bXbXbXbXbXbXbXbXbXbXbXbXbXbXbXbX",
"bXbXbXbXbXbXbXbXbXbXbXbXn I ;.:.:.I W K m z ~ ` < $ $ $ % $ a 5X9X8X5.p p d y i.t.9.j.l.V.S.A.b.w bXbXbXbXbXbXbXbXbXbXbXbXbXbXbXbX",
"bXbXbXbXbXbXbXbXbXbXbXbXbXB U E W Z Z L , : l 6X3X6X3X7X7X4X4X9XdX9X6Xj k d 5 w a.s.q.j.k.m.Z.Z.c.bXbXbXbXbXbXbXbXbXbXbXbXbXbXbXbX",
"bXbXbXbXbXbXbXbXbXbXbXbXbXbXB L J #.6.tX6.j 4XjXcXkXhXxXxXkXfX0X4X1Xf f k a i 5 u.V.g.t.p.l.S.=XA.k.bXbXbXbXbXbXbXbXbXbXbXbXbXbXbX",
"bXbXbXbXbXbXbXbXbXbXbXbXbXbXbXD #.9XvXcXcXkXjXcXxXkXhXzXxXgXfXfX9X2Xp g 5.g a 0 e.B.F.e r.z.N.=XK.;XB.bXbXbXbXbXbXbXbXbXbXbXbXbXbX",
"bXbXbXbXbXbXbXbXbXbXbXbXbXbXbX1X0XhXcXzXxXlXjXkXxXzXkXkXzXkXgXfX0X7Xh j 4X5.p 0 4 t.b.s.t.j.v.S.;X>X;Xs.5 bXbXbXbXbXbXbXbXbXbXbXbX",
"bXbXbXbXbXbXbXbXbXbXbXbXbXbXbX3XgXxXxXvXkXcXkXkXzXxXlXgXlXxXkXfXdX7X1X1X8X5Xd 3 6 w v.F.d.9.z.v.S.;X,XB.r bXbXbXbXbXbXbXbXbXbXbXbX",
"bXbXbXbXbXbXbXbXbXbXbXbXbXbXbX3XgXxXxXdXdXlXzXgXkXxXzXhXlXxXzXlXgX0X6X2X8X5Xd 0 q q 9.n.F.g.9.j.k.v.Z.Z.B.b.0.r bXbXbXbXbXbXbXw 4 ",
"bXbXbXbXbXbXbXbXbXbXbXbXbXbXbX2X9XhXkX9X9XkXxXhXkXxXxXlXhXkXxXxXzXgX7X4X4X5.p bXbX4 4 9.n.F.g.q.j.j.z.v.m.Z.c.k.bXbXbXbXbXbX9.r.q ",
"bXbXbXbXbXbXbXbXbXbXbXbXbXbXbXj 6X9XfX8X5X0XkXcXkXkXzXxXkXgXkXzXxXkX9X5X1Xg p bXbXq 4 4 0.G.U.s.r.r.q.i.l.M.M.M.n.0.bXbXg.B.n.p.q ",
"bXbXbXbXbXbXbXbXbXbXbXbXbXbXbXbXj 2X9X6Xk 6XdXlXhXhXlXxXzXhXdXgXlXgX9X2Xp & bXbXbX6 q 4 4 a.J.U.d.u.u.t.i.i.i.i.s.g.u.d.U.<XF.bXbX",
"bXbXbXbXbXbXbXbXbXbXbXbXbXbXbXbX@.@.h g g h 5XdXlXkXkXlXkXgXdXfXgXdX7Xk % . bXbXbXbX6 4 q r.v.A.W.>X:XB.e 0.0.0.e g.;X;XA.L.s.bXbX",
"bXbXbXbXbXbXbXbXbXbXbXbXbXbXbXV J R 2 g g p h 4XdXgXfXhXhX0X9XdXdX7Xf % X     bXbXbXbX6 6 q r.v.A.A.F.D.W.U.W.K.W.K.A.J.C.b.t.bXbX",
"bXbXbXbXbXbXbXbXbXbXm m bXbXV H K K A D p a d h 4X8X9XgX0X7X8X4Xh p % X     . o > bXbXbXbXbXbXr.l.v.m.K.=XK.K.K.K.K.C.C.M.i.bXbXbX",
"bXbXbXbXbXbXbXbXm m J C m N H I I K U Z 2 a bXg f f j 1Xj h g & $ + X     o = > x J bXbXbXbXbXbX9.r.j.V.C.C.C.C.C.A.C.b.l.9.bXbXbX",
"bXbXbXbXbXbXbXbXM N H I C H I I I I H N bXbXbX% % % % $ % % +           . ; Y =.&.U V bXbXbXbXbXbXbXbXx.m.m.m.m.m.m.n.i.r.bXbXbXbX",
"bXbXbXbXbXbXbXbXbXbXm H I I I I I H V bXbXbXbX                        . ; P 1.3.1.-.U V bXbXbXbXbXbXbX9.p.p.p.p.j.p.bXbX4 bXbXbXbX",
"bXbXbXbXbXbXbXbXbXbXbXm J I I I H M bX                                = A -.:.1.3.2.=.I B bXbXbXbXbXbXbXq q q q q q bXbXbXbXbXbXbX",
"bXbXbXbXbXbXbXbXbXbXbXbXm J I I m @                                   ; H U T ,.2.3.,.C V C n bXbXbXbXbXbXbXbXbXbXbXbXbXbXbXbXbXbX",
"bXbXbXbXbXbXbXbXbXbXbXbXbXN H b = .                                   o > m C U :.,.Y *.,.&.N n bXbXbXbXbXbXbXbXbXbXbXbXbXbXbXbXbX",
"bXbXbXbXbXbXbXbXbXbXbXbXbXbXx = .                                       # - > x P P T 3.3.&.B bXbXbXbXbXbXbXbXbXbXbXbXbXbXbXbXbXbX",
"bXbXbXbXbXbXbXbXbXbXbXbXbXbXbX.                                             # , V T 1.1.=.P x bXbXbXbXbXbXbXbXbXbXbXbXbXbXbXbXbXbX",
"bXbXbXbXbXbXbXbXbXbXbXbXbXbXbX                                            @ b H &.1.2.:.P N n bXbXbXbXbXbXbXbXbXbXbXbXbXbXbXbXbXbX",
"bXbXbXbXbXbXbXbXbXbXbXbXbXbXbXbX                                        @ b =.:.>.2.>.T N n bXbXbXbXbXbXbXbXbXbXbXbXbXbXbXbXbXbXbX",
"bXbXbXbXbXbXbXbXbXbXbXbXbXbXbXbXbX                                    = x C P P A Y A m bXbXbXbXbXbXbXbXbXbXbXbXbXbXbXbXbXbXbXbXbX",
"bXbXbXbXbXbXbXbXbXbXbXbXbXbXbXbXbXbXbX                                # ; - - z bXbXbXbXbXbXbXbXbXbXbXbXbXbXbXbXbXbXbXbXbXbXbXbXbX",
"bXbXbXbXbXbXbXbXbXbXbXbXbXbXbXbXbXbXbXbX                                .   o bXbXbXbXbXbXbXbXbXbXbXbXbXbXbXbXbXbXbXbXbXbXbXbXbXbX",
"bXbXbXbXbXbXbXbXbXbXbXbXbXbXbXbXbXbXbXbXbXbXbX                          bXbXbXbXbXbXbXbXbXbXbXbXbXbXbXbXbXbXbXbXbXbXbXbXbXbXbXbXbX"
};
