/* XPM */
static char *_447c85941d84afad8a6a65f8f187e5fuWMhsd2n9nrHxTnW[] = {
/* columns rows colors chars-per-pixel */
"32 32 182 2 ",
"   c None",
".  c #000000",
"X  c #0D0400",
"o  c #160600",
"O  c #09130F",
"+  c #0E0015",
"@  c #141415",
"#  c #181818",
"$  c #2D1100",
"%  c #361800",
"&  c #1A211E",
"*  c #441E00",
"=  c #4D2000",
"-  c #542300",
";  c #5E2600",
":  c #6C2D00",
">  c #7C3200",
",  c #642312",
"<  c #3C006E",
"1  c #370075",
"2  c #530C49",
"3  c #790C45",
"4  c #473951",
"5  c #7E2954",
"6  c #48136F",
"7  c #46017B",
"8  c #490E7A",
"9  c #420074",
"0  c #56067E",
"q  c #4B177C",
"w  c #69076C",
"e  c gray31",
"r  c #5C544F",
"t  c #67655D",
"y  c #5B5F61",
"u  c #5C5165",
"i  c #676866",
"p  c #6F716E",
"a  c gray48",
"s  c #73676E",
"d  c #81301D",
"f  c #863800",
"g  c #943B38",
"h  c #9C4400",
"j  c #905300",
"k  c #A14500",
"l  c #A94800",
"z  c #B44B00",
"x  c #B94806",
"c  c #BC5200",
"v  c #B95E13",
"b  c #A05122",
"n  c #A56937",
"m  c #C75B00",
"M  c #CA5B01",
"N  c #D65F02",
"B  c #D0501F",
"V  c #CA6400",
"C  c #C76700",
"Z  c #DD6600",
"A  c #D86700",
"S  c #CA7100",
"D  c #F36D00",
"F  c #E27C00",
"G  c #F57B00",
"H  c #D0512E",
"J  c #83184B",
"K  c #8F1D5C",
"L  c #991A5A",
"P  c #AB3C4D",
"I  c #833E63",
"U  c #8E2779",
"Y  c #AB296A",
"T  c #A12060",
"R  c #B6326D",
"E  c #B53374",
"W  c #B93977",
"Q  c #B72F78",
"!  c #C13C7C",
"~  c #B85141",
"^  c #AA7D5F",
"/  c #895170",
"(  c #DC674D",
")  c #CC4760",
"_  c #DA8700",
"`  c #D69400",
"'  c #EA9C00",
"]  c #E19F00",
"[  c #E8A201",
"{  c #FDA400",
"}  c #F0A100",
"|  c #EDB100",
" . c #CC892B",
".. c #FCC200",
"X. c #FFDC00",
"o. c #FFD81F",
"O. c #EBC25C",
"+. c #4C0887",
"@. c #54098A",
"#. c #57108C",
"$. c #4E0091",
"%. c #4D0B96",
"&. c #540594",
"*. c #570C96",
"=. c #5C1594",
"-. c #5B139B",
";. c #5F1A97",
":. c #601C9E",
">. c #61169E",
",. c #641383",
"<. c #7B3087",
"1. c #68259B",
"2. c #4F0AA0",
"3. c #5903A1",
"4. c #5D0DA1",
"5. c #5913A4",
"6. c #6011A5",
"7. c #6412AC",
"8. c #641BA7",
"9. c #6814B2",
"0. c #721AA9",
"q. c #6923A4",
"w. c #6C26A7",
"e. c #7123AE",
"r. c #6E24B7",
"t. c #7224BA",
"y. c #732BB7",
"u. c #7C32BC",
"i. c #772DC9",
"p. c #7D34C4",
"a. c #8C1D88",
"s. c #9C2D83",
"d. c #8E2CAB",
"f. c #9E33AE",
"g. c #C23B84",
"h. c #CC4A8A",
"j. c #C74685",
"k. c #D34B8D",
"l. c #C7508A",
"z. c #D65291",
"x. c #DB5494",
"c. c #D35A93",
"v. c #E25796",
"b. c #E8679C",
"n. c #F7718B",
"m. c #DD5DA5",
"M. c #E868A4",
"N. c #F96DAA",
"B. c #EB77AA",
"V. c #F577AB",
"C. c #EB7BB3",
"Z. c #F678B1",
"A. c #8136C2",
"S. c #843CC5",
"D. c #883CCD",
"F. c #8D44CB",
"G. c #954DCF",
"H. c #964DD1",
"J. c #7D8285",
"K. c #8C8C8C",
"L. c #828282",
"P. c #979797",
"I. c #8B949B",
"U. c #9EA19C",
"Y. c gray64",
"T. c #AAACAD",
"R. c gray72",
"E. c #F788B9",
"W. c #F897C3",
"Q. c #FDA9CE",
"!. c #F6A3C9",
"~. c #C1C1C1",
"^. c #CACDCC",
"/. c #D5D0CD",
"(. c #D4D4D4",
"). c #DCDCDC",
"_. c #DDE2E6",
"`. c #E3E3E3",
"'. c #ECECEC",
"]. c #F1F1F1",
"[. c #FAFAFB",
"{. c #F7F9F8",
/* pixels */
"                                z.W j.                          ",
"                            j.M.E T W                           ",
"                          E M.E                                 ",
"                        j.M.E.Y                                 ",
"                      z.E.W.c.! Y                               ",
"                    j.M.!.C.M.k.z.Y                             ",
"                    M.W.W.E.B.N.x.h.L                           ",
"                    l.C.Z.x.h.j.z.x.E                           ",
"                    k.v.v.M.k.Q k.x.!                           ",
"                  ! k.E.W.M.z.j.x.v.R @.                        ",
"                  W b.Q.Q.E.N.M.h.U 7 *.7                       ",
"                    s.b.C.m.f.d.0 @.i.q.-.                      ",
"                  +.7 a.0.t.5.i.u.=.q.H.F.-.                    ",
"              +.< *.%.8.,.,.> + q D.>.q.G.A.7                   ",
"            @.+.4.2.2 K B.k.H j . 8 A.-.q.G.>.                  ",
"              +.i.<.J v.C.g.P _ $ f =.p.=.e.u.                  ",
"              g ~ V x l.x.Q B ( n.) w 5.u.#.t.+.                ",
"             .O.S { N V.v.J , I / 5 2 &.8.w.q.y.                ",
"            S o.' D M Q 3 . . . & O @ +.*.-.y.S.7               ",
"            z G Z c : / s p a K.~.K.y 6 *.&.7.y.;.              ",
"              b ^ (.~.^.{.'.[.^.U.i p 4 &.1.$.t.F.:.            ",
"              J._.[.].`.[.`.].).R.a U.u < 8.>.3.u.F.+.          ",
"              J.).).(.'.'.].`.[.`.U.U.u < 7 e.=.&.7.t.8.        ",
"                I.T.K.`.`.[.`.).].R.i     < 7 u.=.@.&.4.-.+.1.y.",
"                n t y P.).`.).~.^.L.@       1 *.A.S.q.1.1.u.p.8.",
"          z l m Z v r y K.Y.Y.L.e # . o >       &.7.p.p.p.y.9.7 ",
"          m V A Z h     # # # . . . % ` } m         6.7.7.6.+.  ",
"            m Z k X . . . . . . . X V { X.[ z                   ",
"              h X . . . . . . . . . ; k _ ` | z                 ",
"              X . . . . . . . . . . . * C ..' l                 ",
"                . . . . . . . . . . : F [ [ z                   ",
"                    . . . . . . . X * *                         "
};
