/* XPM */
static char *result[] = {
/* columns rows colors chars-per-pixel */
"65 65 240 2 ",
"   c #000000",
".  c #0E0906",
"X  c #1C0C00",
"o  c #150908",
"O  c #0C0314",
"+  c #151516",
"@  c #1E0F10",
"#  c #270D02",
"$  c #2A1201",
"%  c #381600",
"&  c #340A1F",
"*  c #180031",
"=  c #3D3D3D",
"-  c #292929",
";  c #3D1034",
":  c #4B1D00",
">  c #411F1F",
",  c #572502",
"<  c #452206",
"1  c #672A03",
"2  c #7B3900",
"3  c #480E2F",
"4  c #6B2E28",
"5  c #413C38",
"6  c #674A39",
"7  c #6A5238",
"8  c #5A4739",
"9  c #33005A",
"0  c #320E53",
"q  c #3D314C",
"w  c #3E006D",
"e  c #390064",
"r  c #3D0172",
"t  c #38007A",
"y  c #290062",
"u  c #581159",
"i  c #411F5C",
"p  c #720C53",
"a  c #4A2E57",
"s  c #450669",
"d  c #441666",
"f  c #420273",
"g  c #45027B",
"h  c #48057D",
"j  c #470B77",
"k  c #570D71",
"l  c #6B1378",
"z  c #741978",
"x  c #680F68",
"c  c #5D3D61",
"v  c #4C4E4A",
"b  c #5D5B5E",
"n  c #4F4D54",
"m  c #594D64",
"M  c #676767",
"N  c #747574",
"B  c #7B7B7C",
"V  c #767678",
"C  c #6F7070",
"Z  c #715F5E",
"A  c #913B0A",
"S  c #9A2F2F",
"D  c #AB3734",
"F  c #A5391D",
"G  c #964100",
"H  c #9B4400",
"J  c #8A4914",
"K  c #AB4A02",
"L  c #B94B05",
"P  c #A75405",
"I  c #B85302",
"U  c #B74B16",
"Y  c #AF4F14",
"T  c #B4710B",
"R  c #9A5A33",
"E  c #8C5831",
"W  c #B24D2F",
"Q  c #BB7130",
"!  c #C75802",
"~  c #C55514",
"^  c #D85C0F",
"/  c #C76602",
"(  c #D46808",
")  c #D47B02",
"_  c #CD7200",
"`  c #E46903",
"'  c #E57700",
"]  c #F57F00",
"[  c #9A1C5A",
"{  c #89154F",
"}  c #8B2C51",
"|  c #A32741",
" . c #B4374B",
".. c #8B1C6A",
"X. c #942869",
"o. c #A92868",
"O. c #B43474",
"+. c #BC3A7B",
"@. c #B93677",
"#. c #AC2E73",
"$. c #A71F61",
"%. c #C13E7E",
"&. c #AF4B75",
"*. c #877364",
"=. c #A06156",
"-. c #CB5252",
";. c #CA6248",
":. c #D3477E",
">. c #D58E04",
",. c #E58800",
"<. c #F28A00",
"1. c #EA9900",
"2. c #F79A00",
"3. c #E29F14",
"4. c #EAA906",
"5. c #F4A800",
"6. c #F8B800",
"7. c #C58130",
"8. c #FCC602",
"9. c #FADC2D",
"0. c #AE8A70",
"q. c #B6825D",
"w. c #C69477",
"e. c #E7B074",
"r. c #FDEC79",
"t. c #4A0384",
"y. c #4D0B85",
"u. c #4E048A",
"i. c #490584",
"p. c #520D8C",
"a. c #510788",
"s. c #56148B",
"d. c #4A0795",
"f. c #540B92",
"g. c #5A0B9D",
"h. c #580699",
"j. c #561392",
"k. c #5A1798",
"l. c #6A1B89",
"z. c #6C1A99",
"x. c #652398",
"c. c #5C0BA3",
"v. c #5912A4",
"b. c #620DAA",
"n. c #631CA6",
"m. c #651CAB",
"M. c #6514AA",
"N. c #6B1CB3",
"B. c #6A18B4",
"V. c #791BAB",
"C. c #6A23AD",
"Z. c #6825A7",
"A. c #732DA8",
"S. c #7734AB",
"D. c #6F23B9",
"F. c #6B26B4",
"G. c #722AB3",
"H. c #742CBC",
"J. c #7B2EBC",
"K. c #7526BA",
"L. c #7A32BC",
"P. c #7B36B4",
"I. c #7C34C2",
"U. c #772AC0",
"Y. c #881E96",
"T. c #B43789",
"R. c #8C35B4",
"E. c #C53D80",
"W. c #BD458C",
"Q. c #8743BC",
"!. c #C54383",
"~. c #CA4585",
"^. c #CE4B8A",
"/. c #C84887",
"(. c #D44C8D",
"). c #DB5393",
"_. c #D85996",
"`. c #CC5091",
"'. c #E35B9C",
"]. c #E55795",
"[. c #D5669C",
"{. c #E3649A",
"}. c #E07F8F",
"|. c #E65EA0",
" X c #DF72A4",
".X c #EB65A3",
"XX c #E968A6",
"oX c #F16AA8",
"OX c #E973AA",
"+X c #F476AD",
"@X c #F979B3",
"#X c #E263B1",
"$X c #DD5EAD",
"%X c #843BC4",
"&X c #8539C7",
"*X c #8C43CA",
"=X c #8A41C6",
"-X c #944BCC",
";X c #F978C3",
":X c #7F8182",
">X c #838384",
",X c #8C8D8D",
"<X c #868889",
"1X c #989897",
"2X c #8C9190",
"3X c #A79385",
"4X c #A8A9A9",
"5X c #B3B3B3",
"6X c #B8B9BA",
"7X c #AAAFB3",
"8X c #A2A09F",
"9X c #ED86B6",
"0X c #F887B9",
"qX c #F792BD",
"wX c #E691B5",
"eX c #CBAF9E",
"rX c #F8EB92",
"tX c #BFBEC0",
"yX c #FB8DC2",
"uX c #FB9AC5",
"iX c #FA98C5",
"pX c #EC9AC4",
"aX c #FCA6CD",
"sX c #FBACD2",
"dX c #F9B6D7",
"fX c #BEC4C7",
"gX c #CCCCCC",
"hX c #C3C4C6",
"jX c #D3D4D4",
"kX c #DADADA",
"lX c #D0D5D8",
"zX c #CBD0D2",
"xX c #E4E4E4",
"cX c #EBEBEB",
"vX c #E6E8E9",
"bX c #F3F3F3",
"nX c #F8FBFD",
"mX c #EBF3F8",
"MX c #E0DFDF",
"NX c None",
/* pixels */
"NXNXNXNXNXNXNXNXNXNXNXNXNXNXNXNXNXNXNXNXNXNXNXNXNXNXNXNXNXNXNXNXNXNXNXNXNXNXNXNXNXNXNXNXNXNXNXNXNXNXNXNXNXNXNXNXNXNXNXNXNXNXNXNXNX",
"NXNXNXNXNXNXNXNXNXNXNXNXNXNXNXNXNXNXNXNXNXNXNXNXNXNXNXNXNXNXNXNX+.T.+.O.+.+.NXNXNXNXNXNXNXNXNXNXNXNXNXNXNXNXNXNXNXNXNXNXNXNXNXNXNX",
"NXNXNXNXNXNXNXNXNXNXNXNXNXNXNXNXNXNXNXNXNXNXNXNXNXNXNXNXNXNXNX/.{.|.~.o.%._./.NXNXNXNXNXNXNXNXNXNXNXNXNXNXNXNXNXNXNXNXNXNXNXNXNXNX",
"NXNXNXNXNXNXNXNXNXNXNXNXNXNXNXNXNXNXNXNXNXNXNXNXNXNXNXNXNXNX/.OX0X_.@.NXO.!.%.NXNXNXNXNXNXNXNXNXNXNXNXNXNXNXNXNXNXNXNXNXNXNXNXNXNX",
"NXNXNXNXNXNXNXNXNXNXNXNXNXNXNXNXNXNXNXNXNXNXNXNXNXNXNXNXNXO._.@X[.#.NXNXNXNXNXNXNXNXNXNXNXNXNXNXNXNXNXNXNXNXNXNXNXNXNXNXNXNXNXNXNX",
"NXNXNXNXNXNXNXNXNXNXNXNXNXNXNXNXNXNXNXNXNXNXNXNXNXNXNXNX+.E.{.XX/.NXNXNXNXNXNXNXNXNXNXNXNXNXNXNXNXNXNXNXNXNXNXNXNXNXNXNXNXNXNXNXNX",
"NXNXNXNXNXNXNXNXNXNXNXNXNXNXNXNXNXNXNXNXNXNXNXNXNXNXO.+.(..X0XyX[.o.NXNXNXNXNXNXNXNXNXNXNXNXNXNXNXNXNXNXNXNXNXNXNXNXNXNXNXNXNXNXNX",
"NXNXNXNXNXNXNXNXNXNXNXNXNXNXNXNXNXNXNXNXNXNXNXNXNX:.(.|.+XqXuX XO.o.[ NXNXNXNXNXNXNXNXNXNXNXNXNXNXNXNXNXNXNXNXNXNXNXNXNXNXNXNXNXNX",
"NXNXNXNXNXNXNXNXNXNXNXNXNXNXNXNXNXNXNXNXNXNXNXNX%._.+XqXiXuXyX).O.%.@.[ NXNXNXNXNXNXNXNXNXNXNXNXNXNXNXNXNXNXNXNXNXNXNXNXNXNXNXNXNX",
"NXNXNXNXNXNXNXNXNXNXNXNXNXNXNXNXNXNXNXNXNXNXNXO.(.+XuXsXiXOXoX|.%.@.%.O.[ NXNXNXNXNXNXNXNXNXNXNXNXNXNXNXNXNXNXNXNXNXNXNXNXNXNXNXNX",
"NXNXNXNXNXNXNXNXNXNXNXNXNXNXNXNXNXNXNXNXNXNXNX/..XoXwXdXqX`._.+X(.O.:.^.O.[ NXNXNXNXNXNXNXNXNXNXNXNXNXNXNXNXNXNXNXNXNXNXNXNXNXNXNX",
"NXNXNXNXNXNXNXNXNXNXNXNXNXNXNXNXNXNXNXNXNXNX!.XX0X[.[.qXaX9X0X@X+XoX).(.^.O.[ NXNXNXNXNXNXNXNXNXNXNXNXNXNXNXNXNXNXNXNXNXNXNXNXNXNX",
"NXNXNXNXNXNXNXNXNXNXNXNXNXNXNXNXNXNXNXNXNXNX/.+XaXpX0XqXyXqX0X@X@X@X'.(.).!.o.NXNXNXNXNXNXNXNXNXNXNXNXNXNXNXNXNXNXNXNXNXNXNXNXNXNX",
"NXNXNXNXNXNXNXNXNXNXNXNXNXNXNXNXNXNXNXNXNXNX/.wXaXaXiX0X@X@X'.^.E.(.(.).).(.o.[ NXNXNXNXNXNXNXNXNXNXNXNXNXNXNXNXNXNXNXNXNXNXNXNXNX",
"NXNXNXNXNXNXNXNXNXNXNXNXNXNXNXNXNXNXNXNXNXNX`.wX X).OX0X@X|.(._._.T.:.^.).(.E.o.NXNXNXNXNXNXNXNXNXNXNXNXNXNXNXNXNXNXNXNXNXNXNXNXNX",
"NXNXNXNXNXNXNXNXNXNXNXNXNXNXNXNXNXNXNXNXNXNXW.[.+.%.).oX.X^._.+X_.+.O./.).).(.o.NXNXNXNXNXNXNXNXNXNXNXNXNXNXNXNXNXNXNXNXNXNXNXNXNX",
"NXNXNXNXNXNXNXNXNXNXNXNXNXNXNXNXNXNXNXNXNXNXO.o.!.(.).].).(.OX_.o.#.+.!.).).(.o.NXNXNXNXNXNXNXNXNXNXNXNXNXNXNXNXNXNXNXNXNXNXNXNXNX",
"NXNXNXNXNXNXNXNXNXNXNXNXNXNXNXNXNXNXNXNXNX!.~.~.'.@X9X+XXX]..XoX_./.:.!.).).(.o.x NXNXNXNXNXNXNXNXNXNXNXNXNXNXNXNXNXNXNXNXNXNXNXNX",
"NXNXNXNXNXNXNXNXNXNXNXNXNXNXNXNXNXNXNXNXO.E.].oX(. XsXaXiXoX'._.^.E.:.^.).)./.o.x NXNXNXNXNXNXNXNXNXNXNXNXNXNXNXNXNXNXNXNXNXNXNXNX",
"NXNXNXNXNXNXNXNXNXNXNXNXNXNXNXNXNXNXNXNXO.+./.(.[.wXdXdXiX0XoX].`.).).).).:...x l.B.u.NXNXNXNXNXNXNXNXNXNXNXNXNXNXNXNXNXNXNXNXNXNX",
"NXNXNXNXNXNXNXNXNXNXNXNXNXNXNXNXNXNXNXNXNX+.%.(.9XsXsXiX0XyX@X@X@XoX].T.O...y.i.f.g.a.f NXNXNXNXNXNXNXNXNXNXNXNXNXNXNXNXNXNXNXNXNX",
"NXNXNXNXNXNXNXNXNXNXNXNXNXNXNXNXNXNXNXNXNXNX+._.@XiXiXqX0X@XoX#X$X`.@.z j p.v.c.f.h h g NXNXNXNXNXNXNXNXNXNXNXNXNXNXNXNXNXNXNXNXNX",
"NXNXNXNXNXNXNXNXNXNXNXNXNXNXNXNXNXNXNXNXNXNXz T.)..X@X@X@X'.T.V.V.V.s.h g.v.D.K.C.n.Z.n.NXNXNXNXNXNXNXNXNXNXNXNXNXNXNXNXNXNXNXNXNX",
"NXNXNXNXNXNXNXNXNXNXNXNXNXNXNXNXNXNXNXNXNXNXu.l #.(.E.R.R.Y.C.F.U.R.m.a.t.j.G.&X=X=X&XG.y.NXNXNXNXNXNXNXNXNXNXNXNXNXNXNXNXNXNXNXNX",
"NXNXNXNXNXNXNXNXNXNXNXNXNXNXNXNXNXNXNXNXNXa.t.f l Y.Y.V.U.U.v.j.n.H.&XP.k.s.j.L.-X-X=XG.y.NXNXNXNXNXNXNXNXNXNXNXNXNXNXNXNXNXNXNXNX",
"NXNXNXNXNXNXNXNXNXNXNXNXNXNXNXNXNXNXNXNXg.g.h a.C.B.b.M.F.F.x.l z z.A.L.&XG.p.j.L.-X*XF.y.NXNXNXNXNXNXNXNXNXNXNXNXNXNXNXNXNXNXNXNX",
"NXNXNXNXNXNXNXNXNXNXNXNXNXNXNXNXt.g w f k.j.h g.J.F.d.e u l z E.%.[ x g.I.*XG.p.j.L.=XL.s.NXNXNXNXNXNXNXNXNXNXNXNXNXNXNXNXNXNXNXNX",
"NXNXNXNXNXNXNXNXNXNXNXNXNXNXNXu.h.h.g f.f.h f h j s.0 & Y | #.oX].$.p x j.J.*XA.p.j.L.%XG.y.NXNXNXNXNXNXNXNXNXNXNXNXNXNXNXNXNXNXNX",
"NXNXNXNXNXNXNXNXNXNXNXNXNXNXu.u.t.a.v.M.M.d.d 4 & > J T !  .`.0X@XE.o.[ x u.H.*XG.p.j.L.J.j.NXNXNXNXNXNXNXNXNXNXNXNXNXNXNXNXNXNXNX",
"NXNXNXNXNXNXNXNXNXNXNXNXNXf t.NXNXf N.v.K.C.x U A 1 ) 4.W o.'.uXpXE.%.o.| } l.H.I.m.p.k.F.C.NXNXNXNXNXNXNXNXNXNXNXNXNXNXNXNXNXNXNX",
"NXNXNXNXNXNXNXNXNXNXNXNXNXNXNXNXNXj.G.U.&XF.d U ! K _ 3. .#.(.yXpXT.%.%.D U d v.U.U.G.p.j.F.k.NXNXNXNXNXNXNXNXNXNXNXNXNXNXNXNXNXNX",
"NXNXNXNXNXNXNXNXNXNXNXNXNXNXNXNXy.G.-XR.F.v.x W ` ! / ) W o.T.$X9X.X(.#.D F u d.N.R.%Xg.t.k.n.f NXNXNXNXNXNXNXNXNXNXNXNXNXNXNXNXNX",
"NXNXNXNXNXNXNXNXNXNXNXNXNXNXNXNXy.J.%Xx.j l.W.{.;.U P ~ ^  .[ o.^.'.^.o.S F { h v.I.*XF.y.y.h.NXNXNXNXNXNXNXNXNXNXNXNXNXNXNXNXNXNX",
"NXNXNXNXNXNXNXNXNXNXNXNXNXNXNXNXp.m.x.z X.W.yXsXwX}.;.U -.D F D ^.OXXX@.[ | [ k k.U.I.%Xn.i.g NXNXNXNXNXNXNXNXNXNXNXNXNXNXNXNXNXNX",
"NXNXNXNXNXNXNXNXNXNXNXNXNXNXNXNXh f.z T.'.0XsXaXyX;X&.4 W ^ ^ ~ -.$XXX@.{ 3 3 s v.N.H.I.J.s.f NXNXNXNXNXNXNXNXNXNXNXNXNXNXNXNXNXNX",
"NXNXNXNXNXNXNXNXNXNXNXNXNXNXNXNXj E -.-.&.&.&.&.X.} ; # K <.2.' ~ -.#.{ &     * g v.H.H.L.n.p.m.g NXNXNXNXNXNXNXNXNXNXNXNXNXNXNXNX",
"NXNXNXNXNXNXNXNXNXNXNXNXNXNXNXNXNX3.( U , @ @ O o @ # < I 4.6.2.] ~ S 3 @ + + + 9 d.F.I.U.M.M.C.g NXNXNXNXNXNXNXNXNXNXNXNXNXNXNXNX",
"NXNXNXNXNXNXNXNXNXNXNXNXNXNXNXNXNX<./ I :         < A H I ) 1.5.2.` L 6 n b v = q t s.R.U.b.B.n.j NXNXNXNXNXNXNXNXNXNXNXNXNXNXNXNX",
"NXNXNXNXNXNXNXNXNXNXNXNXNXNXNXNXNX! ) / , + . + q E L ( 3.4.,.' ] ` P E V :XN b n q y.R.I.F.B.c.f NXNXNXNXNXNXNXNXNXNXNXNXNXNXNXNX",
"NXNXNXNXNXNXNXNXNXNXNXNXNXNXNXNXNXP _ Q *.N N V 7Xq.Q e.r.9.4.' ^ L E N C M 0.M v a j x.L.I.B.h.f NXNXNXNXNXNXNXNXNXNXNXNXNXNXNXNX",
"NXNXNXNXNXNXNXNXNXNXNXNXNXNXNXNXNXR R 3XlXbXbXcXnXw.7.rXrX9.6.2.! P *.2XC M 2XV n a r r P.&XN.c.f NXNXNXNXNXNXNXNXNXNXNXNXNXNXNXNX",
"NXNXNXNXNXNXNXNXNXNXNXNXNXNXNXNXNX*.4XgXcXmXcXnXcX0.T 4.6.6.5.,.! W 3X7X:XC 2X,Xb a r j P.%Xm.h.f NXNXNXNXNXNXNXNXNXNXNXNXNXNXNXNX",
"NXNXNXNXNXNXNXNXNXNXNXNXNXNXNXNXNX<XfXcXcXjXkXbXvXtXq.Q ( 2._ K R 3X5X7X:X:X1X8XN a w j P.%XB.h.f NXNXNXNXNXNXNXNXNXNXNXNXNXNXNXNX",
"NXNXNXNXNXNXNXNXNXNXNXNXNXNXNXNXNX,XzXnXMXgXxXbXxXvXgX=.W ~ Y R 3XfX6X5X4X:X1X8XN a r r C.I.D.n.g NXNXNXNXNXNXNXNXNXNXNXNXNXNXNXNX",
"NXNXNXNXNXNXNXNXNXNXNXNXNXNXNXNXNXQ.7XMXjXgXcXbXjXvXnXjXeXw.eXeXjXjX5X4X5X1X1X0.m 0 w f n.U.H.C.j NXNXNXNXNXNXNXNXNXNXNXNXNXNXNXNX",
"NXNXNXNXNXNXNXNXNXNXNXNXNXNXNXNXNXB <X5X5X5XkXbXjXkXnXnXbXbXbXbXxXkXhX6X5X4X,Xb i t w u.m.C.n.C.f NXNXNXNXNXNXNXNXNXNXNXNXNXNXNXNX",
"NXNXNXNXNXNXNXNXNXNXNXNXNXNXNXNXNX:XV 2X*.2XjXbXgXjXbXbXkXcXnXcXMXcXcXgX6X1XN n i r g b.F.s.y.C.f NXNXNXNXNXNXNXNXNXNXNXNXNXNXNXNX",
"NXNXNXNXNXNXNXNXNXNXNXNXNXNXNXNXNXNXV :XV <XtXkX5X6XvXcXjXxXnXMXjXcXcXgX5X2Xb d j r g b.N.j.j.m.h NXNXNXNXNXNXNXNXNXNXNXNXNXNXNXNX",
"NXNXNXNXNXNXNXNXNXNXNXNXNXNXNXNXNXNXNXV V B 2X6X5X5XjXjXzXcXbXgX6XjXjX5X,XM NXw f w f b.F.C.M.b.n.NXNXNXNXNXNXNXNXNXNXNXNXNXNXNXNX",
"NXNXNXNXNXNXNXNXNXNXNXNXNXNXNXNXNXNXNXNX0.C M V >X1X6XtX6XlXjX4X4X4X2XN M b j r w f g b.I.A.g.b.D.y.NXNXNXNXNXNXNXNXNXNXNXNXNXNXNX",
"NXNXNXNXNXNXNXNXNXNXNXNXNXNXNXNXNXNXNXNXNXq - - v C <X,X>X2X2XB :XN n a M Z d w f w g M.%Xx.f B.D.k.NXNXNXNXNXNXNXNXNXNXNXNXNXNXNX",
"NXNXNXNXNXNXNXNXNXNXNXNXNXNXNXNXNXNXNXNXNX      - 5 = 5 8 6 6 6 7 6 u c =.NXs t f w f g.J.x.a.c.D.G.j.NXNXNXNXNXNXNXNXNXNXNXNXNXNX",
"NXNXNXNXNXNXNXNXNXNXNXNXNXNXNXNXNXNXNXNX          .   $ J / / _ _ / K K I F u w s f w f c.&Xx.g b.D.k.NXNXNXNXNXNXNXNXNXNXNXNXNXNX",
"NXNXNXNXNXNXNXNXNXNXNXNXNXNXNXNXNXNXNXNXNX            # G 1.8.6.6.1./ / ,.! S i t w w f h.&XS.g c.D.G.NXNXNXNXNXNXNXNXNXNXNXNXNXNX",
"NXNXNXNXNXNXNXNXNXNXNXNXNXNXNXNXNXNXNXNXNX  .       # 2 >.6.8.8.8.4./ >.8.,.P u t f w f h.K.L.x.a.v.K.F.j.NXNXNXNXNXNXNXNXNXNXNXNX",
"NXNXNXNXNXNXNXNXNXNXNXNXNXNXNXNXNXNXNXNXNX$ % o     % I ,.<.' ,.,.) I >.8.4.Y 3 y f f f u.v.&XR.f h b.D.N.j.NXNXNXNXNXNXNXNXNXNXNX",
"NXNXNXNXNXNXNXNXNXNXNXNXNXNXNXNXNXNXNX  o 1 H , $ $ , K ! ! ! ! I K I ' 6.6.P # * 9 9 w r t.B.P.s.s.f.h.g.N.p.NXNXNXNXNXNXNXNXNXNX",
"NXNXNXNXNXNXNXNXNXNXNXNXNXNXNXNXNXNX    : G G G H G G G A G A G H A G L ,.6.P #     O 9 w e h B.=X%Xx.s a.c.h.g f NXNXNXNXNXNXNXNX",
"NXNXNXNXNXNXNXNXNXNXNXNXNXNXNXNXNX      . X X # # X X X # X X X # X X 1 ) 2.P $       O O O * u.M.V.J.Q.A.g j r x.A.NXNXNXNXNXNXNX",
"NXNXNXNXNXNXNXNXNXNXNXNXNXNXNXNXNX                                    , ! ) K %             O NXh t.j.Z.J.S.S.P.A.s.NXNXNXNXNXNXNX",
"NXNXNXNXNXNXNXNXNXNXNXNXNXNXNXNXNX                                    $ A K 1 X             NXNXNXNXNXNXj.A.A.S.NXNXNXNXNXNXNXNXNX",
"NXNXNXNXNXNXNXNXNXNXNXNXNXNXNXNXNXNX                                    $ , o             NXNXNXNXNXNXNXNXNXNXNXNXNXNXNXNXNXNXNXNX",
"NXNXNXNXNXNXNXNXNXNXNXNXNXNXNXNXNXNXNX                                                  NXNXNXNXNXNXNXNXNXNXNXNXNXNXNXNXNXNXNXNXNX",
"NXNXNXNXNXNXNXNXNXNXNXNXNXNXNXNXNXNXNXNXNXNX                                        NXNXNXNXNXNXNXNXNXNXNXNXNXNXNXNXNXNXNXNXNXNXNX",
"NXNXNXNXNXNXNXNXNXNXNXNXNXNXNXNXNXNXNXNXNXNXNXNXNX. .                       NXNXNXNXNXNXNXNXNXNXNXNXNXNXNXNXNXNXNXNXNXNXNXNXNXNXNX"
};
