/* XPM */
static char *_2496517cc74413db5895a70a4f3e889irKy7AfYxzFgZtla[] = {
/* columns rows colors chars-per-pixel */
"32 32 190 2 ",
"   c None",
".  c #000000",
"X  c #0B0400",
"o  c #090D0C",
"O  c #140800",
"+  c #1F0C00",
"@  c #180406",
"#  c #090010",
"$  c #161214",
"%  c #290E03",
"&  c #0E0022",
"*  c #3F032C",
"=  c #201921",
"-  c #222222",
";  c #333633",
":  c #481F00",
">  c #552500",
",  c #6A2C00",
"<  c #6E3804",
"1  c #713000",
"2  c #7B2F14",
"3  c #69361E",
"4  c #4A1135",
"5  c #750E3F",
"6  c #2E0050",
"7  c #2E024F",
"8  c #3C006D",
"9  c #3A0663",
"0  c #390178",
"q  c #6A1843",
"w  c #45384E",
"e  c #59176F",
"r  c #420174",
"t  c #48047E",
"y  c #47077A",
"u  c #4E0C66",
"i  c #661C6C",
"p  c #650C73",
"a  c #690E77",
"s  c #781879",
"d  c #543F66",
"f  c gray25",
"g  c #575657",
"h  c #725849",
"j  c #726E6F",
"k  c #6F726E",
"l  c #747474",
"z  c #7C7B7B",
"x  c #77777B",
"c  c #6C6C6C",
"v  c #8F3D00",
"b  c #9F2E2E",
"n  c #AF3331",
"m  c #9F4800",
"M  c #945A00",
"N  c #BB4F00",
"B  c #B64E00",
"V  c #A75304",
"C  c #B55605",
"Z  c #A14910",
"A  c #B35817",
"S  c #9C4022",
"D  c #BB543D",
"F  c #A86535",
"G  c #C65600",
"H  c #D25D00",
"J  c #C05F13",
"K  c #CD6600",
"L  c #D76C00",
"P  c #CF7700",
"I  c #D17B00",
"U  c #DB7607",
"Y  c #E97C00",
"T  c #F17A00",
"R  c #CF5328",
"E  c #81164F",
"W  c #9F1E5E",
"Q  c #A31E5F",
"!  c #9F2358",
"~  c #85257B",
"^  c #AA2969",
"/  c #B73676",
"(  c #BC3C7B",
")  c #B5387C",
"_  c #AB2E77",
"`  c #C43F7E",
"'  c #9C6A40",
"]  c #93715B",
"[  c #A04669",
"{  c #CA5255",
"}  c #DD7052",
"|  c #C6417C",
" . c #D28301",
".. c #DF9D1F",
"X. c #E69B00",
"o. c #FDAB00",
"O. c #FCB300",
"+. c #FFBA00",
"@. c #F7B100",
"#. c #C88738",
"$. c #B19474",
"%. c #FFF46A",
"&. c #4C0385",
"*. c #4A0982",
"=. c #4D0489",
"-. c #430087",
";. c #520D89",
":. c #51078D",
">. c #5D1A8B",
",. c #570C96",
"<. c #5A1597",
"1. c #5C1B95",
"2. c #5B1698",
"3. c #440299",
"4. c #731A83",
"5. c #611D9E",
"6. c #631D97",
"7. c #642197",
"8. c #5E1DA8",
"9. c #5D0EA7",
"0. c #6313A7",
"q. c #631BA6",
"w. c #6919A9",
"e. c #6516AD",
"r. c #6B1CB4",
"t. c #671DB4",
"y. c #6F29A6",
"u. c #6A23A7",
"i. c #7025AC",
"p. c #6D22B4",
"a. c #732ABB",
"s. c #762AB5",
"d. c #7B35B9",
"f. c #762CCA",
"g. c #7B34C3",
"h. c #7E38C1",
"j. c #94259C",
"k. c #9E35B4",
"l. c #C23785",
"z. c #A74193",
"x. c #BF45A7",
"c. c #C54081",
"v. c #CB4585",
"b. c #C94D8A",
"n. c #D24D8D",
"m. c #D24886",
"M. c #CE508D",
"N. c #D34F9F",
"B. c #DC5393",
"V. c #D85697",
"C. c #D4518B",
"Z. c #E35B9B",
"A. c #E15A95",
"S. c #E3639F",
"D. c #DD56A2",
"F. c #E666A2",
"G. c #EA73AC",
"H. c #F974B2",
"J. c #F17BB1",
"K. c #FD79B1",
"L. c #F270A7",
"P. c #873DC8",
"I. c #8A41CB",
"U. c #924ACE",
"Y. c #858786",
"T. c #8F9091",
"R. c #979995",
"E. c #A7A7A7",
"W. c #B5B8B9",
"Q. c #CCA38F",
"!. c #EA8AB7",
"~. c #F786B8",
"^. c #F691BF",
"/. c #CFB4A6",
"(. c #BDBFC1",
"). c #FC94C1",
"_. c #F399C3",
"`. c #FB8DC9",
"'. c #F9B4D4",
"]. c #BFC0C1",
"[. c #C5C6C4",
"{. c #C9C6C4",
"}. c #D0CFCF",
"|. c #D5D5D5",
" X c #E3DDDF",
".X c #E4E4E4",
"XX c #E9EAEA",
"oX c #E6E7E8",
"OX c #E9EDF2",
"+X c #F6F9F9",
/* pixels */
"                              n.c.(                             ",
"                            M.F.                                ",
"                        / l.J.M.                                ",
"                      ( S.^.^.| ^                               ",
"                      B.)._.F.n.c.^                             ",
"                    c.).!.).J.H.Z.n.W                           ",
"                    m.`.J.H.V.n.v.B./                           ",
"                    ( [ B.B.F.v.( B.m.                          ",
"                    n.Z._.~.F.n.c.A.` p                         ",
"                    ` G.'.).K.L.B.) p <.&.                      ",
"                    s A.J.L.x.k.4.&.t.q.1.                      ",
"                    -.s j.f.q.8.g.1.q.U.I.*.                    ",
"                r =.=.t.3.e ~ _ a g.u.1.P.;.                    ",
"            t =.,.9.e 4 3 C C.J.Q p d.u.q.s.                    ",
"                u.f.i G  .D V.!.l.n i f.5.2.<.                  ",
"              *.d.>.z.} A R ! V.D.n q 8.P.:.*.                  ",
"              0 4.l.).`.[ S H { D.q 4 ,.g.i.t                   ",
"                U v $ @ % m o.Y b = $ 6 r.a.w.t                 ",
"                U 3 o ; A ..X.T V l j w >.d.e.r                 ",
"                ' {.oX X#.%.+.G ] l Y.g 8 d.r.r                 ",
"                W.+X XOX$.L K F W.T.R.l 9 s.r.r                 ",
"                E.}. XoXOX/.Q.|.].E.R.d 8 q.s.y                 ",
"                z z.{.|.OXOX+XXXoXW.c 9 &.q.2.                  ",
"                  z T.E.{.|.XX(.[.Y.  8 &.p.0.2.                ",
"                    - f x z z j d h u 8 =.s.:.p.                ",
"                    . . . <  . .C C q 8 r w.6.0.1.              ",
"                    X . O I +.o.I O.Z 0 r ,.d.=.p.<.            ",
"                  O m > 1 G G B N @.M & 6 r q.y.,.9.&.          ",
"                . X + % + O O O + U m . . # 7 0.y.y.1.7.        ",
"                . . . . . . . . . , : . . .       ;.7.          ",
"                    . . . . . . . . . . .                       ",
"                        . . . . . .                             "
};
