/* XPM */
static char *result[] = {
/* columns rows colors chars-per-pixel */
"65 65 251 2 ",
"   c #020100",
".  c #09050A",
"X  c #160907",
"o  c #080114",
"O  c #151217",
"+  c #271305",
"@  c #381800",
"#  c #2D110B",
"$  c #160027",
"%  c #190035",
"&  c #250E2B",
"*  c #2F2D2C",
"=  c #4D1E01",
"-  c #4D2200",
";  c #592602",
":  c #642B00",
">  c #632700",
",  c #793501",
"<  c #733008",
"1  c #501031",
"2  c #693122",
"3  c #56213E",
"4  c #1E0049",
"5  c #310451",
"6  c #3E006C",
"7  c #360167",
"8  c #390071",
"9  c #3E284E",
"0  c #6B114A",
"q  c #493750",
"w  c #6C224B",
"e  c #45076E",
"r  c #570C6C",
"t  c #410173",
"y  c #46047A",
"u  c #490979",
"i  c #5A0A78",
"p  c #4D137A",
"a  c #581276",
"s  c #6C1574",
"d  c #4F2373",
"f  c #5E165D",
"g  c #484948",
"h  c #57504F",
"j  c #594A65",
"k  c #645A6B",
"l  c #686968",
"z  c #757575",
"x  c #787878",
"c  c #6F736E",
"v  c #775A46",
"b  c #654934",
"n  c #873902",
"m  c #9D3817",
"M  c #983C03",
"N  c #AD2E3A",
"B  c #9E3228",
"V  c #994505",
"C  c #95460B",
"Z  c #A84902",
"A  c #B34C00",
"S  c #B94B06",
"D  c #BB5200",
"F  c #B85605",
"G  c #B14E19",
"H  c #945829",
"J  c #B1512A",
"K  c #B6652C",
"L  c #B87216",
"P  c #C25401",
"I  c #C95900",
"U  c #C95011",
"Y  c #CD6201",
"T  c #D56300",
"R  c #D96A01",
"E  c #D87700",
"W  c #CF7701",
"Q  c #E46900",
"!  c #E77B00",
"~  c #F77F05",
"^  c #C55731",
"/  c #D07D3C",
"(  c #881759",
")  c #9C1C5C",
"_  c #951455",
"`  c #92154D",
"'  c #8E2B4B",
"]  c #AA2A53",
"[  c #8A186C",
"{  c #8F2A70",
"}  c #A82766",
"|  c #AD2B73",
" . c #AB3279",
".. c #B53575",
"X. c #BC3B7B",
"o. c #BA3678",
"O. c #B2306F",
"+. c #A21E5A",
"@. c #C13D7D",
"#. c #C0337A",
"$. c #B74352",
"%. c #9B4C6F",
"&. c #B34570",
"*. c #A47A61",
"=. c #8C6855",
"-. c #C84F54",
";. c #D04B74",
":. c #D9706F",
">. c #7F807F",
",. c #D68E00",
"<. c #E68400",
"1. c #E89800",
"2. c #F99700",
"3. c #F88400",
"4. c #F6A600",
"5. c #F9B801",
"6. c #ECA306",
"7. c #CF9825",
"8. c #FBD30C",
"9. c #FBCF2C",
"0. c #AA876E",
"q. c #998475",
"w. c #E0BC72",
"e. c #FDE844",
"r. c #F2C769",
"t. c #4A0383",
"y. c #4C0A83",
"u. c #4E048A",
"i. c #480788",
"p. c #520D8C",
"a. c #51058D",
"s. c #54128B",
"d. c #530493",
"f. c #550B92",
"g. c #590B9C",
"h. c #58069B",
"j. c #551192",
"k. c #5B149C",
"l. c #5D1A9D",
"z. c #581497",
"x. c #480393",
"c. c #68179D",
"v. c #621589",
"b. c #582483",
"n. c #5E08A5",
"m. c #5D15A2",
"M. c #4D12A0",
"N. c #630CAC",
"B. c #621CA3",
"V. c #6412AC",
"C. c #641CAB",
"Z. c #6619AA",
"A. c #6B1CB4",
"S. c #6716B2",
"D. c #7013AD",
"F. c #6923AD",
"G. c #6A25AD",
"H. c #6D24B5",
"J. c #6D26B6",
"K. c #7225BB",
"L. c #732BBB",
"P. c #762CB9",
"I. c #7A32BE",
"U. c #7735B4",
"Y. c #732DAF",
"T. c #5F219C",
"R. c #7D6E87",
"E. c #772AC0",
"W. c #7C34C1",
"Q. c #7935C1",
"!. c #94248A",
"~. c #9128A6",
"^. c #A13197",
"/. c #C13F82",
"(. c #A55F8B",
"). c #C44382",
"_. c #C94485",
"`. c #CE4A8A",
"'. c #CC438E",
"]. c #D44D8D",
"[. c #D74A8D",
"{. c #D5528C",
"}. c #D64F93",
"|. c #DB5393",
" X c #D75797",
".X c #CB5293",
"XX c #E35B9C",
"oX c #E65798",
"OX c #E3558F",
"+X c #D46294",
"@X c #E3639E",
"#X c #EB6A9B",
"$X c #D85AA9",
"%X c #E967A4",
"&X c #F46DAA",
"*X c #E975AA",
"=X c #F473AD",
"-X c #FC7CB4",
";X c #F679B4",
":X c #EF76B2",
">X c #DF61A7",
",X c #843BC5",
"<X c #8439C7",
"1X c #802DC2",
"2X c #8A43C6",
"3X c #8C44C9",
"4X c #8943C5",
"5X c #924AC9",
"6X c #9048C7",
"7X c #7E8286",
"8X c #838483",
"9X c #8B8B8B",
"0X c #848988",
"qX c #979796",
"wX c #91938F",
"eX c #ACACAC",
"rX c #A4A5A3",
"tX c #B4B4B4",
"yX c #BABABA",
"uX c #B1ABA7",
"iX c #9FA4A6",
"pX c #E888B6",
"aX c #F886B8",
"sX c #F892BE",
"dX c #E888A6",
"fX c #CAB8B1",
"gX c #DBA0AB",
"hX c #E7D89D",
"jX c #BABFC2",
"kX c #FA93C2",
"lX c #FA9AC6",
"zX c #F38EC2",
"xX c #F9A5CB",
"cX c #FEACD4",
"vX c #FAB6D7",
"bX c #BFC7CC",
"nX c #C2C3C3",
"mX c #CDCDCD",
"MX c #D4D4D4",
"NX c #DBDBDB",
"BX c #D7DADC",
"VX c #D5D0CD",
"CX c #F3F1D2",
"ZX c #E3E3E3",
"AX c #ECECED",
"SX c #EDF2F4",
"DX c #F3F3F3",
"FX c #FBFCFC",
"GX c #F4FAFC",
"HX c #DCD5D1",
"JX c None",
/* pixels */
"JXJXJXJXJXJXJXJXJXJXJXJXJXJXJXJXJXJXJXJXJXJXJXJXJXJXJXJXJXJXJXJXJXJXJXJXJXJXJXJXJXJXJXJXJXJXJXJXJXJXJXJXJXJXJXJXJXJXJXJXJXJXJXJXJX",
"JXJXJXJXJXJXJXJXJXJXJXJXJXJXJXJXJXJXJXJXJXJXJXJXJXJXJXX.X.X.o.o.X.X.X.o.X.JXJXJXJXJXJXJXJXJXJXJXJXJXJXJXJXJXJXJXJXJXJXJXJXJXJXJXJX",
"JXJXJXJXJXJXJXJXJXJXJXJXJXJXJXJXJXJXJXJXJXJXJXJXJXJXo. X}.} ) } _.@X%X@X}.....JXJXJXJXJXJXJXJXJXJXJXJXJXJXJXJXJXJXJXJXJXJXJXJXJXJX",
"JXJXJXJXJXJXJXJXJXJXJXJXJXJXJXJXJXJXJXJXJXJXJXJXJXJXo.]._.) _ } o. XaXkX:X].@.X.JXJXJXJXJXJXJXJXJXJXJXJXJXJXJXJXJXJXJXJXJXJXJXJXJX",
"JXJXJXJXJXJXJXJXJXJXJXJXJXJXJXJXJXJXJXJXJXJXJXJXJXJXJX) ) JXJXJXJX} ].sXlX;XXX`./.X.JXJXJXJXJXJXJXJXJXJXJXJXJXJXJXJXJXJXJXJXJXJXJX",
"JXJXJXJXJXJXJXJXJXJXJXJXJXJXJXJXJXJXJXJXJXJXJXJXJXJXJXJXJXJXJXJX} } } {.lXlXaX=XXX].X.JXJXJXJXJXJXJXJXJXJXJXJXJXJXJXJXJXJXJXJXJXJX",
"JXJXJXJXJXJXJXJXJXJXJXJXJXJXJXJXJXJXJXJXJXJXJXJXJXJXJXJXJXJXJX) .._.O.`.aXxXlXkXsX&X].X.JXJXJXJXJXJXJXJXJXJXJXJXJXJXJXJXJXJXJXJXJX",
"JXJXJXJXJXJXJXJXJXJXJXJXJXJXJXJXJXJXJXJXJXJXJXJXJXJXJXJXJXJX} ../.o.@.oX&X%XpXxXxXkX%X_...JXJXJXJXJXJXJXJXJXJXJXJXJXJXJXJXJXJXJXJX",
"JXJXJXJXJXJXJXJXJXJXJXJXJXJXJXJXJXJXJXJXJXJXJXJXJXJXJXJXJX+...].).O._.&X%X`.*XcXxXdX=X X/.JXJXJXJXJXJXJXJXJXJXJXJXJXJXJXJXJXJXJXJX",
"JXJXJXJXJXJXJXJXJXJXJXJXJXJXJXJXJXJXJXJXJXJXJXJXJXJXJXJX+...`.{.|.%X&X-X:XaXsXxXpX.X%XaX X/.JXJXJXJXJXJXJXJXJXJXJXJXJXJXJXJXJXJXJX",
"JXJXJXJXJXJXJXJXJXJXJXJXJXJXJXJXJXJXJXJXJXJXJXJXJXJXJX` } _.|.[.oX;X-X-XaXaXkXkXpX*XlXlX%X/.JXJXJXJXJXJXJXJXJXJXJXJXJXJXJXJXJXJXJX",
"JXJXJXJXJXJXJXJXJXJXJXJXJXJXJXJXJXJXJXJXJXJXJXJXJXJXJX) O.].|.|.|.XX|.}.%X-X-XaXkXxXvXxX*X).JXJXJXJXJXJXJXJXJXJXJXJXJXJXJXJXJXJXJX",
"JXJXJXJXJXJXJXJXJXJXJXJXJXJXJXJXJXJXJXJXJXJXJXJXJXJX) } ).[.|.[.'.X.&._.'.%X&X-XaX:X*XsXpX&.JXJXJXJXJXJXJXJXJXJXJXJXJXJXJXJXJXJXJX",
"JXJXJXJXJXJXJXJXJXJXJXJXJXJXJXJXJXJXJXJXJXJXJXJXJXJX) ..{.|.|._.../.*X;X X'.%X-X=X{.O.+XpX_.JXJXJXJXJXJXJXJXJXJXJXJXJXJXJXJXJXJXJX",
"JXJXJXJXJXJXJXJXJXJXJXJXJXJXJXJXJXJXJXJXJXJXJXJXJXJX_ ..|.|.{.)...| |  X=X{.}.XXOX'.@.X./...JXJXJXJXJXJXJXJXJXJXJXJXJXJXJXJXJXJXJX",
"JXJXJXJXJXJXJXJXJXJXJXJXJXJXJXJXJXJXJXJXJXJXJXJXJXJX( #.|.|.|.).X.@.o. X=X|.|.XX@X%XXX_.O./.&.JXJXJXJXJXJXJXJXJXJXJXJXJXJXJXJXJXJX",
"JXJXJXJXJXJXJXJXJXJXJXJXJXJXJXJXJXJXJXJXJXJXJXJXJXr ( #.[.|.}._.@.`.XX%X%XXX=XaXsXsX&XXX|.}./...JXJXJXJXJXJXJXJXJXJXJXJXJXJXJXJXJX",
"JXJXJXJXJXJXJXJXJXJXJXJXJXJXJXJXJXJXJXJXJXJXJXJXt.h.[ } ).[.}.{.`.@.).].oX&XzXcXvXxX+X}.&X|.X...JXJXJXJXJXJXJXJXJXJXJXJXJXJXJXJXJX",
"JXJXJXJXJXJXJXJXJXJXJXJXJXJXJXJXJXJXJXJXJXJXJXJXV.A.i r [ `.OX|.|.XXoXXX&X;XsXlXvXvXpX X_.)... .JXJXJXJXJXJXJXJXJXJXJXJXJXJXJXJXJX",
"JXJXJXJXJXJXJXJXJXJXJXJXJXJXJXJXJXJXJXJXJXJX6 y p.j.u.i.i s  ./.OX&X-X-X-XaXaXsXxXvXxX*X`.X.;.JXJXJXJXJXJXJXJXJXJXJXJXJXJXJXJXJXJX",
"JXJXJXJXJXJXJXJXJXJXJXJXJXJXJXJXJXJXJXJXJXJXJXy u i.g.N.M.p.i s  .'.$X$X$X=X-XsXsXkXaX=XOX .JXJXJXJXJXJXJXJXJXJXJXJXJXJXJXJXJXJXJX",
"JXJXJXJXJXJXJXJXJXJXJXJXJXJXJXJXJXJXJXJXJXJXd.Z.G.F.H.K.J.m.n.t.i D.D.S.~.'.&X-XpX=XXX].!.s JXJXJXJXJXJXJXJXJXJXJXJXJXJXJXJXJXJXJX",
"JXJXJXJXJXJXJXJXJXJXJXJXJXJXJXJXJXJXJXJXJXd.S.I.4X4X4XW.H.s.u i.m.I.<XK.S.~.~.~.^.[.;.{ i d.JXJXJXJXJXJXJXJXJXJXJXJXJXJXJXJXJXJXJX",
"JXJXJXJXJXJXJXJXJXJXJXJXJXJXJXJXJXJXJXJXt.V.I.4X5X5X3XY.j.y.l.Y.,XQ.G.l.m.E.E.K.D.!.!.s 8 a.a.JXJXJXJXJXJXJXJXJXJXJXJXJXJXJXJXJXJX",
"JXJXJXJXJXJXJXJXJXJXJXJXJXJXJXJXJXJXJXJXp.P.3X5X5X3XJ.s.j.Y.<X4XP.c.v.r v.U.Q.J.V.N.D.k.u y g.f.JXJXJXJXJXJXJXJXJXJXJXJXJXJXJXJXJX",
"JXJXJXJXJXJXJXJXJXJXJXJXJXJXJXJXJXJXJXt.A.4X5X5X3XY.p.p.P.3XW.T.r [ o./.[ i p p i.n.W.I.z.y k.k.6 t t y JXJXJXJXJXJXJXJXJXJXJXJXJX",
"JXJXJXJXJXJXJXJXJXJXJXJXJXJXJXJXJXJX6 f.I.5X5X3XG.p.j.Y.,XW.k.r 0 _ OX%X/.( B 2 % i.Z.B.i.6 u f.u.t u.h.u.JXJXJXJXJXJXJXJXJXJXJXJX",
"JXJXJXJXJXJXJXJXJXJXJXJXJXJXJXJXJXJXJXm.W.5X3XG.s.s.H.<XQ.k.i ( +.#.%X-X'.] U : o % 4 & f e i.g.n.p.f.d.a.u.JXJXJXJXJXJXJXJXJXJXJX",
"JXJXJXJXJXJXJXJXJXJXJXJXJXJXJXJXJXy g.A.I.4XY.p.s.H.L.K.c.f ` } .._.pXxX$X] m : X X + < m e C.A.N.C.y.6 t.h.y t JXJXJXJXJXJXJXJXJX",
"JXJXJXJXJXJXJXJXJXJXJXJXJXJXJXJXJXy C.K.L.H.p.j.F.L.L.M.w G ] #.o. .pXcX$X+.m Z C C V D G a E.E.S.J.s.JXJXy y t JXJXJXJXJXJXJXJXJX",
"JXJXJXJXJXJXJXJXJXJXJXJXJXJXJXJXJXy G.E.G.p.u.Z.L.K.A.x.w S ] o.[. XsXzX'.+.U ! 1.6.~ Q C i H.<X,X,XG.y.JXJXJXJXJXJXJXJXJXJXJXJXJX",
"JXJXJXJXJXJXJXJXJXJXJXJXJXJXJXJXJXu.G.K.k.t g.H.L.H.g.j.' M B | [.%X*X.X| ) U E ,.,.R U $.s j.T.U.5X,Xj.JXJXJXJXJXJXJXJXJXJXJXJXJX",
"JXJXJXJXJXJXJXJXJXJXJXJXJXJXJXJXt.V.K.C.u.t.F.K.L.F.t.^.;.J ` | ].XX.X} ' ` J ^ K K ^ :.;X Xv.r v.U.W.k.JXJXJXJXJXJXJXJXJXJXJXJXJX",
"JXJXJXJXJXJXJXJXJXJXJXJXJXJXJXJXp.H.L.j.t.g.F.L.E.A.u { OX;.] @.:X:X{.$.m G -.{.+X#XdXxXvXlX.X/.{ s.C.k.JXJXJXJXJXJXJXJXJXJXJXJXJX",
"JXJXJXJXJXJXJXJXJXJXJXJXJXJXJXJXg.L.L.s.y.C.K.L.J.V.t.5 3 w ( #.$X@X-.U T R ^ ' { +X;XsXlXlX-XoX&.{ p.t.JXJXJXJXJXJXJXJXJXJXJXJXJX",
"JXJXJXJXJXJXJXJXJXJXJXJXJXJX6 f.A.L.P.k.f.H.K.L.H.a.5 o     # ' O.$.U Q 2.2.Y = o 3 ' { %.%.%.&.-.-.$.q JXJXJXJXJXJXJXJXJXJXJXJXJX",
"JXJXJXJXJXJXJXJXJXJXJXJXJXJXJXk.K.L.H.n.n.K.L.Q.C.6 & O O O O 3 N U ! 2.5.5.E , + X X . X X O ; S Y 6.7.JXJXJXJXJXJXJXJXJXJXJXJXJX",
"JXJXJXJXJXJXJXJXJXJXJXJXJXt d.A.L.L.S.n.V.L.4XQ.m.u h h g j g b S Q 2.4.2.E I M n < +         = S F ! ~ JXJXJXJXJXJXJXJXJXJXJXJXJX",
"JXJXJXJXJXJXJXJXJXJXJXJXJXy B.K.L.H.N.V.H.L.3X4XT.8 k l >.7Xz H S Q ~ ! ,.6.,.W I S b *       = Y W Y I JXJXJXJXJXJXJXJXJXJXJXJXJX",
"JXJXJXJXJXJXJXJXJXJXJXJXJXt.H.I.Q.H.g.Z.L.Q.4X4XC.8 q c R.c c =.H D Q Q 1.8.e.r./ J wX0Xg h h v K ,.F M JXJXJXJXJXJXJXJXJXJXJXJXJX",
"JXJXJXJXJXJXJXJXJXJXJXJXt.V.H.I.,XY.u j.I.5X6X,Xm.e q 0X0Xk c 7X=.Z I <.5.9.hXCXr.L fXDXMXNXNXnXq.J G H JXJXJXJXJXJXJXJXJXJXJXJXJX",
"JXJXJXJXJXJXJXJXJXJXJXJXy.H.L.P.E.F.t.f.I.5X5X,Xm.e k qX0Xh 7XiXq.G U <.4.5.8.e.7.K fXFXFXFXFXAXnXwX=.JXJXJXJXJXJXJXJXJXJXJXJXJXJX",
"JXJXJXJXJXJXJXJXJXJXJXJXp.L.,XI.H.V.h.m.Q.5X5X,Xm.p x rXwXz wXtXuX*.G F E 4.2.<.L 0.fXDXDXNXZXDXSXbX9XJXJXJXJXJXJXJXJXJXJXJXJXJXJX",
"JXJXJXJXJXJXJXJXJXJXJXJXy.Y.3X,XC.h.n.V.E.5X5X,Xk.y.9XeXwX8XqXyXjXtX*.C A E T S *.jXNXAXAXVXmXZXFXBXqXJXJXJXJXJXJXJXJXJXJXJXJXJXJX",
"JXJXJXJXJXJXJXJXJXJXJXJXp.P.6X<Xl.y h.H.W.6X5X,Xm.p R.rXwX9XeXtXtXmXtX0.K J K 0.nXAXZXZXFXAXmXMXDXmXwXc JXJXJXJXJXJXJXJXJXJXJXJXJX",
"JXJXJXJXJXJXJXJXJXJXJXu.m.L.3X<Xl.y m.I.6X6X5X,Xm.e j >.qXrXtXeXtXMXBXHXHXfXVXZXSXDXMXNXFXNXnXmXMXrX8XJXJXJXJXJXJXJXJXJXJXJXJXJXJX",
"JXJXJXJXJXJXJXJXJXJXt f.K.,X6X,Xl.u F.,X5X5X5X,XB.6 q l wXeXyXnXmXZXZXAXFXGXDXFXFXAXmXNXDXMXrXrXeX0Xx JXJXJXJXJXJXJXJXJXJXJXJXJXJX",
"JXJXJXJXJXJXJXJXJXJXt k.W.5X5X,Xk.u m.,X5X5X5X,XT.e d j c rXyXmXAXDXZXZXFXDXNXNXFXAXnXmXAXmX9Xz 0Xx JXJXJXJXJXJXJXJXJXJXJXJXJXJXJX",
"JXJXJXJXJXJXJXJXJXJXt z.I.5X5X,Xl.y B.~.5X5X5X,XB.t.x.d k wXyXmXZXAXmXMXFXDXMXMXSXMXeXyXMXtX8Xz x x JXJXJXJXJXJXJXJXJXJXJXJXJXJXJX",
"JXJXJXJXJXJXJXJXJXJX6 z.I.5X5X,Xl.u B.,X5X5X5XQ.J.M.t.d.b.l wXyXmXMXyXjXAXSXMXmXNXnXrXtXtX0Xx x JXJXJXJXJXJXJXJXJXJXJXJXJXJXJXJXJX",
"JXJXJXJXJXJXJXJXJXJXt z.W.5X5X<Xl.y m.4X5X5X5X3X<XV.y d.n.s.k c wXeXeXiXnXNXnXyXnXtXwX8Xx l z JXJXJXJXJXJXJXJXJXJXJXJXJXJXJXJXJXJX",
"JXJXJXJXJXJXJXJXJXJX6 k.W.5X5X,Xl.t G.W.5X5X5X5X3XY.t.u.N.n.d 9 j x 7Xq.9XrX9X0XqXR.l g * JXJXJXJXJXJXJXJXJXJXJXJXJXJXJXJXJXJXJXJX",
"JXJXJXJXJXJXJXJXJXJX8 z.I.4X5X<Xc.y m.4X5X6X6X5X4XH.y.t.n.h.t 7 5 g g g g g g h h h h * JXJXJXJXJXJXJXJXJXJXJXJXJXJXJXJXJXJXJXJXJX",
"JXJXJXJXJXJXJXJXJXJXt a.S.I.5X<Xk.y G.W.5X6X5X5X4XH.y t t.6 $ o o O . . . + < Z V V Z ;     JXJXJXJXJXJXJXJXJXJXJXJXJXJXJXJXJXJXJX",
"JXJXJXJXJXJXJXJXJXJXJXJXd.S.W.E.g.y B.,X5X5X6X5X4XJ.g.y y 7 $   .         + , I I I D ;         JXJXJXJXJXJXJXJXJXJXJXJXJXJXJXJXJX",
"JXJXJXJXJXJXJXJXJXJXJXJXJXa.k.n.t.y B.I.4X5X5X5X4XW.A.d.7 4 = = - - - - - ; M I T T A -           JXJXJXJXJXJXJXJXJXJXJXJXJXJXJXJX",
"JXJXJXJXJXJXJXJXJXJXJXJXJXt 6 t 6 t d.V.P.3X5X6X5X3XI.g.4 X n I R E E R R Y A D T T D > X X         JXJXJXJXJXJXJXJXJXJXJXJXJXJXJX",
"JXJXJXJXJXJXJXJXJXJXJXJXJXJXJXJXJXt t d.S.I.3X5X5X6XI.k.4 X , I Q 4.5.5.2.T A D T T Y A M n @         JXJXJXJXJXJXJXJXJXJXJXJXJXJX",
"JXJXJXJXJXJXJXJXJXJXJXJXJXJXJXJXJXJXt y d.S.I.W.4X5XQ.k.4 O , I ! 5.8.8.1.T Z A P P P P D D n @         JXJXJXJXJXJXJXJXJXJXJXJXJX",
"JXJXJXJXJXJXJXJXJXJXJXJXJXJXJXJXJXJXJXJXJXd.m.k.F.E.K.n.8 & n S I ,.1.1.! I A , ; : : : : < , @       JXJXJXJXJXJXJXJXJXJXJXJXJXJX",
"JXJXJXJXJXJXJXJXJXJXJXJXJXJXJXJXJXJXJXJXJXt 7 5 t d.N.n.h.e 2 Z Z A Y R E R D ; . X                 JXJXJXJXJXJXJXJXJXJXJXJXJXJXJX",
"JXJXJXJXJXJXJXJXJXJXJXJXJXJXJXJXJXJXJXJXJXJXo . % t y t t.7 & > A T 1.5.5.4.R A M n +             JXJXJXJXJXJXJXJXJXJXJXJXJXJXJXJX",
"JXJXJXJXJXJXJXJXJXJXJXJXJXJXJXJXJXJXJXJXJXJXJXJXo $ $ $ $ $ . ; S I Y W ,.W I D P D n @       JXJXJXJXJXJXJXJXJXJXJXJXJXJXJXJXJXJX",
"JXJXJXJXJXJXJXJXJXJXJXJXJXJXJXJXJXJXJXJXJXJXJXJXJX            @ : > > > > ; : : : , V ;   JXJXJXJXJXJXJXJXJXJXJXJXJXJXJXJXJXJXJXJX",
"JXJXJXJXJXJXJXJXJXJXJXJXJXJXJXJXJXJXJXJXJXJXJXJXJXJXJXJXJX              .   .     + JXJXJXJXJXJXJXJXJXJXJXJXJXJXJXJXJXJXJXJXJXJXJX"
};
