/* XPM */
static char *_a1c540b2afb41cdadd6695a3f5ba0c1gwtU1Ue4txgDlHXn[] = {
/* columns rows colors chars-per-pixel */
"32 32 196 2 ",
"   c None",
".  c #000000",
"X  c #0E0700",
"o  c #070E0A",
"O  c #1E0B00",
"+  c #1F0700",
"@  c #0C0415",
"#  c #140013",
"$  c #240F00",
"%  c #2E0B00",
"&  c #291200",
"*  c #381701",
"=  c #230710",
"-  c #1B002A",
";  c #1D003F",
":  c #3A0F24",
">  c #3E3833",
",  c #4C171C",
"<  c #622800",
"1  c #753100",
"2  c #7D3600",
"3  c #531034",
"4  c #442131",
"5  c #71312E",
"6  c #725338",
"7  c #260043",
"8  c #350A57",
"9  c #3E036D",
"0  c #5E1E46",
"q  c #671A59",
"w  c #420075",
"e  c #46007C",
"r  c #48087E",
"t  c #500C6A",
"y  c #7A1567",
"u  c #512474",
"i  c #5B5C59",
"p  c #4C4155",
"a  c #62635F",
"s  c #6F655E",
"d  c #767676",
"f  c #787776",
"g  c #6A6D70",
"h  c #853A00",
"j  c #99351A",
"k  c #9A4201",
"l  c #9F4906",
"z  c #A94800",
"x  c #B44C00",
"c  c #A65400",
"v  c #BD5300",
"b  c #B25615",
"n  c #9C5B37",
"m  c #BC4337",
"M  c #B47133",
"N  c #C45B00",
"B  c #C65500",
"V  c #C66600",
"C  c #D76500",
"Z  c #C57C00",
"A  c #DF7200",
"S  c #D16018",
"D  c #D47E16",
"F  c #E26A00",
"G  c #E37800",
"H  c #C14A34",
"J  c #D56120",
"K  c #C67A36",
"L  c #9B1B5B",
"P  c #8F1656",
"I  c #A01F5F",
"U  c #862E51",
"Y  c #A9295F",
"T  c #861F6B",
"R  c #88237A",
"E  c #AE2D6E",
"W  c #B42D6A",
"Q  c #BF3563",
"!  c #B43474",
"~  c #BD3A7A",
"^  c #B93776",
"/  c #B52F73",
"(  c #C73E66",
")  c #A6425C",
"_  c #A77A5B",
"`  c #D76C43",
"'  c #DE8900",
"]  c #EA8800",
"[  c #E09200",
"{  c #F99200",
"}  c #F9A601",
"|  c #FFD200",
" . c #FACC0B",
".. c #460383",
"X. c #490382",
"o. c #4D0B87",
"O. c #4D048A",
"+. c #4D0A88",
"@. c #43068C",
"#. c #520B8D",
"$. c #570988",
"%. c #4F1183",
"&. c #561585",
"*. c #550C93",
"=. c #5B1694",
"-. c #5E179C",
";. c #4E049A",
":. c #66168C",
">. c #7A1B88",
",. c #600E9F",
"<. c #5D2A87",
"1. c #5D13A2",
"2. c #5E10AA",
"3. c #5608A3",
"4. c #631CA3",
"5. c #6414AB",
"6. c #651AAB",
"7. c #691DAB",
"8. c #6A1DB0",
"9. c #651CB9",
"0. c #701FBA",
"q. c #6A0EAB",
"w. c #6722A7",
"e. c #6A21B4",
"r. c #762FB6",
"t. c #722ABB",
"y. c #772BB9",
"u. c #7932BB",
"i. c #7B36B8",
"p. c #772EC0",
"a. c #762DCA",
"s. c #7E33C3",
"d. c #7731C1",
"f. c #9A2BA1",
"g. c #BE4780",
"h. c #B54992",
"j. c #C34384",
"k. c #CA4686",
"l. c #C64A86",
"z. c #D34C8C",
"x. c #D0528F",
"c. c #CC4D90",
"v. c #D65192",
"b. c #DB5393",
"n. c #DF5B9C",
"m. c #D75D98",
"M. c #CA5793",
"N. c #E25695",
"B. c #E25896",
"V. c #DA639D",
"C. c #E4619E",
"Z. c #C14FAE",
"A. c #EA5FA1",
"S. c #E967A6",
"D. c #E977AC",
"F. c #EF67B2",
"G. c #FD7CB7",
"H. c #FA77B0",
"J. c #F473AE",
"K. c #883EC6",
"L. c #863DCA",
"P. c #893FC8",
"I. c #863FC6",
"U. c #8A43C6",
"Y. c #8B43C9",
"T. c #944CCC",
"R. c #848981",
"E. c #90908F",
"W. c #969697",
"Q. c #A59F9C",
"!. c #9EA5AA",
"~. c #A9A9A9",
"^. c #B3B3B3",
"/. c #BABBBD",
"(. c #F98EBE",
"). c #F784B7",
"_. c #FF90B8",
"`. c #C1BCBB",
"'. c #FFF590",
"]. c #FB98C7",
"[. c #FBA4CB",
"{. c #FFA2D3",
"}. c #F5B5D5",
"|. c #BAC1C6",
" X c #C6C6C6",
".X c #C6C8CA",
"XX c #D0D1CF",
"oX c #DCDCDC",
"OX c #D6D7D8",
"+X c #CBCDD3",
"@X c #E2E2E2",
"#X c #EAECED",
"$X c #EEF1F4",
"%X c #F5F7F9",
"&X c #F6F7F7",
"*X c #EBEBF0",
/* pixels */
"                          j.^ E c.v.^                           ",
"                          ~ I   ^ ).D.j.^                       ",
"                                E j.].(.C.~                     ",
"                            L ~ ~ n.C.[.].b.                    ",
"                            ! b.S.G.).].D.(.l.                  ",
"                          I z.b.z.z.S.).(.].M.                  ",
"                          E B.k.! m.b.S.z.~ l.                  ",
"                          W B.k.~ b.C.S.D.b.l.                  ",
"                        -.y j.N.v.n.J.[.}.V.z.~                 ",
"                      e *.;.$.R v.F.H._.[.).~                   ",
"                    e 8.i.s.1...w.0.f.Z.C.~ $.                  ",
"                    4.T.T.w.=.i.r.&.e.e.q.:.@.@.                ",
"                  X.K.T.4.-.U.&.P z.T 0 ..6.9 *.w O.            ",
"                  1.U.w.=.u.:.P ( ].( 1 @ 4 q 2.-.X.#.          ",
"                  t.4.*.p.3.j Q c.].W B Z S q a.y.              ",
"                #.0.X.e.e.>.) Y A.j.P S ' ` h.#.f.4.            ",
"                e.-.*.t.9.t U / F.m B ) M.].{.B.f.@.            ",
"              O.t.6.8.u.*.@ . 3 m ] } 2 = : 4 5 S n             ",
"              8.t.q.e.K.&.i g 6 F { [ V k o . % V F             ",
"            #.y.r.*.I.U.r g d d b G  .'.K `.~.Q.M k             ",
"            4.I.8.*.Y.P.%.E.f !._ v { } M $X%X%X/.f             ",
"            4.Y.#.2.Y.P.&.W.E.^.|._ b M +X$X@XoXoXf             ",
"          o.p.U.+.r.T.P.r a ~.`.OX#X#X$X%XoX@X^.W.              ",
"          o.Y.Y.+.r.T.K.O.u R.XX#XoX&XoX@X.X Xd f               ",
"          +.Y.Y.+.r.T.U.7.O.<.R.^.^.@X.X/.W.d                   ",
"          +.Y.Y.+.r.T.T.r...3.8 p i a s s >                     ",
"            5.L.o.r.T.T.y...9 . . . . z B < .                   ",
"              e w 5.U.T.Y.4.- h c c l v C 1 X . .               ",
"                  w 5.I.T.4.# v } | A x N B z * . .             ",
"                      w 1.q.w k N ] G h * O & $ .               ",
"                        - 7 ; * B ' ' v z & . .                 ",
"                            . X & + O $ *                       "
};
