/* XPM */
static char *_be9fb85de844e8d9b8c7ace80103dfdIke9yhtTzfQj4lZp[] = {
/* columns rows colors chars-per-pixel */
"32 32 191 2 ",
"   c None",
".  c #010001",
"X  c #070909",
"o  c #0D0908",
"O  c #0C0016",
"+  c #0C1210",
"@  c #171818",
"#  c #190A00",
"$  c #240D00",
"%  c #2D1000",
"&  c #321400",
"*  c #1A012F",
"=  c #451C00",
"-  c #531D15",
";  c #652F00",
":  c #772E03",
">  c #663500",
",  c #590C2E",
"<  c #794F36",
"1  c #1B004B",
"2  c #310758",
"3  c #3D006B",
"4  c #3C0074",
"5  c #3A1C65",
"6  c #590C52",
"7  c #6E1B51",
"8  c #6F2C4D",
"9  c #6E2355",
"0  c #40006F",
"q  c #540E6D",
"w  c #410074",
"e  c #48057A",
"r  c #580679",
"t  c #451071",
"y  c #620761",
"u  c #610D7E",
"i  c #6B1D79",
"p  c #545353",
"a  c #585765",
"s  c #6A6C69",
"d  c #757677",
"f  c #933A02",
"g  c #9B2C38",
"h  c #B13C3B",
"j  c #8C4812",
"k  c #AC4F00",
"l  c #B34A00",
"z  c #B55401",
"x  c #B95300",
"c  c #BC5C00",
"v  c #AE421C",
"b  c #BD5115",
"n  c #B5640C",
"m  c #915F2B",
"M  c #97423E",
"N  c #A96122",
"B  c #C65D01",
"V  c #C95E00",
"C  c #C76101",
"Z  c #CA6B00",
"A  c #C76011",
"S  c #D56214",
"D  c #E47500",
"F  c #E67801",
"G  c #CE6024",
"H  c #CD7824",
"J  c #9B1A5B",
"K  c #B43459",
"L  c #911A61",
"P  c #841972",
"I  c #891667",
"U  c #8F2474",
"Y  c #A62666",
"T  c #AC2A6A",
"R  c #AF316C",
"E  c #BD3A7B",
"W  c #BC3575",
"Q  c #AF2C71",
"!  c #C13D7D",
"~  c #A24944",
"^  c #9A735D",
"/  c #956B51",
"(  c #91426B",
")  c #B05D75",
"_  c #857C7E",
"`  c #CC4F47",
"'  c #E17C48",
"]  c #D76162",
"[  c #D79400",
"{  c #EA8F00",
"}  c #F78901",
"|  c #E69501",
" . c #F09E00",
".. c #FFAC00",
"X. c #FDBA00",
"o. c #F4BA00",
"O. c #EDB610",
"+. c #CC8A36",
"@. c #EAAB34",
"#. c #F9C800",
"$. c #FEC816",
"%. c #B98759",
"&. c #3E0183",
"*. c #4C0385",
"=. c #4F0887",
"-. c #520B8D",
";. c #51058D",
":. c #551D8D",
">. c #4F0493",
",. c #540593",
"<. c #550A92",
"1. c #5B0E9B",
"2. c #57079C",
"3. c #5A1095",
"4. c #5D149A",
"5. c #5D199B",
"6. c #611A9C",
"7. c #751C8C",
"8. c #5B0EA3",
"9. c #5B04A1",
"0. c #5E10B0",
"q. c #5A13AC",
"w. c #610CAF",
"e. c #6313A4",
"r. c #6412AC",
"t. c #671DA9",
"y. c #691BB7",
"u. c #7920AC",
"i. c #6A25B7",
"p. c #732ABB",
"a. c #7528B9",
"s. c #7F32BF",
"d. c #757E84",
"f. c #7A26C4",
"g. c #7D34C2",
"h. c #B43886",
"j. c #9633B6",
"k. c #C53C8A",
"l. c #BE4381",
"z. c #BE4094",
"x. c #C54282",
"c. c #C94887",
"v. c #D14C8C",
"b. c #D44C87",
"n. c #CF518D",
"m. c #DD548F",
"M. c #DC5495",
"N. c #DA5896",
"B. c #DB4C94",
"V. c #E0528C",
"C. c #E65C9D",
"Z. c #DB619A",
"A. c #EB679E",
"S. c #C74CB0",
"D. c #E76BA5",
"F. c #E962A4",
"G. c #E87AAC",
"H. c #F772AF",
"J. c #F579B2",
"K. c #F96BA6",
"L. c #893FC9",
"P. c #8136C6",
"I. c #8640C4",
"U. c #954BCD",
"Y. c #888888",
"T. c #9C8D86",
"R. c #9EA4A8",
"E. c gray68",
"W. c #BBBBBB",
"Q. c #B7B9BC",
"!. c #B0AAA6",
"~. c #E0BE83",
"^. c #F98BBC",
"/. c #F787B7",
"(. c #E287B5",
"). c #C6B7AD",
"_. c #FFFFAB",
"`. c #F588C9",
"'. c #FF99C5",
"]. c #FA9AC8",
"[. c #FCA6C9",
"{. c #C5C5C5",
"}. c #C9CACC",
"|. c #CDCFD1",
" X c #D7D6D6",
".X c #E0D9D6",
"XX c #ECECED",
"oX c #E5E4E4",
"OX c #F4F5F5",
"+X c #FCFCFC",
"@X c #F6F9FB",
/* pixels */
"                            x.x.c.                              ",
"                            T Y J.x.                            ",
"                                N.D.E                           ",
"                              J n.'./.N.E                       ",
"                            Y ! C.G.[.`.n.                      ",
"                          Y v.A.H./.G./.^.E                     ",
"                        J ! v.v.M.H.J./.].x.                    ",
"                        J M.E ! Z.F.C.W (.x.                    ",
"                        L V.c.c.C.J./.G.F.v.                    ",
"                      2.-.U b.V.K./.[.(.M.c.                    ",
"                      -.8.4.=.h.S.F.^.^.A.P                     ",
"                    1.I.I.6.-.p.i.u.j.z.U 6.                    ",
"                  w j.U.2.1.p.7.y 7.4.0.t.5.=.4                 ",
"                  *.P.4.1.i.r J R Q h 9 t e >.=.,.              ",
"                  t.4.,.r.e k.B.[.`.' n f i f.5.  e             ",
"                  t.-.f.&., K Z.].h.G c S i i.P.q               ",
"                6.-.a.:.6 A { H T g v ] [.^.i 8.:.~.n           ",
"                1.3.f.1 : D } } : o . 8 ( ) ` h M $.n           ",
"              ,.;.t.0.5 j { O.D = @ @ + . o C F B c             ",
"              ;.<.p.*.a N X._.+.^ Q.oX).d _ H c                 ",
"              ,.5.r.3 a m D @.%.!.XX+XoX X@X XT.                ",
"            *.,.a.6.3 a Y.^ ^ ).OXXXXX@X@X.XOXW.                ",
"            *.=.p.1.4 2 s R.}.|.@XOX{.@X+X XQ.Y.                ",
"            w 1.P.8.6 - X s |.W.|.@X}.E.Y.E.d.                  ",
"            3 e.g.0.7 x # + d }.).{.d + X <                     ",
"            3 <.g.a.>.b z . + p Y.p . . ; C                     ",
"              w a.I.w.7 ; . . . @ X . ; o. .l   l               ",
"                8.g.p.r.* . . . . X $ C ..#.Z [ |               ",
"                *.r.p.y.9.* . . . . . & V X.#. .x               ",
"                    ,.2.2 . . . . . . . % C { x                 ",
"                      O . . . . . . . . . = l                   ",
"                          . . . . . . .                         "
};
