/* XPM */
static char *result[] = {
/* columns rows colors chars-per-pixel */
"65 65 242 2 ",
"   c #000000",
".  c #0C0707",
"X  c #1D0C01",
"o  c #170803",
"O  c #0C0015",
"+  c #1D1419",
"@  c #261100",
"#  c #381702",
"$  c #351013",
"%  c #180028",
"&  c #150033",
"*  c #2C0A2F",
"=  c #282828",
"-  c #393939",
";  c #342216",
":  c #5B2801",
">  c #4F2C10",
",  c #692A07",
"<  c #773401",
"1  c #732E00",
"2  c #4C1731",
"3  c #721734",
"4  c #582828",
"5  c #53423A",
"6  c #260146",
"7  c #310750",
"8  c #3D016B",
"9  c #390167",
"0  c #3E0172",
"q  c #520C50",
"w  c #6E1153",
"e  c #493656",
"r  c #462D5C",
"t  c #732A4B",
"y  c #41026E",
"u  c #4C0A6C",
"i  c #420174",
"p  c #46027C",
"a  c #49067B",
"s  c #550978",
"d  c #510F68",
"f  c #6F106D",
"g  c #5C2674",
"h  c #79276E",
"j  c #464646",
"k  c #5A5B5A",
"l  c #785B4A",
"z  c #574F66",
"x  c #686B6A",
"c  c #767777",
"v  c #707070",
"b  c #7F6151",
"n  c #8F3A08",
"m  c #8A2C31",
"M  c #AB382F",
"N  c #A34400",
"B  c #AC4A00",
"V  c #A74A05",
"C  c #B34C00",
"Z  c #B94F00",
"A  c #B75700",
"S  c #AB4A17",
"D  c #B65B11",
"F  c #B24F11",
"G  c #BC6206",
"H  c #91572B",
"J  c #A34F2D",
"K  c #B86F32",
"L  c #9E4613",
"P  c #C85902",
"I  c #D15D00",
"U  c #C85513",
"Y  c #CA6801",
"T  c #D46401",
"R  c #D66801",
"E  c #C87600",
"W  c #DA7400",
"Q  c #CC6D17",
"!  c #E76A01",
"~  c #E57A00",
"^  c #CF512C",
"/  c #CA7523",
"(  c #99185A",
")  c #891055",
"_  c #8B2746",
"`  c #AC295D",
"'  c #A4355C",
"]  c #8D1C6F",
"[  c #962671",
"{  c #A42464",
"}  c #AD2B6C",
"|  c #A92567",
" . c #B53474",
".. c #BB3B7A",
"X. c #BA3778",
"o. c #B1316F",
"O. c #A11F60",
"+. c #C03D7C",
"@. c #B94F4C",
"#. c #916A52",
"$. c #9C7B67",
"%. c #C9447E",
"&. c #CE6E5D",
"*. c #D98900",
"=. c #D1910A",
"-. c #E78B01",
";. c #E99600",
":. c #F59900",
">. c #F88900",
",. c #E4A400",
"<. c #F6A600",
"1. c #F6BB00",
"2. c #F8AC1C",
"3. c #DD872C",
"4. c #E49222",
"5. c #FDCB00",
"6. c #F6C100",
"7. c #F7CE00",
"8. c #F3CD33",
"9. c #FDE82B",
"0. c #AF846B",
"q. c #C78B4B",
"w. c #CB9069",
"e. c #FAE86E",
"r. c #EAC043",
"t. c #3D0089",
"y. c #460080",
"u. c #4A0283",
"i. c #4D038A",
"p. c #4C0B85",
"a. c #50048C",
"s. c #520C8D",
"d. c #580984",
"f. c #5B1689",
"g. c #4C0A98",
"h. c #540594",
"j. c #560B94",
"k. c #58099B",
"l. c #5C139B",
"z. c #5B1897",
"x. c #651999",
"c. c #6B1B85",
"v. c #64239A",
"b. c #5C09A4",
"n. c #5D16A3",
"m. c #4E14A0",
"M. c #610BAB",
"N. c #630EA5",
"B. c #6514AD",
"V. c #6719A9",
"C. c #6C1CB4",
"Z. c #6917B4",
"A. c #701AB4",
"S. c #6A25A8",
"D. c #6D22B7",
"F. c #7224B9",
"G. c #732CBB",
"H. c #7A2CBC",
"J. c #7526B7",
"K. c #7B32BD",
"L. c #7833BB",
"P. c #722EAA",
"I. c #7B2FC2",
"U. c #831D97",
"Y. c #B33782",
"T. c #8238BB",
"R. c #9228A9",
"E. c #AD39A4",
"W. c #9B299C",
"Q. c #C33B85",
"!. c #B44A97",
"~. c #C64383",
"^. c #CA4585",
"/. c #CE4A8A",
"(. c #CA4788",
"). c #D44D8E",
"_. c #D54B89",
"`. c #C9528A",
"'. c #D4528F",
"]. c #D54D91",
"[. c #DC5594",
"{. c #D75A96",
"}. c #CA5998",
"|. c #E25B9B",
" X c #E35997",
".X c #E3598C",
"XX c #D5699C",
"oX c #CB6094",
"OX c #E2629D",
"+X c #D76FA5",
"@X c #EB63A3",
"#X c #EA6AA5",
"$X c #F36CAB",
"%X c #F86FAF",
"&X c #EA76AA",
"*X c #F577AE",
"=X c #FA74B3",
"-X c #F87CB5",
";X c #EF72B3",
":X c #C955A4",
">X c #833AC3",
",X c #8539C4",
"<X c #802EC2",
"1X c #8B43C6",
"2X c #934BCB",
"3X c #828382",
"4X c #8D8C8C",
"5X c #989999",
"6X c #ABA19B",
"7X c #9B9FA1",
"8X c #A3A3A3",
"9X c #ABACAC",
"0X c #B3B3B3",
"qX c #BBBBBB",
"wX c #B5B9BC",
"eX c #B3AEAA",
"rX c #FB8CBB",
"tX c #F886B9",
"yX c #EA8CB9",
"uX c #D8ACA6",
"iX c #E8D2A5",
"pX c #F8EDAA",
"aX c #F9E38A",
"sX c #B6BDC2",
"dX c #F898C4",
"fX c #F289C1",
"gX c #FBA6CC",
"hX c #FDACD4",
"jX c #FFBEDE",
"kX c #C2C2C2",
"lX c #CBCBCB",
"zX c #C8C4C2",
"xX c #DBDBDB",
"cX c #D5D5D6",
"vX c #C9D2D8",
"bX c #E4E4E4",
"nX c #ECECEC",
"mX c #F3F3F3",
"MX c #FBFBFB",
"NX c #EDF2F6",
"BX c #E6E9E0",
"VX c None",
/* pixels */
"VXVXVXVXVXVXVXVXVXVXVXVXVXVXVXVXVXVXVXVXVXVXVXVXVXVXVXVXVXVXVXVXVXVXVXVXVXVXVXVXVXVXVXVXVXVXVXVXVXVXVXVXVXVXVXVXVXVXVXVXVXVXVXVXVX",
"VXVXVXVXVXVXVXVXVXVXVXVXVXVXVXVXVXVXVXVXVXVXVXVXVXVXVXVXVXVXVXX.X.X.....VXVXVXVXVXVXVXVXVXVXVXVXVXVXVXVXVXVXVXVXVXVXVXVXVXVXVXVXVX",
"VXVXVXVXVXVXVXVXVXVXVXVXVXVXVXVXVXVXVXVXVXVXVXVXVXVXVXVXVXVX{.). .}.@X`.VXVXVXVXVXVXVXVXVXVXVXVXVXVXVXVXVXVXVXVXVXVXVXVXVXVXVXVXVX",
"VXVXVXVXVXVXVXVXVXVXVXVXVXVXVXVXVXVXVXVXVXVXVXVXVXVXVXVXVXVX^...` ~.-X;X].VXVXVXVXVXVXVXVXVXVXVXVXVXVXVXVXVXVXVXVXVXVXVXVXVXVXVXVX",
"VXVXVXVXVXVXVXVXVXVXVXVXVXVXVXVXVXVXVXVXVXVXVXVXVXVXVXVXVXVXVXVXVXVXoXtX@X..VXVXVXVXVXVXVXVXVXVXVXVXVXVXVXVXVXVXVXVXVXVXVXVXVXVXVX",
"VXVXVXVXVXVXVXVXVXVXVXVXVXVXVXVXVXVXVXVXVXVXVXVXVXVXVXVXVXVXVXVXVXVX..{.#X~.X.VXVXVXVXVXVXVXVXVXVXVXVXVXVXVXVXVXVXVXVXVXVXVXVXVXVX",
"VXVXVXVXVXVXVXVXVXVXVXVXVXVXVXVXVXVXVXVXVXVXVXVXVXVXVXVXVXVXVXVXVXO._.tXdX#X].+. .X.VXVXVXVXVXVXVXVXVXVXVXVXVXVXVXVXVXVXVXVXVXVXVX",
"VXVXVXVXVXVXVXVXVXVXVXVXVXVXVXVXVXVXVXVXVXVXVXVXVXVXVXVXVXVXVXVX( ( { {.dXdX*X@X].~.X.VXVXVXVXVXVXVXVXVXVXVXVXVXVXVXVXVXVXVXVXVXVX",
"VXVXVXVXVXVXVXVXVXVXVXVXVXVXVXVXVXVXVXVXVXVXVXVXVXVXVXVXVXVXVXO.{ | X.OXtXrXdXrXtXOX%.X.VXVXVXVXVXVXVXVXVXVXVXVXVXVXVXVXVXVXVXVXVX",
"VXVXVXVXVXVXVXVXVXVXVXVXVXVXVXVXVXVXVXVXVXVXVXVXVXVXVXVXVXVX( { } ..|.@XOXtXgXgXgX-X[...VXVXVXVXVXVXVXVXVXVXVXVXVXVXVXVXVXVXVXVXVX",
"VXVXVXVXVXVXVXVXVXVXVXVXVXVXVXVXVXVXVXVXVXVXVXVXVXVXVXVXVX( } } } /.|.(.}.tXrXgXgXtX$X). .VXVXVXVXVXVXVXVXVXVXVXVXVXVXVXVXVXVXVXVX",
"VXVXVXVXVXVXVXVXVXVXVXVXVXVXVXVXVXVXVXVXVXVXVXVXVXVXVXVX( } %._._.@X%X$X&XrXdXXX{.tXtX$X(. .VXVXVXVXVXVXVXVXVXVXVXVXVXVXVXVXVXVXVX",
"VXVXVXVXVXVXVXVXVXVXVXVXVXVXVXVXVXVXVXVXVXVXVXVXVXVXVXVX( X.'.].|.%X-X=X-XfXrX&X&XgXhXrX`.o.VXVXVXVXVXVXVXVXVXVXVXVXVXVXVXVXVXVXVX",
"VXVXVXVXVXVXVXVXVXVXVXVXVXVXVXVXVXVXVXVXVXVXVXVXVXVXVX( | ~. X).(./.].@X-X-X-XtXrXgXgXyX{.o.VXVXVXVXVXVXVXVXVXVXVXVXVXVXVXVXVXVXVX",
"VXVXVXVXVXVXVXVXVXVXVXVXVXVXVXVXVXVXVXVXVXVXVXVXVXVXVX{ +._.].~.+.`.`.].@X%X=X=X+XOXrXgXXX} VXVXVXVXVXVXVXVXVXVXVXVXVXVXVXVXVXVXVX",
"VXVXVXVXVXVXVXVXVXVXVXVXVXVXVXVXVXVXVXVXVXVXVXVXVXVXVX{ ^. X^. ...XX*X[.).$X%X X+.o.yXrXXX} VXVXVXVXVXVXVXVXVXVXVXVXVXVXVXVXVXVXVX",
"VXVXVXVXVXVXVXVXVXVXVXVXVXVXVXVXVXVXVXVXVXVXVXVXVXVXVX| _.[.~.X.} | XX#X X@X X[.). ...&X+X} VXVXVXVXVXVXVXVXVXVXVXVXVXVXVXVXVXVXVX",
"VXVXVXVXVXVXVXVXVXVXVXVXVXVXVXVXVXVXVXVXVXVXVXVXVXVXd O._.[.~.+.(.].$X#XOXtX*XOX*X&X{.{.[.~.X.VXVXVXVXVXVXVXVXVXVXVXVXVXVXVXVXVXVX",
"VXVXVXVXVXVXVXVXVXVXVXVXVXVXVXVXVXVXVXVXVXVXVXVXVXVXf { +. X/.Q.(.].|.|.#XrXrXgXyX{.=X$X[.^.X.VXVXVXVXVXVXVXVXVXVXVXVXVXVXVXVXVXVX",
"VXVXVXVXVXVXVXVXVXVXVXVXVXVXVXVXVXVXVXVXVXVXVXVXVXb.c.f { ~. X_.(.(.[.@X*XrXdXhXyX{.|.|.'.^.+.VXVXVXVXVXVXVXVXVXVXVXVXVXVXVXVXVXVX",
"VXVXVXVXVXVXVXVXVXVXVXVXVXVXVXVXVXVXVXVXVXVXVXi i.V.l.0 a ] Y.(.].@X%X%X-XtXrXrXhXyX`.+.%. .o.VXVXVXVXVXVXVXVXVXVXVXVXVXVXVXVXVXVX",
"VXVXVXVXVXVXVXVXVXVXVXVXVXVXVXVXVXVXVXVXVXVXVXi p p s.b.k.d.s h Y. X$X%X%X=XtXrXgXdX&X#X(.[ VXVXVXVXVXVXVXVXVXVXVXVXVXVXVXVXVXVXVX",
"VXVXVXVXVXVXVXVXVXVXVXVXVXVXVXVXVXVXVXVXVXVXVXa.z.z.n.D.D.n.k.d.f U.R.R.E. XtXrXrXtX&X[.Y.y VXVXVXVXVXVXVXVXVXVXVXVXVXVXVXVXVXVXVX",
"VXVXVXVXVXVXVXVXVXVXVXVXVXVXVXVXVXVXVXVXVXVXp k.L.>XI.I.I.v.s.p.j.J.H.F.J.W.E.E.:X.X%.[ c.z.u.VXVXVXVXVXVXVXVXVXVXVXVXVXVXVXVXVXVX",
"VXVXVXVXVXVXVXVXVXVXVXVXVXVXVXVXVXVXVXVXVXVXa.A.,X2X2XT.V.p.p.v.I.I.J.S.V.C.A.A.U.Y.U.s v.H.i.u.VXVXVXVXVXVXVXVXVXVXVXVXVXVXVXVXVX",
"VXVXVXVXVXVXVXVXVXVXVXVXVXVXVXVXVXVXVXVXVXy.N.,X2X2X<Xx.y.j.J.T.T.S.d.u f.T.L.D.M.N.x.a.z.S.s.h.p VXVXVXVXVXVXVXVXVXVXVXVXVXVXVXVX",
"VXVXVXVXVXVXVXVXVXVXVXVXVXVXVXVXVXVXVXVXVXu.B.2X2X<Xl.y.h.H.I.V.f.] ) w ) ] g p.g.B.I.S.s.s.z.a i y i VXVXVXVXVXVXVXVXVXVXVXVXVXVX",
"VXVXVXVXVXVXVXVXVXVXVXVXVXVXVXVXVXVXVXVXVXy.B.,X<Xl.y.j.H.I.n.i w } } ( ) O.) m _ g.x.z.p i j.s.i u.k.a.VXVXVXVXVXVXVXVXVXVXVXVXVX",
"VXVXVXVXVXVXVXVXVXVXVXVXVXVXVXVXVXVXVXVXVXl.H.<Xx.y.h.C.I.n.p.] | | Y.(./.:Xo.^ Q q & q q p j.M.j.s.h.a.a.VXVXVXVXVXVXVXVXVXVXVXVX",
"VXVXVXVXVXVXVXVXVXVXVXVXVXVXVXVXVXVXVXVXi.F.H.l.y.j.Z.C.b.s ] Q._.Y.{.dXhXfX%.3.;.< # n _ g.J.M.Z.f.8 y.g.t.VXVXVXVXVXVXVXVXVXVXVX",
"VXVXVXVXVXVXVXVXVXVXVXVXVXVXVXVXVXVXVXVXx.D.n.p h.Z.C.m.0 w | ].@X@XyXjXgX;X%.4.,.N B P m m.,XD.F.z.8 VXVXu VXVXVXVXVXVXVXVXVXVXVX",
"VXVXVXVXVXVXVXVXVXVXVXVXVXVXVXVXVXVXVXVXP.P.p.h.Z.C.N.9 % 3 | Q.].[.yXgX;XQ.' 3.*.C ! U t m.L.>X1XL.j.VXVXVXVXVXVXVXVXVXVXVXVXVXVX",
"VXVXVXVXVXVXVXVXVXVXVXVXVXVXVXVXVXVXVXVXC.z.a V.<XI.h.9 2 m M M @.OXfX$XQ.| ^ U A C U &.!.h s.v.1X1Xn.q N VXVXVXVXVXVXVXVXVXVXVXVX",
"VXVXVXVXVXVXVXVXVXVXVXVXVXVXVXVXVXVXi S.V.u.j.K.,Xf.y f _ D E E / &.].Q.{ M ^ U D @.&.gXdX!.f d v.G.n.g 0.w.K VXVXVXVXVXVXVXVXVXVX",
"VXVXVXVXVXVXVXVXVXVXVXVXVXVXVXVXVXVXa H.z.s S.,XA.6 $ _ U -.<.<.:.Q M ) 3 m m M @.-XdXhXhXyX(.( s b.g.f.iXpXq.V VXVXVXVXVXVXVXVXVX",
"VXVXVXVXVXVXVXVXVXVXVXVXVXVXVXVXVXa b.B.p.f.I.I.s.& # n I -.>.>.<.~ U : X X o + t +X}.XX+XyX.X` ' h i l 8.8.Q B VXVXVXVXVXVXVXVXVX",
"VXVXVXVXVXVXVXVXVXVXVXVXVXVXVXVXVXp.V.s.u.V.L.Z.u.& # V T W R ~ :.~ P :         + 2 2 2 2 t K U 4./ S U <.<.Y B VXVXVXVXVXVXVXVXVX",
"VXVXVXVXVXVXVXVXVXVXVXVXVXVXVXVXVXk.B.a s.D.D.b.u.7 > V T *.;.;.>.! n X                   # N P ;.~ P T E E G VXVXVXVXVXVXVXVXVXVX",
"VXVXVXVXVXVXVXVXVXVXVXVXVXVXVXVXi.M.h.u.m.G.D.z.0 z l S W 1.9.9.-.I 1 ; - - j j - - =     # B E T T A N N N VXVXVXVXVXVXVXVXVXVXVX",
"VXVXVXVXVXVXVXVXVXVXVXVXVXVXVXVXa.k.p j.D.I.C.0 e x b D ;.5.e.pXr.D L $.5X9XkXzXqX8Xc 5 - 5 / -.P Y -.VXVXVXVXVXVXVXVXVXVXVXVXVXVX",
"VXVXVXVXVXVXVXVXVXVXVXVXVXVXVXVXa.h.p n.G.C.k.a e x b D ,.5.e.BXiXK #.6X0XxXmXMXmXlX8X0XkXzXuXD J S D VXVXVXVXVXVXVXVXVXVXVXVXVXVX",
"VXVXVXVXVXVXVXVXVXVXVXVXVXVXVXVXa.k.a x.D.b.p y e x b D ;.:.2.aXiXK $.sXcXmXMXMXMXxX0XbXMXMXnXeX0.#.b VXVXVXVXVXVXVXVXVXVXVXVXVXVX",
"VXVXVXVXVXVXVXVXVXVXVXVXVXVXVXVXb.h.p P.F.j.8 8 e x b l G I T 3.q.$.6XcXnXnXmXMXMXbXlXbXnXxXnXNXvX7Xc VXVXVXVXVXVXVXVXVXVXVXVXVXVX",
"VXVXVXVXVXVXVXVXVXVXVXVXVXVXy h.N.a.a.T.I.j.i 8 j x v v #.H H J &.eXxXmXmXbXnXmXMXmXnXmXbXlXxXMXbX7Xv VXVXVXVXVXVXVXVXVXVXVXVXVXVX",
"VXVXVXVXVXVXVXVXVXVXVXVXVXVXy k.h.p n.<XJ.h.p 8 r k 3X7X5X4X4X0XzXxXmXMXMXnXxXbXMXMXMXMXmXxXlXmXxX7Xx VXVXVXVXVXVXVXVXVXVXVXVXVXVX",
"VXVXVXVXVXVXVXVXVXVXVXVXVXVXy k.i.p.V.I.A.h.i 8 0 r k 4X7X7XwXkXsXbXMXMXMXnXqXlXmXMXMXMXnXlXkXcXwX3Xc VXVXVXVXVXVXVXVXVXVXVXVXVXVX",
"VXVXVXVXVXVXVXVXVXVXVXVXVXVXy h.a.p.S.G.Z.h.i 0 8 * = k 3X5XkXcXkXqXbXMXMXmXlXqXxXmXnXmXnX0X5X8X4Xc c VXVXVXVXVXVXVXVXVXVXVXVXVXVX",
"VXVXVXVXVXVXVXVXVXVXVXVXVXVXy y.i.j.L.I.Z.h.0 8 w $ . = k 5XwXcXlX9XzXnXnXMXbX9XqXxXeX0XlX9Xv 3X3XVXVXVXVXVXVXVXVXVXVXVXVXVXVXVXVX",
"VXVXVXVXVXVXVXVXVXVXVXVXVXVXi 9 p A.,X>XZ.h.i t S :   . = v 8XkXlX0X0XlXxXnXxX9X5X3Xj j 3X7Xc c VXVXVXVXVXVXVXVXVXVXVXVXVXVXVXVXVX",
"VXVXVXVXVXVXVXVXVXVXVXVXVXVX8 8 u.B.,XK.Z.b.q m P < X   . = v 8XqXkX0XqXcXcXqX3X-   . . j $.c VXVXVXVXVXVXVXVXVXVXVXVXVXVXVXVXVXVX",
"VXVXVXVXVXVXVXVXVXVXVXVXVXVXi 8 u.B.G.G.D.Z.k.d S R < @   . = v 8XkXqX0X9X8Xx =       o > F VXVXVXVXVXVXVXVXVXVXVXVXVXVXVXVXVXVXVX",
"VXVXVXVXVXVXVXVXVXVXVXVXVXVXy 9 u.B.<XH.G.D.m.p J ! T n @   . = x c 4X4X3Xk =       o : B P VXVXVXVXVXVXVXVXVXVXVXVXVXVXVXVXVXVXVX",
"VXVXVXVXVXVXVXVXVXVXVXVXVXVXVXVXi j.J.T.L.D.n.j.w S ! Z #     . + = j x k +       o : E ;.T N VXVXVXVXVXVXVXVXVXVXVXVXVXVXVXVXVXVX",
"VXVXVXVXVXVXVXVXVXVXVXVXVXVXVXVX8 0 b.,X1XI.F.N.t.m C 1 VX          = - =       . : E 5.5.-.B VXVXVXVXVXVXVXVXVXVXVXVXVXVXVXVXVXVX",
"VXVXVXVXVXVXVXVXVXVXVXVXVXVXVXVX8 p N.I.2X>XF.b.i.t , X                       . : P <.5.1.;.Y C VXA A A VXVXVXVXVXVXVXVXVXVXVXVXVX",
"VXVXVXVXVXVXVXVXVXVXVXVXVXVXVXVXVXp b.D.L.G.F.D.n.s.6 .                     . : C W <.1.6.1.-.P B =.6.*.A VXVXVXVXVXVXVXVXVXVXVXVX",
"VXVXVXVXVXVXVXVXVXVXVXVXVXVXVXVXVXVXu.b.C.G.G.G.F.M.i.6 O                     @ < P W <.5.7.,.G =.6.<.R B VXVXVXVXVXVXVXVXVXVXVXVX",
"VXVXVXVXVXVXVXVXVXVXVXVXVXVXVXVXVXVXy h.B.C.G.G.G.Z.M.a.6 O                     X 1 A ~ 1.5.7.=.1.<.R C VXVXVXVXVXVXVXVXVXVXVXVXVX",
"VXVXVXVXVXVXVXVXVXVXVXVXVXVXVXVXVXVXVXa.h.N.C.C.D.Z.M.k.9 O                       X 1 Z ~ <.5.7.,.T C N VXVXVXVXVXVXVXVXVXVXVXVXVX",
"VXVXVXVXVXVXVXVXVXVXVXVXVXVXVXVXVXVXVXVX8 y.b.b.b.M.h.7 O                           X 1 P ~ <.:.R C V VXVXVXVXVXVXVXVXVXVXVXVXVXVX",
"VXVXVXVXVXVXVXVXVXVXVXVXVXVXVXVXVXVXVXVXVXVXp p i p 7 O                               X 1 Y R R A N VXVXVXVXVXVXVXVXVXVXVXVXVXVXVX",
"VXVXVXVXVXVXVXVXVXVXVXVXVXVXVXVXVXVXVXVXVXVXVX& % % O                                   X 1 Z C VXVXVXVXVXVXVXVXVXVXVXVXVXVXVXVXVX",
"VXVXVXVXVXVXVXVXVXVXVXVXVXVXVXVXVXVXVXVXVXVXVXVX                                          @ B VXVXVXVXVXVXVXVXVXVXVXVXVXVXVXVXVXVX",
"VXVXVXVXVXVXVXVXVXVXVXVXVXVXVXVXVXVXVXVXVXVXVXVXVXVX                                    . VXVXVXVXVXVXVXVXVXVXVXVXVXVXVXVXVXVXVXVX",
"VXVXVXVXVXVXVXVXVXVXVXVXVXVXVXVXVXVXVXVXVXVXVXVXVXVXVXVXVX                          VXVXVXVXVXVXVXVXVXVXVXVXVXVXVXVXVXVXVXVXVXVXVX"
};
