/* XPM */
static char *_9171856a76540be92ddbd7d2e7b245dgFDrs0fsztmohjB8[] = {
/* columns rows colors chars-per-pixel */
"32 32 176 2 ",
"   c None",
".  c #000000",
"X  c #0C0200",
"o  c gray5",
"O  c #150500",
"+  c #1B0B00",
"@  c #110115",
"#  c #220E00",
"$  c #371600",
"%  c #2C183E",
"&  c #35393A",
"*  c #5D2500",
"=  c #45301D",
"-  c #712F00",
";  c #682403",
":  c #45082A",
">  c #722829",
",  c #3B413B",
"<  c #674801",
"1  c #7B663D",
"2  c #391850",
"3  c #3E006D",
"4  c #36026A",
"5  c #3F0072",
"6  c #571F4A",
"7  c #701259",
"8  c #40006F",
"9  c #410071",
"0  c #46027C",
"q  c #49037F",
"w  c #48087C",
"e  c #55087E",
"r  c #600762",
"t  c #6F1C74",
"y  c #452060",
"u  c #3F4443",
"i  c #4D4A4F",
"p  c gray35",
"a  c #61625F",
"s  c #574664",
"d  c #625F63",
"f  c #666667",
"g  c #6F6872",
"h  c #777979",
"j  c #863A00",
"k  c #933F00",
"l  c #A93B13",
"z  c #99252B",
"x  c #B23824",
"c  c #8A4200",
"v  c #924500",
"b  c #A84C00",
"n  c #AF5A00",
"m  c #B85904",
"M  c #BF641F",
"N  c #9F5C23",
"B  c #C45900",
"V  c #D45600",
"C  c #C26000",
"Z  c #CF7D00",
"A  c #D57800",
"S  c #D77900",
"D  c #C96413",
"F  c #E16400",
"G  c #E97F00",
"H  c #D15D29",
"J  c #C97536",
"K  c #8D1F50",
"L  c #9F1D5D",
"P  c #B33153",
"I  c #831F7E",
"U  c #A72A6A",
"Y  c #B62C70",
"T  c #B43374",
"R  c #BD3B7B",
"E  c #B73B7E",
"W  c #AB3376",
"Q  c #C13E7F",
"!  c #9E4153",
"~  c #B94748",
"^  c #906D4B",
"/  c #B44078",
"(  c #D86846",
")  c #C84C6B",
"_  c #BA8235",
"`  c #D58500",
"'  c #D69300",
"]  c #F88D00",
"[  c #F49100",
"{  c #EEA100",
"}  c #F4A900",
"|  c #FFD700",
" . c #FBC528",
".. c #AC8C77",
"X. c #F7DC5F",
"o. c #4A0484",
"O. c #4A0688",
"+. c #51048D",
"@. c #51098D",
"#. c #4E0097",
"$. c #540A94",
"%. c #590B9A",
"&. c #550794",
"*. c #561394",
"=. c #5B1495",
"-. c #5C129B",
";. c #621799",
":. c #6B1688",
">. c #6B259A",
",. c #5F1DBA",
"<. c #5D07A2",
"1. c #6818AA",
"2. c #6A1CBC",
"3. c #6109A9",
"4. c #6721A9",
"5. c #6B23B4",
"6. c #6F27BC",
"7. c #7326BB",
"8. c #7629B8",
"9. c #7B34BD",
"0. c #7331B1",
"q. c #7E2CC2",
"w. c #7D32C3",
"e. c #BF3890",
"r. c #8C26A7",
"t. c #C93E8D",
"y. c #B05586",
"u. c #B96789",
"i. c #BE4BAF",
"p. c #C44283",
"a. c #CA4B8B",
"s. c #C94A87",
"d. c #D44D8C",
"f. c #D94C87",
"g. c #DA5393",
"h. c #DD5C9A",
"j. c #D25D95",
"k. c #E15B9A",
"l. c #E25590",
"z. c #D8639B",
"x. c #DD5CA1",
"c. c #E763A1",
"v. c #EA66A3",
"b. c #EA6CA6",
"n. c #ED66AA",
"m. c #F178AF",
"M. c #E778B5",
"N. c #F578B1",
"B. c #8339C3",
"V. c #8237C6",
"C. c #7C8185",
"Z. c #898B86",
"A. c #989798",
"S. c #998A83",
"D. c #A08D83",
"F. c #AFB1AD",
"G. c #B7B7B8",
"H. c #ABADB0",
"J. c #F58FA4",
"K. c #EB86B6",
"L. c #FA8ABC",
"P. c #F990BA",
"I. c #C3BDBC",
"U. c #B9BFC3",
"Y. c #F89BC5",
"T. c #FFA6CD",
"R. c #F5AED0",
"E. c #C6C6C6",
"W. c gray80",
"Q. c #DBDBDB",
"!. c #E0DFDF",
"~. c #E6E7E9",
"^. c #EBECED",
"/. c #E5E4E5",
"(. c #EEECF1",
"). c #F7F9FA",
/* pixels */
"                            p.Q                                 ",
"                            T L h.                              ",
"                                j.h.                            ",
"                                s.L.h.Q                         ",
"                              T Q m.T.K.Q                       ",
"                            R d.v.b.Y.K.v.                      ",
"                          U g.l.c.m.L.P.T.p.                    ",
"                          t.g.R a.g.n.k.z.y.                    ",
"                        r f.g.R s.c.k.v.s.R                     ",
"                        :.U l.d.g.v.T.R.c.d.                    ",
"                      q &.&.t y.n.N.P.T.m.T                     ",
"                      4.V.7.+.-.7.r.i.x.E e                     ",
"                    w B.r.-.0.8.:.;.5.1.=.O.o.                  ",
"                    $.7.*.9.1.7 f.W > 4 *.w @.w +.              ",
"                    <.@.6.4.K T K.x.D < ; t q.-.0 q             ",
"                  +.+.8.q.6 x p.M.e.~ A B e q.r.                ",
"                  0 -.w.#.E P x.s.z x ( J.M.r.4.O.              ",
"                  +.5.q.o.@ : R H ] c 6 y.u.~ P                 ",
"                9 3.7.&.2 , u b ] { n * . . * [                 ",
"                o.5.1.9 i h h N F } X.J Z.d ^ m                 ",
"              o.8.q.+.3 f Z.C.D.m }  .J ^.).~.S.                ",
"            0 -.w.%.3 3 g A.A.U...m M I.^.!.^.G.                ",
"          0 =.9.%.3 3 5 y Z.G.E.^././.)./.Q.G.A.                ",
"        w =.1.%.3 9 3 5 8 s F.~.Q.).!.Q.E.G.f                   ",
"      o.9.5.9 8 8 8 8 9     f A.H.W.E.H.C.p o                   ",
"    o.q.1.3 8 8 9 9 9         % & & & 1 = . .                   ",
"    1.%.9       9           . . X X X v * .                     ",
"  @.$.3               . . . . - S ' ' b . .                     ",
"  9                 . . . . . b [ | | n . . . .                 ",
"                    . . . . . v B Z ` n X . . .                 ",
"                      . . . . $ B A ` A j X .                   ",
"                        . . . X + O O O # X                     "
};
