/* XPM */
static char *result[] = {
/* columns rows colors chars-per-pixel */
"65 65 244 2 ",
"   c #000000",
".  c #0C0400",
"X  c #080A0A",
"o  c #110600",
"O  c #190B03",
"+  c #1A1211",
"@  c #371603",
"#  c #2B100A",
"$  c #2C0F29",
"%  c #353634",
"&  c #2B282E",
"*  c #19072B",
"=  c #501D00",
"-  c #481E00",
";  c #582602",
":  c #612500",
">  c #692C00",
",  c #783300",
"<  c #712E01",
"1  c #43102B",
"2  c #44262B",
"3  c #49332E",
"4  c #77233F",
"5  c #744810",
"6  c #735939",
"7  c #37075A",
"8  c #350E56",
"9  c #3E006D",
"0  c #3C0766",
"q  c #3E0073",
"w  c #340178",
"e  c #3F3546",
"r  c #6F0E5A",
"t  c #503156",
"y  c #41066C",
"u  c #431865",
"i  c #400071",
"p  c #46027B",
"a  c #49077C",
"s  c #570B7A",
"d  c #540F6F",
"f  c #791B78",
"g  c #66106C",
"h  c #562E66",
"j  c #520F57",
"k  c #3A4647",
"l  c #49484A",
"z  c #59585A",
"x  c #514A54",
"c  c #5F615D",
"v  c #5A4F62",
"b  c #696A68",
"n  c #7A7A7A",
"m  c #757575",
"M  c #746E6F",
"N  c #79614A",
"B  c #863700",
"V  c #973E01",
"C  c #943617",
"Z  c #973A26",
"A  c #8F2D33",
"S  c #B1362B",
"D  c #B53D1A",
"F  c #9D4500",
"G  c #AA4902",
"H  c #B84C02",
"J  c #B85801",
"K  c #AE4D16",
"L  c #BB700B",
"P  c #9B562A",
"I  c #B1542C",
"U  c #966301",
"Y  c #C95701",
"T  c #CD5714",
"R  c #C86602",
"E  c #D66603",
"W  c #D87800",
"Q  c #D27113",
"!  c #E46700",
"~  c #E77E00",
"^  c #F47F00",
"/  c #C8522F",
"(  c #DA6A31",
")  c #9A1B5B",
"_  c #961859",
"`  c #8C1355",
"'  c #992358",
"]  c #A72957",
"[  c #B0364E",
"{  c #971A65",
"}  c #8D2375",
"|  c #96267A",
" . c #953172",
".. c #AC2A6B",
"X. c #A62664",
"o. c #A82978",
"O. c #B52D71",
"+. c #BB3A7A",
"@. c #B83676",
"#. c #B02F6E",
"$. c #A01F5F",
"%. c #C13E7E",
"&. c #A87652",
"*. c #B24275",
"=. c #867568",
"-. c #C94D72",
";. c #D66B69",
":. c #C98501",
">. c #DA8600",
",. c #D59111",
"<. c #E78800",
"1. c #F68900",
"2. c #E59800",
"3. c #F49B00",
"4. c #E49F11",
"5. c #EAA300",
"6. c #F8A900",
"7. c #FBB603",
"8. c #D9A12D",
"9. c #FBC600",
"0. c #FDD600",
"q. c #F5D00D",
"w. c #FAD129",
"e. c #B3856B",
"r. c #82877E",
"t. c #C58C67",
"y. c #E2A055",
"u. c #FCE152",
"i. c #4B0384",
"p. c #4E038A",
"a. c #4C0886",
"s. c #50058D",
"d. c #530D8B",
"f. c #56128D",
"g. c #540593",
"h. c #540A92",
"j. c #580A9B",
"k. c #561292",
"l. c #5B1898",
"z. c #4E0397",
"x. c #621B98",
"c. c #68128B",
"v. c #5C06A3",
"b. c #5E0BA3",
"n. c #5E0FAB",
"m. c #5D14A5",
"M. c #610DA9",
"N. c #6313AC",
"B. c #6719A8",
"V. c #6A1AB3",
"C. c #6B17B6",
"Z. c #731DB6",
"A. c #7418AD",
"S. c #6A25AC",
"D. c #6C24B3",
"F. c #6B25B7",
"G. c #742BBB",
"H. c #7629B8",
"J. c #7C33BE",
"K. c #7A35B5",
"L. c #7227AF",
"P. c #7F2080",
"I. c #777E83",
"U. c #7B2EC1",
"Y. c #7C34C1",
"T. c #AF358C",
"R. c #8139BC",
"E. c #8B23A4",
"W. c #942B80",
"Q. c #C13680",
"!. c #BB4389",
"~. c #BD47AB",
"^. c #C44282",
"/. c #CB4484",
"(. c #CE4989",
"). c #C84589",
"_. c #D44D8D",
"`. c #D4498C",
"'. c #D35687",
"]. c #DA5393",
"[. c #D85695",
"{. c #C75191",
"}. c #E35B9C",
"|. c #E45894",
" X c #D7679C",
".X c #CB6B9A",
"XX c #E3629F",
"oX c #F6669D",
"OX c #D458AA",
"+X c #D574AB",
"@X c #EA65A4",
"#X c #E769A6",
"$X c #F26CAB",
"%X c #EB74AB",
"&X c #F575AD",
"*X c #F978B4",
"=X c #E97BB1",
"-X c #843AC3",
";X c #853AC6",
":X c #802CC3",
">X c #8A42C8",
",X c #9249CD",
"<X c #7B8287",
"1X c #848484",
"2X c #8A8A8A",
"3X c #939392",
"4X c #999B99",
"5X c #918F8D",
"6X c #A7968A",
"7X c #ACACAC",
"8X c #A6A6A6",
"9X c #B4B4B4",
"0X c #BCBCBC",
"qX c #B6B7B9",
"wX c #98A0A6",
"eX c #ED88B8",
"rX c #FA8ABC",
"tX c #F687B8",
"yX c #F894BE",
"uX c #CA999B",
"iX c #F7ED9E",
"pX c #BDBCC0",
"aX c #FC9CC6",
"sX c #F997C4",
"dX c #F693C5",
"fX c #FCA7CE",
"gX c #FDAAD3",
"hX c #FAB4D6",
"jX c #BBC2C4",
"kX c #CCCDCD",
"lX c #C5C4C3",
"zX c #D4D4D4",
"xX c #DBDBDB",
"cX c #CAD1D4",
"vX c #E5E5E4",
"bX c #EBEBEB",
"nX c #E6E8EA",
"mX c #EDF2F5",
"MX c #F3F3F3",
"NX c #FCFCFC",
"BX c #F3F9FB",
"VX c #ECF0F1",
"CX c #DBE4E8",
"ZX c None",
/* pixels */
"ZXZXZXZXZXZXZXZXZXZXZXZXZXZXZXZXZXZXZXZXZXZXZXZXZXZXZXZXZXZXZXZXZXZXZXZXZXZXZXZXZXZXZXZXZXZXZXZXZXZXZXZXZXZXZXZXZXZXZXZXZXZXZXZXZX",
"ZXZXZXZXZXZXZXZXZXZXZXZXZXZXZXZXZXZXZXZXZXZXZXZXZXZXZXZXZXZX@.@.@.ZXZXZXZXZXZXZXZXZXZXZXZXZXZXZXZXZXZXZXZXZXZXZXZXZXZXZXZXZXZXZXZX",
"ZXZXZXZXZXZXZXZXZXZXZXZXZXZXZXZXZXZXZXZXZXZXZXZXZXZXZXZXZX[._.@.[._.ZXZXZXZXZXZXZXZXZXZXZXZXZXZXZXZXZXZXZXZXZXZXZXZXZXZXZXZXZXZXZX",
"ZXZXZXZXZXZXZXZXZXZXZXZXZXZXZXZXZXZXZXZXZXZXZXZXZXZXZXZXZX^.@.X.^.].(.ZXZXZXZXZXZXZXZXZXZXZXZXZXZXZXZXZXZXZXZXZXZXZXZXZXZXZXZXZXZX",
"ZXZXZXZXZXZXZXZXZXZXZXZXZXZXZXZXZXZXZXZXZXZXZXZXZXZXZXZXZXZXZXZXX. X%X(.ZXZXZXZXZXZXZXZXZXZXZXZXZXZXZXZXZXZXZXZXZXZXZXZXZXZXZXZXZX",
"ZXZXZXZXZXZXZXZXZXZXZXZXZXZXZXZXZXZXZXZXZXZXZXZXZXZXZXZXZXZXZXZX$. XrX[.@.ZXZXZXZXZXZXZXZXZXZXZXZXZXZXZXZXZXZXZXZXZXZXZXZXZXZXZXZX",
"ZXZXZXZXZXZXZXZXZXZXZXZXZXZXZXZXZXZXZXZXZXZXZXZXZXZXZXZXZXZXZXZXZXT.}.@X^.@.ZXZXZXZXZXZXZXZXZXZXZXZXZXZXZXZXZXZXZXZXZXZXZXZXZXZXZX",
"ZXZXZXZXZXZXZXZXZXZXZXZXZXZXZXZXZXZXZXZXZXZXZXZXZXZXZXZXZXZXZXZX] ].dXrX@X_.@.@.ZXZXZXZXZXZXZXZXZXZXZXZXZXZXZXZXZXZXZXZXZXZXZXZXZX",
"ZXZXZXZXZXZXZXZXZXZXZXZXZXZXZXZXZXZXZXZXZXZXZXZXZXZXZXZXZXZXZX) ..O. XsXyX%XXX_.+.ZXZXZXZXZXZXZXZXZXZXZXZXZXZXZXZXZXZXZXZXZXZXZXZX",
"ZXZXZXZXZXZXZXZXZXZXZXZXZXZXZXZXZXZXZXZXZXZXZXZXZXZXZXZXZXZX_ o.^.O.(.rXfXyXrX&X[.-.ZXZXZXZXZXZXZXZXZXZXZXZXZXZXZXZXZXZXZXZXZXZXZX",
"ZXZXZXZXZXZXZXZXZXZXZXZXZXZXZXZXZXZXZXZXZXZXZXZXZXZXZXZXZX) ..-.+.+.}.#X%XyXfXfX%X_.@.ZXZXZXZXZXZXZXZXZXZXZXZXZXZXZXZXZXZXZXZXZXZX",
"ZXZXZXZXZXZXZXZXZXZXZXZXZXZXZXZXZXZXZXZXZXZXZXZXZXZXZXZX) ../.`.+.`.$XXX[.eXgXeX$X@X(.ZXZXZXZXZXZXZXZXZXZXZXZXZXZXZXZXZXZXZXZXZXZX",
"ZXZXZXZXZXZXZXZXZXZXZXZXZXZXZXZXZXZXZXZXZXZXZXZXZXZXZX) ..^._.].@X&X*XtXtXsXsX.X XtX#X-.ZXZXZXZXZXZXZXZXZXZXZXZXZXZXZXZXZXZXZXZXZX",
"ZXZXZXZXZXZXZXZXZXZXZXZXZXZXZXZXZXZXZXZXZXZXZXZXZXZXZX) @._._.|.$X*X*XtXrXrXrXtXsXfX=X^.ZXZXZXZXZXZXZXZXZXZXZXZXZXZXZXZXZXZXZXZXZX",
"ZXZXZXZXZXZXZXZXZXZXZXZXZXZXZXZXZXZXZXZXZXZXZXZXZXZX) X.^.].].].`.).^.[.*X*XtXsXaXfXeX^.ZXZXZXZXZXZXZXZXZXZXZXZXZXZXZXZXZXZXZXZXZX",
"ZXZXZXZXZXZXZXZXZXZXZXZXZXZXZXZXZXZXZXZXZXZXZXZXZXZX$.@._.]._.^.+.[.XX_.[.&X*X&X'.+XtX{.ZXZXZXZXZXZXZXZXZXZXZXZXZXZXZXZXZXZXZXZXZX",
"ZXZXZXZXZXZXZXZXZXZXZXZXZXZXZXZXZXZXZXZXZXZXZXZXZXZX$./.].]._.@.@.!.#X@X(.}.@X].+.*.[.*.ZXZXZXZXZXZXZXZXZXZXZXZXZXZXZXZXZXZXZXZXZX",
"ZXZXZXZXZXZXZXZXZXZXZXZXZXZXZXZXZXZXZXZXZXZXZXZXZXZX{ -.].].(.+.@.#.[.%X].].|.|.|.(...+.ZXZXZXZXZXZXZXZXZXZXZXZXZXZXZXZXZXZXZXZXZX",
"ZXZXZXZXZXZXZXZXZXZXZXZXZXZXZXZXZXZXZXZXZXZXZXZXZXd { -.].].`.Q./.[.@X@X}.$XtXtX*X}._._.^.ZXZXZXZXZXZXZXZXZXZXZXZXZXZXZXZXZXZXZXZX",
"ZXZXZXZXZXZXZXZXZXZXZXZXZXZXZXZXZXZXZXZXZXZXZXZXZXg.{ @.`.].`.`.^.).].}.$XdXhXhX=X_.@X].%.ZXZXZXZXZXZXZXZXZXZXZXZXZXZXZXZXZXZXZXZX",
"ZXZXZXZXZXZXZXZXZXZXZXZXZXZXZXZXZXZXZXZXZXZXZXZXN.B.s g o.`.|.|.}.}.}.$XrXdXfXhXdX.X/.^.@.ZXZXZXZXZXZXZXZXZXZXZXZXZXZXZXZXZXZXZXZX",
"ZXZXZXZXZXZXZXZXZXZXZXZXZXZXZXZXZXZXZXZXZXZXZXp a.d.d.i.g f  .(.oX&X*X*X*XtXyXfXhXeX].%.+.ZXZXZXZXZXZXZXZXZXZXZXZXZXZXZXZXZXZXZXZX",
"ZXZXZXZXZXZXZXZXZXZXZXZXZXZXZXZXZXZXZXZXZXZXZXa a.k.n.n.l.h.d.} T.~.OXOX*XtXyXsXrX&X].o.ZXZXZXZXZXZXZXZXZXZXZXZXZXZXZXZXZXZXZXZXZX",
"ZXZXZXZXZXZXZXZXZXZXZXZXZXZXZXZXZXZXZXZXZXZXZXl.L.G.G.U.S.j.i.d.B.Z.C.E.).OX+X#X}.(. .s ZXZXZXZXZXZXZXZXZXZXZXZXZXZXZXZXZXZXZXZXZX",
"ZXZXZXZXZXZXZXZXZXZXZXZXZXZXZXZXZXZXZXZXZXZXp.H.;X,X>XH.l.a f.S.Y.J.V.N.A.A.A.T.%.{ a z.ZXZXZXZXZXZXZXZXZXZXZXZXZXZXZXZXZXZXZXZXZX",
"ZXZXZXZXZXZXZXZXZXZXZXZXZXZXZXZXZXZXZXZXZXq l.G.;X,XJ.k.k.S.K.>XH.k.s x.Y.Y.C.B.A.f.9 p g.i.ZXZXZXZXZXZXZXZXZXZXZXZXZXZXZXZXZXZXZX",
"ZXZXZXZXZXZXZXZXZXZXZXZXZXZXZXZXZXZXZXZXZXZXx.J.>XG.f.f.L.>XG.l.f } } f x.f.l.v.C.J.k.a B.l.0 ZXZXZXZXZXZXZXZXZXZXZXZXZXZXZXZXZXZX",
"ZXZXZXZXZXZXZXZXZXZXZXZXZXZXZXZXZXZXZXZXZXZXB.J.L.k.k.K.>XG.f.r ` /.|.| r 4 8 w B.S.h.p a.d.p i g.s.ZXZXZXZXZXZXZXZXZXZXZXZXZXZXZX",
"ZXZXZXZXZXZXZXZXZXZXZXZXZXZXZXZXZXZXZXZXi j.C.N.s.d.S.Y.U.z.g _ ..XX&X).[ T 5 $ 7 7 j y a.j.k.a.g.g.p.ZXZXZXZXZXZXZXZXZXZXZXZXZXZX",
"ZXZXZXZXZXZXZXZXZXZXZXZXZXZXZXZXZXZXZXZXp v.M.p.d.S.U.F.c.r $.O.^.=XaX#X[ T :.5 X ; C d m.C.N.B.p p g.i.i ZXZXZXZXZXZXZXZXZXZXZXZX",
"ZXZXZXZXZXZXZXZXZXZXZXZXZXZXZXZXZXZXZXZXj.M.i.d.S.U.F.a.P S ..%.+.eXfX}.o.[ 4.:., H T d F.U.V.S.i ZXZXp i ZXZXZXZXZXZXZXZXZXZXZXZX",
"ZXZXZXZXZXZXZXZXZXZXZXZXZXZXZXZXZXZXZXi.v.s.i.L.Y.U.n.p Z D X.(.{.eXeX_.o.[ ,.:.Y ! K d F.;X-XK.B.ZXZXZXZXZXZXZXZXZXZXZXZXZXZXZXZX",
"ZXZXZXZXZXZXZXZXZXZXZXZXZXZXZXZXZXZXZXi.j.p x.J.Y.n.g.} Z C ] ).XX X^...{ $.( E G T -.| f.l.K.,XS.a ZXZXZXZXZXZXZXZXZXZXZXZXZXZXZX",
"ZXZXZXZXZXZXZXZXZXZXZXZXZXZXZXZXZXZXZXp s.p.K.>XF.z.s T.;.[ X.(.#X_.] A A S T ( ;.;.sX=X .g c.F.L.a ZXZXZXZXZXZXZXZXZXZXZXZXZXZXZX",
"ZXZXZXZXZXZXZXZXZXZXZXZXZXZXZXZXZXZXZXi i j.J.-XF.v.s } #.X.O.@X*X[./ H H F C -.dXaXhXgX=X(.| d.m.a ZXZXZXZXZXZXZXZXZXZXZXZXZXZXZX",
"ZXZXZXZXZXZXZXZXZXZXZXZXZXZXZXZXZXZXp.g.i.B.G.G.C.v.7 * + 1 ` %.).I E ^ ~ F # 4 !.{..X.X.X'.-.' h q ZXZXZXZXZXZXZXZXZXZXZXZXZXZXZX",
"ZXZXZXZXZXZXZXZXZXZXZXZXZXZXZXZXZXZXs.v.v.D.G.C.b.q * X X X 1 ' I E 1.7.6.J - + $ $ 1 2 3 4 / Q 8.ZXZXZXZXZXZXZXZXZXZXZXZXZXZXZXZX",
"ZXZXZXZXZXZXZXZXZXZXZXZXZXZXZXZXZXZXi.M.N.F.C.j.i.7 % % l k 3 C T 1.6.5.>.J B : @       . ; J W 6.ZXZXZXZXZXZXZXZXZXZXZXZXZXZXZXZX",
"ZXZXZXZXZXZXZXZXZXZXZXZXZXZXZXZXZXZXi.M.V.F.V.z.0 t z b n n N G ! 1.<.<.2.>.R H 5 &   . . : R R Y ZXZXZXZXZXZXZXZXZXZXZXZXZXZXZXZX",
"ZXZXZXZXZXZXZXZXZXZXZXZXZXZXZXZXZXi g.N.F.D.b.a.u l x m n m M P Y ! ! 5.q.u.y.I &.3Xx l x 6 Q W G ZXZXZXZXZXZXZXZXZXZXZXZXZXZXZXZX",
"ZXZXZXZXZXZXZXZXZXZXZXZXZXZXZXZXZXg.V.G.D.M.s.i u x c 5Xm c <X=.K Y ~ 7.w.iXiX&.t.VXxXxXxX0Xe.K P ZXZXZXZXZXZXZXZXZXZXZXZXZXZXZXZX",
"ZXZXZXZXZXZXZXZXZXZXZXZXZXZXZXZXg.V.-XR.N.M.p q 8 z n 4Xm b wX4XP T ~ 5.7.w.w.L t.MXNXNXMXnXqX2X=.ZXZXZXZXZXZXZXZXZXZXZXZXZXZXZXZX",
"ZXZXZXZXZXZXZXZXZXZXZXZXZXZXZXs.N.-X>XG.v.i.i i u c 3X8X<Xr.7XqX6XI H R 3.<.L e.9XvXVXxXxXMXnXqXI.ZXZXZXZXZXZXZXZXZXZXZXZXZXZXZXZX",
"ZXZXZXZXZXZXZXZXZXZXZXZXZXZXh.p.B.Y.G.M.p.i i i 8 c 4X8X2X3X7XqXjX6XP K Y H &.0XvXvXMXxXkXvXMXpXn ZXZXZXZXZXZXZXZXZXZXZXZXZXZXZXZX",
"ZXZXZXZXZXZXZXZXZXZXZXZXZXs.s.x.L.F.M.i.i 9 i i 0 h m 4X3X8X9X7XcXcXuXt.e.uXkXVXbXzXNXbXkXzXxX8Xn ZXZXZXZXZXZXZXZXZXZXZXZXZXZXZXZX",
"ZXZXZXZXZXZXZXZXZXZXZXZXs.d.x.R.J.N.i.9 9 i i i q 0 x r.wX7XqX0XzXvXVXBXVXMXNXNXxXzXMXzX9X9X9X2Xn ZXZXZXZXZXZXZXZXZXZXZXZXZXZXZXZX",
"ZXZXZXZXZXZXZXZXZXZXZXa.p.f.R.G.M.p.i 9 i i i 9 q y t b 5X9XlXxXMXvXvXNXbXxXMXMXzXkXMXzX5X2X3Xm ZXZXZXZXZXZXZXZXZXZXZXZXZXZXZXZXZX",
"ZXZXZXZXZXZXZXZXZXZXa d f.V.N.M.i.i 9 i 9 i i i q q u x n 7XlXvXVXzXxXNXbXzXvXbXpXqXxXpX2XM m ZXZXZXZXZXZXZXZXZXZXZXZXZXZXZXZXZXZX",
"ZXZXZXZXZXZXZXZXZXj.L.R.H.M.a p i 9 i i i i 9 i i ZXZXu v 1X7XkXzX0XlXVXbXkXzXzX7X7X0X3Xm l + ZXZXZXZXZXZXZXZXZXZXZXZXZXZXZXZXZXZX",
"ZXZXZXZXZXZXZXZXj.H.H.:XB.a 9 y 9 9 i i i i i i i ZXZXZXZXc b 2X7X7X8XkXxX0XjXqX4X1Xm z % +   ZXZXZXZXZXZXZXZXZXZXZXZXZXZXZXZXZXZX",
"ZXZXZXZXZXZXZXj.H.;Xx.s.p 9 i i i i i i 9 i i i ZXZXZXZXZXZXe t M I.m 2X5X1X2Xr.b x & & X     ZXZXZXZXZXZXZXZXZXZXZXZXZXZXZXZXZXZX",
"ZXZXZXZXZXZXj.H.;XH.i.9 9 i y i i i 9 i i i i ZXZXZXZXZXZXZXZXZX% % % % % % % 6 6 %         ZXZXZXZXZXZXZXZXZXZXZXZXZXZXZXZXZXZXZX",
"ZXZXZXZXZXs.H.:XM.v.i.9 i i i i i i i i i i ZXZXZXZXZXZXZXZXZXZX            O U <.< .     ZXZXZXZXZXZXZXZXZXZXZXZXZXZXZXZXZXZXZXZX",
"ZXZXZXZXZXl.H.j.p i i ZXZXZXZXZXZXi 9 i ZXZXZXZXZXZXZXZX        o o o o o . O , Y > .   ZXZXZXZXZXZXZXZXZXZXZXZXZXZXZXZXZXZXZXZXZX",
"ZXZXZXZXZXV.j.p 9 9 ZXZXZXZXZXZXZXZXZXZXZXZXZXZXZX            O : B , , < , B V < O     ZXZXZXZXZXZXZXZXZXZXZXZXZXZXZXZXZXZXZXZXZX",
"ZXZXZXi N.b.p 9 9 ZXZXZXZXZXZXZXZXZXZXZXZXZXZX              O < Y ~ 2.4.2.<.<.J ;           ZXZXZXZXZXZXZXZXZXZXZXZXZXZXZXZXZXZXZX",
"ZXZXZXi s.p 9 ZXZXZXZXZXZXZXZXZXZXZXZXZXZXZX                @ G E 3.9.0.0.9.7.R =             ZXZXZXZXZXZXZXZXZXZXZXZXZXZXZXZXZXZX",
"ZXZXZXi 9 9 ZXZXZXZXZXZXZXZXZXZXZXZXZXZXZX                  @ F E <.6.7.0.0.7.R =               ZXZXZXZXZXZXZXZXZXZXZXZXZXZXZXZXZX",
"ZXZXZXi ZXZXZXZXZXZXZXZXZXZXZXZXZXZXZXZX                    @ F Y E W 5.9.9.5.R =                 ZXZXZXZXZXZXZXZXZXZXZXZXZXZXZXZX",
"ZXZXZXZXZXZXZXZXZXZXZXZXZXZXZXZXZXZXZXZX                    @ F H G J J G J J G ;                 ZXZXZXZXZXZXZXZXZXZXZXZXZXZXZXZX",
"ZXZXZXZXZXZXZXZXZXZXZXZXZXZXZXZXZXZXZXZXZX                  . - F Y W 2.2.5.5.2.L -             ZXZXZXZXZXZXZXZXZXZXZXZXZXZXZXZXZX",
"ZXZXZXZXZXZXZXZXZXZXZXZXZXZXZXZXZXZXZXZXZXZX                  O B Y E W >.>.>.W R G ; o       ZXZXZXZXZXZXZXZXZXZXZXZXZXZXZXZXZXZX",
"ZXZXZXZXZXZXZXZXZXZXZXZXZXZXZXZXZXZXZXZXZXZXZX                O ; < : : : : ; ; > < : o     ZXZXZXZXZXZXZXZXZXZXZXZXZXZXZXZXZXZXZX",
"ZXZXZXZXZXZXZXZXZXZXZXZXZXZXZXZXZXZXZXZXZXZXZXZXZX                  .       .     . .   ZXZXZXZXZXZXZXZXZXZXZXZXZXZXZXZXZXZXZXZXZX",
"ZXZXZXZXZXZXZXZXZXZXZXZXZXZXZXZXZXZXZXZXZXZXZXZXZXZXZXZX                          ZXZXZXZXZXZXZXZXZXZXZXZXZXZXZXZXZXZXZXZXZXZXZXZX"
};
