/* XPM */
static char *_326a3211e13416b9d144f45dca14078Y6HhFUdRhg6jgdby[] = {
/* columns rows colors chars-per-pixel */
"32 32 182 2 ",
"   c None",
".  c #000000",
"X  c #0D0400",
"o  c #160600",
"O  c #09130F",
"+  c #0E0015",
"@  c #141415",
"#  c #181818",
"$  c #2D1100",
"%  c #361800",
"&  c #1A211E",
"*  c #441E00",
"=  c #4D2000",
"-  c #542300",
";  c #5E2600",
":  c #6C2D00",
">  c #7C3200",
",  c #642312",
"<  c #3C006E",
"1  c #370075",
"2  c #530C49",
"3  c #790C45",
"4  c #473951",
"5  c #7E2954",
"6  c #48136F",
"7  c #46017B",
"8  c #490E7A",
"9  c #420074",
"0  c #56067E",
"q  c #4B177C",
"w  c #69076C",
"e  c gray31",
"r  c #5C544F",
"t  c #67655D",
"y  c #5B5F61",
"u  c #5C5165",
"i  c #676866",
"p  c #6F716E",
"a  c gray48",
"s  c #73676E",
"d  c #81301D",
"f  c #863800",
"g  c #943B38",
"h  c #9C4400",
"j  c #905300",
"k  c #A14500",
"l  c #A94800",
"z  c #B44B00",
"x  c #B94806",
"c  c #BC5200",
"v  c #B95E13",
"b  c #A05122",
"n  c #A56937",
"m  c #C75B00",
"M  c #CA5B01",
"N  c #D65F02",
"B  c #D0501F",
"V  c #CA6400",
"C  c #C76700",
"Z  c #DD6600",
"A  c #D86700",
"S  c #CA7100",
"D  c #F36D00",
"F  c #E27C00",
"G  c #F57B00",
"H  c #D0512E",
"J  c #83184B",
"K  c #8F1D5C",
"L  c #991A5A",
"P  c #AB3C4D",
"I  c #833E63",
"U  c #8E2779",
"Y  c #AB296A",
"T  c #A12060",
"R  c #B6326D",
"E  c #B53374",
"W  c #B93977",
"Q  c #B72F78",
"!  c #C13C7C",
"~  c #B85141",
"^  c #AA7D5F",
"/  c #895170",
"(  c #DC674D",
")  c #CC4760",
"_  c #DA8700",
"`  c #D69400",
"'  c #EA9C00",
"]  c #E19F00",
"[  c #E8A201",
"{  c #FDA400",
"}  c #F0A100",
"|  c #EDB100",
" . c #CC892B",
".. c #FCC200",
"X. c #FFDC00",
"o. c #FFD81F",
"O. c #EBC25C",
"+. c #4C0887",
"@. c #54098A",
"#. c #57108C",
"$. c #4E0091",
"%. c #4D0B96",
"&. c #540594",
"*. c #570C96",
"=. c #5C1594",
"-. c #5B139B",
";. c #5F1A97",
":. c #601C9E",
">. c #61169E",
",. c #641383",
"<. c #7B3087",
"1. c #68259B",
"2. c #4F0AA0",
"3. c #5903A1",
"4. c #5D0DA1",
"5. c #5913A4",
"6. c #6011A5",
"7. c #6412AC",
"8. c #641BA7",
"9. c #6814B2",
"0. c #721AA9",
"q. c #6923A4",
"w. c #6C26A7",
"e. c #7123AE",
"r. c #6E24B7",
"t. c #7224BA",
"y. c #732BB7",
"u. c #7C32BC",
"i. c #772DC9",
"p. c #7D34C4",
"a. c #8C1D88",
"s. c #9C2D83",
"d. c #8E2CAB",
"f. c #9E33AE",
"g. c #C23B84",
"h. c #CC4A8A",
"j. c #C74685",
"k. c #D34B8D",
"l. c #C7508A",
"z. c #D65291",
"x. c #DB5494",
"c. c #D35A93",
"v. c #E25796",
"b. c #E8679C",
"n. c #F7718B",
"m. c #DD5DA5",
"M. c #E868A4",
"N. c #F96DAA",
"B. c #EB77AA",
"V. c #F577AB",
"C. c #EB7BB3",
"Z. c #F678B1",
"A. c #8136C2",
"S. c #843CC5",
"D. c #883CCD",
"F. c #8D44CB",
"G. c #954DCF",
"H. c #964DD1",
"J. c #7D8285",
"K. c #8C8C8C",
"L. c #828282",
"P. c #979797",
"I. c #8B949B",
"U. c #9EA19C",
"Y. c gray64",
"T. c #AAACAD",
"R. c gray72",
"E. c #F788B9",
"W. c #F897C3",
"Q. c #FDA9CE",
"!. c #F6A3C9",
"~. c #C1C1C1",
"^. c #CACDCC",
"/. c #D5D0CD",
"(. c #D4D4D4",
"). c #DCDCDC",
"_. c #DDE2E6",
"`. c #E3E3E3",
"'. c #ECECEC",
"]. c #F1F1F1",
"[. c #FAFAFB",
"{. c #F7F9F8",
/* pixels */
"                          j.! z.                                ",
"                          E T W M.h.                            ",
"                                E M.E                           ",
"                                Y E.M.j.                        ",
"                              Y W c.W.E.x.                      ",
"                            Y k.z.M.C.W.M.j.                    ",
"                          L h.v.N.B.E.W.W.M.                    ",
"                          R x.z.g.l.x.Z.B.l.                    ",
"                          ! v.k.Q h.b.v.v.k.                    ",
"                        @.Y v.x.h.k.M.Q.E.k.!                   ",
"                      7 *.0 U h.N.N.E.Q.Q.b.W                   ",
"                      -.q.t.%.@.d.f.m.C.b.s.                    ",
"                    -.F.H.w.=.u.r.-.t.0.a.7 +.                  ",
"                  7 A.H.q.:.D.q + d w #.r.#.%.< 7               ",
"                  >.G.q.-.A.8 . j H z.B.K 2 2.4.+.@.            ",
"                  u.w.-.i.#.f $ _ P g.C.v.3 <.i.%.              ",
"                +.y.#.u.4.w ) n.( H W c.l.x V ~ g               ",
"                y.q.w.8.$.2 I / 5 , J m.V.M { S O. .            ",
"              7 S.e.-.*.8 @ O & . . . 3 R M D [ o.S             ",
"              =.y.9.&.&.6 y K.~.K.a p s / : m A G x             ",
"            :.S.t.$.1.@.4 p i Y.^.[.'.[.^.~./.^ b               ",
"          +.F.u.3.>.8.< u P.L.R.).].`.[.`.].[._.J.              ",
"        8.r.9.&.=.e.7 < u U.Y.`.[.`.].'.'.(.(.`.J.              ",
"u.1.+.5.4.&.@.;.u.7 <     i R.].).`.[.`.`.K.T.I.                ",
">.p.u.1.1.w.d.p.*.1       @ L.^.~.).`.).P.y t n                 ",
"7 9.y.p.p.p.9.%.      > o . @ e L.Y.Y.K.y r v Z m l z           ",
"  +.4.7.7.8.        M } ` % . . . # @ #     h Z V M M           ",
"                  z [ X.{ V X . . . . . . . X k Z M             ",
"                c | ` _ k - . . . . . . . . . X h               ",
"                l ' | S = . . . . . . . . . . . X               ",
"                  z ] [ F : X . . . . . . . . .                 ",
"                        - % . . . . . . . .                     "
};
