/* XPM */
static char *result[] = {
/* columns rows colors chars-per-pixel */
"65 65 236 2 ",
"   c #000000",
".  c #0B0402",
"X  c #0A080D",
"o  c #160800",
"O  c #0E0119",
"+  c #171716",
"@  c #3A1800",
"#  c #2A1200",
"$  c #242424",
"%  c gray17",
"&  c #363636",
"*  c #1C0F2B",
"=  c #451B02",
"-  c #4C2100",
";  c #572601",
":  c #40251F",
">  c #652A00",
",  c #732E11",
"<  c #4D1030",
"1  c #682229",
"2  c #7A5234",
"3  c #340C56",
"4  c #3E006D",
"5  c #380564",
"6  c #3E0072",
"7  c #591054",
"8  c #731354",
"9  c #6B314E",
"0  c #421766",
"q  c #420173",
"w  c #45037B",
"e  c #4C0D7D",
"r  c #480478",
"t  c #57097A",
"y  c #4F1171",
"u  c #73156D",
"i  c #5E3160",
"p  c #595959",
"a  c #4B4B4D",
"s  c #704D5D",
"d  c #5C5561",
"f  c #6C6D6C",
"g  c #636564",
"h  c #747474",
"j  c #78797A",
"k  c #70746C",
"l  c #715763",
"z  c #863804",
"x  c #953E00",
"c  c #A53D0A",
"v  c #943231",
"b  c #9B4600",
"n  c #A54400",
"m  c #AB4A00",
"M  c #A34900",
"N  c #B34B00",
"B  c #B54800",
"V  c #B55001",
"C  c #BC5603",
"Z  c #B64E15",
"A  c #BE6700",
"S  c #BF7200",
"D  c #8C5C39",
"F  c #A94527",
"G  c #B45125",
"H  c #CA5C00",
"J  c #C25803",
"K  c #D55D00",
"L  c #CD5110",
"P  c #C86702",
"I  c #D26100",
"U  c #D76800",
"Y  c #C77903",
"T  c #D67900",
"R  c #D26913",
"E  c #E77700",
"W  c #ED6F00",
"Q  c #CC502C",
"!  c #DF6216",
"~  c #9B1A5B",
"^  c #941757",
"/  c #911749",
"(  c #9B215C",
")  c #98234B",
"_  c #B43054",
"`  c #981B62",
"'  c #902873",
"]  c #A72768",
"[  c #AB2A76",
"{  c #AE3378",
"}  c #B43373",
"|  c #BC3A7A",
" . c #B83578",
".. c #B43470",
"X. c #A31764",
"o. c #C13D7E",
"O. c #C93D77",
"+. c #C43B67",
"@. c #877565",
"#. c #A2634B",
"$. c #C8427C",
"%. c #C95545",
"&. c #DB8600",
"*. c #D69707",
"=. c #EA9A00",
"-. c #F29A00",
";. c #F28900",
":. c #F8A400",
">. c #F8BB03",
",. c #E8A900",
"<. c #D58425",
"1. c #FBC500",
"2. c #FBCA00",
"3. c #FAD700",
"4. c #F6CB19",
"5. c #81847E",
"6. c #B1937B",
"7. c #DFAD5E",
"8. c #FCE257",
"9. c #4A0483",
"0. c #4D0C83",
"q. c #4E038A",
"w. c #4E0A8A",
"e. c #460484",
"r. c #51058C",
"t. c #520B8C",
"y. c #5E0887",
"u. c #56158B",
"i. c #530393",
"p. c #5A059D",
"a. c #560997",
"s. c #5B1698",
"d. c #611D96",
"f. c #77168B",
"g. c #642299",
"h. c #7E338F",
"j. c #5A08A4",
"k. c #5C16A6",
"l. c #630CAC",
"z. c #6207AE",
"x. c #6113A4",
"c. c #631DA3",
"v. c #6513AD",
"b. c #651DAA",
"n. c #6B1AAA",
"m. c #6B1CB3",
"M. c #6917B4",
"N. c #7319AD",
"B. c #6B26A6",
"V. c #6D23B6",
"C. c #6E25B8",
"Z. c #7226BB",
"A. c #742CBB",
"S. c #7428B6",
"D. c #7C33BC",
"F. c #7831B6",
"G. c #702DAC",
"H. c #7F7E80",
"J. c #7A2CC6",
"K. c #7D35C2",
"L. c #6C20C7",
"P. c #902F95",
"I. c #B63F84",
"U. c #833DBC",
"Y. c #962BA7",
"T. c #831DA5",
"R. c #C73F83",
"E. c #B14895",
"W. c #8E44AF",
"Q. c #9D7E8F",
"!. c #C44382",
"~. c #CB4586",
"^. c #CE4A8B",
"/. c #C94787",
"(. c #D44D8D",
"). c #D84D85",
"_. c #D7518C",
"`. c #DA5393",
"'. c #D75896",
"]. c #D05292",
"[. c #E35C9C",
"{. c #E25796",
"}. c #D56399",
"|. c #D5678B",
" X c #E5659E",
".X c #E6648C",
"XX c #DF71A6",
"oX c #EA64A4",
"OX c #EB6CA9",
"+X c #F269A8",
"@X c #EB75AB",
"#X c #F574AC",
"$X c #F37BB2",
"%X c #FA79B4",
"&X c #EB71B2",
"*X c #DD5BA8",
"=X c #843CC3",
"-X c #873AC8",
";X c #8942C6",
":X c #8D44C9",
">X c #934BCB",
",X c #9047CB",
"<X c #9149D0",
"1X c #848484",
"2X c #88898B",
"3X c #939494",
"4X c #9A9A9B",
"5X c #959992",
"6X c #918F90",
"7X c #A5A5A5",
"8X c #A9A9A9",
"9X c #B2B2B3",
"0X c #BBBBBB",
"qX c #B3B1AF",
"wX c #9D9991",
"eX c #F987B9",
"rX c #F18EB9",
"tX c #D6979E",
"yX c #F9E088",
"uX c #F999C4",
"iX c #F48FC5",
"pX c #FBA3CB",
"aX c #FDACD0",
"sX c #F9B6D6",
"dX c #C3C3C3",
"fX c #CCCCCC",
"gX c #D4D4D4",
"hX c #DBDBDB",
"jX c #CAD6CF",
"kX c #E3E3E3",
"lX c #EBEBEB",
"zX c #F3F3F3",
"xX c #FBFBFB",
"cX c #ECF3F5",
"vX c #DAE4EB",
"bX c None",
/* pixels */
"bXbXbXbXbXbXbXbXbXbXbXbXbXbXbXbXbXbXbXbXbXbXbXbXbXbXbXbXbXbXbXbXbXbXbXbXbXbXbXbXbXbXbXbXbXbXbXbXbXbXbXbXbXbXbXbXbXbXbXbXbXbXbXbXbX",
"bXbXbXbXbXbXbXbXbXbXbXbXbXbXbXbXbXbXbXbXbXbXbXbXbXbXbXbX|  .| | | bXbXbXbXbXbXbXbXbXbXbXbXbXbXbXbXbXbXbXbXbXbXbXbXbXbXbXbXbXbXbXbX",
"bXbXbXbXbXbXbXbXbXbXbXbXbXbXbXbXbXbXbXbXbXbXbXbXbXbXbX!.[.$.| oXoX!.} bXbXbXbXbXbXbXbXbXbXbXbXbXbXbXbXbXbXbXbXbXbXbXbXbXbXbXbXbXbX",
"bXbXbXbXbXbXbXbXbXbXbXbXbXbXbXbXbXbXbXbXbXbXbXbXbXbXbXbX!.} ] | ^.'.'.^.bXbXbXbXbXbXbXbXbXbXbXbXbXbXbXbXbXbXbXbXbXbXbXbXbXbXbXbXbX",
"bXbXbXbXbXbXbXbXbXbXbXbXbXbXbXbXbXbXbXbXbXbXbXbXbXbXbXbXbXbXbX^ ( /.$X&X(.bXbXbXbXbXbXbXbXbXbXbXbXbXbXbXbXbXbXbXbXbXbXbXbXbXbXbXbX",
"bXbXbXbXbXbXbXbXbXbXbXbXbXbXbXbXbXbXbXbXbXbXbXbXbXbXbXbXbXbXbXbXbX( ].eXoXI.bXbXbXbXbXbXbXbXbXbXbXbXbXbXbXbXbXbXbXbXbXbXbXbXbXbXbX",
"bXbXbXbXbXbXbXbXbXbXbXbXbXbXbXbXbXbXbXbXbXbXbXbXbXbXbXbXbXbXbXbXbXbX( /.oX!. .bXbXbXbXbXbXbXbXbXbXbXbXbXbXbXbXbXbXbXbXbXbXbXbXbXbX",
"bXbXbXbXbXbXbXbXbXbXbXbXbXbXbXbXbXbXbXbXbXbXbXbXbXbXbXbXbXbXbXbXbX~ ~.$XeXoX(.| ..| bXbXbXbXbXbXbXbXbXbXbXbXbXbXbXbXbXbXbXbXbXbXbX",
"bXbXbXbXbXbXbXbXbXbXbXbXbXbXbXbXbXbXbXbXbXbXbXbXbXbXbXbXbXbXbXbX~ ] } }.uXiX#X X(.R.bXbXbXbXbXbXbXbXbXbXbXbXbXbXbXbXbXbXbXbXbXbXbX",
"bXbXbXbXbXbXbXbXbXbXbXbXbXbXbXbXbXbXbXbXbXbXbXbXbXbXbXbXbXbXbX^ ] | | | XXiXpXeX$X'.!.| bXbXbXbXbXbXbXbXbXbXbXbXbXbXbXbXbXbXbXbXbX",
"bXbXbXbXbXbXbXbXbXbXbXbXbXbXbXbXbXbXbXbXbXbXbXbXbXbXbXbXbXbX^ ] o.(.~.o.`.$XrXiXpX$X{.| bXbXbXbXbXbXbXbXbXbXbXbXbXbXbXbXbXbXbXbXbX",
"bXbXbXbXbXbXbXbXbXbXbXbXbXbXbXbXbXbXbXbXbXbXbXbXbXbXbXbXbX~ ] | _.`.| o.&XtX].rXaX$XoX~.bXbXbXbXbXbXbXbXbXbXbXbXbXbXbXbXbXbXbXbXbX",
"bXbXbXbXbXbXbXbXbXbXbXbXbXbXbXbXbXbXbXbXbXbXbXbXbXbXbXbX^ X.o.(.`.oX+X+XeXeXrXpXuX@X/.'.].bXbXbXbXbXbXbXbXbXbXbXbXbXbXbXbXbXbXbXbX",
"bXbXbXbXbXbXbXbXbXbXbXbXbXbXbXbXbXbXbXbXbXbXbXbXbXbXbXbX^ ..(.(.{.+X%X%XeXeXuXeXuXrXrXrX(.[ bXbXbXbXbXbXbXbXbXbXbXbXbXbXbXbXbXbXbX",
"bXbXbXbXbXbXbXbXbXbXbXbXbXbXbXbXbXbXbXbXbXbXbXbXbXbXbXbXX.O.`.`.`.[.[.(.].'.$XeXrXuXaXpX'.] bXbXbXbXbXbXbXbXbXbXbXbXbXbXbXbXbXbXbX",
"bXbXbXbXbXbXbXbXbXbXbXbXbXbXbXbXbXbXbXbXbXbXbXbXbXbXbX~ } (.(.`.`.^.o.!.].(.'.$XeXeX$X}.$.{ bXbXbXbXbXbXbXbXbXbXbXbXbXbXbXbXbXbXbX",
"bXbXbXbXbXbXbXbXbXbXbXbXbXbXbXbXbXbXbXbXbXbXbXbXbXbXbX( $.{.(.`.(.|  .!.XXoX(.'.+XoX(.} } bXbXbXbXbXbXbXbXbXbXbXbXbXbXbXbXbXbXbXbX",
"bXbXbXbXbXbXbXbXbXbXbXbXbXbXbXbXbXbXbXbXbXbXbXbXbXbXbXX.O.`._.`.(.o. .]  .OX X(.{.`.`.[.~.} bXbXbXbXbXbXbXbXbXbXbXbXbXbXbXbXbXbXbX",
"bXbXbXbXbXbXbXbXbXbXbXbXbXbXbXbXbXbXbXbXbXbXbXbXbXbXq ` ~.`.`.`.(.$.!.(.oXOX[. X$X@X+X[.(.!.bXbXbXbXbXbXbXbXbXbXbXbXbXbXbXbXbXbXbX",
"bXbXbXbXbXbXbXbXbXbXbXbXbXbXbXbXbXbXbXbXbXbXbXbXbXbXt ` O._.`._.]./.o.!.].{.oXrXaXuX#X~.~./. .bXbXbXbXbXbXbXbXbXbXbXbXbXbXbXbXbXbX",
"bXbXbXbXbXbXbXbXbXbXbXbXbXbXbXbXbXbXbXbXbXbXbXbXbXj.n.u ' { )..X{.[.`.(.`.oX$XuXsXsXrX}.~.o. .bXbXbXbXbXbXbXbXbXbXbXbXbXbXbXbXbXbX",
"bXbXbXbXbXbXbXbXbXbXbXbXbXbXbXbXbXbXbXbXbXbXbXbXw a.s.0.6 u [ E._.+X#X#X%X%XeXiXaXsXuXeX(.} bXbXbXbXbXbXbXbXbXbXbXbXbXbXbXbXbXbXbX",
"bXbXbXbXbXbXbXbXbXbXbXbXbXbXbXbXbXbXbXbXbXbXbXbXw w e.j.j.t.e t P.^.*X&XOX%XeXeXuXuXeXOXE.] bXbXbXbXbXbXbXbXbXbXbXbXbXbXbXbXbXbXbX",
"bXbXbXbXbXbXbXbXbXbXbXbXbXbXbXbXbXbXbXbXbXbXbXq.k.c.B.V.V.m.k.w.t f.T.N.Y.`.#XeX$X#X[.!.' bXbXbXbXbXbXbXbXbXbXbXbXbXbXbXbXbXbXbXbX",
"bXbXbXbXbXbXbXbXbXbXbXbXbXbXbXbXbXbXbXbXbXbXq.x.J.=X;X=XD.k.0.e.a.S.=XZ.N.T.Y.Y.I.).o.u t bXbXbXbXbXbXbXbXbXbXbXbXbXbXbXbXbXbXbXbX",
"bXbXbXbXbXbXbXbXbXbXbXbXbXbXbXbXbXbXbXbXbXr k.A.=X>X>X=XB.w.u.B.-X-XS.x.k.Z.J.Z.N.P.T.q w r.bXbXbXbXbXbXbXbXbXbXbXbXbXbXbXbXbXbXbX",
"bXbXbXbXbXbXbXbXbXbXbXbXbXbXbXbXbXbXbXbXbX9.S.;X>X>X-XB.w.c.K.;XU.u.3 3 i B.S.k.j.v.N.u.r t.x.4 bXbXbXbXbXbXbXbXbXbXbXbXbXbXbXbXbX",
"bXbXbXbXbXbXbXbXbXbXbXbXbXbXbXbXbXbXbXbXw x.;X>X>X=Xc.0.c.=X;XV.q O X ; v u y t y.x.D.c.9.0.k.r q w 9.bXbXbXbXbXbXbXbXbXbXbXbXbXbX",
"bXbXbXbXbXbXbXbXbXbXbXbXbXbXbXbXbXbXbXbXw.S.,X>X-Xc.w.s.;X=XB.5 O . ; J L ) [ I.{ ' t t r 6 a.a.w r.j.r.bXbXbXbXbXbXbXbXbXbXbXbXbX",
"bXbXbXbXbXbXbXbXbXbXbXbXbXbXbXbXbXbXbXbXx.=X>X=Xg.t.k.A.J.B.5 O . ; Y R _ $.[.eX X[ 8 1 7 w.k.l.d.i.9.r.t.bXbXbXbXbXbXbXbXbXbXbXbX",
"bXbXbXbXbXbXbXbXbXbXbXbXbXbXbXbXbXbXbXw.A.,X;Xc.t.k.S.Z.k.' ; X o z =.<.` [ [.uXiX`.O.v 7 k.J.k.V.0.5 bXe.q bXbXbXbXbXbXbXbXbXbXbX",
"bXbXbXbXbXbXbXbXbXbXbXbXbXbXbXbXbXbXbXt.D.,XB.9.d.D.A.m.e.v M - @ z =.<.^ X.~.}.@X%X^.` 8 i P.L.J.k.bXbXbXbXbXbXbXbXbXbXbXbXbXbXbX",
"bXbXbXbXbXbXbXbXbXbXbXbXbXbXbXbXbXbXbXa.K.D.e t.D.=XV.p.9.v F F F G R R _ } R. .].@X{ ) F N #.W.W.h.7 bXbXbXbXbXbXbXbXbXbXbXbXbXbX",
"bXbXbXbXbXbXbXbXbXbXbXbXbXbXbXbXbXbXq.M.Z.x.e G.=XZ.j.w u _ $..X#X.X%.R Q _ I.(.*X'...F K U L ! G F F F bXbXbXbXbXbXbXbXbXbXbXbXbX",
"bXbXbXbXbXbXbXbXbXbXbXbXbXbXbXbXbX4 s.-XG.t.B.U.d.a.p.r 8 } `.&XuXiX^.Q c ) [ `.+X+X|.G U -.=.K N A 7.7.n bXbXbXbXbXbXbXbXbXbXbXbX",
"bXbXbXbXbXbXbXbXbXbXbXbXbXbXbXbXbXbXF.:XB.r S.K.t.9.p.9.< < 9 9 s s 9 : = < ^ o.{.eXrXG K :.:.P <.7.yX7.c bXbXbXbXbXbXbXbXbXbXbXbX",
"bXbXbXbXbXbXbXbXbXbXbXbXbXbXbXbXq c.:X;XB.s.x.x.s.a.q.3 X               . X < ~ R.*X_.G W ;.E T 4.8.8.*.c bXbXbXbXbXbXbXbXbXbXbXbX",
"bXbXbXbXbXbXbXbXbXbXbXbXbXbXbXbXq b.=XK.A.m.l.e.u.k.0 * + + % & a & X   .     < / X._ Z K W W T >.4.>.&.n bXbXbXbXbXbXbXbXbXbXbXbX",
"bXbXbXbXbXbXbXbXbXbXbXbXbXbXbXbXw B.A.A.V.l.p.e.a.a.y d p p 1X8X9X3Xa $ % $ $ $ < ] ) z n K U U :.:.;.U n bXbXbXbXbXbXbXbXbXbXbXbX",
"bXbXbXbXbXbXbXbXbXbXbXbXbXbXbXbXk.S.C.m.l.j.e.s.s.w 5 d k j 6X9X0XqX4X4X7X7X5X2X3XQ.l : , Z Z A W E U B bXbXbXbXbXbXbXbXbXbXbXbXbX",
"bXbXbXbXbXbXbXbXbXbXbXbXbXbXbXk.A.;XS.l.p.t.g.V.a.0 a a f f f H.4X0XfXkXxXxXhXkXzXjX7Xj wXtX6.#.J L B bXbXbXbXbXbXbXbXbXbXbXbXbXbX",
"bXbXbXbXbXbXbXbXbXbXbXbXbXbXB.=XK.=Xm.z.i.r F.n.w 0 a g Q.g p 2X9XgXfXgXxXzXgXkXxXlXfXvXcXcXhXqX#.D bXbXbXbXbXbXbXbXbXbXbXbXbXbXbX",
"bXbXbXbXbXbXbXbXbXbXbXbX5 s.;X>X;XS.v.j.t.u.n.t.6 0 p 5.4Xj f 7XdXfXfXkXzXlXkXzXxXlXjXlXxXxXzXhX9X2XbXbXbXbXbXbXbXbXbXbXbXbXbXbXbX",
"bXbXbXbXbXbXbXbXbXbXbXbXr B.,X;XA.v.j.w.d.D.v.w r 3 d 5X7X1XH.8XdXfXkXxXlXgXkXxXzXkXkXzXkXkXxXzXgX3XbXbXbXbXbXbXbXbXbXbXbXbXbXbXbX",
"4 r bXbXbXbXbXbXbXr 0.c.c.S.S.N.l.j.0.d.U.n.9.q 6 3 g 5X8X2X6X0XgXlXzXxXlXhXzXxXkXgXzXzXdXdXxXzXgX3XbXbXbXbXbXbXbXbXbXbXbXbXbXbXbX",
"q r.t.bXbXbXbXbXbXc.B.C.m.l.z.z.j.9.g.F.n.9.4 q bXbXp 1X4X3X8XgXzXxXxXlXhXlXxXxXkXhXxXkX9X9XkXhX9X2XbXbXbXbXbXbXbXbXbXbXbXbXbXbXbX",
"q p.n.g.g.bXbX0.n.m.m.M.l.p.9.9.q.d.D.S.r 4 4 q bXbXp g 1X4X9XkXxXzXhXhXkXzXxXkXkXlXkX0X4X8XfXqX6Xj bXbXbXbXbXbXbXbXbXbXbXbXbXbXbX",
"bXbXS.,XU.g.d.d.a.r.i.i.i.t.u.u.u.U.J.s.6 4 q 4 bXbXbX& p 1XqXhXlXgXdXgXzXxXlXhXhXlXdX3Xf 6X9X2Xj bXbXbXbXbXbXbXbXbXbXbXbXbXbXbXbX",
"bXbXs.Z.A.;X:Xg.e e 0.0.e G.W.>X;XA.M.r.q 4 6 bXbXbXbX. % f 7XdXgXfXdXgXkXlXkXkXlXdX5Xj d g h @.@.bXbXbXbXbXbXbXbXbXbXbXbXbXbXbXbX",
"bXbXq.M.S.A.A.D.;XW.=XW.K.D.A.D.A.v.r.q 6 6 bXbXbXbX    X % f 7X0XdX9X0XhXhXfXgXdX4Xh p g g 2 R R m bXbXbXbXbXbXbXbXbXbXbXbXbXbXbX",
"bXbXbXi.M.C.C.K.K.K.K.K.K.J.C.k.l.q.bXbXbXbXbXbX> o .     . & p j 4X8X7X0XfX0X8X4Xh p a p D J K K H V bXbXm m bXbXbXbXbXbXbXbXbXbX",
"bXbXbX9.z.M.C.C.C.C.C.C.C.m.k.w.9.bXbXbXbXbXbXJ x > = o     X + $ & g h j 1Xj f f p bXp 2 Z U I I I H V N C C V m bXbXbXbXbXbXbXbX",
"bXbXbXbXi.i.n.m.m.m.m.m.C.x.bXbXbXbXbXbXbXbXV U &.&.S ; o           + % % $ % % % % bXbXbXm H I I I I H C I H N m bXbXbXbXbXbXbXbX",
"bXbXbXbX4 bXbXp.p.p.p.p.p.9.bXbXbXbXbXbXbXV U -.2.3.1.Y ; .                         bXbXbXbXV H K P I I H H m bXbXbXbXbXbXbXbXbXbX",
"bXbXbXbXbXbXbXq q q q q q bXbXbXbXbXbXbXN P ,.1.3.2.:.-.A = .                               bXM H I I H H m bXbXbXbXbXbXbXbXbXbXbX",
"bXbXbXbXbXbXbXbXbXbXbXbXbXbXbXbXbXbXn C C C ,.3.2.-.E U C -                                 . @ M I I H m bXbXbXbXbXbXbXbXbXbXbXbX",
"bXbXbXbXbXbXbXbXbXbXbXbXbXbXbXbXbXn N T ,.*.S ,.-.U J N > o                                   . = b H N bXbXbXbXbXbXbXbXbXbXbXbXbX",
"bXbXbXbXbXbXbXbXbXbXbXbXbXbXbXbXbXbXB &.3.3.&.P P x > - #                                       . @ x bXbXbXbXbXbXbXbXbXbXbXbXbXbX",
"bXbXbXbXbXbXbXbXbXbXbXbXbXbXbXbXbXbXx P =.2.1.T C , #                                             . bXbXbXbXbXbXbXbXbXbXbXbXbXbXbX",
"bXbXbXbXbXbXbXbXbXbXbXbXbXbXbXbXbXbXn N U :.2.1.&.H b @                                             bXbXbXbXbXbXbXbXbXbXbXbXbXbXbX",
"bXbXbXbXbXbXbXbXbXbXbXbXbXbXbXbXbXbXbXn B T >.3.>.:.=.b #                                         bXbXbXbXbXbXbXbXbXbXbXbXbXbXbXbX",
"bXbXbXbXbXbXbXbXbXbXbXbXbXbXbXbXbXbXbXbXbXV A S A P P V b @                                     bXbXbXbXbXbXbXbXbXbXbXbXbXbXbXbXbX",
"bXbXbXbXbXbXbXbXbXbXbXbXbXbXbXbXbXbXbXbXbXbXbXbXbXz ; - ; #                                 bXbXbXbXbXbXbXbXbXbXbXbXbXbXbXbXbXbXbX",
"bXbXbXbXbXbXbXbXbXbXbXbXbXbXbXbXbXbXbXbXbXbXbXbXbXbXo   .                                 bXbXbXbXbXbXbXbXbXbXbXbXbXbXbXbXbXbXbXbX",
"bXbXbXbXbXbXbXbXbXbXbXbXbXbXbXbXbXbXbXbXbXbXbXbXbXbXbXbXbX                          bXbXbXbXbXbXbXbXbXbXbXbXbXbXbXbXbXbXbXbXbXbXbX"
};
