/* XPM */
static char *result[] = {
/* columns rows colors chars-per-pixel */
"65 65 240 2 ",
"   c #000000",
".  c #0E0906",
"X  c #1C0C00",
"o  c #150908",
"O  c #0C0314",
"+  c #151516",
"@  c #1E0F10",
"#  c #270D02",
"$  c #2A1201",
"%  c #381600",
"&  c #340A1F",
"*  c #180031",
"=  c #3D3D3D",
"-  c #292929",
";  c #3D1034",
":  c #4B1D00",
">  c #411F1F",
",  c #572502",
"<  c #452206",
"1  c #672A03",
"2  c #7B3900",
"3  c #480E2F",
"4  c #6B2E28",
"5  c #413C38",
"6  c #674A39",
"7  c #6A5238",
"8  c #5A4739",
"9  c #33005A",
"0  c #320E53",
"q  c #3D314C",
"w  c #3E006D",
"e  c #390064",
"r  c #3D0172",
"t  c #38007A",
"y  c #290062",
"u  c #581159",
"i  c #411F5C",
"p  c #720C53",
"a  c #4A2E57",
"s  c #450669",
"d  c #441666",
"f  c #420273",
"g  c #45027B",
"h  c #48057D",
"j  c #470B77",
"k  c #570D71",
"l  c #6B1378",
"z  c #741978",
"x  c #680F68",
"c  c #5D3D61",
"v  c #4C4E4A",
"b  c #5D5B5E",
"n  c #4F4D54",
"m  c #594D64",
"M  c #676767",
"N  c #747574",
"B  c #7B7B7C",
"V  c #767678",
"C  c #6F7070",
"Z  c #715F5E",
"A  c #913B0A",
"S  c #9A2F2F",
"D  c #AB3734",
"F  c #A5391D",
"G  c #964100",
"H  c #9B4400",
"J  c #8A4914",
"K  c #AB4A02",
"L  c #B94B05",
"P  c #A75405",
"I  c #B85302",
"U  c #B74B16",
"Y  c #AF4F14",
"T  c #B4710B",
"R  c #9A5A33",
"E  c #8C5831",
"W  c #B24D2F",
"Q  c #BB7130",
"!  c #C75802",
"~  c #C55514",
"^  c #D85C0F",
"/  c #C76602",
"(  c #D46808",
")  c #D47B02",
"_  c #CD7200",
"`  c #E46903",
"'  c #E57700",
"]  c #F57F00",
"[  c #9A1C5A",
"{  c #89154F",
"}  c #8B2C51",
"|  c #A32741",
" . c #B4374B",
".. c #8B1C6A",
"X. c #942869",
"o. c #A92868",
"O. c #B43474",
"+. c #BC3A7B",
"@. c #B93677",
"#. c #AC2E73",
"$. c #A71F61",
"%. c #C13E7E",
"&. c #AF4B75",
"*. c #877364",
"=. c #A06156",
"-. c #CB5252",
";. c #CA6248",
":. c #D3477E",
">. c #D58E04",
",. c #E58800",
"<. c #F28A00",
"1. c #EA9900",
"2. c #F79A00",
"3. c #E29F14",
"4. c #EAA906",
"5. c #F4A800",
"6. c #F8B800",
"7. c #C58130",
"8. c #FCC602",
"9. c #FADC2D",
"0. c #AE8A70",
"q. c #B6825D",
"w. c #C69477",
"e. c #E7B074",
"r. c #FDEC79",
"t. c #4A0384",
"y. c #4D0B85",
"u. c #4E048A",
"i. c #490584",
"p. c #520D8C",
"a. c #510788",
"s. c #56148B",
"d. c #4A0795",
"f. c #540B92",
"g. c #5A0B9D",
"h. c #580699",
"j. c #561392",
"k. c #5A1798",
"l. c #6A1B89",
"z. c #6C1A99",
"x. c #652398",
"c. c #5C0BA3",
"v. c #5912A4",
"b. c #620DAA",
"n. c #631CA6",
"m. c #651CAB",
"M. c #6514AA",
"N. c #6B1CB3",
"B. c #6A18B4",
"V. c #791BAB",
"C. c #6A23AD",
"Z. c #6825A7",
"A. c #732DA8",
"S. c #7734AB",
"D. c #6F23B9",
"F. c #6B26B4",
"G. c #722AB3",
"H. c #742CBC",
"J. c #7B2EBC",
"K. c #7526BA",
"L. c #7A32BC",
"P. c #7B36B4",
"I. c #7C34C2",
"U. c #772AC0",
"Y. c #881E96",
"T. c #B43789",
"R. c #8C35B4",
"E. c #C53D80",
"W. c #BD458C",
"Q. c #8743BC",
"!. c #C54383",
"~. c #CA4585",
"^. c #CE4B8A",
"/. c #C84887",
"(. c #D44C8D",
"). c #DB5393",
"_. c #D85996",
"`. c #CC5091",
"'. c #E35B9C",
"]. c #E55795",
"[. c #D5669C",
"{. c #E3649A",
"}. c #E07F8F",
"|. c #E65EA0",
" X c #DF72A4",
".X c #EB65A3",
"XX c #E968A6",
"oX c #F16AA8",
"OX c #E973AA",
"+X c #F476AD",
"@X c #F979B3",
"#X c #E263B1",
"$X c #DD5EAD",
"%X c #843BC4",
"&X c #8539C7",
"*X c #8C43CA",
"=X c #8A41C6",
"-X c #944BCC",
";X c #F978C3",
":X c #7F8182",
">X c #838384",
",X c #8C8D8D",
"<X c #868889",
"1X c #989897",
"2X c #8C9190",
"3X c #A79385",
"4X c #A8A9A9",
"5X c #B3B3B3",
"6X c #B8B9BA",
"7X c #AAAFB3",
"8X c #A2A09F",
"9X c #ED86B6",
"0X c #F887B9",
"qX c #F792BD",
"wX c #E691B5",
"eX c #CBAF9E",
"rX c #F8EB92",
"tX c #BFBEC0",
"yX c #FB8DC2",
"uX c #FB9AC5",
"iX c #FA98C5",
"pX c #EC9AC4",
"aX c #FCA6CD",
"sX c #FBACD2",
"dX c #F9B6D7",
"fX c #BEC4C7",
"gX c #CCCCCC",
"hX c #C3C4C6",
"jX c #D3D4D4",
"kX c #DADADA",
"lX c #D0D5D8",
"zX c #CBD0D2",
"xX c #E4E4E4",
"cX c #EBEBEB",
"vX c #E6E8E9",
"bX c #F3F3F3",
"nX c #F8FBFD",
"mX c #EBF3F8",
"MX c #E0DFDF",
"NX c None",
/* pixels */
"NXNXNXNXNXNXNXNXNXNXNXNXNXNXNXNXNXNXNXNXNXNXNXNXNXNXNXNXNXNXNXNXNXNXNXNXNXNXNXNXNXNXNXNXNXNXNXNXNXNXNXNXNXNXNXNXNXNXNXNXNXNXNXNXNX",
"NXNXNXNXNXNXNXNXNXNXNXNXNXNXNXNXNXNXNXNXNXNXNXNXNXNXNX+.@.O.+.+.+.NXNXNXNXNXNXNXNXNXNXNXNXNXNXNXNXNXNXNXNXNXNXNXNXNXNXNXNXNXNXNXNX",
"NXNXNXNXNXNXNXNXNXNXNXNXNXNXNXNXNXNXNXNXNXNXNXNXNXNX/.'.+.o.!..X.XE.NXNXNXNXNXNXNXNXNXNXNXNXNXNXNXNXNXNXNXNXNXNXNXNXNXNXNXNXNXNXNX",
"NXNXNXNXNXNXNXNXNXNXNXNXNXNXNXNXNXNXNXNXNXNXNXNXNXNX+.!.O.NX@._.9XOX~.NXNXNXNXNXNXNXNXNXNXNXNXNXNXNXNXNXNXNXNXNXNXNXNXNXNXNXNXNXNX",
"NXNXNXNXNXNXNXNXNXNXNXNXNXNXNXNXNXNXNXNXNXNXNXNXNXNXNXNXNXNXNX#.[.@X).O.NXNXNXNXNXNXNXNXNXNXNXNXNXNXNXNXNXNXNXNXNXNXNXNXNXNXNXNXNX",
"NXNXNXNXNXNXNXNXNXNXNXNXNXNXNXNXNXNXNXNXNXNXNXNXNXNXNXNXNXNXNXNXW.XXXXE.+.NXNXNXNXNXNXNXNXNXNXNXNXNXNXNXNXNXNXNXNXNXNXNXNXNXNXNXNX",
"NXNXNXNXNXNXNXNXNXNXNXNXNXNXNXNXNXNXNXNXNXNXNXNXNXNXNXNXNXNXNXo.[.yX0X.X(.+.@.NXNXNXNXNXNXNXNXNXNXNXNXNXNXNXNXNXNXNXNXNXNXNXNXNXNX",
"NXNXNXNXNXNXNXNXNXNXNXNXNXNXNXNXNXNXNXNXNXNXNXNXNXNXNXNXNXNX$.o.O.OXuXqX+X.X(.+.NXNXNXNXNXNXNXNXNXNXNXNXNXNXNXNXNXNXNXNXNXNXNXNXNX",
"NXNXNXNXNXNXNXNXNXNXNXNXNXNXNXNXNXNXNXNXNXNXNXNXNXNXNXNXNX[ @.E.#._.yXuXuXqX+X_.%.NXNXNXNXNXNXNXNXNXNXNXNXNXNXNXNXNXNXNXNXNXNXNXNX",
"NXNXNXNXNXNXNXNXNXNXNXNXNXNXNXNXNXNXNXNXNXNXNXNXNXNXNXNX[ #.%.@.:._.XXOXqXsXuX+X(.O.NXNXNXNXNXNXNXNXNXNXNXNXNXNXNXNXNXNXNXNXNXNXNX",
"NXNXNXNXNXNXNXNXNXNXNXNXNXNXNXNXNXNXNXNXNXNXNXNXNXNXNX$.O.(.E.@.(.+X[.).qXsX0X+X.X~.NXNXNXNXNXNXNXNXNXNXNXNXNXNXNXNXNXNXNXNXNXNXNX",
"NXNXNXNXNXNXNXNXNXNXNXNXNXNXNXNXNXNXNXNXNXNXNXNXNXNX[ O.^.(.'..X+X@X0X0XaXpX[.[.0XXX!.NXNXNXNXNXNXNXNXNXNXNXNXNXNXNXNXNXNXNXNXNXNX",
"NXNXNXNXNXNXNXNXNXNXNXNXNXNXNXNXNXNXNXNXNXNXNXNXNXNXo.%.).(.'.+X@X@X@XqXqX0X9XpXaX+X!.NXNXNXNXNXNXNXNXNXNXNXNXNXNXNXNXNXNXNXNXNXNX",
"NXNXNXNXNXNXNXNXNXNXNXNXNXNXNXNXNXNXNXNXNXNXNXNXNX[ #.~.).).).(.~.~..X@X@X0XiXaXsX9X/.NXNXNXNXNXNXNXNXNXNXNXNXNXNXNXNXNXNXNXNXNXNX",
"NXNXNXNXNXNXNXNXNXNXNXNXNXNXNXNXNXNXNXNXNXNXNXNXNX$.%.).).(.E.&._._.(.|.@X@X+X_. XiX`.NXNXNXNXNXNXNXNXNXNXNXNXNXNXNXNXNXNXNXNXNXNX",
"NXNXNXNXNXNXNXNXNXNXNXNXNXNXNXNXNXNXNXNXNXNXNXNXNXo.(.).).~.@.+._.OX_.^..XoX).@.&.[.W.NXNXNXNXNXNXNXNXNXNXNXNXNXNXNXNXNXNXNXNXNXNX",
"NXNXNXNXNXNXNXNXNXNXNXNXNXNXNXNXNXNXNXNXNXNXNXNXNXo.(.].).E.+.#.#.[.OX(.).)._.).!.o.O.NXNXNXNXNXNXNXNXNXNXNXNXNXNXNXNXNXNXNXNXNXNX",
"NXNXNXNXNXNXNXNXNXNXNXNXNXNXNXNXNXNXNXNXNXNXNXNXp o.(.).).!.+.^.].oX.X].oX+X9X+X'.~.~.E.NXNXNXNXNXNXNXNXNXNXNXNXNXNXNXNXNXNXNXNXNX",
"NXNXNXNXNXNXNXNXNXNXNXNXNXNXNXNXNXNXNXNXNXNXNXNXx o.:.).).(.!.E.~.).'.oXqXsXsXOX)..X].!.O.NXNXNXNXNXNXNXNXNXNXNXNXNXNXNXNXNXNXNXNX",
"NXNXNXNXNXNXNXNXNXNXNXNXNXNXNXNXNXNXNXNXNXNXu.B.l.x ../.].].).(.).'.oX0XuXsXdXwX_.).~.+.O.NXNXNXNXNXNXNXNXNXNXNXNXNXNXNXNXNXNXNXNX",
"NXNXNXNXNXNXNXNXNXNXNXNXNXNXNXNXNXNXNXNXNXw u.k.f.i.h ..#.E.].oX+X@X@X0X0XuXsXsX9X`.%.+.NXNXNXNXNXNXNXNXNXNXNXNXNXNXNXNXNXNXNXNXNX",
"NXNXNXNXNXNXNXNXNXNXNXNXNXNXNXNXNXNXNXNXNXh i.h f.c.c.y.h z T.(.$X#XoX@X0XqXuXiX@X_.+.NXNXNXNXNXNXNXNXNXNXNXNXNXNXNXNXNXNXNXNXNXNX",
"NXNXNXNXNXNXNXNXNXNXNXNXNXNXNXNXNXNXNXNXNXZ.Z.n.C.D.D.m.v.t.s.z.V.V.T.$X@X0X0XXX).T.z NXNXNXNXNXNXNXNXNXNXNXNXNXNXNXNXNXNXNXNXNXNX",
"NXNXNXNXNXNXNXNXNXNXNXNXNXNXNXNXNXNXNXNXy.G.&X&X*X&XG.j.h u.v.R.&XD.B.Y.Y.R.W.:.#.l u.NXNXNXNXNXNXNXNXNXNXNXNXNXNXNXNXNXNXNXNXNXNX",
"NXNXNXNXNXNXNXNXNXNXNXNXNXNXNXNXNXNXNXNXy.G.*X-X-XL.j.s.x.S.&XJ.n.j.n.I.K.N.Y.Y.z f t.u.NXNXNXNXNXNXNXNXNXNXNXNXNXNXNXNXNXNXNXNXNX",
"NXNXNXNXNXNXNXNXNXNXNXNXNXNXNXNXNXNXNXNXh F.*X-XL.j.p.G.%X%XC.z.l l z.G.F.m.b.B.C.y.g g.g.NXNXNXNXNXNXNXNXNXNXNXNXNXNXNXNXNXNXNXNX",
"NXNXNXNXNXNXNXNXNXNXNXNXNXNXNXNXNXNXNXNXs.L.=XL.j.p.G.=XJ.j.x [ E.E.z k u e d.B.I.v.h j.k.w r g i.NXNXNXNXNXNXNXNXNXNXNXNXNXNXNXNX",
"NXNXNXNXNXNXNXNXNXNXNXNXNXNXNXNXNXNXNXy.G.%XL.j.p.G.=XL.h.x p $.'..X#.D Y > 0 y.j j f h f.f.g h.g.u.NXNXNXNXNXNXNXNXNXNXNXNXNXNXNX",
"NXNXNXNXNXNXNXNXNXNXNXNXNXNXNXNXNXNXNXj.L.J.j.j.G.=XJ.p.x [ o.~.@XyX(. .~ T J & & 4 s f.M.b.k.a.t.u.u.NXNXNXNXNXNXNXNXNXNXNXNXNXNX",
"NXNXNXNXNXNXNXNXNXNXNXNXNXNXNXNXNXNXNXC.F.j.p.n.I.H.l.} | #.%.T.wXuX'.o.W 4.) 1 2 U x N.K.b.C.f NXNXt.f NXNXNXNXNXNXNXNXNXNXNXNXNX",
"NXNXNXNXNXNXNXNXNXNXNXNXNXNXNXNXNXNXv.G.j.u.F.J.U.v.k U D @.E.~.pXiX).o. .3.>.L ` L d F.&XU.G.j.NXNXNXNXNXNXNXNXNXNXNXNXNXNXNXNXNX",
"NXNXNXNXNXNXNXNXNXNXNXNXNXNXNXNXNXw n.k.i.k.&X%XB.d.u J D o.(..X+X[.T.o. .) / L ^ W x v.G.%X*XG.y.NXNXNXNXNXNXNXNXNXNXNXNXNXNXNXNX",
"NXNXNXNXNXNXNXNXNXNXNXNXNXNXNXNXNXNXg.u.i.G.*XI.g.k { F S o.^.'.`.#.{  .^ ~ U U ;.{.W.z j x.*XH.p.NXNXNXNXNXNXNXNXNXNXNXNXNXNXNXNX",
"NXNXNXNXNXNXNXNXNXNXNXNXNXNXNXNXNXNXf t.n.=XI.U.f.k [ | [ @.XXOX/.D F -.-.U ;.9XwXsXqXW.X.z k.N.p.NXNXNXNXNXNXNXNXNXNXNXNXNXNXNXNX",
"NXNXNXNXNXNXNXNXNXNXNXNXNXNXNXNXNXNXr s.J.I.F.D.c.s 3 3 p %.XXXX-.~ ( ^ D 4 =.@XuXsXuX0X{.T.z h.i.NXNXNXNXNXNXNXNXNXNXNXNXNXNXNXNX",
"NXNXNXNXNXNXNXNXNXNXNXNXNXNXNXNXg C.f.x.L.J.H.M.g *     & { @. .U ' 2.<.H @ ; { X.&.&.&.&.-.-.E d NXNXNXNXNXNXNXNXNXNXNXNXNXNXNXNX",
"NXNXNXNXNXNXNXNXNXNXNXNXNXNXNXNXf C.M.M.F.H.F.s.0 O + + + 3 D ~ ' 2.5.5.I : # o . @ O @ 1 U ( 4.NXNXNXNXNXNXNXNXNXNXNXNXNXNXNXNXNX",
"NXNXNXNXNXNXNXNXNXNXNXNXNXNXNXNXf Z.B.B.I.=Xs.r q = v b v 6 L ` 2.5.1.) I H A <         : I / ' NXNXNXNXNXNXNXNXNXNXNXNXNXNXNXNXNX",
"NXNXNXNXNXNXNXNXNXNXNXNXNXNXNXNXr c.B.B.%XR.s.0 n b N >XV E I ` ] ' >.4.3.( I E = + O + , / ) ! NXNXNXNXNXNXNXNXNXNXNXNXNXNXNXNXNX",
"NXNXNXNXNXNXNXNXNXNXNXNXNXNXNXNXf h.B.I.P.x.j a v M >XC C N R I ` ' 4.9.r.e.Q q.7XB N B *.Q _ K NXNXNXNXNXNXNXNXNXNXNXNXNXNXNXNXNX",
"NXNXNXNXNXNXNXNXNXNXNXNXNXNXNXNXg h.B.=XS.j w a v N 2XM M ,X*.Y ! 2.6.9.rXrX7.w.nXbXbXbXlX3XR R NXNXNXNXNXNXNXNXNXNXNXNXNXNXNXNXNX",
"NXNXNXNXNXNXNXNXNXNXNXNXNXNXNXNXg h.B.&XP.j r a M 2X1XM B 7X0.R ! ' 2.6.8.4.T 3XcXnXcXbXcXgX4XB NXNXNXNXNXNXNXNXNXNXNXNXNXNXNXNXNX",
"NXNXNXNXNXNXNXNXNXNXNXNXNXNXNXNXf g.N.&XP.j w q N 8X1XB 2X5X5X3XR I _ <.' ~ q.tXxXbXjXjXcXbXhX<XNXNXNXNXNXNXNXNXNXNXNXNXNXNXNXNXNX",
"NXNXNXNXNXNXNXNXNXNXNXNXNXNXNXNXg v.D.I.Z.t r a N 8X8X>X8X5X6XfX3XR Y U W *.gXvXxXbXxXjXxXbXgX<XNXNXNXNXNXNXNXNXNXNXNXNXNXNXNXNXNX",
"NXNXNXNXNXNXNXNXNXNXNXNXNXNXNXNXr C.H.U.n.g w e m >X1X1X5X5X5XjXjXeXw.3XeXkXnXxXjXbXcXgXjXkX4X>XNXNXNXNXNXNXNXNXNXNXNXNXNXNXNXNXNX",
"NXNXNXNXNXNXNXNXNXNXNXNXNXNXNXNXf C.Z.C.C.y.r j 0 b 2X4X5X6XhXkXvXbXnXbXnXnXbXkXjXbXkX5X5X5X,XB NXNXNXNXNXNXNXNXNXNXNXNXNXNXNXNXNX",
"NXNXNXNXNXNXNXNXNXNXNXNXNXNXNXNXf F.p.p.N.b.h w d n N 1X6XgXvXbXMXvXnXcXkXbXbXjXgXbXjX2X*.2XV V NXNXNXNXNXNXNXNXNXNXNXNXNXNXNXNXNX",
"NXNXNXNXNXNXNXNXNXNXNXNXNXNXNXNXh C.p.j.C.b.g w s i b 2X5XgXcXcXjXMXnXvXjXcXcX6X5XkXtX,XV B V NXNXNXNXNXNXNXNXNXNXNXNXNXNXNXNXNXNX",
"NXNXNXNXNXNXNXNXNXNXNXNXNXNXNXNXn.M.M.C.D.c.g w f r NXM 2X5XjXjX6XgXbXvXgXkXjX5X4X6X2XV V V NXNXNXNXNXNXNXNXNXNXNXNXNXNXNXNXNXNXNX",
"NXNXNXNXNXNXNXNXNXNXNXNXNXNXNXy.N.B.h.A.L.b.g w w r j m M C 2X4X4X4XlXlX6XtX6X1X<XV M C 0.NXNXNXNXNXNXNXNXNXNXNXNXNXNXNXNXNXNXNXNX",
"NXNXNXNXNXNXNXNXNXNXNXNXNXNXNXk.F.M.g x.%XM.g s f r d Z M n a V :XV ,X2X:X,X>XC n - - v NXNXNXNXNXNXNXNXNXNXNXNXNXNXNXNXNXNXNXNXNX",
"NXNXNXNXNXNXNXNXNXNXNXNXNXNXp.H.D.g.p.x.J.g.f f f f s NX=.c u 6 7 7 6 7 8 5 = = -       NXNXNXNXNXNXNXNXNXNXNXNXNXNXNXNXNXNXNXNXNX",
"NXNXNXNXNXNXNXNXNXNXNXNXNXNXk.D.b.g A.L.g.f w w f r u J I K P / ( / / / A X   .           NXNXNXNXNXNXNXNXNXNXNXNXNXNXNXNXNXNXNXNX",
"NXNXNXNXNXNXNXNXNXNXNXNXNXNXG.D.c.r S.L.g.f w f t u S ! ,._ ! 1.6.8.8.1.A #             NXNXNXNXNXNXNXNXNXNXNXNXNXNXNXNXNXNXNXNXNX",
"NXNXNXNXNXNXNXNXNXNXNXNXj.H.K.v.u.Z.P.K.g.f w f t u K ,.6.>.T 5.8.8.8.6.>.2 #           NXNXNXNXNXNXNXNXNXNXNXNXNXNXNXNXNXNXNXNXNX",
"NXNXNXNXNXNXNXNXNXNXNXj.B.N.b.g j R.I.b.u.f f g y ; P 5.8.>.! ) ,.,.,.<.<.I %     X % $ NXNXNXNXNXNXNXNXNXNXNXNXNXNXNXNXNXNXNXNXNX",
"NXNXNXNXNXNXNXNXNXNXu.N.g.h.p.y.l.L.N.u.f w 9 9 * # P 6.6.' I K L ! ! ! ! K , $ $ , H 1 X   NXNXNXNXNXNXNXNXNXNXNXNXNXNXNXNXNXNXNX",
"NXNXNXNXNXNXNXNXf g c.c.y.f x.*X&XM.g e e 9 O     $ P 5.,.K H G A H G G A H H A G G H A :     NXNXNXNXNXNXNXNXNXNXNXNXNXNXNXNXNXNX",
"NXNXNXNXNXNXNXS.x.s j h A.Q.L.B.B.u.* O O O       $ P 2.) 1 # X # X X X X X # X # X X X .       NXNXNXNXNXNXNXNXNXNXNXNXNXNXNXNXNX",
"NXNXNXNXNXNXNXs.A.S.S.S.J.Z.s.h t.NXO             % K ' / ,                                     NXNXNXNXNXNXNXNXNXNXNXNXNXNXNXNXNX",
"NXNXNXNXNXNXNXNXNXS.A.A.h.NXNXNXNXNXNX            X 1 K A #                                     NXNXNXNXNXNXNXNXNXNXNXNXNXNXNXNXNX",
"NXNXNXNXNXNXNXNXNXNXNXNXNXNXNXNXNXNXNXNX            . , %                                     NXNXNXNXNXNXNXNXNXNXNXNXNXNXNXNXNXNX",
"NXNXNXNXNXNXNXNXNXNXNXNXNXNXNXNXNXNXNXNXNX                                                  NXNXNXNXNXNXNXNXNXNXNXNXNXNXNXNXNXNXNX",
"NXNXNXNXNXNXNXNXNXNXNXNXNXNXNXNXNXNXNXNXNXNXNX                                        NXNXNXNXNXNXNXNXNXNXNXNXNXNXNXNXNXNXNXNXNXNX",
"NXNXNXNXNXNXNXNXNXNXNXNXNXNXNXNXNXNXNXNXNXNXNXNXNXNXNX                          NXNXNXNXNXNXNXNXNXNXNXNXNXNXNXNXNXNXNXNXNXNXNXNXNX"
};
