/* XPM */
static char *result[] = {
/* columns rows colors chars-per-pixel */
"65 65 202 2 ",
"   c #000000",
".  c #0B0C0C",
"X  c #0B0804",
"o  c #140E0A",
"O  c #18110B",
"+  c #0E1113",
"@  c #141414",
"#  c #1B1B1B",
"$  c #1D1711",
"%  c #281506",
"&  c #351D07",
"*  c #23211F",
"=  c #382513",
"-  c #1F2123",
";  c #242425",
":  c #292725",
">  c #252728",
",  c #26292B",
"<  c #2B2B2B",
"1  c #2B2927",
"2  c #332E2D",
"3  c #352B23",
"4  c #3C3126",
"5  c #3A342E",
"6  c #2C2E31",
"7  c #2D3134",
"8  c #333333",
"9  c #363A3C",
"0  c #3B3B3B",
"q  c #3B3535",
"w  c #332D33",
"e  c #492A0C",
"r  c #402E1B",
"t  c #4D341C",
"y  c #5B3B1B",
"u  c #563A1E",
"i  c #6A3F12",
"p  c #45392D",
"a  c #443629",
"s  c #5B3E22",
"d  c #533A23",
"f  c #413A33",
"g  c #45383B",
"h  c #543B3C",
"j  c #523739",
"k  c #643C35",
"l  c #734518",
"z  c #764819",
"x  c #69421B",
"c  c #58432E",
"v  c #564635",
"b  c #694827",
"n  c #74502B",
"m  c #674436",
"M  c #744D3E",
"N  c #6A5139",
"B  c #765537",
"V  c #74442E",
"C  c #3B3F41",
"Z  c #443A41",
"A  c #633F40",
"S  c #3E4143",
"D  c #444444",
"F  c #4B4B4B",
"G  c #464746",
"H  c #544C43",
"J  c #5F564E",
"K  c #4B4E51",
"L  c #4D5053",
"P  c #545454",
"I  c #5B5B5B",
"U  c #575756",
"Y  c #634142",
"T  c #6B4443",
"R  c #654649",
"E  c #704A40",
"W  c #785341",
"Q  c #695643",
"!  c #6E645B",
"~  c #7E6954",
"^  c #646465",
"/  c #6C6C6D",
"(  c #67696C",
")  c #6E6F70",
"_  c #6F7070",
"`  c #747474",
"'  c #7B7B7B",
"]  c #777069",
"[  c #8D4D0D",
"{  c #904F0E",
"}  c #92500F",
"|  c #824F1B",
" . c #844B12",
".. c #935313",
"X. c #9A5A1A",
"o. c #995715",
"O. c #A2611F",
"+. c #B47518",
"@. c #8A5B2C",
"#. c #865423",
"$. c #925D28",
"%. c #904F3D",
"&. c #845B34",
"*. c #985C3A",
"=. c #9D6226",
"-. c #88623C",
";. c #96693C",
":. c #A86727",
">. c #AA6B27",
",. c #AB6B2A",
"<. c #A46423",
"1. c #AD7524",
"2. c #A86D34",
"3. c #AB7237",
"4. c #B97633",
"5. c #BC7C3D",
"6. c #B77737",
"7. c #B9742E",
"8. c #945556",
"9. c #975854",
"0. c #8A5542",
"q. c #856444",
"w. c #8E6D4A",
"e. c #936843",
"r. c #9C7043",
"t. c #977656",
"y. c #866E57",
"u. c #AD7443",
"i. c #AD7A47",
"p. c #B47C43",
"a. c #AD7F53",
"s. c #A27E58",
"d. c #A27951",
"f. c #A4654C",
"g. c #887B64",
"h. c #BF8415",
"j. c #D99E00",
"k. c #D79B02",
"l. c #C6890C",
"z. c #DCA303",
"x. c #E3AD00",
"c. c #E9B200",
"v. c #C88932",
"b. c #BD8144",
"n. c #B7824D",
"m. c #AC8359",
"M. c #BA8958",
"N. c #93897F",
"B. c #AD8C66",
"V. c #C48444",
"C. c #C4894D",
"Z. c #C88A4D",
"A. c #CF9254",
"S. c #C7915A",
"D. c #D39354",
"F. c #DC9C5C",
"G. c #D5985B",
"H. c #C48C55",
"J. c #C69566",
"K. c #D69D63",
"L. c #D89F65",
"P. c #DCA46B",
"I. c #D9A169",
"U. c #DEA973",
"Y. c #D5A97A",
"T. c #C8A079",
"R. c #E3A76C",
"E. c #E5AB6D",
"W. c #E3AB72",
"Q. c #E8AF76",
"!. c #E6B17B",
"~. c #EAB47D",
"^. c #848484",
"/. c #8D8D8D",
"(. c #939393",
"). c #9B9B9B",
"_. c #A4A4A4",
"`. c #ACACAC",
"'. c #B3B3B3",
"]. c gray74",
"[. c #D0AE87",
"{. c #E5B684",
"}. c #EAB682",
"|. c #EBBB88",
" X c #F2BE88",
".X c #F2C08B",
"XX c #F8C28B",
"oX c #F4C593",
"OX c #FBCD9C",
"+X c #F8C793",
"@X c #FED3A3",
"#X c #C4C4C4",
"$X c #CBCBCB",
"%X c #D3D3D3",
"&X c #DCDCDC",
"*X c #D8D8D7",
"=X c #EADFCE",
"-X c #E3E3E3",
";X c #EAEAEA",
":X c #F4F4F4",
">X c #FCFCFC",
",X c None",
/* pixels */
",X,X,X,X,X,X,X,X,X,X,X,X,X,X,X,X,X,X,X,X,X,X,X,X,X,X,X,X,X,X,X,X,X,X,X,X,X,X,X,X,X,X,X,X,X,X,X,X,X,X,X,X,X,X,X,X,X,X,X,X,X,X,X,X,X",
",X,X,X,X,X,X,X,X,X,X,X,X,X,X,X,X,X,X,X,X,X,X,X,X,X,X,X,X,X,X    ,X,X,X,X,X,X,X,X,X,X,X,X,X,X,X,X,X,X,X,X,X,X,X,X,X,X,X,X,X,X,X,X,X",
",X,X,X,X,X,X,X,X,X,X,X,X,X,X,X,X,X,X,X,X,X,X,X,X,X,X,X,X,X                ,X,X,X,X,X,X,X,X,X,X,X,X,X,X,X,X,X,X,X,X,X,X,X,X,X,X,X,X",
",X,X,X,X,X,X,X,X,X,X,X,X,X,X,X,X,X,X,X,X,X,X,X,X,X,X,X                      ,X,X,X,X,X,X,X,X,X,X,X,X,X,X,X,X,X,X,X,X,X,X,X,X,X,X,X",
",X,X,X,X,X,X,X,X,X,X,X,X,X,X,X,X,X,X,X,X,X,X,X,X,X                              ,X,X,X,X,X,X,X,X,X,X,X,X,X,X,X,X,X,X,X,X,X,X,X,X,X",
",X,X,X,X,X,X,X,X,X,X,X,X,X,X,X,X,X,X,X,X,X,X,X,X,X            O @     X X         ,X,X,X,X,X,X,X,X,X,X,X,X,X,X,X,X,X,X,X,X,X,X,X,X",
",X,X,X,X,X,X,X,X,X,X,X,X,X,X,X,X,X,X,X,X,X,X,X              % ;.n.c a n t         ,X,X,X,X,X,X,X,X,X,X,X,X,X,X,X,X,X,X,X,X,X,X,X,X",
",X,X,X,X,X,X,X,X,X,X,X,X,X,X,X,X,X,X,X,X,X,X,X,X            n E.Q.P.W.P.-.O         ,X,X,X,X,X,X,X,X,X,X,X,X,X,X,X,X,X,X,X,X,X,X,X",
",X,X,X,X,X,X,X,X,X,X,X,X,X,X,X,X,X,X,X,X,X,X,X,X          X n e.t.{. XW.&.o       ,X,X,X,X,X,X,X,X,X,X,X,X,X,X,X,X,X,X,X,X,X,X,X,X",
",X,X,X,X,X,X,X,X,X,X,X,X,X,X,X,X,X,X,X,X,X,X,X          r = = g./.y.M.;.e %       ,X,X,X,X,X,X,X,X,X,X,X,X,X,X,X,X,X,X,X,X,X,X,X,X",
",X,X,X,X,X,X,X,X,X,X,X,X,X,X,X,X,X,X,X,X,X,X,X,X        y u b [.=XN.4 ~ t.%     ,X,X,X,X,X,X,X,X,X,X,X,X,X,X,X,X,X,X,X,X,X,X,X,X,X",
",X,X,X,X,X,X,X,X,X,X,X,X,X,X,X,X,X,X,X,X,X,X,X,X,X      & e ;.}.{.I.b.5.2.& ,X,X,X,X,X,X,X,X,X,X,X,X,X,X,X,X,X,X,X,X,X,X,X,X,X,X,X",
",X,X,X,X,X,X,X,X,X,X,X,X,X,X,X,X,X,X,X,X,X,X,X,X,X,X,X,X. % #.U.XXJ.q.3.6.u ,X,X,X,X,X,X,X,X,X,X,X,X,X,X,X,X,X,X,X,X,X,X,X,X,X,X,X",
",X,X,X,X,X,X,X,X,X,X,X,X,X,X,X,X,X,X,X,X,X,X,X,X,X,X,X,Xa u | v.i.B B b s ,X,X,X,X,X,X,X,X,X,X,X,X,X,X,X,X,X,X,X,X,X,X,X,X,X,X,X,X",
",X,X,X,X,X,X,X,X,X,X,X,X,X,X,X,X,X,X,X,X,X,X,X,X,X< 4 w.Y.U.C.7.z Q T.q.r c , ,X,X,X,X,X,X,X,X,X,X,X,X,X,X,X,X,X,X,X,X,X,X,X,X,X,X",
",X,X,X,X,X,X,X,X,X,X,X,X,X,X,X,X,X,X,X,X,X,X: ; C 7 p i.F.A.V.5.z N J.p.i.d.q K F ,X,X,X,X,X,X,X,X,X,X,X,X,X,X,X,X,X,X,X,X,X,X,X,X",
",X,X,X,X,X,X,X,X,X,X,X,X,X,X,X,X,X,X,X,X,XD < < Z S f r.G.C.2.>.X.$.=.,.F.n.p S ^ 0 ,X,X,X,X,X,X,X,X,X,X,X,X,X,X,X,X,X,X,X,X,X,X,X",
",X,X,X,X,X,X,X,X,X,X,X,X,X,X,X,X,X,X,X,X,XG S q 0 G 7 N Y.oX|.I.6.X.O.C.!.t.2 9 / ^ 0 ,X,X,X,X,X,X,X,X,X,X,X,X,X,X,X,X,X,X,X,X,X,X",
",X,X,X,X,X,X,X,X,X,X,X,X,X,X,X,X,X,X,X,X8 8 8 < 8 F K H m..X@XOX{.5.>.U.Y.Q C L U P F ,X,X,X,X,X,X,X,X,X,X,X,X,X,X,X,X,X,X,X,X,X,X",
",X,X,X,X,X,X,X,X,X,X,X,X,X,X,X,X,X,X,X,X8 0 < > , D I ^ ! m.I..X@XU.V.S.w.v P I S D K U ,X,X,X,X,X,X,X,X,X,X,X,X,X,X,X,X,X,X,X,X,X",
",X,X,X,X,X,X,X,X,X,X,X,X,X,X,X,X,X,X,X> < 8 D 0 1 - G ) ) ! ~ M.I.V.4.B 5 F ^ F 1 8 G G ,X,X,X,X,X,X,X,X,X,X,X,X,X,X,X,X,X,X,X,X,X",
",X,X,X,X,X,X,X,X,X,X,X,X,X,X,X,X,X,X,X> 0 2 9 D 8 # 8 F I ^ ( ] ~ @.l 5 D I I D # 0 U 0 ,X,X,X,X,X,X,X,X,X,X,X,X,X,X,X,X,X,X,X,X,X",
",X,X,X,X,X,X,X,X,X,X,X,X,X,X,X,X,X,X, 8 G 2 < 2 0 ; # < 0 K ^ ( ^ P v S F D G 0 # 8 P 2 ,X,X,X,X,X,X,X,X,X,X,X,X,X,X,X,X,X,X,X,X,X",
",X,X,X,X,X,X,X,X,X,X,X,X,X,X,X,X,X,X- S F 2 8 S 8 ; @ < 0 0 S Z S C 9 9 8 0 D < # ; 9 - ,X,X,X,X,X,X,X,X,X,X,X,X,X,X,X,X,X,X,X,X,X",
",X,X,X,X,X,X,X,X,X,X,X,X,X,X,X,X,X,Xt H F < 7 F G , . ; q 0 w ; 2 h H g 8 G 0 ; @ + 5 m ,X,X,X,X,X,X,X,X,X,X,X,X,X,X,X,X,X,X,X,X,X",
",X,X,X,X,X,X,X,X,X,X,X,X,X,X,X,X,X,X .| n p G J P : o ; 2 q w g -.1.+.@.R Z < ; $ m m.M.,X,X,X,X,X,X,X,X,X,X,X,X,X,X,X,X,X,X,X,X,X",
",X,X,X,X,X,X,X,X,X,X,X,X,X,X,X,X,X,X} X.H.i.d.[.a.k k T A T M e.v.z.j.l.;.0.T k l p.~.C.,X,X,X,X,X,X,X,X,X,X,X,X,X,X,X,X,X,X,X,X,X",
",X,X,X,X,X,X,X,X,X,X,X,X,X,X,X,X,X[ [ ,.I.D.W.OXZ.0.8.8.8.8.u.3.h.c.x.l.>.3.f.%.,.W.}.b.O.,X,X,X,X,X,X,X,X,X,X,X,X,X,X,X,X,X,X,X,X",
",X,X,X,X,X,X,X,X,X,X,X,X,X,X,X,X,X[ o.C.G.L.!.K.$.k Y Y A m M 0.,.j.j.+.*.W k V >.G.I.D.V.,X,X,X,X,X,X,X,X,X,X,X,X,X,X,X,X,X,X,X,X",
",X,X,X,X,X,X,X,X,X,X,X,X,X,X,X,X,X..>.U.G.I.R.4.i 1 1 2 C Z C j V =.>.&.j q w a z p.I.Q.~.,X,X,X,X,X,X,X,X,X,X,X,X,X,X,X,X,X,X,X,X",
",X,X,X,X,X,X,X,X,X,X,X,X,X,X,X,X,X} ,.!.!.L.|.C.d ; , S F U G 7 0 A j q ; 8 G 6 s A.!.}.@X,X,X,X,X,X,X,X,X,X,X,X,X,X,X,X,X,X,X,X,X",
",X,X,X,X,X,X,X,X,X,X,X,X,X,X,X,X,X..,.Q. XP.OXB.4 ; 0 L G U D C U C > 8 8 9 U 0 d S. XW. X,X,X,X,X,X,X,X,X,X,X,X,X,X,X,X,X,X,X,X,X",
",X,X,X,X,X,X,X,X,X,X,X,X,X,X,X,X,X..<.A.~.R.E.q.> 6 F G F K g I ) G 1 G L 0 I F 3 e.Q.A.p.,X,X,X,X,X,X,X,X,X,X,X,X,X,X,X,X,X,X,X,X",
",X,X,X,X,X,X,X,X,X,X,X,X,X,X,X,X,X[ ..:.G.D.3.c : S S 8 U L G I U C 8 P I G ^ I : b v.A.5.,X,X,X,X,X,X,X,X,X,X,X,X,X,X,X,X,X,X,X,X",
",X,X,X,X,X,X,X,X,X,X,X,X,X,X,X,X,X..X.>.G.F.@.3 > 0 2 2 I U I P 0 0 0 I P K ( P ; t O.D.!.W.,X,X,X,X,X,X,X,X,X,X,X,X,X,X,X,X,X,X,X",
",X,X,X,X,X,X,X,X,X,X,X,X,X,X,X,X,X..b.P.+X+XJ.v > ; 1 0 I ( ^ G 9 0 F I D F I 0 < 5 l 5.!.+X,X,X,X,X,X,X,X,X,X,X,X,X,X,X,X,X,X,X,X",
",X,X,X,X,X,X,X,X,X,X,X,X,X,X,X,X,X..p.~.OX.XP.w.2 - 2 F U ( P 0 0 0 I I q G P D L 0 x 7.I.W.,X,X,X,X,X,X,X,X,X,X,X,X,X,X,X,X,X,X,X",
",X,X,X,X,X,X,X,X,X,X,X,X,X,X,X,X,X,Xo.C.I.P.b.b 1 > < G L ^ F < 1 8 I P < D P I L q l 7.K.,X,X,X,X,X,X,X,X,X,X,X,X,X,X,X,X,X,X,X,X",
",X,X,X,X,X,X,X,X,X,X,X,X,X,X,X,X,X,X,X,X,.D.3.4 ; * ; 8 D G q ; ; 8 P G ; < 0 P / ` ,X,X,X,X,X,X,X,X,X,X,X,X,X,X,X,X,X,X,X,X,X,X,X",
",X,X,X,X,X,X,X,X,X,X,X,X,X,X,X,X,X,X,X,X,X,X,XK K I 9 ; < < 1 ; 8 G G 8 < I / ).&X$X,X,X,X,X,X,X,X,X,X,X,X,X,X,X,X,X,X,X,X,X,X,X,X",
",X,X,X,X,X,X,X,X,X,X,X,X,X,X,X,X,X,X,X,X,X,X,X/ (.$X_.' ^.) P F ^ / I ^ ' `.:X>X>X*X,X,X,X,X,X,X,X,X,X,X,X,X,X,X,X,X,X,X,X,X,X,X,X",
",X,X,X,X,X,X,X,X,X,X,X,X,X,X,X,X,X,X,X,X,X,X_ / /.*X>X>X>X%X(././.' ^.$X#X`.-X>X:X$X(.,X,X,X,X,X,X,X,X,X,X,X,X,X,X,X,X,X,X,X,X,X,X",
",X,X,X,X,X,X,X,X,X,X,X,X,X,X,X,X,X,X,X,X,X,X_ / /.&X>X:X-X`.^.).).` ` _.$X].$X>X>X#X^.,X,X,X,X,X,X,X,X,X,X,X,X,X,X,X,X,X,X,X,X,X,X",
",X,X,X,X,X,X,X,X,X,X,X,X,X,X,X,X,X,X,X,X,X,X` ` ^.$X>X-X_.(._.#X_.` / ^.$X%X'.-X:X].' ,X,X,X,X,X,X,X,X,X,X,X,X,X,X,X,X,X,X,X,X,X,X",
",X,X,X,X,X,X,X,X,X,X,X,X,X,X,X,X,X,X,X,X,X,X' (.^.).$X`./.#X&X#X,X^.^.^./._._.].#X).^.,X,X,X,X,X,X,X,X,X,X,X,X,X,X,X,X,X,X,X,X,X,X",
",X,X,X,X,X,X,X,X,X,X,X,X,X,X,X,X,X,X,X,X,X` ^.'.'.(._.`.$X:X$X).,X^.(.).(.^.(.).).)._.,X,X,X,X,X,X,X,X,X,X,X,X,X,X,X,X,X,X,X,X,X,X",
",X,X,X,X,X,X,X,X,X,X,X,X,X,X,X,X,X,X,X,X,X^._.`.]._.].>X>X-X'.).,X/.).'.$X_./.^.).].%X,X,X,X,X,X,X,X,X,X,X,X,X,X,X,X,X,X,X,X,X,X,X",
",X,X,X,X,X,X,X,X,X,X,X,X,X,X,X,X,X,X,X,X,X(.#X-X*X*X:X:X&X'.).(.,X,X'.'.].%X%X].].#X`.,X,X,X,X,X,X,X,X,X,X,X,X,X,X,X,X,X,X,X,X,X,X",
",X,X,X,X,X,X,X,X,X,X,X,X,X,X,X,X,X,X,X,X,X`.$X&X:X>X;X#X_.).(.,X,X,X/.'.].%X>X>X:X#X(.^.,X,X,X,X,X,X,X,X,X,X,X,X,X,X,X,X,X,X,X,X,X",
",X,X,X,X,X,X,X,X,X,X,X,X,X,X,X,X,X,X,X,X,X_.&X%X%X&X].`._.#X$X,X,X,X' /.$X;X;X>X-X`.(.,X,X,X,X,X,X,X,X,X,X,X,X,X,X,X,X,X,X,X,X,X,X",
",X,X,X,X,X,X,X,X,X,X,X,X,X,X,X,X,X,X,X,X,X` ].$X`.).].;X>X-X$X,X,X,X/.).).`.'.$X*X`.` ,X,X,X,X,X,X,X,X,X,X,X,X,X,X,X,X,X,X,X,X,X,X",
",X,X,X,X,X,X,X,X,X,X,X,X,X,X,X,X,X,X,X,X,X` _.#X#X].&X&X%X'./.,X,X,X,X'.].#X`.` /.' P ,X,X,X,X,X,X,X,X,X,X,X,X,X,X,X,X,X,X,X,X,X,X",
",X,X,X,X,X,X,X,X,X,X,X,X,X,X,X,X,X,X,X,X,X,X/ ).&X&X]._./.' ,X,X,X,X,X,X^.).).` /._.K ,X,X,X,X,X,X,X,X,X,X,X,X,X,X,X,X,X,X,X,X,X,X",
",X,X,X,X,X,X,X,X,X,X,X,X,X,X,X,X,X,X,X,X,X8 I ` /.).^.' ' ,X,X,X,X,X,X,X# # @ 0 (.).P ,X,X,X,X,X,X,X,X,X,X,X,X,X,X,X,X,X,X,X,X,X,X",
",X,X,X,X,X,X,X,X,X,X,X,X,X,X,X,X,X,X,X,X,X  < ).).' / 0 ; ,X,X,X,X,X,X,X      8 `.'.I ,X,X,X,X,X,X,X,X,X,X,X,X,X,X,X,X,X,X,X,X,X,X",
",X,X,X,X,X,X,X,X,X,X,X,X,X,X,X,X,X,X,X,X,X  8 ' (.' <                         # ` ^.G ,X,X,X,X,X,X,X,X,X,X,X,X,X,X,X,X,X,X,X,X,X,X",
",X,X,X,X,X,X,X,X,X,X,X,X,X,X,X,X,X,X,X,X,X  0 ' `.(.<                           F _.I ,X,X,X,X,X,X,X,X,X,X,X,X,X,X,X,X,X,X,X,X,X,X",
",X,X,X,X,X,X,X,X,X,X,X,X,X,X,X,X,X,X,X,X,X. ^ '._.' 1                 . @       0 /./ 1 ,X,X,X,X,X,X,X,X,X,X,X,X,X,X,X,X,X,X,X,X,X",
",X,X,X,X,X,X,X,X,X,X,X,X,X,X,X,X,X,X,X,X  # ^.].).F .                 . # @     # ( _.^.# ,X,X,X,X,X,X,X,X,X,X,X,X,X,X,X,X,X,X,X,X",
",X,X,X,X,X,X,X,X,X,X,X,X,X,X,X,X,X,X,X,X  ; ' ].).7                     . ; ; @   # ^ (.P . ,X,X,X,X,X,X,X,X,X,X,X,X,X,X,X,X,X,X,X",
",X,X,X,X,X,X,X,X,X,X,X,X,X,X,X,X,X,X,X    ` *X#XG                           + : < # < ` ^.D @ ,X,X,X,X,X,X,X,X,X,X,X,X,X,X,X,X,X,X",
",X,X,X,X,X,X,X,X,X,X,X,X,X,X,X,X,X,X,X  < ^.]._.8 . .                             @ 1 ; , q ,X,X,X,X,X,X,X,X,X,X,X,X,X,X,X,X,X,X,X",
",X,X,X,X,X,X,X,X,X,X,X,X,X,X,X,X,X,X,X,X/ #X).8 @ # .                                     ,X,X,X,X,X,X,X,X,X,X,X,X,X,X,X,X,X,X,X,X",
",X,X,X,X,X,X,X,X,X,X,X,X,X,X,X,X,X,X,X,X`.^.0 < #                                       ,X,X,X,X,X,X,X,X,X,X,X,X,X,X,X,X,X,X,X,X,X",
",X,X,X,X,X,X,X,X,X,X,X,X,X,X,X,X,X,X,X,X,X` ,X#                                     ,X,X,X,X,X,X,X,X,X,X,X,X,X,X,X,X,X,X,X,X,X,X,X"
};
