/* XPM */
static char *_520d8a5c3214920af6cbfd62d92a0f4WvWm1AV97SHUEcFa[] = {
/* columns rows colors chars-per-pixel */
"65 65 174 2 ",
"   c None",
".  c #000000",
"X  c #0A0703",
"o  c #0D0D0D",
"O  c #120C05",
"+  c #10100F",
"@  c #0F1114",
"#  c #141414",
"$  c #181717",
"%  c #1C1C1C",
"&  c #18191A",
"*  c #3B1F04",
"=  c #221B15",
"-  c #372615",
";  c #31261B",
":  c #181C20",
">  c #1F2122",
",  c #242424",
"<  c #2A2624",
"1  c #2D2925",
"2  c #2C2C2C",
"3  c #24292D",
"4  c #362F27",
"5  c #3E2F20",
"6  c #332F2C",
"7  c #3A3025",
"8  c #3D342B",
"9  c #36332F",
"0  c #2E2F31",
"q  c #2E3234",
"w  c #333334",
"e  c #3F3935",
"r  c #363738",
"t  c #373839",
"y  c #3B3B3B",
"u  c #452D17",
"i  c #4D3216",
"p  c #4B321A",
"a  c #55381C",
"s  c #563514",
"d  c #683C0F",
"f  c #6D3E10",
"g  c #653F19",
"h  c #663C12",
"j  c #453626",
"k  c #4F3921",
"l  c #483A2C",
"z  c #5E3F21",
"x  c #453C34",
"c  c #6F4013",
"v  c #67421F",
"b  c #7D4C1C",
"n  c #42403F",
"m  c #4D4134",
"M  c #504130",
"N  c #544638",
"B  c #5D4935",
"V  c #654627",
"C  c #6E4D2D",
"Z  c #6A4927",
"A  c #6A4F34",
"S  c #6E563E",
"D  c #785431",
"F  c #7F5932",
"G  c #7A5A38",
"H  c #775534",
"J  c #444444",
"K  c #4B4B4B",
"L  c #41464B",
"P  c #4E5256",
"I  c #545454",
"U  c #575859",
"Y  c #5B5B5B",
"T  c #6F5B48",
"R  c #7C5F41",
"E  c #7B6041",
"W  c #7F6956",
"Q  c #72675A",
"!  c #646464",
"~  c #69696A",
"^  c #676665",
"/  c #7C7269",
"(  c #747474",
")  c #7B7B7B",
"_  c #95520F",
"`  c #94581D",
"'  c #805021",
"]  c #865829",
"[  c #8D5D2E",
"{  c #815A33",
"}  c #815C3B",
"|  c #95622F",
" . c #9A632C",
".. c #8B6238",
"X. c #9B6B3B",
"o. c #A16427",
"O. c #A06C38",
"+. c #AE753D",
"@. c #B87735",
"#. c #B3773B",
"$. c #846545",
"%. c #876949",
"&. c #9B6E41",
"*. c #946F4A",
"=. c #987149",
"-. c #8A725A",
";. c #957453",
":. c #9E7D5A",
">. c #AF7A47",
",. c #A97A4B",
"<. c #B47D45",
"1. c #B4804B",
"2. c #B98855",
"3. c #B48658",
"4. c #BC8B5B",
"5. c #9A826B",
"6. c #988370",
"7. c #9E8872",
"8. c #AC8C6C",
"9. c #BA946A",
"0. c #C38240",
"q. c #CA8B4B",
"w. c #D2904F",
"e. c #C48B53",
"r. c #CC9257",
"t. c #C59058",
"y. c #CD965F",
"u. c #D39251",
"i. c #D4995D",
"p. c #D5995C",
"a. c #C09160",
"s. c #C19568",
"d. c #CD9A68",
"f. c #DB9E62",
"g. c #D6A46F",
"h. c #DAA167",
"j. c #DDB07F",
"k. c #E2A76C",
"l. c #E2A86E",
"z. c #E3A566",
"x. c #E2AB74",
"c. c #E4AF78",
"v. c #7F8183",
"b. c #7C8289",
"n. c #828282",
"m. c #868A8D",
"M. c #8C8C8D",
"N. c #81868B",
"B. c #929293",
"V. c #92959A",
"C. c #9C9C9C",
"Z. c #AC9D8F",
"A. c #B69D84",
"S. c #A09F9F",
"D. c #A2A09F",
"F. c #A4A4A4",
"G. c #ABABAB",
"H. c #ABB1B6",
"J. c #B4B4B4",
"K. c #BCBCBC",
"L. c #E8B888",
"P. c #F3BC83",
"I. c #F8C186",
"U. c #FBC48B",
"Y. c #C3C3C3",
"T. c #CDCCCC",
"R. c #D3D3D3",
"E. c #D8D8D7",
"W. c #DBDBDB",
"Q. c #D1D6D9",
"!. c #E3E3E3",
"~. c #EBEBEB",
"^. c #F4F4F4",
"/. c #FBFBFB",
/* pixels */
"                                                                                                                                  ",
"                                                                                                                                  ",
"                                                                                                                                  ",
"                                                                                                                                  ",
"                                                                                                                                  ",
"                                                                                                                                  ",
"                                                                                                                                  ",
"                                                                                                                                  ",
"                                                                                                                                  ",
"                                                                                                                                  ",
"                                                                                                                                  ",
"                                                                                                                                  ",
"                                                                                                                                  ",
"                                                                                                                                  ",
"                                                                                                                                  ",
"                                                                                                                                  ",
"                                                                                                                                  ",
"                                                                                                                                  ",
"                                                                                                                                  ",
"                                                                                                                                  ",
"                                                                                                                                  ",
"                                                                                                                                  ",
"                                                                                                                                  ",
"                                                                                                                                  ",
"                                                            . . . . . . . .                                                       ",
"                                                        . . . . . . . . . .                                                       ",
"                                                      . . . . . . . . . . . .                                                     ",
"                                                    . . . . . . . . . . . . . .                                                   ",
"                                                    . . . . . . X ; = . O X . . .                                                 ",
"                                                  . . . . . . X a >.;.S { p . . .                                                 ",
"                                                2 o . . . . X u >.l.x.x.k.{ X . . o                                               ",
"                                              t J 2 . . . - - a O.R ;.x.4.p X $ 2 w                                               ",
"                                            9 y K J < . . i i A <.g l $.' u ; J I K                                               ",
"                                          , w r y K t < j { { 9.U.d.*.[ ` a x J J I J                                             ",
"                                          w y J K K t w $.t.i.c.L.8.-.>.| l q y I ! P                                             ",
"                                        w J n K U J t 3 M 1.p.w.X.^ b.W V 4 3 J Y I K ,                                           ",
"                                        r y y y K w , > 2 ;.x.w.f / R.6.C x # 1 J K K t                                           ",
"                                        2 2 K K y 2 $ + @ N 8.j.X.} 4.+.D < o = K ! ! U                                           ",
"                                        , r K K J t 2 2 2 $ < Q :. .o.] - @ : w x U ^ I                                           ",
"                                        , w t J I K K ! U 6 = : 4 C F R -.T e J K I P 0                                           ",
"                                        > , 0 I ^ U Y ~ ^ -...k l G =.a.U.g.A y ! ! r y                                           ",
"                                        U < 2 n U L K P Q 9.q. .2.P.P.f.h.p.Z : t y K G././.                                      ",
"                                      ^.R.n.( K r , 0 J -.t.0.f.P.P.x.p.q. .Z A 4 n D.~.W.^./.!.                                  ",
"                                  K.~./././.^.J.) y & 8 9.P.f.c.c.p.l.p.| D 3.e.T N.T.T.R.^./.^.!.                                ",
"                                J.~././././.Y.Y.W.M.q ; | u.r.p.l.k.p.O.Z ,.z.d.Z.V.F.!././././.^.                                ",
"                                G.~././.^./.W.M.B.Y.m.x h _ @.q.q.+.b g [ 0.e.A.C.B.Y.!.^.^./.^.!.                                ",
"                              C.B.J.~.^.W.!./.J.( M.T.v.5 h #.<.b s p f ` &.7.M.m.T.^.^.E.R.W.R.G.                                ",
"                              R.G.M.J.Y.J.W.E.K.G.v.F.J.! x V A w 4 V $.5.S.V.~ J.^././.~.Y.B.B.G.                                ",
"                                !.J.C.C.R./.T.R./.F.v.J.Y.m.L q t ! m.H.Q.K.F.n.W.^.^.!.Y.G.B.J.~.                                ",
"                                ~.~.!.J.Y.!.W.^./.Y.n.F.E.!.M.K ) Y.E.E./.K.( B.W./.!.K.C.F.W.~.                                  ",
"                                K.^./.^.W.J.Y.E.Y.n.~ M.T.~.E.Y.W.^.!.R.Y.n.( F.Y.^.^.^.~.!.!.                                    ",
"                                C.Y.R.~.~.R.T.C.U K ( S.R.W.!.!.~.!.T.C.Y J Y M.K.R.T.R.Y.B.                                      ",
"                                  ( M.J.F.n.( Y , 2 ~ ( M.J.Y.Y.Y.F.) !     # 2 U n.) ( ~                                         ",
"                                    n.M.) ^ 2 o X                           . . < v.B.K                                           ",
"                                    B.Y.C.J o . .                         . . . % ) C.U                                           ",
"                                    , V.G.( , . .     . . . . . . . . . . . . . , M.J.(                                           ",
"                                      ) C.C.y X . . . . . . . . . . . . . . X . , n.Y.C.                                          ",
"                                      , B.T.U . . . . . . . . . . . . . o & + . . t B.C.)                                         ",
"                                      n.C.) , . . . . . . . . . . . . . . + , , $ # 2 ) G.n.                                      ",
"                                    ^ J.F.t . o # . . . . . . . . . . . . . . o % % % 2 K Y                                       ",
"                                    G.M.< . . & # . . . . . . . . . . . . . . . . . # o o #                                       ",
"                                  I ( w o % 2 # . . . . . . . . . . . . . . . . . . . . . X                                       ",
"                                    J 2 q $ . . . . . . . . . . . . . . . . . . . . . . .                                         ",
"                                          . . . . . . . . . . . . . . . . . . . . . . .                                           ",
"                                              . . . . . . . . . . . . . . . . . . .                                               "
};
